<svg width="320" height="253" viewBox="0 0 320 253" fill="none" xmlns="http://www.w3.org/2000/svg">
<rect y="0.183594" width="320" height="252" rx="8" fill="#FAFAFA"/>
<rect width="120.143" height="170.018" transform="translate(100.07 53.1836)" fill="#FC401F"/>
<path fill-rule="evenodd" clip-rule="evenodd" d="M104.613 59.3095C104.613 58.4358 105.322 57.7275 106.196 57.7275H113.364C114.238 57.7275 114.946 58.4358 114.946 59.3095V66.4763C114.946 67.3501 115.654 68.0584 116.528 68.0584H128.863C129.737 68.0584 130.445 68.7666 130.445 69.6404V92.3035C130.445 93.1772 129.737 93.8855 128.863 93.8855H106.196C105.322 93.8855 104.613 93.1772 104.613 92.3035V59.3095Z" fill="white"/>
<path d="M157.271 68.0582H134.604C133.73 68.0582 133.022 68.7665 133.022 69.6402V92.3033C133.022 93.177 133.73 93.8853 134.604 93.8853H157.271C158.145 93.8853 158.853 93.177 158.853 92.3033V69.6402C158.853 68.7665 158.145 68.0582 157.271 68.0582Z" fill="white"/>
<path d="M185.679 68.0582H163.012C162.138 68.0582 161.43 68.7665 161.43 69.6402V92.3033C161.43 93.177 162.138 93.8853 163.012 93.8853H185.679C186.553 93.8853 187.262 93.177 187.262 92.3033V69.6402C187.262 68.7665 186.553 68.0582 185.679 68.0582Z" fill="white"/>
<path d="M214.088 68.0582H191.42C190.547 68.0582 189.838 68.7665 189.838 69.6402V92.3033C189.838 93.177 190.547 93.8853 191.42 93.8853H214.088C214.962 93.8853 215.67 93.177 215.67 92.3033V69.6402C215.67 68.7665 214.962 68.0582 214.088 68.0582Z" fill="white"/>
<path d="M166.469 163.938H162.297C162.111 163.938 161.959 164.089 161.959 164.276V170.364C161.959 170.55 162.111 170.702 162.297 170.702H168.385C168.572 170.702 168.723 170.55 168.723 170.364V164.276C168.723 164.089 168.572 163.938 168.385 163.938H166.469Z" fill="#FFD12F"/>
<path d="M104.891 101.212V98.8434H105.962C106.412 98.8434 106.7 99.0493 106.7 99.4407C106.7 99.729 106.553 99.8766 106.343 99.9556V100.017C106.625 100.083 106.772 100.247 106.772 100.567C106.772 100.989 106.45 101.212 106.01 101.212H104.891ZM105.993 100.817C106.189 100.817 106.319 100.7 106.319 100.505C106.319 100.319 106.185 100.199 105.993 100.199H105.334V100.817H105.993ZM105.334 99.8388H105.921C106.113 99.8388 106.244 99.7187 106.244 99.5333C106.244 99.3445 106.11 99.2313 105.921 99.2313H105.334V99.8388ZM107.544 101.263C107.215 101.263 106.947 101.064 106.947 100.738C106.947 100.354 107.242 100.23 107.599 100.192L108.104 100.141V100.045C108.104 99.8972 107.984 99.7942 107.771 99.7942C107.568 99.7942 107.452 99.8835 107.414 100.017H107.002C107.043 99.6912 107.314 99.4441 107.771 99.4441C108.21 99.4441 108.502 99.6569 108.502 100.072V100.91C108.502 101.016 108.512 101.164 108.519 101.205V101.212H108.107C108.104 101.154 108.104 101.099 108.104 101.04H108.042C107.936 101.212 107.75 101.263 107.544 101.263ZM107.38 100.718C107.38 100.858 107.496 100.941 107.661 100.941C107.943 100.941 108.104 100.728 108.104 100.512V100.426L107.726 100.47C107.493 100.498 107.38 100.567 107.38 100.718ZM109.51 101.263C109.078 101.263 108.769 101.047 108.721 100.707H109.143C109.191 100.858 109.349 100.924 109.514 100.924C109.682 100.924 109.819 100.851 109.819 100.724C109.819 100.597 109.689 100.563 109.51 100.532L109.328 100.501C108.985 100.443 108.772 100.299 108.772 99.9899C108.772 99.6535 109.067 99.4441 109.476 99.4441C109.874 99.4441 110.138 99.6295 110.21 99.9521H109.798C109.75 99.8251 109.623 99.7736 109.479 99.7736C109.304 99.7736 109.191 99.8491 109.191 99.9556C109.191 100.065 109.28 100.1 109.465 100.131L109.647 100.162C109.98 100.216 110.234 100.354 110.234 100.687C110.234 101.051 109.932 101.263 109.51 101.263ZM111.247 101.263C110.718 101.263 110.368 100.903 110.368 100.35C110.368 99.808 110.739 99.4441 111.25 99.4441C111.786 99.4441 112.095 99.8423 112.095 100.367V100.443H110.787C110.807 100.728 111.007 100.896 111.247 100.896C111.446 100.896 111.566 100.827 111.624 100.707H112.064C111.975 101.03 111.655 101.263 111.247 101.263ZM110.794 100.158H111.676C111.642 99.9281 111.46 99.7942 111.247 99.7942C111.024 99.7942 110.835 99.9247 110.794 100.158ZM106.131 104.565C105.341 104.565 104.751 104.054 104.751 103.223C104.751 102.403 105.375 101.823 106.131 101.823C107.016 101.823 107.483 102.434 107.483 103.096C107.483 103.642 107.147 103.937 106.814 103.937C106.632 103.937 106.515 103.855 106.477 103.714H106.415C106.343 103.851 106.185 103.941 106.004 103.941C105.616 103.941 105.386 103.604 105.386 103.21C105.386 102.798 105.667 102.454 106.041 102.454C106.209 102.454 106.336 102.526 106.388 102.629H106.45V102.496H106.772V103.536C106.772 103.604 106.807 103.646 106.879 103.646C107.037 103.646 107.184 103.443 107.184 103.117C107.184 102.506 106.8 102.091 106.127 102.091C105.495 102.091 105.049 102.585 105.049 103.223C105.049 103.879 105.492 104.301 106.127 104.301C106.367 104.301 106.57 104.239 106.721 104.147L106.851 104.366C106.673 104.483 106.446 104.565 106.131 104.565ZM106.093 103.608C106.302 103.608 106.45 103.44 106.45 103.196C106.45 102.962 106.306 102.794 106.103 102.794C105.894 102.794 105.76 102.962 105.76 103.196C105.76 103.44 105.89 103.608 106.093 103.608ZM107.785 104.212V101.843H109.508V102.245H108.231V102.794H109.326V103.189H108.231V103.81H109.539V104.212H107.785ZM110.428 104.212V102.245H109.631V101.843H111.677V102.245H110.877V104.212H110.428ZM111.9 104.212V101.843H112.35V102.808H113.431V101.843H113.881V104.212H113.431V103.21H112.35V104.212H111.9ZM114.335 104.212V101.843H115.251C115.993 101.843 116.422 102.334 116.422 103.007C116.422 103.68 115.993 104.212 115.251 104.212H114.335ZM115.176 103.814C115.674 103.814 115.952 103.494 115.952 103.01C115.952 102.523 115.674 102.242 115.176 102.242H114.785V103.814H115.176ZM117.467 104.263C116.938 104.263 116.588 103.903 116.588 103.35C116.588 102.808 116.959 102.444 117.47 102.444C118.006 102.444 118.315 102.842 118.315 103.367V103.443H117.007C117.028 103.728 117.227 103.896 117.467 103.896C117.666 103.896 117.786 103.827 117.845 103.707H118.284C118.195 104.03 117.876 104.263 117.467 104.263ZM117.014 103.158H117.896C117.862 102.928 117.68 102.794 117.467 102.794C117.244 102.794 117.055 102.925 117.014 103.158ZM118.573 104.212V102.496H119.002V102.698H119.064C119.17 102.523 119.339 102.444 119.531 102.444C119.877 102.444 120.104 102.681 120.104 103.062V104.212H119.675V103.196C119.675 103.004 119.586 102.835 119.352 102.835C119.129 102.835 119.002 103.004 119.002 103.196V104.212H118.573ZM120.784 104.212L120.249 102.496H120.702L121.073 103.858H121.134L121.498 102.496H121.938L121.392 104.212H120.784ZM122.843 104.263C122.315 104.263 121.965 103.903 121.965 103.35C121.965 102.808 122.335 102.444 122.847 102.444C123.382 102.444 123.691 102.842 123.691 103.367V103.443H122.383C122.404 103.728 122.603 103.896 122.843 103.896C123.043 103.896 123.163 103.827 123.221 103.707H123.66C123.571 104.03 123.252 104.263 122.843 104.263ZM122.39 103.158H123.273C123.238 102.928 123.056 102.794 122.843 102.794C122.62 102.794 122.431 102.925 122.39 103.158ZM123.949 104.212V102.496H124.375V102.801H124.437C124.523 102.592 124.739 102.465 124.986 102.465H125.014V102.925C124.966 102.918 124.935 102.914 124.869 102.914C124.595 102.914 124.379 103.062 124.379 103.419V104.212H123.949ZM104.785 107.212V106.79L105.495 106.192C105.777 105.956 105.918 105.791 105.918 105.575C105.918 105.369 105.78 105.245 105.592 105.245C105.396 105.245 105.235 105.362 105.204 105.578H104.747C104.802 105.128 105.156 104.843 105.605 104.843C106.048 104.843 106.378 105.128 106.378 105.575C106.378 105.945 106.144 106.172 105.767 106.47L105.396 106.766V106.821H106.446V107.212H104.785ZM107.549 107.263C106.965 107.263 106.639 106.755 106.639 106.052C106.639 105.348 106.965 104.843 107.549 104.843C108.129 104.843 108.452 105.348 108.452 106.052C108.452 106.755 108.129 107.263 107.549 107.263ZM107.549 106.869C107.851 106.869 107.992 106.57 107.992 106.052C107.992 105.533 107.851 105.238 107.549 105.238C107.244 105.238 107.099 105.533 107.099 106.052C107.099 106.57 107.244 106.869 107.549 106.869ZM108.682 107.212V106.79L109.393 106.192C109.674 105.956 109.815 105.791 109.815 105.575C109.815 105.369 109.678 105.245 109.489 105.245C109.293 105.245 109.132 105.362 109.101 105.578H108.644C108.699 105.128 109.053 104.843 109.502 104.843C109.945 104.843 110.275 105.128 110.275 105.575C110.275 105.945 110.041 106.172 109.664 106.47L109.293 106.766V106.821H110.343V107.212H108.682ZM111.443 107.263C110.784 107.263 110.537 106.711 110.537 106.069C110.537 105.283 110.942 104.843 111.477 104.843C111.94 104.843 112.198 105.115 112.256 105.461H111.813C111.772 105.338 111.673 105.242 111.477 105.242C111.251 105.242 110.983 105.41 110.962 105.925H111.024C111.137 105.746 111.319 105.653 111.539 105.653C111.982 105.653 112.291 105.993 112.291 106.443C112.291 106.906 111.934 107.263 111.443 107.263ZM111.429 106.869C111.666 106.869 111.838 106.676 111.838 106.446C111.838 106.199 111.669 106.028 111.432 106.028C111.185 106.028 111.021 106.206 111.021 106.446C111.021 106.676 111.189 106.869 111.429 106.869Z" fill="white"/>
<path d="M162.237 177.135V174.766H163.926V175.168H162.683V175.717H163.744V176.119H162.683V177.135H162.237ZM164.047 177.135V175.418H164.473V175.724H164.535C164.621 175.515 164.837 175.388 165.084 175.388H165.111V175.848C165.063 175.841 165.032 175.837 164.967 175.837C164.693 175.837 164.476 175.985 164.476 176.342V177.135H164.047ZM165.322 177.135V175.418H165.751V177.135H165.322ZM165.319 175.195V174.766H165.755V175.195H165.319ZM166.787 177.186C166.323 177.186 166.011 176.816 166.011 176.294C166.011 175.762 166.354 175.367 166.811 175.367C166.999 175.367 167.181 175.436 167.288 175.628H167.35V174.766H167.775V177.135H167.35V176.936H167.288C167.178 177.114 166.972 177.186 166.787 177.186ZM166.903 176.802C167.161 176.802 167.35 176.596 167.35 176.277C167.35 175.957 167.161 175.751 166.903 175.751C166.639 175.751 166.45 175.968 166.45 176.277C166.45 176.586 166.642 176.802 166.903 176.802ZM168.641 177.186C168.311 177.186 168.043 176.987 168.043 176.661C168.043 176.277 168.339 176.153 168.696 176.115L169.2 176.064V175.968C169.2 175.82 169.08 175.717 168.867 175.717C168.665 175.717 168.548 175.806 168.51 175.94H168.098C168.139 175.614 168.411 175.367 168.867 175.367C169.307 175.367 169.598 175.58 169.598 175.995V176.833C169.598 176.939 169.609 177.087 169.616 177.128V177.135H169.204C169.2 177.076 169.2 177.021 169.2 176.963H169.138C169.032 177.135 168.847 177.186 168.641 177.186ZM168.476 176.64C168.476 176.781 168.593 176.864 168.757 176.864C169.039 176.864 169.2 176.651 169.2 176.435V176.349L168.823 176.393C168.589 176.421 168.476 176.489 168.476 176.64ZM169.811 177.787V177.444H170.123C170.233 177.444 170.295 177.396 170.332 177.282L170.367 177.183L169.711 175.418H170.157L170.542 176.613H170.604L170.981 175.418H171.427L170.655 177.464C170.573 177.687 170.449 177.787 170.185 177.787H169.811ZM172.107 177.135V176.713L172.817 176.115C173.099 175.878 173.239 175.714 173.239 175.497C173.239 175.291 173.102 175.168 172.913 175.168C172.718 175.168 172.556 175.285 172.525 175.501H172.069C172.124 175.051 172.477 174.766 172.927 174.766C173.37 174.766 173.699 175.051 173.699 175.497C173.699 175.868 173.466 176.095 173.088 176.393L172.718 176.689V176.743H173.768V177.135H172.107ZM173.844 177.423L174.871 174.715H175.269L174.243 177.423H173.844ZM175.303 177.135V176.713L176.014 176.115C176.295 175.878 176.436 175.714 176.436 175.497C176.436 175.291 176.299 175.168 176.11 175.168C175.914 175.168 175.753 175.285 175.722 175.501H175.265C175.32 175.051 175.674 174.766 176.124 174.766C176.566 174.766 176.896 175.051 176.896 175.497C176.896 175.868 176.663 176.095 176.285 176.393L175.914 176.689V176.743H176.965V177.135H175.303ZM178.023 177.186C177.46 177.186 177.151 176.891 177.151 176.513C177.151 176.222 177.329 176.043 177.566 175.964V175.902C177.374 175.834 177.219 175.669 177.219 175.412C177.219 175.065 177.491 174.766 178.023 174.766C178.544 174.766 178.829 175.065 178.829 175.412C178.829 175.669 178.675 175.834 178.479 175.902V175.964C178.713 176.04 178.891 176.225 178.891 176.513C178.891 176.891 178.582 177.186 178.023 177.186ZM178.023 176.795C178.277 176.795 178.435 176.651 178.435 176.452C178.435 176.259 178.277 176.112 178.023 176.112C177.772 176.112 177.614 176.259 177.614 176.452C177.614 176.651 177.772 176.795 178.023 176.795ZM178.023 175.775C178.239 175.775 178.383 175.642 178.383 175.456C178.383 175.274 178.239 175.14 178.023 175.14C177.81 175.14 177.666 175.274 177.666 175.456C177.666 175.642 177.81 175.775 178.023 175.775ZM162.237 180.135V177.766H163.154C163.895 177.766 164.324 178.257 164.324 178.93C164.324 179.603 163.895 180.135 163.154 180.135H162.237ZM163.078 179.737C163.576 179.737 163.854 179.417 163.854 178.933C163.854 178.446 163.576 178.164 163.078 178.164H162.687V179.737H163.078ZM165.369 180.186C164.841 180.186 164.49 179.826 164.49 179.273C164.49 178.731 164.861 178.367 165.373 178.367C165.908 178.367 166.217 178.765 166.217 179.29V179.366H164.909C164.93 179.651 165.129 179.819 165.369 179.819C165.568 179.819 165.688 179.75 165.747 179.63H166.186C166.097 179.953 165.778 180.186 165.369 180.186ZM164.916 179.081H165.798C165.764 178.851 165.582 178.717 165.369 178.717C165.146 178.717 164.957 178.848 164.916 179.081ZM166.475 180.135V178.418H166.904V178.621H166.966C167.072 178.446 167.241 178.367 167.433 178.367C167.78 178.367 168.006 178.604 168.006 178.985V180.135H167.577V179.119C167.577 178.926 167.488 178.758 167.254 178.758C167.031 178.758 166.904 178.926 166.904 179.119V180.135H166.475ZM168.686 180.135L168.151 178.418H168.604L168.975 179.781H169.037L169.4 178.418H169.84L169.294 180.135H168.686ZM170.746 180.186C170.217 180.186 169.867 179.826 169.867 179.273C169.867 178.731 170.238 178.367 170.749 178.367C171.284 178.367 171.593 178.765 171.593 179.29V179.366H170.286C170.306 179.651 170.505 179.819 170.746 179.819C170.945 179.819 171.065 179.75 171.123 179.63H171.563C171.473 179.953 171.154 180.186 170.746 180.186ZM170.292 179.081H171.175C171.14 178.851 170.958 178.717 170.746 178.717C170.522 178.717 170.334 178.848 170.292 179.081ZM171.852 180.135V178.418H172.277V178.724H172.339C172.425 178.515 172.641 178.388 172.888 178.388H172.916V178.848C172.868 178.841 172.837 178.837 172.772 178.837C172.497 178.837 172.281 178.985 172.281 179.342V180.135H171.852ZM173.742 180.135V177.766H174.507L174.991 179.682H175.053L175.547 177.766H176.289V180.135H175.88V178.219H175.812L175.314 180.135H174.71L174.219 178.219H174.15V180.135H173.742ZM177.444 180.186C176.915 180.186 176.565 179.826 176.565 179.273C176.565 178.731 176.936 178.367 177.447 178.367C177.983 178.367 178.292 178.765 178.292 179.29V179.366H176.984C177.004 179.651 177.203 179.819 177.444 179.819C177.643 179.819 177.763 179.75 177.821 179.63H178.261C178.171 179.953 177.852 180.186 177.444 180.186ZM176.991 179.081H177.873C177.838 178.851 177.656 178.717 177.444 178.717C177.221 178.717 177.032 178.848 176.991 179.081ZM179.312 180.186C178.783 180.186 178.433 179.826 178.433 179.273C178.433 178.731 178.804 178.367 179.315 178.367C179.851 178.367 180.16 178.765 180.16 179.29V179.366H178.852C178.872 179.651 179.071 179.819 179.312 179.819C179.511 179.819 179.631 179.75 179.689 179.63H180.129C180.04 179.953 179.72 180.186 179.312 180.186ZM178.859 179.081H179.741C179.707 178.851 179.525 178.717 179.312 178.717C179.089 178.717 178.9 178.848 178.859 179.081ZM180.823 180.148C180.645 180.148 180.535 180.032 180.535 179.843V178.745H180.219V178.418H180.542V177.955H180.95V178.418H181.355V178.745H180.957V179.702C180.957 179.774 180.985 179.809 181.067 179.809H181.355V180.148H180.823ZM182.34 180.186C181.873 180.186 181.581 179.912 181.581 179.438V178.418H182.011V179.428C182.011 179.634 182.114 179.798 182.34 179.798C182.563 179.798 182.666 179.634 182.666 179.428V178.418H183.095V179.438C183.095 179.912 182.807 180.186 182.34 180.186ZM184.439 178.367C184.902 178.367 185.215 178.738 185.215 179.259C185.215 179.791 184.871 180.186 184.415 180.186C184.226 180.186 184.044 180.118 183.938 179.925H183.876V180.787H183.45V178.418H183.876V178.618H183.938C184.047 178.439 184.253 178.367 184.439 178.367ZM184.322 178.751C184.065 178.751 183.876 178.957 183.876 179.277C183.876 179.596 184.065 179.802 184.322 179.802C184.586 179.802 184.775 179.586 184.775 179.277C184.775 178.968 184.583 178.751 184.322 178.751ZM162.992 183.186C162.525 183.186 162.213 182.915 162.134 182.52H162.597C162.649 182.668 162.786 182.788 162.996 182.788C163.239 182.788 163.397 182.606 163.397 182.362C163.397 182.126 163.246 181.94 162.996 181.94C162.773 181.94 162.652 182.084 162.611 182.215L162.165 182.194L162.23 180.818H163.672V181.216H162.597L162.57 181.81H162.632C162.721 181.669 162.889 181.563 163.136 181.563C163.572 181.563 163.847 181.909 163.847 182.359C163.847 182.843 163.483 183.186 162.992 183.186ZM164.063 182.397V182.026H165.731V182.397H164.063ZM166.832 183.186C166.269 183.186 165.96 182.891 165.96 182.513C165.96 182.222 166.139 182.043 166.376 181.964V181.902C166.183 181.834 166.029 181.669 166.029 181.412C166.029 181.065 166.3 180.766 166.832 180.766C167.354 180.766 167.639 181.065 167.639 181.412C167.639 181.669 167.484 181.834 167.289 181.902V181.964C167.522 182.04 167.701 182.225 167.701 182.513C167.701 182.891 167.392 183.186 166.832 183.186ZM166.832 182.795C167.086 182.795 167.244 182.651 167.244 182.452C167.244 182.259 167.086 182.112 166.832 182.112C166.582 182.112 166.424 182.259 166.424 182.452C166.424 182.651 166.582 182.795 166.832 182.795ZM166.832 181.775C167.048 181.775 167.193 181.642 167.193 181.456C167.193 181.274 167.048 181.14 166.832 181.14C166.619 181.14 166.475 181.274 166.475 181.456C166.475 181.642 166.619 181.775 166.832 181.775ZM168.983 181.367C169.447 181.367 169.759 181.738 169.759 182.259C169.759 182.791 169.416 183.186 168.959 183.186C168.77 183.186 168.589 183.118 168.482 182.925H168.42V183.787H167.995V181.418H168.42V181.618H168.482C168.592 181.439 168.798 181.367 168.983 181.367ZM168.867 181.751C168.609 181.751 168.42 181.957 168.42 182.277C168.42 182.596 168.609 182.802 168.867 182.802C169.131 182.802 169.32 182.586 169.32 182.277C169.32 181.968 169.127 181.751 168.867 181.751ZM170.02 183.135V181.418H170.449V181.621H170.511C170.618 181.446 170.782 181.367 170.985 181.367C171.198 181.367 171.359 181.456 171.452 181.621H171.514C171.623 181.453 171.781 181.367 172.015 181.367C172.392 181.367 172.633 181.611 172.633 181.999V183.135H172.204V182.108C172.204 181.916 172.118 181.758 171.891 181.758C171.671 181.758 171.541 181.92 171.541 182.102V183.135H171.112V182.119C171.112 181.926 171.023 181.758 170.793 181.758C170.573 181.758 170.449 181.926 170.449 182.119V183.135H170.02ZM161.997 189.145V188.74H162.402C162.501 188.74 162.539 188.692 162.539 188.599V186.766H162.989V188.791C162.989 189.004 162.845 189.145 162.639 189.145H161.997ZM164.149 189.186C163.638 189.186 163.253 188.805 163.253 188.277C163.253 187.748 163.638 187.367 164.149 187.367C164.657 187.367 165.045 187.748 165.045 188.277C165.045 188.805 164.657 189.186 164.149 189.186ZM164.149 188.798C164.414 188.798 164.606 188.589 164.606 188.277C164.606 187.964 164.414 187.755 164.149 187.755C163.882 187.755 163.693 187.964 163.693 188.277C163.693 188.589 163.882 188.798 164.149 188.798ZM165.302 189.135V187.418H165.731V189.135H165.302ZM165.299 187.195V186.766H165.734V187.195H165.299ZM166.107 189.135V187.418H166.536V187.621H166.598C166.705 187.446 166.873 187.367 167.065 187.367C167.412 187.367 167.638 187.604 167.638 187.985V189.135H167.209V188.119C167.209 187.926 167.12 187.758 166.887 187.758C166.663 187.758 166.536 187.926 166.536 188.119V189.135H166.107ZM168.695 189.135V186.766H169.766C170.215 186.766 170.504 186.972 170.504 187.364C170.504 187.652 170.356 187.799 170.147 187.878V187.94C170.428 188.005 170.576 188.17 170.576 188.489C170.576 188.912 170.253 189.135 169.814 189.135H168.695ZM169.797 188.74C169.992 188.74 170.123 188.623 170.123 188.428C170.123 188.242 169.989 188.122 169.797 188.122H169.138V188.74H169.797ZM169.138 187.762H169.725C169.917 187.762 170.047 187.642 170.047 187.456C170.047 187.267 169.913 187.154 169.725 187.154H169.138V187.762ZM171.348 189.186C171.018 189.186 170.75 188.987 170.75 188.661C170.75 188.277 171.046 188.153 171.403 188.115L171.907 188.064V187.968C171.907 187.82 171.787 187.717 171.574 187.717C171.372 187.717 171.255 187.806 171.217 187.94H170.805C170.847 187.614 171.118 187.367 171.574 187.367C172.014 187.367 172.305 187.58 172.305 187.995V188.833C172.305 188.939 172.316 189.087 172.323 189.128V189.135H171.911C171.907 189.076 171.907 189.021 171.907 188.963H171.845C171.739 189.135 171.554 189.186 171.348 189.186ZM171.183 188.64C171.183 188.781 171.3 188.864 171.464 188.864C171.746 188.864 171.907 188.651 171.907 188.435V188.349L171.53 188.393C171.296 188.421 171.183 188.489 171.183 188.64ZM173.314 189.186C172.881 189.186 172.572 188.97 172.524 188.63H172.946C172.994 188.781 173.152 188.846 173.317 188.846C173.485 188.846 173.622 188.774 173.622 188.647C173.622 188.52 173.492 188.486 173.314 188.455L173.132 188.424C172.788 188.366 172.575 188.222 172.575 187.913C172.575 187.576 172.871 187.367 173.279 187.367C173.677 187.367 173.942 187.552 174.014 187.875H173.602C173.554 187.748 173.427 187.696 173.283 187.696C173.108 187.696 172.994 187.772 172.994 187.878C172.994 187.988 173.084 188.023 173.269 188.053L173.451 188.084C173.784 188.139 174.038 188.277 174.038 188.61C174.038 188.973 173.736 189.186 173.314 189.186ZM175.05 189.186C174.522 189.186 174.171 188.826 174.171 188.273C174.171 187.731 174.542 187.367 175.054 187.367C175.589 187.367 175.898 187.765 175.898 188.29V188.366H174.59C174.611 188.651 174.81 188.819 175.05 188.819C175.249 188.819 175.369 188.75 175.428 188.63H175.867C175.778 188.953 175.459 189.186 175.05 189.186ZM174.597 188.081H175.479C175.445 187.851 175.263 187.717 175.05 187.717C174.827 187.717 174.638 187.848 174.597 188.081ZM176.955 189.135V187.745H176.649V187.418H176.958V187.072C176.958 186.88 177.082 186.756 177.267 186.756H177.765V187.085H177.48C177.401 187.085 177.367 187.127 177.367 187.202V187.418H177.765V187.745H177.37V189.135H176.955ZM178.704 189.186C178.192 189.186 177.808 188.805 177.808 188.277C177.808 187.748 178.192 187.367 178.704 187.367C179.212 187.367 179.6 187.748 179.6 188.277C179.6 188.805 179.212 189.186 178.704 189.186ZM178.704 188.798C178.968 188.798 179.16 188.589 179.16 188.277C179.16 187.964 178.968 187.755 178.704 187.755C178.436 187.755 178.247 187.964 178.247 188.277C178.247 188.589 178.436 188.798 178.704 188.798ZM179.857 189.135V187.418H180.282V187.724H180.344C180.43 187.515 180.646 187.388 180.893 187.388H180.921V187.848C180.873 187.841 180.842 187.837 180.777 187.837C180.502 187.837 180.286 187.985 180.286 188.342V189.135H179.857ZM182.358 189.186C181.925 189.186 181.616 188.97 181.568 188.63H181.99C182.038 188.781 182.196 188.846 182.361 188.846C182.529 188.846 182.667 188.774 182.667 188.647C182.667 188.52 182.536 188.486 182.358 188.455L182.176 188.424C181.832 188.366 181.62 188.222 181.62 187.913C181.62 187.576 181.915 187.367 182.323 187.367C182.721 187.367 182.986 187.552 183.058 187.875H182.646C182.598 187.748 182.471 187.696 182.327 187.696C182.152 187.696 182.038 187.772 182.038 187.878C182.038 187.988 182.128 188.023 182.313 188.053L182.495 188.084C182.828 188.139 183.082 188.277 183.082 188.61C183.082 188.973 182.78 189.186 182.358 189.186ZM183.332 189.135V187.418H183.761V189.135H183.332ZM183.329 187.195V186.766H183.765V187.195H183.329ZM184.797 189.186C184.333 189.186 184.021 188.816 184.021 188.294C184.021 187.762 184.364 187.367 184.821 187.367C185.01 187.367 185.192 187.436 185.298 187.628H185.36V186.766H185.785V189.135H185.36V188.936H185.298C185.188 189.114 184.982 189.186 184.797 189.186ZM184.914 188.802C185.171 188.802 185.36 188.596 185.36 188.277C185.36 187.957 185.171 187.751 184.914 187.751C184.649 187.751 184.46 187.968 184.46 188.277C184.46 188.586 184.653 188.802 184.914 188.802ZM186.925 189.186C186.397 189.186 186.047 188.826 186.047 188.273C186.047 187.731 186.417 187.367 186.929 187.367C187.464 187.367 187.773 187.765 187.773 188.29V188.366H186.465C186.486 188.651 186.685 188.819 186.925 188.819C187.125 188.819 187.245 188.75 187.303 188.63H187.742C187.653 188.953 187.334 189.186 186.925 189.186ZM186.472 188.081H187.355C187.32 187.851 187.138 187.717 186.925 187.717C186.702 187.717 186.514 187.848 186.472 188.081ZM189.452 189.186C188.923 189.186 188.573 188.826 188.573 188.273C188.573 187.731 188.944 187.367 189.455 187.367C189.99 187.367 190.299 187.765 190.299 188.29V188.366H188.992C189.012 188.651 189.211 188.819 189.452 188.819C189.651 188.819 189.771 188.75 189.829 188.63H190.269C190.179 188.953 189.86 189.186 189.452 189.186ZM188.998 188.081H189.881C189.846 187.851 189.664 187.717 189.452 187.717C189.228 187.717 189.04 187.848 188.998 188.081ZM190.867 189.135L190.332 187.418H190.785L191.156 188.781H191.217L191.581 187.418H192.021L191.475 189.135H190.867ZM192.926 189.186C192.398 189.186 192.048 188.826 192.048 188.273C192.048 187.731 192.418 187.367 192.93 187.367C193.465 187.367 193.774 187.765 193.774 188.29V188.366H192.466C192.487 188.651 192.686 188.819 192.926 188.819C193.125 188.819 193.246 188.75 193.304 188.63H193.743C193.654 188.953 193.335 189.186 192.926 189.186ZM192.473 188.081H193.355C193.321 187.851 193.139 187.717 192.926 187.717C192.703 187.717 192.514 187.848 192.473 188.081ZM194.032 189.135V187.418H194.461V187.621H194.523C194.63 187.446 194.798 187.367 194.99 187.367C195.337 187.367 195.563 187.604 195.563 187.985V189.135H195.134V188.119C195.134 187.926 195.045 187.758 194.812 187.758C194.588 187.758 194.461 187.926 194.461 188.119V189.135H194.032ZM196.34 189.148C196.161 189.148 196.051 189.032 196.051 188.843V187.745H195.735V187.418H196.058V186.955H196.467V187.418H196.872V187.745H196.473V188.702C196.473 188.774 196.501 188.809 196.583 188.809H196.872V189.148H196.34ZM197.77 189.186C197.338 189.186 197.029 188.97 196.981 188.63H197.403C197.451 188.781 197.609 188.846 197.774 188.846C197.942 188.846 198.079 188.774 198.079 188.647C198.079 188.52 197.949 188.486 197.77 188.455L197.588 188.424C197.245 188.366 197.032 188.222 197.032 187.913C197.032 187.576 197.328 187.367 197.736 187.367C198.134 187.367 198.399 187.552 198.471 187.875H198.059C198.011 187.748 197.884 187.696 197.74 187.696C197.564 187.696 197.451 187.772 197.451 187.878C197.451 187.988 197.54 188.023 197.726 188.053L197.908 188.084C198.241 188.139 198.495 188.277 198.495 188.61C198.495 188.973 198.193 189.186 197.77 189.186ZM162.687 192.186C162.357 192.186 162.089 191.987 162.089 191.661C162.089 191.277 162.385 191.153 162.742 191.115L163.246 191.064V190.968C163.246 190.82 163.126 190.717 162.913 190.717C162.711 190.717 162.594 190.806 162.556 190.94H162.144C162.186 190.614 162.457 190.367 162.913 190.367C163.353 190.367 163.644 190.58 163.644 190.995V191.833C163.644 191.939 163.655 192.087 163.662 192.128V192.135H163.25C163.246 192.076 163.246 192.021 163.246 191.963H163.184C163.078 192.135 162.893 192.186 162.687 192.186ZM162.522 191.64C162.522 191.781 162.639 191.864 162.803 191.864C163.085 191.864 163.246 191.651 163.246 191.435V191.349L162.869 191.393C162.635 191.421 162.522 191.489 162.522 191.64ZM164.004 192.135V190.418H164.433V190.621H164.495C164.601 190.446 164.769 190.367 164.961 190.367C165.308 190.367 165.535 190.604 165.535 190.985V192.135H165.106V191.119C165.106 190.926 165.016 190.758 164.783 190.758C164.56 190.758 164.433 190.926 164.433 191.119V192.135H164.004ZM166.554 192.186C166.091 192.186 165.779 191.816 165.779 191.294C165.779 190.762 166.122 190.367 166.578 190.367C166.767 190.367 166.949 190.436 167.056 190.628H167.117V189.766H167.543V192.135H167.117V191.936H167.056C166.946 192.114 166.74 192.186 166.554 192.186ZM166.671 191.802C166.929 191.802 167.117 191.596 167.117 191.277C167.117 190.957 166.929 190.751 166.671 190.751C166.407 190.751 166.218 190.968 166.218 191.277C166.218 191.586 166.41 191.802 166.671 191.802ZM168.795 192.135L168.435 190.418H168.867L169.111 191.781H169.173L169.437 190.418H170.079L170.347 191.781H170.409L170.649 190.418H171.071L170.693 192.135H170.048L169.784 190.772H169.722L169.465 192.135H168.795ZM172.064 192.186C171.553 192.186 171.168 191.805 171.168 191.277C171.168 190.748 171.553 190.367 172.064 190.367C172.572 190.367 172.96 190.748 172.96 191.277C172.96 191.805 172.572 192.186 172.064 192.186ZM172.064 191.798C172.329 191.798 172.521 191.589 172.521 191.277C172.521 190.964 172.329 190.755 172.064 190.755C171.796 190.755 171.608 190.964 171.608 191.277C171.608 191.589 171.796 191.798 172.064 191.798ZM173.217 192.135V190.418H173.643V190.724H173.704C173.79 190.515 174.006 190.388 174.254 190.388H174.281V190.848C174.233 190.841 174.202 190.837 174.137 190.837C173.862 190.837 173.646 190.985 173.646 191.342V192.135H173.217ZM174.492 192.135V189.766H174.921V191.139H174.983L175.566 190.418H176.064L175.343 191.239L176.102 192.135H175.594L174.983 191.407H174.921V192.135H174.492ZM176.821 192.186C176.388 192.186 176.079 191.97 176.031 191.63H176.454C176.502 191.781 176.66 191.846 176.824 191.846C176.992 191.846 177.13 191.774 177.13 191.647C177.13 191.52 176.999 191.486 176.821 191.455L176.639 191.424C176.296 191.366 176.083 191.222 176.083 190.913C176.083 190.576 176.378 190.367 176.787 190.367C177.185 190.367 177.449 190.552 177.521 190.875H177.109C177.061 190.748 176.934 190.696 176.79 190.696C176.615 190.696 176.502 190.772 176.502 190.878C176.502 190.988 176.591 191.023 176.776 191.053L176.958 191.084C177.291 191.139 177.545 191.277 177.545 191.61C177.545 191.973 177.243 192.186 176.821 192.186ZM177.795 192.135V189.766H178.225V190.621H178.286C178.393 190.446 178.561 190.367 178.753 190.367C179.1 190.367 179.326 190.604 179.326 190.985V192.135H178.897V191.119C178.897 190.926 178.808 190.758 178.575 190.758C178.352 190.758 178.225 190.926 178.225 191.119V192.135H177.795ZM180.463 192.186C179.951 192.186 179.567 191.805 179.567 191.277C179.567 190.748 179.951 190.367 180.463 190.367C180.971 190.367 181.359 190.748 181.359 191.277C181.359 191.805 180.971 192.186 180.463 192.186ZM180.463 191.798C180.727 191.798 180.919 191.589 180.919 191.277C180.919 190.964 180.727 190.755 180.463 190.755C180.195 190.755 180.006 190.964 180.006 191.277C180.006 191.589 180.195 191.798 180.463 191.798ZM182.604 190.367C183.068 190.367 183.38 190.738 183.38 191.259C183.38 191.791 183.037 192.186 182.58 192.186C182.391 192.186 182.209 192.118 182.103 191.925H182.041V192.787H181.616V190.418H182.041V190.618H182.103C182.213 190.439 182.419 190.367 182.604 190.367ZM182.487 190.751C182.23 190.751 182.041 190.957 182.041 191.277C182.041 191.596 182.23 191.802 182.487 191.802C182.752 191.802 182.941 191.586 182.941 191.277C182.941 190.968 182.748 190.751 182.487 190.751ZM184.29 192.186C183.857 192.186 183.549 191.97 183.5 191.63H183.923C183.971 191.781 184.129 191.846 184.293 191.846C184.462 191.846 184.599 191.774 184.599 191.647C184.599 191.52 184.468 191.486 184.29 191.455L184.108 191.424C183.765 191.366 183.552 191.222 183.552 190.913C183.552 190.576 183.847 190.367 184.256 190.367C184.654 190.367 184.918 190.552 184.99 190.875H184.578C184.53 190.748 184.403 190.696 184.259 190.696C184.084 190.696 183.971 190.772 183.971 190.878C183.971 190.988 184.06 191.023 184.245 191.053L184.427 191.084C184.76 191.139 185.014 191.277 185.014 191.61C185.014 191.973 184.712 192.186 184.29 192.186ZM186.308 192.148C186.13 192.148 186.02 192.032 186.02 191.843V190.745H185.704V190.418H186.027V189.955H186.435V190.418H186.84V190.745H186.442V191.702C186.442 191.774 186.469 191.809 186.552 191.809H186.84V192.148H186.308ZM187.09 192.135V189.766H187.519V190.621H187.581C187.687 190.446 187.856 190.367 188.048 190.367C188.394 190.367 188.621 190.604 188.621 190.985V192.135H188.192V191.119C188.192 190.926 188.103 190.758 187.869 190.758C187.646 190.758 187.519 190.926 187.519 191.119V192.135H187.09ZM188.982 192.135V190.418H189.407V190.724H189.469C189.555 190.515 189.771 190.388 190.018 190.388H190.046V190.848C189.998 190.841 189.967 190.837 189.902 190.837C189.627 190.837 189.411 190.985 189.411 191.342V192.135H188.982ZM190.992 192.186C190.481 192.186 190.096 191.805 190.096 191.277C190.096 190.748 190.481 190.367 190.992 190.367C191.5 190.367 191.888 190.748 191.888 191.277C191.888 191.805 191.5 192.186 190.992 192.186ZM190.992 191.798C191.256 191.798 191.449 191.589 191.449 191.277C191.449 190.964 191.256 190.755 190.992 190.755C190.724 190.755 190.535 190.964 190.535 191.277C190.535 191.589 190.724 191.798 190.992 191.798ZM192.879 192.186C192.412 192.186 192.121 191.912 192.121 191.438V190.418H192.55V191.428C192.55 191.634 192.653 191.798 192.879 191.798C193.102 191.798 193.205 191.634 193.205 191.428V190.418H193.634V191.438C193.634 191.912 193.346 192.186 192.879 192.186ZM194.134 192.787V192.437H195.053C195.184 192.437 195.232 192.385 195.232 192.265V191.843H195.17C195.06 192.063 194.847 192.131 194.659 192.131C194.188 192.131 193.873 191.774 193.873 191.266C193.873 190.755 194.23 190.367 194.707 190.367C194.882 190.367 195.05 190.425 195.163 190.628H195.225V190.418H195.627V192.365C195.627 192.636 195.479 192.787 195.211 192.787H194.134ZM194.772 191.757C195.036 191.757 195.229 191.562 195.229 191.249C195.229 190.94 195.036 190.741 194.772 190.741C194.504 190.741 194.312 190.95 194.312 191.249C194.312 191.551 194.504 191.757 194.772 191.757ZM196.005 192.135V189.766H196.434V190.621H196.496C196.602 190.446 196.77 190.367 196.963 190.367C197.309 190.367 197.536 190.604 197.536 190.985V192.135H197.107V191.119C197.107 190.926 197.018 190.758 196.784 190.758C196.561 190.758 196.434 190.926 196.434 191.119V192.135H196.005ZM198.672 192.186C198.161 192.186 197.776 191.805 197.776 191.277C197.776 190.748 198.161 190.367 198.672 190.367C199.18 190.367 199.568 190.748 199.568 191.277C199.568 191.805 199.18 192.186 198.672 192.186ZM198.672 191.798C198.937 191.798 199.129 191.589 199.129 191.277C199.129 190.964 198.937 190.755 198.672 190.755C198.405 190.755 198.216 190.964 198.216 191.277C198.216 191.589 198.405 191.798 198.672 191.798ZM200.56 192.186C200.093 192.186 199.801 191.912 199.801 191.438V190.418H200.23V191.428C200.23 191.634 200.333 191.798 200.56 191.798C200.783 191.798 200.886 191.634 200.886 191.428V190.418H201.315V191.438C201.315 191.912 201.026 192.186 200.56 192.186ZM202.095 192.148C201.917 192.148 201.807 192.032 201.807 191.843V190.745H201.491V190.418H201.814V189.955H202.222V190.418H202.627V190.745H202.229V191.702C202.229 191.774 202.257 191.809 202.339 191.809H202.627V192.148H202.095ZM162.237 195.135V192.766H163.96V193.168H162.683V193.717H163.778V194.112H162.683V194.733H163.991V195.135H162.237ZM164.879 195.135V193.168H164.083V192.766H166.129V193.168H165.329V195.135H164.879ZM166.352 195.135V192.766H166.802V193.731H167.883V192.766H168.333V195.135H167.883V194.132H166.802V195.135H166.352ZM168.787 195.135V192.766H169.703C170.445 192.766 170.874 193.257 170.874 193.93C170.874 194.603 170.445 195.135 169.703 195.135H168.787ZM169.628 194.737C170.125 194.737 170.403 194.417 170.403 193.933C170.403 193.446 170.125 193.164 169.628 193.164H169.236V194.737H169.628ZM171.919 195.186C171.39 195.186 171.04 194.826 171.04 194.273C171.04 193.731 171.411 193.367 171.922 193.367C172.458 193.367 172.767 193.765 172.767 194.29V194.366H171.459C171.479 194.651 171.679 194.819 171.919 194.819C172.118 194.819 172.238 194.75 172.296 194.63H172.736C172.647 194.953 172.327 195.186 171.919 195.186ZM171.466 194.081H172.348C172.314 193.851 172.132 193.717 171.919 193.717C171.696 193.717 171.507 193.848 171.466 194.081ZM173.025 195.135V193.418H173.454V193.621H173.516C173.622 193.446 173.79 193.367 173.983 193.367C174.329 193.367 174.556 193.604 174.556 193.985V195.135H174.127V194.119C174.127 193.926 174.038 193.758 173.804 193.758C173.581 193.758 173.454 193.926 173.454 194.119V195.135H173.025ZM175.236 195.135L174.701 193.418H175.154L175.524 194.781H175.586L175.95 193.418H176.389L175.844 195.135H175.236ZM177.295 195.186C176.767 195.186 176.416 194.826 176.416 194.273C176.416 193.731 176.787 193.367 177.299 193.367C177.834 193.367 178.143 193.765 178.143 194.29V194.366H176.835C176.856 194.651 177.055 194.819 177.295 194.819C177.494 194.819 177.614 194.75 177.673 194.63H178.112C178.023 194.953 177.704 195.186 177.295 195.186ZM176.842 194.081H177.724C177.69 193.851 177.508 193.717 177.295 193.717C177.072 193.717 176.883 193.848 176.842 194.081ZM178.401 195.135V193.418H178.827V193.724H178.889C178.975 193.515 179.191 193.388 179.438 193.388H179.465V193.848C179.417 193.841 179.386 193.837 179.321 193.837C179.047 193.837 178.83 193.985 178.83 194.342V195.135H178.401ZM180.185 195.135V194.713L180.895 194.115C181.177 193.878 181.318 193.714 181.318 193.497C181.318 193.291 181.18 193.168 180.992 193.168C180.796 193.168 180.635 193.285 180.604 193.501H180.147C180.202 193.051 180.556 192.766 181.005 192.766C181.448 192.766 181.778 193.051 181.778 193.497C181.778 193.868 181.544 194.095 181.167 194.393L180.796 194.689V194.743H181.846V195.135H180.185ZM182.949 195.186C182.366 195.186 182.039 194.678 182.039 193.975C182.039 193.271 182.366 192.766 182.949 192.766C183.529 192.766 183.852 193.271 183.852 193.975C183.852 194.678 183.529 195.186 182.949 195.186ZM182.949 194.791C183.251 194.791 183.392 194.493 183.392 193.975C183.392 193.456 183.251 193.161 182.949 193.161C182.644 193.161 182.499 193.456 182.499 193.975C182.499 194.493 182.644 194.791 182.949 194.791ZM184.082 195.135V194.713L184.793 194.115C185.074 193.878 185.215 193.714 185.215 193.497C185.215 193.291 185.078 193.168 184.889 193.168C184.693 193.168 184.532 193.285 184.501 193.501H184.044C184.099 193.051 184.453 192.766 184.902 192.766C185.345 192.766 185.675 193.051 185.675 193.497C185.675 193.868 185.441 194.095 185.064 194.393L184.693 194.689V194.743H185.743V195.135H184.082ZM186.843 195.186C186.184 195.186 185.937 194.634 185.937 193.992C185.937 193.206 186.342 192.766 186.877 192.766C187.341 192.766 187.598 193.037 187.656 193.384H187.213C187.172 193.261 187.073 193.164 186.877 193.164C186.651 193.164 186.383 193.333 186.362 193.848H186.424C186.537 193.669 186.719 193.576 186.939 193.576C187.382 193.576 187.691 193.916 187.691 194.366C187.691 194.829 187.334 195.186 186.843 195.186ZM186.829 194.791C187.066 194.791 187.238 194.599 187.238 194.369C187.238 194.122 187.069 193.95 186.832 193.95C186.585 193.95 186.421 194.129 186.421 194.369C186.421 194.599 186.589 194.791 186.829 194.791ZM187.893 195.135V194.627H188.411V195.135H187.893Z" fill="#FFD12F"/>
<path d="M163.301 101.263C162.611 101.263 162.1 100.745 162.1 100.028C162.1 99.3102 162.611 98.7919 163.301 98.7919C163.991 98.7919 164.503 99.3102 164.503 100.028C164.503 100.745 163.991 101.263 163.301 101.263ZM163.301 100.851C163.744 100.851 164.029 100.491 164.029 100.028C164.029 99.5642 163.744 99.2038 163.301 99.2038C162.858 99.2038 162.573 99.5642 162.573 100.028C162.573 100.491 162.858 100.851 163.301 100.851ZM165.516 101.263C165.049 101.263 164.757 100.989 164.757 100.515V99.4956H165.186V100.505C165.186 100.711 165.289 100.876 165.516 100.876C165.739 100.876 165.842 100.711 165.842 100.505V99.4956H166.271V100.515C166.271 100.989 165.983 101.263 165.516 101.263ZM166.626 101.212V99.4956H167.052V99.8011H167.114C167.199 99.5917 167.416 99.4647 167.663 99.4647H167.69V99.9247C167.642 99.9178 167.611 99.9144 167.546 99.9144C167.271 99.9144 167.055 100.062 167.055 100.419V101.212H166.626ZM168.478 101.212V99.4956H168.907V99.6981H168.969C169.076 99.523 169.24 99.4441 169.443 99.4441C169.656 99.4441 169.817 99.5333 169.91 99.6981H169.972C170.081 99.5299 170.239 99.4441 170.473 99.4441C170.85 99.4441 171.091 99.6878 171.091 100.076V101.212H170.662V100.186C170.662 99.9933 170.576 99.8354 170.349 99.8354C170.129 99.8354 169.999 99.9968 169.999 100.179V101.212H169.57V100.196C169.57 100.004 169.481 99.8354 169.251 99.8354C169.031 99.8354 168.907 100.004 168.907 100.196V101.212H168.478ZM171.453 101.212V99.4956H171.882V101.212H171.453ZM171.449 99.2725V98.8434H171.885V99.2725H171.449ZM172.907 101.263C172.474 101.263 172.165 101.047 172.117 100.707H172.54C172.588 100.858 172.746 100.924 172.91 100.924C173.079 100.924 173.216 100.851 173.216 100.724C173.216 100.597 173.085 100.563 172.907 100.532L172.725 100.501C172.382 100.443 172.169 100.299 172.169 99.9899C172.169 99.6535 172.464 99.4441 172.873 99.4441C173.271 99.4441 173.535 99.6295 173.607 99.9521H173.195C173.147 99.8251 173.02 99.7736 172.876 99.7736C172.701 99.7736 172.588 99.8491 172.588 99.9556C172.588 100.065 172.677 100.1 172.862 100.131L173.044 100.162C173.377 100.216 173.631 100.354 173.631 100.687C173.631 101.051 173.329 101.263 172.907 101.263ZM174.53 101.263C174.098 101.263 173.789 101.047 173.741 100.707H174.163C174.211 100.858 174.369 100.924 174.534 100.924C174.702 100.924 174.839 100.851 174.839 100.724C174.839 100.597 174.709 100.563 174.53 100.532L174.348 100.501C174.005 100.443 173.792 100.299 173.792 99.9899C173.792 99.6535 174.088 99.4441 174.496 99.4441C174.894 99.4441 175.159 99.6295 175.231 99.9521H174.819C174.771 99.8251 174.644 99.7736 174.499 99.7736C174.324 99.7736 174.211 99.8491 174.211 99.9556C174.211 100.065 174.3 100.1 174.486 100.131L174.668 100.162C175.001 100.216 175.255 100.354 175.255 100.687C175.255 101.051 174.953 101.263 174.53 101.263ZM175.505 101.212V99.4956H175.934V101.212H175.505ZM175.502 99.2725V98.8434H175.938V99.2725H175.502ZM177.086 101.263C176.575 101.263 176.19 100.882 176.19 100.354C176.19 99.8251 176.575 99.4441 177.086 99.4441C177.594 99.4441 177.982 99.8251 177.982 100.354C177.982 100.882 177.594 101.263 177.086 101.263ZM177.086 100.876C177.351 100.876 177.543 100.666 177.543 100.354C177.543 100.041 177.351 99.832 177.086 99.832C176.818 99.832 176.63 100.041 176.63 100.354C176.63 100.666 176.818 100.876 177.086 100.876ZM178.239 101.212V99.4956H178.668V99.6981H178.73C178.836 99.523 179.004 99.4441 179.197 99.4441C179.543 99.4441 179.77 99.6809 179.77 100.062V101.212H179.341V100.196C179.341 100.004 179.252 99.8354 179.018 99.8354C178.795 99.8354 178.668 100.004 178.668 100.196V101.212H178.239ZM180.788 101.212V99.4956H181.218V101.212H180.788ZM180.785 99.2725V98.8434H181.221V99.2725H180.785ZM182.243 101.263C181.81 101.263 181.501 101.047 181.453 100.707H181.875C181.923 100.858 182.081 100.924 182.246 100.924C182.414 100.924 182.552 100.851 182.552 100.724C182.552 100.597 182.421 100.563 182.243 100.532L182.061 100.501C181.718 100.443 181.505 100.299 181.505 99.9899C181.505 99.6535 181.8 99.4441 182.208 99.4441C182.607 99.4441 182.871 99.6295 182.943 99.9521H182.531C182.483 99.8251 182.356 99.7736 182.212 99.7736C182.037 99.7736 181.923 99.8491 181.923 99.9556C181.923 100.065 182.013 100.1 182.198 100.131L182.38 100.162C182.713 100.216 182.967 100.354 182.967 100.687C182.967 101.051 182.665 101.263 182.243 101.263ZM184.261 101.226C184.082 101.226 183.972 101.109 183.972 100.92V99.8217H183.657V99.4956H183.979V99.0322H184.388V99.4956H184.793V99.8217H184.395V100.779C184.395 100.851 184.422 100.886 184.504 100.886H184.793V101.226H184.261ZM185.785 101.263C185.274 101.263 184.889 100.882 184.889 100.354C184.889 99.8251 185.274 99.4441 185.785 99.4441C186.293 99.4441 186.681 99.8251 186.681 100.354C186.681 100.882 186.293 101.263 185.785 101.263ZM185.785 100.876C186.049 100.876 186.242 100.666 186.242 100.354C186.242 100.041 186.049 99.832 185.785 99.832C185.517 99.832 185.329 100.041 185.329 100.354C185.329 100.666 185.517 100.876 185.785 100.876ZM188.564 101.263C188.375 101.263 188.193 101.195 188.087 101.013H188.025V101.212H187.596V98.8434H188.025V99.705H188.087C188.196 99.5162 188.402 99.4441 188.588 99.4441C189.051 99.4441 189.364 99.8148 189.364 100.337C189.364 100.869 189.02 101.263 188.564 101.263ZM188.471 100.879C188.735 100.879 188.924 100.663 188.924 100.354C188.924 100.045 188.732 99.8286 188.471 99.8286C188.214 99.8286 188.025 100.035 188.025 100.354C188.025 100.673 188.214 100.879 188.471 100.879ZM190.359 101.263C189.893 101.263 189.601 100.989 189.601 100.515V99.4956H190.03V100.505C190.03 100.711 190.133 100.876 190.359 100.876C190.582 100.876 190.685 100.711 190.685 100.505V99.4956H191.115V100.515C191.115 100.989 190.826 101.263 190.359 101.263ZM191.469 101.212V99.4956H191.898V101.212H191.469ZM191.466 99.2725V98.8434H191.902V99.2725H191.466ZM192.275 101.212V98.8434H192.704V101.212H192.275ZM193.739 101.263C193.276 101.263 192.964 100.893 192.964 100.371C192.964 99.8388 193.307 99.4441 193.763 99.4441C193.952 99.4441 194.134 99.5127 194.241 99.705H194.302V98.8434H194.728V101.212H194.302V101.013H194.241C194.131 101.191 193.925 101.263 193.739 101.263ZM193.856 100.879C194.114 100.879 194.302 100.673 194.302 100.354C194.302 100.035 194.114 99.8286 193.856 99.8286C193.592 99.8286 193.403 100.045 193.403 100.354C193.403 100.663 193.595 100.879 193.856 100.879ZM196.251 101.263C195.922 101.263 195.654 101.064 195.654 100.738C195.654 100.354 195.949 100.23 196.306 100.192L196.811 100.141V100.045C196.811 99.8972 196.691 99.7942 196.478 99.7942C196.275 99.7942 196.159 99.8835 196.121 100.017H195.709C195.75 99.6912 196.021 99.4441 196.478 99.4441C196.917 99.4441 197.209 99.6569 197.209 100.072V100.91C197.209 101.016 197.219 101.164 197.226 101.205V101.212H196.814C196.811 101.154 196.811 101.099 196.811 101.04H196.749C196.643 101.212 196.457 101.263 196.251 101.263ZM196.087 100.718C196.087 100.858 196.203 100.941 196.368 100.941C196.65 100.941 196.811 100.728 196.811 100.512V100.426L196.433 100.47C196.2 100.498 196.087 100.567 196.087 100.718ZM198.371 101.864V101.514H199.291C199.421 101.514 199.469 101.462 199.469 101.342V100.92H199.407C199.297 101.14 199.085 101.208 198.896 101.208C198.425 101.208 198.11 100.851 198.11 100.343C198.11 99.832 198.467 99.4441 198.944 99.4441C199.119 99.4441 199.287 99.5024 199.4 99.705H199.462V99.4956H199.864V101.442C199.864 101.713 199.716 101.864 199.448 101.864H198.371ZM199.009 100.834C199.273 100.834 199.466 100.639 199.466 100.326C199.466 100.017 199.273 99.8183 199.009 99.8183C198.741 99.8183 198.549 100.028 198.549 100.326C198.549 100.628 198.741 100.834 199.009 100.834ZM200.242 101.212V98.8434H200.671V101.212H200.242ZM201.823 101.263C201.312 101.263 200.927 100.882 200.927 100.354C200.927 99.8251 201.312 99.4441 201.823 99.4441C202.331 99.4441 202.719 99.8251 202.719 100.354C202.719 100.882 202.331 101.263 201.823 101.263ZM201.823 100.876C202.088 100.876 202.28 100.666 202.28 100.354C202.28 100.041 202.088 99.832 201.823 99.832C201.556 99.832 201.367 100.041 201.367 100.354C201.367 100.666 201.556 100.876 201.823 100.876ZM203.944 101.263C203.755 101.263 203.573 101.195 203.467 101.013H203.405V101.212H202.976V98.8434H203.405V99.705H203.467C203.577 99.5162 203.783 99.4441 203.968 99.4441C204.431 99.4441 204.744 99.8148 204.744 100.337C204.744 100.869 204.4 101.263 203.944 101.263ZM203.851 100.879C204.116 100.879 204.304 100.663 204.304 100.354C204.304 100.045 204.112 99.8286 203.851 99.8286C203.594 99.8286 203.405 100.035 203.405 100.354C203.405 100.673 203.594 100.879 203.851 100.879ZM205.492 101.263C205.163 101.263 204.895 101.064 204.895 100.738C204.895 100.354 205.19 100.23 205.547 100.192L206.052 100.141V100.045C206.052 99.8972 205.932 99.7942 205.719 99.7942C205.516 99.7942 205.4 99.8835 205.362 100.017H204.95C204.991 99.6912 205.262 99.4441 205.719 99.4441C206.158 99.4441 206.45 99.6569 206.45 100.072V100.91C206.45 101.016 206.46 101.164 206.467 101.205V101.212H206.055C206.052 101.154 206.052 101.099 206.052 101.04H205.99C205.884 101.212 205.698 101.263 205.492 101.263ZM205.328 100.718C205.328 100.858 205.444 100.941 205.609 100.941C205.891 100.941 206.052 100.728 206.052 100.512V100.426L205.674 100.47C205.441 100.498 205.328 100.567 205.328 100.718ZM206.809 101.212V98.8434H207.238V101.212H206.809ZM162.975 104.263C162.464 104.263 162.079 103.882 162.079 103.354C162.079 102.825 162.464 102.444 162.975 102.444C163.483 102.444 163.871 102.825 163.871 103.354C163.871 103.882 163.483 104.263 162.975 104.263ZM162.975 103.876C163.239 103.876 163.432 103.666 163.432 103.354C163.432 103.041 163.239 102.832 162.975 102.832C162.707 102.832 162.519 103.041 162.519 103.354C162.519 103.666 162.707 103.876 162.975 103.876ZM164.128 104.212V102.496H164.557V102.698H164.619C164.725 102.523 164.893 102.444 165.085 102.444C165.432 102.444 165.659 102.681 165.659 103.062V104.212H165.23V103.196C165.23 103.004 165.14 102.835 164.907 102.835C164.684 102.835 164.557 103.004 164.557 103.196V104.212H164.128ZM166.785 104.263C166.28 104.263 165.899 103.889 165.899 103.354C165.899 102.818 166.28 102.444 166.785 102.444C167.214 102.444 167.543 102.708 167.622 103.11H167.197C167.138 102.942 167.001 102.832 166.788 102.832C166.524 102.832 166.339 103.035 166.339 103.35C166.339 103.673 166.524 103.876 166.788 103.876C167.001 103.876 167.145 103.762 167.207 103.584H167.633C167.564 103.985 167.231 104.263 166.785 104.263ZM167.861 104.212V101.843H168.29V102.698H168.351C168.458 102.523 168.626 102.444 168.818 102.444C169.165 102.444 169.392 102.681 169.392 103.062V104.212H168.962V103.196C168.962 103.004 168.873 102.835 168.64 102.835C168.417 102.835 168.29 103.004 168.29 103.196V104.212H167.861ZM170.24 104.263C169.91 104.263 169.642 104.064 169.642 103.738C169.642 103.354 169.938 103.23 170.295 103.192L170.799 103.141V103.045C170.799 102.897 170.679 102.794 170.466 102.794C170.264 102.794 170.147 102.883 170.109 103.017H169.697C169.738 102.691 170.01 102.444 170.466 102.444C170.906 102.444 171.197 102.657 171.197 103.072V103.91C171.197 104.016 171.208 104.164 171.215 104.205V104.212H170.803C170.799 104.154 170.799 104.099 170.799 104.04H170.737C170.631 104.212 170.446 104.263 170.24 104.263ZM170.075 103.718C170.075 103.858 170.192 103.941 170.356 103.941C170.638 103.941 170.799 103.728 170.799 103.512V103.426L170.422 103.47C170.188 103.498 170.075 103.567 170.075 103.718ZM171.557 104.212V102.496H171.986V104.212H171.557ZM171.553 102.272V101.843H171.989V102.272H171.553ZM172.362 104.212V102.496H172.791V102.698H172.853C172.959 102.523 173.128 102.444 173.32 102.444C173.667 102.444 173.893 102.681 173.893 103.062V104.212H173.464V103.196C173.464 103.004 173.375 102.835 173.141 102.835C172.918 102.835 172.791 103.004 172.791 103.196V104.212H172.362ZM175.674 104.263C175.145 104.263 174.795 103.903 174.795 103.35C174.795 102.808 175.166 102.444 175.677 102.444C176.213 102.444 176.522 102.842 176.522 103.367V103.443H175.214C175.234 103.728 175.433 103.896 175.674 103.896C175.873 103.896 175.993 103.827 176.051 103.707H176.491C176.401 104.03 176.082 104.263 175.674 104.263ZM175.221 103.158H176.103C176.068 102.928 175.887 102.794 175.674 102.794C175.451 102.794 175.262 102.925 175.221 103.158ZM177.545 104.263C177.041 104.263 176.66 103.889 176.66 103.354C176.66 102.818 177.041 102.444 177.545 102.444C177.974 102.444 178.304 102.708 178.383 103.11H177.957C177.899 102.942 177.762 102.832 177.549 102.832C177.284 102.832 177.099 103.035 177.099 103.35C177.099 103.673 177.284 103.876 177.549 103.876C177.762 103.876 177.906 103.762 177.967 103.584H178.393C178.324 103.985 177.991 104.263 177.545 104.263ZM179.397 104.263C178.885 104.263 178.501 103.882 178.501 103.354C178.501 102.825 178.885 102.444 179.397 102.444C179.905 102.444 180.293 102.825 180.293 103.354C180.293 103.882 179.905 104.263 179.397 104.263ZM179.397 103.876C179.661 103.876 179.853 103.666 179.853 103.354C179.853 103.041 179.661 102.832 179.397 102.832C179.129 102.832 178.94 103.041 178.94 103.354C178.94 103.666 179.129 103.876 179.397 103.876ZM180.55 104.212V102.496H180.979V102.698H181.04C181.147 102.523 181.315 102.444 181.507 102.444C181.854 102.444 182.08 102.681 182.08 103.062V104.212H181.651V103.196C181.651 103.004 181.562 102.835 181.329 102.835C181.106 102.835 180.979 103.004 180.979 103.196V104.212H180.55ZM183.217 104.263C182.705 104.263 182.321 103.882 182.321 103.354C182.321 102.825 182.705 102.444 183.217 102.444C183.725 102.444 184.113 102.825 184.113 103.354C184.113 103.882 183.725 104.263 183.217 104.263ZM183.217 103.876C183.481 103.876 183.673 103.666 183.673 103.354C183.673 103.041 183.481 102.832 183.217 102.832C182.949 102.832 182.76 103.041 182.76 103.354C182.76 103.666 182.949 103.876 183.217 103.876ZM184.37 104.212V102.496H184.799V102.698H184.86C184.967 102.523 185.132 102.444 185.334 102.444C185.547 102.444 185.708 102.533 185.801 102.698H185.863C185.973 102.53 186.131 102.444 186.364 102.444C186.742 102.444 186.982 102.688 186.982 103.076V104.212H186.553V103.186C186.553 102.993 186.467 102.835 186.24 102.835C186.021 102.835 185.89 102.997 185.89 103.179V104.212H185.461V103.196C185.461 103.004 185.372 102.835 185.142 102.835C184.922 102.835 184.799 103.004 184.799 103.196V104.212H184.37ZM187.204 104.864V104.521H187.516C187.626 104.521 187.688 104.473 187.725 104.36L187.76 104.26L187.104 102.496H187.55L187.935 103.69H187.997L188.374 102.496H188.82L188.048 104.541C187.966 104.765 187.842 104.864 187.578 104.864H187.204ZM189.954 104.226C189.775 104.226 189.665 104.109 189.665 103.92V102.822H189.35V102.496H189.672V102.032H190.081V102.496H190.486V102.822H190.088V103.779C190.088 103.851 190.115 103.886 190.197 103.886H190.486V104.226H189.954ZM190.736 104.212V101.843H191.165V102.698H191.227C191.333 102.523 191.501 102.444 191.694 102.444C192.04 102.444 192.267 102.681 192.267 103.062V104.212H191.838V103.196C191.838 103.004 191.748 102.835 191.515 102.835C191.292 102.835 191.165 103.004 191.165 103.196V104.212H190.736ZM193.115 104.263C192.785 104.263 192.518 104.064 192.518 103.738C192.518 103.354 192.813 103.23 193.17 103.192L193.674 103.141V103.045C193.674 102.897 193.554 102.794 193.341 102.794C193.139 102.794 193.022 102.883 192.984 103.017H192.572C192.614 102.691 192.885 102.444 193.341 102.444C193.781 102.444 194.073 102.657 194.073 103.072V103.91C194.073 104.016 194.083 104.164 194.09 104.205V104.212H193.678C193.674 104.154 193.674 104.099 193.674 104.04H193.613C193.506 104.212 193.321 104.263 193.115 104.263ZM192.95 103.718C192.95 103.858 193.067 103.941 193.232 103.941C193.513 103.941 193.674 103.728 193.674 103.512V103.426L193.297 103.47C193.063 103.498 192.95 103.567 192.95 103.718ZM194.844 104.226C194.666 104.226 194.556 104.109 194.556 103.92V102.822H194.24V102.496H194.563V102.032H194.971V102.496H195.376V102.822H194.978V103.779C194.978 103.851 195.005 103.886 195.088 103.886H195.376V104.226H194.844ZM196.284 104.212V102.496H196.713V104.212H196.284ZM196.281 102.272V101.843H196.717V102.272H196.281ZM197.09 104.212V102.496H197.519V102.698H197.58C197.687 102.523 197.855 102.444 198.047 102.444C198.394 102.444 198.621 102.681 198.621 103.062V104.212H198.191V103.196C198.191 103.004 198.102 102.835 197.869 102.835C197.646 102.835 197.519 103.004 197.519 103.196V104.212H197.09ZM199.747 104.263C199.242 104.263 198.861 103.889 198.861 103.354C198.861 102.818 199.242 102.444 199.747 102.444C200.176 102.444 200.505 102.708 200.584 103.11H200.159C200.1 102.942 199.963 102.832 199.75 102.832C199.486 102.832 199.3 103.035 199.3 103.35C199.3 103.673 199.486 103.876 199.75 103.876C199.963 103.876 200.107 103.762 200.169 103.584H200.595C200.526 103.985 200.193 104.263 199.747 104.263ZM200.822 104.212V102.496H201.248V102.801H201.31C201.396 102.592 201.612 102.465 201.859 102.465H201.887V102.925C201.839 102.918 201.808 102.914 201.742 102.914C201.468 102.914 201.252 103.062 201.252 103.419V104.212H200.822ZM202.819 104.263C202.29 104.263 201.94 103.903 201.94 103.35C201.94 102.808 202.311 102.444 202.823 102.444C203.358 102.444 203.667 102.842 203.667 103.367V103.443H202.359C202.38 103.728 202.579 103.896 202.819 103.896C203.018 103.896 203.138 103.827 203.197 103.707H203.636C203.547 104.03 203.228 104.263 202.819 104.263ZM202.366 103.158H203.248C203.214 102.928 203.032 102.794 202.819 102.794C202.596 102.794 202.407 102.925 202.366 103.158ZM204.413 104.263C204.083 104.263 203.815 104.064 203.815 103.738C203.815 103.354 204.111 103.23 204.467 103.192L204.972 103.141V103.045C204.972 102.897 204.852 102.794 204.639 102.794C204.437 102.794 204.32 102.883 204.282 103.017H203.87C203.911 102.691 204.183 102.444 204.639 102.444C205.079 102.444 205.37 102.657 205.37 103.072V103.91C205.37 104.016 205.381 104.164 205.387 104.205V104.212H204.976C204.972 104.154 204.972 104.099 204.972 104.04H204.91C204.804 104.212 204.619 104.263 204.413 104.263ZM204.248 103.718C204.248 103.858 204.365 103.941 204.529 103.941C204.811 103.941 204.972 103.728 204.972 103.512V103.426L204.595 103.47C204.361 103.498 204.248 103.567 204.248 103.718ZM206.378 104.263C205.946 104.263 205.637 104.047 205.589 103.707H206.011C206.059 103.858 206.217 103.924 206.382 103.924C206.55 103.924 206.687 103.851 206.687 103.724C206.687 103.597 206.557 103.563 206.378 103.532L206.196 103.501C205.853 103.443 205.64 103.299 205.64 102.99C205.64 102.653 205.936 102.444 206.344 102.444C206.742 102.444 207.007 102.629 207.079 102.952H206.667C206.619 102.825 206.492 102.774 206.347 102.774C206.172 102.774 206.059 102.849 206.059 102.956C206.059 103.065 206.148 103.1 206.334 103.131L206.516 103.162C206.849 103.216 207.103 103.354 207.103 103.687C207.103 104.051 206.801 104.263 206.378 104.263ZM208.115 104.263C207.586 104.263 207.236 103.903 207.236 103.35C207.236 102.808 207.607 102.444 208.118 102.444C208.654 102.444 208.963 102.842 208.963 103.367V103.443H207.655C207.676 103.728 207.875 103.896 208.115 103.896C208.314 103.896 208.434 103.827 208.493 103.707H208.932C208.843 104.03 208.524 104.263 208.115 104.263ZM207.662 103.158H208.544C208.51 102.928 208.328 102.794 208.115 102.794C207.892 102.794 207.703 102.925 207.662 103.158ZM209.87 104.263C209.437 104.263 209.128 104.047 209.08 103.707H209.503C209.551 103.858 209.709 103.924 209.873 103.924C210.041 103.924 210.179 103.851 210.179 103.724C210.179 103.597 210.048 103.563 209.87 103.532L209.688 103.501C209.345 103.443 209.132 103.299 209.132 102.99C209.132 102.653 209.427 102.444 209.836 102.444C210.234 102.444 210.498 102.629 210.57 102.952H210.158C210.11 102.825 209.983 102.774 209.839 102.774C209.664 102.774 209.551 102.849 209.551 102.956C209.551 103.065 209.64 103.1 209.825 103.131L210.007 103.162C210.34 103.216 210.594 103.354 210.594 103.687C210.594 104.051 210.292 104.263 209.87 104.263ZM162.199 107.212V105.496H162.628V107.212H162.199ZM162.196 105.272V104.843H162.632V105.272H162.196ZM163.005 107.212V105.496H163.434V105.698H163.496C163.602 105.523 163.77 105.444 163.962 105.444C164.309 105.444 164.536 105.681 164.536 106.062V107.212H164.107V106.196C164.107 106.004 164.017 105.835 163.784 105.835C163.561 105.835 163.434 106.004 163.434 106.196V107.212H163.005ZM164.896 107.212V105.496H165.325V105.698H165.387C165.494 105.523 165.662 105.444 165.854 105.444C166.201 105.444 166.427 105.681 166.427 106.062V107.212H165.998V106.196C165.998 106.004 165.909 105.835 165.676 105.835C165.452 105.835 165.325 106.004 165.325 106.196V107.212H164.896ZM167.564 107.263C167.052 107.263 166.668 106.882 166.668 106.354C166.668 105.825 167.052 105.444 167.564 105.444C168.072 105.444 168.46 105.825 168.46 106.354C168.46 106.882 168.072 107.263 167.564 107.263ZM167.564 106.876C167.828 106.876 168.02 106.666 168.02 106.354C168.02 106.041 167.828 105.832 167.564 105.832C167.296 105.832 167.107 106.041 167.107 106.354C167.107 106.666 167.296 106.876 167.564 106.876ZM169.026 107.212L168.49 105.496H168.944L169.314 106.858H169.376L169.74 105.496H170.179L169.634 107.212H169.026ZM170.8 107.263C170.471 107.263 170.203 107.064 170.203 106.738C170.203 106.354 170.498 106.23 170.855 106.192L171.36 106.141V106.045C171.36 105.897 171.24 105.794 171.027 105.794C170.824 105.794 170.708 105.883 170.67 106.017H170.258C170.299 105.691 170.57 105.444 171.027 105.444C171.466 105.444 171.758 105.657 171.758 106.072V106.91C171.758 107.016 171.768 107.164 171.775 107.205V107.212H171.363C171.36 107.154 171.36 107.099 171.36 107.04H171.298C171.192 107.212 171.006 107.263 170.8 107.263ZM170.636 106.718C170.636 106.858 170.752 106.941 170.917 106.941C171.199 106.941 171.36 106.728 171.36 106.512V106.426L170.982 106.47C170.749 106.498 170.636 106.567 170.636 106.718ZM172.53 107.226C172.351 107.226 172.241 107.109 172.241 106.92V105.822H171.925V105.496H172.248V105.032H172.657V105.496H173.062V105.822H172.663V106.779C172.663 106.851 172.691 106.886 172.773 106.886H173.062V107.226H172.53ZM173.312 107.212V105.496H173.741V107.212H173.312ZM173.308 105.272V104.843H173.744V105.272H173.308ZM174.893 107.263C174.381 107.263 173.997 106.882 173.997 106.354C173.997 105.825 174.381 105.444 174.893 105.444C175.401 105.444 175.789 105.825 175.789 106.354C175.789 106.882 175.401 107.263 174.893 107.263ZM174.893 106.876C175.157 106.876 175.349 106.666 175.349 106.354C175.349 106.041 175.157 105.832 174.893 105.832C174.625 105.832 174.436 106.041 174.436 106.354C174.436 106.666 174.625 106.876 174.893 106.876ZM176.046 107.212V105.496H176.475V105.698H176.537C176.643 105.523 176.811 105.444 177.003 105.444C177.35 105.444 177.577 105.681 177.577 106.062V107.212H177.148V106.196C177.148 106.004 177.058 105.835 176.825 105.835C176.602 105.835 176.475 106.004 176.475 106.196V107.212H176.046ZM177.893 107.706L178.14 107.212H177.893V106.704H178.411V107.212L178.16 107.706H177.893ZM180.072 107.263C179.568 107.263 179.187 106.889 179.187 106.354C179.187 105.818 179.568 105.444 180.072 105.444C180.501 105.444 180.831 105.708 180.91 106.11H180.484C180.426 105.942 180.289 105.832 180.076 105.832C179.811 105.832 179.626 106.035 179.626 106.35C179.626 106.673 179.811 106.876 180.076 106.876C180.289 106.876 180.433 106.762 180.494 106.584H180.92C180.851 106.985 180.519 107.263 180.072 107.263ZM181.148 107.212V105.496H181.574V105.801H181.636C181.721 105.592 181.938 105.465 182.185 105.465H182.212V105.925C182.164 105.918 182.133 105.914 182.068 105.914C181.793 105.914 181.577 106.062 181.577 106.419V107.212H181.148ZM183.145 107.263C182.616 107.263 182.266 106.903 182.266 106.35C182.266 105.808 182.637 105.444 183.148 105.444C183.684 105.444 183.993 105.842 183.993 106.367V106.443H182.685C182.705 106.728 182.904 106.896 183.145 106.896C183.344 106.896 183.464 106.827 183.522 106.707H183.962C183.872 107.03 183.553 107.263 183.145 107.263ZM182.692 106.158H183.574C183.539 105.928 183.358 105.794 183.145 105.794C182.922 105.794 182.733 105.925 182.692 106.158ZM184.738 107.263C184.409 107.263 184.141 107.064 184.141 106.738C184.141 106.354 184.436 106.23 184.793 106.192L185.298 106.141V106.045C185.298 105.897 185.178 105.794 184.965 105.794C184.762 105.794 184.646 105.883 184.608 106.017H184.196C184.237 105.691 184.508 105.444 184.965 105.444C185.404 105.444 185.696 105.657 185.696 106.072V106.91C185.696 107.016 185.706 107.164 185.713 107.205V107.212H185.301C185.298 107.154 185.298 107.099 185.298 107.04H185.236C185.13 107.212 184.944 107.263 184.738 107.263ZM184.573 106.718C184.573 106.858 184.69 106.941 184.855 106.941C185.136 106.941 185.298 106.728 185.298 106.512V106.426L184.92 106.47C184.687 106.498 184.573 106.567 184.573 106.718ZM186.467 107.226C186.289 107.226 186.179 107.109 186.179 106.92V105.822H185.863V105.496H186.186V105.032H186.594V105.496H186.999V105.822H186.601V106.779C186.601 106.851 186.629 106.886 186.711 106.886H186.999V107.226H186.467ZM187.25 107.212V105.496H187.679V107.212H187.25ZM187.246 105.272V104.843H187.682V105.272H187.246ZM188.391 107.212L187.856 105.496H188.309L188.68 106.858H188.742L189.105 105.496H189.545L188.999 107.212H188.391ZM189.719 107.212V105.496H190.148V107.212H189.719ZM189.715 105.272V104.843H190.151V105.272H189.715ZM190.95 107.226C190.771 107.226 190.661 107.109 190.661 106.92V105.822H190.346V105.496H190.668V105.032H191.077V105.496H191.482V105.822H191.084V106.779C191.084 106.851 191.111 106.886 191.193 106.886H191.482V107.226H190.95ZM191.608 107.864V107.521H191.921C192.03 107.521 192.092 107.473 192.13 107.36L192.164 107.26L191.509 105.496H191.955L192.339 106.69H192.401L192.779 105.496H193.225L192.453 107.541C192.37 107.765 192.247 107.864 191.982 107.864H191.608ZM193.133 107.706L193.38 107.212H193.133V106.704H193.651V107.212L193.401 107.706H193.133ZM195.035 107.263C194.705 107.263 194.437 107.064 194.437 106.738C194.437 106.354 194.733 106.23 195.089 106.192L195.594 106.141V106.045C195.594 105.897 195.474 105.794 195.261 105.794C195.059 105.794 194.942 105.883 194.904 106.017H194.492C194.533 105.691 194.805 105.444 195.261 105.444C195.701 105.444 195.992 105.657 195.992 106.072V106.91C195.992 107.016 196.003 107.164 196.009 107.205V107.212H195.598C195.594 107.154 195.594 107.099 195.594 107.04H195.532C195.426 107.212 195.241 107.263 195.035 107.263ZM194.87 106.718C194.87 106.858 194.987 106.941 195.151 106.941C195.433 106.941 195.594 106.728 195.594 106.512V106.426L195.217 106.47C194.983 106.498 194.87 106.567 194.87 106.718ZM196.352 107.212V105.496H196.781V105.698H196.842C196.949 105.523 197.117 105.444 197.309 105.444C197.656 105.444 197.883 105.681 197.883 106.062V107.212H197.453V106.196C197.453 106.004 197.364 105.835 197.131 105.835C196.908 105.835 196.781 106.004 196.781 106.196V107.212H196.352ZM198.902 107.263C198.439 107.263 198.126 106.893 198.126 106.371C198.126 105.839 198.47 105.444 198.926 105.444C199.115 105.444 199.297 105.513 199.403 105.705H199.465V104.843H199.891V107.212H199.465V107.013H199.403C199.294 107.191 199.088 107.263 198.902 107.263ZM199.019 106.879C199.276 106.879 199.465 106.673 199.465 106.354C199.465 106.035 199.276 105.829 199.019 105.829C198.755 105.829 198.566 106.045 198.566 106.354C198.566 106.663 198.758 106.879 199.019 106.879ZM201.068 107.212V105.822H200.762V105.496H201.071V105.149C201.071 104.957 201.195 104.833 201.38 104.833H201.878V105.163H201.593C201.514 105.163 201.479 105.204 201.479 105.279V105.496H201.878V105.822H201.483V107.212H201.068ZM202.067 107.212V105.496H202.493V105.801H202.555C202.641 105.592 202.857 105.465 203.104 105.465H203.132V105.925C203.084 105.918 203.053 105.914 202.987 105.914C202.713 105.914 202.497 106.062 202.497 106.419V107.212H202.067ZM204.064 107.263C203.535 107.263 203.185 106.903 203.185 106.35C203.185 105.808 203.556 105.444 204.068 105.444C204.603 105.444 204.912 105.842 204.912 106.367V106.443H203.604C203.625 106.728 203.824 106.896 204.064 106.896C204.263 106.896 204.383 106.827 204.442 106.707H204.881C204.792 107.03 204.473 107.263 204.064 107.263ZM203.611 106.158H204.493C204.459 105.928 204.277 105.794 204.064 105.794C203.841 105.794 203.652 105.925 203.611 106.158ZM205.932 107.263C205.404 107.263 205.053 106.903 205.053 106.35C205.053 105.808 205.424 105.444 205.936 105.444C206.471 105.444 206.78 105.842 206.78 106.367V106.443H205.472C205.493 106.728 205.692 106.896 205.932 106.896C206.131 106.896 206.251 106.827 206.31 106.707H206.749C206.66 107.03 206.341 107.263 205.932 107.263ZM205.479 106.158H206.361C206.327 105.928 206.145 105.794 205.932 105.794C205.709 105.794 205.52 105.925 205.479 106.158ZM207.697 107.263C207.234 107.263 206.922 106.893 206.922 106.371C206.922 105.839 207.265 105.444 207.721 105.444C207.91 105.444 208.092 105.513 208.199 105.705H208.26V104.843H208.686V107.212H208.26V107.013H208.199C208.089 107.191 207.883 107.263 207.697 107.263ZM207.814 106.879C208.071 106.879 208.26 106.673 208.26 106.354C208.26 106.035 208.071 105.829 207.814 105.829C207.55 105.829 207.361 106.045 207.361 106.354C207.361 106.663 207.553 106.879 207.814 106.879ZM209.84 107.263C209.328 107.263 208.944 106.882 208.944 106.354C208.944 105.825 209.328 105.444 209.84 105.444C210.348 105.444 210.736 105.825 210.736 106.354C210.736 106.882 210.348 107.263 209.84 107.263ZM209.84 106.876C210.104 106.876 210.296 106.666 210.296 106.354C210.296 106.041 210.104 105.832 209.84 105.832C209.572 105.832 209.383 106.041 209.383 106.354C209.383 106.666 209.572 106.876 209.84 106.876ZM210.992 107.212V105.496H211.421V105.698H211.483C211.59 105.523 211.754 105.444 211.957 105.444C212.17 105.444 212.331 105.533 212.424 105.698H212.486C212.595 105.53 212.753 105.444 212.987 105.444C213.364 105.444 213.605 105.688 213.605 106.076V107.212H213.176V106.186C213.176 105.993 213.09 105.835 212.863 105.835C212.644 105.835 212.513 105.997 212.513 106.179V107.212H212.084V106.196C212.084 106.004 211.995 105.835 211.765 105.835C211.545 105.835 211.421 106.004 211.421 106.196V107.212H210.992ZM213.922 107.212V106.704H214.44V107.212H213.922ZM161.98 110.212L162.769 107.843H163.432L164.187 110.212H163.72L163.559 109.68H162.597L162.426 110.212H161.98ZM162.718 109.302H163.445L163.126 108.245H163.057L162.718 109.302ZM164.947 110.212V108.496H165.376V108.698H165.437C165.544 108.523 165.712 108.444 165.904 108.444C166.251 108.444 166.478 108.681 166.478 109.062V110.212H166.048V109.196C166.048 109.004 165.959 108.835 165.726 108.835C165.503 108.835 165.376 109.004 165.376 109.196V110.212H164.947ZM167.6 110.263C167.072 110.263 166.721 109.903 166.721 109.35C166.721 108.808 167.092 108.444 167.604 108.444C168.139 108.444 168.448 108.842 168.448 109.367V109.443H167.14C167.161 109.728 167.36 109.896 167.6 109.896C167.799 109.896 167.919 109.827 167.978 109.707H168.417C168.328 110.03 168.009 110.263 167.6 110.263ZM167.147 109.158H168.029C167.995 108.928 167.813 108.794 167.6 108.794C167.377 108.794 167.188 108.925 167.147 109.158ZM168.923 110.212L168.562 108.496H168.995L169.238 109.858H169.3L169.564 108.496H170.206L170.474 109.858H170.536L170.776 108.496H171.198L170.821 110.212H170.175L169.911 108.849H169.849L169.592 110.212H168.923ZM172.084 110.212V108.496H172.513V110.212H172.084ZM172.08 108.272V107.843H172.516V108.272H172.08ZM172.889 110.212V108.496H173.318V108.698H173.38C173.487 108.523 173.655 108.444 173.847 108.444C174.194 108.444 174.42 108.681 174.42 109.062V110.212H173.991V109.196C173.991 109.004 173.902 108.835 173.669 108.835C173.445 108.835 173.318 109.004 173.318 109.196V110.212H172.889ZM175.197 110.226C175.018 110.226 174.908 110.109 174.908 109.92V108.822H174.592V108.496H174.915V108.032H175.324V108.496H175.729V108.822H175.33V109.779C175.33 109.851 175.358 109.886 175.44 109.886H175.729V110.226H175.197ZM176.707 110.263C176.178 110.263 175.828 109.903 175.828 109.35C175.828 108.808 176.199 108.444 176.711 108.444C177.246 108.444 177.555 108.842 177.555 109.367V109.443H176.247C176.268 109.728 176.467 109.896 176.707 109.896C176.906 109.896 177.026 109.827 177.085 109.707H177.524C177.435 110.03 177.116 110.263 176.707 110.263ZM176.254 109.158H177.136C177.102 108.928 176.92 108.794 176.707 108.794C176.484 108.794 176.295 108.925 176.254 109.158ZM177.813 110.212V108.496H178.239V108.801H178.301C178.386 108.592 178.603 108.465 178.85 108.465H178.877V108.925C178.829 108.918 178.798 108.914 178.733 108.914C178.459 108.914 178.242 109.062 178.242 109.419V110.212H177.813ZM179.088 110.212V108.496H179.517V108.698H179.579C179.685 108.523 179.853 108.444 180.046 108.444C180.392 108.444 180.619 108.681 180.619 109.062V110.212H180.19V109.196C180.19 109.004 180.101 108.835 179.867 108.835C179.644 108.835 179.517 109.004 179.517 109.196V110.212H179.088ZM181.742 110.263C181.213 110.263 180.863 109.903 180.863 109.35C180.863 108.808 181.234 108.444 181.745 108.444C182.281 108.444 182.589 108.842 182.589 109.367V109.443H181.282C181.302 109.728 181.501 109.896 181.742 109.896C181.941 109.896 182.061 109.827 182.119 109.707H182.559C182.469 110.03 182.15 110.263 181.742 110.263ZM181.288 109.158H182.171C182.136 108.928 181.954 108.794 181.742 108.794C181.518 108.794 181.33 108.925 181.288 109.158ZM183.253 110.226C183.075 110.226 182.965 110.109 182.965 109.92V108.822H182.649V108.496H182.972V108.032H183.38V108.496H183.785V108.822H183.387V109.779C183.387 109.851 183.415 109.886 183.497 109.886H183.785V110.226H183.253ZM183.991 110.706L184.238 110.212H183.991V109.704H184.509V110.212L184.258 110.706H183.991ZM186.373 110.263C186.184 110.263 186.002 110.195 185.896 110.013H185.834V110.212H185.405V107.843H185.834V108.705H185.896C186.006 108.516 186.212 108.444 186.397 108.444C186.86 108.444 187.173 108.815 187.173 109.337C187.173 109.869 186.829 110.263 186.373 110.263ZM186.28 109.879C186.545 109.879 186.733 109.663 186.733 109.354C186.733 109.045 186.541 108.829 186.28 108.829C186.023 108.829 185.834 109.035 185.834 109.354C185.834 109.673 186.023 109.879 186.28 109.879ZM188.168 110.263C187.702 110.263 187.41 109.989 187.41 109.515V108.496H187.839V109.505C187.839 109.711 187.942 109.876 188.168 109.876C188.392 109.876 188.495 109.711 188.495 109.505V108.496H188.924V109.515C188.924 109.989 188.635 110.263 188.168 110.263ZM189.279 110.212V108.496H189.708V110.212H189.279ZM189.275 108.272V107.843H189.711V108.272H189.275ZM190.084 110.212V107.843H190.513V110.212H190.084ZM191.315 110.226C191.137 110.226 191.027 110.109 191.027 109.92V108.822H190.711V108.496H191.034V108.032H191.442V108.496H191.847V108.822H191.449V109.779C191.449 109.851 191.476 109.886 191.559 109.886H191.847V110.226H191.315ZM193.723 110.263C193.534 110.263 193.352 110.195 193.246 110.013H193.184V110.212H192.755V107.843H193.184V108.705H193.246C193.356 108.516 193.562 108.444 193.747 108.444C194.211 108.444 194.523 108.815 194.523 109.337C194.523 109.869 194.18 110.263 193.723 110.263ZM193.631 109.879C193.895 109.879 194.084 109.663 194.084 109.354C194.084 109.045 193.891 108.829 193.631 108.829C193.373 108.829 193.184 109.035 193.184 109.354C193.184 109.673 193.373 109.879 193.631 109.879ZM194.637 110.864V110.521H194.95C195.059 110.521 195.121 110.473 195.159 110.36L195.193 110.26L194.538 108.496H194.984L195.368 109.69H195.43L195.808 108.496H196.254L195.482 110.541C195.399 110.765 195.276 110.864 195.011 110.864H194.637ZM197.387 110.226C197.209 110.226 197.099 110.109 197.099 109.92V108.822H196.783V108.496H197.106V108.032H197.514V108.496H197.919V108.822H197.521V109.779C197.521 109.851 197.549 109.886 197.631 109.886H197.919V110.226H197.387ZM198.169 110.212V107.843H198.598V108.698H198.66C198.767 108.523 198.935 108.444 199.127 108.444C199.474 108.444 199.7 108.681 199.7 109.062V110.212H199.271V109.196C199.271 109.004 199.182 108.835 198.949 108.835C198.725 108.835 198.598 109.004 198.598 109.196V110.212H198.169ZM200.823 110.263C200.294 110.263 199.944 109.903 199.944 109.35C199.944 108.808 200.315 108.444 200.826 108.444C201.362 108.444 201.671 108.842 201.671 109.367V109.443H200.363C200.384 109.728 200.583 109.896 200.823 109.896C201.022 109.896 201.142 109.827 201.201 109.707H201.64C201.551 110.03 201.232 110.263 200.823 110.263ZM200.37 109.158H201.252C201.218 108.928 201.036 108.794 200.823 108.794C200.6 108.794 200.411 108.925 200.37 109.158ZM203.576 108.444C204.039 108.444 204.351 108.815 204.351 109.337C204.351 109.869 204.008 110.263 203.552 110.263C203.363 110.263 203.181 110.195 203.075 110.003H203.013V110.864H202.587V108.496H203.013V108.695H203.075C203.184 108.516 203.39 108.444 203.576 108.444ZM203.459 108.829C203.202 108.829 203.013 109.035 203.013 109.354C203.013 109.673 203.202 109.879 203.459 109.879C203.723 109.879 203.912 109.663 203.912 109.354C203.912 109.045 203.72 108.829 203.459 108.829ZM205.375 110.263C204.846 110.263 204.496 109.903 204.496 109.35C204.496 108.808 204.867 108.444 205.378 108.444C205.914 108.444 206.223 108.842 206.223 109.367V109.443H204.915C204.935 109.728 205.135 109.896 205.375 109.896C205.574 109.896 205.694 109.827 205.752 109.707H206.192C206.103 110.03 205.783 110.263 205.375 110.263ZM204.922 109.158H205.804C205.77 108.928 205.588 108.794 205.375 108.794C205.152 108.794 204.963 108.925 204.922 109.158ZM207.257 110.263C206.745 110.263 206.361 109.882 206.361 109.354C206.361 108.825 206.745 108.444 207.257 108.444C207.765 108.444 208.153 108.825 208.153 109.354C208.153 109.882 207.765 110.263 207.257 110.263ZM207.257 109.876C207.521 109.876 207.713 109.666 207.713 109.354C207.713 109.041 207.521 108.832 207.257 108.832C206.989 108.832 206.8 109.041 206.8 109.354C206.8 109.666 206.989 109.876 207.257 109.876ZM209.398 108.444C209.861 108.444 210.174 108.815 210.174 109.337C210.174 109.869 209.83 110.263 209.374 110.263C209.185 110.263 209.003 110.195 208.897 110.003H208.835V110.864H208.409V108.496H208.835V108.695H208.897C209.007 108.516 209.213 108.444 209.398 108.444ZM209.281 108.829C209.024 108.829 208.835 109.035 208.835 109.354C208.835 109.673 209.024 109.879 209.281 109.879C209.546 109.879 209.734 109.663 209.734 109.354C209.734 109.045 209.542 108.829 209.281 108.829ZM210.435 110.212V107.843H210.864V110.212H210.435ZM212.003 110.263C211.474 110.263 211.124 109.903 211.124 109.35C211.124 108.808 211.494 108.444 212.006 108.444C212.541 108.444 212.85 108.842 212.85 109.367V109.443H211.543C211.563 109.728 211.762 109.896 212.003 109.896C212.202 109.896 212.322 109.827 212.38 109.707H212.819C212.73 110.03 212.411 110.263 212.003 110.263ZM211.549 109.158H212.432C212.397 108.928 212.215 108.794 212.003 108.794C211.779 108.794 211.591 108.925 211.549 109.158ZM213.064 110.706L213.311 110.212H213.064V109.704H213.582V110.212L213.332 110.706H213.064ZM162.34 113.212V111.822H162.035V111.496H162.343V111.149C162.343 110.957 162.467 110.833 162.652 110.833H163.15V111.163H162.865C162.786 111.163 162.752 111.204 162.752 111.279V111.496H163.15V111.822H162.755V113.212H162.34ZM164.089 113.263C163.577 113.263 163.193 112.882 163.193 112.354C163.193 111.825 163.577 111.444 164.089 111.444C164.597 111.444 164.985 111.825 164.985 112.354C164.985 112.882 164.597 113.263 164.089 113.263ZM164.089 112.876C164.353 112.876 164.545 112.666 164.545 112.354C164.545 112.041 164.353 111.832 164.089 111.832C163.821 111.832 163.632 112.041 163.632 112.354C163.632 112.666 163.821 112.876 164.089 112.876ZM165.242 113.212V111.496H165.667V111.801H165.729C165.815 111.592 166.031 111.465 166.278 111.465H166.306V111.925C166.258 111.918 166.227 111.914 166.162 111.914C165.887 111.914 165.671 112.062 165.671 112.419V113.212H165.242ZM167.479 113.226C167.301 113.226 167.191 113.109 167.191 112.92V111.822H166.875V111.496H167.198V111.032H167.606V111.496H168.011V111.822H167.613V112.779C167.613 112.851 167.641 112.886 167.723 112.886H168.011V113.226H167.479ZM168.261 113.212V110.843H168.69V111.698H168.752C168.859 111.523 169.027 111.444 169.219 111.444C169.566 111.444 169.792 111.681 169.792 112.062V113.212H169.363V112.196C169.363 112.004 169.274 111.835 169.041 111.835C168.817 111.835 168.69 112.004 168.69 112.196V113.212H168.261ZM170.915 113.263C170.386 113.263 170.036 112.903 170.036 112.35C170.036 111.808 170.407 111.444 170.918 111.444C171.454 111.444 171.763 111.842 171.763 112.367V112.443H170.455C170.476 112.728 170.675 112.896 170.915 112.896C171.114 112.896 171.234 112.827 171.293 112.707H171.732C171.643 113.03 171.324 113.263 170.915 113.263ZM170.462 112.158H171.344C171.31 111.928 171.128 111.794 170.915 111.794C170.692 111.794 170.503 111.925 170.462 112.158ZM173.668 111.444C174.131 111.444 174.443 111.815 174.443 112.337C174.443 112.869 174.1 113.263 173.644 113.263C173.455 113.263 173.273 113.195 173.167 113.003H173.105V113.864H172.679V111.496H173.105V111.695H173.167C173.276 111.516 173.482 111.444 173.668 111.444ZM173.551 111.829C173.294 111.829 173.105 112.035 173.105 112.354C173.105 112.673 173.294 112.879 173.551 112.879C173.815 112.879 174.004 112.663 174.004 112.354C174.004 112.045 173.812 111.829 173.551 111.829ZM175.467 113.263C174.938 113.263 174.588 112.903 174.588 112.35C174.588 111.808 174.959 111.444 175.47 111.444C176.006 111.444 176.315 111.842 176.315 112.367V112.443H175.007C175.027 112.728 175.227 112.896 175.467 112.896C175.666 112.896 175.786 112.827 175.844 112.707H176.284C176.195 113.03 175.875 113.263 175.467 113.263ZM175.014 112.158H175.896C175.862 111.928 175.68 111.794 175.467 111.794C175.244 111.794 175.055 111.925 175.014 112.158ZM177.349 113.263C176.837 113.263 176.453 112.882 176.453 112.354C176.453 111.825 176.837 111.444 177.349 111.444C177.857 111.444 178.245 111.825 178.245 112.354C178.245 112.882 177.857 113.263 177.349 113.263ZM177.349 112.876C177.613 112.876 177.805 112.666 177.805 112.354C177.805 112.041 177.613 111.832 177.349 111.832C177.081 111.832 176.892 112.041 176.892 112.354C176.892 112.666 177.081 112.876 177.349 112.876ZM179.49 111.444C179.953 111.444 180.266 111.815 180.266 112.337C180.266 112.869 179.922 113.263 179.466 113.263C179.277 113.263 179.095 113.195 178.989 113.003H178.927V113.864H178.501V111.496H178.927V111.695H178.989C179.099 111.516 179.305 111.444 179.49 111.444ZM179.373 111.829C179.116 111.829 178.927 112.035 178.927 112.354C178.927 112.673 179.116 112.879 179.373 112.879C179.638 112.879 179.826 112.663 179.826 112.354C179.826 112.045 179.634 111.829 179.373 111.829ZM180.527 113.212V110.843H180.956V113.212H180.527ZM182.095 113.263C181.566 113.263 181.216 112.903 181.216 112.35C181.216 111.808 181.586 111.444 182.098 111.444C182.633 111.444 182.942 111.842 182.942 112.367V112.443H181.635C181.655 112.728 181.854 112.896 182.095 112.896C182.294 112.896 182.414 112.827 182.472 112.707H182.911C182.822 113.03 182.503 113.263 182.095 113.263ZM181.641 112.158H182.524C182.489 111.928 182.307 111.794 182.095 111.794C181.871 111.794 181.683 111.925 181.641 112.158ZM183.156 113.212V112.704H183.674V113.212H183.156Z" fill="white"/>
<path d="M162.519 215.903L162.076 213.535H162.546L162.876 215.502H162.944L163.315 213.535H164.001L164.379 215.502H164.448L164.774 213.535H165.227L164.777 215.903H164.049L163.686 213.998H163.617L163.257 215.903H162.519ZM165.479 215.903V213.535H165.908V214.39H165.97C166.076 214.214 166.244 214.135 166.436 214.135C166.783 214.135 167.01 214.372 167.01 214.753V215.903H166.581V214.887C166.581 214.695 166.491 214.527 166.258 214.527C166.035 214.527 165.908 214.695 165.908 214.887V215.903H165.479ZM167.858 215.955C167.528 215.955 167.26 215.756 167.26 215.43C167.26 215.045 167.556 214.922 167.913 214.884L168.417 214.832V214.736C168.417 214.589 168.297 214.486 168.084 214.486C167.882 214.486 167.765 214.575 167.727 214.709H167.315C167.357 214.383 167.628 214.135 168.084 214.135C168.524 214.135 168.815 214.348 168.815 214.764V215.601C168.815 215.708 168.826 215.855 168.833 215.896V215.903H168.421C168.417 215.845 168.417 215.79 168.417 215.732H168.355C168.249 215.903 168.064 215.955 167.858 215.955ZM167.693 215.409C167.693 215.55 167.81 215.632 167.974 215.632C168.256 215.632 168.417 215.419 168.417 215.203V215.117L168.04 215.162C167.806 215.189 167.693 215.258 167.693 215.409ZM169.587 215.917C169.408 215.917 169.299 215.8 169.299 215.612V214.513H168.983V214.187H169.305V213.724H169.714V214.187H170.119V214.513H169.721V215.471C169.721 215.543 169.748 215.577 169.831 215.577H170.119V215.917H169.587ZM171.686 215.955C171.223 215.955 170.91 215.584 170.91 215.062C170.91 214.53 171.254 214.135 171.71 214.135C171.899 214.135 172.081 214.204 172.187 214.396H172.249V213.535H172.675V215.903H172.249V215.704H172.187C172.077 215.883 171.871 215.955 171.686 215.955ZM171.803 215.57C172.06 215.57 172.249 215.364 172.249 215.045C172.249 214.726 172.06 214.52 171.803 214.52C171.538 214.52 171.35 214.736 171.35 215.045C171.35 215.354 171.542 215.57 171.803 215.57ZM173.828 215.955C173.317 215.955 172.933 215.574 172.933 215.045C172.933 214.517 173.317 214.135 173.828 214.135C174.336 214.135 174.724 214.517 174.724 215.045C174.724 215.574 174.336 215.955 173.828 215.955ZM173.828 215.567C174.093 215.567 174.285 215.358 174.285 215.045C174.285 214.733 174.093 214.523 173.828 214.523C173.561 214.523 173.372 214.733 173.372 215.045C173.372 215.358 173.561 215.567 173.828 215.567ZM175.459 216.556V216.212H175.771C175.881 216.212 175.943 216.164 175.98 216.051L176.015 215.951L175.359 214.187H175.805L176.19 215.382H176.251L176.629 214.187H177.075L176.303 216.233C176.221 216.456 176.097 216.556 175.833 216.556H175.459ZM177.965 215.955C177.453 215.955 177.069 215.574 177.069 215.045C177.069 214.517 177.453 214.135 177.965 214.135C178.473 214.135 178.86 214.517 178.86 215.045C178.86 215.574 178.473 215.955 177.965 215.955ZM177.965 215.567C178.229 215.567 178.421 215.358 178.421 215.045C178.421 214.733 178.229 214.523 177.965 214.523C177.697 214.523 177.508 214.733 177.508 215.045C177.508 215.358 177.697 215.567 177.965 215.567ZM179.852 215.955C179.385 215.955 179.093 215.68 179.093 215.206V214.187H179.522V215.196C179.522 215.402 179.625 215.567 179.852 215.567C180.075 215.567 180.178 215.402 180.178 215.196V214.187H180.607V215.206C180.607 215.68 180.319 215.955 179.852 215.955ZM181.836 215.903L181.476 214.187H181.908L182.152 215.55H182.214L182.478 214.187H183.12L183.388 215.55H183.449L183.69 214.187H184.112L183.734 215.903H183.089L182.825 214.541H182.763L182.505 215.903H181.836ZM184.81 215.955C184.481 215.955 184.213 215.756 184.213 215.43C184.213 215.045 184.508 214.922 184.865 214.884L185.37 214.832V214.736C185.37 214.589 185.249 214.486 185.037 214.486C184.834 214.486 184.717 214.575 184.68 214.709H184.268C184.309 214.383 184.58 214.135 185.037 214.135C185.476 214.135 185.768 214.348 185.768 214.764V215.601C185.768 215.708 185.778 215.855 185.785 215.896V215.903H185.373C185.37 215.845 185.37 215.79 185.37 215.732H185.308C185.201 215.903 185.016 215.955 184.81 215.955ZM184.645 215.409C184.645 215.55 184.762 215.632 184.927 215.632C185.208 215.632 185.37 215.419 185.37 215.203V215.117L184.992 215.162C184.759 215.189 184.645 215.258 184.645 215.409ZM186.127 215.903V214.187H186.556V214.39H186.618C186.724 214.214 186.893 214.135 187.085 214.135C187.431 214.135 187.658 214.372 187.658 214.753V215.903H187.229V214.887C187.229 214.695 187.14 214.527 186.906 214.527C186.683 214.527 186.556 214.695 186.556 214.887V215.903H186.127ZM188.434 215.917C188.256 215.917 188.146 215.8 188.146 215.612V214.513H187.83V214.187H188.153V213.724H188.561V214.187H188.966V214.513H188.568V215.471C188.568 215.543 188.596 215.577 188.678 215.577H188.966V215.917H188.434ZM190.26 215.917C190.081 215.917 189.971 215.8 189.971 215.612V214.513H189.656V214.187H189.978V213.724H190.387V214.187H190.792V214.513H190.394V215.471C190.394 215.543 190.421 215.577 190.503 215.577H190.792V215.917H190.26ZM191.784 215.955C191.273 215.955 190.888 215.574 190.888 215.045C190.888 214.517 191.273 214.135 191.784 214.135C192.292 214.135 192.68 214.517 192.68 215.045C192.68 215.574 192.292 215.955 191.784 215.955ZM191.784 215.567C192.048 215.567 192.241 215.358 192.241 215.045C192.241 214.733 192.048 214.523 191.784 214.523C191.516 214.523 191.328 214.733 191.328 215.045C191.328 215.358 191.516 215.567 191.784 215.567ZM163.167 218.955C162.978 218.955 162.797 218.886 162.69 218.704H162.628V218.903H162.199V216.535H162.628V217.396H162.69C162.8 217.208 163.006 217.135 163.191 217.135C163.655 217.135 163.967 217.506 163.967 218.028C163.967 218.56 163.624 218.955 163.167 218.955ZM163.075 218.57C163.339 218.57 163.528 218.354 163.528 218.045C163.528 217.736 163.335 217.52 163.075 217.52C162.817 217.52 162.628 217.726 162.628 218.045C162.628 218.364 162.817 218.57 163.075 218.57ZM164.963 218.955C164.496 218.955 164.204 218.68 164.204 218.206V217.187H164.633V218.196C164.633 218.402 164.736 218.567 164.963 218.567C165.186 218.567 165.289 218.402 165.289 218.196V217.187H165.718V218.206C165.718 218.68 165.43 218.955 164.963 218.955ZM166.073 218.903V217.187H166.502V218.903H166.073ZM166.07 216.964V216.535H166.505V216.964H166.07ZM166.878 218.903V216.535H167.307V218.903H166.878ZM168.343 218.955C167.88 218.955 167.567 218.584 167.567 218.062C167.567 217.53 167.91 217.135 168.367 217.135C168.556 217.135 168.738 217.204 168.844 217.396H168.906V216.535H169.332V218.903H168.906V218.704H168.844C168.734 218.883 168.528 218.955 168.343 218.955ZM168.46 218.57C168.717 218.57 168.906 218.364 168.906 218.045C168.906 217.726 168.717 217.52 168.46 217.52C168.195 217.52 168.007 217.736 168.007 218.045C168.007 218.354 168.199 218.57 168.46 218.57ZM170.753 218.917C170.574 218.917 170.465 218.8 170.465 218.612V217.513H170.149V217.187H170.471V216.724H170.88V217.187H171.285V217.513H170.887V218.471C170.887 218.543 170.914 218.577 170.997 218.577H171.285V218.917H170.753ZM172.277 218.955C171.766 218.955 171.381 218.574 171.381 218.045C171.381 217.517 171.766 217.135 172.277 217.135C172.785 217.135 173.173 217.517 173.173 218.045C173.173 218.574 172.785 218.955 172.277 218.955ZM172.277 218.567C172.542 218.567 172.734 218.358 172.734 218.045C172.734 217.733 172.542 217.523 172.277 217.523C172.01 217.523 171.821 217.733 171.821 218.045C171.821 218.358 172.01 218.567 172.277 218.567ZM174.089 218.955C173.626 218.955 173.313 218.584 173.313 218.062C173.313 217.53 173.657 217.135 174.113 217.135C174.302 217.135 174.484 217.204 174.59 217.396H174.652V216.535H175.078V218.903H174.652V218.704H174.59C174.48 218.883 174.274 218.955 174.089 218.955ZM174.206 218.57C174.463 218.57 174.652 218.364 174.652 218.045C174.652 217.726 174.463 217.52 174.206 217.52C173.941 217.52 173.753 217.736 173.753 218.045C173.753 218.354 173.945 218.57 174.206 218.57ZM175.943 218.955C175.614 218.955 175.346 218.756 175.346 218.43C175.346 218.045 175.641 217.922 175.998 217.884L176.503 217.832V217.736C176.503 217.589 176.382 217.486 176.17 217.486C175.967 217.486 175.85 217.575 175.813 217.709H175.401C175.442 217.383 175.713 217.135 176.17 217.135C176.609 217.135 176.901 217.348 176.901 217.764V218.601C176.901 218.708 176.911 218.855 176.918 218.896V218.903H176.506C176.503 218.845 176.503 218.79 176.503 218.732H176.441C176.334 218.903 176.149 218.955 175.943 218.955ZM175.778 218.409C175.778 218.55 175.895 218.632 176.06 218.632C176.341 218.632 176.503 218.419 176.503 218.203V218.117L176.125 218.162C175.892 218.189 175.778 218.258 175.778 218.409ZM177.113 219.556V219.212H177.425C177.535 219.212 177.597 219.164 177.635 219.051L177.669 218.951L177.013 217.187H177.46L177.844 218.382H177.906L178.284 217.187H178.73L177.957 219.233C177.875 219.456 177.752 219.556 177.487 219.556H177.113ZM179.365 218.107C179.365 217.87 179.464 217.719 179.656 217.589L179.739 217.534C179.897 217.431 180.003 217.355 180.003 217.19C180.003 217.012 179.866 216.885 179.67 216.885C179.478 216.885 179.317 216.991 179.279 217.19H178.822C178.884 216.758 179.234 216.483 179.684 216.483C180.134 216.483 180.46 216.768 180.46 217.177C180.46 217.489 180.285 217.647 180.123 217.757L180.041 217.812C179.869 217.925 179.807 218.001 179.807 218.182H179.365V218.107ZM179.337 218.903V218.416H179.835V218.903H179.337Z" fill="#FFD12F"/>
<path d="M106.992 219.251C106.526 219.251 106.077 219.081 105.815 218.632H105.662V219.124H104.604V213.28H105.662V215.406H105.815C106.086 214.94 106.594 214.762 107.051 214.762C108.194 214.762 108.965 215.677 108.965 216.964C108.965 218.277 108.118 219.251 106.992 219.251ZM106.763 218.302C107.415 218.302 107.881 217.769 107.881 217.006C107.881 216.244 107.407 215.711 106.763 215.711C106.128 215.711 105.662 216.219 105.662 217.006C105.662 217.794 106.128 218.302 106.763 218.302Z" fill="black"/>
<path d="M110.896 219.251C110.084 219.251 109.423 218.759 109.423 217.955C109.423 217.006 110.151 216.702 111.032 216.608L112.277 216.481V216.244C112.277 215.88 111.98 215.626 111.455 215.626C110.956 215.626 110.668 215.846 110.575 216.177H109.558C109.66 215.372 110.329 214.762 111.455 214.762C112.539 214.762 113.259 215.287 113.259 216.312V218.378C113.259 218.641 113.285 219.005 113.302 219.107V219.124H112.285C112.277 218.98 112.277 218.844 112.277 218.7H112.124C111.862 219.124 111.405 219.251 110.896 219.251ZM110.49 217.904C110.49 218.251 110.778 218.455 111.184 218.455C111.879 218.455 112.277 217.93 112.277 217.396V217.184L111.345 217.294C110.769 217.362 110.49 217.532 110.49 217.904Z" fill="black"/>
<path d="M115.831 219.251C114.764 219.251 114.002 218.717 113.883 217.879H114.925C115.043 218.251 115.433 218.412 115.839 218.412C116.254 218.412 116.593 218.234 116.593 217.921C116.593 217.608 116.271 217.523 115.831 217.447L115.382 217.371C114.535 217.227 114.01 216.871 114.01 216.109C114.01 215.279 114.738 214.762 115.746 214.762C116.729 214.762 117.381 215.22 117.558 216.016H116.542C116.424 215.702 116.11 215.575 115.755 215.575C115.323 215.575 115.043 215.762 115.043 216.024C115.043 216.295 115.263 216.38 115.721 216.456L116.17 216.532C116.991 216.668 117.618 217.006 117.618 217.828C117.618 218.726 116.872 219.251 115.831 219.251Z" fill="black"/>
<path d="M120.242 219.251C118.938 219.251 118.074 218.361 118.074 216.998C118.074 215.66 118.989 214.762 120.251 214.762C121.572 214.762 122.334 215.745 122.334 217.04V217.227H119.108C119.158 217.93 119.65 218.345 120.242 218.345C120.734 218.345 121.03 218.175 121.174 217.879H122.258C122.038 218.675 121.25 219.251 120.242 219.251ZM119.125 216.524H121.301C121.216 215.956 120.767 215.626 120.242 215.626C119.692 215.626 119.226 215.948 119.125 216.524Z" fill="black"/>
<path d="M67 221.184L254 44.1836" stroke="#BC1B1B" stroke-width="2"/>
</svg>
