<svg width="320" height="253" viewBox="0 0 320 253" fill="none" xmlns="http://www.w3.org/2000/svg">
<rect y="0.183594" width="320" height="252" rx="8" fill="#FAFAFA"/>
<rect x="39.25" y="55.3301" width="242.5" height="158.292" rx="3.68121" fill="white"/>
<path d="M60.3602 73.84C59.2301 73.84 58.3696 72.9795 58.3696 71.7805C58.3696 70.5873 59.2301 69.7096 60.3602 69.7096C61.3125 69.7096 62.064 70.2775 62.2533 71.1552H61.6108C61.4502 70.6274 60.9798 70.266 60.3659 70.266C59.5571 70.266 59.0121 70.9085 59.0121 71.7748C59.0121 72.6295 59.5571 73.2835 60.3659 73.2835C60.9683 73.2835 61.4272 72.9508 61.6051 72.4517H62.2533C62.041 73.2835 61.324 73.84 60.3602 73.84ZM62.8487 73.7539V70.8856H63.4281V71.4134H63.5256C63.6748 71.0462 64.0534 70.834 64.5008 70.834H64.541V71.4593C64.4492 71.4478 64.409 71.4478 64.3173 71.4478C63.8182 71.4478 63.4338 71.7461 63.4338 72.3714V73.7539H62.8487ZM66.1987 73.84C65.3096 73.84 64.7359 73.2204 64.7359 72.314C64.7359 71.4248 65.3325 70.7995 66.1873 70.7995C67.065 70.7995 67.587 71.4535 67.587 72.3198V72.4173H65.3038C65.3268 72.9737 65.6997 73.3351 66.1987 73.3351C66.5831 73.3351 66.8298 73.1975 66.9502 72.9278H67.5468C67.3862 73.4613 66.8757 73.84 66.1987 73.84ZM65.321 72.0214H67.0076C66.956 71.574 66.6347 71.2814 66.1873 71.2814C65.7513 71.2814 65.3956 71.551 65.321 72.0214ZM68.9937 73.84C68.4373 73.84 67.9898 73.513 67.9898 72.968C67.9898 72.3255 68.5118 72.1304 69.1199 72.0673L69.9689 71.9756V71.8207C69.9689 71.4937 69.7452 71.2814 69.3379 71.2814C68.965 71.2814 68.7241 71.4535 68.6553 71.7461H68.0931C68.1619 71.2011 68.6151 70.7995 69.3379 70.7995C70.0722 70.7995 70.5197 71.1724 70.5197 71.8493V73.2491C70.5197 73.4269 70.5369 73.6736 70.5483 73.7424V73.7539H69.9747C69.9689 73.6564 69.9689 73.5359 69.9689 73.4212H69.8714C69.7051 73.7137 69.3723 73.84 68.9937 73.84ZM68.5864 72.9336C68.5864 73.2261 68.8216 73.3925 69.1429 73.3925C69.6649 73.3925 69.9689 73.0024 69.9689 72.6181V72.3771L69.3092 72.4574C68.856 72.5091 68.5864 72.6295 68.5864 72.9336ZM71.9414 73.7769C71.6431 73.7769 71.471 73.599 71.471 73.2892V71.3331H70.9317V70.8856H71.4824V70.1112H72.0389V70.8856H72.7445V71.3331H72.0446V73.1114C72.0446 73.2548 72.102 73.3122 72.2511 73.3122H72.7445V73.7769H71.9414ZM74.4915 73.84C73.6023 73.84 73.0287 73.2204 73.0287 72.314C73.0287 71.4248 73.6253 70.7995 74.48 70.7995C75.3577 70.7995 75.8798 71.4535 75.8798 72.3198V72.4173H73.5966C73.6195 72.9737 73.9924 73.3351 74.4915 73.3351C74.8759 73.3351 75.1225 73.1975 75.243 72.9278H75.8396C75.679 73.4613 75.1684 73.84 74.4915 73.84ZM73.6138 72.0214H75.3004C75.2487 71.574 74.9275 71.2814 74.48 71.2814C74.0441 71.2814 73.6884 71.551 73.6138 72.0214ZM76.3236 74.5341L76.685 73.7539H76.3408V73.0196H77.0636V73.7539L76.7022 74.5341H76.3236ZM79.4877 73.7769C79.1894 73.7769 79.0173 73.599 79.0173 73.2892V71.3331H78.4781V70.8856H79.0288V70.1112H79.5852V70.8856H80.2908V71.3331H79.591V73.1114C79.591 73.2548 79.6483 73.3122 79.7975 73.3122H80.2908V73.7769H79.4877ZM80.8489 73.7539V70.8856H81.4283V71.4134H81.5258C81.675 71.0462 82.0536 70.834 82.501 70.834H82.5412V71.4593C82.4494 71.4478 82.4093 71.4478 82.3175 71.4478C81.8184 71.4478 81.434 71.7461 81.434 72.3714V73.7539H80.8489ZM83.7348 73.84C83.1784 73.84 82.7309 73.513 82.7309 72.968C82.7309 72.3255 83.2529 72.1304 83.861 72.0673L84.71 71.9756V71.8207C84.71 71.4937 84.4863 71.2814 84.079 71.2814C83.7061 71.2814 83.4652 71.4535 83.3964 71.7461H82.8342C82.903 71.2011 83.3562 70.7995 84.079 70.7995C84.8133 70.7995 85.2608 71.1724 85.2608 71.8493V73.2491C85.2608 73.4269 85.278 73.6736 85.2894 73.7424V73.7539H84.7158C84.71 73.6564 84.71 73.5359 84.71 73.4212H84.6125C84.4462 73.7137 84.1134 73.84 83.7348 73.84ZM83.3275 72.9336C83.3275 73.2261 83.5627 73.3925 83.884 73.3925C84.406 73.3925 84.71 73.0024 84.71 72.6181V72.3771L84.0503 72.4574C83.5971 72.5091 83.3275 72.6295 83.3275 72.9336ZM87.158 73.84C86.3664 73.84 85.8272 73.2089 85.8272 72.3427C85.8272 71.4593 86.4066 70.7995 87.1867 70.7995C87.5596 70.7995 87.8981 70.9544 88.0759 71.2986H88.1677V69.7956H88.7528V73.7539H88.1677V73.3466H88.0759C87.8923 73.6793 87.5309 73.84 87.158 73.84ZM87.3015 73.3179C87.8006 73.3179 88.1734 72.9106 88.1734 72.3198C88.1734 71.7289 87.8006 71.3216 87.3015 71.3216C86.7794 71.3216 86.4295 71.7518 86.4295 72.3198C86.4295 72.8877 86.7852 73.3179 87.3015 73.3179ZM90.818 73.84C89.9288 73.84 89.3552 73.2204 89.3552 72.314C89.3552 71.4248 89.9518 70.7995 90.8065 70.7995C91.6842 70.7995 92.2063 71.4535 92.2063 72.3198V72.4173H89.9231C89.946 72.9737 90.3189 73.3351 90.818 73.3351C91.2024 73.3351 91.449 73.1975 91.5695 72.9278H92.1661C92.0055 73.4613 91.4949 73.84 90.818 73.84ZM89.9403 72.0214H91.6269C91.5752 71.574 91.254 71.2814 90.8065 71.2814C90.3706 71.2814 90.0149 71.551 89.9403 72.0214ZM92.6501 74.5341L93.0115 73.7539H92.6673V73.0196H93.3901V73.7539L93.0287 74.5341H92.6501ZM96.0304 73.84C95.474 73.84 95.0265 73.513 95.0265 72.968C95.0265 72.3255 95.5486 72.1304 96.1567 72.0673L97.0057 71.9756V71.8207C97.0057 71.4937 96.7819 71.2814 96.3746 71.2814C96.0018 71.2814 95.7608 71.4535 95.692 71.7461H95.1298C95.1986 71.2011 95.6518 70.7995 96.3746 70.7995C97.1089 70.7995 97.5564 71.1724 97.5564 71.8493V73.2491C97.5564 73.4269 97.5736 73.6736 97.5851 73.7424V73.7539H97.0114C97.0057 73.6564 97.0057 73.5359 97.0057 73.4212H96.9081C96.7418 73.7137 96.4091 73.84 96.0304 73.84ZM95.6231 72.9336C95.6231 73.2261 95.8583 73.3925 96.1796 73.3925C96.7016 73.3925 97.0057 73.0024 97.0057 72.6181V72.3771L96.346 72.4574C95.8928 72.5091 95.6231 72.6295 95.6231 72.9336ZM98.335 73.7539V70.8856H98.9202V71.2527H99.0177C99.1955 70.9487 99.4996 70.7995 99.8438 70.7995C100.435 70.7995 100.819 71.2011 100.819 71.8493V73.7539H100.234V72.0272C100.234 71.6371 100.05 71.3331 99.6143 71.3331C99.1898 71.3331 98.9202 71.66 98.9202 72.0272V73.7539H98.335ZM102.718 73.84C101.927 73.84 101.388 73.2089 101.388 72.3427C101.388 71.4593 101.967 70.7995 102.747 70.7995C103.12 70.7995 103.458 70.9544 103.636 71.2986H103.728V69.7956H104.313V73.7539H103.728V73.3466H103.636C103.453 73.6793 103.091 73.84 102.718 73.84ZM102.862 73.3179C103.361 73.3179 103.734 72.9106 103.734 72.3198C103.734 71.7289 103.361 71.3216 102.862 71.3216C102.34 71.3216 101.99 71.7518 101.99 72.3198C101.99 72.8877 102.346 73.3179 102.862 73.3179ZM107.66 73.84C106.771 73.84 106.197 73.2204 106.197 72.314C106.197 71.4248 106.794 70.7995 107.648 70.7995C108.526 70.7995 109.048 71.4535 109.048 72.3198V72.4173H106.765C106.788 72.9737 107.161 73.3351 107.66 73.3351C108.044 73.3351 108.291 73.1975 108.411 72.9278H109.008C108.847 73.4613 108.337 73.84 107.66 73.84ZM106.782 72.0214H108.469C108.417 71.574 108.096 71.2814 107.648 71.2814C107.212 71.2814 106.857 71.551 106.782 72.0214ZM110.455 73.84C109.898 73.84 109.451 73.513 109.451 72.968C109.451 72.3255 109.973 72.1304 110.581 72.0673L111.43 71.9756V71.8207C111.43 71.4937 111.206 71.2814 110.799 71.2814C110.426 71.2814 110.185 71.4535 110.116 71.7461H109.554C109.623 71.2011 110.076 70.7995 110.799 70.7995C111.533 70.7995 111.981 71.1724 111.981 71.8493V73.2491C111.981 73.4269 111.998 73.6736 112.01 73.7424V73.7539H111.436C111.43 73.6564 111.43 73.5359 111.43 73.4212H111.333C111.166 73.7137 110.834 73.84 110.455 73.84ZM110.048 72.9336C110.048 73.2261 110.283 73.3925 110.604 73.3925C111.126 73.3925 111.43 73.0024 111.43 72.6181V72.3771L110.77 72.4574C110.317 72.5091 110.048 72.6295 110.048 72.9336ZM112.759 73.7539V70.8856H113.339V71.4134H113.436C113.586 71.0462 113.964 70.834 114.412 70.834H114.452V71.4593C114.36 71.4478 114.32 71.4478 114.228 71.4478C113.729 71.4478 113.345 71.7461 113.345 72.3714V73.7539H112.759ZM114.937 73.7539V70.8856H115.523V71.2527H115.62C115.798 70.9487 116.102 70.7995 116.446 70.7995C117.037 70.7995 117.421 71.2011 117.421 71.8493V73.7539H116.836V72.0272C116.836 71.6371 116.653 71.3331 116.217 71.3331C115.792 71.3331 115.523 71.66 115.523 72.0272V73.7539H114.937ZM119.346 72.4746V71.9583H123.878V72.4746H119.346ZM126.643 73.84C126.086 73.84 125.639 73.513 125.639 72.968C125.639 72.3255 126.161 72.1304 126.769 72.0673L127.618 71.9756V71.8207C127.618 71.4937 127.394 71.2814 126.987 71.2814C126.614 71.2814 126.373 71.4535 126.304 71.7461H125.742C125.811 71.2011 126.264 70.7995 126.987 70.7995C127.721 70.7995 128.169 71.1724 128.169 71.8493V73.2491C128.169 73.4269 128.186 73.6736 128.197 73.7424V73.7539H127.624C127.618 73.6564 127.618 73.5359 127.618 73.4212H127.52C127.354 73.7137 127.021 73.84 126.643 73.84ZM126.235 72.9336C126.235 73.2261 126.471 73.3925 126.792 73.3925C127.314 73.3925 127.618 73.0024 127.618 72.6181V72.3771L126.958 72.4574C126.505 72.5091 126.235 72.6295 126.235 72.9336ZM128.947 73.7539V69.7956H129.532V73.7539H128.947ZM130.346 73.7539V69.7956H130.932V73.7539H130.346ZM133.027 73.7539V70.8856H133.612V73.7539H133.027ZM133.021 70.4209V69.7956H133.618V70.4209H133.021ZM134.426 73.7539V70.8856H135.012V71.2527H135.109C135.287 70.9487 135.591 70.7995 135.935 70.7995C136.526 70.7995 136.91 71.2011 136.91 71.8493V73.7539H136.325V72.0272C136.325 71.6371 136.142 71.3331 135.706 71.3331C135.281 71.3331 135.012 71.66 135.012 72.0272V73.7539H134.426ZM140.246 73.84C139.386 73.84 138.755 73.1975 138.755 72.3198C138.755 71.442 139.386 70.7995 140.246 70.7995C141.101 70.7995 141.738 71.442 141.738 72.3198C141.738 73.1975 141.101 73.84 140.246 73.84ZM140.246 73.3122C140.763 73.3122 141.135 72.8992 141.135 72.3198C141.135 71.7404 140.763 71.3273 140.246 71.3273C139.718 71.3273 139.357 71.7404 139.357 72.3198C139.357 72.8992 139.718 73.3122 140.246 73.3122ZM142.333 73.7539V70.8856H142.918V71.2527H143.015C143.193 70.9487 143.497 70.7995 143.841 70.7995C144.432 70.7995 144.817 71.2011 144.817 71.8493V73.7539H144.231V72.0272C144.231 71.6371 144.048 71.3331 143.612 71.3331C143.187 71.3331 142.918 71.66 142.918 72.0272V73.7539H142.333ZM146.848 73.84C145.959 73.84 145.385 73.2204 145.385 72.314C145.385 71.4248 145.982 70.7995 146.836 70.7995C147.714 70.7995 148.236 71.4535 148.236 72.3198V72.4173H145.953C145.976 72.9737 146.349 73.3351 146.848 73.3351C147.232 73.3351 147.479 73.1975 147.599 72.9278H148.196C148.035 73.4613 147.525 73.84 146.848 73.84ZM145.97 72.0214H147.657C147.605 71.574 147.284 71.2814 146.836 71.2814C146.401 71.2814 146.045 71.551 145.97 72.0214ZM151.71 70.7995C152.502 70.7995 153.041 71.4306 153.041 72.2968C153.041 73.1802 152.462 73.84 151.682 73.84C151.309 73.84 150.97 73.6851 150.793 73.3409H150.701V74.8439H150.116V70.8856H150.701V71.2929H150.793C150.976 70.9602 151.338 70.7995 151.71 70.7995ZM151.567 71.3216C151.068 71.3216 150.695 71.7289 150.695 72.3198C150.695 72.9106 151.068 73.3179 151.567 73.3179C152.089 73.3179 152.439 72.8877 152.439 72.3198C152.439 71.7518 152.083 71.3216 151.567 71.3216ZM153.644 73.7539V69.7956H154.229V73.7539H153.644ZM155.852 73.84C155.295 73.84 154.848 73.513 154.848 72.968C154.848 72.3255 155.37 72.1304 155.978 72.0673L156.827 71.9756V71.8207C156.827 71.4937 156.603 71.2814 156.196 71.2814C155.823 71.2814 155.582 71.4535 155.513 71.7461H154.951C155.02 71.2011 155.473 70.7995 156.196 70.7995C156.93 70.7995 157.378 71.1724 157.378 71.8493V73.2491C157.378 73.4269 157.395 73.6736 157.406 73.7424V73.7539H156.833C156.827 73.6564 156.827 73.5359 156.827 73.4212H156.729C156.563 73.7137 156.23 73.84 155.852 73.84ZM155.444 72.9336C155.444 73.2261 155.68 73.3925 156.001 73.3925C156.523 73.3925 156.827 73.0024 156.827 72.6181V72.3771L156.167 72.4574C155.714 72.5091 155.444 72.6295 155.444 72.9336ZM159.413 73.84C158.598 73.84 157.938 73.2433 157.938 72.3198C157.938 71.3962 158.598 70.7995 159.413 70.7995C160.107 70.7995 160.646 71.2068 160.784 71.8666H160.204C160.09 71.5281 159.814 71.3273 159.418 71.3273C158.931 71.3273 158.541 71.7002 158.541 72.314C158.541 72.9393 158.931 73.3122 159.418 73.3122C159.814 73.3122 160.101 73.1057 160.216 72.75H160.801C160.669 73.4097 160.13 73.84 159.413 73.84ZM162.61 73.84C161.721 73.84 161.147 73.2204 161.147 72.314C161.147 71.4248 161.744 70.7995 162.599 70.7995C163.476 70.7995 163.998 71.4535 163.998 72.3198V72.4173H161.715C161.738 72.9737 162.111 73.3351 162.61 73.3351C162.994 73.3351 163.241 73.1975 163.361 72.9278H163.958C163.797 73.4613 163.287 73.84 162.61 73.84ZM161.732 72.0214H163.419C163.367 71.574 163.046 71.2814 162.599 71.2814C162.163 71.2814 161.807 71.551 161.732 72.0214Z" fill="#0A0B0D"/>
<rect x="58.1172" y="87.0801" width="100.773" height="53.1593" rx="1.52976" fill="#0000FF"/>
<path d="M64.1631 97.2871V93.3288H65.9587C66.6815 93.3288 67.2036 93.7591 67.2036 94.4762C67.2036 95.1932 66.6758 95.6407 65.9587 95.6407H64.7712V97.2871H64.1631ZM64.7598 95.1015H65.9071C66.3201 95.1015 66.5897 94.8777 66.5897 94.4991C66.5897 94.1033 66.3201 93.8681 65.9071 93.8681H64.7598V95.1015ZM68.9016 97.3732C68.0411 97.3732 67.4101 96.7307 67.4101 95.853C67.4101 94.9753 68.0411 94.3328 68.9016 94.3328C69.7564 94.3328 70.3931 94.9753 70.3931 95.853C70.3931 96.7307 69.7564 97.3732 68.9016 97.3732ZM68.9016 96.8454C69.4179 96.8454 69.7908 96.4324 69.7908 95.853C69.7908 95.2736 69.4179 94.8605 68.9016 94.8605C68.3738 94.8605 68.0124 95.2736 68.0124 95.853C68.0124 96.4324 68.3738 96.8454 68.9016 96.8454ZM72.0263 97.3732C71.315 97.3732 70.8159 97.029 70.7299 96.4668H71.3093C71.3953 96.7766 71.6936 96.9028 72.0263 96.9028C72.3591 96.9028 72.6402 96.7536 72.6402 96.4955C72.6402 96.2373 72.405 96.1513 72.0722 96.0996L71.7453 96.0423C71.1945 95.9562 70.8274 95.7325 70.8274 95.2162C70.8274 94.6827 71.2978 94.3328 71.9632 94.3328C72.5943 94.3328 73.0417 94.6253 73.1622 95.1703H72.6C72.5082 94.9121 72.2788 94.7917 71.969 94.7917C71.6305 94.7917 71.4068 94.9523 71.4068 95.1703C71.4068 95.3998 71.5789 95.4743 71.9288 95.5317L72.2558 95.5891C72.7893 95.6751 73.2081 95.8931 73.2081 96.4496C73.2081 97.0175 72.709 97.3732 72.0263 97.3732ZM74.4588 97.3101C74.1605 97.3101 73.9884 97.1322 73.9884 96.8224V94.8663H73.4492V94.4188H73.9999V93.6444H74.5563V94.4188H75.2619V94.8663H74.5621V96.6446C74.5621 96.788 74.6194 96.8454 74.7686 96.8454H75.2619V97.3101H74.4588ZM75.7339 97.2871V96.5528H76.4568V97.2871H75.7339ZM80.1289 97.3732C78.9816 97.3732 78.1211 96.5012 78.1211 95.308C78.1211 94.109 78.9816 93.2428 80.1289 93.2428C81.2705 93.2428 82.1367 94.109 82.1367 95.308C82.1367 96.5012 81.2705 97.3732 80.1289 97.3732ZM80.1289 96.8167C80.9378 96.8167 81.4942 96.1513 81.4942 95.308C81.4942 94.459 80.9378 93.7992 80.1289 93.7992C79.3201 93.7992 78.7636 94.459 78.7636 95.308C78.7636 96.1513 79.3201 96.8167 80.1289 96.8167ZM83.1526 97.2871L82.4929 94.4188H83.0838L83.5829 96.8052H83.6804L84.2139 94.4188H85.1088L85.6423 96.8052H85.7398L86.2389 94.4188H86.8126L86.1299 97.2871H85.2293L84.7015 94.9007H84.604L84.0762 97.2871H83.1526ZM87.3383 97.2871V94.4188H87.9234V94.7859H88.0209C88.1988 94.4819 88.5028 94.3328 88.847 94.3328C89.4379 94.3328 89.8222 94.7343 89.8222 95.3826V97.2871H89.2371V95.5604C89.2371 95.1703 89.0535 94.8663 88.6175 94.8663C88.193 94.8663 87.9234 95.1932 87.9234 95.5604V97.2871H87.3383ZM90.5169 97.2871V96.5528H91.2398V97.2871H90.5169ZM93.1508 97.2871V93.3288H95.9674V93.8738H93.7588V94.9753H95.6691V95.5145H93.7588V96.7421H96.0076V97.2871H93.1508ZM97.4245 97.3732C96.8681 97.3732 96.4206 97.0462 96.4206 96.5012C96.4206 95.8587 96.9427 95.6636 97.5508 95.6005L98.3998 95.5088V95.3539C98.3998 95.0269 98.176 94.8146 97.7687 94.8146C97.3959 94.8146 97.1549 94.9867 97.0861 95.2793H96.5239C96.5927 94.7343 97.0459 94.3328 97.7687 94.3328C98.503 94.3328 98.9505 94.7056 98.9505 95.3826V96.7823C98.9505 96.9601 98.9677 97.2068 98.9792 97.2756V97.2871H98.4055C98.3998 97.1896 98.3998 97.0691 98.3998 96.9544H98.3023C98.1359 97.247 97.8032 97.3732 97.4245 97.3732ZM97.0172 96.4668C97.0172 96.7593 97.2525 96.9257 97.5737 96.9257C98.0957 96.9257 98.3998 96.5356 98.3998 96.1513V95.9103L97.7401 95.9906C97.2869 96.0423 97.0172 96.1627 97.0172 96.4668ZM99.7291 97.2871V94.4188H100.309V94.9466H100.406C100.555 94.5794 100.934 94.3672 101.381 94.3672H101.421V94.9925C101.33 94.981 101.29 94.981 101.198 94.981C100.699 94.981 100.314 95.2793 100.314 95.9046V97.2871H99.7291ZM101.907 97.2871V94.4188H102.492V94.7859H102.59C102.768 94.4819 103.072 94.3328 103.416 94.3328C104.007 94.3328 104.391 94.7343 104.391 95.3826V97.2871H103.806V95.5604C103.806 95.1703 103.622 94.8663 103.186 94.8663C102.762 94.8663 102.492 95.1932 102.492 95.5604V97.2871H101.907ZM105.086 97.2871V96.5528H105.809V97.2871H105.086Z" fill="white"/>
<path d="M65.1154 125.971V122.557H63.7386V122.012H67.106V122.557H65.7292V125.971H65.1154ZM68.1825 126.057C67.4195 126.057 66.9491 125.604 66.9491 124.818V123.102H67.5343V124.806C67.5343 125.219 67.7465 125.529 68.1825 125.529C68.607 125.529 68.8193 125.219 68.8193 124.806V123.102H69.4044V124.818C69.4044 125.604 68.9397 126.057 68.1825 126.057ZM70.1813 125.971V123.102H70.7607V123.63H70.8582C71.0074 123.263 71.386 123.051 71.8335 123.051H71.8736V123.676C71.7818 123.665 71.7417 123.665 71.6499 123.665C71.1508 123.665 70.7664 123.963 70.7664 124.588V125.971H70.1813ZM72.3592 125.971V123.102H72.9443V123.47H73.0419C73.2197 123.165 73.5237 123.016 73.8679 123.016C74.4588 123.016 74.8432 123.418 74.8432 124.066V125.971H74.258V124.244C74.258 123.854 74.0745 123.55 73.6385 123.55C73.214 123.55 72.9443 123.877 72.9443 124.244V125.971H72.3592ZM76.5578 127.061V126.59H77.0454C77.2634 126.59 77.3552 126.51 77.4355 126.292L77.5273 126.034L76.4259 123.102H77.0397L77.7625 125.259H77.86L78.6001 123.102H79.2081L77.86 126.579C77.7281 126.929 77.5388 127.061 77.1315 127.061H76.5578ZM80.8387 126.057C79.9782 126.057 79.3472 125.414 79.3472 124.537C79.3472 123.659 79.9782 123.016 80.8387 123.016C81.6934 123.016 82.3302 123.659 82.3302 124.537C82.3302 125.414 81.6934 126.057 80.8387 126.057ZM80.8387 125.529C81.355 125.529 81.7279 125.116 81.7279 124.537C81.7279 123.957 81.355 123.544 80.8387 123.544C80.3109 123.544 79.9495 123.957 79.9495 124.537C79.9495 125.116 80.3109 125.529 80.8387 125.529ZM84.1126 126.057C83.3496 126.057 82.8792 125.604 82.8792 124.818V123.102H83.4644V124.806C83.4644 125.219 83.6766 125.529 84.1126 125.529C84.5371 125.529 84.7494 125.219 84.7494 124.806V123.102H85.3345V124.818C85.3345 125.604 84.8698 126.057 84.1126 126.057ZM86.1114 125.971V123.102H86.6908V123.63H86.7883C86.9375 123.263 87.3161 123.051 87.7635 123.051H87.8037V123.676C87.7119 123.665 87.6718 123.665 87.58 123.665C87.0809 123.665 86.6965 123.963 86.6965 124.588V125.971H86.1114ZM90.6871 126.057C89.8725 126.057 89.2128 125.46 89.2128 124.537C89.2128 123.613 89.8725 123.016 90.6871 123.016C91.3812 123.016 91.9205 123.424 92.0582 124.083H91.4788C91.364 123.745 91.0887 123.544 90.6929 123.544C90.2052 123.544 89.8151 123.917 89.8151 124.531C89.8151 125.156 90.2052 125.529 90.6929 125.529C91.0887 125.529 91.3755 125.322 91.4902 124.967H92.0754C91.9434 125.627 91.4042 126.057 90.6871 126.057ZM92.6339 125.971V123.102H93.2133V123.63H93.3108C93.46 123.263 93.8386 123.051 94.286 123.051H94.3262V123.676C94.2344 123.665 94.1942 123.665 94.1025 123.665C93.6034 123.665 93.219 123.963 93.219 124.588V125.971H92.6339ZM95.9839 126.057C95.0948 126.057 94.5211 125.437 94.5211 124.531C94.5211 123.642 95.1177 123.016 95.9725 123.016C96.8502 123.016 97.3722 123.67 97.3722 124.537V124.634H95.089C95.112 125.191 95.4849 125.552 95.9839 125.552C96.3683 125.552 96.615 125.414 96.7354 125.145H97.332C97.1714 125.678 96.6609 126.057 95.9839 126.057ZM95.1062 124.238H96.7928C96.7412 123.791 96.4199 123.498 95.9725 123.498C95.5365 123.498 95.1808 123.768 95.1062 124.238ZM98.7789 126.057C98.2225 126.057 97.775 125.73 97.775 125.185C97.775 124.542 98.2971 124.347 98.9051 124.284L99.7542 124.192V124.037C99.7542 123.71 99.5304 123.498 99.1231 123.498C98.7502 123.498 98.5093 123.67 98.4405 123.963H97.8783C97.9471 123.418 98.4003 123.016 99.1231 123.016C99.8574 123.016 100.305 123.389 100.305 124.066V125.466C100.305 125.644 100.322 125.89 100.334 125.959V125.971H99.7599C99.7542 125.873 99.7542 125.753 99.7542 125.638H99.6566C99.4903 125.931 99.1575 126.057 98.7789 126.057ZM98.3716 125.15C98.3716 125.443 98.6068 125.609 98.9281 125.609C99.4501 125.609 99.7542 125.219 99.7542 124.835V124.594L99.0944 124.674C98.6412 124.726 98.3716 124.846 98.3716 125.15ZM101.727 125.994C101.428 125.994 101.256 125.816 101.256 125.506V123.55H100.717V123.102H101.268V122.328H101.824V123.102H102.53V123.55H101.83V125.328C101.83 125.472 101.887 125.529 102.036 125.529H102.53V125.994H101.727ZM103.088 125.971V123.102H103.673V125.971H103.088ZM103.082 122.638V122.012H103.679V122.638H103.082ZM105.084 125.971L104.131 123.102H104.751L105.474 125.489H105.565L106.283 123.102H106.885L105.921 125.971H105.084ZM107.337 125.971V123.102H107.922V125.971H107.337ZM107.331 122.638V122.012H107.928V122.638H107.331ZM109.402 125.994C109.103 125.994 108.931 125.816 108.931 125.506V123.55H108.392V123.102H108.943V122.328H109.499V123.102H110.205V123.55H109.505V125.328C109.505 125.472 109.562 125.529 109.712 125.529H110.205V125.994H109.402ZM110.511 127.061V126.59H110.998C111.216 126.59 111.308 126.51 111.388 126.292L111.48 126.034L110.379 123.102H110.992L111.715 125.259H111.813L112.553 123.102H113.161L111.813 126.579C111.681 126.929 111.491 127.061 111.084 127.061H110.511ZM114.76 125.971V123.102H115.345V125.971H114.76ZM114.754 122.638V122.012H115.351V122.638H114.754ZM116.159 125.971V123.102H116.745V123.47H116.842C117.02 123.165 117.324 123.016 117.668 123.016C118.259 123.016 118.643 123.418 118.643 124.066V125.971H118.058V124.244C118.058 123.854 117.875 123.55 117.439 123.55C117.014 123.55 116.745 123.877 116.745 124.244V125.971H116.159ZM120.073 125.994C119.774 125.994 119.602 125.816 119.602 125.506V123.55H119.063V123.102H119.614V122.328H120.17V123.102H120.876V123.55H120.176V125.328C120.176 125.472 120.233 125.529 120.383 125.529H120.876V125.994H120.073ZM122.646 126.057C121.785 126.057 121.154 125.414 121.154 124.537C121.154 123.659 121.785 123.016 122.646 123.016C123.501 123.016 124.137 123.659 124.137 124.537C124.137 125.414 123.501 126.057 122.646 126.057ZM122.646 125.529C123.162 125.529 123.535 125.116 123.535 124.537C123.535 123.957 123.162 123.544 122.646 123.544C122.118 123.544 121.757 123.957 121.757 124.537C121.757 125.116 122.118 125.529 122.646 125.529ZM65.3506 133.057C64.4615 133.057 63.8878 132.437 63.8878 131.531C63.8878 130.642 64.4844 130.016 65.3392 130.016C66.2169 130.016 66.7389 130.67 66.7389 131.537V131.634H64.4557C64.4787 132.191 64.8515 132.552 65.3506 132.552C65.735 132.552 65.9817 132.414 66.1021 132.145H66.6987C66.5381 132.678 66.0275 133.057 65.3506 133.057ZM64.4729 131.238H66.1595C66.1079 130.791 65.7866 130.498 65.3392 130.498C64.9032 130.498 64.5475 130.768 64.4729 131.238ZM68.1456 133.057C67.5892 133.057 67.1417 132.73 67.1417 132.185C67.1417 131.542 67.6637 131.347 68.2718 131.284L69.1208 131.192V131.037C69.1208 130.71 68.8971 130.498 68.4898 130.498C68.1169 130.498 67.876 130.67 67.8072 130.963H67.245C67.3138 130.418 67.767 130.016 68.4898 130.016C69.2241 130.016 69.6716 130.389 69.6716 131.066V132.466C69.6716 132.644 69.6888 132.89 69.7002 132.959V132.971H69.1266C69.1208 132.873 69.1208 132.753 69.1208 132.638H69.0233C68.857 132.931 68.5242 133.057 68.1456 133.057ZM67.7383 132.15C67.7383 132.443 67.9735 132.609 68.2948 132.609C68.8168 132.609 69.1208 132.219 69.1208 131.835V131.594L68.4611 131.674C68.0079 131.726 67.7383 131.846 67.7383 132.15ZM70.4502 132.971V130.102H71.0296V130.63H71.1271C71.2763 130.263 71.6549 130.051 72.1024 130.051H72.1425V130.676C72.0507 130.665 72.0106 130.665 71.9188 130.665C71.4197 130.665 71.0353 130.963 71.0353 131.588V132.971H70.4502ZM72.6281 132.971V130.102H73.2132V130.47H73.3108C73.4886 130.165 73.7926 130.016 74.1368 130.016C74.7277 130.016 75.1121 130.418 75.1121 131.066V132.971H74.5269V131.244C74.5269 130.854 74.3434 130.55 73.9074 130.55C73.4829 130.55 73.2132 130.877 73.2132 131.244V132.971H72.6281ZM75.8928 132.971V130.102H76.478V132.971H75.8928ZM75.8871 129.638V129.012H76.4837V129.638H75.8871ZM77.292 132.971V130.102H77.8772V130.47H77.9747C78.1525 130.165 78.4566 130.016 78.8008 130.016C79.3916 130.016 79.776 130.418 79.776 131.066V132.971H79.1908V131.244C79.1908 130.854 79.0073 130.55 78.5713 130.55C78.1468 130.55 77.8772 130.877 77.8772 131.244V132.971H77.292ZM80.8034 134.061V133.579H82.3925C82.6277 133.579 82.7137 133.487 82.7137 133.269V132.431H82.6162C82.4384 132.81 82.0655 132.965 81.6926 132.965C80.8837 132.965 80.3445 132.357 80.3445 131.514C80.3445 130.659 80.9354 130.016 81.75 130.016C82.1056 130.016 82.4326 130.165 82.6104 130.515H82.708V130.102H83.2587V133.401C83.2587 133.825 83.0292 134.061 82.5875 134.061H80.8034ZM81.8303 132.46C82.3351 132.46 82.7137 132.064 82.7137 131.491C82.7137 130.917 82.3351 130.527 81.8303 130.527C81.3025 130.527 80.9468 130.94 80.9468 131.491C80.9468 132.047 81.3025 132.46 81.8303 132.46ZM85.1119 133.057C84.4005 133.057 83.9015 132.713 83.8154 132.15H84.3948C84.4809 132.46 84.7792 132.586 85.1119 132.586C85.4446 132.586 85.7257 132.437 85.7257 132.179C85.7257 131.921 85.4905 131.835 85.1578 131.783L84.8308 131.726C84.2801 131.64 83.9129 131.416 83.9129 130.9C83.9129 130.366 84.3833 130.016 85.0488 130.016C85.6798 130.016 86.1273 130.309 86.2477 130.854H85.6855C85.5938 130.596 85.3643 130.475 85.0545 130.475C84.7161 130.475 84.4923 130.636 84.4923 130.854C84.4923 131.083 84.6644 131.158 85.0144 131.215L85.3413 131.273C85.8749 131.359 86.2936 131.577 86.2936 132.133C86.2936 132.701 85.7945 133.057 85.1119 133.057ZM88.5448 132.971L87.8851 130.102H88.476L88.975 132.489H89.0726L89.6061 130.102H90.501L91.0345 132.489H91.132L91.6311 130.102H92.2048L91.5221 132.971H90.6215L90.0937 130.584H89.9962L89.4684 132.971H88.5448ZM92.7305 132.971V130.102H93.3156V132.971H92.7305ZM92.7247 129.638V129.012H93.3213V129.638H92.7247ZM94.7951 132.994C94.4968 132.994 94.3247 132.816 94.3247 132.506V130.55H93.7855V130.102H94.3362V129.328H94.8926V130.102H95.5982V130.55H94.8984V132.328C94.8984 132.472 94.9557 132.529 95.1049 132.529H95.5982V132.994H94.7951ZM96.1563 132.971V129.012H96.7414V130.47H96.839C97.0168 130.165 97.3208 130.016 97.665 130.016C98.2559 130.016 98.6403 130.418 98.6403 131.066V132.971H98.0551V131.244C98.0551 130.854 97.8716 130.55 97.4356 130.55C97.0111 130.55 96.7414 130.877 96.7414 131.244V132.971H96.1563ZM101.976 133.057C101.116 133.057 100.485 132.414 100.485 131.537C100.485 130.659 101.116 130.016 101.976 130.016C102.831 130.016 103.468 130.659 103.468 131.537C103.468 132.414 102.831 133.057 101.976 133.057ZM101.976 132.529C102.492 132.529 102.865 132.116 102.865 131.537C102.865 130.957 102.492 130.544 101.976 130.544C101.448 130.544 101.087 130.957 101.087 131.537C101.087 132.116 101.448 132.529 101.976 132.529ZM104.063 132.971V130.102H104.648V130.47H104.745C104.923 130.165 105.227 130.016 105.571 130.016C106.162 130.016 106.546 130.418 106.546 131.066V132.971H105.961V131.244C105.961 130.854 105.778 130.55 105.342 130.55C104.917 130.55 104.648 130.877 104.648 131.244V132.971H104.063ZM108.584 133.057C107.769 133.057 107.109 132.46 107.109 131.537C107.109 130.613 107.769 130.016 108.584 130.016C109.278 130.016 109.817 130.424 109.955 131.083H109.375C109.26 130.745 108.985 130.544 108.589 130.544C108.102 130.544 107.712 130.917 107.712 131.531C107.712 132.156 108.102 132.529 108.589 132.529C108.985 132.529 109.272 132.322 109.387 131.967H109.972C109.84 132.627 109.301 133.057 108.584 133.057ZM110.53 132.971V129.012H111.115V130.47H111.213C111.391 130.165 111.695 130.016 112.039 130.016C112.63 130.016 113.014 130.418 113.014 131.066V132.971H112.429V131.244C112.429 130.854 112.246 130.55 111.81 130.55C111.385 130.55 111.115 130.877 111.115 131.244V132.971H110.53ZM114.604 133.057C114.047 133.057 113.6 132.73 113.6 132.185C113.6 131.542 114.122 131.347 114.73 131.284L115.579 131.192V131.037C115.579 130.71 115.355 130.498 114.948 130.498C114.575 130.498 114.334 130.67 114.265 130.963H113.703C113.772 130.418 114.225 130.016 114.948 130.016C115.682 130.016 116.13 130.389 116.13 131.066V132.466C116.13 132.644 116.147 132.89 116.159 132.959V132.971H115.585C115.579 132.873 115.579 132.753 115.579 132.638H115.482C115.315 132.931 114.983 133.057 114.604 133.057ZM114.197 132.15C114.197 132.443 114.432 132.609 114.753 132.609C115.275 132.609 115.579 132.219 115.579 131.835V131.594L114.919 131.674C114.466 131.726 114.197 131.846 114.197 132.15ZM116.909 132.971V130.102H117.494V132.971H116.909ZM116.903 129.638V129.012H117.499V129.638H116.903ZM118.308 132.971V130.102H118.893V130.47H118.99C119.168 130.165 119.472 130.016 119.816 130.016C120.407 130.016 120.792 130.418 120.792 131.066V132.971H120.207V131.244C120.207 130.854 120.023 130.55 119.587 130.55C119.162 130.55 118.893 130.877 118.893 131.244V132.971H118.308ZM123.892 133.057C123.181 133.057 122.682 132.713 122.596 132.15H123.175C123.261 132.46 123.56 132.586 123.892 132.586C124.225 132.586 124.506 132.437 124.506 132.179C124.506 131.921 124.271 131.835 123.938 131.783L123.611 131.726C123.061 131.64 122.693 131.416 122.693 130.9C122.693 130.366 123.164 130.016 123.829 130.016C124.46 130.016 124.908 130.309 125.028 130.854H124.466C124.374 130.596 124.145 130.475 123.835 130.475C123.496 130.475 123.273 130.636 123.273 130.854C123.273 131.083 123.445 131.158 123.795 131.215L124.122 131.273C124.655 131.359 125.074 131.577 125.074 132.133C125.074 132.701 124.575 133.057 123.892 133.057ZM126.933 133.057C126.072 133.057 125.441 132.414 125.441 131.537C125.441 130.659 126.072 130.016 126.933 130.016C127.788 130.016 128.424 130.659 128.424 131.537C128.424 132.414 127.788 133.057 126.933 133.057ZM126.933 132.529C127.449 132.529 127.822 132.116 127.822 131.537C127.822 130.957 127.449 130.544 126.933 130.544C126.405 130.544 126.044 130.957 126.044 131.537C126.044 132.116 126.405 132.529 126.933 132.529ZM130.276 133.057C129.461 133.057 128.801 132.46 128.801 131.537C128.801 130.613 129.461 130.016 130.276 130.016C130.97 130.016 131.509 130.424 131.647 131.083H131.067C130.953 130.745 130.677 130.544 130.281 130.544C129.794 130.544 129.404 130.917 129.404 131.531C129.404 132.156 129.794 132.529 130.281 132.529C130.677 132.529 130.964 132.322 131.079 131.967H131.664C131.532 132.627 130.993 133.057 130.276 133.057ZM132.222 132.971V130.102H132.808V132.971H132.222ZM132.217 129.638V129.012H132.813V129.638H132.217ZM134.43 133.057C133.874 133.057 133.427 132.73 133.427 132.185C133.427 131.542 133.949 131.347 134.557 131.284L135.406 131.192V131.037C135.406 130.71 135.182 130.498 134.775 130.498C134.402 130.498 134.161 130.67 134.092 130.963H133.53C133.599 130.418 134.052 130.016 134.775 130.016C135.509 130.016 135.956 130.389 135.956 131.066V132.466C135.956 132.644 135.974 132.89 135.985 132.959V132.971H135.411C135.406 132.873 135.406 132.753 135.406 132.638H135.308C135.142 132.931 134.809 133.057 134.43 133.057ZM134.023 132.15C134.023 132.443 134.258 132.609 134.58 132.609C135.102 132.609 135.406 132.219 135.406 131.835V131.594L134.746 131.674C134.293 131.726 134.023 131.846 134.023 132.15ZM136.735 132.971V129.012H137.32V132.971H136.735Z" fill="white"/>
<rect x="162.57" y="87.0801" width="100.773" height="53.1593" rx="1.52976" fill="#0000FF"/>
<path d="M170.353 97.3732C169.222 97.3732 168.368 96.5184 168.368 95.3137C168.368 94.1148 169.222 93.2428 170.37 93.2428C171.305 93.2428 171.993 93.7763 172.2 94.6196H171.551C171.379 94.1262 170.972 93.7992 170.375 93.7992C169.561 93.7992 169.01 94.4417 169.01 95.308C169.01 96.1627 169.561 96.8167 170.375 96.8167C171.115 96.8167 171.597 96.3578 171.643 95.721H170.416V95.2047H172.269V95.5547C172.269 96.6618 171.431 97.3732 170.353 97.3732ZM174.159 97.3732C173.27 97.3732 172.696 96.7536 172.696 95.8472C172.696 94.958 173.293 94.3328 174.147 94.3328C175.025 94.3328 175.547 94.9867 175.547 95.853V95.9505H173.264C173.287 96.5069 173.66 96.8683 174.159 96.8683C174.543 96.8683 174.79 96.7307 174.91 96.461H175.507C175.346 96.9945 174.836 97.3732 174.159 97.3732ZM173.281 95.5547H174.968C174.916 95.1072 174.595 94.8146 174.147 94.8146C173.711 94.8146 173.356 95.0842 173.281 95.5547ZM176.783 97.3101C176.484 97.3101 176.312 97.1322 176.312 96.8224V94.8663H175.773V94.4188H176.324V93.6444H176.88V94.4188H177.586V94.8663H176.886V96.6446C176.886 96.788 176.943 96.8454 177.092 96.8454H177.586V97.3101H176.783ZM180.018 97.3101C179.72 97.3101 179.547 97.1322 179.547 96.8224V94.8663H179.008V94.4188H179.559V93.6444H180.115V94.4188H180.821V94.8663H180.121V96.6446C180.121 96.788 180.178 96.8454 180.328 96.8454H180.821V97.3101H180.018ZM181.379 97.2871V93.3288H181.964V94.7859H182.062C182.24 94.4819 182.544 94.3328 182.888 94.3328C183.479 94.3328 183.863 94.7343 183.863 95.3826V97.2871H183.278V95.5604C183.278 95.1703 183.094 94.8663 182.658 94.8663C182.234 94.8663 181.964 95.1932 181.964 95.5604V97.2871H181.379ZM185.894 97.3732C185.005 97.3732 184.432 96.7536 184.432 95.8472C184.432 94.958 185.028 94.3328 185.883 94.3328C186.761 94.3328 187.283 94.9867 187.283 95.853V95.9505H184.999C185.022 96.5069 185.395 96.8683 185.894 96.8683C186.279 96.8683 186.525 96.7307 186.646 96.461H187.242C187.082 96.9945 186.571 97.3732 185.894 97.3732ZM185.017 95.5547H186.703C186.652 95.1072 186.33 94.8146 185.883 94.8146C185.447 94.8146 185.091 95.0842 185.017 95.5547ZM190.413 97.3732C189.523 97.3732 188.95 96.7536 188.95 95.8472C188.95 94.958 189.546 94.3328 190.401 94.3328C191.279 94.3328 191.801 94.9867 191.801 95.853V95.9505H189.518C189.541 96.5069 189.914 96.8683 190.413 96.8683C190.797 96.8683 191.044 96.7307 191.164 96.461H191.761C191.6 96.9945 191.09 97.3732 190.413 97.3732ZM189.535 95.5547H191.221C191.17 95.1072 190.849 94.8146 190.401 94.8146C189.965 94.8146 189.609 95.0842 189.535 95.5547ZM193.517 97.3732C192.726 97.3732 192.186 96.7421 192.186 95.8759C192.186 94.9925 192.766 94.3328 193.546 94.3328C193.919 94.3328 194.257 94.4876 194.435 94.8318H194.527V93.3288H195.112V97.2871H194.527V96.8798H194.435C194.252 97.2125 193.89 97.3732 193.517 97.3732ZM193.661 96.8511C194.16 96.8511 194.533 96.4438 194.533 95.853C194.533 95.2621 194.16 94.8548 193.661 94.8548C193.139 94.8548 192.789 95.285 192.789 95.853C192.789 96.4209 193.144 96.8511 193.661 96.8511ZM196.173 98.3771V97.8952H197.762C197.998 97.8952 198.084 97.8034 198.084 97.5854V96.7479H197.986C197.808 97.1265 197.435 97.2814 197.063 97.2814C196.254 97.2814 195.715 96.6733 195.715 95.83C195.715 94.9753 196.305 94.3328 197.12 94.3328C197.476 94.3328 197.803 94.4819 197.98 94.8318H198.078V94.4188H198.629V97.7174C198.629 98.1419 198.399 98.3771 197.958 98.3771H196.173ZM197.2 96.7766C197.705 96.7766 198.084 96.3807 198.084 95.8071C198.084 95.2334 197.705 94.8433 197.2 94.8433C196.673 94.8433 196.317 95.2563 196.317 95.8071C196.317 96.3635 196.673 96.7766 197.2 96.7766ZM200.694 97.3732C199.805 97.3732 199.231 96.7536 199.231 95.8472C199.231 94.958 199.828 94.3328 200.683 94.3328C201.56 94.3328 202.082 94.9867 202.082 95.853V95.9505H199.799C199.822 96.5069 200.195 96.8683 200.694 96.8683C201.079 96.8683 201.325 96.7307 201.446 96.461H202.042C201.882 96.9945 201.371 97.3732 200.694 97.3732ZM199.816 95.5547H201.503C201.451 95.1072 201.13 94.8146 200.683 94.8146C200.247 94.8146 199.891 95.0842 199.816 95.5547ZM202.561 97.2871V96.5528H203.283V97.2871H202.561Z" fill="white"/>
<path d="M169.567 125.971V122.557H168.19V122.012H171.557V122.557H170.18V125.971H169.567ZM171.424 125.971V123.102H172.003V123.63H172.101C172.25 123.263 172.628 123.051 173.076 123.051H173.116V123.676C173.024 123.665 172.984 123.665 172.892 123.665C172.393 123.665 172.009 123.963 172.009 124.588V125.971H171.424ZM174.31 126.057C173.753 126.057 173.306 125.73 173.306 125.185C173.306 124.542 173.828 124.347 174.436 124.284L175.285 124.192V124.037C175.285 123.71 175.061 123.498 174.654 123.498C174.281 123.498 174.04 123.67 173.971 123.963H173.409C173.478 123.418 173.931 123.016 174.654 123.016C175.388 123.016 175.836 123.389 175.836 124.066V125.466C175.836 125.644 175.853 125.89 175.864 125.959V125.971H175.291C175.285 125.873 175.285 125.753 175.285 125.638H175.187C175.021 125.931 174.688 126.057 174.31 126.057ZM173.902 125.15C173.902 125.443 174.138 125.609 174.459 125.609C174.981 125.609 175.285 125.219 175.285 124.835V124.594L174.625 124.674C174.172 124.726 173.902 124.846 173.902 125.15ZM177.871 126.057C177.056 126.057 176.396 125.46 176.396 124.537C176.396 123.613 177.056 123.016 177.871 123.016C178.565 123.016 179.104 123.424 179.242 124.083H178.662C178.548 123.745 178.272 123.544 177.876 123.544C177.389 123.544 176.999 123.917 176.999 124.531C176.999 125.156 177.389 125.529 177.876 125.529C178.272 125.529 178.559 125.322 178.674 124.967H179.259C179.127 125.627 178.588 126.057 177.871 126.057ZM179.817 125.971V122.012H180.403V124.336H180.5L181.619 123.102H182.313L180.993 124.485L182.382 125.971H181.67L180.5 124.72H180.403V125.971H179.817ZM182.62 126.751L182.981 125.971H182.637V125.236H183.36V125.971L182.999 126.751H182.62ZM186 126.057C185.444 126.057 184.996 125.73 184.996 125.185C184.996 124.542 185.518 124.347 186.127 124.284L186.976 124.192V124.037C186.976 123.71 186.752 123.498 186.344 123.498C185.972 123.498 185.731 123.67 185.662 123.963H185.1C185.168 123.418 185.622 123.016 186.344 123.016C187.079 123.016 187.526 123.389 187.526 124.066V125.466C187.526 125.644 187.543 125.89 187.555 125.959V125.971H186.981C186.976 125.873 186.976 125.753 186.976 125.638H186.878C186.712 125.931 186.379 126.057 186 126.057ZM185.593 125.15C185.593 125.443 185.828 125.609 186.149 125.609C186.671 125.609 186.976 125.219 186.976 124.835V124.594L186.316 124.674C185.863 124.726 185.593 124.846 185.593 125.15ZM188.305 125.971V123.102H188.89V123.47H188.988C189.165 123.165 189.469 123.016 189.814 123.016C190.405 123.016 190.789 123.418 190.789 124.066V125.971H190.204V124.244C190.204 123.854 190.02 123.55 189.584 123.55C189.16 123.55 188.89 123.877 188.89 124.244V125.971H188.305ZM192.378 126.057C191.822 126.057 191.375 125.73 191.375 125.185C191.375 124.542 191.897 124.347 192.505 124.284L193.354 124.192V124.037C193.354 123.71 193.13 123.498 192.723 123.498C192.35 123.498 192.109 123.67 192.04 123.963H191.478C191.547 123.418 192 123.016 192.723 123.016C193.457 123.016 193.904 123.389 193.904 124.066V125.466C193.904 125.644 193.922 125.89 193.933 125.959V125.971H193.359C193.354 125.873 193.354 125.753 193.354 125.638H193.256C193.09 125.931 192.757 126.057 192.378 126.057ZM191.971 125.15C191.971 125.443 192.206 125.609 192.528 125.609C193.05 125.609 193.354 125.219 193.354 124.835V124.594L192.694 124.674C192.241 124.726 191.971 124.846 191.971 125.15ZM194.683 125.971V122.012H195.268V125.971H194.683ZM195.83 127.061V126.59H196.317C196.535 126.59 196.627 126.51 196.708 126.292L196.799 126.034L195.698 123.102H196.312L197.035 125.259H197.132L197.872 123.102H198.48L197.132 126.579C197 126.929 196.811 127.061 196.404 127.061H195.83ZM198.681 125.971V125.368L200.321 123.67V123.579H198.738V123.102H200.987V123.699L199.346 125.403V125.489H201.05V125.971H198.681ZM202.826 126.057C201.937 126.057 201.363 125.437 201.363 124.531C201.363 123.642 201.96 123.016 202.814 123.016C203.692 123.016 204.214 123.67 204.214 124.537V124.634H201.931C201.954 125.191 202.327 125.552 202.826 125.552C203.21 125.552 203.457 125.414 203.577 125.145H204.174C204.013 125.678 203.503 126.057 202.826 126.057ZM201.948 124.238H203.635C203.583 123.791 203.262 123.498 202.814 123.498C202.378 123.498 202.023 123.768 201.948 124.238ZM204.658 126.751L205.019 125.971H204.675V125.236H205.398V125.971L205.037 126.751H204.658ZM208.038 126.057C207.482 126.057 207.034 125.73 207.034 125.185C207.034 124.542 207.556 124.347 208.165 124.284L209.014 124.192V124.037C209.014 123.71 208.79 123.498 208.383 123.498C208.01 123.498 207.769 123.67 207.7 123.963H207.138C207.207 123.418 207.66 123.016 208.383 123.016C209.117 123.016 209.564 123.389 209.564 124.066V125.466C209.564 125.644 209.581 125.89 209.593 125.959V125.971H209.019C209.014 125.873 209.014 125.753 209.014 125.638H208.916C208.75 125.931 208.417 126.057 208.038 126.057ZM207.631 125.15C207.631 125.443 207.866 125.609 208.187 125.609C208.71 125.609 209.014 125.219 209.014 124.835V124.594L208.354 124.674C207.901 124.726 207.631 124.846 207.631 125.15ZM210.343 125.971V123.102H210.928V123.47H211.026C211.203 123.165 211.507 123.016 211.852 123.016C212.443 123.016 212.827 123.418 212.827 124.066V125.971H212.242V124.244C212.242 123.854 212.058 123.55 211.622 123.55C211.198 123.55 210.928 123.877 210.928 124.244V125.971H210.343ZM214.726 126.057C213.935 126.057 213.395 125.426 213.395 124.559C213.395 123.676 213.975 123.016 214.755 123.016C215.128 123.016 215.466 123.171 215.644 123.515H215.736V122.012H216.321V125.971H215.736V125.563H215.644C215.461 125.896 215.099 126.057 214.726 126.057ZM214.87 125.535C215.369 125.535 215.742 125.127 215.742 124.537C215.742 123.946 215.369 123.538 214.87 123.538C214.348 123.538 213.998 123.969 213.998 124.537C213.998 125.104 214.353 125.535 214.87 125.535ZM219.983 126.057C219.628 126.057 219.278 125.913 219.1 125.569H219.002V125.971H218.417V122.012H219.002V123.527H219.1C219.278 123.177 219.639 123.016 220.012 123.016C220.809 123.016 221.349 123.647 221.349 124.514C221.349 125.397 220.769 126.057 219.983 126.057ZM219.869 125.535C220.391 125.535 220.746 125.104 220.746 124.537C220.746 123.969 220.385 123.538 219.869 123.538C219.369 123.538 218.997 123.946 218.997 124.537C218.997 125.127 219.369 125.535 219.869 125.535ZM223.133 126.057C222.37 126.057 221.899 125.604 221.899 124.818V123.102H222.484V124.806C222.484 125.219 222.697 125.529 223.133 125.529C223.557 125.529 223.769 125.219 223.769 124.806V123.102H224.355V124.818C224.355 125.604 223.89 126.057 223.133 126.057ZM224.879 127.061V126.59H225.367C225.585 126.59 225.676 126.51 225.757 126.292L225.849 126.034L224.747 123.102H225.361L226.084 125.259H226.181L226.921 123.102H227.529L226.181 126.579C226.049 126.929 225.86 127.061 225.453 127.061H224.879ZM229.129 125.971V123.102H229.714V123.47H229.811C229.984 123.171 230.276 123.016 230.638 123.016C231.01 123.016 231.303 123.183 231.458 123.481H231.561C231.75 123.183 232.037 123.016 232.445 123.016C233.076 123.016 233.471 123.429 233.471 124.083V125.971H232.886V124.233C232.886 123.848 232.714 123.55 232.278 123.55C231.871 123.55 231.59 123.854 231.59 124.204V125.971H231.005V124.244C231.005 123.86 230.827 123.55 230.391 123.55C229.984 123.55 229.714 123.871 229.714 124.227V125.971H229.129ZM234.253 125.971V123.102H234.839V125.971H234.253ZM234.248 122.638V122.012H234.844V122.638H234.248ZM235.653 125.971V122.012H236.238V125.971H235.653ZM237.052 125.971V122.012H237.637V125.971H237.052ZM238.451 125.971V123.102H239.036V125.971H238.451ZM238.445 122.638V122.012H239.042V122.638H238.445ZM241.124 126.057C240.263 126.057 239.632 125.414 239.632 124.537C239.632 123.659 240.263 123.016 241.124 123.016C241.978 123.016 242.615 123.659 242.615 124.537C242.615 125.414 241.978 126.057 241.124 126.057ZM241.124 125.529C241.64 125.529 242.013 125.116 242.013 124.537C242.013 123.957 241.64 123.544 241.124 123.544C240.596 123.544 240.235 123.957 240.235 124.537C240.235 125.116 240.596 125.529 241.124 125.529ZM243.21 125.971V123.102H243.795V123.47H243.893C244.071 123.165 244.375 123.016 244.719 123.016C245.31 123.016 245.694 123.418 245.694 124.066V125.971H245.109V124.244C245.109 123.854 244.925 123.55 244.489 123.55C244.065 123.55 243.795 123.877 243.795 124.244V125.971H243.21ZM247.513 126.057C246.802 126.057 246.303 125.713 246.217 125.15H246.796C246.882 125.46 247.18 125.586 247.513 125.586C247.846 125.586 248.127 125.437 248.127 125.179C248.127 124.921 247.892 124.835 247.559 124.783L247.232 124.726C246.681 124.64 246.314 124.416 246.314 123.9C246.314 123.366 246.785 123.016 247.45 123.016C248.081 123.016 248.529 123.309 248.649 123.854H248.087C247.995 123.596 247.766 123.475 247.456 123.475C247.117 123.475 246.894 123.636 246.894 123.854C246.894 124.083 247.066 124.158 247.416 124.215L247.743 124.273C248.276 124.359 248.695 124.577 248.695 125.133C248.695 125.701 248.196 126.057 247.513 126.057ZM169.825 133.057C168.964 133.057 168.333 132.414 168.333 131.537C168.333 130.659 168.964 130.016 169.825 130.016C170.68 130.016 171.316 130.659 171.316 131.537C171.316 132.414 170.68 133.057 169.825 133.057ZM169.825 132.529C170.341 132.529 170.714 132.116 170.714 131.537C170.714 130.957 170.341 130.544 169.825 130.544C169.297 130.544 168.936 130.957 168.936 131.537C168.936 132.116 169.297 132.529 169.825 132.529ZM172.067 132.971V130.55H171.545V130.102H172.067V129.5C172.067 129.185 172.256 128.995 172.566 128.995H173.323V129.454H172.836C172.692 129.454 172.629 129.517 172.629 129.666V130.102H173.323V130.55H172.635V132.971H172.067ZM175.526 132.994C175.228 132.994 175.056 132.816 175.056 132.506V130.55H174.517V130.102H175.067V129.328H175.624V130.102H176.329V130.55H175.63V132.328C175.63 132.472 175.687 132.529 175.836 132.529H176.329V132.994H175.526ZM178.099 133.057C177.239 133.057 176.608 132.414 176.608 131.537C176.608 130.659 177.239 130.016 178.099 130.016C178.954 130.016 179.591 130.659 179.591 131.537C179.591 132.414 178.954 133.057 178.099 133.057ZM178.099 132.529C178.616 132.529 178.989 132.116 178.989 131.537C178.989 130.957 178.616 130.544 178.099 130.544C177.572 130.544 177.21 130.957 177.21 131.537C177.21 132.116 177.572 132.529 178.099 132.529ZM180.186 132.971V129.012H180.771V131.336H180.868L181.987 130.102H182.681L181.362 131.485L182.75 132.971H182.039L180.868 131.72H180.771V132.971H180.186ZM184.208 133.057C183.319 133.057 182.745 132.437 182.745 131.531C182.745 130.642 183.342 130.016 184.197 130.016C185.074 130.016 185.596 130.67 185.596 131.537V131.634H183.313C183.336 132.191 183.709 132.552 184.208 132.552C184.592 132.552 184.839 132.414 184.96 132.145H185.556C185.396 132.678 184.885 133.057 184.208 133.057ZM183.33 131.238H185.017C184.965 130.791 184.644 130.498 184.197 130.498C183.761 130.498 183.405 130.768 183.33 131.238ZM186.194 132.971V130.102H186.779V130.47H186.877C187.055 130.165 187.359 130.016 187.703 130.016C188.294 130.016 188.678 130.418 188.678 131.066V132.971H188.093V131.244C188.093 130.854 187.909 130.55 187.473 130.55C187.049 130.55 186.779 130.877 186.779 131.244V132.971H186.194ZM190.497 133.057C189.786 133.057 189.287 132.713 189.201 132.15H189.78C189.866 132.46 190.165 132.586 190.497 132.586C190.83 132.586 191.111 132.437 191.111 132.179C191.111 131.921 190.876 131.835 190.543 131.783L190.216 131.726C189.665 131.64 189.298 131.416 189.298 130.9C189.298 130.366 189.769 130.016 190.434 130.016C191.065 130.016 191.513 130.309 191.633 130.854H191.071C190.979 130.596 190.75 130.475 190.44 130.475C190.101 130.475 189.878 130.636 189.878 130.854C189.878 131.083 190.05 131.158 190.4 131.215L190.727 131.273C191.26 131.359 191.679 131.577 191.679 132.133C191.679 132.701 191.18 133.057 190.497 133.057ZM193.546 132.971V130.102H194.131V132.971H193.546ZM193.54 129.638V129.012H194.137V129.638H193.54ZM194.945 132.971V130.102H195.53V130.47H195.628C195.806 130.165 196.11 130.016 196.454 130.016C197.045 130.016 197.429 130.418 197.429 131.066V132.971H196.844V131.244C196.844 130.854 196.66 130.55 196.224 130.55C195.8 130.55 195.53 130.877 195.53 131.244V132.971H194.945ZM199.491 132.971V130.102H200.071V130.63H200.168C200.317 130.263 200.696 130.051 201.143 130.051H201.184V130.676C201.092 130.665 201.052 130.665 200.96 130.665C200.461 130.665 200.076 130.963 200.076 131.588V132.971H199.491ZM202.841 133.057C201.952 133.057 201.379 132.437 201.379 131.531C201.379 130.642 201.975 130.016 202.83 130.016C203.708 130.016 204.23 130.67 204.23 131.537V131.634H201.946C201.969 132.191 202.342 132.552 202.841 132.552C203.226 132.552 203.472 132.414 203.593 132.145H204.189C204.029 132.678 203.518 133.057 202.841 133.057ZM201.964 131.238H203.65C203.599 130.791 203.277 130.498 202.83 130.498C202.394 130.498 202.038 130.768 201.964 131.238ZM205.636 133.057C205.08 133.057 204.632 132.73 204.632 132.185C204.632 131.542 205.154 131.347 205.763 131.284L206.612 131.192V131.037C206.612 130.71 206.388 130.498 205.981 130.498C205.608 130.498 205.367 130.67 205.298 130.963H204.736C204.805 130.418 205.258 130.016 205.981 130.016C206.715 130.016 207.162 130.389 207.162 131.066V132.466C207.162 132.644 207.179 132.89 207.191 132.959V132.971H206.617C206.612 132.873 206.612 132.753 206.612 132.638H206.514C206.348 132.931 206.015 133.057 205.636 133.057ZM205.229 132.15C205.229 132.443 205.464 132.609 205.785 132.609C206.308 132.609 206.612 132.219 206.612 131.835V131.594L205.952 131.674C205.499 131.726 205.229 131.846 205.229 132.15ZM207.941 132.971V129.012H208.526V132.971H207.941ZM209.197 131.703V131.164H210.86V131.703H209.197ZM212.043 132.994C211.745 132.994 211.573 132.816 211.573 132.506V130.55H211.034V130.102H211.584V129.328H212.141V130.102H212.847V130.55H212.147V132.328C212.147 132.472 212.204 132.529 212.353 132.529H212.847V132.994H212.043ZM213.405 132.971V130.102H213.99V132.971H213.405ZM213.399 129.638V129.012H213.995V129.638H213.399ZM214.804 132.971V130.102H215.389V130.47H215.486C215.659 130.171 215.951 130.016 216.313 130.016C216.685 130.016 216.978 130.183 217.133 130.481H217.236C217.425 130.183 217.712 130.016 218.12 130.016C218.751 130.016 219.146 130.429 219.146 131.083V132.971H218.561V131.233C218.561 130.848 218.389 130.55 217.953 130.55C217.546 130.55 217.265 130.854 217.265 131.204V132.971H216.68V131.244C216.68 130.86 216.502 130.55 216.066 130.55C215.659 130.55 215.389 130.871 215.389 131.227V132.971H214.804ZM221.179 133.057C220.29 133.057 219.716 132.437 219.716 131.531C219.716 130.642 220.313 130.016 221.168 130.016C222.045 130.016 222.567 130.67 222.567 131.537V131.634H220.284C220.307 132.191 220.68 132.552 221.179 132.552C221.563 132.552 221.81 132.414 221.931 132.145H222.527C222.367 132.678 221.856 133.057 221.179 133.057ZM220.301 131.238H221.988C221.936 130.791 221.615 130.498 221.168 130.498C220.732 130.498 220.376 130.768 220.301 131.238Z" fill="white"/>
<rect x="58.1172" y="143.922" width="100.773" height="53.1593" rx="1.52976" fill="#0000FF"/>
<path d="M64.1631 154.129V150.171H65.9587C66.6815 150.171 67.2036 150.601 67.2036 151.318C67.2036 152.035 66.6758 152.482 65.9587 152.482H64.7712V154.129H64.1631ZM64.7598 151.943H65.9071C66.3201 151.943 66.5897 151.72 66.5897 151.341C66.5897 150.945 66.3201 150.71 65.9071 150.71H64.7598V151.943ZM68.4201 154.215C67.8637 154.215 67.4162 153.888 67.4162 153.343C67.4162 152.7 67.9382 152.505 68.5463 152.442L69.3953 152.351V152.196C69.3953 151.869 69.1716 151.656 68.7643 151.656C68.3914 151.656 68.1505 151.829 68.0817 152.121H67.5195C67.5883 151.576 68.0415 151.175 68.7643 151.175C69.4986 151.175 69.9461 151.547 69.9461 152.224V153.624C69.9461 153.802 69.9633 154.049 69.9747 154.117V154.129H69.4011C69.3953 154.031 69.3953 153.911 69.3953 153.796H69.2978C69.1315 154.089 68.7987 154.215 68.4201 154.215ZM68.0128 153.309C68.0128 153.601 68.248 153.767 68.5693 153.767C69.0913 153.767 69.3953 153.377 69.3953 152.993V152.752L68.7356 152.832C68.2824 152.884 68.0128 153.005 68.0128 153.309ZM70.4331 155.219V154.748H70.9207C71.1387 154.748 71.2305 154.668 71.3108 154.45L71.4026 154.192L70.3011 151.261H70.915L71.6378 153.418H71.7353L72.4753 151.261H73.0834L71.7353 154.737C71.6034 155.087 71.4141 155.219 71.0068 155.219H70.4331ZM74.6828 154.129V151.261H75.2679V154.129H74.6828ZM74.677 150.796V150.171H75.2736V150.796H74.677ZM76.082 154.129V151.261H76.6671V151.628H76.7646C76.9424 151.324 77.2465 151.175 77.5907 151.175C78.1816 151.175 78.5659 151.576 78.5659 152.224V154.129H77.9808V152.402C77.9808 152.012 77.7972 151.708 77.3612 151.708C76.9367 151.708 76.6671 152.035 76.6671 152.402V154.129H76.082ZM81.9018 154.215C81.0413 154.215 80.4102 153.572 80.4102 152.695C80.4102 151.817 81.0413 151.175 81.9018 151.175C82.7565 151.175 83.3933 151.817 83.3933 152.695C83.3933 153.572 82.7565 154.215 81.9018 154.215ZM81.9018 153.687C82.418 153.687 82.7909 153.274 82.7909 152.695C82.7909 152.115 82.418 151.702 81.9018 151.702C81.374 151.702 81.0126 152.115 81.0126 152.695C81.0126 153.274 81.374 153.687 81.9018 153.687ZM83.9882 154.129V151.261H84.5733V151.628H84.6708C84.8487 151.324 85.1527 151.175 85.4969 151.175C86.0878 151.175 86.4721 151.576 86.4721 152.224V154.129H85.887V152.402C85.887 152.012 85.7034 151.708 85.2674 151.708C84.8429 151.708 84.5733 152.035 84.5733 152.402V154.129H83.9882ZM88.5035 154.215C87.6143 154.215 87.0406 153.595 87.0406 152.689C87.0406 151.8 87.6373 151.175 88.492 151.175C89.3697 151.175 89.8917 151.829 89.8917 152.695V152.792H87.6086C87.6315 153.349 88.0044 153.71 88.5035 153.71C88.8878 153.71 89.1345 153.572 89.255 153.303H89.8516C89.691 153.836 89.1804 154.215 88.5035 154.215ZM87.6258 152.396H89.3123C89.2607 151.949 88.9395 151.656 88.492 151.656C88.056 151.656 87.7004 151.926 87.6258 152.396ZM92.3638 154.152C92.0655 154.152 91.8934 153.974 91.8934 153.664V151.708H91.3541V151.261H91.9048V150.486H92.4613V151.261H93.1669V151.708H92.467V153.486C92.467 153.63 92.5244 153.687 92.6736 153.687H93.1669V154.152H92.3638ZM94.5338 154.215C93.9774 154.215 93.5299 153.888 93.5299 153.343C93.5299 152.7 94.052 152.505 94.66 152.442L95.5091 152.351V152.196C95.5091 151.869 95.2853 151.656 94.878 151.656C94.5051 151.656 94.2642 151.829 94.1954 152.121H93.6332C93.702 151.576 94.1552 151.175 94.878 151.175C95.6123 151.175 96.0598 151.547 96.0598 152.224V153.624C96.0598 153.802 96.077 154.049 96.0885 154.117V154.129H95.5148C95.5091 154.031 95.5091 153.911 95.5091 153.796H95.4115C95.2452 154.089 94.9124 154.215 94.5338 154.215ZM94.1265 153.309C94.1265 153.601 94.3617 153.767 94.683 153.767C95.205 153.767 95.5091 153.377 95.5091 152.993V152.752L94.8493 152.832C94.3962 152.884 94.1265 153.005 94.1265 153.309ZM98.4332 151.175C99.2249 151.175 99.7641 151.806 99.7641 152.672C99.7641 153.555 99.1847 154.215 98.4045 154.215C98.0316 154.215 97.6932 154.06 97.5153 153.716H97.4236V155.219H96.8384V151.261H97.4236V151.668H97.5153C97.6989 151.335 98.0603 151.175 98.4332 151.175ZM98.2898 151.697C97.7907 151.697 97.4178 152.104 97.4178 152.695C97.4178 153.286 97.7907 153.693 98.2898 153.693C98.8118 153.693 99.1618 153.263 99.1618 152.695C99.1618 152.127 98.8061 151.697 98.2898 151.697ZM100.185 154.129V153.395H100.908V154.129H100.185Z" fill="white"/>
<path d="M65.4539 182.899C64.5418 182.899 63.9681 182.422 63.8534 181.74H64.4729C64.6106 182.199 65.0122 182.371 65.4539 182.371C65.9415 182.371 66.2742 182.118 66.2742 181.768C66.2742 181.396 66.0218 181.235 65.5055 181.12L65.0351 181.011C64.5016 180.891 63.991 180.592 63.991 179.921C63.991 179.267 64.5532 178.768 65.3736 178.768C66.2054 178.768 66.6815 179.204 66.8249 179.875H66.2111C66.0907 179.48 65.8096 179.29 65.3793 179.29C64.886 179.29 64.6049 179.548 64.6049 179.87C64.6049 180.208 64.8401 180.357 65.3334 180.472L65.7981 180.587C66.3603 180.719 66.8995 180.994 66.8995 181.711C66.8995 182.399 66.3259 182.899 65.4539 182.899ZM68.7666 182.899C67.8774 182.899 67.3038 182.279 67.3038 181.373C67.3038 180.483 67.9004 179.858 68.7551 179.858C69.6328 179.858 70.1549 180.512 70.1549 181.378V181.476H67.8717C67.8946 182.032 68.2675 182.394 68.7666 182.394C69.151 182.394 69.3976 182.256 69.5181 181.986H70.1147C69.9541 182.52 69.4435 182.899 68.7666 182.899ZM67.8889 181.08H69.5755C69.5238 180.633 69.2026 180.34 68.7551 180.34C68.3191 180.34 67.9635 180.61 67.8889 181.08ZM70.7527 182.812V179.944H71.3379V180.311H71.4354C71.6132 180.007 71.9173 179.858 72.2615 179.858C72.8523 179.858 73.2367 180.26 73.2367 180.908V182.812H72.6515V181.086C72.6515 180.696 72.468 180.392 72.032 180.392C71.6075 180.392 71.3379 180.719 71.3379 181.086V182.812H70.7527ZM75.1361 182.899C74.3444 182.899 73.8052 182.268 73.8052 181.401C73.8052 180.518 74.3846 179.858 75.1648 179.858C75.5377 179.858 75.8761 180.013 76.0539 180.357H76.1457V178.854H76.7309V182.812H76.1457V182.405H76.0539C75.8704 182.738 75.509 182.899 75.1361 182.899ZM75.2795 182.377C75.7786 182.377 76.1515 181.969 76.1515 181.378C76.1515 180.787 75.7786 180.38 75.2795 180.38C74.7575 180.38 74.4075 180.81 74.4075 181.378C74.4075 181.946 74.7632 182.377 75.2795 182.377ZM78.827 182.812V179.944H79.4122V180.311H79.5097C79.6818 180.013 79.9743 179.858 80.3357 179.858C80.7086 179.858 81.0012 180.025 81.1561 180.323H81.2593C81.4487 180.025 81.7355 179.858 82.1428 179.858C82.7738 179.858 83.1696 180.271 83.1696 180.925V182.812H82.5845V181.074C82.5845 180.69 82.4124 180.392 81.9764 180.392C81.5691 180.392 81.288 180.696 81.288 181.046V182.812H80.7029V181.086C80.7029 180.701 80.5251 180.392 80.0891 180.392C79.6818 180.392 79.4122 180.713 79.4122 181.069V182.812H78.827ZM85.2252 182.899C84.3647 182.899 83.7337 182.256 83.7337 181.378C83.7337 180.501 84.3647 179.858 85.2252 179.858C86.0799 179.858 86.7167 180.501 86.7167 181.378C86.7167 182.256 86.0799 182.899 85.2252 182.899ZM85.2252 182.371C85.7415 182.371 86.1144 181.958 86.1144 181.378C86.1144 180.799 85.7415 180.386 85.2252 180.386C84.6974 180.386 84.336 180.799 84.336 181.378C84.336 181.958 84.6974 182.371 85.2252 182.371ZM87.3116 182.812V179.944H87.8967V180.311H87.9943C88.1721 180.007 88.4761 179.858 88.8203 179.858C89.4112 179.858 89.7956 180.26 89.7956 180.908V182.812H89.2104V181.086C89.2104 180.696 89.0269 180.392 88.5909 180.392C88.1664 180.392 87.8967 180.719 87.8967 181.086V182.812H87.3116ZM91.8269 182.899C90.9377 182.899 90.3641 182.279 90.3641 181.373C90.3641 180.483 90.9607 179.858 91.8154 179.858C92.6931 179.858 93.2152 180.512 93.2152 181.378V181.476H90.932C90.9549 182.032 91.3278 182.394 91.8269 182.394C92.2113 182.394 92.4579 182.256 92.5784 181.986H93.175C93.0144 182.52 92.5038 182.899 91.8269 182.899ZM90.9492 181.08H92.6358C92.5841 180.633 92.2629 180.34 91.8154 180.34C91.3795 180.34 91.0238 180.61 90.9492 181.08ZM93.5214 183.902V183.432H94.009C94.227 183.432 94.3188 183.352 94.3991 183.134L94.4909 182.876L93.3895 179.944H94.0033L94.7261 182.101H94.8236L95.5636 179.944H96.1717L94.8236 183.421C94.6917 183.771 94.5024 183.902 94.0951 183.902H93.5214ZM98.3637 182.835C98.0654 182.835 97.8933 182.658 97.8933 182.348V180.392H97.3541V179.944H97.9048V179.17H98.4612V179.944H99.1668V180.392H98.467V182.17C98.467 182.313 98.5243 182.371 98.6735 182.371H99.1668V182.835H98.3637ZM100.937 182.899C100.076 182.899 99.4453 182.256 99.4453 181.378C99.4453 180.501 100.076 179.858 100.937 179.858C101.792 179.858 102.428 180.501 102.428 181.378C102.428 182.256 101.792 182.899 100.937 182.899ZM100.937 182.371C101.453 182.371 101.826 181.958 101.826 181.378C101.826 180.799 101.453 180.386 100.937 180.386C100.409 180.386 100.048 180.799 100.048 181.378C100.048 181.958 100.409 182.371 100.937 182.371ZM105.114 182.899C104.557 182.899 104.11 182.572 104.11 182.027C104.11 181.384 104.632 181.189 105.24 181.126L106.089 181.034V180.879C106.089 180.552 105.865 180.34 105.458 180.34C105.085 180.34 104.844 180.512 104.775 180.805H104.213C104.282 180.26 104.735 179.858 105.458 179.858C106.192 179.858 106.64 180.231 106.64 180.908V182.308C106.64 182.486 106.657 182.732 106.668 182.801V182.812H106.095C106.089 182.715 106.089 182.595 106.089 182.48H105.991C105.825 182.772 105.492 182.899 105.114 182.899ZM104.706 181.992C104.706 182.285 104.942 182.451 105.263 182.451C105.785 182.451 106.089 182.061 106.089 181.677V181.436L105.429 181.516C104.976 181.568 104.706 181.688 104.706 181.992ZM107.418 182.812V179.944H108.003V180.311H108.101C108.279 180.007 108.583 179.858 108.927 179.858C109.518 179.858 109.902 180.26 109.902 180.908V182.812H109.317V181.086C109.317 180.696 109.133 180.392 108.697 180.392C108.273 180.392 108.003 180.719 108.003 181.086V182.812H107.418ZM110.397 183.902V183.432H110.885C111.103 183.432 111.194 183.352 111.275 183.134L111.366 182.876L110.265 179.944H110.879L111.602 182.101H111.699L112.439 179.944H113.047L111.699 183.421C111.567 183.771 111.378 183.902 110.971 183.902H110.397ZM114.678 182.899C113.817 182.899 113.186 182.256 113.186 181.378C113.186 180.501 113.817 179.858 114.678 179.858C115.533 179.858 116.169 180.501 116.169 181.378C116.169 182.256 115.533 182.899 114.678 182.899ZM114.678 182.371C115.194 182.371 115.567 181.958 115.567 181.378C115.567 180.799 115.194 180.386 114.678 180.386C114.15 180.386 113.789 180.799 113.789 181.378C113.789 181.958 114.15 182.371 114.678 182.371ZM116.764 182.812V179.944H117.349V180.311H117.447C117.625 180.007 117.929 179.858 118.273 179.858C118.864 179.858 119.248 180.26 119.248 180.908V182.812H118.663V181.086C118.663 180.696 118.479 180.392 118.043 180.392C117.619 180.392 117.349 180.719 117.349 181.086V182.812H116.764ZM121.28 182.899C120.39 182.899 119.817 182.279 119.817 181.373C119.817 180.483 120.413 179.858 121.268 179.858C122.146 179.858 122.668 180.512 122.668 181.378V181.476H120.385C120.408 182.032 120.78 182.394 121.28 182.394C121.664 182.394 121.911 182.256 122.031 181.986H122.628C122.467 182.52 121.956 182.899 121.28 182.899ZM120.402 181.08H122.088C122.037 180.633 121.715 180.34 121.268 180.34C120.832 180.34 120.476 180.61 120.402 181.08ZM124.547 182.812V179.944H125.132V182.812H124.547ZM124.541 179.48V178.854H125.138V179.48H124.541ZM125.946 182.812V179.944H126.532V180.311H126.629C126.807 180.007 127.111 179.858 127.455 179.858C128.046 179.858 128.43 180.26 128.43 180.908V182.812H127.845V181.086C127.845 180.696 127.662 180.392 127.226 180.392C126.801 180.392 126.532 180.719 126.532 181.086V182.812H125.946ZM131.085 182.835C130.787 182.835 130.615 182.658 130.615 182.348V180.392H130.076V179.944H130.626V179.17H131.183V179.944H131.888V180.392H131.189V182.17C131.189 182.313 131.246 182.371 131.395 182.371H131.888V182.835H131.085ZM132.446 182.812V178.854H133.032V180.311H133.129C133.307 180.007 133.611 179.858 133.955 179.858C134.546 179.858 134.93 180.26 134.93 180.908V182.812H134.345V181.086C134.345 180.696 134.162 180.392 133.726 180.392C133.301 180.392 133.032 180.719 133.032 181.086V182.812H132.446ZM136.962 182.899C136.073 182.899 135.499 182.279 135.499 181.373C135.499 180.483 136.096 179.858 136.95 179.858C137.828 179.858 138.35 180.512 138.35 181.378V181.476H136.067C136.09 182.032 136.463 182.394 136.962 182.394C137.346 182.394 137.593 182.256 137.713 181.986H138.31C138.149 182.52 137.639 182.899 136.962 182.899ZM136.084 181.08H137.771C137.719 180.633 137.398 180.34 136.95 180.34C136.514 180.34 136.159 180.61 136.084 181.08ZM64.4844 189.812L63.8247 186.944H64.4156L64.9146 189.331H65.0122L65.5457 186.944H66.4406L66.9741 189.331H67.0716L67.5707 186.944H68.1444L67.4617 189.812H66.5611L66.0333 187.426H65.9358L65.408 189.812H64.4844ZM69.9268 189.899C69.0663 189.899 68.4353 189.256 68.4353 188.378C68.4353 187.501 69.0663 186.858 69.9268 186.858C70.7815 186.858 71.4183 187.501 71.4183 188.378C71.4183 189.256 70.7815 189.899 69.9268 189.899ZM69.9268 189.371C70.4431 189.371 70.816 188.958 70.816 188.378C70.816 187.799 70.4431 187.386 69.9268 187.386C69.399 187.386 69.0376 187.799 69.0376 188.378C69.0376 188.958 69.399 189.371 69.9268 189.371ZM72.0132 189.812V186.944H72.5926V187.472H72.6901C72.8393 187.105 73.2179 186.893 73.6654 186.893H73.7055V187.518C73.6137 187.506 73.5736 187.506 73.4818 187.506C72.9827 187.506 72.5984 187.805 72.5984 188.43V189.812H72.0132ZM74.1911 189.812V185.854H74.7762V189.812H74.1911ZM76.709 189.899C75.9173 189.899 75.3781 189.268 75.3781 188.401C75.3781 187.518 75.9575 186.858 76.7376 186.858C77.1105 186.858 77.449 187.013 77.6268 187.357H77.7186V185.854H78.3037V189.812H77.7186V189.405H77.6268C77.4432 189.738 77.0818 189.899 76.709 189.899ZM76.8524 189.377C77.3515 189.377 77.7243 188.969 77.7243 188.378C77.7243 187.787 77.3515 187.38 76.8524 187.38C76.3303 187.38 75.9804 187.81 75.9804 188.378C75.9804 188.946 76.3361 189.377 76.8524 189.377ZM80.2622 188.533V188.017H84.7941V188.533H80.2622ZM86.75 189.812V186.944H87.3352V189.812H86.75ZM86.7443 186.48V185.854H87.3409V186.48H86.7443ZM88.1492 189.812V186.944H88.7344V187.311H88.8319C89.0097 187.007 89.3138 186.858 89.658 186.858C90.2488 186.858 90.6332 187.26 90.6332 187.908V189.812H90.0481V188.086C90.0481 187.696 89.8645 187.392 89.4285 187.392C89.004 187.392 88.7344 187.719 88.7344 188.086V189.812H88.1492ZM92.4523 189.899C91.7409 189.899 91.2419 189.554 91.1558 188.992H91.7352C91.8213 189.302 92.1196 189.428 92.4523 189.428C92.785 189.428 93.0661 189.279 93.0661 189.021C93.0661 188.763 92.8309 188.677 92.4982 188.625L92.1712 188.568C91.6205 188.482 91.2533 188.258 91.2533 187.742C91.2533 187.208 91.7237 186.858 92.3892 186.858C93.0202 186.858 93.4677 187.151 93.5881 187.696H93.026C92.9342 187.438 92.7047 187.317 92.3949 187.317C92.0565 187.317 91.8327 187.478 91.8327 187.696C91.8327 187.925 92.0048 188 92.3548 188.057L92.6818 188.114C93.2153 188.201 93.634 188.419 93.634 188.975C93.634 189.543 93.1349 189.899 92.4523 189.899ZM94.8847 189.835C94.5864 189.835 94.4143 189.658 94.4143 189.348V187.392H93.8751V186.944H94.4258V186.17H94.9823V186.944H95.6879V187.392H94.988V189.17C94.988 189.313 95.0454 189.371 95.1945 189.371H95.6879V189.835H94.8847ZM97.0548 189.899C96.4984 189.899 96.0509 189.572 96.0509 189.027C96.0509 188.384 96.5729 188.189 97.181 188.126L98.03 188.034V187.879C98.03 187.552 97.8063 187.34 97.399 187.34C97.0261 187.34 96.7852 187.512 96.7163 187.805H96.1542C96.223 187.26 96.6762 186.858 97.399 186.858C98.1333 186.858 98.5807 187.231 98.5807 187.908V189.308C98.5807 189.486 98.598 189.732 98.6094 189.801V189.812H98.0358C98.03 189.715 98.03 189.595 98.03 189.48H97.9325C97.7661 189.772 97.4334 189.899 97.0548 189.899ZM96.6475 188.992C96.6475 189.285 96.8827 189.451 97.204 189.451C97.726 189.451 98.03 189.061 98.03 188.677V188.436L97.3703 188.516C96.9171 188.568 96.6475 188.688 96.6475 188.992ZM99.3594 189.812V186.944H99.9445V187.311H100.042C100.22 187.007 100.524 186.858 100.868 186.858C101.459 186.858 101.843 187.26 101.843 187.908V189.812H101.258V188.086C101.258 187.696 101.075 187.392 100.639 187.392C100.214 187.392 99.9445 187.719 99.9445 188.086V189.812H99.3594ZM103.273 189.835C102.974 189.835 102.802 189.658 102.802 189.348V187.392H102.263V186.944H102.814V186.17H103.37V186.944H104.076V187.392H103.376V189.17C103.376 189.313 103.433 189.371 103.583 189.371H104.076V189.835H103.273ZM104.634 189.812V185.854H105.219V189.812H104.634ZM105.781 190.902V190.432H106.268C106.486 190.432 106.578 190.352 106.658 190.134L106.75 189.876L105.649 186.944H106.263L106.985 189.101H107.083L107.823 186.944H108.431L107.083 190.421C106.951 190.771 106.762 190.902 106.354 190.902H105.781ZM108.4 189.812V189.078H109.122V189.812H108.4Z" fill="white"/>
<rect x="162.57" y="143.922" width="100.773" height="53.1593" rx="1.52976" fill="#0000FF"/>
<path d="M170.358 154.215C169.228 154.215 168.368 153.354 168.368 152.156C168.368 150.962 169.228 150.085 170.358 150.085C171.311 150.085 172.062 150.653 172.251 151.53H171.609C171.448 151.002 170.978 150.641 170.364 150.641C169.555 150.641 169.01 151.284 169.01 152.15C169.01 153.005 169.555 153.659 170.364 153.659C170.966 153.659 171.425 153.326 171.603 152.827H172.251C172.039 153.659 171.322 154.215 170.358 154.215ZM172.847 154.129V150.171H173.432V151.628H173.529C173.707 151.324 174.011 151.175 174.355 151.175C174.946 151.175 175.331 151.576 175.331 152.224V154.129H174.746V152.402C174.746 152.012 174.562 151.708 174.126 151.708C173.701 151.708 173.432 152.035 173.432 152.402V154.129H172.847ZM176.92 154.215C176.364 154.215 175.916 153.888 175.916 153.343C175.916 152.7 176.438 152.505 177.047 152.442L177.896 152.351V152.196C177.896 151.869 177.672 151.656 177.265 151.656C176.892 151.656 176.651 151.829 176.582 152.121H176.02C176.089 151.576 176.542 151.175 177.265 151.175C177.999 151.175 178.446 151.547 178.446 152.224V153.624C178.446 153.802 178.463 154.049 178.475 154.117V154.129H177.901C177.896 154.031 177.896 153.911 177.896 153.796H177.798C177.632 154.089 177.299 154.215 176.92 154.215ZM176.513 153.309C176.513 153.601 176.748 153.767 177.069 153.767C177.591 153.767 177.896 153.377 177.896 152.993V152.752L177.236 152.832C176.783 152.884 176.513 153.005 176.513 153.309ZM179.868 154.152C179.57 154.152 179.398 153.974 179.398 153.664V151.708H178.858V151.261H179.409V150.486H179.965V151.261H180.671V151.708H179.971V153.486C179.971 153.63 180.029 153.687 180.178 153.687H180.671V154.152H179.868ZM182.895 154.129L182.235 151.261H182.826L183.325 153.647H183.423L183.956 151.261H184.851L185.385 153.647H185.482L185.981 151.261H186.555L185.872 154.129H184.972L184.444 151.742H184.346L183.819 154.129H182.895ZM187.081 154.129V151.261H187.666V154.129H187.081ZM187.075 150.796V150.171H187.672V150.796H187.075ZM189.145 154.152C188.847 154.152 188.675 153.974 188.675 153.664V151.708H188.136V151.261H188.686V150.486H189.243V151.261H189.948V151.708H189.249V153.486C189.249 153.63 189.306 153.687 189.455 153.687H189.948V154.152H189.145ZM190.507 154.129V150.171H191.092V151.628H191.189C191.367 151.324 191.671 151.175 192.015 151.175C192.606 151.175 192.991 151.576 192.991 152.224V154.129H192.405V152.402C192.405 152.012 192.222 151.708 191.786 151.708C191.361 151.708 191.092 152.035 191.092 152.402V154.129H190.507ZM195.862 154.215C195.305 154.215 194.858 153.888 194.858 153.343C194.858 152.7 195.38 152.505 195.988 152.442L196.837 152.351V152.196C196.837 151.869 196.613 151.656 196.206 151.656C195.833 151.656 195.592 151.829 195.523 152.121H194.961C195.03 151.576 195.483 151.175 196.206 151.175C196.94 151.175 197.388 151.547 197.388 152.224V153.624C197.388 153.802 197.405 154.049 197.416 154.117V154.129H196.843C196.837 154.031 196.837 153.911 196.837 153.796H196.739C196.573 154.089 196.24 154.215 195.862 154.215ZM195.454 153.309C195.454 153.601 195.69 153.767 196.011 153.767C196.533 153.767 196.837 153.377 196.837 152.993V152.752L196.177 152.832C195.724 152.884 195.454 153.005 195.454 153.309ZM198.166 154.129V151.261H198.751V151.628H198.849C199.027 151.324 199.331 151.175 199.675 151.175C200.266 151.175 200.65 151.576 200.65 152.224V154.129H200.065V152.402C200.065 152.012 199.882 151.708 199.446 151.708C199.021 151.708 198.751 152.035 198.751 152.402V154.129H198.166ZM201.145 155.219V154.748H201.633C201.851 154.748 201.942 154.668 202.023 154.45L202.114 154.192L201.013 151.261H201.627L202.35 153.418H202.447L203.187 151.261H203.795L202.447 154.737C202.315 155.087 202.126 155.219 201.719 155.219H201.145ZM205.426 154.215C204.565 154.215 203.934 153.572 203.934 152.695C203.934 151.817 204.565 151.175 205.426 151.175C206.281 151.175 206.917 151.817 206.917 152.695C206.917 153.572 206.281 154.215 205.426 154.215ZM205.426 153.687C205.942 153.687 206.315 153.274 206.315 152.695C206.315 152.115 205.942 151.702 205.426 151.702C204.898 151.702 204.537 152.115 204.537 152.695C204.537 153.274 204.898 153.687 205.426 153.687ZM207.512 154.129V151.261H208.097V151.628H208.195C208.373 151.324 208.677 151.175 209.021 151.175C209.612 151.175 209.996 151.576 209.996 152.224V154.129H209.411V152.402C209.411 152.012 209.228 151.708 208.792 151.708C208.367 151.708 208.097 152.035 208.097 152.402V154.129H207.512ZM212.028 154.215C211.138 154.215 210.565 153.595 210.565 152.689C210.565 151.8 211.161 151.175 212.016 151.175C212.894 151.175 213.416 151.829 213.416 152.695V152.792H211.133C211.156 153.349 211.528 153.71 212.028 153.71C212.412 153.71 212.659 153.572 212.779 153.303H213.376C213.215 153.836 212.704 154.215 212.028 154.215ZM211.15 152.396H212.836C212.785 151.949 212.464 151.656 212.016 151.656C211.58 151.656 211.224 151.926 211.15 152.396ZM213.86 154.909L214.221 154.129H213.877V153.395H214.6V154.129L214.238 154.909H213.86ZM217.24 154.215C216.684 154.215 216.236 153.888 216.236 153.343C216.236 152.7 216.758 152.505 217.366 152.442L218.215 152.351V152.196C218.215 151.869 217.991 151.656 217.584 151.656C217.211 151.656 216.97 151.829 216.902 152.121H216.339C216.408 151.576 216.861 151.175 217.584 151.175C218.318 151.175 218.766 151.547 218.766 152.224V153.624C218.766 153.802 218.783 154.049 218.795 154.117V154.129H218.221C218.215 154.031 218.215 153.911 218.215 153.796H218.118C217.951 154.089 217.619 154.215 217.24 154.215ZM216.833 153.309C216.833 153.601 217.068 153.767 217.389 153.767C217.911 153.767 218.215 153.377 218.215 152.993V152.752L217.556 152.832C217.102 152.884 216.833 153.005 216.833 153.309ZM219.545 154.129V151.261H220.13V151.628H220.227C220.405 151.324 220.709 151.175 221.053 151.175C221.644 151.175 222.029 151.576 222.029 152.224V154.129H221.443V152.402C221.443 152.012 221.26 151.708 220.824 151.708C220.399 151.708 220.13 152.035 220.13 152.402V154.129H219.545ZM222.523 155.219V154.748H223.011C223.229 154.748 223.321 154.668 223.401 154.45L223.493 154.192L222.391 151.261H223.005L223.728 153.418H223.825L224.566 151.261H225.174L223.825 154.737C223.694 155.087 223.504 155.219 223.097 155.219H222.523ZM225.977 154.129L225.317 151.261H225.908L226.407 153.647H226.504L227.038 151.261H227.933L228.466 153.647H228.564L229.063 151.261H229.637L228.954 154.129H228.053L227.525 151.742H227.428L226.9 154.129H225.977ZM230.162 154.129V150.171H230.747V151.628H230.845C231.023 151.324 231.327 151.175 231.671 151.175C232.262 151.175 232.646 151.576 232.646 152.224V154.129H232.061V152.402C232.061 152.012 231.878 151.708 231.442 151.708C231.017 151.708 230.747 152.035 230.747 152.402V154.129H230.162ZM234.678 154.215C233.788 154.215 233.215 153.595 233.215 152.689C233.215 151.8 233.811 151.175 234.666 151.175C235.544 151.175 236.066 151.829 236.066 152.695V152.792H233.783C233.806 153.349 234.178 153.71 234.678 153.71C235.062 153.71 235.309 153.572 235.429 153.303H236.026C235.865 153.836 235.354 154.215 234.678 154.215ZM233.8 152.396H235.486C235.435 151.949 235.114 151.656 234.666 151.656C234.23 151.656 233.874 151.926 233.8 152.396ZM236.664 154.129V151.261H237.243V151.788H237.341C237.49 151.421 237.868 151.209 238.316 151.209H238.356V151.834C238.264 151.823 238.224 151.823 238.132 151.823C237.633 151.823 237.249 152.121 237.249 152.746V154.129H236.664ZM240.014 154.215C239.125 154.215 238.551 153.595 238.551 152.689C238.551 151.8 239.148 151.175 240.002 151.175C240.88 151.175 241.402 151.829 241.402 152.695V152.792H239.119C239.142 153.349 239.515 153.71 240.014 153.71C240.398 153.71 240.645 153.572 240.765 153.303H241.362C241.201 153.836 240.691 154.215 240.014 154.215ZM239.136 152.396H240.823C240.771 151.949 240.45 151.656 240.002 151.656C239.566 151.656 239.211 151.926 239.136 152.396ZM241.88 154.129V153.395H242.603V154.129H241.88Z" fill="white"/>
<path d="M168.614 182.812V178.854H171.431V179.399H169.222V180.501H171.133V181.04H169.222V182.268H171.471V182.812H168.614ZM172.057 182.812V179.944H172.642V180.311H172.739C172.917 180.007 173.221 179.858 173.566 179.858C174.156 179.858 174.541 180.26 174.541 180.908V182.812H173.956V181.086C173.956 180.696 173.772 180.392 173.336 180.392C172.912 180.392 172.642 180.719 172.642 181.086V182.812H172.057ZM176.44 182.899C175.649 182.899 175.109 182.268 175.109 181.401C175.109 180.518 175.689 179.858 176.469 179.858C176.842 179.858 177.18 180.013 177.358 180.357H177.45V178.854H178.035V182.812H177.45V182.405H177.358C177.174 182.738 176.813 182.899 176.44 182.899ZM176.584 182.377C177.083 182.377 177.456 181.969 177.456 181.378C177.456 180.787 177.083 180.38 176.584 180.38C176.062 180.38 175.712 180.81 175.712 181.378C175.712 181.946 176.067 182.377 176.584 182.377ZM178.706 181.545V181.005H180.37V181.545H178.706ZM181.553 182.835C181.255 182.835 181.082 182.658 181.082 182.348V180.392H180.543V179.944H181.094V179.17H181.65V179.944H182.356V180.392H181.656V182.17C181.656 182.313 181.713 182.371 181.863 182.371H182.356V182.835H181.553ZM184.126 182.899C183.265 182.899 182.634 182.256 182.634 181.378C182.634 180.501 183.265 179.858 184.126 179.858C184.981 179.858 185.617 180.501 185.617 181.378C185.617 182.256 184.981 182.899 184.126 182.899ZM184.126 182.371C184.642 182.371 185.015 181.958 185.015 181.378C185.015 180.799 184.642 180.386 184.126 180.386C183.598 180.386 183.237 180.799 183.237 181.378C183.237 181.958 183.598 182.371 184.126 182.371ZM186.069 181.545V181.005H187.733V181.545H186.069ZM189.658 182.899C188.768 182.899 188.195 182.279 188.195 181.373C188.195 180.483 188.791 179.858 189.646 179.858C190.524 179.858 191.046 180.512 191.046 181.378V181.476H188.763C188.786 182.032 189.159 182.394 189.658 182.394C190.042 182.394 190.289 182.256 190.409 181.986H191.006C190.845 182.52 190.335 182.899 189.658 182.899ZM188.78 181.08H190.467C190.415 180.633 190.094 180.34 189.646 180.34C189.21 180.34 188.855 180.61 188.78 181.08ZM191.644 182.812V179.944H192.229V180.311H192.326C192.504 180.007 192.808 179.858 193.153 179.858C193.743 179.858 194.128 180.26 194.128 180.908V182.812H193.543V181.086C193.543 180.696 193.359 180.392 192.923 180.392C192.499 180.392 192.229 180.719 192.229 181.086V182.812H191.644ZM196.027 182.899C195.235 182.899 194.696 182.268 194.696 181.401C194.696 180.518 195.276 179.858 196.056 179.858C196.429 179.858 196.767 180.013 196.945 180.357H197.037V178.854H197.622V182.812H197.037V182.405H196.945C196.761 182.738 196.4 182.899 196.027 182.899ZM196.171 182.377C196.67 182.377 197.043 181.969 197.043 181.378C197.043 180.787 196.67 180.38 196.171 180.38C195.649 180.38 195.299 180.81 195.299 181.378C195.299 181.946 195.654 182.377 196.171 182.377ZM200.969 182.899C200.079 182.899 199.506 182.279 199.506 181.373C199.506 180.483 200.102 179.858 200.957 179.858C201.835 179.858 202.357 180.512 202.357 181.378V181.476H200.074C200.097 182.032 200.47 182.394 200.969 182.394C201.353 182.394 201.6 182.256 201.72 181.986H202.317C202.156 182.52 201.646 182.899 200.969 182.899ZM200.091 181.08H201.778C201.726 180.633 201.405 180.34 200.957 180.34C200.521 180.34 200.166 180.61 200.091 181.08ZM202.955 182.812V179.944H203.54V180.311H203.637C203.815 180.007 204.119 179.858 204.464 179.858C205.054 179.858 205.439 180.26 205.439 180.908V182.812H204.854V181.086C204.854 180.696 204.67 180.392 204.234 180.392C203.81 180.392 203.54 180.719 203.54 181.086V182.812H202.955ZM207.476 182.899C206.661 182.899 206.002 182.302 206.002 181.378C206.002 180.455 206.661 179.858 207.476 179.858C208.17 179.858 208.709 180.265 208.847 180.925H208.267C208.153 180.587 207.877 180.386 207.482 180.386C206.994 180.386 206.604 180.759 206.604 181.373C206.604 181.998 206.994 182.371 207.482 182.371C207.877 182.371 208.164 182.164 208.279 181.809H208.864C208.732 182.468 208.193 182.899 207.476 182.899ZM209.423 182.812V179.944H210.002V180.472H210.1C210.249 180.105 210.627 179.893 211.075 179.893H211.115V180.518C211.023 180.506 210.983 180.506 210.891 180.506C210.392 180.506 210.008 180.805 210.008 181.43V182.812H209.423ZM211.348 183.902V183.432H211.836C212.054 183.432 212.145 183.352 212.226 183.134L212.318 182.876L211.216 179.944H211.83L212.553 182.101H212.65L213.39 179.944H213.998L212.65 183.421C212.518 183.771 212.329 183.902 211.922 183.902H211.348ZM216.012 179.858C216.803 179.858 217.343 180.489 217.343 181.355C217.343 182.239 216.763 182.899 215.983 182.899C215.61 182.899 215.272 182.744 215.094 182.399H215.002V183.902H214.417V179.944H215.002V180.351H215.094C215.278 180.019 215.639 179.858 216.012 179.858ZM215.868 180.38C215.369 180.38 214.996 180.787 214.996 181.378C214.996 181.969 215.369 182.377 215.868 182.377C216.39 182.377 216.74 181.946 216.74 181.378C216.74 180.81 216.385 180.38 215.868 180.38ZM218.582 182.835C218.284 182.835 218.112 182.658 218.112 182.348V180.392H217.573V179.944H218.124V179.17H218.68V179.944H219.386V180.392H218.686V182.17C218.686 182.313 218.743 182.371 218.892 182.371H219.386V182.835H218.582ZM221.133 182.899C220.243 182.899 219.67 182.279 219.67 181.373C219.67 180.483 220.266 179.858 221.121 179.858C221.999 179.858 222.521 180.512 222.521 181.378V181.476H220.238C220.261 182.032 220.634 182.394 221.133 182.394C221.517 182.394 221.764 182.256 221.884 181.986H222.481C222.32 182.52 221.81 182.899 221.133 182.899ZM220.255 181.08H221.942C221.89 180.633 221.569 180.34 221.121 180.34C220.685 180.34 220.33 180.61 220.255 181.08ZM224.237 182.899C223.446 182.899 222.907 182.268 222.907 181.401C222.907 180.518 223.486 179.858 224.266 179.858C224.639 179.858 224.977 180.013 225.155 180.357H225.247V178.854H225.832V182.812H225.247V182.405H225.155C224.972 182.738 224.61 182.899 224.237 182.899ZM224.381 182.377C224.88 182.377 225.253 181.969 225.253 181.378C225.253 180.787 224.88 180.38 224.381 180.38C223.859 180.38 223.509 180.81 223.509 181.378C223.509 181.946 223.865 182.377 224.381 182.377ZM226.526 183.593L226.888 182.812H226.544V182.078H227.266V182.812L226.905 183.593H226.526ZM169.808 189.899C168.993 189.899 168.333 189.302 168.333 188.378C168.333 187.455 168.993 186.858 169.808 186.858C170.502 186.858 171.041 187.265 171.179 187.925H170.599C170.484 187.587 170.209 187.386 169.813 187.386C169.326 187.386 168.936 187.759 168.936 188.373C168.936 188.998 169.326 189.371 169.813 189.371C170.209 189.371 170.496 189.164 170.611 188.809H171.196C171.064 189.468 170.525 189.899 169.808 189.899ZM173.005 189.899C172.116 189.899 171.542 189.279 171.542 188.373C171.542 187.483 172.139 186.858 172.993 186.858C173.871 186.858 174.393 187.512 174.393 188.378V188.476H172.11C172.133 189.032 172.506 189.394 173.005 189.394C173.389 189.394 173.636 189.256 173.756 188.986H174.353C174.192 189.52 173.682 189.899 173.005 189.899ZM172.127 188.08H173.814C173.762 187.633 173.441 187.34 172.993 187.34C172.557 187.34 172.202 187.61 172.127 188.08ZM174.991 189.812V186.944H175.576V187.311H175.674C175.852 187.007 176.156 186.858 176.5 186.858C177.091 186.858 177.475 187.26 177.475 187.908V189.812H176.89V188.086C176.89 187.696 176.706 187.392 176.27 187.392C175.846 187.392 175.576 187.719 175.576 188.086V189.812H174.991ZM179.294 189.899C178.583 189.899 178.084 189.554 177.998 188.992H178.577C178.663 189.302 178.961 189.428 179.294 189.428C179.627 189.428 179.908 189.279 179.908 189.021C179.908 188.763 179.673 188.677 179.34 188.625L179.013 188.568C178.462 188.482 178.095 188.258 178.095 187.742C178.095 187.208 178.566 186.858 179.231 186.858C179.862 186.858 180.309 187.151 180.43 187.696H179.868C179.776 187.438 179.546 187.317 179.237 187.317C178.898 187.317 178.675 187.478 178.675 187.696C178.675 187.925 178.847 188 179.197 188.057L179.524 188.114C180.057 188.201 180.476 188.419 180.476 188.975C180.476 189.543 179.977 189.899 179.294 189.899ZM182.335 189.899C181.474 189.899 180.843 189.256 180.843 188.378C180.843 187.501 181.474 186.858 182.335 186.858C183.189 186.858 183.826 187.501 183.826 188.378C183.826 189.256 183.189 189.899 182.335 189.899ZM182.335 189.371C182.851 189.371 183.224 188.958 183.224 188.378C183.224 187.799 182.851 187.386 182.335 187.386C181.807 187.386 181.445 187.799 181.445 188.378C181.445 188.958 181.807 189.371 182.335 189.371ZM184.421 189.812V186.944H185V187.472H185.098C185.247 187.105 185.626 186.893 186.073 186.893H186.113V187.518C186.022 187.506 185.981 187.506 185.89 187.506C185.391 187.506 185.006 187.805 185.006 188.43V189.812H184.421ZM187.598 189.899C186.887 189.899 186.388 189.554 186.302 188.992H186.881C186.967 189.302 187.265 189.428 187.598 189.428C187.931 189.428 188.212 189.279 188.212 189.021C188.212 188.763 187.977 188.677 187.644 188.625L187.317 188.568C186.766 188.482 186.399 188.258 186.399 187.742C186.399 187.208 186.869 186.858 187.535 186.858C188.166 186.858 188.613 187.151 188.734 187.696H188.172C188.08 187.438 187.85 187.317 187.541 187.317C187.202 187.317 186.978 187.478 186.978 187.696C186.978 187.925 187.151 188 187.501 188.057L187.828 188.114C188.361 188.201 188.78 188.419 188.78 188.975C188.78 189.543 188.281 189.899 187.598 189.899ZM189.365 189.812V185.854H189.95V187.311H190.048C190.226 187.007 190.53 186.858 190.874 186.858C191.465 186.858 191.849 187.26 191.849 187.908V189.812H191.264V188.086C191.264 187.696 191.08 187.392 190.644 187.392C190.22 187.392 189.95 187.719 189.95 188.086V189.812H189.365ZM192.63 189.812V186.944H193.215V189.812H192.63ZM192.624 186.48V185.854H193.221V186.48H192.624ZM195.624 186.858C196.415 186.858 196.955 187.489 196.955 188.355C196.955 189.239 196.375 189.899 195.595 189.899C195.222 189.899 194.884 189.744 194.706 189.399H194.614V190.902H194.029V186.944H194.614V187.351H194.706C194.889 187.019 195.251 186.858 195.624 186.858ZM195.48 187.38C194.981 187.38 194.608 187.787 194.608 188.378C194.608 188.969 194.981 189.377 195.48 189.377C196.002 189.377 196.352 188.946 196.352 188.378C196.352 187.81 195.997 187.38 195.48 187.38ZM197.414 188.545V188.005H199.077V188.545H197.414ZM199.752 189.812V186.944H200.331V187.472H200.429C200.578 187.105 200.956 186.893 201.404 186.893H201.444V187.518C201.352 187.506 201.312 187.506 201.22 187.506C200.721 187.506 200.337 187.805 200.337 188.43V189.812H199.752ZM203.102 189.899C202.213 189.899 201.639 189.279 201.639 188.373C201.639 187.483 202.236 186.858 203.09 186.858C203.968 186.858 204.49 187.512 204.49 188.378V188.476H202.207C202.23 189.032 202.603 189.394 203.102 189.394C203.486 189.394 203.733 189.256 203.853 188.986H204.45C204.289 189.52 203.779 189.899 203.102 189.899ZM202.224 188.08H203.911C203.859 187.633 203.538 187.34 203.09 187.34C202.654 187.34 202.299 187.61 202.224 188.08ZM206.126 189.899C205.415 189.899 204.916 189.554 204.83 188.992H205.409C205.495 189.302 205.793 189.428 206.126 189.428C206.459 189.428 206.74 189.279 206.74 189.021C206.74 188.763 206.505 188.677 206.172 188.625L205.845 188.568C205.294 188.482 204.927 188.258 204.927 187.742C204.927 187.208 205.398 186.858 206.063 186.858C206.694 186.858 207.142 187.151 207.262 187.696H206.7C206.608 187.438 206.379 187.317 206.069 187.317C205.73 187.317 205.507 187.478 205.507 187.696C205.507 187.925 205.679 188 206.029 188.057L206.356 188.114C206.889 188.201 207.308 188.419 207.308 188.975C207.308 189.543 206.809 189.899 206.126 189.899ZM207.893 189.812V186.944H208.478V189.812H207.893ZM207.887 186.48V185.854H208.484V186.48H207.887ZM210.331 189.899C209.619 189.899 209.12 189.554 209.034 188.992H209.614C209.7 189.302 209.998 189.428 210.331 189.428C210.663 189.428 210.945 189.279 210.945 189.021C210.945 188.763 210.709 188.677 210.377 188.625L210.05 188.568C209.499 188.482 209.132 188.258 209.132 187.742C209.132 187.208 209.602 186.858 210.268 186.858C210.899 186.858 211.346 187.151 211.467 187.696H210.904C210.813 187.438 210.583 187.317 210.273 187.317C209.935 187.317 209.711 187.478 209.711 187.696C209.711 187.925 209.883 188 210.233 188.057L210.56 188.114C211.094 188.201 211.512 188.419 211.512 188.975C211.512 189.543 211.013 189.899 210.331 189.899ZM212.763 189.835C212.465 189.835 212.293 189.658 212.293 189.348V187.392H211.754V186.944H212.304V186.17H212.861V186.944H213.566V187.392H212.866V189.17C212.866 189.313 212.924 189.371 213.073 189.371H213.566V189.835H212.763ZM214.933 189.899C214.377 189.899 213.929 189.572 213.929 189.027C213.929 188.384 214.451 188.189 215.059 188.126L215.908 188.034V187.879C215.908 187.552 215.685 187.34 215.277 187.34C214.905 187.34 214.664 187.512 214.595 187.805H214.033C214.101 187.26 214.555 186.858 215.277 186.858C216.012 186.858 216.459 187.231 216.459 187.908V189.308C216.459 189.486 216.476 189.732 216.488 189.801V189.812H215.914C215.908 189.715 215.908 189.595 215.908 189.48H215.811C215.645 189.772 215.312 189.899 214.933 189.899ZM214.526 188.992C214.526 189.285 214.761 189.451 215.082 189.451C215.604 189.451 215.908 189.061 215.908 188.677V188.436L215.249 188.516C214.796 188.568 214.526 188.688 214.526 188.992ZM217.238 189.812V186.944H217.823V187.311H217.921C218.098 187.007 218.402 186.858 218.747 186.858C219.337 186.858 219.722 187.26 219.722 187.908V189.812H219.137V188.086C219.137 187.696 218.953 187.392 218.517 187.392C218.093 187.392 217.823 187.719 217.823 188.086V189.812H217.238ZM221.151 189.835C220.853 189.835 220.681 189.658 220.681 189.348V187.392H220.142V186.944H220.692V186.17H221.249V186.944H221.954V187.392H221.254V189.17C221.254 189.313 221.312 189.371 221.461 189.371H221.954V189.835H221.151ZM222.426 189.812V189.078H223.149V189.812H222.426Z" fill="white"/>
<path d="M67 221.184L254 44.1836" stroke="#BC1B1B" stroke-width="2"/>
</svg>
