<svg width="320" height="253" viewBox="0 0 320 253" fill="none" xmlns="http://www.w3.org/2000/svg">
<rect y="0.183594" width="320" height="252" rx="8" fill="#FAFAFA"/>
<rect x="28.75" y="72.6836" width="263.5" height="139" rx="4" fill="white"/>
<rect x="184.25" y="83.6836" width="95.5" height="117" rx="4" fill="#FFD12F"/>
<rect x="41.75" y="114.184" width="137.5" height="86.5" rx="4" fill="#66C800"/>
<rect x="41.75" y="83.6836" width="28" height="9.5" rx="4.75" fill="#3C8AFF"/>
<path d="M49.3248 131.684V122.528H53.465C55.2033 122.528 56.3179 123.324 56.3179 124.836C56.3179 125.951 55.7473 126.522 54.9379 126.827V127.066C56.026 127.318 56.5966 127.955 56.5966 129.189C56.5966 130.821 55.3492 131.684 53.6507 131.684H49.3248ZM53.5844 130.158C54.3408 130.158 54.845 129.706 54.845 128.95C54.845 128.233 54.3275 127.769 53.5844 127.769H50.2935V126.376H53.3057C54.0488 126.376 54.5531 125.911 54.5531 125.195C54.5531 124.465 54.0356 124.027 53.3057 124.027H51.0366V130.158H53.5844ZM59.5806 131.883C58.3067 131.883 57.2717 131.113 57.2717 129.852C57.2717 128.366 58.4129 127.888 59.7929 127.743L61.9559 127.517V128.618L60.2839 128.817C59.3816 128.924 58.9437 129.189 58.9437 129.773C58.9437 130.317 59.3948 130.635 60.0318 130.635C61.1199 130.635 61.7436 129.813 61.7436 128.977V127.172C61.7436 126.601 61.2791 126.203 60.4564 126.203C59.6735 126.203 59.2223 126.548 59.0764 127.066H57.484C57.6432 125.805 58.6915 124.85 60.4564 124.85C62.1549 124.85 63.2828 125.672 63.2828 127.278V130.516C63.2828 130.927 63.3226 131.498 63.3492 131.657V131.684H61.7568C61.7436 131.458 61.7436 131.246 61.7436 131.02H61.5047C61.0933 131.684 60.3768 131.883 59.5806 131.883ZM67.1796 131.883C65.5077 131.883 64.3134 131.047 64.1276 129.733H65.7598C65.9456 130.317 66.556 130.569 67.1929 130.569C67.8431 130.569 68.3739 130.29 68.3739 129.799C68.3739 129.308 67.8697 129.176 67.1796 129.056L66.4763 128.937C65.1494 128.711 64.3267 128.154 64.3267 126.96C64.3267 125.659 65.4679 124.85 67.0469 124.85C68.5862 124.85 69.608 125.566 69.8866 126.814H68.2943C68.1085 126.323 67.6175 126.124 67.0602 126.124C66.3835 126.124 65.9456 126.416 65.9456 126.827C65.9456 127.252 66.2906 127.384 67.0071 127.504L67.7104 127.623C68.9976 127.835 69.9795 128.366 69.9795 129.653C69.9795 131.06 68.8118 131.883 67.1796 131.883ZM73.8931 131.883C71.8496 131.883 70.4961 130.489 70.4961 128.353C70.4961 126.256 71.9292 124.85 73.9064 124.85C75.9765 124.85 77.1707 126.389 77.1707 128.419C77.1707 128.512 77.1707 128.618 77.1707 128.711H71.3852V127.61H75.5518C75.4191 126.721 74.7159 126.203 73.8931 126.203C72.951 126.203 72.1814 126.8 72.115 127.849L72.1017 128.499C72.1017 129.733 72.9112 130.463 73.8931 130.463C74.6628 130.463 75.1272 130.197 75.3528 129.733H77.0513C76.7063 130.98 75.4722 131.883 73.8931 131.883ZM79.578 131.684L82.63 122.528H85.1911L88.1104 131.684H86.3057L84.0101 124.08H83.7447L81.3031 131.684H79.578ZM81.1969 129.627L81.741 128.167H85.9474L86.4915 129.627H81.1969ZM92.6109 124.85C94.4023 124.85 95.6098 126.283 95.6098 128.3C95.6098 130.357 94.2828 131.883 92.518 131.883C91.7882 131.883 91.0849 131.617 90.6735 130.874H90.4347V134.205H88.7892V125.049H90.4347V125.818H90.6735C91.0981 125.128 91.8943 124.85 92.6109 124.85ZM92.1597 126.336C91.1645 126.336 90.4347 127.132 90.4347 128.366C90.4347 129.6 91.1645 130.396 92.1597 130.396C93.1815 130.396 93.9113 129.56 93.9113 128.366C93.9113 127.172 93.1682 126.336 92.1597 126.336ZM100.442 124.85C102.233 124.85 103.44 126.283 103.44 128.3C103.44 130.357 102.113 131.883 100.349 131.883C99.6188 131.883 98.9155 131.617 98.5041 130.874H98.2653V134.205H96.6199V125.049H98.2653V125.818H98.5041C98.9288 125.128 99.7249 124.85 100.442 124.85ZM99.9903 126.336C98.9951 126.336 98.2653 127.132 98.2653 128.366C98.2653 129.6 98.9951 130.396 99.9903 130.396C101.012 130.396 101.742 129.56 101.742 128.366C101.742 127.172 100.999 126.336 99.9903 126.336Z" fill="#0A0B0D"/>
<path d="M193.325 101.184V92.0276H196.868C199.734 92.0276 201.393 93.9251 201.393 96.526C201.393 99.1268 199.734 101.184 196.868 101.184H193.325ZM196.576 99.6443C198.5 99.6443 199.575 98.4102 199.575 96.5392C199.575 94.6549 198.5 93.5668 196.576 93.5668H195.063V99.6443H196.576ZM205.486 101.383C203.509 101.383 202.022 99.9097 202.022 97.8662C202.022 95.8227 203.509 94.3497 205.486 94.3497C207.45 94.3497 208.949 95.8227 208.949 97.8662C208.949 99.9097 207.45 101.383 205.486 101.383ZM205.486 99.8832C206.507 99.8832 207.251 99.0737 207.251 97.8662C207.251 96.6587 206.507 95.8492 205.486 95.8492C204.451 95.8492 203.721 96.6587 203.721 97.8662C203.721 99.0737 204.451 99.8832 205.486 99.8832ZM212.901 101.383C210.95 101.383 209.477 99.9362 209.477 97.8662C209.477 95.7961 210.95 94.3497 212.901 94.3497C214.559 94.3497 215.833 95.3715 216.139 96.924H214.493C214.268 96.2738 213.737 95.8492 212.914 95.8492C211.892 95.8492 211.176 96.6321 211.176 97.8529C211.176 99.1003 211.892 99.8832 212.914 99.8832C213.737 99.8832 214.294 99.4453 214.533 98.7553H216.178C215.913 100.308 214.626 101.383 212.901 101.383ZM219.567 101.383C217.896 101.383 216.701 100.547 216.515 99.233H218.148C218.333 99.8168 218.944 100.069 219.581 100.069C220.231 100.069 220.762 99.7903 220.762 99.2993C220.762 98.8083 220.258 98.6756 219.567 98.5562L218.864 98.4368C217.537 98.2112 216.715 97.6539 216.715 96.4596C216.715 95.1592 217.856 94.3497 219.435 94.3497C220.974 94.3497 221.996 95.0663 222.274 96.3136H220.682C220.496 95.8227 220.005 95.6236 219.448 95.6236C218.771 95.6236 218.333 95.9156 218.333 96.3269C218.333 96.7515 218.678 96.8842 219.395 97.0037L220.098 97.1231C221.385 97.3354 222.367 97.8662 222.367 99.1533C222.367 100.56 221.2 101.383 219.567 101.383Z" fill="#0A0B0D"/>
<path d="M145.903 132.184V129.769H146.225V131.893H147.527V132.184H145.903ZM148.068 132.184V129.769H149.657V130.063H148.39V131.893H149.681V132.184H148.068ZM148.236 131.081V130.794H149.478V131.081H148.236ZM150.026 132.184L150.772 129.769H151.255L151.986 132.184H151.647L151.038 130.063H150.975L150.355 132.184H150.026ZM150.408 131.533L150.492 131.26H151.538L151.629 131.533H150.408ZM152.377 132.184V129.769H153.318C153.756 129.769 154.057 130 154.057 130.402C154.057 130.686 153.91 130.868 153.661 130.948V131.004C153.92 131.05 154.015 131.183 154.025 131.424L154.05 132.184H153.724L153.703 131.487C153.696 131.242 153.577 131.137 153.329 131.137H152.583V130.861H153.266C153.549 130.861 153.728 130.717 153.728 130.458C153.728 130.199 153.546 130.056 153.266 130.056H152.699V130.913L152.702 131.081V132.184H152.377ZM154.542 132.184V129.769H155.109L155.792 131.869H155.851V129.769H156.149V132.184H155.582L154.903 130.087H154.84V132.184H154.542ZM158.883 132.184V129.769H159.404L159.66 131.333H159.712L159.971 129.769H160.482V132.184H160.209V130.087H160.146L159.877 131.624H159.485L159.219 130.087H159.156V132.184H158.883ZM161.853 132.236C161.356 132.236 160.964 131.743 160.964 130.976C160.964 130.21 161.356 129.716 161.853 129.716C162.347 129.716 162.742 130.21 162.742 130.976C162.742 131.743 162.347 132.236 161.853 132.236ZM161.853 131.942C162.175 131.942 162.413 131.561 162.413 130.976C162.413 130.392 162.175 130.014 161.853 130.014C161.531 130.014 161.293 130.392 161.293 130.976C161.293 131.561 161.531 131.942 161.853 131.942ZM163.22 132.184V129.769H164.162C164.599 129.769 164.9 130 164.9 130.402C164.9 130.686 164.753 130.868 164.505 130.948V131.004C164.764 131.05 164.858 131.183 164.869 131.424L164.893 132.184H164.568L164.547 131.487C164.54 131.242 164.421 131.137 164.172 131.137H163.427V130.861H164.109C164.393 130.861 164.571 130.717 164.571 130.458C164.571 130.199 164.389 130.056 164.109 130.056H163.542V130.913L163.546 131.081V132.184H163.22ZM165.417 132.184V129.769H167.006V130.063H165.739V131.893H167.03V132.184H165.417ZM165.585 131.081V130.794H166.827V131.081H165.585ZM169.831 132.023L169.618 131.809L170.86 130.567V130.514L169.915 130.525V130.259H171.382V131.722H171.116L171.126 130.777H171.074L169.831 132.023Z" fill="#32353D"/>
<path d="M51.3175 90.2361C50.761 90.2361 50.411 89.9281 50.355 89.5046H50.8065C50.873 89.7426 51.076 89.8371 51.3175 89.8371C51.5555 89.8371 51.7165 89.7076 51.7165 89.5256C51.7165 89.3261 51.5905 89.2421 51.2895 89.1756L51.083 89.1301C50.6875 89.0426 50.439 88.8256 50.439 88.4476C50.439 88.0346 50.7785 87.7161 51.272 87.7161C51.79 87.7161 52.077 87.9996 52.154 88.4161H51.706C51.6535 88.2306 51.5205 88.1116 51.272 88.1116C51.041 88.1116 50.901 88.2446 50.901 88.4126C50.901 88.5806 51.0165 88.6646 51.286 88.7241L51.4925 88.7696C51.874 88.8536 52.189 89.0356 52.189 89.4836C52.189 89.9246 51.846 90.2361 51.3175 90.2361ZM53.4686 90.2361C52.9401 90.2361 52.6111 89.9386 52.6111 89.4066V87.7686H53.0661V89.3751C53.0661 89.6236 53.1991 89.8161 53.4651 89.8161C53.7311 89.8161 53.8711 89.6236 53.8711 89.3751V87.7686H54.3261V89.4066C54.3261 89.9386 53.9971 90.2361 53.4686 90.2361ZM54.8183 90.1836V89.7741H55.4063V88.1781H54.8183V87.7686H56.4528V88.1781H55.8648V89.7741H56.4528V90.1836H54.8183ZM57.5749 90.1836V88.1816H56.8889V87.7686H58.7159V88.1816H58.0299V90.1836H57.5749ZM59.208 90.1836V87.7686H60.7725V88.1781H59.6595V89.7741H60.8075V90.1836H59.208ZM59.4355 89.1406V88.7381H60.5905V89.1406H59.4355Z" fill="#32353D"/>
<path d="M48.3085 183.184L49.849 178.699H50.863L52.3775 183.184H51.6495L50.408 179.323H50.2845L48.9975 183.184H48.3085ZM49.0495 182.053L49.264 181.468H51.4155L51.63 182.053H49.0495ZM52.946 183.184V179.934H53.6155V180.35H53.7195C53.9275 180.005 54.2655 179.836 54.662 179.836C55.325 179.836 55.767 180.298 55.767 181.026V183.184H55.104V181.234C55.104 180.792 54.8895 180.447 54.3955 180.447C53.921 180.447 53.6155 180.818 53.6155 181.234V183.184H52.946ZM58.2987 183.184V178.699H61.4902V179.323H58.9877V182.566H61.5422V183.184H58.2987ZM58.6692 181.175V180.564H61.1587V181.175H58.6692ZM63.0122 183.216C62.6677 183.216 62.4792 183.008 62.4792 182.657V180.142L62.7847 180.447H61.8682V179.934H62.4857V179.056H63.1162V179.934H63.9157V180.447H62.8237L63.1292 180.142V182.456C63.1292 182.618 63.1877 182.683 63.3632 182.683H63.9157V183.216H63.0122ZM64.613 183.184V178.699H65.2825V180.35H65.3865C65.5945 180.005 65.9325 179.836 66.329 179.836C66.992 179.836 67.434 180.298 67.434 181.026V183.184H66.771V181.234C66.771 180.792 66.5565 180.447 66.0625 180.447C65.588 180.447 65.2825 180.818 65.2825 181.234V183.184H64.613ZM69.7941 183.281C68.7931 183.281 68.1366 182.586 68.1366 181.559C68.1366 180.545 68.8191 179.836 69.7876 179.836C70.7821 179.836 71.3736 180.577 71.3736 181.565C71.3736 181.598 71.3736 181.643 71.3736 181.676H68.5006V181.227H70.7171C70.6521 180.72 70.2881 180.389 69.7811 180.389C69.2546 180.389 68.8386 180.733 68.7931 181.331L68.7866 181.578C68.7736 182.261 69.2091 182.716 69.7941 182.716C70.2296 182.716 70.5156 182.553 70.6456 182.248H71.3281C71.1461 182.859 70.5611 183.281 69.7941 183.281ZM72.1096 183.184V179.934H72.7726V180.532H72.8831C73.0521 180.122 73.4811 179.875 73.9816 179.875C74.0011 179.875 74.0141 179.875 74.0336 179.875V180.59C73.9296 180.577 73.8841 180.571 73.7801 180.571C73.2146 180.571 72.7791 180.915 72.7791 181.617V183.184H72.1096ZM75.9704 183.281C74.9694 183.281 74.3129 182.586 74.3129 181.559C74.3129 180.545 74.9954 179.836 75.9639 179.836C76.9584 179.836 77.5499 180.577 77.5499 181.565C77.5499 181.598 77.5499 181.643 77.5499 181.676H74.6769V181.227H76.8934C76.8284 180.72 76.4644 180.389 75.9574 180.389C75.4309 180.389 75.0149 180.733 74.9694 181.331L74.9629 181.578C74.9499 182.261 75.3854 182.716 75.9704 182.716C76.4059 182.716 76.6919 182.553 76.8219 182.248H77.5044C77.3224 182.859 76.7374 183.281 75.9704 183.281ZM79.6313 183.281C78.7733 183.281 78.2403 182.768 78.2403 181.877V179.934H78.9033V181.864C78.9033 182.332 79.1438 182.683 79.6313 182.683C80.1188 182.683 80.3593 182.332 80.3593 181.864V179.934H81.0223V181.884C81.0223 182.768 80.4958 183.281 79.6313 183.281ZM81.9611 183.184V179.934H82.6306V180.35H82.7346C82.9361 180.012 83.2611 179.836 83.6771 179.836C84.0996 179.836 84.4246 180.025 84.6066 180.369H84.7236C84.9381 180.025 85.2631 179.836 85.7246 179.836C86.4331 179.836 86.8881 180.311 86.8881 181.045V183.184H86.2251V181.221C86.2251 180.785 86.0236 180.447 85.5296 180.447C85.0681 180.447 84.7561 180.792 84.7561 181.182V183.184H84.0931V181.234C84.0931 180.798 83.8851 180.447 83.3911 180.447C82.9296 180.447 82.6306 180.811 82.6306 181.214V183.184H81.9611ZM87.6767 181.754V181.143H89.5617V181.754H87.6767ZM91.561 183.281C90.7615 183.281 90.1895 182.898 90.0985 182.254H90.7485C90.846 182.612 91.184 182.755 91.5675 182.755C91.9445 182.755 92.2565 182.579 92.2565 182.287C92.2565 182.001 91.99 181.903 91.613 181.838L91.249 181.78C90.625 181.676 90.209 181.429 90.209 180.837C90.209 180.233 90.742 179.836 91.496 179.836C92.211 179.836 92.718 180.168 92.8545 180.785H92.211C92.1135 180.493 91.847 180.356 91.496 180.356C91.1125 180.356 90.859 180.538 90.859 180.792C90.859 181.045 91.054 181.136 91.457 181.201L91.8275 181.26C92.432 181.357 92.9065 181.611 92.9065 182.235C92.9065 182.885 92.341 183.281 91.561 183.281ZM95.0451 183.281C94.0441 183.281 93.3876 182.586 93.3876 181.559C93.3876 180.545 94.0701 179.836 95.0386 179.836C96.0331 179.836 96.6246 180.577 96.6246 181.565C96.6246 181.598 96.6246 181.643 96.6246 181.676H93.7516V181.227H95.9681C95.9031 180.72 95.5391 180.389 95.0321 180.389C94.5056 180.389 94.0896 180.733 94.0441 181.331L94.0376 181.578C94.0246 182.261 94.4601 182.716 95.0451 182.716C95.4806 182.716 95.7666 182.553 95.8966 182.248H96.5791C96.3971 182.859 95.8121 183.281 95.0451 183.281ZM98.7905 183.281C97.861 183.281 97.12 182.605 97.12 181.559C97.12 180.519 97.861 179.836 98.7905 179.836C99.577 179.836 100.182 180.304 100.344 181.052H99.681C99.5575 180.668 99.239 180.434 98.797 180.434C98.2445 180.434 97.8025 180.857 97.8025 181.559C97.8025 182.267 98.2445 182.69 98.797 182.69C99.239 182.69 99.564 182.449 99.7005 182.046H100.364C100.214 182.794 99.603 183.281 98.7905 183.281ZM102.4 183.281C101.542 183.281 101.009 182.768 101.009 181.877V179.934H101.672V181.864C101.672 182.332 101.913 182.683 102.4 182.683C102.888 182.683 103.128 182.332 103.128 181.864V179.934H103.791V181.884C103.791 182.768 103.265 183.281 102.4 183.281ZM104.73 183.184V179.934H105.393V180.532H105.504C105.673 180.122 106.102 179.875 106.602 179.875C106.622 179.875 106.635 179.875 106.654 179.875V180.59C106.55 180.577 106.505 180.571 106.401 180.571C105.835 180.571 105.4 180.915 105.4 181.617V183.184H104.73ZM108.591 183.281C107.59 183.281 106.934 182.586 106.934 181.559C106.934 180.545 107.616 179.836 108.585 179.836C109.579 179.836 110.171 180.577 110.171 181.565C110.171 181.598 110.171 181.643 110.171 181.676H107.298V181.227H109.514C109.449 180.72 109.085 180.389 108.578 180.389C108.052 180.389 107.636 180.733 107.59 181.331L107.584 181.578C107.571 182.261 108.006 182.716 108.591 182.716C109.027 182.716 109.313 182.553 109.443 182.248H110.125C109.943 182.859 109.358 183.281 108.591 183.281ZM112.174 183.281C111.277 183.281 110.666 182.566 110.666 181.585C110.666 180.584 111.322 179.836 112.213 179.836C112.629 179.836 113.012 180.012 113.214 180.402H113.324V178.699H113.981V183.184H113.324V182.722H113.214C113.006 183.106 112.603 183.281 112.174 183.281ZM112.343 182.696C112.908 182.696 113.324 182.228 113.324 181.559C113.324 180.896 112.908 180.428 112.343 180.428C111.751 180.428 111.348 180.915 111.348 181.559C111.348 182.209 111.758 182.696 112.343 182.696ZM116.558 183.184V178.699H117.253V182.566H119.6V183.184H116.558ZM120.018 183.184V182.508L121.429 181.292C122.014 180.785 122.248 180.473 122.248 180.044C122.248 179.596 121.936 179.316 121.52 179.316C121.084 179.316 120.714 179.583 120.662 180.09H119.953C120.038 179.245 120.694 178.699 121.539 178.699C122.358 178.699 122.963 179.225 122.963 180.051C122.963 180.733 122.527 181.169 121.819 181.754L120.948 182.475V182.579H123.08V183.184H120.018ZM126.038 183.216C125.694 183.216 125.505 183.008 125.505 182.657V180.142L125.811 180.447H124.894V179.934H125.512V179.056H126.142V179.934H126.942V180.447H125.85L126.155 180.142V182.456C126.155 182.618 126.214 182.683 126.389 182.683H126.942V183.216H126.038ZM127.639 183.184V178.699H128.308V180.35H128.412C128.62 180.005 128.958 179.836 129.355 179.836C130.018 179.836 130.46 180.298 130.46 181.026V183.184H129.797V181.234C129.797 180.792 129.582 180.447 129.088 180.447C128.614 180.447 128.308 180.818 128.308 181.234V183.184H127.639ZM132.32 183.281C131.696 183.281 131.182 182.911 131.182 182.293C131.182 181.572 131.774 181.351 132.469 181.273L133.555 181.162V181.617L132.677 181.721C132.17 181.78 131.865 181.916 131.865 182.261C131.865 182.586 132.131 182.774 132.495 182.774C133.08 182.774 133.431 182.339 133.431 181.897V180.993C133.431 180.629 133.171 180.382 132.71 180.382C132.287 180.382 132.021 180.584 131.943 180.909H131.299C131.384 180.298 131.891 179.836 132.71 179.836C133.542 179.836 134.055 180.265 134.055 181.026V182.618C134.055 182.813 134.075 183.093 134.088 183.171V183.184H133.431C133.425 183.073 133.425 182.943 133.425 182.813H133.321C133.126 183.145 132.749 183.281 132.32 183.281ZM135.731 183.216C135.386 183.216 135.198 183.008 135.198 182.657V180.142L135.503 180.447H134.587V179.934H135.204V179.056H135.835V179.934H136.634V180.447H135.542L135.848 180.142V182.456C135.848 182.618 135.906 182.683 136.082 182.683H136.634V183.216H135.731ZM138.849 183.184V179.934H139.518V180.35H139.622C139.824 180.012 140.149 179.836 140.565 179.836C140.987 179.836 141.312 180.025 141.494 180.369H141.611C141.826 180.025 142.151 179.836 142.612 179.836C143.321 179.836 143.776 180.311 143.776 181.045V183.184H143.113V181.221C143.113 180.785 142.911 180.447 142.417 180.447C141.956 180.447 141.644 180.792 141.644 181.182V183.184H140.981V181.234C140.981 180.798 140.773 180.447 140.279 180.447C139.817 180.447 139.518 180.811 139.518 181.214V183.184H138.849ZM145.637 183.281C145.013 183.281 144.499 182.911 144.499 182.293C144.499 181.572 145.091 181.351 145.786 181.273L146.872 181.162V181.617L145.994 181.721C145.487 181.78 145.182 181.916 145.182 182.261C145.182 182.586 145.448 182.774 145.812 182.774C146.397 182.774 146.748 182.339 146.748 181.897V180.993C146.748 180.629 146.488 180.382 146.027 180.382C145.604 180.382 145.338 180.584 145.26 180.909H144.616C144.701 180.298 145.208 179.836 146.027 179.836C146.859 179.836 147.372 180.265 147.372 181.026V182.618C147.372 182.813 147.392 183.093 147.405 183.171V183.184H146.748C146.742 183.073 146.742 182.943 146.742 182.813H146.638C146.443 183.145 146.066 183.281 145.637 183.281ZM148.313 183.184V178.699H148.983V181.331H149.087L150.354 179.934H151.147L149.646 181.5L151.225 183.184H150.413L149.087 181.767H148.983V183.184H148.313ZM152.936 183.281C151.935 183.281 151.278 182.586 151.278 181.559C151.278 180.545 151.961 179.836 152.929 179.836C153.924 179.836 154.515 180.577 154.515 181.565C154.515 181.598 154.515 181.643 154.515 181.676H151.642V181.227H153.859C153.794 180.72 153.43 180.389 152.923 180.389C152.396 180.389 151.98 180.733 151.935 181.331L151.928 181.578C151.915 182.261 152.351 182.716 152.936 182.716C153.371 182.716 153.657 182.553 153.787 182.248H154.47C154.288 182.859 153.703 183.281 152.936 183.281ZM156.428 183.281C155.628 183.281 155.056 182.898 154.965 182.254H155.615C155.713 182.612 156.051 182.755 156.434 182.755C156.811 182.755 157.123 182.579 157.123 182.287C157.123 182.001 156.857 181.903 156.48 181.838L156.116 181.78C155.492 181.676 155.076 181.429 155.076 180.837C155.076 180.233 155.609 179.836 156.363 179.836C157.078 179.836 157.585 180.168 157.721 180.785H157.078C156.98 180.493 156.714 180.356 156.363 180.356C155.979 180.356 155.726 180.538 155.726 180.792C155.726 181.045 155.921 181.136 156.324 181.201L156.694 181.26C157.299 181.357 157.773 181.611 157.773 182.235C157.773 182.885 157.208 183.281 156.428 183.281ZM50.1805 191.281C49.2055 191.281 48.4905 190.553 48.4905 189.559C48.4905 188.564 49.2055 187.836 50.1805 187.836C51.149 187.836 51.8705 188.564 51.8705 189.559C51.8705 190.553 51.149 191.281 50.1805 191.281ZM50.1805 190.69C50.772 190.69 51.188 190.215 51.188 189.559C51.188 188.909 50.772 188.434 50.1805 188.434C49.589 188.434 49.1795 188.909 49.1795 189.559C49.1795 190.215 49.589 190.69 50.1805 190.69ZM52.6096 191.184V187.934H53.2791V188.35H53.3831C53.5911 188.005 53.9291 187.836 54.3256 187.836C54.9886 187.836 55.4306 188.298 55.4306 189.026V191.184H54.7676V189.234C54.7676 188.792 54.5531 188.447 54.0591 188.447C53.5846 188.447 53.2791 188.818 53.2791 189.234V191.184H52.6096ZM57.8037 191.281C56.8742 191.281 56.1332 190.605 56.1332 189.559C56.1332 188.519 56.8742 187.836 57.8037 187.836C58.5902 187.836 59.1947 188.304 59.3572 189.052H58.6942C58.5707 188.668 58.2522 188.434 57.8102 188.434C57.2577 188.434 56.8157 188.857 56.8157 189.559C56.8157 190.267 57.2577 190.69 57.8102 190.69C58.2522 190.69 58.5772 190.449 58.7137 190.046H59.3767C59.2272 190.794 58.6162 191.281 57.8037 191.281ZM60.0681 191.184V186.699H60.7376V188.35H60.8416C61.0496 188.005 61.3876 187.836 61.7841 187.836C62.4471 187.836 62.8891 188.298 62.8891 189.026V191.184H62.2261V189.234C62.2261 188.792 62.0116 188.447 61.5176 188.447C61.0431 188.447 60.7376 188.818 60.7376 189.234V191.184H60.0681ZM64.7487 191.281C64.1247 191.281 63.6112 190.911 63.6112 190.293C63.6112 189.572 64.2027 189.351 64.8982 189.273L65.9837 189.162V189.617L65.1062 189.721C64.5992 189.78 64.2937 189.916 64.2937 190.261C64.2937 190.586 64.5602 190.774 64.9242 190.774C65.5092 190.774 65.8602 190.339 65.8602 189.897V188.993C65.8602 188.629 65.6002 188.382 65.1387 188.382C64.7162 188.382 64.4497 188.584 64.3717 188.909H63.7282C63.8127 188.298 64.3197 187.836 65.1387 187.836C65.9707 187.836 66.4842 188.265 66.4842 189.026V190.618C66.4842 190.813 66.5037 191.093 66.5167 191.171V191.184H65.8602C65.8537 191.073 65.8537 190.943 65.8537 190.813H65.7497C65.5547 191.145 65.1777 191.281 64.7487 191.281ZM67.425 191.184V187.934H68.0945V191.184H67.425ZM67.4185 187.414V186.699H68.101V187.414H67.4185ZM69.0754 191.184V187.934H69.7449V188.35H69.8489C70.0569 188.005 70.3949 187.836 70.7914 187.836C71.4544 187.836 71.8964 188.298 71.8964 189.026V191.184H71.2334V189.234C71.2334 188.792 71.0189 188.447 70.5249 188.447C70.0504 188.447 69.7449 188.818 69.7449 189.234V191.184H69.0754ZM74.5841 191.184V188.447H73.9991V187.934H74.5906V187.258C74.5906 186.9 74.7986 186.686 75.1496 186.686H76.0141V187.199H75.4616C75.2926 187.199 75.2276 187.277 75.2276 187.44V187.934H76.0141V188.447H75.2276V191.184H74.5841ZM77.444 191.281C76.82 191.281 76.3065 190.911 76.3065 190.293C76.3065 189.572 76.898 189.351 77.5935 189.273L78.679 189.162V189.617L77.8015 189.721C77.2945 189.78 76.989 189.916 76.989 190.261C76.989 190.586 77.2555 190.774 77.6195 190.774C78.2045 190.774 78.5555 190.339 78.5555 189.897V188.993C78.5555 188.629 78.2955 188.382 77.834 188.382C77.4115 188.382 77.145 188.584 77.067 188.909H76.4235C76.508 188.298 77.015 187.836 77.834 187.836C78.666 187.836 79.1795 188.265 79.1795 189.026V190.618C79.1795 190.813 79.199 191.093 79.212 191.171V191.184H78.5555C78.549 191.073 78.549 190.943 78.549 190.813H78.445C78.25 191.145 77.873 191.281 77.444 191.281ZM81.2968 191.281C80.4973 191.281 79.9253 190.898 79.8343 190.254H80.4843C80.5818 190.612 80.9198 190.755 81.3033 190.755C81.6803 190.755 81.9923 190.579 81.9923 190.287C81.9923 190.001 81.7258 189.903 81.3488 189.838L80.9848 189.78C80.3608 189.676 79.9448 189.429 79.9448 188.837C79.9448 188.233 80.4778 187.836 81.2318 187.836C81.9468 187.836 82.4538 188.168 82.5903 188.785H81.9468C81.8493 188.493 81.5828 188.356 81.2318 188.356C80.8483 188.356 80.5948 188.538 80.5948 188.792C80.5948 189.045 80.7898 189.136 81.1928 189.201L81.5633 189.26C82.1678 189.357 82.6423 189.611 82.6423 190.235C82.6423 190.885 82.0768 191.281 81.2968 191.281ZM84.1245 191.216C83.78 191.216 83.5915 191.008 83.5915 190.657V188.142L83.897 188.447H82.9805V187.934H83.598V187.056H84.2285V187.934H85.028V188.447H83.936L84.2415 188.142V190.456C84.2415 190.618 84.3 190.683 84.4755 190.683H85.028V191.216H84.1245ZM88.1589 191.281C87.5349 191.281 87.0214 190.911 87.0214 190.293C87.0214 189.572 87.6129 189.351 88.3084 189.273L89.3939 189.162V189.617L88.5164 189.721C88.0094 189.78 87.7039 189.916 87.7039 190.261C87.7039 190.586 87.9704 190.774 88.3344 190.774C88.9194 190.774 89.2704 190.339 89.2704 189.897V188.993C89.2704 188.629 89.0104 188.382 88.5489 188.382C88.1264 188.382 87.8599 188.584 87.7819 188.909H87.1384C87.2229 188.298 87.7299 187.836 88.5489 187.836C89.3809 187.836 89.8944 188.265 89.8944 189.026V190.618C89.8944 190.813 89.9139 191.093 89.9269 191.171V191.184H89.2704C89.2639 191.073 89.2639 190.943 89.2639 190.813H89.1599C88.9649 191.145 88.5879 191.281 88.1589 191.281ZM90.8352 191.184V187.934H91.5047V188.35H91.6087C91.8167 188.005 92.1547 187.836 92.5512 187.836C93.2142 187.836 93.6562 188.298 93.6562 189.026V191.184H92.9932V189.234C92.9932 188.792 92.7787 188.447 92.2847 188.447C91.8102 188.447 91.5047 188.818 91.5047 189.234V191.184H90.8352ZM95.8668 191.281C94.9698 191.281 94.3588 190.566 94.3588 189.585C94.3588 188.584 95.0153 187.836 95.9058 187.836C96.3218 187.836 96.7053 188.012 96.9068 188.402H97.0173V186.699H97.6738V191.184H97.0173V190.722H96.9068C96.6988 191.106 96.2958 191.281 95.8668 191.281ZM96.0358 190.696C96.6013 190.696 97.0173 190.228 97.0173 189.559C97.0173 188.896 96.6013 188.428 96.0358 188.428C95.4443 188.428 95.0413 188.915 95.0413 189.559C95.0413 190.209 95.4508 190.696 96.0358 190.696ZM101.609 191.281C100.679 191.281 99.9384 190.605 99.9384 189.559C99.9384 188.519 100.679 187.836 101.609 187.836C102.395 187.836 103 188.304 103.162 189.052H102.499C102.376 188.668 102.057 188.434 101.615 188.434C101.063 188.434 100.621 188.857 100.621 189.559C100.621 190.267 101.063 190.69 101.615 190.69C102.057 190.69 102.382 190.449 102.519 190.046H103.182C103.032 190.794 102.421 191.281 101.609 191.281ZM103.873 191.184V186.699H104.543V188.35H104.647C104.855 188.005 105.193 187.836 105.589 187.836C106.252 187.836 106.694 188.298 106.694 189.026V191.184H106.031V189.234C106.031 188.792 105.817 188.447 105.323 188.447C104.848 188.447 104.543 188.818 104.543 189.234V191.184H103.873ZM109.054 191.281C108.053 191.281 107.397 190.586 107.397 189.559C107.397 188.545 108.079 187.836 109.048 187.836C110.042 187.836 110.634 188.577 110.634 189.565C110.634 189.598 110.634 189.643 110.634 189.676H107.761V189.227H109.977C109.912 188.72 109.548 188.389 109.041 188.389C108.515 188.389 108.099 188.733 108.053 189.331L108.047 189.578C108.034 190.261 108.469 190.716 109.054 190.716C109.49 190.716 109.776 190.553 109.906 190.248H110.588C110.406 190.859 109.821 191.281 109.054 191.281ZM112.286 191.281C111.662 191.281 111.149 190.911 111.149 190.293C111.149 189.572 111.74 189.351 112.436 189.273L113.521 189.162V189.617L112.644 189.721C112.137 189.78 111.831 189.916 111.831 190.261C111.831 190.586 112.098 190.774 112.462 190.774C113.047 190.774 113.398 190.339 113.398 189.897V188.993C113.398 188.629 113.138 188.382 112.676 188.382C112.254 188.382 111.987 188.584 111.909 188.909H111.266C111.35 188.298 111.857 187.836 112.676 187.836C113.508 187.836 114.022 188.265 114.022 189.026V190.618C114.022 190.813 114.041 191.093 114.054 191.171V191.184H113.398C113.391 191.073 113.391 190.943 113.391 190.813H113.287C113.092 191.145 112.715 191.281 112.286 191.281ZM116.77 187.836C117.673 187.836 118.284 188.558 118.284 189.533C118.284 190.54 117.621 191.281 116.737 191.281C116.315 191.281 115.931 191.112 115.736 190.722H115.626V192.419H114.963V187.934H115.626V188.402H115.736C115.938 188.018 116.347 187.836 116.77 187.836ZM116.607 188.428C116.042 188.428 115.619 188.896 115.619 189.559C115.619 190.228 116.042 190.696 116.607 190.696C117.199 190.696 117.595 190.209 117.595 189.559C117.595 188.915 117.192 188.428 116.607 188.428ZM120.77 191.184V188.447H120.185V187.934H120.776V187.258C120.776 186.9 120.984 186.686 121.335 186.686H122.2V187.199H121.647C121.478 187.199 121.413 187.277 121.413 187.44V187.934H122.2V188.447H121.413V191.184H120.77ZM124.156 191.281C123.181 191.281 122.466 190.553 122.466 189.559C122.466 188.564 123.181 187.836 124.156 187.836C125.125 187.836 125.846 188.564 125.846 189.559C125.846 190.553 125.125 191.281 124.156 191.281ZM124.156 190.69C124.748 190.69 125.164 190.215 125.164 189.559C125.164 188.909 124.748 188.434 124.156 188.434C123.565 188.434 123.155 188.909 123.155 189.559C123.155 190.215 123.565 190.69 124.156 190.69ZM126.585 191.184V187.934H127.248V188.532H127.359C127.528 188.122 127.957 187.875 128.457 187.875C128.477 187.875 128.49 187.875 128.509 187.875V188.59C128.405 188.577 128.36 188.571 128.256 188.571C127.69 188.571 127.255 188.915 127.255 189.617V191.184H126.585ZM131.393 191.281C130.769 191.281 130.255 190.911 130.255 190.293C130.255 189.572 130.847 189.351 131.542 189.273L132.628 189.162V189.617L131.75 189.721C131.243 189.78 130.938 189.916 130.938 190.261C130.938 190.586 131.204 190.774 131.568 190.774C132.153 190.774 132.504 190.339 132.504 189.897V188.993C132.504 188.629 132.244 188.382 131.783 188.382C131.36 188.382 131.094 188.584 131.016 188.909H130.372C130.457 188.298 130.964 187.836 131.783 187.836C132.615 187.836 133.128 188.265 133.128 189.026V190.618C133.128 190.813 133.148 191.093 133.161 191.171V191.184H132.504C132.498 191.073 132.498 190.943 132.498 190.813H132.394C132.199 191.145 131.822 191.281 131.393 191.281ZM134.069 191.184V186.699H134.739V191.184H134.069ZM135.719 191.184V186.699H136.389V191.184H135.719ZM137.272 191.184V190.358H138.098V191.184H137.272Z" fill="#0A0B0D"/>
<path d="M192.309 160.684V156.199H194.246C195.085 156.199 195.644 156.589 195.644 157.336C195.644 157.863 195.377 158.162 194.935 158.311V158.422C195.494 158.539 195.787 158.877 195.787 159.468C195.787 160.255 195.176 160.684 194.357 160.684H192.309ZM194.318 160.079C194.779 160.079 195.085 159.826 195.085 159.377C195.085 158.955 194.773 158.701 194.318 158.701H192.693V158.142H194.175C194.63 158.142 194.935 157.889 194.935 157.466C194.935 157.037 194.63 156.803 194.175 156.803H192.998V160.079H194.318ZM197.496 160.781C196.872 160.781 196.358 160.411 196.358 159.793C196.358 159.072 196.95 158.851 197.645 158.773L198.731 158.662V159.117L197.853 159.221C197.346 159.28 197.041 159.416 197.041 159.761C197.041 160.086 197.307 160.274 197.671 160.274C198.256 160.274 198.607 159.839 198.607 159.397V158.493C198.607 158.129 198.347 157.882 197.886 157.882C197.463 157.882 197.197 158.084 197.119 158.409H196.475C196.56 157.798 197.067 157.336 197.886 157.336C198.718 157.336 199.231 157.765 199.231 158.526V160.118C199.231 160.313 199.251 160.593 199.264 160.671V160.684H198.607C198.601 160.573 198.601 160.443 198.601 160.313H198.497C198.302 160.645 197.925 160.781 197.496 160.781ZM201.349 160.781C200.549 160.781 199.977 160.398 199.886 159.754H200.536C200.634 160.112 200.972 160.255 201.355 160.255C201.732 160.255 202.044 160.079 202.044 159.787C202.044 159.501 201.778 159.403 201.401 159.338L201.037 159.28C200.413 159.176 199.997 158.929 199.997 158.337C199.997 157.733 200.53 157.336 201.284 157.336C201.999 157.336 202.506 157.668 202.642 158.285H201.999C201.901 157.993 201.635 157.856 201.284 157.856C200.9 157.856 200.647 158.038 200.647 158.292C200.647 158.545 200.842 158.636 201.245 158.701L201.615 158.76C202.22 158.857 202.694 159.111 202.694 159.735C202.694 160.385 202.129 160.781 201.349 160.781ZM204.833 160.781C203.832 160.781 203.175 160.086 203.175 159.059C203.175 158.045 203.858 157.336 204.826 157.336C205.821 157.336 206.412 158.077 206.412 159.065C206.412 159.098 206.412 159.143 206.412 159.176H203.539V158.727H205.756C205.691 158.22 205.327 157.889 204.82 157.889C204.293 157.889 203.877 158.233 203.832 158.831L203.825 159.078C203.812 159.761 204.248 160.216 204.833 160.216C205.268 160.216 205.554 160.053 205.684 159.748H206.367C206.185 160.359 205.6 160.781 204.833 160.781ZM208.665 160.684V157.434H209.335V160.684H208.665ZM208.659 156.914V156.199H209.341V156.914H208.659ZM211.492 160.781C210.693 160.781 210.121 160.398 210.03 159.754H210.68C210.777 160.112 211.115 160.255 211.499 160.255C211.876 160.255 212.188 160.079 212.188 159.787C212.188 159.501 211.921 159.403 211.544 159.338L211.18 159.28C210.556 159.176 210.14 158.929 210.14 158.337C210.14 157.733 210.673 157.336 211.427 157.336C212.142 157.336 212.649 157.668 212.786 158.285H212.142C212.045 157.993 211.778 157.856 211.427 157.856C211.044 157.856 210.79 158.038 210.79 158.292C210.79 158.545 210.985 158.636 211.388 158.701L211.759 158.76C212.363 158.857 212.838 159.111 212.838 159.735C212.838 160.385 212.272 160.781 211.492 160.781ZM215.993 160.781C215.369 160.781 214.855 160.411 214.855 159.793C214.855 159.072 215.447 158.851 216.142 158.773L217.228 158.662V159.117L216.35 159.221C215.843 159.28 215.538 159.416 215.538 159.761C215.538 160.086 215.804 160.274 216.168 160.274C216.753 160.274 217.104 159.839 217.104 159.397V158.493C217.104 158.129 216.844 157.882 216.383 157.882C215.96 157.882 215.694 158.084 215.616 158.409H214.972C215.057 157.798 215.564 157.336 216.383 157.336C217.215 157.336 217.728 157.765 217.728 158.526V160.118C217.728 160.313 217.748 160.593 217.761 160.671V160.684H217.104C217.098 160.573 217.098 160.443 217.098 160.313H216.994C216.799 160.645 216.422 160.781 215.993 160.781ZM221.363 160.781C220.563 160.781 219.991 160.398 219.9 159.754H220.55C220.648 160.112 220.986 160.255 221.369 160.255C221.746 160.255 222.058 160.079 222.058 159.787C222.058 159.501 221.792 159.403 221.415 159.338L221.051 159.28C220.427 159.176 220.011 158.929 220.011 158.337C220.011 157.733 220.544 157.336 221.298 157.336C222.013 157.336 222.52 157.668 222.656 158.285H222.013C221.915 157.993 221.649 157.856 221.298 157.856C220.914 157.856 220.661 158.038 220.661 158.292C220.661 158.545 220.856 158.636 221.259 158.701L221.629 158.76C222.234 158.857 222.708 159.111 222.708 159.735C222.708 160.385 222.143 160.781 221.363 160.781ZM224.847 160.781C223.846 160.781 223.189 160.086 223.189 159.059C223.189 158.045 223.872 157.336 224.84 157.336C225.835 157.336 226.426 158.077 226.426 159.065C226.426 159.098 226.426 159.143 226.426 159.176H223.553V158.727H225.77C225.705 158.22 225.341 157.889 224.834 157.889C224.307 157.889 223.891 158.233 223.846 158.831L223.839 159.078C223.826 159.761 224.262 160.216 224.847 160.216C225.282 160.216 225.568 160.053 225.698 159.748H226.381C226.199 160.359 225.614 160.781 224.847 160.781ZM228.592 160.781C227.663 160.781 226.922 160.105 226.922 159.059C226.922 158.019 227.663 157.336 228.592 157.336C229.379 157.336 229.983 157.804 230.146 158.552H229.483C229.359 158.168 229.041 157.934 228.599 157.934C228.046 157.934 227.604 158.357 227.604 159.059C227.604 159.767 228.046 160.19 228.599 160.19C229.041 160.19 229.366 159.949 229.502 159.546H230.165C230.016 160.294 229.405 160.781 228.592 160.781ZM232.202 160.781C231.344 160.781 230.811 160.268 230.811 159.377V157.434H231.474V159.364C231.474 159.832 231.715 160.183 232.202 160.183C232.69 160.183 232.93 159.832 232.93 159.364V157.434H233.593V159.384C233.593 160.268 233.067 160.781 232.202 160.781ZM234.532 160.684V157.434H235.195V158.032H235.305C235.474 157.622 235.903 157.375 236.404 157.375C236.423 157.375 236.436 157.375 236.456 157.375V158.09C236.352 158.077 236.306 158.071 236.202 158.071C235.637 158.071 235.201 158.415 235.201 159.117V160.684H234.532ZM238.393 160.781C237.392 160.781 236.735 160.086 236.735 159.059C236.735 158.045 237.418 157.336 238.386 157.336C239.381 157.336 239.972 158.077 239.972 159.065C239.972 159.098 239.972 159.143 239.972 159.176H237.099V158.727H239.316C239.251 158.22 238.887 157.889 238.38 157.889C237.853 157.889 237.437 158.233 237.392 158.831L237.385 159.078C237.372 159.761 237.808 160.216 238.393 160.216C238.828 160.216 239.114 160.053 239.244 159.748H239.927C239.745 160.359 239.16 160.781 238.393 160.781ZM240.54 161.574L241.08 160.411L241.255 160.684H240.56V159.858H241.379V160.684L240.969 161.574H240.54ZM192.238 168.684V164.199H192.907V168.684H192.238ZM195.331 168.781C194.356 168.781 193.641 168.053 193.641 167.059C193.641 166.064 194.356 165.336 195.331 165.336C196.299 165.336 197.021 166.064 197.021 167.059C197.021 168.053 196.299 168.781 195.331 168.781ZM195.331 168.19C195.922 168.19 196.338 167.715 196.338 167.059C196.338 166.409 195.922 165.934 195.331 165.934C194.739 165.934 194.33 166.409 194.33 167.059C194.33 167.715 194.739 168.19 195.331 168.19ZM198.183 168.684L197.435 165.434H198.111L198.677 168.138H198.781L199.385 165.434H200.406L201.01 168.138H201.114L201.68 165.434H202.336L201.556 168.684H200.542L199.944 165.986H199.834L199.236 168.684H198.183ZM202.834 167.254V166.643H204.719V167.254H202.834ZM206.972 168.781C206.043 168.781 205.302 168.105 205.302 167.059C205.302 166.019 206.043 165.336 206.972 165.336C207.759 165.336 208.363 165.804 208.526 166.552H207.863C207.739 166.168 207.421 165.934 206.979 165.934C206.426 165.934 205.984 166.357 205.984 167.059C205.984 167.767 206.426 168.19 206.979 168.19C207.421 168.19 207.746 167.949 207.882 167.546H208.545C208.396 168.294 207.785 168.781 206.972 168.781ZM210.68 168.781C209.705 168.781 208.99 168.053 208.99 167.059C208.99 166.064 209.705 165.336 210.68 165.336C211.648 165.336 212.37 166.064 212.37 167.059C212.37 168.053 211.648 168.781 210.68 168.781ZM210.68 168.19C211.271 168.19 211.687 167.715 211.687 167.059C211.687 166.409 211.271 165.934 210.68 165.934C210.088 165.934 209.679 166.409 209.679 167.059C209.679 167.715 210.088 168.19 210.68 168.19ZM214.285 168.781C213.486 168.781 212.914 168.398 212.823 167.754H213.473C213.57 168.112 213.908 168.255 214.292 168.255C214.669 168.255 214.981 168.079 214.981 167.787C214.981 167.501 214.714 167.403 214.337 167.338L213.973 167.28C213.349 167.176 212.933 166.929 212.933 166.337C212.933 165.733 213.466 165.336 214.22 165.336C214.935 165.336 215.442 165.668 215.579 166.285H214.935C214.838 165.993 214.571 165.856 214.22 165.856C213.837 165.856 213.583 166.038 213.583 166.292C213.583 166.545 213.778 166.636 214.181 166.701L214.552 166.76C215.156 166.857 215.631 167.111 215.631 167.735C215.631 168.385 215.065 168.781 214.285 168.781ZM217.113 168.716C216.768 168.716 216.58 168.508 216.58 168.157V165.642L216.885 165.947H215.969V165.434H216.586V164.556H217.217V165.434H218.016V165.947H216.924L217.23 165.642V167.956C217.23 168.118 217.288 168.183 217.464 168.183H218.016V168.716H217.113ZM218.584 169.574L219.123 168.411L219.299 168.684H218.603V167.858H219.422V168.684L219.013 169.574H218.584ZM223.395 168.781C222.992 168.781 222.602 168.619 222.394 168.235H222.29V168.684H221.621V164.199H222.29V165.915H222.394C222.602 165.525 223.012 165.336 223.434 165.336C224.331 165.336 224.942 166.058 224.942 167.033C224.942 168.04 224.292 168.781 223.395 168.781ZM223.265 168.196C223.863 168.196 224.26 167.709 224.26 167.059C224.26 166.415 223.85 165.928 223.265 165.928C222.706 165.928 222.284 166.396 222.284 167.059C222.284 167.728 222.706 168.196 223.265 168.196ZM227.029 168.781C226.171 168.781 225.638 168.268 225.638 167.377V165.434H226.301V167.364C226.301 167.832 226.541 168.183 227.029 168.183C227.516 168.183 227.757 167.832 227.757 167.364V165.434H228.42V167.384C228.42 168.268 227.893 168.781 227.029 168.781ZM229.359 168.684V165.434H230.028V168.684H229.359ZM229.352 164.914V164.199H230.035V164.914H229.352ZM231.009 168.684V164.199H231.678V168.684H231.009ZM233.927 168.781C233.03 168.781 232.419 168.066 232.419 167.085C232.419 166.084 233.075 165.336 233.966 165.336C234.382 165.336 234.765 165.512 234.967 165.902H235.077V164.199H235.734V168.684H235.077V168.222H234.967C234.759 168.606 234.356 168.781 233.927 168.781ZM234.096 168.196C234.661 168.196 235.077 167.728 235.077 167.059C235.077 166.396 234.661 165.928 234.096 165.928C233.504 165.928 233.101 166.415 233.101 167.059C233.101 167.709 233.511 168.196 234.096 168.196ZM238.139 168.781C237.138 168.781 236.481 168.086 236.481 167.059C236.481 166.045 237.164 165.336 238.132 165.336C239.127 165.336 239.718 166.077 239.718 167.065C239.718 167.098 239.718 167.143 239.718 167.176H236.845V166.727H239.062C238.997 166.22 238.633 165.889 238.126 165.889C237.599 165.889 237.183 166.233 237.138 166.831L237.131 167.078C237.118 167.761 237.554 168.216 238.139 168.216C238.574 168.216 238.86 168.053 238.99 167.748H239.673C239.491 168.359 238.906 168.781 238.139 168.781ZM240.454 168.684V165.434H241.117V166.032H241.228C241.397 165.622 241.826 165.375 242.326 165.375C242.346 165.375 242.359 165.375 242.378 165.375V166.09C242.274 166.077 242.229 166.071 242.125 166.071C241.559 166.071 241.124 166.415 241.124 167.117V168.684H240.454ZM242.45 167.254V166.643H244.335V167.254H242.45ZM245.208 168.684V165.947H244.623V165.434H245.214V164.758C245.214 164.4 245.422 164.186 245.773 164.186H246.638V164.699H246.085C245.916 164.699 245.851 164.777 245.851 164.94V165.434H246.638V165.947H245.851V168.684H245.208ZM247.208 168.684V165.434H247.871V166.032H247.982C248.151 165.622 248.58 165.375 249.08 165.375C249.1 165.375 249.113 165.375 249.132 165.375V166.09C249.028 166.077 248.983 166.071 248.879 166.071C248.313 166.071 247.878 166.415 247.878 167.117V168.684H247.208ZM249.741 168.684V165.434H250.41V168.684H249.741ZM249.734 164.914V164.199H250.417V164.914H249.734ZM252.808 168.781C251.807 168.781 251.151 168.086 251.151 167.059C251.151 166.045 251.833 165.336 252.802 165.336C253.796 165.336 254.388 166.077 254.388 167.065C254.388 167.098 254.388 167.143 254.388 167.176H251.515V166.727H253.731C253.666 166.22 253.302 165.889 252.795 165.889C252.269 165.889 251.853 166.233 251.807 166.831L251.801 167.078C251.788 167.761 252.223 168.216 252.808 168.216C253.244 168.216 253.53 168.053 253.66 167.748H254.342C254.16 168.359 253.575 168.781 252.808 168.781ZM255.124 168.684V165.434H255.793V165.85H255.897C256.105 165.505 256.443 165.336 256.84 165.336C257.503 165.336 257.945 165.798 257.945 166.526V168.684H257.282V166.734C257.282 166.292 257.067 165.947 256.573 165.947C256.099 165.947 255.793 166.318 255.793 166.734V168.684H255.124ZM260.155 168.781C259.258 168.781 258.647 168.066 258.647 167.085C258.647 166.084 259.304 165.336 260.194 165.336C260.61 165.336 260.994 165.512 261.195 165.902H261.306V164.199H261.962V168.684H261.306V168.222H261.195C260.987 168.606 260.584 168.781 260.155 168.781ZM260.324 168.196C260.89 168.196 261.306 167.728 261.306 167.059C261.306 166.396 260.89 165.928 260.324 165.928C259.733 165.928 259.33 166.415 259.33 167.059C259.33 167.709 259.739 168.196 260.324 168.196ZM262.95 168.684V164.199H263.62V168.684H262.95ZM264.321 169.919V169.386H264.874C265.121 169.386 265.225 169.295 265.309 169.048L265.556 168.365L265.472 168.924L264.165 165.434H264.861L265.686 167.878H265.797L266.629 165.434H267.324L265.797 169.373C265.647 169.769 265.426 169.919 264.971 169.919H264.321ZM192.309 176.684V172.199H195.501V172.823H192.998V176.066H195.553V176.684H192.309ZM192.68 174.675V174.064H195.169V174.675H192.68ZM197.022 176.716C196.678 176.716 196.489 176.508 196.489 176.157V173.642L196.795 173.947H195.878V173.434H196.496V172.556H197.126V173.434H197.926V173.947H196.834L197.139 173.642V175.956C197.139 176.118 197.198 176.183 197.373 176.183H197.926V176.716H197.022ZM198.623 176.684V172.199H199.293V173.85H199.397C199.605 173.505 199.943 173.336 200.339 173.336C201.002 173.336 201.444 173.798 201.444 174.526V176.684H200.781V174.734C200.781 174.292 200.567 173.947 200.073 173.947C199.598 173.947 199.293 174.318 199.293 174.734V176.684H198.623ZM203.804 176.781C202.803 176.781 202.147 176.086 202.147 175.059C202.147 174.045 202.829 173.336 203.798 173.336C204.792 173.336 205.384 174.077 205.384 175.065C205.384 175.098 205.384 175.143 205.384 175.176H202.511V174.727H204.727C204.662 174.22 204.298 173.889 203.791 173.889C203.265 173.889 202.849 174.233 202.803 174.831L202.797 175.078C202.784 175.761 203.219 176.216 203.804 176.216C204.24 176.216 204.526 176.053 204.656 175.748H205.338C205.156 176.359 204.571 176.781 203.804 176.781ZM206.12 176.684V173.434H206.783V174.032H206.893C207.062 173.622 207.491 173.375 207.992 173.375C208.011 173.375 208.024 173.375 208.044 173.375V174.09C207.94 174.077 207.894 174.071 207.79 174.071C207.225 174.071 206.789 174.415 206.789 175.117V176.684H206.12ZM209.981 176.781C208.98 176.781 208.323 176.086 208.323 175.059C208.323 174.045 209.006 173.336 209.974 173.336C210.969 173.336 211.56 174.077 211.56 175.065C211.56 175.098 211.56 175.143 211.56 175.176H208.687V174.727H210.904C210.839 174.22 210.475 173.889 209.968 173.889C209.441 173.889 209.025 174.233 208.98 174.831L208.973 175.078C208.96 175.761 209.396 176.216 209.981 176.216C210.416 176.216 210.702 176.053 210.832 175.748H211.515C211.333 176.359 210.748 176.781 209.981 176.781ZM213.642 176.781C212.784 176.781 212.251 176.268 212.251 175.377V173.434H212.914V175.364C212.914 175.832 213.154 176.183 213.642 176.183C214.129 176.183 214.37 175.832 214.37 175.364V173.434H215.033V175.384C215.033 176.268 214.506 176.781 213.642 176.781ZM215.971 176.684V173.434H216.641V173.85H216.745C216.946 173.512 217.271 173.336 217.687 173.336C218.11 173.336 218.435 173.525 218.617 173.869H218.734C218.948 173.525 219.273 173.336 219.735 173.336C220.443 173.336 220.898 173.811 220.898 174.545V176.684H220.235V174.721C220.235 174.285 220.034 173.947 219.54 173.947C219.078 173.947 218.766 174.292 218.766 174.682V176.684H218.103V174.734C218.103 174.298 217.895 173.947 217.401 173.947C216.94 173.947 216.641 174.311 216.641 174.714V176.684H215.971ZM223.432 176.684V172.199H224.127V176.066H226.474V176.684H223.432ZM226.892 176.684V176.008L228.303 174.792C228.888 174.285 229.122 173.973 229.122 173.544C229.122 173.096 228.81 172.816 228.394 172.816C227.958 172.816 227.588 173.083 227.536 173.59H226.827C226.912 172.745 227.568 172.199 228.413 172.199C229.232 172.199 229.837 172.725 229.837 173.551C229.837 174.233 229.401 174.669 228.693 175.254L227.822 175.975V176.079H229.954V176.684H226.892ZM234.009 176.781C233.606 176.781 233.216 176.619 233.008 176.235H232.904V176.684H232.234V172.199H232.904V173.915H233.008C233.216 173.525 233.625 173.336 234.048 173.336C234.945 173.336 235.556 174.058 235.556 175.033C235.556 176.04 234.906 176.781 234.009 176.781ZM233.879 176.196C234.477 176.196 234.873 175.709 234.873 175.059C234.873 174.415 234.464 173.928 233.879 173.928C233.32 173.928 232.897 174.396 232.897 175.059C232.897 175.728 233.32 176.196 233.879 176.196ZM237.642 176.781C236.784 176.781 236.251 176.268 236.251 175.377V173.434H236.914V175.364C236.914 175.832 237.155 176.183 237.642 176.183C238.13 176.183 238.37 175.832 238.37 175.364V173.434H239.033V175.384C239.033 176.268 238.507 176.781 237.642 176.781ZM239.972 176.684V173.434H240.641V176.684H239.972ZM239.965 172.914V172.199H240.648V172.914H239.965ZM241.622 176.684V172.199H242.292V176.684H241.622ZM244.033 176.716C243.689 176.716 243.5 176.508 243.5 176.157V173.642L243.806 173.947H242.889V173.434H243.507V172.556H244.137V173.434H244.937V173.947H243.845L244.15 173.642V175.956C244.15 176.118 244.209 176.183 244.384 176.183H244.937V176.716H244.033ZM192.998 184.716C192.654 184.716 192.465 184.508 192.465 184.157V181.642L192.771 181.947H191.854V181.434H192.472V180.556H193.102V181.434H193.902V181.947H192.81L193.115 181.642V183.956C193.115 184.118 193.174 184.183 193.349 184.183H193.902V184.716H192.998ZM195.972 184.781C194.997 184.781 194.282 184.053 194.282 183.059C194.282 182.064 194.997 181.336 195.972 181.336C196.941 181.336 197.662 182.064 197.662 183.059C197.662 184.053 196.941 184.781 195.972 184.781ZM195.972 184.19C196.564 184.19 196.98 183.715 196.98 183.059C196.98 182.409 196.564 181.934 195.972 181.934C195.381 181.934 194.971 182.409 194.971 183.059C194.971 183.715 195.381 184.19 195.972 184.19ZM201.693 184.781C201.29 184.781 200.9 184.619 200.692 184.235H200.588V184.684H199.918V180.199H200.588V181.915H200.692C200.9 181.525 201.309 181.336 201.732 181.336C202.629 181.336 203.24 182.058 203.24 183.033C203.24 184.04 202.59 184.781 201.693 184.781ZM201.563 184.196C202.161 184.196 202.557 183.709 202.557 183.059C202.557 182.415 202.148 181.928 201.563 181.928C201.004 181.928 200.581 182.396 200.581 183.059C200.581 183.728 201.004 184.196 201.563 184.196ZM203.981 184.684V181.434H204.644V182.032H204.754C204.923 181.622 205.352 181.375 205.853 181.375C205.872 181.375 205.885 181.375 205.905 181.375V182.09C205.801 182.077 205.755 182.071 205.651 182.071C205.086 182.071 204.65 182.415 204.65 183.117V184.684H203.981ZM206.513 184.684V181.434H207.183V184.684H206.513ZM206.507 180.914V180.199H207.189V180.914H206.507ZM208.164 184.684V181.434H208.833V181.85H208.937C209.145 181.505 209.483 181.336 209.88 181.336C210.543 181.336 210.985 181.798 210.985 182.526V184.684H210.322V182.734C210.322 182.292 210.107 181.947 209.613 181.947C209.139 181.947 208.833 182.318 208.833 182.734V184.684H208.164ZM212.207 185.919V185.373H214.008C214.274 185.373 214.372 185.269 214.372 185.028V184.073H214.268C214.06 184.508 213.644 184.684 213.221 184.684C212.305 184.684 211.687 183.988 211.687 183.033C211.687 182.071 212.363 181.336 213.286 181.336C213.683 181.336 214.053 181.505 214.255 181.902H214.365V181.434H214.989V185.178C214.989 185.652 214.729 185.919 214.229 185.919H212.207ZM213.371 184.105C213.949 184.105 214.378 183.663 214.378 183.007C214.378 182.363 213.949 181.915 213.371 181.915C212.773 181.915 212.37 182.389 212.37 183.007C212.37 183.637 212.779 184.105 213.371 184.105ZM218.173 184.716C217.828 184.716 217.64 184.508 217.64 184.157V181.642L217.945 181.947H217.029V181.434H217.646V180.556H218.277V181.434H219.076V181.947H217.984L218.29 181.642V183.956C218.29 184.118 218.348 184.183 218.524 184.183H219.076V184.716H218.173ZM219.774 184.684V180.199H220.443V181.85H220.547C220.755 181.505 221.093 181.336 221.49 181.336C222.153 181.336 222.595 181.798 222.595 182.526V184.684H221.932V182.734C221.932 182.292 221.717 181.947 221.223 181.947C220.749 181.947 220.443 182.318 220.443 182.734V184.684H219.774ZM224.955 184.781C223.954 184.781 223.297 184.086 223.297 183.059C223.297 182.045 223.98 181.336 224.948 181.336C225.943 181.336 226.534 182.077 226.534 183.065C226.534 183.098 226.534 183.143 226.534 183.176H223.661V182.727H225.878C225.813 182.22 225.449 181.889 224.942 181.889C224.415 181.889 223.999 182.233 223.954 182.831L223.947 183.078C223.934 183.761 224.37 184.216 224.955 184.216C225.39 184.216 225.676 184.053 225.806 183.748H226.489C226.307 184.359 225.722 184.781 224.955 184.781ZM228.787 184.684V181.434H229.457V181.85H229.561C229.769 181.505 230.107 181.336 230.503 181.336C231.166 181.336 231.608 181.798 231.608 182.526V184.684H230.945V182.734C230.945 182.292 230.731 181.947 230.237 181.947C229.762 181.947 229.457 182.318 229.457 182.734V184.684H228.787ZM233.968 184.781C232.967 184.781 232.311 184.086 232.311 183.059C232.311 182.045 232.993 181.336 233.962 181.336C234.956 181.336 235.548 182.077 235.548 183.065C235.548 183.098 235.548 183.143 235.548 183.176H232.675V182.727H234.891C234.826 182.22 234.462 181.889 233.955 181.889C233.429 181.889 233.013 182.233 232.967 182.831L232.961 183.078C232.948 183.761 233.383 184.216 233.968 184.216C234.404 184.216 234.69 184.053 234.82 183.748H235.502C235.32 184.359 234.735 184.781 233.968 184.781ZM235.76 184.684L236.943 183.059L235.786 181.434H236.553L237.326 182.578H237.437L238.191 181.434H238.919L237.781 183.033L238.984 184.684H238.217L237.404 183.514H237.294L236.488 184.684H235.76ZM240.282 184.716C239.937 184.716 239.749 184.508 239.749 184.157V181.642L240.054 181.947H239.138V181.434H239.755V180.556H240.386V181.434H241.185V181.947H240.093L240.399 181.642V183.956C240.399 184.118 240.457 184.183 240.633 184.183H241.185V184.716H240.282ZM245.174 184.781C244.771 184.781 244.381 184.619 244.173 184.235H244.069V184.684H243.4V180.199H244.069V181.915H244.173C244.381 181.525 244.791 181.336 245.213 181.336C246.11 181.336 246.721 182.058 246.721 183.033C246.721 184.04 246.071 184.781 245.174 184.781ZM245.044 184.196C245.642 184.196 246.039 183.709 246.039 183.059C246.039 182.415 245.629 181.928 245.044 181.928C244.485 181.928 244.063 182.396 244.063 183.059C244.063 183.728 244.485 184.196 245.044 184.196ZM247.462 184.684V181.434H248.132V184.684H247.462ZM247.456 180.914V180.199H248.138V180.914H247.456ZM249.113 184.684V180.199H249.782V184.684H249.113ZM250.763 184.684V180.199H251.432V184.684H250.763ZM252.413 184.684V181.434H253.083V184.684H252.413ZM252.407 180.914V180.199H253.089V180.914H252.407ZM255.507 184.781C254.532 184.781 253.817 184.053 253.817 183.059C253.817 182.064 254.532 181.336 255.507 181.336C256.475 181.336 257.197 182.064 257.197 183.059C257.197 184.053 256.475 184.781 255.507 184.781ZM255.507 184.19C256.098 184.19 256.514 183.715 256.514 183.059C256.514 182.409 256.098 181.934 255.507 181.934C254.915 181.934 254.506 182.409 254.506 183.059C254.506 183.715 254.915 184.19 255.507 184.19ZM257.936 184.684V181.434H258.605V181.85H258.709C258.917 181.505 259.255 181.336 259.652 181.336C260.315 181.336 260.757 181.798 260.757 182.526V184.684H260.094V182.734C260.094 182.292 259.879 181.947 259.385 181.947C258.911 181.947 258.605 182.318 258.605 182.734V184.684H257.936ZM193.583 192.781C192.725 192.781 192.192 192.268 192.192 191.377V189.434H192.855V191.364C192.855 191.832 193.096 192.183 193.583 192.183C194.071 192.183 194.311 191.832 194.311 191.364V189.434H194.974V191.384C194.974 192.268 194.448 192.781 193.583 192.781ZM197.089 192.781C196.29 192.781 195.718 192.398 195.627 191.754H196.277C196.374 192.112 196.712 192.255 197.096 192.255C197.473 192.255 197.785 192.079 197.785 191.787C197.785 191.501 197.518 191.403 197.141 191.338L196.777 191.28C196.153 191.176 195.737 190.929 195.737 190.337C195.737 189.733 196.27 189.336 197.024 189.336C197.739 189.336 198.246 189.668 198.383 190.285H197.739C197.642 189.993 197.375 189.856 197.024 189.856C196.641 189.856 196.387 190.038 196.387 190.292C196.387 190.545 196.582 190.636 196.985 190.701L197.356 190.76C197.96 190.857 198.435 191.111 198.435 191.735C198.435 192.385 197.869 192.781 197.089 192.781ZM200.573 192.781C199.572 192.781 198.916 192.086 198.916 191.059C198.916 190.045 199.598 189.336 200.567 189.336C201.561 189.336 202.153 190.077 202.153 191.065C202.153 191.098 202.153 191.143 202.153 191.176H199.28V190.727H201.496C201.431 190.22 201.067 189.889 200.56 189.889C200.034 189.889 199.618 190.233 199.572 190.831L199.566 191.078C199.553 191.761 199.988 192.216 200.573 192.216C201.009 192.216 201.295 192.053 201.425 191.748H202.107C201.925 192.359 201.34 192.781 200.573 192.781ZM202.889 192.684V189.434H203.552V190.032H203.662C203.831 189.622 204.26 189.375 204.761 189.375C204.78 189.375 204.793 189.375 204.813 189.375V190.09C204.709 190.077 204.663 190.071 204.559 190.071C203.994 190.071 203.558 190.415 203.558 191.117V192.684H202.889ZM206.554 192.781C205.754 192.781 205.182 192.398 205.091 191.754H205.741C205.839 192.112 206.177 192.255 206.56 192.255C206.937 192.255 207.249 192.079 207.249 191.787C207.249 191.501 206.983 191.403 206.606 191.338L206.242 191.28C205.618 191.176 205.202 190.929 205.202 190.337C205.202 189.733 205.735 189.336 206.489 189.336C207.204 189.336 207.711 189.668 207.847 190.285H207.204C207.106 189.993 206.84 189.856 206.489 189.856C206.105 189.856 205.852 190.038 205.852 190.292C205.852 190.545 206.047 190.636 206.45 190.701L206.82 190.76C207.425 190.857 207.899 191.111 207.899 191.735C207.899 192.385 207.334 192.781 206.554 192.781ZM211.581 192.781C210.606 192.781 209.891 192.053 209.891 191.059C209.891 190.064 210.606 189.336 211.581 189.336C212.549 189.336 213.271 190.064 213.271 191.059C213.271 192.053 212.549 192.781 211.581 192.781ZM211.581 192.19C212.172 192.19 212.588 191.715 212.588 191.059C212.588 190.409 212.172 189.934 211.581 189.934C210.989 189.934 210.58 190.409 210.58 191.059C210.58 191.715 210.989 192.19 211.581 192.19ZM214.01 192.684V189.434H214.679V189.85H214.783C214.991 189.505 215.329 189.336 215.726 189.336C216.389 189.336 216.831 189.798 216.831 190.526V192.684H216.168V190.734C216.168 190.292 215.953 189.947 215.459 189.947C214.985 189.947 214.679 190.318 214.679 190.734V192.684H214.01ZM219.204 192.781C218.275 192.781 217.534 192.105 217.534 191.059C217.534 190.019 218.275 189.336 219.204 189.336C219.991 189.336 220.595 189.804 220.758 190.552H220.095C219.971 190.168 219.653 189.934 219.211 189.934C218.658 189.934 218.216 190.357 218.216 191.059C218.216 191.767 218.658 192.19 219.211 192.19C219.653 192.19 219.978 191.949 220.114 191.546H220.777C220.628 192.294 220.017 192.781 219.204 192.781ZM221.468 192.684V188.199H222.138V189.85H222.242C222.45 189.505 222.788 189.336 223.184 189.336C223.847 189.336 224.289 189.798 224.289 190.526V192.684H223.626V190.734C223.626 190.292 223.412 189.947 222.918 189.947C222.443 189.947 222.138 190.318 222.138 190.734V192.684H221.468ZM226.149 192.781C225.525 192.781 225.012 192.411 225.012 191.793C225.012 191.072 225.603 190.851 226.299 190.773L227.384 190.662V191.117L226.507 191.221C226 191.28 225.694 191.416 225.694 191.761C225.694 192.086 225.961 192.274 226.325 192.274C226.91 192.274 227.261 191.839 227.261 191.397V190.493C227.261 190.129 227.001 189.882 226.539 189.882C226.117 189.882 225.85 190.084 225.772 190.409H225.129C225.213 189.798 225.72 189.336 226.539 189.336C227.371 189.336 227.885 189.765 227.885 190.526V192.118C227.885 192.313 227.904 192.593 227.917 192.671V192.684H227.261C227.254 192.573 227.254 192.443 227.254 192.313H227.15C226.955 192.645 226.578 192.781 226.149 192.781ZM228.825 192.684V189.434H229.495V192.684H228.825ZM228.819 188.914V188.199H229.501V188.914H228.819ZM230.476 192.684V189.434H231.145V189.85H231.249C231.457 189.505 231.795 189.336 232.192 189.336C232.855 189.336 233.297 189.798 233.297 190.526V192.684H232.634V190.734C232.634 190.292 232.419 189.947 231.925 189.947C231.451 189.947 231.145 190.318 231.145 190.734V192.684H230.476ZM234.142 192.684V191.858H234.968V192.684H234.142Z" fill="#0A0B0D"/>
<circle cx="264" cy="100.434" r="11.25" fill="#FC401F"/>
<path d="M261.904 103.597L260.75 102.443L264.956 98.2361V98.0371L261.918 98.0902V96.6836H267.663V102.416H266.257L266.31 99.3641H266.111L261.904 103.597Z" fill="#0A0B0D"/>
<path d="M67 221.184L254 44.1836" stroke="#BC1B1B" stroke-width="2"/>
</svg>
