<svg width="671" height="953" viewBox="0 0 671 953" fill="none" xmlns="http://www.w3.org/2000/svg">
<path d="M0 8.08347C0 3.66519 3.58172 0.0834961 8 0.0834961H663C667.418 0.0834961 671 3.66522 671 8.0835V944.526C671 948.945 667.418 952.526 663 952.526H7.99998C3.58171 952.526 0 948.944 0 944.526V8.08347Z" fill="#FAFAFA"/>
<path d="M374.718 32.8674C388.337 32.8674 397.64 43.705 397.64 57.9952C397.64 72.765 387.762 83.6984 374.335 83.6984C367.142 83.6984 360.812 80.3417 357.935 74.2036H356.496V100.482H349.207V34.306H356.496V42.5541H357.935C360.908 36.3201 367.238 32.8674 374.718 32.8674ZM373.184 39.2932C363.593 39.2932 356.304 47.3495 356.304 58.2829C356.304 69.2164 363.593 77.2726 373.184 77.2726C383.542 77.2726 390.064 68.8328 390.064 58.2829C390.064 47.7331 383.35 39.2932 373.184 39.2932Z" fill="#0A0B0D"/>
<path d="M316.224 32.8674C329.843 32.8674 339.146 43.705 339.146 57.9952C339.146 72.765 329.268 83.6984 315.841 83.6984C308.648 83.6984 302.318 80.3417 299.44 74.2036H298.002V100.482H290.713V34.306H298.002V42.5541H299.44C302.414 36.3201 308.744 32.8674 316.224 32.8674ZM314.69 39.2932C305.099 39.2932 297.81 47.3495 297.81 58.2829C297.81 69.2164 305.099 77.2726 314.69 77.2726C325.048 77.2726 331.57 68.8328 331.57 58.2829C331.57 47.7331 324.856 39.2932 314.69 39.2932Z" fill="#0A0B0D"/>
<path d="M253.331 83.6984C243.932 83.6984 236.451 78.2317 236.451 69.1205C236.451 58.5707 245.562 55.5016 256.112 54.3507L270.402 52.8162V50.2267C270.402 43.3214 266.183 38.9096 258.318 38.9096C251.413 38.9096 246.617 42.2664 245.466 48.4045H238.273C239.52 39.3891 247.001 32.8674 258.318 32.8674C270.594 32.8674 277.404 39.4851 277.404 50.4185V73.9159C277.404 76.7931 277.691 80.9171 277.883 82.068V82.2598H270.498C270.402 80.6294 270.402 78.1358 270.402 75.834H268.868C266.183 80.9171 260.236 83.6984 253.331 83.6984ZM244.028 68.7369C244.028 74.5872 248.727 77.8481 254.961 77.8481C264.552 77.8481 270.402 70.8468 270.402 63.9415V58.187L258.702 59.5297C249.974 60.5847 244.028 62.6947 244.028 68.7369Z" fill="#0A0B0D"/>
<path d="M18.8772 82.2597C16.9591 82.2597 16 81.3007 16 79.3825V18.9607C16 17.0426 16.9591 16.0835 18.8772 16.0835H32.4002C34.3183 16.0835 35.2774 17.0426 35.2774 18.9607V31.4287C35.2774 33.3469 36.2365 34.3059 38.1546 34.3059H61.0765C62.9947 34.3059 63.9538 35.265 63.9538 37.1832V79.3825C63.9538 81.3007 62.9947 82.2597 61.0765 82.2597H18.8772ZM124.376 82.2597C122.457 82.2597 121.498 81.3007 121.498 79.3825V37.1832C121.498 35.265 122.457 34.3059 124.376 34.3059H166.575C168.493 34.3059 169.452 35.265 169.452 37.1832V79.3825C169.452 81.3007 168.493 82.2597 166.575 82.2597H124.376ZM71.6264 82.2597C69.7082 82.2597 68.7492 81.3007 68.7492 79.3825V37.1832C68.7492 35.265 69.7082 34.3059 71.6264 34.3059H113.826C115.744 34.3059 116.703 35.265 116.703 37.1832V79.3825C116.703 81.3007 115.744 82.2597 113.826 82.2597H71.6264ZM177.125 82.2597C175.207 82.2597 174.247 81.3007 174.247 79.3825V37.1832C174.247 35.265 175.207 34.3059 177.125 34.3059H219.324C221.242 34.3059 222.201 35.265 222.201 37.1832V79.3825C222.201 81.3007 221.242 82.2597 219.324 82.2597H177.125Z" fill="#0000FF"/>
<path d="M411.939 192.097C398.321 192.097 389.018 181.26 389.018 166.969C389.018 152.2 398.896 141.266 412.323 141.266C419.516 141.266 425.846 144.623 428.723 150.761H430.162V124.482H437.451V190.659H430.162V182.411H428.723C425.75 188.645 419.42 192.097 411.939 192.097ZM413.474 185.671C423.065 185.671 430.354 177.615 430.354 166.682C430.354 155.748 423.065 147.692 413.474 147.692C403.116 147.692 396.594 156.132 396.594 166.682C396.594 177.232 403.308 185.671 413.474 185.671Z" fill="#0A0B0D"/>
<path d="M371.643 190.659V124.482H378.932V190.659H371.643Z" fill="#0A0B0D"/>
<path d="M350.332 190.659V142.705H357.621V190.659H350.332ZM350.236 133.21V124.482H357.717V133.21H350.236Z" fill="#0A0B0D"/>
<path d="M317.384 192.097C305.108 192.097 297.531 184.616 297.531 171.573V142.705H304.82V171.477C304.82 179.725 309.136 185.576 317.384 185.576C325.632 185.576 329.948 179.725 329.948 171.477V142.705H337.237V171.669C337.237 184.616 329.66 192.097 317.384 192.097Z" fill="#0A0B0D"/>
<path d="M265.028 192.097C258.315 192.097 251.697 189.124 248.628 182.602H247.189V190.659H239.9V124.482H247.189V151.241H248.628C251.601 144.815 258.027 141.266 265.412 141.266C279.031 141.266 288.43 152.104 288.43 166.394C288.43 181.164 278.647 192.097 265.028 192.097ZM263.973 185.671C274.235 185.671 280.853 177.232 280.853 166.682C280.853 156.132 274.043 147.692 263.973 147.692C254.287 147.692 246.998 155.748 246.998 166.682C246.998 177.615 254.287 185.671 263.973 185.671Z" fill="#0A0B0D"/>
<path d="M18.8772 190.659C16.9591 190.659 16 189.7 16 187.781V127.36C16 125.442 16.9591 124.482 18.8772 124.482H32.4002C34.3183 124.482 35.2774 125.442 35.2774 127.36V139.828C35.2774 141.746 36.2365 142.705 38.1546 142.705H61.0765C62.9947 142.705 63.9538 143.664 63.9538 145.582V187.781C63.9538 189.7 62.9947 190.659 61.0765 190.659H18.8772ZM124.376 190.659C122.457 190.659 121.498 189.7 121.498 187.781V145.582C121.498 143.664 122.457 142.705 124.376 142.705H166.575C168.493 142.705 169.452 143.664 169.452 145.582V187.781C169.452 189.7 168.493 190.659 166.575 190.659H124.376ZM71.6264 190.659C69.7082 190.659 68.7492 189.7 68.7492 187.781V145.582C68.7492 143.664 69.7082 142.705 71.6264 142.705H113.826C115.744 142.705 116.703 143.664 116.703 145.582V187.781C116.703 189.7 115.744 190.659 113.826 190.659H71.6264ZM177.125 190.659C175.207 190.659 174.247 189.7 174.247 187.781V145.582C174.247 143.664 175.207 142.705 177.125 142.705H219.324C221.242 142.705 222.201 143.664 222.201 145.582V187.781C222.201 189.7 221.242 190.659 219.324 190.659H177.125Z" fill="#0000FF"/>
<path d="M418.234 282.274V234.32H425.523V240.938H426.962C430.031 235.663 435.402 232.881 441.732 232.881C451.706 232.881 458.42 239.787 458.42 250.72V282.274H451.131V252.83C451.131 245.062 447.294 239.499 439.142 239.499C431.086 239.499 425.523 245.829 425.523 252.83V282.274H418.234Z" fill="#0A0B0D"/>
<path d="M396.93 282.274V234.32H404.219V282.274H396.93ZM396.834 224.825V216.097H404.315V224.825H396.834Z" fill="#0A0B0D"/>
<path d="M359.54 283.712C350.141 283.712 342.66 278.246 342.66 269.134C342.66 258.585 351.771 255.516 362.321 254.365L376.611 252.83V250.241C376.611 243.335 372.391 238.924 364.527 238.924C357.622 238.924 352.826 242.28 351.675 248.418H344.482C345.729 239.403 353.21 232.881 364.527 232.881C376.803 232.881 383.613 239.499 383.613 250.432V273.93C383.613 276.807 383.9 280.931 384.092 282.082V282.274H376.707C376.611 280.643 376.611 278.15 376.611 275.848H375.077C372.391 280.931 366.445 283.712 359.54 283.712ZM350.237 268.751C350.237 274.601 354.936 277.862 361.17 277.862C370.761 277.862 376.611 270.861 376.611 263.955V258.201L364.911 259.544C356.183 260.599 350.237 262.709 350.237 268.751Z" fill="#0A0B0D"/>
<path d="M292.682 282.274V216.097H299.971V240.937H301.409C304.478 235.663 309.849 232.881 316.179 232.881C326.153 232.881 332.867 239.787 332.867 250.72V282.274H325.578V252.83C325.578 245.062 321.742 239.499 313.589 239.499C305.533 239.499 299.971 245.829 299.971 252.83V282.274H292.682Z" fill="#0A0B0D"/>
<path d="M260.521 283.712C247.286 283.712 235.969 274.313 235.969 258.297C235.969 242.28 247.286 232.881 260.521 232.881C271.646 232.881 280.374 239.115 282.868 249.953H275.579C273.469 243.143 267.81 239.403 260.521 239.403C251.506 239.403 243.545 246.213 243.545 258.297C243.545 270.381 251.506 277.191 260.521 277.191C267.81 277.191 273.565 273.354 275.77 266.257H283.155C280.662 277.095 271.934 283.712 260.521 283.712Z" fill="#0A0B0D"/>
<path d="M18.8772 282.274C16.9591 282.274 16 281.315 16 279.396V218.975C16 217.056 16.9591 216.097 18.8772 216.097H32.4002C34.3183 216.097 35.2774 217.056 35.2774 218.975V231.443C35.2774 233.361 36.2365 234.32 38.1546 234.32H61.0765C62.9947 234.32 63.9538 235.279 63.9538 237.197V279.396C63.9538 281.315 62.9947 282.274 61.0765 282.274H18.8772ZM124.376 282.274C122.457 282.274 121.498 281.315 121.498 279.396V237.197C121.498 235.279 122.457 234.32 124.376 234.32H166.575C168.493 234.32 169.452 235.279 169.452 237.197V279.396C169.452 281.315 168.493 282.274 166.575 282.274H124.376ZM71.6264 282.274C69.7082 282.274 68.7492 281.315 68.7492 279.396V237.197C68.7492 235.279 69.7082 234.32 71.6264 234.32H113.826C115.744 234.32 116.703 235.279 116.703 237.197V279.396C116.703 281.315 115.744 282.274 113.826 282.274H71.6264ZM177.125 282.274C175.207 282.274 174.247 281.315 174.247 279.396V237.197C174.247 235.279 175.207 234.32 177.125 234.32H219.324C221.242 234.32 222.201 235.279 222.201 237.197V279.396C222.201 281.315 221.242 282.274 219.324 282.274H177.125Z" fill="#0000FF"/>
<path d="M567.12 374.368C562.037 374.368 559.447 371.587 559.447 366.504V331.593H550.24V325.935H559.543V312.987H566.449V325.935H578.821V331.593H566.64V364.681C566.64 367.463 567.695 368.422 570.477 368.422H578.821V374.368H567.12Z" fill="#0A0B0D"/>
<path d="M503.799 373.889V325.935H511.088V332.553H512.526C515.595 327.278 520.966 324.496 527.296 324.496C537.271 324.496 543.984 331.402 543.984 342.335V373.889H536.695V344.445C536.695 336.677 532.859 331.114 524.707 331.114C516.65 331.114 511.088 337.444 511.088 344.445V373.889H503.799Z" fill="#0A0B0D"/>
<path d="M470.849 375.327C458.573 375.327 450.996 367.846 450.996 354.803V325.935H458.285V354.707C458.285 362.955 462.601 368.805 470.849 368.805C479.097 368.805 483.413 362.955 483.413 354.707V325.935H490.702V354.899C490.702 367.846 483.125 375.327 470.849 375.327Z" fill="#0A0B0D"/>
<path d="M417.086 375.327C402.508 375.327 392.246 364.49 392.246 349.816C392.246 335.238 402.508 324.496 417.086 324.496C431.472 324.496 441.83 335.238 441.83 349.816C441.83 364.49 431.472 375.327 417.086 375.327ZM417.086 368.806C427.252 368.806 434.254 360.653 434.254 349.816C434.254 339.17 427.252 331.018 417.086 331.018C406.824 331.018 399.823 339.17 399.823 349.816C399.823 360.653 406.824 368.806 417.086 368.806Z" fill="#0A0B0D"/>
<path d="M364.111 375.327C350.876 375.327 339.559 365.928 339.559 349.912C339.559 333.895 350.876 324.496 364.111 324.496C375.236 324.496 383.964 330.73 386.457 341.568H379.168C377.058 334.758 371.4 331.018 364.111 331.018C355.096 331.018 347.135 337.827 347.135 349.912C347.135 361.996 355.096 368.806 364.111 368.806C371.4 368.806 377.154 364.969 379.36 357.872H386.745C384.252 368.71 375.524 375.327 364.111 375.327Z" fill="#0A0B0D"/>
<path d="M311.334 375.327C298.098 375.327 286.781 365.928 286.781 349.912C286.781 333.895 298.098 324.496 311.334 324.496C322.459 324.496 331.186 330.73 333.68 341.568H326.391C324.281 334.758 318.623 331.018 311.334 331.018C302.318 331.018 294.358 337.827 294.358 349.912C294.358 361.996 302.318 368.806 311.334 368.806C318.623 368.806 324.377 364.969 326.583 357.872H333.968C331.474 368.71 322.747 375.327 311.334 375.327Z" fill="#0A0B0D"/>
<path d="M253.331 375.327C243.932 375.327 236.451 369.861 236.451 360.749C236.451 350.2 245.562 347.131 256.112 345.98L270.402 344.445V341.856C270.402 334.95 266.183 330.539 258.318 330.539C251.413 330.539 246.617 333.895 245.466 340.033H238.273C239.52 331.018 247.001 324.496 258.318 324.496C270.594 324.496 277.404 331.114 277.404 342.047V365.545C277.404 368.422 277.691 372.546 277.883 373.697V373.889H270.498C270.402 372.258 270.402 369.765 270.402 367.463H268.868C266.183 372.546 260.236 375.327 253.331 375.327ZM244.028 360.366C244.028 366.216 248.727 369.477 254.961 369.477C264.552 369.477 270.402 362.476 270.402 355.57V349.816L258.702 351.159C249.974 352.214 244.028 354.324 244.028 360.366Z" fill="#0A0B0D"/>
<path d="M18.8772 373.889C16.9591 373.889 16 372.93 16 371.011V310.59C16 308.671 16.9591 307.712 18.8772 307.712H32.4002C34.3183 307.712 35.2774 308.671 35.2774 310.59V323.058C35.2774 324.976 36.2365 325.935 38.1546 325.935H61.0765C62.9947 325.935 63.9538 326.894 63.9538 328.812V371.011C63.9538 372.93 62.9947 373.889 61.0765 373.889H18.8772ZM124.376 373.889C122.457 373.889 121.498 372.93 121.498 371.011V328.812C121.498 326.894 122.457 325.935 124.376 325.935H166.575C168.493 325.935 169.452 326.894 169.452 328.812V371.011C169.452 372.93 168.493 373.889 166.575 373.889H124.376ZM71.6264 373.889C69.7082 373.889 68.7492 372.93 68.7492 371.011V328.812C68.7492 326.894 69.7082 325.935 71.6264 325.935H113.826C115.744 325.935 116.703 326.894 116.703 328.812V371.011C116.703 372.93 115.744 373.889 113.826 373.889H71.6264ZM177.125 373.889C175.207 373.889 174.247 372.93 174.247 371.011V328.812C174.247 326.894 175.207 325.935 177.125 325.935H219.324C221.242 325.935 222.201 326.894 222.201 328.812V371.011C222.201 372.93 221.242 373.889 219.324 373.889H177.125Z" fill="#0000FF"/>
<path d="M343.466 483.726V477.78H351.043C355.263 477.78 356.51 476.437 358.14 472.217L360.346 466.367L341.932 417.55H349.604L363.319 456.584H364.758L379.144 417.55H386.816L363.223 476.725C361.017 482.192 358.14 483.726 352.098 483.726H343.466Z" fill="#0A0B0D"/>
<path d="M311.819 466.943C302.42 466.943 294.939 461.476 294.939 452.365C294.939 441.815 304.051 438.746 314.6 437.595L328.891 436.061V433.471C328.891 426.566 324.671 422.154 316.806 422.154C309.901 422.154 305.106 425.511 303.955 431.649H296.762C298.008 422.634 305.489 416.112 316.806 416.112C329.083 416.112 335.892 422.729 335.892 433.663V457.16C335.892 460.037 336.18 464.162 336.372 465.312V465.504H328.987C328.891 463.874 328.891 461.38 328.891 459.078H327.356C324.671 464.162 318.725 466.943 311.819 466.943ZM302.516 451.981C302.516 457.832 307.216 461.092 313.45 461.092C323.04 461.092 328.891 454.091 328.891 447.186V441.431L317.19 442.774C308.462 443.829 302.516 445.939 302.516 451.981Z" fill="#0A0B0D"/>
<path d="M265.412 416.112C279.031 416.112 288.334 426.949 288.334 441.24C288.334 456.009 278.455 466.943 265.028 466.943C257.835 466.943 251.505 463.586 248.628 457.448H247.189V483.727H239.9V417.55H247.189V425.798H248.628C251.601 419.564 257.931 416.112 265.412 416.112ZM263.877 422.538C254.287 422.538 246.998 430.594 246.998 441.527C246.998 452.461 254.287 460.517 263.877 460.517C274.235 460.517 280.757 452.077 280.757 441.527C280.757 430.977 274.043 422.538 263.877 422.538Z" fill="#0A0B0D"/>
<path d="M18.8772 465.504C16.9591 465.504 16 464.545 16 462.627V402.205C16 400.287 16.9591 399.328 18.8772 399.328H32.4002C34.3183 399.328 35.2774 400.287 35.2774 402.205V414.673C35.2774 416.591 36.2365 417.55 38.1546 417.55H61.0765C62.9947 417.55 63.9538 418.509 63.9538 420.427V462.627C63.9538 464.545 62.9947 465.504 61.0765 465.504H18.8772ZM124.376 465.504C122.457 465.504 121.498 464.545 121.498 462.627V420.427C121.498 418.509 122.457 417.55 124.376 417.55H166.575C168.493 417.55 169.452 418.509 169.452 420.427V462.627C169.452 464.545 168.493 465.504 166.575 465.504H124.376ZM71.6264 465.504C69.7082 465.504 68.7492 464.545 68.7492 462.627V420.427C68.7492 418.509 69.7082 417.55 71.6264 417.55H113.826C115.744 417.55 116.703 418.509 116.703 420.427V462.627C116.703 464.545 115.744 465.504 113.826 465.504H71.6264ZM177.125 465.504C175.207 465.504 174.247 464.545 174.247 462.627V420.427C174.247 418.509 175.207 417.55 177.125 417.55H219.324C221.242 417.55 222.201 418.509 222.201 420.427V462.627C222.201 464.545 221.242 465.504 219.324 465.504H177.125Z" fill="#0000FF"/>
<path d="M216.525 507.727C230.144 507.727 239.447 518.564 239.447 532.855C239.447 547.624 229.569 558.558 216.141 558.558C208.948 558.558 202.618 555.201 199.741 549.063H198.303V575.342H191.014V509.165H198.303V517.413H199.741C202.714 511.179 209.044 507.727 216.525 507.727ZM214.991 514.153C205.4 514.153 198.111 522.209 198.111 533.142C198.111 544.076 205.4 552.132 214.991 552.132C225.349 552.132 231.87 543.692 231.87 533.142C231.87 522.592 225.157 514.153 214.991 514.153Z" fill="#0A0B0D"/>
<path d="M158.037 507.727C171.656 507.727 180.959 518.564 180.959 532.855C180.959 547.624 171.08 558.558 157.653 558.558C150.46 558.558 144.13 555.201 141.253 549.063H139.814V575.342H132.525V509.165H139.814V517.413H141.253C144.226 511.179 150.556 507.727 158.037 507.727ZM156.502 514.153C146.912 514.153 139.623 522.209 139.623 533.142C139.623 544.076 146.912 552.132 156.502 552.132C166.86 552.132 173.382 543.692 173.382 533.142C173.382 522.592 166.668 514.153 156.502 514.153Z" fill="#0A0B0D"/>
<path d="M95.1375 558.558C85.7386 558.558 78.2578 553.091 78.2578 543.98C78.2578 533.43 87.369 530.361 97.9189 529.21L112.209 527.676V525.086C112.209 518.181 107.989 513.769 100.125 513.769C93.2194 513.769 88.424 517.126 87.2731 523.264H80.0801C81.3269 514.249 88.8076 507.727 100.125 507.727C112.401 507.727 119.21 514.344 119.21 525.278V548.775C119.21 551.652 119.498 555.776 119.69 556.927V557.119H112.305C112.209 555.489 112.209 552.995 112.209 550.693H110.675C107.989 555.777 102.043 558.558 95.1375 558.558ZM85.8345 543.596C85.8345 549.447 90.534 552.707 96.768 552.707C106.359 552.707 112.209 545.706 112.209 538.801V533.046L100.508 534.389C91.7808 535.444 85.8345 537.554 85.8345 543.596Z" fill="#0A0B0D"/>
<path d="M18.8772 557.119C16.9591 557.119 16 556.16 16 554.242V512.042C16 510.124 16.9591 509.165 18.8772 509.165H61.0765C62.9947 509.165 63.9538 510.124 63.9538 512.042V554.242C63.9538 556.16 62.9947 557.119 61.0765 557.119H18.8772Z" fill="#0000FF"/>
<path d="M251.588 666.956C237.969 666.956 228.666 656.119 228.666 641.829C228.666 627.059 238.545 616.125 251.972 616.125C259.165 616.125 265.495 619.482 268.372 625.62H269.81V599.342H277.099V665.518H269.81V657.27H268.372C265.399 663.504 259.069 666.956 251.588 666.956ZM253.122 660.531C262.713 660.531 270.002 652.474 270.002 641.541C270.002 630.607 262.713 622.551 253.122 622.551C242.764 622.551 236.243 630.991 236.243 641.541C236.243 652.091 242.956 660.531 253.122 660.531Z" fill="#0A0B0D"/>
<path d="M211.77 665.518V599.342H219.059V665.518H211.77Z" fill="#0A0B0D"/>
<path d="M190.942 665.518V617.564H198.231V665.518H190.942ZM190.846 608.069V599.342H198.326V608.069H190.846Z" fill="#0A0B0D"/>
<path d="M158.714 666.956C146.438 666.956 138.861 659.475 138.861 646.432V617.564H146.15V646.336C146.15 654.584 150.466 660.434 158.714 660.434C166.962 660.434 171.278 654.584 171.278 646.336V617.564H178.567V646.528C178.567 659.475 170.99 666.956 158.714 666.956Z" fill="#0A0B0D"/>
<path d="M106.839 666.956C100.125 666.956 93.5076 663.983 90.4385 657.462H88.9999V665.518H81.7109V599.342H88.9999V626.1H90.4385C93.4117 619.674 99.8375 616.125 107.222 616.125C120.841 616.125 130.24 626.963 130.24 641.253C130.24 656.023 120.458 666.956 106.839 666.956ZM105.784 660.531C116.046 660.531 122.663 652.091 122.663 641.541C122.663 630.991 115.854 622.551 105.784 622.551C96.0971 622.551 88.8081 630.607 88.8081 641.541C88.8081 652.474 96.0971 660.531 105.784 660.531Z" fill="#0A0B0D"/>
<path d="M18.8772 665.517C16.9591 665.517 16 664.558 16 662.64V620.441C16 618.523 16.9591 617.564 18.8772 617.564H61.0765C62.9947 617.564 63.9538 618.523 63.9538 620.441V662.64C63.9538 664.558 62.9947 665.517 61.0765 665.517H18.8772Z" fill="#0000FF"/>
<path d="M260.047 757.133V709.179H267.336V715.796H268.774C271.844 710.522 277.214 707.74 283.544 707.74C293.519 707.74 300.232 714.646 300.232 725.579V757.133H292.943V727.689C292.943 719.92 289.107 714.358 280.955 714.358C272.898 714.358 267.336 720.688 267.336 727.689V757.133H260.047Z" fill="#0A0B0D"/>
<path d="M238.737 757.133V709.179H246.025V757.133H238.737ZM238.641 699.684V690.956H246.121V699.684H238.641Z" fill="#0A0B0D"/>
<path d="M201.352 758.571C191.953 758.571 184.473 753.105 184.473 743.993C184.473 733.443 193.584 730.374 204.134 729.224L218.424 727.689V725.1C218.424 718.194 214.204 713.782 206.34 713.782C199.434 713.782 194.639 717.139 193.488 723.277H186.295C187.542 714.262 195.022 707.74 206.34 707.74C218.616 707.74 225.425 714.358 225.425 725.291V748.789C225.425 751.666 225.713 755.79 225.905 756.941V757.133H218.52C218.424 755.502 218.424 753.009 218.424 750.707H216.889C214.204 755.79 208.258 758.571 201.352 758.571ZM192.049 743.61C192.049 749.46 196.749 752.721 202.983 752.721C212.574 752.721 218.424 745.72 218.424 738.814V733.06L206.723 734.403C197.996 735.458 192.049 737.567 192.049 743.61Z" fill="#0A0B0D"/>
<path d="M134.488 757.133V690.956H141.777V715.796H143.216C146.285 710.521 151.656 707.74 157.986 707.74C167.96 707.74 174.674 714.645 174.674 725.579V757.133H167.385V727.689C167.385 719.92 163.548 714.358 155.396 714.358C147.34 714.358 141.777 720.688 141.777 727.689V757.133H134.488Z" fill="#0A0B0D"/>
<path d="M102.332 758.571C89.0964 758.571 77.7793 749.172 77.7793 733.156C77.7793 717.139 89.0964 707.74 102.332 707.74C113.457 707.74 122.184 713.974 124.678 724.812H117.389C115.279 718.002 109.621 714.262 102.332 714.262C93.3163 714.262 85.356 721.071 85.356 733.156C85.356 745.24 93.3163 752.05 102.332 752.05C109.621 752.05 115.375 748.213 117.581 741.116H124.966C122.472 751.954 113.745 758.571 102.332 758.571Z" fill="#0A0B0D"/>
<path d="M18.8772 757.132C16.9591 757.132 16 756.173 16 754.255V712.056C16 710.138 16.9591 709.179 18.8772 709.179H61.0765C62.9947 709.179 63.9538 710.138 63.9538 712.056V754.255C63.9538 756.173 62.9947 757.132 61.0765 757.132H18.8772Z" fill="#0000FF"/>
<path d="M408.927 843.952C403.844 843.952 401.254 841.171 401.254 836.088V801.178H392.047V795.519H401.35V782.572H408.255V795.519H420.627V801.178H408.447V834.266C408.447 837.047 409.502 838.006 412.283 838.006H420.627V843.952H408.927Z" fill="#0A0B0D"/>
<path d="M345.605 843.473V795.519H352.894V802.137H354.333C357.402 796.862 362.773 794.081 369.103 794.081C379.077 794.081 385.791 800.986 385.791 811.92V843.473H378.502V814.03C378.502 806.261 374.665 800.698 366.513 800.698C358.457 800.698 352.894 807.028 352.894 814.03V843.473H345.605Z" fill="#0A0B0D"/>
<path d="M312.661 844.911C300.385 844.911 292.809 837.431 292.809 824.387V795.519H300.098V824.291C300.098 832.539 304.413 838.39 312.661 838.39C320.91 838.39 325.225 832.539 325.225 824.291V795.519H332.514V824.483C332.514 837.431 324.938 844.911 312.661 844.911Z" fill="#0A0B0D"/>
<path d="M258.893 844.912C244.315 844.912 234.053 834.074 234.053 819.4C234.053 804.822 244.315 794.081 258.893 794.081C273.279 794.081 283.637 804.822 283.637 819.4C283.637 834.074 273.279 844.912 258.893 844.912ZM258.893 838.39C269.059 838.39 276.06 830.238 276.06 819.4C276.06 808.755 269.059 800.603 258.893 800.603C248.631 800.603 241.629 808.755 241.629 819.4C241.629 830.238 248.631 838.39 258.893 838.39Z" fill="#0A0B0D"/>
<path d="M205.921 844.912C192.686 844.912 181.369 835.513 181.369 819.496C181.369 803.48 192.686 794.081 205.921 794.081C217.047 794.081 225.774 800.315 228.268 811.152H220.979C218.869 804.343 213.21 800.603 205.921 800.603C196.906 800.603 188.946 807.412 188.946 819.496C188.946 831.581 196.906 838.39 205.921 838.39C213.21 838.39 218.965 834.554 221.171 827.457H228.556C226.062 838.294 217.334 844.912 205.921 844.912Z" fill="#0A0B0D"/>
<path d="M153.146 844.912C139.911 844.912 128.594 835.513 128.594 819.496C128.594 803.48 139.911 794.081 153.146 794.081C164.271 794.081 172.999 800.315 175.493 811.152H168.204C166.094 804.343 160.435 800.603 153.146 800.603C144.131 800.603 136.17 807.412 136.17 819.496C136.17 831.581 144.131 838.39 153.146 838.39C160.435 838.39 166.19 834.554 168.395 827.457H175.78C173.287 838.294 164.559 844.912 153.146 844.912Z" fill="#0A0B0D"/>
<path d="M95.1375 844.912C85.7386 844.912 78.2578 839.445 78.2578 830.334C78.2578 819.784 87.369 816.715 97.9189 815.564L112.209 814.03V811.44C112.209 804.535 107.989 800.123 100.125 800.123C93.2194 800.123 88.424 803.48 87.2731 809.618H80.0801C81.3269 800.603 88.8076 794.081 100.125 794.081C112.401 794.081 119.21 800.698 119.21 811.632V835.129C119.21 838.006 119.498 842.131 119.69 843.281V843.473H112.305C112.209 841.843 112.209 839.349 112.209 837.047H110.675C107.989 842.131 102.043 844.912 95.1375 844.912ZM85.8345 829.95C85.8345 835.801 90.534 839.061 96.768 839.061C106.359 839.061 112.209 832.06 112.209 825.155V819.4L100.508 820.743C91.7808 821.798 85.8345 823.908 85.8345 829.95Z" fill="#0A0B0D"/>
<path d="M18.8772 843.473C16.9591 843.473 16 842.514 16 840.596V798.396C16 796.478 16.9591 795.519 18.8772 795.519H61.0765C62.9947 795.519 63.9538 796.478 63.9538 798.396V840.596C63.9538 842.514 62.9947 843.473 61.0765 843.473H18.8772Z" fill="#0000FF"/>
<path d="M185.277 936.526V930.58H192.853C197.073 930.58 198.32 929.237 199.951 925.017L202.156 919.167L183.742 870.35H191.415L205.13 909.384H206.568L220.954 870.35H228.627L205.034 929.525C202.828 934.991 199.951 936.526 193.908 936.526H185.277Z" fill="#0A0B0D"/>
<path d="M153.63 919.742C144.231 919.742 136.75 914.276 136.75 905.164C136.75 894.615 145.861 891.546 156.411 890.395L170.701 888.86V886.271C170.701 879.365 166.481 874.954 158.617 874.954C151.712 874.954 146.916 878.31 145.765 884.448H138.572C139.819 875.433 147.3 868.911 158.617 868.911C170.893 868.911 177.703 875.529 177.703 886.462V909.96C177.703 912.837 177.99 916.961 178.182 918.112V918.304H170.797C170.701 916.673 170.701 914.18 170.701 911.878H169.167C166.481 916.961 160.535 919.742 153.63 919.742ZM144.327 904.781C144.327 910.631 149.026 913.892 155.26 913.892C164.851 913.892 170.701 906.891 170.701 899.985V894.231L159.001 895.574C150.273 896.629 144.327 898.739 144.327 904.781Z" fill="#0A0B0D"/>
<path d="M107.222 868.911C120.841 868.911 130.144 879.749 130.144 894.039C130.144 908.809 120.266 919.742 106.839 919.742C99.6457 919.742 93.3158 916.386 90.4385 910.248H88.9999V936.526H81.7109V870.35H88.9999V878.598H90.4385C93.4117 872.364 99.7416 868.911 107.222 868.911ZM105.688 875.337C96.0971 875.337 88.8081 883.393 88.8081 894.327C88.8081 905.26 96.0971 913.317 105.688 913.317C116.046 913.317 122.568 904.877 122.568 894.327C122.568 883.777 115.854 875.337 105.688 875.337Z" fill="#0A0B0D"/>
<path d="M18.8772 918.304C16.9591 918.304 16 917.344 16 915.426V873.227C16 871.309 16.9591 870.35 18.8772 870.35H61.0765C62.9947 870.35 63.9538 871.309 63.9538 873.227V915.426C63.9538 917.344 62.9947 918.304 61.0765 918.304H18.8772Z" fill="#0000FF"/>
</svg>
