<svg width="1022" height="576" viewBox="0 0 1022 576" fill="none" xmlns="http://www.w3.org/2000/svg">
<rect width="1022" height="576" rx="8" fill="#FAFAFA"/>
<path d="M821.801 257.107C842.712 257.107 856.997 273.747 856.997 295.69C856.997 318.368 841.829 335.156 821.212 335.156C810.167 335.156 800.448 330.002 796.03 320.577H793.821V360.927H782.629V259.316H793.821V271.98H796.03C800.595 262.408 810.314 257.107 821.801 257.107ZM819.445 266.973C804.718 266.973 793.526 279.343 793.526 296.131C793.526 312.919 804.718 325.29 819.445 325.29C835.349 325.29 845.363 312.33 845.363 296.131C845.363 279.932 835.055 266.973 819.445 266.973Z" fill="#0A0B0D"/>
<path d="M731.987 257.107C752.899 257.107 767.183 273.747 767.183 295.69C767.183 318.368 752.015 335.156 731.398 335.156C720.354 335.156 710.634 330.002 706.216 320.577H704.007V360.927H692.815V259.316H704.007V271.98H706.216C710.782 262.408 720.501 257.107 731.987 257.107ZM729.631 266.973C714.905 266.973 703.713 279.343 703.713 296.131C703.713 312.919 714.905 325.29 729.631 325.29C745.536 325.29 755.55 312.33 755.55 296.131C755.55 279.932 745.241 266.973 729.631 266.973Z" fill="#0A0B0D"/>
<path d="M635.411 335.156C620.98 335.156 609.493 326.762 609.493 312.772C609.493 296.573 623.483 291.861 639.682 290.094L661.624 287.737V283.761C661.624 273.158 655.145 266.384 643.069 266.384C632.466 266.384 625.103 271.538 623.336 280.963H612.291C614.206 267.121 625.692 257.107 643.069 257.107C661.919 257.107 672.375 267.268 672.375 284.056V320.135C672.375 324.553 672.816 330.886 673.111 332.653V332.947H661.772C661.624 330.444 661.624 326.615 661.624 323.081H659.268C655.145 330.886 646.014 335.156 635.411 335.156ZM621.127 312.183C621.127 321.166 628.343 326.173 637.915 326.173C652.641 326.173 661.624 315.423 661.624 304.82V295.984L643.658 298.046C630.257 299.666 621.127 302.906 621.127 312.183Z" fill="#0A0B0D"/>
<path d="M320.438 335.156C312.339 335.156 304.534 332.211 299.969 324.406H297.318V332.947H278.91V231.336H297.318V268.299H299.969C304.681 260.199 313.517 257.107 321.469 257.107C341.35 257.107 354.751 273.011 354.751 295.395C354.751 318.221 340.024 335.156 320.438 335.156ZM316.462 318.663C327.802 318.663 335.901 309.385 335.901 296.132C335.901 282.878 327.654 273.6 316.462 273.6C305.418 273.6 297.318 282.436 297.318 296.132C297.318 309.827 305.418 318.663 316.462 318.663ZM388.769 335.156C374.631 335.156 363.145 326.615 363.145 312.625C363.145 296.132 375.809 290.83 391.125 289.21L412.772 287.001V282.878C412.772 276.546 407.618 272.128 398.488 272.128C389.799 272.128 384.792 275.956 383.173 281.7H365.501C367.268 267.71 378.902 257.107 398.488 257.107C417.338 257.107 429.855 266.237 429.855 284.056V319.988C429.855 324.553 430.297 330.886 430.591 332.653V332.947H412.92C412.772 330.444 412.772 328.088 412.772 325.584H410.122C405.557 332.947 397.604 335.156 388.769 335.156ZM393.775 321.314C405.851 321.314 412.772 312.183 412.772 302.906V299.224L396.573 301.138C386.56 302.317 381.7 305.262 381.7 311.741C381.7 317.779 386.707 321.314 393.775 321.314ZM474.034 335.156C455.479 335.156 442.225 325.879 440.163 311.3H458.277C460.338 317.779 467.113 320.577 474.181 320.577C481.397 320.577 487.288 317.485 487.288 312.036C487.288 306.587 481.692 305.115 474.034 303.789L466.229 302.464C451.503 299.96 442.372 293.775 442.372 280.522C442.372 266.09 455.037 257.107 472.561 257.107C489.644 257.107 500.983 265.059 504.076 278.902H486.404C484.342 273.453 478.894 271.244 472.709 271.244C465.198 271.244 460.338 274.484 460.338 279.049C460.338 283.761 464.167 285.234 472.12 286.559L479.924 287.885C494.209 290.241 505.106 296.132 505.106 310.416C505.106 326.026 492.147 335.156 474.034 335.156ZM551.2 335.156C528.521 335.156 513.5 319.694 513.5 295.984C513.5 272.717 529.405 257.107 551.347 257.107C574.32 257.107 587.574 274.189 587.574 296.721V299.96H531.467C532.35 312.183 540.891 319.399 551.2 319.399C559.741 319.399 564.895 316.454 567.399 311.3H586.249C582.42 325.142 568.724 335.156 551.2 335.156ZM569.608 287.738C568.135 277.871 560.33 272.128 551.2 272.128C541.628 272.128 533.528 277.724 531.761 287.738H569.608Z" fill="#0A0B0D"/>
<path d="M181.384 332.947C178.438 332.947 176.966 331.475 176.966 328.529V263.734C176.966 260.788 178.438 259.316 181.384 259.316H246.18C249.125 259.316 250.597 260.788 250.597 263.734V328.529C250.597 331.475 249.125 332.947 246.18 332.947H181.384Z" fill="#0000FF"/>
</svg>
