<svg width="671" height="520" viewBox="0 0 671 520" fill="none" xmlns="http://www.w3.org/2000/svg">
<g clip-path="url(#clip0_3484_7999)">
<rect width="671" height="520" rx="8" fill="#FAFAFA"/>
<line y1="-0.214968" x2="803.324" y2="-0.214968" transform="matrix(0.999999 -0.00106761 0.00101108 0.999999 -46.3242 280.037)" stroke="#FF0000" stroke-width="0.429935"/>
<line y1="-0.214968" x2="803.324" y2="-0.214968" transform="matrix(0.999999 -0.00106761 0.00101108 0.999999 -48 219.455)" stroke="#FF0000" stroke-width="0.429935"/>
<path d="M449.931 281.024C435.405 281.024 425.115 274.245 423.299 262.382H432.378C434.315 270.493 441.457 273.519 449.931 273.519C458.163 273.519 465.184 269.524 465.184 263.108C465.184 256.571 459.979 254.15 452.11 252.819L444.605 251.608C433.589 249.914 425.599 245.677 425.599 234.782C425.599 224.25 435.042 216.866 448.6 216.866C461.068 216.866 470.631 222.555 473.173 234.177H464.216C462.158 227.64 456.831 224.25 448.6 224.25C440.368 224.25 434.8 228.487 434.8 234.177C434.8 240.108 439.036 242.166 447.389 243.498L454.894 244.708C465.668 246.282 474.384 250.882 474.384 262.382C474.384 273.64 463.852 281.024 449.931 281.024ZM510.596 281.024C495.101 281.024 485.538 271.582 485.538 255.119V218.682H494.738V254.998C494.738 265.408 500.185 272.793 510.596 272.793C521.007 272.793 526.454 265.408 526.454 254.998V218.682H535.654V255.24C535.654 271.582 526.091 281.024 510.596 281.024ZM583.897 281.024C575.423 281.024 567.07 277.272 563.197 269.04H561.381V279.208H552.181V195.682H561.381V229.455H563.197C566.949 221.345 575.06 216.866 584.381 216.866C601.571 216.866 613.434 230.545 613.434 248.582C613.434 267.224 601.086 281.024 583.897 281.024ZM582.565 272.914C595.518 272.914 603.871 262.261 603.871 248.945C603.871 235.629 595.276 224.977 582.565 224.977C570.339 224.977 561.139 235.145 561.139 248.945C561.139 262.745 570.339 272.914 582.565 272.914Z" fill="#0A0B0D"/>
<path d="M152.953 178.376L155.175 174.874L153.103 171.472H154.344L155.755 173.984H155.915L157.346 171.472H158.526L156.445 174.834L158.647 178.376H157.406L155.875 175.714H155.705L154.134 178.376H152.953Z" fill="#0A0B0D"/>
<path d="M162.914 178.571L162.914 187.893" stroke="#0A0B0D" stroke-width="0.728262"/>
<path d="M147.879 178.571L147.879 187.893" stroke="#0A0B0D" stroke-width="0.728262"/>
<path d="M162.914 183.231L147.951 183.231" stroke="#0A0B0D" stroke-width="0.728262"/>
<path d="M121.188 314.855V313.843H123.047V308.739H122.86L121.441 309.553V308.453L123.19 307.43H124.202V313.843H125.951V314.855H121.188ZM130.291 314.855V313.447H131.721V314.855H130.291ZM138.548 315.02C137.063 315.02 136.095 314.162 135.864 312.919H137.063C137.228 313.513 137.734 313.986 138.559 313.986C139.461 313.986 140.055 313.315 140.055 312.424C140.055 311.544 139.516 310.862 138.581 310.862C137.723 310.862 137.25 311.434 137.118 311.907L135.952 311.863L136.183 307.43H140.682V308.475H137.129L137.019 310.73H137.206C137.492 310.246 138.075 309.872 138.922 309.872C140.33 309.872 141.232 310.961 141.232 312.413C141.232 313.942 140.099 315.02 138.548 315.02ZM142.834 314.855L145.276 311.005L142.999 307.265H144.363L145.914 310.026H146.09L147.663 307.265H148.961L146.673 310.961L149.093 314.855H147.729L146.046 311.929H145.859L144.132 314.855H142.834Z" fill="#0A0B0D"/>
<path d="M147.875 292.203L147.875 301.524" stroke="#0A0B0D" stroke-width="0.728262"/>
<path d="M147.875 296.863L129.417 296.863" stroke="#0A0B0D" stroke-width="0.728262"/>
<path d="M125.367 292.203L125.367 301.524" stroke="#0A0B0D" stroke-width="0.728262"/>
<path d="M136.613 296.863L125.42 296.863" stroke="#0A0B0D" stroke-width="0.728262"/>
<path d="M400.946 318V316.988H402.805V311.884H402.618L401.199 312.698V311.598L402.948 310.575H403.96V316.988H405.709V318H400.946ZM410.049 318V316.592H411.479V318H410.049ZM418.306 318.165C416.821 318.165 415.853 317.307 415.622 316.064H416.821C416.986 316.658 417.492 317.131 418.317 317.131C419.219 317.131 419.813 316.46 419.813 315.569C419.813 314.689 419.274 314.007 418.339 314.007C417.481 314.007 417.008 314.579 416.876 315.052L415.71 315.008L415.941 310.575H420.44V311.62H416.887L416.777 313.875H416.964C417.25 313.391 417.833 313.017 418.68 313.017C420.088 313.017 420.99 314.106 420.99 315.558C420.99 317.087 419.857 318.165 418.306 318.165ZM422.592 318L425.034 314.15L422.757 310.41H424.121L425.672 313.171H425.848L427.421 310.41H428.719L426.431 314.106L428.851 318H427.487L425.804 315.074H425.617L423.89 318H422.592ZM391.888 334.749C390.832 333.539 390.139 331.966 390.139 329.986C390.139 328.017 390.832 326.444 391.888 325.245H393.065C391.789 326.697 391.338 328.435 391.338 329.986C391.338 331.559 391.789 333.286 393.065 334.749H391.888ZM396.009 333L398.275 325.41H400.013L402.202 333H400.992L400.475 331.075H397.725L397.186 333H396.009ZM398 330.085H400.2L399.221 326.455H399.023L398 330.085ZM404.012 333V325.41H405.882C408.214 325.41 409.468 326.983 409.468 329.139C409.468 331.295 408.214 333 405.882 333H404.012ZM405.794 331.966C407.433 331.966 408.236 330.844 408.236 329.15C408.236 327.434 407.433 326.444 405.794 326.444H405.178V331.966H405.794ZM411.631 333.033V331.977H414.161C414.557 331.977 414.711 331.79 414.711 331.416V325.41H415.877V331.878C415.877 332.582 415.426 333.033 414.733 333.033H411.631ZM421.538 333.165C419.91 333.165 418.909 332.197 418.909 330.514V325.41H420.075V330.415C420.075 331.383 420.548 332.098 421.527 332.098C422.506 332.098 423.001 331.383 423.001 330.415V325.41H424.167V330.514C424.167 332.197 423.166 333.165 421.538 333.165ZM429.102 333.165C427.342 333.165 426.275 332.219 426.088 330.943H427.254C427.485 331.812 428.244 332.153 429.102 332.153C430.004 332.153 430.609 331.669 430.609 330.998C430.609 330.283 430.158 329.975 429.201 329.755L428.31 329.546C427.199 329.282 426.363 328.655 426.363 327.456C426.363 326.202 427.408 325.245 428.948 325.245C430.565 325.245 431.423 326.114 431.665 327.368H430.521C430.312 326.642 429.806 326.246 428.959 326.246C428.046 326.246 427.54 326.741 427.54 327.357C427.54 327.995 427.947 328.303 428.871 328.512L429.751 328.721C430.84 328.974 431.819 329.524 431.819 330.888C431.819 332.208 430.741 333.165 429.102 333.165ZM435.895 333V326.466H433.574V325.41H439.382V326.466H437.061V333H435.895ZM380.861 348.165C379.299 348.165 378.045 346.625 378.045 344.205C378.045 341.785 379.299 340.245 380.861 340.245C382.423 340.245 383.677 341.785 383.677 344.205C383.677 346.625 382.423 348.165 380.861 348.165ZM380.861 347.098C381.807 347.098 382.5 345.965 382.5 344.205C382.5 342.434 381.807 341.312 380.861 341.312C379.926 341.312 379.233 342.434 379.233 344.205C379.233 345.965 379.926 347.098 380.861 347.098ZM385.752 348V340.41H388.832C390.196 340.41 391.208 341.246 391.208 342.599C391.208 343.974 390.196 344.843 388.821 344.843H386.918V348H385.752ZM386.896 343.809H388.722C389.514 343.809 390.02 343.38 390.02 342.643C390.02 341.895 389.514 341.444 388.722 341.444H386.896V343.809ZM395.219 348V341.466H392.898V340.41H398.706V341.466H396.385V348H395.219ZM400.715 348V346.955H402.695V341.455H400.715V340.41H405.852V341.455H403.872V346.955H405.852V348H400.715ZM410.885 348.165C409.301 348.165 408.025 346.647 408.025 344.205C408.025 341.763 409.301 340.245 410.885 340.245C412.315 340.245 413.239 341.356 413.525 343.017H412.337C412.172 341.983 411.655 341.312 410.885 341.312C409.906 341.312 409.213 342.434 409.213 344.205C409.213 345.976 409.906 347.098 410.885 347.098C411.666 347.098 412.172 346.471 412.337 345.503H413.536C413.25 347.098 412.315 348.165 410.885 348.165ZM415.138 348L417.404 340.41H419.142L421.331 348H420.121L419.604 346.075H416.854L416.315 348H415.138ZM417.129 345.085H419.329L418.35 341.455H418.152L417.129 345.085ZM423.296 348V340.41H424.462V346.955H428.444V348H423.296ZM430.771 348V340.41H431.937V346.955H435.919V348H430.771ZM440.106 348V345.294L437.565 340.41H438.885L440.623 344.073H440.799L442.526 340.41H443.78L441.239 345.294V348H440.106ZM447.89 340.245C448.946 341.455 449.639 343.028 449.639 345.008C449.639 346.977 448.946 348.55 447.89 349.749H446.713C447.989 348.297 448.44 346.559 448.44 345.008C448.44 343.435 447.989 341.708 446.713 340.245H447.89Z" fill="#0A0B0D"/>
<path d="M426.48 292.203L426.48 301.524" stroke="#0A0B0D" stroke-width="0.728262"/>
<path d="M426.48 296.863L408.023 296.863" stroke="#0A0B0D" stroke-width="0.728262"/>
<path d="M403.973 292.203L403.973 301.524" stroke="#0A0B0D" stroke-width="0.728262"/>
<path d="M415.223 296.863L404.029 296.863" stroke="#0A0B0D" stroke-width="0.728262"/>
<path d="M485.778 317.735V310.145H488.605C490.024 310.145 490.97 310.805 490.97 312.07C490.97 312.961 490.519 313.467 489.771 313.72V313.896C490.717 314.094 491.212 314.677 491.212 315.678C491.212 317.009 490.178 317.735 488.792 317.735H485.778ZM488.726 316.712C489.507 316.712 490.024 316.283 490.024 315.524C490.024 314.798 489.507 314.369 488.726 314.369H486.944V316.712H488.726ZM486.944 313.423H488.484C489.265 313.423 489.782 313.005 489.782 312.29C489.782 311.564 489.254 311.157 488.484 311.157H486.944V313.423ZM492.715 317.735L494.981 310.145H496.719L498.908 317.735H497.698L497.181 315.81H494.431L493.892 317.735H492.715ZM494.706 314.82H496.906L495.927 311.19H495.729L494.706 314.82ZM503.38 317.9C501.62 317.9 500.553 316.954 500.366 315.678H501.532C501.763 316.547 502.522 316.888 503.38 316.888C504.282 316.888 504.887 316.404 504.887 315.733C504.887 315.018 504.436 314.71 503.479 314.49L502.588 314.281C501.477 314.017 500.641 313.39 500.641 312.191C500.641 310.937 501.686 309.98 503.226 309.98C504.843 309.98 505.701 310.849 505.943 312.103H504.799C504.59 311.377 504.084 310.981 503.237 310.981C502.324 310.981 501.818 311.476 501.818 312.092C501.818 312.73 502.225 313.038 503.149 313.247L504.029 313.456C505.118 313.709 506.097 314.259 506.097 315.623C506.097 316.943 505.019 317.9 503.38 317.9ZM508.348 317.735V310.145H513.309V311.19H509.514V313.302H512.748V314.336H509.514V316.69H513.408V317.735H508.348ZM525.807 317.9C524.047 317.9 522.98 316.954 522.793 315.678H523.959C524.19 316.547 524.949 316.888 525.807 316.888C526.709 316.888 527.314 316.404 527.314 315.733C527.314 315.018 526.863 314.71 525.906 314.49L525.015 314.281C523.904 314.017 523.068 313.39 523.068 312.191C523.068 310.937 524.113 309.98 525.653 309.98C527.27 309.98 528.128 310.849 528.37 312.103H527.226C527.017 311.377 526.511 310.981 525.664 310.981C524.751 310.981 524.245 311.476 524.245 312.092C524.245 312.73 524.652 313.038 525.576 313.247L526.456 313.456C527.545 313.709 528.524 314.259 528.524 315.623C528.524 316.943 527.446 317.9 525.807 317.9ZM530.093 317.735L532.359 310.145H534.097L536.286 317.735H535.076L534.559 315.81H531.809L531.27 317.735H530.093ZM532.084 314.82H534.284L533.305 311.19H533.107L532.084 314.82ZM538.108 317.735V310.145H540.132L541.969 316.58H542.178V310.145H543.234V317.735H541.21L539.373 311.3H539.164V317.735H538.108ZM548.235 317.9C546.475 317.9 545.408 316.954 545.221 315.678H546.387C546.618 316.547 547.377 316.888 548.235 316.888C549.137 316.888 549.742 316.404 549.742 315.733C549.742 315.018 549.291 314.71 548.334 314.49L547.443 314.281C546.332 314.017 545.496 313.39 545.496 312.191C545.496 310.937 546.541 309.98 548.081 309.98C549.698 309.98 550.556 310.849 550.798 312.103H549.654C549.445 311.377 548.939 310.981 548.092 310.981C547.179 310.981 546.673 311.476 546.673 312.092C546.673 312.73 547.08 313.038 548.004 313.247L548.884 313.456C549.973 313.709 550.952 314.259 550.952 315.623C550.952 316.943 549.874 317.9 548.235 317.9ZM501.312 332.735V325.145H502.478V331.69H506.46V332.735H501.312ZM508.634 332.735V331.69H510.614V326.19H508.634V325.145H513.771V326.19H511.791V331.69H513.771V332.735H508.634ZM518.761 332.9C517.078 332.9 515.868 331.349 515.868 328.94C515.868 326.553 517.155 324.98 518.739 324.98C520.158 324.98 521.126 326.047 521.379 327.62H520.191C520.026 326.685 519.498 326.047 518.739 326.047C517.76 326.047 517.056 327.169 517.056 328.94C517.056 330.7 517.727 331.833 518.783 331.833C519.729 331.833 520.235 330.986 520.29 329.732H518.783V328.742H521.434V329.391C521.434 331.635 520.345 332.9 518.761 332.9ZM527.556 332.735V329.402H524.762V332.735H523.596V325.145H524.762V328.357H527.556V325.145H528.722V332.735H527.556ZM533.041 332.735V326.201H530.72V325.145H536.528V326.201H534.207V332.735H533.041ZM482.744 345.304V344.27H486.462V345.304H482.744ZM489.648 347.735V346.58L492.035 344.523C493.025 343.665 493.421 343.137 493.421 342.422C493.421 341.663 492.893 341.19 492.189 341.19C491.452 341.19 490.825 341.641 490.737 342.499H489.538C489.681 341.069 490.792 340.145 492.222 340.145C493.608 340.145 494.631 341.036 494.631 342.422C494.631 343.577 493.894 344.314 492.695 345.304L491.221 346.525V346.701H494.829V347.735H489.648ZM497.905 343.72C497.003 343.72 496.541 342.95 496.541 341.883C496.541 340.816 497.003 340.068 497.905 340.068C498.818 340.068 499.28 340.816 499.28 341.883C499.28 342.95 498.818 343.72 497.905 343.72ZM497.905 343.071C498.345 343.071 498.532 342.598 498.532 341.883C498.532 341.19 498.345 340.717 497.905 340.717C497.454 340.717 497.278 341.19 497.278 341.883C497.278 342.598 497.454 343.071 497.905 343.071ZM496.618 347.735L501.645 340.145H502.492L497.465 347.735H496.618ZM501.194 347.812C500.292 347.812 499.83 347.042 499.83 345.975C499.83 344.908 500.292 344.16 501.194 344.16C502.107 344.16 502.569 344.908 502.569 345.975C502.569 347.042 502.107 347.812 501.194 347.812ZM501.194 347.163C501.634 347.163 501.821 346.69 501.821 345.975C501.821 345.282 501.634 344.809 501.194 344.809C500.743 344.809 500.567 345.282 500.567 345.975C500.567 346.69 500.743 347.163 501.194 347.163ZM512.086 347.735V340.145H513.252V346.69H517.234V347.735H512.086ZM519.562 347.735V340.145H524.523V341.19H520.728V343.302H523.962V344.336H520.728V346.69H524.622V347.735H519.562ZM528.863 347.735V341.201H526.542V340.145H532.35V341.201H530.029V347.735H528.863ZM536.339 347.735V341.201H534.018V340.145H539.826V341.201H537.505V347.735H536.339ZM541.989 347.735V340.145H546.95V341.19H543.155V343.302H546.389V344.336H543.155V346.69H547.049V347.735H541.989ZM549.332 347.735V340.145H552.39C553.765 340.145 554.678 340.86 554.678 342.114C554.678 342.983 554.249 343.566 553.468 343.83V344.006C554.249 344.171 554.568 344.589 554.59 345.326L554.667 347.735H553.49L553.435 345.546C553.413 344.809 553.061 344.501 552.335 344.501H550.498V347.735H549.332ZM550.487 343.5H552.192C552.984 343.5 553.501 343.06 553.501 342.334C553.501 341.597 552.984 341.168 552.192 341.168H550.487V343.5ZM496.345 362.9C494.585 362.9 493.518 361.954 493.331 360.678H494.497C494.728 361.547 495.487 361.888 496.345 361.888C497.247 361.888 497.852 361.404 497.852 360.733C497.852 360.018 497.401 359.71 496.444 359.49L495.553 359.281C494.442 359.017 493.606 358.39 493.606 357.191C493.606 355.937 494.651 354.98 496.191 354.98C497.808 354.98 498.666 355.849 498.908 357.103H497.764C497.555 356.377 497.049 355.981 496.202 355.981C495.289 355.981 494.783 356.476 494.783 357.092C494.783 357.73 495.19 358.038 496.114 358.247L496.994 358.456C498.083 358.709 499.062 359.259 499.062 360.623C499.062 361.943 497.984 362.9 496.345 362.9ZM501.147 362.735V355.145H504.227C505.591 355.145 506.603 355.981 506.603 357.334C506.603 358.709 505.591 359.578 504.216 359.578H502.313V362.735H501.147ZM502.291 358.544H504.117C504.909 358.544 505.415 358.115 505.415 357.378C505.415 356.63 504.909 356.179 504.117 356.179H502.291V358.544ZM508.106 362.735L510.372 355.145H512.11L514.299 362.735H513.089L512.572 360.81H509.822L509.283 362.735H508.106ZM510.097 359.82H512.297L511.318 356.19H511.12L510.097 359.82ZM518.805 362.9C517.221 362.9 515.945 361.382 515.945 358.94C515.945 356.498 517.221 354.98 518.805 354.98C520.235 354.98 521.159 356.091 521.445 357.752H520.257C520.092 356.718 519.575 356.047 518.805 356.047C517.826 356.047 517.133 357.169 517.133 358.94C517.133 360.711 517.826 361.833 518.805 361.833C519.586 361.833 520.092 361.206 520.257 360.238H521.456C521.17 361.833 520.235 362.9 518.805 362.9ZM523.585 362.735V361.69H525.565V356.19H523.585V355.145H528.722V356.19H526.742V361.69H528.722V362.735H523.585ZM531.072 362.735V355.145H533.096L534.933 361.58H535.142V355.145H536.198V362.735H534.174L532.337 356.3H532.128V362.735H531.072ZM541.188 362.9C539.505 362.9 538.295 361.349 538.295 358.94C538.295 356.553 539.582 354.98 541.166 354.98C542.585 354.98 543.553 356.047 543.806 357.62H542.618C542.453 356.685 541.925 356.047 541.166 356.047C540.187 356.047 539.483 357.169 539.483 358.94C539.483 360.7 540.154 361.833 541.21 361.833C542.156 361.833 542.662 360.986 542.717 359.732H541.21V358.742H543.861V359.391C543.861 361.635 542.772 362.9 541.188 362.9Z" fill="#0A0B0D"/>
<path d="M475.754 292.203L475.754 301.327" stroke="#0A0B0D" stroke-width="0.728262"/>
<path d="M562.137 292.203L562.137 301.327" stroke="#0A0B0D" stroke-width="0.728262"/>
<path d="M562.137 300.962H475.757" stroke="#0A0B0D" stroke-width="0.728262"/>
<path d="M182.627 281.753C175.926 281.753 169.469 279.317 165.692 272.86H163.499V279.926H148.27V195.86H163.499V226.441H165.692C169.591 219.74 176.901 217.181 183.48 217.181C199.927 217.181 211.014 230.339 211.014 248.858C211.014 267.743 198.831 281.753 182.627 281.753ZM179.337 268.108C188.718 268.108 195.419 260.432 195.419 249.467C195.419 238.502 188.597 230.827 179.337 230.827C170.2 230.827 163.499 238.137 163.499 249.467C163.499 260.798 170.2 268.108 179.337 268.108ZM239.158 281.753C227.462 281.753 217.959 274.687 217.959 263.113C217.959 249.467 228.436 245.081 241.107 243.741L259.017 241.914V238.502C259.017 233.263 254.753 229.608 247.199 229.608C240.011 229.608 235.868 232.776 234.528 237.528H219.908C221.37 225.953 230.995 217.181 247.199 217.181C262.794 217.181 273.15 224.735 273.15 239.477V269.205C273.15 272.981 273.515 278.22 273.759 279.682V279.926H259.139C259.017 277.855 259.017 275.905 259.017 273.834H256.824C253.047 279.926 246.468 281.753 239.158 281.753ZM243.3 270.301C253.291 270.301 259.017 262.747 259.017 255.072V252.026L245.615 253.61C237.33 254.584 233.31 257.021 233.31 262.382C233.31 267.377 237.452 270.301 243.3 270.301ZM309.7 281.753C294.349 281.753 283.384 274.078 281.678 262.016H296.664C298.369 267.377 303.974 269.692 309.822 269.692C315.792 269.692 320.665 267.133 320.665 262.625C320.665 258.118 316.035 256.899 309.7 255.803L303.243 254.706C291.059 252.635 283.505 247.518 283.505 236.553C283.505 224.613 293.983 217.181 308.481 217.181C322.614 217.181 331.995 223.76 334.554 235.213H319.934C318.228 230.705 313.72 228.877 308.603 228.877C302.39 228.877 298.369 231.558 298.369 235.335C298.369 239.233 301.537 240.452 308.116 241.548L314.573 242.645C326.391 244.594 335.407 249.467 335.407 261.285C335.407 274.2 324.685 281.753 309.7 281.753ZM373.541 281.753C354.778 281.753 342.351 268.961 342.351 249.346C342.351 230.096 355.509 217.181 373.663 217.181C392.669 217.181 403.634 231.314 403.634 249.955V252.635H357.215C357.946 262.747 365.013 268.717 373.541 268.717C380.607 268.717 384.872 266.281 386.943 262.016H402.537C399.37 273.469 388.039 281.753 373.541 281.753ZM388.77 242.523C387.552 234.36 381.095 229.608 373.541 229.608C365.622 229.608 358.921 234.238 357.459 242.523H388.77Z" fill="#0A0B0D"/>
<path d="M67.5847 279.926C65.148 279.926 63.9297 278.708 63.9297 276.271V222.664C63.9297 220.227 65.148 219.009 67.5847 219.009H121.192C123.628 219.009 124.847 220.227 124.847 222.664V276.271C124.847 278.708 123.628 279.926 121.192 279.926H67.5847Z" fill="#0000FF"/>
</g>
<defs>
<clipPath id="clip0_3484_7999">
<rect width="671" height="520" rx="8" fill="white"/>
</clipPath>
</defs>
</svg>
