<svg width="320" height="252" viewBox="0 0 320 252" fill="none" xmlns="http://www.w3.org/2000/svg">
<rect width="320" height="252" rx="8" fill="#FAFAFA"/>
<rect x="27.75" y="82" width="263.5" height="139" rx="4" fill="white"/>
<path d="M52.1 107.225C49.145 107.225 46.91 104.99 46.91 101.84C46.91 98.705 49.145 96.425 52.145 96.425C54.59 96.425 56.39 97.82 56.93 100.025H55.235C54.785 98.735 53.72 97.88 52.16 97.88C50.03 97.88 48.59 99.56 48.59 101.825C48.59 104.06 50.03 105.77 52.16 105.77C54.095 105.77 55.355 104.57 55.475 102.905H52.265V101.555H57.11V102.47C57.11 105.365 54.92 107.225 52.1 107.225ZM62.053 107.225C59.728 107.225 58.228 105.605 58.228 103.235C58.228 100.91 59.788 99.275 62.023 99.275C64.318 99.275 65.683 100.985 65.683 103.25V103.505H59.713C59.773 104.96 60.748 105.905 62.053 105.905C63.058 105.905 63.703 105.545 64.018 104.84H65.578C65.158 106.235 63.823 107.225 62.053 107.225ZM59.758 102.47H64.168C64.033 101.3 63.193 100.535 62.023 100.535C60.883 100.535 59.953 101.24 59.758 102.47ZM68.913 107.06C68.133 107.06 67.683 106.595 67.683 105.785V100.67H66.273V99.5H67.713V97.475H69.168V99.5H71.013V100.67H69.183V105.32C69.183 105.695 69.333 105.845 69.723 105.845H71.013V107.06H68.913ZM77.3728 107.06C76.5928 107.06 76.1428 106.595 76.1428 105.785V100.67H74.7328V99.5H76.1728V97.475H77.6278V99.5H79.4728V100.67H77.6428V105.32C77.6428 105.695 77.7928 105.845 78.1828 105.845H79.4728V107.06H77.3728ZM80.932 107V96.65H82.462V100.46H82.717C83.182 99.665 83.977 99.275 84.877 99.275C86.422 99.275 87.427 100.325 87.427 102.02V107H85.897V102.485C85.897 101.465 85.417 100.67 84.277 100.67C83.167 100.67 82.462 101.525 82.462 102.485V107H80.932ZM92.7385 107.225C90.4135 107.225 88.9135 105.605 88.9135 103.235C88.9135 100.91 90.4735 99.275 92.7085 99.275C95.0035 99.275 96.3685 100.985 96.3685 103.25V103.505H90.3985C90.4585 104.96 91.4335 105.905 92.7385 105.905C93.7435 105.905 94.3885 105.545 94.7035 104.84H96.2635C95.8435 106.235 94.5085 107.225 92.7385 107.225ZM90.4435 102.47H94.8535C94.7185 101.3 93.8785 100.535 92.7085 100.535C91.5685 100.535 90.6385 101.24 90.4435 102.47ZM104.553 107.225C102.228 107.225 100.728 105.605 100.728 103.235C100.728 100.91 102.288 99.275 104.523 99.275C106.818 99.275 108.183 100.985 108.183 103.25V103.505H102.213C102.273 104.96 103.248 105.905 104.553 105.905C105.558 105.905 106.203 105.545 106.518 104.84H108.078C107.658 106.235 106.323 107.225 104.553 107.225ZM102.258 102.47H106.668C106.533 101.3 105.693 100.535 104.523 100.535C103.383 100.535 102.453 101.24 102.258 102.47ZM112.671 107.225C110.601 107.225 109.191 105.575 109.191 103.31C109.191 101 110.706 99.275 112.746 99.275C113.721 99.275 114.606 99.68 115.071 100.58H115.311V96.65H116.841V107H115.311V105.935H115.071C114.591 106.805 113.646 107.225 112.671 107.225ZM113.046 105.86C114.351 105.86 115.326 104.795 115.326 103.25C115.326 101.705 114.351 100.64 113.046 100.64C111.681 100.64 110.766 101.765 110.766 103.25C110.766 104.735 111.696 105.86 113.046 105.86ZM119.616 109.85V108.59H123.771C124.386 108.59 124.611 108.35 124.611 107.78V105.59H124.356C123.891 106.58 122.916 106.985 121.941 106.985C119.826 106.985 118.416 105.395 118.416 103.19C118.416 100.955 119.961 99.275 122.091 99.275C123.021 99.275 123.876 99.665 124.341 100.58H124.596V99.5H126.036V108.125C126.036 109.235 125.436 109.85 124.281 109.85H119.616ZM122.301 105.665C123.621 105.665 124.611 104.63 124.611 103.13C124.611 101.63 123.621 100.61 122.301 100.61C120.921 100.61 119.991 101.69 119.991 103.13C119.991 104.585 120.921 105.665 122.301 105.665ZM131.437 107.225C129.112 107.225 127.612 105.605 127.612 103.235C127.612 100.91 129.172 99.275 131.407 99.275C133.702 99.275 135.067 100.985 135.067 103.25V103.505H129.097C129.157 104.96 130.132 105.905 131.437 105.905C132.442 105.905 133.087 105.545 133.402 104.84H134.962C134.542 106.235 133.207 107.225 131.437 107.225ZM129.142 102.47H133.552C133.417 101.3 132.577 100.535 131.407 100.535C130.267 100.535 129.337 101.24 129.142 102.47Z" fill="#0000FF"/>
<path d="M274.005 106.4L272.94 105.35L278.07 100.22V99.995L274.23 100.055V98.75H280.59V105.095H279.285L279.345 101.255H279.12L274.005 106.4Z" fill="#0000FF"/>
<path d="M50.045 182V173.075H46.445V171.65H55.25V173.075H51.65V182H50.045ZM54.9011 182V174.5H56.4161V175.88H56.6711C57.0611 174.92 58.0511 174.365 59.2211 174.365H59.3261V176C59.0861 175.97 58.9811 175.97 58.7411 175.97C57.4361 175.97 56.4311 176.75 56.4311 178.385V182H54.9011ZM62.4472 182.225C60.9922 182.225 59.8222 181.37 59.8222 179.945C59.8222 178.265 61.1872 177.755 62.7772 177.59L64.9972 177.35V176.945C64.9972 176.09 64.4122 175.535 63.3472 175.535C62.3722 175.535 61.7422 175.985 61.5622 176.75H60.0922C60.2722 175.325 61.4572 174.275 63.3472 174.275C65.2672 174.275 66.4372 175.25 66.4372 177.02V180.68C66.4372 181.145 66.4822 181.79 66.5122 181.97V182H65.0122C64.9972 181.745 64.9972 181.43 64.9972 181.13H64.7422C64.3072 181.895 63.4372 182.225 62.4472 182.225ZM61.3822 179.855C61.3822 180.62 61.9972 181.055 62.8372 181.055C64.2022 181.055 64.9972 180.035 64.9972 179.03V178.4L63.2722 178.61C62.0872 178.745 61.3822 179.06 61.3822 179.855ZM71.7582 182.225C69.6282 182.225 67.9032 180.665 67.9032 178.25C67.9032 175.835 69.6282 174.275 71.7582 174.275C73.5732 174.275 74.9832 175.34 75.3432 177.065H73.8282C73.5282 176.18 72.8082 175.655 71.7732 175.655C70.4982 175.655 69.4782 176.63 69.4782 178.235C69.4782 179.87 70.4982 180.845 71.7732 180.845C72.8082 180.845 73.5582 180.305 73.8582 179.375H75.3882C75.0432 181.1 73.6332 182.225 71.7582 182.225ZM76.8486 182V171.65H78.3786V177.725H78.6336L81.5586 174.5H83.3736L79.9236 178.115L83.5536 182H81.6936L78.6336 178.73H78.3786V182H76.8486ZM84.1766 184.04L85.1216 182H84.2216V180.08H86.1116V182L85.1666 184.04H84.1766ZM93.0155 182.225C91.5605 182.225 90.3905 181.37 90.3905 179.945C90.3905 178.265 91.7555 177.755 93.3455 177.59L95.5655 177.35V176.945C95.5655 176.09 94.9805 175.535 93.9155 175.535C92.9405 175.535 92.3105 175.985 92.1305 176.75H90.6605C90.8405 175.325 92.0255 174.275 93.9155 174.275C95.8355 174.275 97.0055 175.25 97.0055 177.02V180.68C97.0055 181.145 97.0505 181.79 97.0805 181.97V182H95.5805C95.5655 181.745 95.5655 181.43 95.5655 181.13H95.3105C94.8755 181.895 94.0055 182.225 93.0155 182.225ZM91.9505 179.855C91.9505 180.62 92.5655 181.055 93.4055 181.055C94.7705 181.055 95.5655 180.035 95.5655 179.03V178.4L93.8405 178.61C92.6555 178.745 91.9505 179.06 91.9505 179.855ZM99.0416 182V174.5H100.572V175.46H100.827C101.292 174.665 102.087 174.275 102.987 174.275C104.532 174.275 105.537 175.325 105.537 177.02V182H104.007V177.485C104.007 176.465 103.527 175.67 102.387 175.67C101.277 175.67 100.572 176.525 100.572 177.485V182H99.0416ZM109.693 182.225C108.238 182.225 107.068 181.37 107.068 179.945C107.068 178.265 108.433 177.755 110.023 177.59L112.243 177.35V176.945C112.243 176.09 111.658 175.535 110.593 175.535C109.618 175.535 108.988 175.985 108.808 176.75H107.338C107.518 175.325 108.703 174.275 110.593 174.275C112.513 174.275 113.683 175.25 113.683 177.02V180.68C113.683 181.145 113.728 181.79 113.758 181.97V182H112.258C112.243 181.745 112.243 181.43 112.243 181.13H111.988C111.553 181.895 110.683 182.225 109.693 182.225ZM108.628 179.855C108.628 180.62 109.243 181.055 110.083 181.055C111.448 181.055 112.243 180.035 112.243 179.03V178.4L110.518 178.61C109.333 178.745 108.628 179.06 108.628 179.855ZM115.719 182V171.65H117.249V182H115.719ZM118.718 184.85V183.62H119.993C120.563 183.62 120.803 183.41 121.013 182.84L121.253 182.165L118.373 174.5H119.978L121.868 180.14H122.123L124.058 174.5H125.648L122.123 183.59C121.778 184.505 121.283 184.85 120.218 184.85H118.718ZM126.172 182V180.425L130.462 175.985V175.745H126.322V174.5H132.202V176.06L127.912 180.515V180.74H132.367V182H126.172ZM137.011 182.225C134.686 182.225 133.186 180.605 133.186 178.235C133.186 175.91 134.746 174.275 136.981 174.275C139.276 174.275 140.641 175.985 140.641 178.25V178.505H134.671C134.731 179.96 135.706 180.905 137.011 180.905C138.016 180.905 138.661 180.545 138.976 179.84H140.536C140.116 181.235 138.781 182.225 137.011 182.225ZM134.716 177.47H139.126C138.991 176.3 138.151 175.535 136.981 175.535C135.841 175.535 134.911 176.24 134.716 177.47ZM141.801 184.04L142.746 182H141.846V180.08H143.736V182L142.791 184.04H141.801ZM150.64 182.225C149.185 182.225 148.015 181.37 148.015 179.945C148.015 178.265 149.38 177.755 150.97 177.59L153.19 177.35V176.945C153.19 176.09 152.605 175.535 151.54 175.535C150.565 175.535 149.935 175.985 149.755 176.75H148.285C148.465 175.325 149.65 174.275 151.54 174.275C153.46 174.275 154.63 175.25 154.63 177.02V180.68C154.63 181.145 154.675 181.79 154.705 181.97V182H153.205C153.19 181.745 153.19 181.43 153.19 181.13H152.935C152.5 181.895 151.63 182.225 150.64 182.225ZM149.575 179.855C149.575 180.62 150.19 181.055 151.03 181.055C152.395 181.055 153.19 180.035 153.19 179.03V178.4L151.465 178.61C150.28 178.745 149.575 179.06 149.575 179.855ZM156.666 182V174.5H158.196V175.46H158.451C158.916 174.665 159.711 174.275 160.611 174.275C162.156 174.275 163.161 175.325 163.161 177.02V182H161.631V177.485C161.631 176.465 161.151 175.67 160.011 175.67C158.901 175.67 158.196 176.525 158.196 177.485V182H156.666ZM168.128 182.225C166.058 182.225 164.648 180.575 164.648 178.31C164.648 176 166.163 174.275 168.203 174.275C169.178 174.275 170.063 174.68 170.528 175.58H170.768V171.65H172.298V182H170.768V180.935H170.528C170.048 181.805 169.103 182.225 168.128 182.225ZM168.503 180.86C169.808 180.86 170.783 179.795 170.783 178.25C170.783 176.705 169.808 175.64 168.503 175.64C167.138 175.64 166.223 176.765 166.223 178.25C166.223 179.735 167.153 180.86 168.503 180.86ZM181.874 182.225C180.944 182.225 180.029 181.85 179.564 180.95H179.309V182H177.779V171.65H179.309V175.61H179.564C180.029 174.695 180.974 174.275 181.949 174.275C184.034 174.275 185.444 175.925 185.444 178.19C185.444 180.5 183.929 182.225 181.874 182.225ZM181.574 180.86C182.939 180.86 183.869 179.735 183.869 178.25C183.869 176.765 182.924 175.64 181.574 175.64C180.269 175.64 179.294 176.705 179.294 178.25C179.294 179.795 180.269 180.86 181.574 180.86ZM190.109 182.225C188.114 182.225 186.884 181.04 186.884 178.985V174.5H188.414V178.955C188.414 180.035 188.969 180.845 190.109 180.845C191.219 180.845 191.774 180.035 191.774 178.955V174.5H193.304V178.985C193.304 181.04 192.089 182.225 190.109 182.225ZM194.675 184.85V183.62H195.95C196.52 183.62 196.76 183.41 196.97 182.84L197.21 182.165L194.33 174.5H195.935L197.825 180.14H198.08L200.015 174.5H201.605L198.08 183.59C197.735 184.505 197.24 184.85 196.175 184.85H194.675ZM205.787 182V174.5H207.317V175.46H207.572C208.022 174.68 208.787 174.275 209.732 174.275C210.707 174.275 211.472 174.71 211.877 175.49H212.147C212.642 174.71 213.392 174.275 214.457 174.275C216.107 174.275 217.142 175.355 217.142 177.065V182H215.612V177.455C215.612 176.45 215.162 175.67 214.022 175.67C212.957 175.67 212.222 176.465 212.222 177.38V182H210.692V177.485C210.692 176.48 210.227 175.67 209.087 175.67C208.022 175.67 207.317 176.51 207.317 177.44V182H205.787ZM219.187 182V174.5H220.717V182H219.187ZM219.172 173.285V171.65H220.732V173.285H219.172ZM222.845 182V171.65H224.375V182H222.845ZM226.504 182V171.65H228.034V182H226.504ZM230.163 182V174.5H231.693V182H230.163ZM230.148 173.285V171.65H231.708V173.285H230.148ZM237.151 182.225C234.901 182.225 233.251 180.545 233.251 178.25C233.251 175.955 234.901 174.275 237.151 174.275C239.386 174.275 241.051 175.955 241.051 178.25C241.051 180.545 239.386 182.225 237.151 182.225ZM237.151 180.845C238.501 180.845 239.476 179.765 239.476 178.25C239.476 176.735 238.501 175.655 237.151 175.655C235.771 175.655 234.826 176.735 234.826 178.25C234.826 179.765 235.771 180.845 237.151 180.845ZM242.607 182V174.5H244.137V175.46H244.392C244.857 174.665 245.652 174.275 246.552 174.275C248.097 174.275 249.102 175.325 249.102 177.02V182H247.572V177.485C247.572 176.465 247.092 175.67 245.952 175.67C244.842 175.67 244.137 176.525 244.137 177.485V182H242.607ZM253.858 182.225C251.998 182.225 250.693 181.325 250.468 179.855H251.983C252.208 180.665 252.988 180.995 253.858 180.995C254.728 180.995 255.463 180.605 255.463 179.93C255.463 179.255 254.848 179.03 253.978 178.895L253.123 178.745C251.683 178.52 250.723 177.935 250.723 176.585C250.723 175.19 251.953 174.275 253.693 174.275C255.343 174.275 256.513 175.04 256.828 176.465H255.358C255.118 175.79 254.518 175.475 253.708 175.475C252.823 175.475 252.238 175.895 252.238 176.465C252.238 177.065 252.688 177.26 253.603 177.41L254.458 177.56C255.853 177.785 256.948 178.355 256.948 179.81C256.948 181.295 255.643 182.225 253.858 182.225ZM50.72 200.225C48.47 200.225 46.82 198.545 46.82 196.25C46.82 193.955 48.47 192.275 50.72 192.275C52.955 192.275 54.62 193.955 54.62 196.25C54.62 198.545 52.955 200.225 50.72 200.225ZM50.72 198.845C52.07 198.845 53.045 197.765 53.045 196.25C53.045 194.735 52.07 193.655 50.72 193.655C49.34 193.655 48.395 194.735 48.395 196.25C48.395 197.765 49.34 198.845 50.72 198.845ZM56.5834 200V193.67H55.2184V192.5H56.5834V190.925C56.5834 190.1 57.0784 189.605 57.8884 189.605H59.8684V190.805H58.5934C58.2184 190.805 58.0534 190.97 58.0534 191.36V192.5H59.8684V193.67H58.0684V200H56.5834ZM65.6282 200.06C64.8482 200.06 64.3982 199.595 64.3982 198.785V193.67H62.9882V192.5H64.4282V190.475H65.8832V192.5H67.7282V193.67H65.8982V198.32C65.8982 198.695 66.0482 198.845 66.4382 198.845H67.7282V200.06H65.6282ZM72.3563 200.225C70.1063 200.225 68.4563 198.545 68.4563 196.25C68.4563 193.955 70.1063 192.275 72.3563 192.275C74.5913 192.275 76.2563 193.955 76.2563 196.25C76.2563 198.545 74.5913 200.225 72.3563 200.225ZM72.3563 198.845C73.7063 198.845 74.6813 197.765 74.6813 196.25C74.6813 194.735 73.7063 193.655 72.3563 193.655C70.9763 193.655 70.0313 194.735 70.0313 196.25C70.0313 197.765 70.9763 198.845 72.3563 198.845ZM77.8119 200V189.65H79.3419V195.725H79.5969L82.5219 192.5H84.3369L80.8869 196.115L84.5169 200H82.6569L79.5969 196.73H79.3419V200H77.8119ZM88.3293 200.225C86.0043 200.225 84.5043 198.605 84.5043 196.235C84.5043 193.91 86.0643 192.275 88.2993 192.275C90.5943 192.275 91.9593 193.985 91.9593 196.25V196.505H85.9893C86.0493 197.96 87.0243 198.905 88.3293 198.905C89.3343 198.905 89.9793 198.545 90.2943 197.84H91.8543C91.4343 199.235 90.0993 200.225 88.3293 200.225ZM86.0343 195.47H90.4443C90.3093 194.3 89.4693 193.535 88.2993 193.535C87.1593 193.535 86.2293 194.24 86.0343 195.47ZM93.5226 200V192.5H95.0526V193.46H95.3076C95.7726 192.665 96.5676 192.275 97.4676 192.275C99.0126 192.275 100.018 193.325 100.018 195.02V200H98.4876V195.485C98.4876 194.465 98.0076 193.67 96.8676 193.67C95.7576 193.67 95.0526 194.525 95.0526 195.485V200H93.5226ZM104.774 200.225C102.914 200.225 101.609 199.325 101.384 197.855H102.899C103.124 198.665 103.904 198.995 104.774 198.995C105.644 198.995 106.379 198.605 106.379 197.93C106.379 197.255 105.764 197.03 104.894 196.895L104.039 196.745C102.599 196.52 101.639 195.935 101.639 194.585C101.639 193.19 102.869 192.275 104.609 192.275C106.259 192.275 107.429 193.04 107.744 194.465H106.274C106.034 193.79 105.434 193.475 104.624 193.475C103.739 193.475 103.154 193.895 103.154 194.465C103.154 195.065 103.604 195.26 104.519 195.41L105.374 195.56C106.769 195.785 107.864 196.355 107.864 197.81C107.864 199.295 106.559 200.225 104.774 200.225ZM112.745 200V192.5H114.275V200H112.745ZM112.73 191.285V189.65H114.29V191.285H112.73ZM116.404 200V192.5H117.934V193.46H118.189C118.654 192.665 119.449 192.275 120.349 192.275C121.894 192.275 122.899 193.325 122.899 195.02V200H121.369V195.485C121.369 194.465 120.889 193.67 119.749 193.67C118.639 193.67 117.934 194.525 117.934 195.485V200H116.404ZM128.292 200V192.5H129.807V193.88H130.062C130.452 192.92 131.442 192.365 132.612 192.365H132.717V194C132.477 193.97 132.372 193.97 132.132 193.97C130.827 193.97 129.822 194.75 129.822 196.385V200H128.292ZM137.051 200.225C134.726 200.225 133.226 198.605 133.226 196.235C133.226 193.91 134.786 192.275 137.021 192.275C139.316 192.275 140.681 193.985 140.681 196.25V196.505H134.711C134.771 197.96 135.746 198.905 137.051 198.905C138.056 198.905 138.701 198.545 139.016 197.84H140.576C140.156 199.235 138.821 200.225 137.051 200.225ZM134.756 195.47H139.166C139.031 194.3 138.191 193.535 137.021 193.535C135.881 193.535 134.951 194.24 134.756 195.47ZM144.359 200.225C142.904 200.225 141.734 199.37 141.734 197.945C141.734 196.265 143.099 195.755 144.689 195.59L146.909 195.35V194.945C146.909 194.09 146.324 193.535 145.259 193.535C144.284 193.535 143.654 193.985 143.474 194.75H142.004C142.184 193.325 143.369 192.275 145.259 192.275C147.179 192.275 148.349 193.25 148.349 195.02V198.68C148.349 199.145 148.394 199.79 148.424 199.97V200H146.924C146.909 199.745 146.909 199.43 146.909 199.13H146.654C146.219 199.895 145.349 200.225 144.359 200.225ZM143.294 197.855C143.294 198.62 143.909 199.055 144.749 199.055C146.114 199.055 146.909 198.035 146.909 197.03V196.4L145.184 196.61C143.999 196.745 143.294 197.06 143.294 197.855ZM150.386 200V189.65H151.916V200H150.386ZM153.669 196.685V195.275H158.019V196.685H153.669ZM161.113 200.06C160.333 200.06 159.883 199.595 159.883 198.785V193.67H158.473V192.5H159.913V190.475H161.368V192.5H163.213V193.67H161.383V198.32C161.383 198.695 161.533 198.845 161.923 198.845H163.213V200.06H161.113ZM164.672 200V192.5H166.202V200H164.672ZM164.657 191.285V189.65H166.217V191.285H164.657ZM168.33 200V192.5H169.86V193.46H170.115C170.565 192.68 171.33 192.275 172.275 192.275C173.25 192.275 174.015 192.71 174.42 193.49H174.69C175.185 192.71 175.935 192.275 177 192.275C178.65 192.275 179.685 193.355 179.685 195.065V200H178.155V195.455C178.155 194.45 177.705 193.67 176.565 193.67C175.5 193.67 174.765 194.465 174.765 195.38V200H173.235V195.485C173.235 194.48 172.77 193.67 171.63 193.67C170.565 193.67 169.86 194.51 169.86 195.44V200H168.33ZM185 200.225C182.675 200.225 181.175 198.605 181.175 196.235C181.175 193.91 182.735 192.275 184.97 192.275C187.265 192.275 188.63 193.985 188.63 196.25V196.505H182.66C182.72 197.96 183.695 198.905 185 198.905C186.005 198.905 186.65 198.545 186.965 197.84H188.525C188.105 199.235 186.77 200.225 185 200.225ZM182.705 195.47H187.115C186.98 194.3 186.14 193.535 184.97 193.535C183.83 193.535 182.9 194.24 182.705 195.47Z" fill="#0A0B0D"/>
</svg>
