<svg width="320" height="252" viewBox="0 0 320 252" fill="none" xmlns="http://www.w3.org/2000/svg">
<g clip-path="url(#clip0_3884_3710)">
<rect width="320" height="252" rx="8" fill="#FAFAFA"/>
<rect width="231" height="308.5" transform="translate(44.5 79)" fill="white"/>
<g opacity="0.2">
<path d="M78.5078 195.093C78.5078 195.041 78.5078 195.015 78.5176 194.995C78.527 194.976 78.5425 194.961 78.5617 194.951C78.5818 194.941 78.6078 194.941 78.6599 194.941H80.2807C80.3328 194.941 80.3589 194.941 80.3789 194.951C80.3981 194.961 80.4136 194.976 80.423 194.995C80.4328 195.015 80.4328 195.041 80.4328 195.093V196.714C80.4328 196.766 80.4328 196.792 80.423 196.813C80.4136 196.832 80.3981 196.847 80.3789 196.857C80.3589 196.866 80.3328 196.866 80.2807 196.866H78.6599C78.6078 196.866 78.5818 196.866 78.5617 196.857C78.5425 196.847 78.527 196.832 78.5176 196.813C78.5078 196.792 78.5078 196.766 78.5078 196.714V195.093Z" fill="#0A0B0D"/>
<path d="M78.5425 204.717L79.4549 202.06H80.0555L80.9526 204.717H80.5214L79.786 202.43H79.7129L78.9506 204.717H78.5425ZM78.9814 204.047L79.1084 203.7H80.3828L80.5098 204.047H78.9814ZM82.0217 204.775C81.4711 204.775 81.0322 204.374 81.0322 203.754C81.0322 203.138 81.4711 202.734 82.0217 202.734C82.4875 202.734 82.8456 203.011 82.9418 203.454H82.5491C82.476 203.227 82.2873 203.088 82.0255 203.088C81.6983 203.088 81.4365 203.338 81.4365 203.754C81.4365 204.174 81.6983 204.424 82.0255 204.424C82.2873 204.424 82.4798 204.282 82.5607 204.043H82.9534C82.8648 204.486 82.5029 204.775 82.0217 204.775ZM84.1329 204.775C83.5823 204.775 83.1434 204.374 83.1434 203.754C83.1434 203.138 83.5823 202.734 84.1329 202.734C84.5987 202.734 84.9568 203.011 85.053 203.454H84.6603C84.5872 203.227 84.3985 203.088 84.1367 203.088C83.8095 203.088 83.5477 203.338 83.5477 203.754C83.5477 204.174 83.8095 204.424 84.1367 204.424C84.3985 204.424 84.591 204.282 84.6719 204.043H85.0646C84.976 204.486 84.6141 204.775 84.1329 204.775ZM86.2364 204.775C85.6435 204.775 85.2546 204.363 85.2546 203.754C85.2546 203.154 85.6589 202.734 86.2325 202.734C86.8216 202.734 87.1719 203.173 87.1719 203.758C87.1719 203.777 87.1719 203.804 87.1719 203.824H85.4702V203.558H86.7831C86.7446 203.258 86.529 203.061 86.2287 203.061C85.9168 203.061 85.6704 203.265 85.6435 203.62L85.6396 203.766C85.6319 204.17 85.8899 204.44 86.2364 204.44C86.4943 204.44 86.6637 204.343 86.7407 204.162H87.145C87.0372 204.524 86.6907 204.775 86.2364 204.775ZM88.6011 202.734C89.1362 202.734 89.4981 203.161 89.4981 203.739C89.4981 204.336 89.1054 204.775 88.5818 204.775C88.3316 204.775 88.1044 204.674 87.9889 204.443H87.9235V205.448H87.5308V202.792H87.9235V203.069H87.9889C88.1083 202.842 88.3508 202.734 88.6011 202.734ZM88.5048 203.084C88.1699 203.084 87.9196 203.362 87.9196 203.754C87.9196 204.151 88.1699 204.428 88.5048 204.428C88.8552 204.428 89.09 204.139 89.09 203.754C89.09 203.373 88.8513 203.084 88.5048 203.084ZM90.2917 204.736C90.0877 204.736 89.976 204.613 89.976 204.405V202.915L90.157 203.096H89.6141V202.792H89.9799V202.272H90.3533V202.792H90.8269V203.096H90.1801L90.361 202.915V204.286C90.361 204.382 90.3957 204.42 90.4996 204.42H90.8269V204.736H90.2917ZM92.8315 204.775C92.2809 204.775 91.842 204.374 91.842 203.754C91.842 203.138 92.2809 202.734 92.8315 202.734C93.2973 202.734 93.6554 203.011 93.7516 203.454H93.3589C93.2858 203.227 93.0971 203.088 92.8353 203.088C92.5081 203.088 92.2463 203.338 92.2463 203.754C92.2463 204.174 92.5081 204.424 92.8353 204.424C93.0971 204.424 93.2896 204.282 93.3705 204.043H93.7632C93.6746 204.486 93.3127 204.775 92.8315 204.775ZM94.0957 204.717V202.792H94.4884V203.146H94.5538C94.6539 202.903 94.908 202.757 95.2045 202.757C95.216 202.757 95.2237 202.757 95.2353 202.757V203.181C95.1737 203.173 95.1467 203.169 95.0851 203.169C94.7502 203.169 94.4922 203.373 94.4922 203.789V204.717H94.0957ZM95.3532 205.448V205.133H95.6805C95.8268 205.133 95.8884 205.079 95.9384 204.932L96.0847 204.528L96.0347 204.859L95.2608 202.792H95.6728L96.1617 204.239H96.2272L96.72 202.792H97.1319L96.2272 205.125C96.1386 205.36 96.0077 205.448 95.7382 205.448H95.3532ZM98.4409 202.734C98.976 202.734 99.3379 203.161 99.3379 203.739C99.3379 204.336 98.9452 204.775 98.4216 204.775C98.1714 204.775 97.9442 204.674 97.8287 204.443H97.7633V205.448H97.3706V202.792H97.7633V203.069H97.8287C97.9481 202.842 98.1906 202.734 98.4409 202.734ZM98.3446 203.084C98.0097 203.084 97.7594 203.362 97.7594 203.754C97.7594 204.151 98.0097 204.428 98.3446 204.428C98.695 204.428 98.9298 204.139 98.9298 203.754C98.9298 203.373 98.6911 203.084 98.3446 203.084ZM100.131 204.736C99.9274 204.736 99.8158 204.613 99.8158 204.405V202.915L99.9967 203.096H99.4539V202.792H99.8196V202.272H100.193V202.792H100.667V203.096H100.02L100.201 202.915V204.286C100.201 204.382 100.235 204.42 100.339 204.42H100.667V204.736H100.131ZM101.816 204.775C101.238 204.775 100.815 204.343 100.815 203.754C100.815 203.165 101.238 202.734 101.816 202.734C102.39 202.734 102.817 203.165 102.817 203.754C102.817 204.343 102.39 204.775 101.816 204.775ZM101.816 204.424C102.166 204.424 102.413 204.143 102.413 203.754C102.413 203.369 102.166 203.088 101.816 203.088C101.466 203.088 101.223 203.369 101.223 203.754C101.223 204.143 101.466 204.424 101.816 204.424ZM105.07 202.734C105.605 202.734 105.967 203.161 105.967 203.739C105.967 204.336 105.574 204.775 105.05 204.775C104.8 204.775 104.573 204.674 104.457 204.443H104.392V205.448H103.999V202.792H104.392V203.069H104.457C104.577 202.842 104.819 202.734 105.07 202.734ZM104.973 203.084C104.638 203.084 104.388 203.362 104.388 203.754C104.388 204.151 104.638 204.428 104.973 204.428C105.324 204.428 105.559 204.139 105.559 203.754C105.559 203.373 105.32 203.084 104.973 203.084ZM106.871 204.775C106.502 204.775 106.198 204.555 106.198 204.189C106.198 203.762 106.548 203.631 106.96 203.585L107.603 203.519V203.789L107.083 203.851C106.783 203.885 106.602 203.966 106.602 204.17C106.602 204.363 106.76 204.474 106.975 204.474C107.322 204.474 107.53 204.216 107.53 203.954V203.419C107.53 203.204 107.376 203.057 107.102 203.057C106.852 203.057 106.694 203.177 106.648 203.369H106.267C106.317 203.007 106.617 202.734 107.102 202.734C107.595 202.734 107.899 202.988 107.899 203.439V204.382C107.899 204.497 107.911 204.663 107.919 204.709V204.717H107.53C107.526 204.651 107.526 204.574 107.526 204.497H107.464C107.349 204.694 107.126 204.775 106.871 204.775ZM108.188 205.448V205.133H108.515C108.661 205.133 108.723 205.079 108.773 204.932L108.919 204.528L108.869 204.859L108.095 202.792H108.507L108.996 204.239H109.062L109.554 202.792H109.966L109.062 205.125C108.973 205.36 108.842 205.448 108.573 205.448H108.188ZM110.205 204.717V202.792H110.602V203.038H110.663C110.783 202.838 110.975 202.734 111.221 202.734C111.472 202.734 111.664 202.846 111.772 203.05H111.841C111.968 202.846 112.161 202.734 112.434 202.734C112.854 202.734 113.123 203.015 113.123 203.45V204.717H112.731V203.554C112.731 203.296 112.611 203.096 112.319 203.096C112.045 203.096 111.861 203.3 111.861 203.531V204.717H111.468V203.562C111.468 203.304 111.345 203.096 111.052 203.096C110.779 203.096 110.602 203.312 110.602 203.55V204.717H110.205ZM114.445 204.775C113.852 204.775 113.463 204.363 113.463 203.754C113.463 203.154 113.868 202.734 114.441 202.734C115.03 202.734 115.381 203.173 115.381 203.758C115.381 203.777 115.381 203.804 115.381 203.824H113.679V203.558H114.992C114.953 203.258 114.738 203.061 114.437 203.061C114.126 203.061 113.879 203.265 113.852 203.62L113.848 203.766C113.841 204.17 114.099 204.44 114.445 204.44C114.703 204.44 114.872 204.343 114.949 204.162H115.354C115.246 204.524 114.899 204.775 114.445 204.775ZM115.74 204.717V202.792H116.136V203.038H116.198C116.321 202.834 116.521 202.734 116.756 202.734C117.149 202.734 117.41 203.007 117.41 203.439V204.717H117.018V203.562C117.018 203.3 116.891 203.096 116.598 203.096C116.317 203.096 116.136 203.315 116.136 203.562V204.717H115.74ZM118.331 204.736C118.127 204.736 118.016 204.613 118.016 204.405V202.915L118.197 203.096H117.654V202.792H118.019V202.272H118.393V202.792H118.866V203.096H118.22L118.401 202.915V204.286C118.401 204.382 118.435 204.42 118.539 204.42H118.866V204.736H118.331ZM119.899 204.775C119.426 204.775 119.087 204.547 119.033 204.166H119.418C119.476 204.378 119.676 204.463 119.903 204.463C120.126 204.463 120.311 204.359 120.311 204.185C120.311 204.016 120.153 203.958 119.93 203.92L119.715 203.885C119.345 203.824 119.099 203.677 119.099 203.327C119.099 202.969 119.414 202.734 119.861 202.734C120.284 202.734 120.585 202.93 120.665 203.296H120.284C120.227 203.123 120.069 203.042 119.861 203.042C119.634 203.042 119.484 203.15 119.484 203.3C119.484 203.45 119.599 203.504 119.838 203.543L120.057 203.577C120.415 203.635 120.696 203.785 120.696 204.155C120.696 204.54 120.361 204.775 119.899 204.775Z" fill="#0A0B0D"/>
<path d="M78.7362 209V207.229H78.9749V208.787H79.9246V209H78.7362ZM80.6661 209.039C80.2682 209.039 80.0141 208.759 80.0141 208.358C80.0141 207.963 80.2759 207.678 80.6584 207.678C81.0485 207.678 81.2821 207.968 81.2821 208.356C81.2821 208.366 81.2821 208.381 81.2821 208.392H80.1373V208.235H81.0536C81.0305 208.02 80.8817 207.871 80.6584 207.871C80.4351 207.871 80.2605 208.017 80.24 208.274L80.2374 208.356C80.2297 208.643 80.4094 208.843 80.6661 208.843C80.8534 208.843 80.9766 208.772 81.0331 208.636H81.2667C81.1922 208.874 80.9689 209.039 80.6661 209.039ZM81.8605 209.013C81.7244 209.013 81.6526 208.936 81.6526 208.797V207.789L81.7552 207.894H81.4062V207.717H81.6551V207.37H81.8733V207.717H82.1941V207.894H81.7706L81.8759 207.789V208.733C81.8759 208.802 81.9015 208.831 81.9734 208.831H82.1941V209.013H81.8605ZM83.6104 209.039C83.2768 209.039 83.0714 208.838 83.0714 208.489V207.717H83.2999V208.484C83.2999 208.687 83.4025 208.833 83.6104 208.833C83.8183 208.833 83.921 208.687 83.921 208.484V207.717H84.152V208.489C84.152 208.838 83.9467 209.039 83.6104 209.039ZM84.9899 209.039C84.6768 209.039 84.4561 208.892 84.4176 208.638H84.6434C84.6819 208.795 84.8257 208.856 84.9899 208.856C85.1516 208.856 85.2877 208.779 85.2877 208.653C85.2877 208.528 85.1799 208.482 85.0233 208.456L84.8719 208.43C84.6306 208.392 84.4638 208.299 84.4638 208.066C84.4638 207.835 84.6691 207.678 84.9617 207.678C85.2338 207.678 85.4365 207.804 85.4904 208.05H85.2697C85.2286 207.922 85.1208 207.86 84.9617 207.86C84.8 207.86 84.6896 207.94 84.6896 208.05C84.6896 208.163 84.7743 208.204 84.9412 208.23L85.0926 208.256C85.3287 208.292 85.5135 208.389 85.5135 208.636C85.5135 208.882 85.2902 209.039 84.9899 209.039ZM86.3659 209.039C85.968 209.039 85.7139 208.759 85.7139 208.358C85.7139 207.963 85.9757 207.678 86.3582 207.678C86.7483 207.678 86.9819 207.968 86.9819 208.356C86.9819 208.366 86.9819 208.381 86.9819 208.392H85.8371V208.235H86.7534C86.7303 208.02 86.5815 207.871 86.3582 207.871C86.1349 207.871 85.9603 208.017 85.9398 208.274L85.9372 208.356C85.9295 208.643 86.1092 208.843 86.3659 208.843C86.5532 208.843 86.6764 208.772 86.7329 208.636H86.9665C86.892 208.874 86.6687 209.039 86.3659 209.039ZM87.2854 209V207.717H87.5112V207.958H87.5523C87.6216 207.791 87.7961 207.694 88.0015 207.694C88.0092 207.694 88.0143 207.694 88.0194 207.694V207.94C87.9784 207.935 87.9604 207.932 87.927 207.932C87.6935 207.932 87.5138 208.081 87.5138 208.366V209H87.2854ZM88.7021 209.039C88.389 209.039 88.1682 208.892 88.1297 208.638H88.3556C88.3941 208.795 88.5378 208.856 88.7021 208.856C88.8638 208.856 88.9998 208.779 88.9998 208.653C88.9998 208.528 88.892 208.482 88.7355 208.456L88.584 208.43C88.3428 208.392 88.1759 208.299 88.1759 208.066C88.1759 207.835 88.3813 207.678 88.6739 207.678C88.9459 207.678 89.1487 207.804 89.2026 208.05H88.9819C88.9408 207.922 88.833 207.86 88.6739 207.86C88.5122 207.86 88.4018 207.94 88.4018 208.05C88.4018 208.163 88.4865 208.204 88.6533 208.23L88.8048 208.256C89.0409 208.292 89.2257 208.389 89.2257 208.636C89.2257 208.882 89.0024 209.039 88.7021 209.039ZM90.592 209.039C90.2789 209.039 90.0581 208.892 90.0196 208.638H90.2455C90.284 208.795 90.4277 208.856 90.592 208.856C90.7537 208.856 90.8897 208.779 90.8897 208.653C90.8897 208.528 90.7819 208.482 90.6254 208.456L90.4739 208.43C90.2327 208.392 90.0658 208.299 90.0658 208.066C90.0658 207.835 90.2712 207.678 90.5638 207.678C90.8358 207.678 91.0386 207.804 91.0925 208.05H90.8718C90.8307 207.922 90.7229 207.86 90.5638 207.86C90.4021 207.86 90.2917 207.94 90.2917 208.05C90.2917 208.163 90.3764 208.204 90.5432 208.23L90.6947 208.256C90.9308 208.292 91.1156 208.389 91.1156 208.636C91.1156 208.882 90.8923 209.039 90.592 209.039ZM91.4161 209V207.717H91.6445V209H91.4161ZM91.4135 207.486V207.229H91.6471V207.486H91.4135ZM92.1631 209.488V209.298H92.8895C92.9973 209.298 93.0383 209.257 93.0383 209.157V208.746H92.9973C92.9177 208.92 92.7483 209 92.5661 209C92.199 209 91.9526 208.723 91.9526 208.348C91.9526 207.966 92.217 207.678 92.5866 207.678C92.7586 207.678 92.9177 207.758 92.9947 207.919H93.0358V207.717H93.2514V209.208C93.2514 209.388 93.1538 209.488 92.9588 209.488H92.1631ZM92.6123 208.802C92.8561 208.802 93.0409 208.61 93.0409 208.338C93.0409 208.068 92.8561 207.878 92.6123 207.878C92.3556 207.878 92.1888 208.079 92.1888 208.338C92.1888 208.602 92.3582 208.802 92.6123 208.802ZM93.6594 209V207.717H93.8878V207.889H93.9289C94.0085 207.75 94.1496 207.678 94.3113 207.678C94.5757 207.678 94.7528 207.863 94.7528 208.153V209H94.5244V208.222C94.5244 208.03 94.432 207.889 94.2241 207.889C94.0239 207.889 93.8878 208.045 93.8878 208.222V209H93.6594ZM96.2758 209.039C95.9422 209.039 95.7368 208.838 95.7368 208.489V207.717H95.9653V208.484C95.9653 208.687 96.0679 208.833 96.2758 208.833C96.4837 208.833 96.5864 208.687 96.5864 208.484V207.717H96.8174V208.489C96.8174 208.838 96.6121 209.039 96.2758 209.039ZM97.9017 207.678C98.2611 207.678 98.5075 207.966 98.5075 208.351C98.5075 208.746 98.2457 209.039 97.8889 209.039C97.7092 209.039 97.5501 208.961 97.4705 208.8H97.4295V209.488H97.2036V207.717H97.4295V207.919H97.4705C97.5527 207.76 97.7169 207.678 97.9017 207.678ZM97.8478 207.881C97.6091 207.881 97.4269 208.081 97.4269 208.358C97.4269 208.638 97.6091 208.838 97.8478 208.838C98.1045 208.838 98.2713 208.628 98.2713 208.358C98.2713 208.091 98.0994 207.881 97.8478 207.881ZM99.7862 209.039C99.5373 209.039 99.3371 208.895 99.3371 208.651C99.3371 208.366 99.5758 208.281 99.853 208.251L100.292 208.204V208.363L99.93 208.407C99.7118 208.433 99.5732 208.489 99.5732 208.638C99.5732 208.779 99.6887 208.861 99.8427 208.861C100.087 208.861 100.235 208.682 100.235 208.502V208.14C100.235 207.976 100.128 207.868 99.93 207.868C99.7554 207.868 99.6374 207.953 99.6066 208.099H99.3833C99.4166 207.858 99.6168 207.678 99.93 207.678C100.258 207.678 100.451 207.853 100.451 208.148V208.777C100.451 208.854 100.459 208.964 100.464 208.995V209H100.235C100.233 208.956 100.233 208.897 100.233 208.841H100.192C100.117 208.974 99.9633 209.039 99.7862 209.039ZM100.841 209V207.717H101.069V207.889H101.11C101.19 207.75 101.331 207.678 101.492 207.678C101.757 207.678 101.934 207.863 101.934 208.153V209H101.706V208.222C101.706 208.03 101.613 207.889 101.405 207.889C101.205 207.889 101.069 208.045 101.069 208.222V209H100.841ZM102.83 209.039C102.468 209.039 102.224 208.754 102.224 208.369C102.224 207.973 102.486 207.678 102.84 207.678C103.02 207.678 103.179 207.758 103.259 207.919H103.3V207.229H103.526V209H103.3V208.8H103.259C103.177 208.959 103.012 209.039 102.83 209.039ZM102.881 208.838C103.123 208.838 103.302 208.638 103.302 208.358C103.302 208.081 103.123 207.881 102.881 207.881C102.627 207.881 102.46 208.091 102.46 208.358C102.46 208.628 102.63 208.838 102.881 208.838ZM104.999 209.039C104.686 209.039 104.466 208.892 104.427 208.638H104.653C104.691 208.795 104.835 208.856 104.999 208.856C105.161 208.856 105.297 208.779 105.297 208.653C105.297 208.528 105.189 208.482 105.033 208.456L104.881 208.43C104.64 208.392 104.473 208.299 104.473 208.066C104.473 207.835 104.679 207.678 104.971 207.678C105.243 207.678 105.446 207.804 105.5 208.05H105.279C105.238 207.922 105.13 207.86 104.971 207.86C104.809 207.86 104.699 207.94 104.699 208.05C104.699 208.163 104.784 208.204 104.951 208.23L105.102 208.256C105.338 208.292 105.523 208.389 105.523 208.636C105.523 208.882 105.3 209.039 104.999 209.039ZM105.824 209V207.717H106.052V209H105.824ZM105.821 207.486V207.229H106.055V207.486H105.821ZM106.571 209.488V209.298H107.297C107.405 209.298 107.446 209.257 107.446 209.157V208.746H107.405C107.325 208.92 107.156 209 106.973 209C106.606 209 106.36 208.723 106.36 208.348C106.36 207.966 106.624 207.678 106.994 207.678C107.166 207.678 107.325 207.758 107.402 207.919H107.443V207.717H107.659V209.208C107.659 209.388 107.561 209.488 107.366 209.488H106.571ZM107.02 208.802C107.264 208.802 107.448 208.61 107.448 208.338C107.448 208.068 107.264 207.878 107.02 207.878C106.763 207.878 106.596 208.079 106.596 208.338C106.596 208.602 106.766 208.802 107.02 208.802ZM108.067 209V207.717H108.295V207.889H108.336C108.416 207.75 108.557 207.678 108.719 207.678C108.983 207.678 109.16 207.863 109.16 208.153V209H108.932V208.222C108.932 208.03 108.839 207.889 108.631 207.889C108.431 207.889 108.295 208.045 108.295 208.222V209H108.067ZM110.165 209V207.717H110.393V209H110.165ZM110.162 207.486V207.229H110.396V207.486H110.162ZM110.801 209V207.717H111.03V207.889H111.071C111.151 207.75 111.292 207.678 111.453 207.678C111.718 207.678 111.895 207.863 111.895 208.153V209H111.666V208.222C111.666 208.03 111.574 207.889 111.366 207.889C111.166 207.889 111.03 208.045 111.03 208.222V209H110.801ZM113.076 209L112.766 207.717H112.999L113.246 208.813H113.284L113.549 207.717H113.906L114.165 208.813H114.206L114.455 207.717H114.681L114.357 209H114.003L113.744 207.907H113.703L113.441 209H113.076ZM114.95 209V207.717H115.178V209H114.95ZM114.947 207.486V207.229H115.181V207.486H114.947ZM115.874 209.013C115.738 209.013 115.666 208.936 115.666 208.797V207.789L115.769 207.894H115.42V207.717H115.668V207.37H115.887V207.717H116.207V207.894H115.784L115.889 207.789V208.733C115.889 208.802 115.915 208.831 115.987 208.831H116.207V209.013H115.874ZM116.491 209V207.229H116.72V207.889H116.761C116.84 207.75 116.981 207.678 117.143 207.678C117.408 207.678 117.585 207.863 117.585 208.153V209H117.356V208.222C117.356 208.03 117.264 207.889 117.056 207.889C116.856 207.889 116.72 208.045 116.72 208.222V209H116.491ZM119.185 209.039C118.774 209.039 118.525 208.828 118.474 208.533H118.717C118.779 208.751 118.974 208.836 119.185 208.836C119.421 208.836 119.58 208.713 119.58 208.541C119.58 208.363 119.464 208.286 119.231 208.233L118.992 208.176C118.764 208.122 118.538 207.991 118.538 207.694C118.538 207.409 118.784 207.19 119.146 207.19C119.518 207.19 119.724 207.386 119.785 207.678H119.547C119.487 207.483 119.351 207.396 119.149 207.396C118.907 207.396 118.777 207.519 118.777 207.676C118.777 207.84 118.884 207.912 119.113 207.968L119.351 208.027C119.588 208.084 119.824 208.207 119.824 208.52C119.824 208.82 119.57 209.039 119.185 209.039ZM120.123 209V207.717H120.352V207.889H120.393C120.47 207.755 120.603 207.678 120.773 207.678C120.944 207.678 121.078 207.758 121.15 207.899H121.196C121.281 207.76 121.417 207.678 121.604 207.678C121.884 207.678 122.061 207.868 122.061 208.158V209H121.833V208.217C121.833 208.03 121.745 207.889 121.537 207.889C121.345 207.889 121.206 208.035 121.206 208.199V209H120.975V208.222C120.975 208.032 120.888 207.889 120.68 207.889C120.488 207.889 120.352 208.043 120.352 208.212V209H120.123ZM122.811 209.039C122.562 209.039 122.362 208.895 122.362 208.651C122.362 208.366 122.601 208.281 122.878 208.251L123.317 208.204V208.363L122.955 208.407C122.737 208.433 122.598 208.489 122.598 208.638C122.598 208.779 122.713 208.861 122.867 208.861C123.111 208.861 123.26 208.682 123.26 208.502V208.14C123.26 207.976 123.152 207.868 122.955 207.868C122.78 207.868 122.662 207.953 122.631 208.099H122.408C122.441 207.858 122.642 207.678 122.955 207.678C123.283 207.678 123.476 207.853 123.476 208.148V208.777C123.476 208.854 123.483 208.964 123.489 208.995V209H123.26C123.258 208.956 123.258 208.897 123.258 208.841H123.217C123.142 208.974 122.988 209.039 122.811 209.039ZM123.865 209V207.717H124.091V207.958H124.132C124.202 207.791 124.376 207.694 124.581 207.694C124.589 207.694 124.594 207.694 124.599 207.694V207.94C124.558 207.935 124.54 207.932 124.507 207.932C124.273 207.932 124.094 208.081 124.094 208.366V209H123.865ZM125.138 209.013C125.002 209.013 124.93 208.936 124.93 208.797V207.789L125.033 207.894H124.684V207.717H124.933V207.37H125.151V207.717H125.472V207.894H125.048L125.153 207.789V208.733C125.153 208.802 125.179 208.831 125.251 208.831H125.472V209.013H125.138ZM78.9775 212L78.5976 210.229H78.844L79.1597 211.787H79.2059L79.5396 210.229H79.9066L80.2583 211.787H80.3045L80.6176 210.229H80.8537L80.4687 212H80.0889L79.7424 210.465H79.6962L79.3676 212H78.9775ZM81.4135 212.039C81.1645 212.039 80.9643 211.895 80.9643 211.651C80.9643 211.366 81.203 211.281 81.4802 211.251L81.9191 211.204V211.363L81.5572 211.407C81.3391 211.433 81.2005 211.489 81.2005 211.638C81.2005 211.779 81.316 211.861 81.47 211.861C81.7138 211.861 81.8627 211.682 81.8627 211.502V211.14C81.8627 210.976 81.7549 210.868 81.5572 210.868C81.3827 210.868 81.2646 210.953 81.2338 211.099H81.0105C81.0439 210.858 81.2441 210.678 81.5572 210.678C81.8858 210.678 82.0783 210.853 82.0783 211.148V211.777C82.0783 211.854 82.086 211.964 82.0911 211.995V212H81.8627C81.8601 211.956 81.8601 211.897 81.8601 211.841H81.819C81.7446 211.974 81.5906 212.039 81.4135 212.039ZM82.4678 212V210.229H82.6963V212H82.4678ZM83.1045 212V210.229H83.3329V212H83.1045ZM84.293 212.039C83.8951 212.039 83.641 211.759 83.641 211.358C83.641 210.963 83.9028 210.678 84.2853 210.678C84.6754 210.678 84.909 210.968 84.909 211.356C84.909 211.366 84.909 211.381 84.909 211.392H83.7642V211.235H84.6805C84.6574 211.02 84.5086 210.871 84.2853 210.871C84.062 210.871 83.8874 211.017 83.8669 211.274L83.8643 211.356C83.8566 211.643 84.0363 211.843 84.293 211.843C84.4803 211.843 84.6035 211.772 84.66 211.636H84.8936C84.8191 211.874 84.5958 212.039 84.293 212.039ZM85.4874 212.013C85.3514 212.013 85.2795 211.936 85.2795 211.797V210.789L85.3822 210.894H85.0331V210.717H85.2821V210.37H85.5002V210.717H85.8211V210.894H85.3976L85.5028 210.789V211.733C85.5028 211.802 85.5285 211.831 85.6003 211.831H85.8211V212.013H85.4874ZM86.6496 211.417V211.215H88.6772V211.417H86.6496ZM89.8813 212.013C89.7453 212.013 89.6734 211.936 89.6734 211.797V210.789L89.7761 210.894H89.427V210.717H89.676V210.37H89.8941V210.717H90.215V210.894H89.7915L89.8967 210.789V211.733C89.8967 211.802 89.9224 211.831 89.9942 211.831H90.215V212.013H89.8813ZM90.4987 212V210.229H90.7271V210.889H90.7682C90.8478 210.75 90.9889 210.678 91.1506 210.678C91.415 210.678 91.5921 210.863 91.5921 211.153V212H91.3637V211.222C91.3637 211.03 91.2713 210.889 91.0634 210.889C90.8632 210.889 90.7271 211.045 90.7271 211.222V212H90.4987ZM92.5344 212.039C92.1366 212.039 91.8825 211.759 91.8825 211.358C91.8825 210.963 92.1443 210.678 92.5267 210.678C92.9168 210.678 93.1504 210.968 93.1504 211.356C93.1504 211.366 93.1504 211.381 93.1504 211.392H92.0057V211.235H92.922C92.8989 211.02 92.75 210.871 92.5267 210.871C92.3034 210.871 92.1289 211.017 92.1083 211.274L92.1058 211.356C92.0981 211.643 92.2777 211.843 92.5344 211.843C92.7218 211.843 92.845 211.772 92.9014 211.636H93.135C93.0606 211.874 92.8373 212.039 92.5344 212.039ZM94.5864 212.039C94.2528 212.039 94.0474 211.838 94.0474 211.489V210.717H94.2759V211.484C94.2759 211.687 94.3785 211.833 94.5864 211.833C94.7943 211.833 94.897 211.687 94.897 211.484V210.717H95.128V211.489C95.128 211.838 94.9227 212.039 94.5864 212.039ZM95.5142 212V210.717H95.7427V210.889H95.7837C95.8633 210.75 96.0045 210.678 96.1662 210.678C96.4305 210.678 96.6076 210.863 96.6076 211.153V212H96.3792V211.222C96.3792 211.03 96.2868 210.889 96.0789 210.889C95.8787 210.889 95.7427 211.045 95.7427 211.222V212H95.5142ZM96.9981 212V210.717H97.2265V212H96.9981ZM96.9955 210.486V210.229H97.2291V210.486H96.9955ZM97.9094 212L97.4705 210.717H97.7117L98.0608 211.813H98.1019L98.4484 210.717H98.6845L98.2405 212H97.9094ZM99.4524 212.039C99.0545 212.039 98.8004 211.759 98.8004 211.358C98.8004 210.963 99.0622 210.678 99.4447 210.678C99.8348 210.678 100.068 210.968 100.068 211.356C100.068 211.366 100.068 211.381 100.068 211.392H98.9236V211.235H99.8399C99.8168 211.02 99.668 210.871 99.4447 210.871C99.2214 210.871 99.0468 211.017 99.0263 211.274L99.0237 211.356C99.016 211.643 99.1957 211.843 99.4524 211.843C99.6397 211.843 99.7629 211.772 99.8194 211.636H100.053C99.9785 211.874 99.7552 212.039 99.4524 212.039ZM100.372 212V210.717H100.598V210.958H100.639C100.708 210.791 100.883 210.694 101.088 210.694C101.096 210.694 101.101 210.694 101.106 210.694V210.94C101.065 210.935 101.047 210.932 101.014 210.932C100.78 210.932 100.6 211.081 100.6 211.366V212H100.372ZM101.789 212.039C101.475 212.039 101.255 211.892 101.216 211.638H101.442C101.481 211.795 101.624 211.856 101.789 211.856C101.95 211.856 102.086 211.779 102.086 211.653C102.086 211.528 101.979 211.482 101.822 211.456L101.671 211.43C101.429 211.392 101.262 211.299 101.262 211.066C101.262 210.835 101.468 210.678 101.76 210.678C102.032 210.678 102.235 210.804 102.289 211.05H102.068C102.027 210.922 101.919 210.86 101.76 210.86C101.599 210.86 101.488 210.94 101.488 211.05C101.488 211.163 101.573 211.204 101.74 211.23L101.891 211.256C102.127 211.292 102.312 211.389 102.312 211.636C102.312 211.882 102.089 212.039 101.789 212.039ZM102.972 212.039C102.723 212.039 102.523 211.895 102.523 211.651C102.523 211.366 102.762 211.281 103.039 211.251L103.478 211.204V211.363L103.116 211.407C102.898 211.433 102.759 211.489 102.759 211.638C102.759 211.779 102.874 211.861 103.028 211.861C103.272 211.861 103.421 211.682 103.421 211.502V211.14C103.421 210.976 103.313 210.868 103.116 210.868C102.941 210.868 102.823 210.953 102.792 211.099H102.569C102.602 210.858 102.803 210.678 103.116 210.678C103.444 210.678 103.637 210.853 103.637 211.148V211.777C103.637 211.854 103.644 211.964 103.65 211.995V212H103.421C103.419 211.956 103.419 211.897 103.419 211.841H103.378C103.303 211.974 103.149 212.039 102.972 212.039ZM104.026 212V210.229H104.255V212H104.026ZM105.636 212.039C105.387 212.039 105.187 211.895 105.187 211.651C105.187 211.366 105.426 211.281 105.703 211.251L106.142 211.204V211.363L105.78 211.407C105.562 211.433 105.423 211.489 105.423 211.638C105.423 211.779 105.539 211.861 105.693 211.861C105.937 211.861 106.086 211.682 106.086 211.502V211.14C106.086 210.976 105.978 210.868 105.78 210.868C105.606 210.868 105.488 210.953 105.457 211.099H105.233C105.267 210.858 105.467 210.678 105.78 210.678C106.109 210.678 106.301 210.853 106.301 211.148V211.777C106.301 211.854 106.309 211.964 106.314 211.995V212H106.086C106.083 211.956 106.083 211.897 106.083 211.841H106.042C105.968 211.974 105.814 212.039 105.636 212.039ZM107.248 212.039C106.888 212.039 106.591 211.779 106.591 211.358C106.591 210.94 106.888 210.678 107.248 210.678C107.551 210.678 107.789 210.855 107.853 211.148H107.625C107.574 210.978 107.435 210.883 107.25 210.883C107.019 210.883 106.827 211.061 106.827 211.358C106.827 211.659 107.019 211.836 107.25 211.836C107.435 211.836 107.576 211.738 107.633 211.561H107.861C107.8 211.854 107.561 212.039 107.248 212.039ZM108.709 212.039C108.35 212.039 108.052 211.779 108.052 211.358C108.052 210.94 108.35 210.678 108.709 210.678C109.012 210.678 109.251 210.855 109.315 211.148H109.086C109.035 210.978 108.896 210.883 108.712 210.883C108.481 210.883 108.288 211.061 108.288 211.358C108.288 211.659 108.481 211.836 108.712 211.836C108.896 211.836 109.038 211.738 109.094 211.561H109.322C109.261 211.854 109.022 212.039 108.709 212.039ZM110.175 212.039C109.79 212.039 109.511 211.751 109.511 211.358C109.511 210.968 109.79 210.678 110.175 210.678C110.56 210.678 110.843 210.968 110.843 211.358C110.843 211.751 110.56 212.039 110.175 212.039ZM110.175 211.836C110.427 211.836 110.607 211.633 110.607 211.358C110.607 211.086 110.427 210.883 110.175 210.883C109.921 210.883 109.747 211.086 109.747 211.358C109.747 211.633 109.921 211.836 110.175 211.836ZM111.666 212.039C111.332 212.039 111.127 211.838 111.127 211.489V210.717H111.355V211.484C111.355 211.687 111.458 211.833 111.666 211.833C111.874 211.833 111.976 211.687 111.976 211.484V210.717H112.207V211.489C112.207 211.838 112.002 212.039 111.666 212.039ZM112.594 212V210.717H112.822V210.889H112.863C112.943 210.75 113.084 210.678 113.246 210.678C113.51 210.678 113.687 210.863 113.687 211.153V212H113.459V211.222C113.459 211.03 113.366 210.889 113.158 210.889C112.958 210.889 112.822 211.045 112.822 211.222V212H112.594ZM114.355 212.013C114.219 212.013 114.147 211.936 114.147 211.797V210.789L114.25 210.894H113.901V210.717H114.15V210.37H114.368V210.717H114.689V210.894H114.265L114.37 210.789V211.733C114.37 211.802 114.396 211.831 114.468 211.831H114.689V212.013H114.355ZM115.666 212V210.894H115.432V210.717H115.666V210.442C115.666 210.303 115.745 210.224 115.884 210.224H116.205V210.404H115.984C115.915 210.404 115.887 210.432 115.887 210.504V210.717H116.205V210.894H115.889V212H115.666ZM116.978 212.039C116.593 212.039 116.313 211.751 116.313 211.358C116.313 210.968 116.593 210.678 116.978 210.678C117.363 210.678 117.645 210.968 117.645 211.358C117.645 211.751 117.363 212.039 116.978 212.039ZM116.978 211.836C117.23 211.836 117.409 211.633 117.409 211.358C117.409 211.086 117.23 210.883 116.978 210.883C116.724 210.883 116.549 211.086 116.549 211.358C116.549 211.633 116.724 211.836 116.978 211.836ZM117.95 212V210.717H118.176V210.958H118.217C118.286 210.791 118.461 210.694 118.666 210.694C118.674 210.694 118.679 210.694 118.684 210.694V210.94C118.643 210.935 118.625 210.932 118.592 210.932C118.358 210.932 118.178 211.081 118.178 211.366V212H117.95ZM119.739 212.013C119.603 212.013 119.531 211.936 119.531 211.797V210.789L119.634 210.894H119.285V210.717H119.534V210.37H119.752V210.717H120.073V210.894H119.649L119.754 210.789V211.733C119.754 211.802 119.78 211.831 119.852 211.831H120.073V212.013H119.739ZM120.356 212V210.229H120.585V210.889H120.626C120.705 210.75 120.846 210.678 121.008 210.678C121.273 210.678 121.45 210.863 121.45 211.153V212H121.221V211.222C121.221 211.03 121.129 210.889 120.921 210.889C120.721 210.889 120.585 211.045 120.585 211.222V212H120.356ZM122.392 212.039C121.994 212.039 121.74 211.759 121.74 211.358C121.74 210.963 122.002 210.678 122.384 210.678C122.774 210.678 123.008 210.968 123.008 211.356C123.008 211.366 123.008 211.381 123.008 211.392H121.863V211.235H122.78C122.756 211.02 122.608 210.871 122.384 210.871C122.161 210.871 121.986 211.017 121.966 211.274L121.963 211.356C121.956 211.643 122.135 211.843 122.392 211.843C122.579 211.843 122.703 211.772 122.759 211.636H122.993C122.918 211.874 122.695 212.039 122.392 212.039ZM79.2727 215.039C78.8877 215.039 78.6079 214.751 78.6079 214.358C78.6079 213.968 78.8877 213.678 79.2727 213.678C79.6577 213.678 79.94 213.968 79.94 214.358C79.94 214.751 79.6577 215.039 79.2727 215.039ZM79.2727 214.836C79.5242 214.836 79.7039 214.633 79.7039 214.358C79.7039 214.086 79.5242 213.883 79.2727 213.883C79.0186 213.883 78.844 214.086 78.844 214.358C78.844 214.633 79.0186 214.836 79.2727 214.836ZM80.2446 215V213.717H80.473V213.889H80.5141C80.5936 213.75 80.7348 213.678 80.8965 213.678C81.1609 213.678 81.338 213.863 81.338 214.153V215H81.1095V214.222C81.1095 214.03 81.0171 213.889 80.8092 213.889C80.609 213.889 80.473 214.045 80.473 214.222V215H80.2446ZM82.2854 215.039C81.9261 215.039 81.6283 214.779 81.6283 214.358C81.6283 213.94 81.9261 213.678 82.2854 213.678C82.5883 213.678 82.827 213.855 82.8911 214.148H82.6627C82.6114 213.978 82.4728 213.883 82.288 213.883C82.057 213.883 81.8645 214.061 81.8645 214.358C81.8645 214.659 82.057 214.836 82.288 214.836C82.4728 214.836 82.6139 214.738 82.6704 214.561H82.8988C82.8372 214.854 82.5985 215.039 82.2854 215.039ZM83.1897 215V213.229H83.4181V213.889H83.4592C83.5388 213.75 83.6799 213.678 83.8416 213.678C84.106 213.678 84.2831 213.863 84.2831 214.153V215H84.0547V214.222C84.0547 214.03 83.9623 213.889 83.7544 213.889C83.5542 213.889 83.4181 214.045 83.4181 214.222V215H83.1897ZM85.0329 215.039C84.7839 215.039 84.5837 214.895 84.5837 214.651C84.5837 214.366 84.8224 214.281 85.0996 214.251L85.5385 214.204V214.363L85.1766 214.407C84.9585 214.433 84.8199 214.489 84.8199 214.638C84.8199 214.779 84.9354 214.861 85.0894 214.861C85.3332 214.861 85.4821 214.682 85.4821 214.502V214.14C85.4821 213.976 85.3743 213.868 85.1766 213.868C85.0021 213.868 84.884 213.953 84.8532 214.099H84.6299C84.6633 213.858 84.8635 213.678 85.1766 213.678C85.5052 213.678 85.6977 213.853 85.6977 214.148V214.777C85.6977 214.854 85.7054 214.964 85.7105 214.995V215H85.4821C85.4795 214.956 85.4795 214.897 85.4795 214.841H85.4384C85.364 214.974 85.21 215.039 85.0329 215.039ZM86.0872 215V213.717H86.3157V215H86.0872ZM86.0847 213.486V213.229H86.3182V213.486H86.0847ZM86.7239 215V213.717H86.9523V213.889H86.9934C87.073 213.75 87.2141 213.678 87.3758 213.678C87.6402 213.678 87.8173 213.863 87.8173 214.153V215H87.5889V214.222C87.5889 214.03 87.4965 213.889 87.2886 213.889C87.0884 213.889 86.9523 214.045 86.9523 214.222V215H86.7239ZM88.9989 215L88.6884 213.717H88.9219L89.1683 214.813H89.2068L89.4712 213.717H89.828L90.0872 214.813H90.1283L90.3772 213.717H90.6031L90.2797 215H89.9255L89.6663 213.907H89.6252L89.3634 215H88.9989ZM91.4267 215.039C91.0417 215.039 90.762 214.751 90.762 214.358C90.762 213.968 91.0417 213.678 91.4267 213.678C91.8117 213.678 92.0941 213.968 92.0941 214.358C92.0941 214.751 91.8117 215.039 91.4267 215.039ZM91.4267 214.836C91.6783 214.836 91.8579 214.633 91.8579 214.358C91.8579 214.086 91.6783 213.883 91.4267 213.883C91.1726 213.883 90.9981 214.086 90.9981 214.358C90.9981 214.633 91.1726 214.836 91.4267 214.836ZM92.3986 215V213.717H92.6245V213.958H92.6656C92.7349 213.791 92.9094 213.694 93.1147 213.694C93.1224 213.694 93.1276 213.694 93.1327 213.694V213.94C93.0916 213.935 93.0737 213.932 93.0403 213.932C92.8067 213.932 92.6271 214.081 92.6271 214.366V215H92.3986ZM93.3837 215V213.229H93.6121V215H93.3837ZM94.526 215.039C94.1641 215.039 93.9202 214.754 93.9202 214.369C93.9202 213.973 94.182 213.678 94.5362 213.678C94.7159 213.678 94.875 213.758 94.9546 213.919H94.9957V213.229H95.2215V215H94.9957V214.8H94.9546C94.8725 214.959 94.7082 215.039 94.526 215.039ZM94.5773 214.838C94.8186 214.838 94.9982 214.638 94.9982 214.358C94.9982 214.081 94.8186 213.881 94.5773 213.881C94.3232 213.881 94.1564 214.091 94.1564 214.358C94.1564 214.628 94.3258 214.838 94.5773 214.838ZM95.5885 215V214.702H95.8759V215H95.5885Z" fill="#0A0B0D"/>
</g>
<path d="M133.691 195.093C133.691 195.041 133.691 195.015 133.701 194.995C133.711 194.976 133.726 194.961 133.745 194.951C133.765 194.941 133.791 194.941 133.843 194.941H135.464C135.516 194.941 135.542 194.941 135.563 194.951C135.582 194.961 135.597 194.976 135.607 194.995C135.616 195.015 135.616 195.041 135.616 195.093V196.714C135.616 196.766 135.616 196.792 135.607 196.813C135.597 196.832 135.582 196.847 135.563 196.857C135.542 196.866 135.516 196.866 135.464 196.866H133.843C133.791 196.866 133.765 196.866 133.745 196.857C133.726 196.847 133.711 196.832 133.701 196.813C133.691 196.792 133.691 196.766 133.691 196.714V195.093Z" fill="#0A0B0D"/>
<path d="M134.023 204.717V202.06H134.735L135.397 204.313H135.462L136.132 202.06H136.821V204.717H136.444V202.468H136.371L135.697 204.717H135.139L134.473 202.468H134.4V204.717H134.023ZM138.183 204.775C137.59 204.775 137.201 204.363 137.201 203.754C137.201 203.154 137.605 202.734 138.179 202.734C138.768 202.734 139.118 203.173 139.118 203.758C139.118 203.777 139.118 203.804 139.118 203.824H137.416V203.558H138.729C138.691 203.258 138.475 203.061 138.175 203.061C137.863 203.061 137.617 203.265 137.59 203.62L137.586 203.766C137.578 204.17 137.836 204.44 138.183 204.44C138.441 204.44 138.61 204.343 138.687 204.162H139.091C138.983 204.524 138.637 204.775 138.183 204.775ZM140.174 204.775C139.7 204.775 139.362 204.547 139.308 204.166H139.693C139.75 204.378 139.951 204.463 140.178 204.463C140.401 204.463 140.586 204.359 140.586 204.185C140.586 204.016 140.428 203.958 140.205 203.92L139.989 203.885C139.62 203.824 139.373 203.677 139.373 203.327C139.373 202.969 139.689 202.734 140.135 202.734C140.559 202.734 140.859 202.93 140.94 203.296H140.559C140.501 203.123 140.343 203.042 140.135 203.042C139.908 203.042 139.758 203.15 139.758 203.3C139.758 203.45 139.874 203.504 140.112 203.543L140.332 203.577C140.69 203.635 140.971 203.785 140.971 204.155C140.971 204.54 140.636 204.775 140.174 204.775ZM142.018 204.775C141.545 204.775 141.206 204.547 141.152 204.166H141.537C141.595 204.378 141.795 204.463 142.022 204.463C142.245 204.463 142.43 204.359 142.43 204.185C142.43 204.016 142.272 203.958 142.049 203.92L141.833 203.885C141.464 203.824 141.217 203.677 141.217 203.327C141.217 202.969 141.533 202.734 141.98 202.734C142.403 202.734 142.703 202.93 142.784 203.296H142.403C142.345 203.123 142.188 203.042 141.98 203.042C141.753 203.042 141.602 203.15 141.602 203.3C141.602 203.45 141.718 203.504 141.957 203.543L142.176 203.577C142.534 203.635 142.815 203.785 142.815 204.155C142.815 204.54 142.48 204.775 142.018 204.775ZM143.708 204.775C143.339 204.775 143.035 204.555 143.035 204.189C143.035 203.762 143.385 203.631 143.797 203.585L144.44 203.519V203.789L143.92 203.851C143.62 203.885 143.439 203.966 143.439 204.17C143.439 204.363 143.597 204.474 143.812 204.474C144.159 204.474 144.367 204.216 144.367 203.954V203.419C144.367 203.204 144.213 203.057 143.939 203.057C143.689 203.057 143.531 203.177 143.485 203.369H143.104C143.154 203.007 143.454 202.734 143.939 202.734C144.432 202.734 144.736 202.988 144.736 203.439V204.382C144.736 204.497 144.748 204.663 144.756 204.709V204.717H144.367C144.363 204.651 144.363 204.574 144.363 204.497H144.301C144.186 204.694 143.963 204.775 143.708 204.775ZM145.382 205.448V205.125H146.449C146.606 205.125 146.664 205.063 146.664 204.921V204.355H146.603C146.479 204.613 146.233 204.717 145.983 204.717C145.44 204.717 145.074 204.305 145.074 203.739C145.074 203.169 145.475 202.734 146.021 202.734C146.256 202.734 146.476 202.834 146.595 203.069H146.66V202.792H147.03V205.009C147.03 205.29 146.876 205.448 146.579 205.448H145.382ZM146.071 204.374C146.414 204.374 146.668 204.112 146.668 203.723C146.668 203.342 146.414 203.077 146.071 203.077C145.717 203.077 145.478 203.358 145.478 203.723C145.478 204.097 145.721 204.374 146.071 204.374ZM148.378 204.775C147.785 204.775 147.396 204.363 147.396 203.754C147.396 203.154 147.8 202.734 148.374 202.734C148.963 202.734 149.313 203.173 149.313 203.758C149.313 203.777 149.313 203.804 149.313 203.824H147.611V203.558H148.924C148.886 203.258 148.67 203.061 148.37 203.061C148.058 203.061 147.812 203.265 147.785 203.62L147.781 203.766C147.773 204.17 148.031 204.44 148.378 204.44C148.636 204.44 148.805 204.343 148.882 204.162H149.286C149.178 204.524 148.832 204.775 148.378 204.775ZM151.036 204.775C150.667 204.775 150.363 204.555 150.363 204.189C150.363 203.762 150.713 203.631 151.125 203.585L151.768 203.519V203.789L151.248 203.851C150.948 203.885 150.767 203.966 150.767 204.17C150.767 204.363 150.925 204.474 151.14 204.474C151.487 204.474 151.695 204.216 151.695 203.954V203.419C151.695 203.204 151.541 203.057 151.267 203.057C151.017 203.057 150.859 203.177 150.813 203.369H150.432C150.482 203.007 150.782 202.734 151.267 202.734C151.76 202.734 152.064 202.988 152.064 203.439V204.382C152.064 204.497 152.076 204.663 152.084 204.709V204.717H151.695C151.691 204.651 151.691 204.574 151.691 204.497H151.629C151.514 204.694 151.291 204.775 151.036 204.775ZM152.545 204.717V202.792H152.941V203.038H153.003C153.126 202.834 153.326 202.734 153.561 202.734C153.954 202.734 154.216 203.007 154.216 203.439V204.717H153.823V203.562C153.823 203.3 153.696 203.096 153.403 203.096C153.122 203.096 152.941 203.315 152.941 203.562V204.717H152.545ZM154.509 205.448V205.133H154.836C154.983 205.133 155.044 205.079 155.094 204.932L155.241 204.528L155.191 204.859L154.417 202.792H154.829L155.318 204.239H155.383L155.876 202.792H156.288L155.383 205.125C155.295 205.36 155.164 205.448 154.894 205.448H154.509ZM157.34 204.775C156.762 204.775 156.339 204.343 156.339 203.754C156.339 203.165 156.762 202.734 157.34 202.734C157.913 202.734 158.341 203.165 158.341 203.754C158.341 204.343 157.913 204.775 157.34 204.775ZM157.34 204.424C157.69 204.424 157.937 204.143 157.937 203.754C157.937 203.369 157.69 203.088 157.34 203.088C156.989 203.088 156.747 203.369 156.747 203.754C156.747 204.143 156.989 204.424 157.34 204.424ZM158.702 204.717V202.792H159.098V203.038H159.16C159.283 202.834 159.483 202.734 159.718 202.734C160.111 202.734 160.372 203.007 160.372 203.439V204.717H159.98V203.562C159.98 203.3 159.853 203.096 159.56 203.096C159.279 203.096 159.098 203.315 159.098 203.562V204.717H158.702ZM161.693 204.775C161.1 204.775 160.712 204.363 160.712 203.754C160.712 203.154 161.116 202.734 161.69 202.734C162.279 202.734 162.629 203.173 162.629 203.758C162.629 203.777 162.629 203.804 162.629 203.824H160.927V203.558H162.24C162.202 203.258 161.986 203.061 161.686 203.061C161.374 203.061 161.127 203.265 161.1 203.62L161.097 203.766C161.089 204.17 161.347 204.44 161.693 204.44C161.951 204.44 162.121 204.343 162.198 204.162H162.602C162.494 204.524 162.148 204.775 161.693 204.775ZM162.888 205.244L163.208 204.555L163.312 204.717H162.9V204.228H163.385V204.717L163.142 205.244H162.888ZM165.076 204.775C164.706 204.775 164.402 204.555 164.402 204.189C164.402 203.762 164.753 203.631 165.165 203.585L165.808 203.519V203.789L165.288 203.851C164.988 203.885 164.807 203.966 164.807 204.17C164.807 204.363 164.964 204.474 165.18 204.474C165.527 204.474 165.734 204.216 165.734 203.954V203.419C165.734 203.204 165.58 203.057 165.307 203.057C165.057 203.057 164.899 203.177 164.853 203.369H164.472C164.522 203.007 164.822 202.734 165.307 202.734C165.8 202.734 166.104 202.988 166.104 203.439V204.382C166.104 204.497 166.116 204.663 166.123 204.709V204.717H165.734C165.731 204.651 165.731 204.574 165.731 204.497H165.669C165.553 204.694 165.33 204.775 165.076 204.775ZM166.584 204.717V202.792H166.981V203.038H167.042C167.166 202.834 167.366 202.734 167.601 202.734C167.993 202.734 168.255 203.007 168.255 203.439V204.717H167.862V203.562C167.862 203.3 167.735 203.096 167.443 203.096C167.162 203.096 166.981 203.315 166.981 203.562V204.717H166.584ZM168.549 205.448V205.133H168.876C169.022 205.133 169.084 205.079 169.134 204.932L169.28 204.528L169.23 204.859L168.456 202.792H168.868L169.357 204.239H169.423L169.915 202.792H170.327L169.423 205.125C169.334 205.36 169.203 205.448 168.934 205.448H168.549ZM170.824 204.717L170.381 202.792H170.782L171.117 204.393H171.178L171.536 202.792H172.141L172.499 204.393H172.56L172.895 202.792H173.284L172.822 204.717H172.221L171.867 203.119H171.802L171.448 204.717H170.824ZM173.595 204.717V202.06H173.991V203.038H174.053C174.176 202.834 174.376 202.734 174.611 202.734C175.004 202.734 175.265 203.007 175.265 203.439V204.717H174.873V203.562C174.873 203.3 174.746 203.096 174.453 203.096C174.172 203.096 173.991 203.315 173.991 203.562V204.717H173.595ZM176.586 204.775C175.993 204.775 175.605 204.363 175.605 203.754C175.605 203.154 176.009 202.734 176.583 202.734C177.172 202.734 177.522 203.173 177.522 203.758C177.522 203.777 177.522 203.804 177.522 203.824H175.82V203.558H177.133C177.095 203.258 176.879 203.061 176.579 203.061C176.267 203.061 176.02 203.265 175.993 203.62L175.99 203.766C175.982 204.17 176.24 204.44 176.586 204.44C176.844 204.44 177.014 204.343 177.091 204.162H177.495C177.387 204.524 177.041 204.775 176.586 204.775ZM177.881 204.717V202.792H178.274V203.146H178.339C178.439 202.903 178.693 202.757 178.99 202.757C179.001 202.757 179.009 202.757 179.02 202.757V203.181C178.959 203.173 178.932 203.169 178.87 203.169C178.535 203.169 178.277 203.373 178.277 203.789V204.717H177.881ZM180.091 204.775C179.498 204.775 179.109 204.363 179.109 203.754C179.109 203.154 179.513 202.734 180.087 202.734C180.676 202.734 181.026 203.173 181.026 203.758C181.026 203.777 181.026 203.804 181.026 203.824H179.324V203.558H180.637C180.599 203.258 180.383 203.061 180.083 203.061C179.771 203.061 179.525 203.265 179.498 203.62L179.494 203.766C179.486 204.17 179.744 204.44 180.091 204.44C180.349 204.44 180.518 204.343 180.595 204.162H180.999C180.891 204.524 180.545 204.775 180.091 204.775ZM181.305 204.717V204.228H181.794V204.717H181.305Z" fill="#0A0B0D"/>
<path d="M133.92 209V207.229H135.165V207.445H134.159V208.787H135.183V209H133.92ZM134.048 208.191V207.981H135.034V208.191H134.048ZM135.478 209V207.717H135.707V207.889H135.748C135.827 207.75 135.969 207.678 136.13 207.678C136.395 207.678 136.572 207.863 136.572 208.153V209H136.343V208.222C136.343 208.03 136.251 207.889 136.043 207.889C135.843 207.889 135.707 208.045 135.707 208.222V209H135.478ZM137.468 209.039C137.106 209.039 136.862 208.754 136.862 208.369C136.862 207.973 137.124 207.678 137.478 207.678C137.658 207.678 137.817 207.758 137.896 207.919H137.937V207.229H138.163V209H137.937V208.8H137.896C137.814 208.959 137.65 209.039 137.468 209.039ZM137.519 208.838C137.76 208.838 137.94 208.638 137.94 208.358C137.94 208.081 137.76 207.881 137.519 207.881C137.265 207.881 137.098 208.091 137.098 208.358C137.098 208.628 137.268 208.838 137.519 208.838ZM138.499 208.42V208.209H139.236V208.42H138.499ZM139.791 209.013C139.655 209.013 139.583 208.936 139.583 208.797V207.789L139.686 207.894H139.337V207.717H139.586V207.37H139.804V207.717H140.125V207.894H139.701L139.807 207.789V208.733C139.807 208.802 139.832 208.831 139.904 208.831H140.125V209.013H139.791ZM140.943 209.039C140.558 209.039 140.278 208.751 140.278 208.358C140.278 207.968 140.558 207.678 140.943 207.678C141.328 207.678 141.61 207.968 141.61 208.358C141.61 208.751 141.328 209.039 140.943 209.039ZM140.943 208.836C141.195 208.836 141.374 208.633 141.374 208.358C141.374 208.086 141.195 207.883 140.943 207.883C140.689 207.883 140.514 208.086 140.514 208.358C140.514 208.633 140.689 208.836 140.943 208.836ZM141.843 208.42V208.209H142.58V208.42H141.843ZM143.467 209.039C143.069 209.039 142.815 208.759 142.815 208.358C142.815 207.963 143.077 207.678 143.459 207.678C143.849 207.678 144.083 207.968 144.083 208.356C144.083 208.366 144.083 208.381 144.083 208.392H142.938V208.235H143.855C143.831 208.02 143.683 207.871 143.459 207.871C143.236 207.871 143.061 208.017 143.041 208.274L143.038 208.356C143.031 208.643 143.21 208.843 143.467 208.843C143.654 208.843 143.778 208.772 143.834 208.636H144.068C143.993 208.874 143.77 209.039 143.467 209.039ZM144.386 209V207.717H144.615V207.889H144.656C144.735 207.75 144.877 207.678 145.038 207.678C145.303 207.678 145.48 207.863 145.48 208.153V209H145.251V208.222C145.251 208.03 145.159 207.889 144.951 207.889C144.751 207.889 144.615 208.045 144.615 208.222V209H144.386ZM146.376 209.039C146.014 209.039 145.77 208.754 145.77 208.369C145.77 207.973 146.032 207.678 146.386 207.678C146.566 207.678 146.725 207.758 146.805 207.919H146.846V207.229H147.071V209H146.846V208.8H146.805C146.722 208.959 146.558 209.039 146.376 209.039ZM146.427 208.838C146.669 208.838 146.848 208.638 146.848 208.358C146.848 208.081 146.669 207.881 146.427 207.881C146.173 207.881 146.006 208.091 146.006 208.358C146.006 208.628 146.176 208.838 146.427 208.838ZM148.645 209.039C148.248 209.039 147.993 208.759 147.993 208.358C147.993 207.963 148.255 207.678 148.638 207.678C149.028 207.678 149.261 207.968 149.261 208.356C149.261 208.366 149.261 208.381 149.261 208.392H148.117V208.235H149.033C149.01 208.02 148.861 207.871 148.638 207.871C148.414 207.871 148.24 208.017 148.219 208.274L148.217 208.356C148.209 208.643 148.389 208.843 148.645 208.843C148.833 208.843 148.956 208.772 149.012 208.636H149.246C149.172 208.874 148.948 209.039 148.645 209.039ZM149.565 209V207.717H149.793V207.889H149.834C149.914 207.75 150.055 207.678 150.217 207.678C150.481 207.678 150.658 207.863 150.658 208.153V209H150.43V208.222C150.43 208.03 150.337 207.889 150.13 207.889C149.929 207.889 149.793 208.045 149.793 208.222V209H149.565ZM151.606 209.039C151.246 209.039 150.949 208.779 150.949 208.358C150.949 207.94 151.246 207.678 151.606 207.678C151.909 207.678 152.147 207.855 152.211 208.148H151.983C151.932 207.978 151.793 207.883 151.608 207.883C151.377 207.883 151.185 208.061 151.185 208.358C151.185 208.659 151.377 208.836 151.608 208.836C151.793 208.836 151.934 208.738 151.991 208.561H152.219C152.158 208.854 151.919 209.039 151.606 209.039ZM152.51 209V207.717H152.736V207.958H152.777C152.846 207.791 153.021 207.694 153.226 207.694C153.234 207.694 153.239 207.694 153.244 207.694V207.94C153.203 207.935 153.185 207.932 153.152 207.932C152.918 207.932 152.738 208.081 152.738 208.366V209H152.51ZM153.372 209.488V209.305H153.582C153.688 209.305 153.724 209.27 153.762 209.162L153.862 208.892L153.839 209.1L153.321 207.717H153.559L153.906 208.723H153.947L154.304 207.717H154.542L153.926 209.287C153.867 209.439 153.785 209.488 153.616 209.488H153.372ZM155.469 207.678C155.828 207.678 156.075 207.966 156.075 208.351C156.075 208.746 155.813 209.039 155.456 209.039C155.277 209.039 155.117 208.961 155.038 208.8H154.997V209.488H154.771V207.717H154.997V207.919H155.038C155.12 207.76 155.284 207.678 155.469 207.678ZM155.415 207.881C155.176 207.881 154.994 208.081 154.994 208.358C154.994 208.638 155.176 208.838 155.415 208.838C155.672 208.838 155.839 208.628 155.839 208.358C155.839 208.091 155.667 207.881 155.415 207.881ZM156.653 209.013C156.516 209.013 156.445 208.936 156.445 208.797V207.789L156.547 207.894H156.198V207.717H156.447V207.37H156.665V207.717H156.986V207.894H156.563L156.668 207.789V208.733C156.668 208.802 156.694 208.831 156.765 208.831H156.986V209.013H156.653ZM157.794 209.039C157.396 209.039 157.142 208.759 157.142 208.358C157.142 207.963 157.404 207.678 157.786 207.678C158.177 207.678 158.41 207.968 158.41 208.356C158.41 208.366 158.41 208.381 158.41 208.392H157.265V208.235H158.182C158.159 208.02 158.01 207.871 157.786 207.871C157.563 207.871 157.389 208.017 157.368 208.274L157.366 208.356C157.358 208.643 157.537 208.843 157.794 208.843C157.982 208.843 158.105 208.772 158.161 208.636H158.395C158.32 208.874 158.097 209.039 157.794 209.039ZM159.219 209.039C158.857 209.039 158.614 208.754 158.614 208.369C158.614 207.973 158.875 207.678 159.23 207.678C159.409 207.678 159.568 207.758 159.648 207.919H159.689V207.229H159.915V209H159.689V208.8H159.648C159.566 208.959 159.402 209.039 159.219 209.039ZM159.271 208.838C159.512 208.838 159.692 208.638 159.692 208.358C159.692 208.081 159.512 207.881 159.271 207.881C159.017 207.881 158.85 208.091 158.85 208.358C158.85 208.628 159.019 208.838 159.271 208.838ZM160.256 209.339L160.449 208.905L160.51 209H160.271V208.702H160.556V209L160.41 209.339H160.256ZM162.003 209.039C161.643 209.039 161.346 208.779 161.346 208.358C161.346 207.94 161.643 207.678 162.003 207.678C162.306 207.678 162.544 207.855 162.608 208.148H162.38C162.329 207.978 162.19 207.883 162.005 207.883C161.774 207.883 161.582 208.061 161.582 208.358C161.582 208.659 161.774 208.836 162.005 208.836C162.19 208.836 162.331 208.738 162.388 208.561H162.616C162.555 208.854 162.316 209.039 162.003 209.039ZM163.459 209.039C163.061 209.039 162.807 208.759 162.807 208.358C162.807 207.963 163.069 207.678 163.451 207.678C163.841 207.678 164.075 207.968 164.075 208.356C164.075 208.366 164.075 208.381 164.075 208.392H162.93V208.235H163.846C163.823 208.02 163.674 207.871 163.451 207.871C163.228 207.871 163.053 208.017 163.033 208.274L163.03 208.356C163.023 208.643 163.202 208.843 163.459 208.843C163.646 208.843 163.769 208.772 163.826 208.636H164.059C163.985 208.874 163.762 209.039 163.459 209.039ZM164.378 209V207.717H164.607V207.889H164.648C164.727 207.75 164.869 207.678 165.03 207.678C165.295 207.678 165.472 207.863 165.472 208.153V209H165.243V208.222C165.243 208.03 165.151 207.889 164.943 207.889C164.743 207.889 164.607 208.045 164.607 208.222V209H164.378ZM166.314 209.039C166.001 209.039 165.78 208.892 165.742 208.638H165.967C166.006 208.795 166.15 208.856 166.314 208.856C166.476 208.856 166.612 208.779 166.612 208.653C166.612 208.528 166.504 208.482 166.347 208.456L166.196 208.43C165.955 208.392 165.788 208.299 165.788 208.066C165.788 207.835 165.993 207.678 166.286 207.678C166.558 207.678 166.761 207.804 166.814 208.05H166.594C166.553 207.922 166.445 207.86 166.286 207.86C166.124 207.86 166.014 207.94 166.014 208.05C166.014 208.163 166.098 208.204 166.265 208.23L166.417 208.256C166.653 208.292 166.838 208.389 166.838 208.636C166.838 208.882 166.614 209.039 166.314 209.039ZM167.7 209.039C167.315 209.039 167.035 208.751 167.035 208.358C167.035 207.968 167.315 207.678 167.7 207.678C168.085 207.678 168.367 207.968 168.367 208.358C168.367 208.751 168.085 209.039 167.7 209.039ZM167.7 208.836C167.952 208.836 168.131 208.633 168.131 208.358C168.131 208.086 167.952 207.883 167.7 207.883C167.446 207.883 167.271 208.086 167.271 208.358C167.271 208.633 167.446 208.836 167.7 208.836ZM168.672 209V207.717H168.898V207.958H168.939C169.008 207.791 169.183 207.694 169.388 207.694C169.396 207.694 169.401 207.694 169.406 207.694V207.94C169.365 207.935 169.347 207.932 169.314 207.932C169.08 207.932 168.9 208.081 168.9 208.366V209H168.672ZM170.089 209.039C169.776 209.039 169.555 208.892 169.516 208.638H169.742C169.781 208.795 169.924 208.856 170.089 208.856C170.25 208.856 170.386 208.779 170.386 208.653C170.386 208.528 170.279 208.482 170.122 208.456L169.971 208.43C169.729 208.392 169.563 208.299 169.563 208.066C169.563 207.835 169.768 207.678 170.061 207.678C170.333 207.678 170.535 207.804 170.589 208.05H170.369C170.327 207.922 170.22 207.86 170.061 207.86C169.899 207.86 169.788 207.94 169.788 208.05C169.788 208.163 169.873 208.204 170.04 208.23L170.191 208.256C170.428 208.292 170.612 208.389 170.612 208.636C170.612 208.882 170.389 209.039 170.089 209.039ZM170.913 209V207.229H171.141V207.889H171.182C171.262 207.75 171.403 207.678 171.565 207.678C171.829 207.678 172.006 207.863 172.006 208.153V209H171.778V208.222C171.778 208.03 171.685 207.889 171.477 207.889C171.277 207.889 171.141 208.045 171.141 208.222V209H170.913ZM172.397 209V207.717H172.625V209H172.397ZM172.394 207.486V207.229H172.628V207.486H172.394ZM173.731 207.678C174.091 207.678 174.337 207.966 174.337 208.351C174.337 208.746 174.075 209.039 173.719 209.039C173.539 209.039 173.38 208.961 173.3 208.8H173.259V209.488H173.033V207.717H173.259V207.919H173.3C173.382 207.76 173.547 207.678 173.731 207.678ZM173.678 207.881C173.439 207.881 173.257 208.081 173.257 208.358C173.257 208.638 173.439 208.838 173.678 208.838C173.934 208.838 174.101 208.628 174.101 208.358C174.101 208.091 173.929 207.881 173.678 207.881ZM174.571 208.42V208.209H175.307V208.42H174.571ZM133.894 212V210.717H134.12V210.958H134.161C134.23 210.791 134.405 210.694 134.61 210.694C134.618 210.694 134.623 210.694 134.628 210.694V210.94C134.587 210.935 134.569 210.932 134.536 210.932C134.302 210.932 134.123 211.081 134.123 211.366V212H133.894ZM135.391 212.039C134.993 212.039 134.739 211.759 134.739 211.358C134.739 210.963 135.001 210.678 135.383 210.678C135.773 210.678 136.007 210.968 136.007 211.356C136.007 211.366 136.007 211.381 136.007 211.392H134.862V211.235H135.779C135.755 211.02 135.607 210.871 135.383 210.871C135.16 210.871 134.985 211.017 134.965 211.274L134.962 211.356C134.955 211.643 135.134 211.843 135.391 211.843C135.578 211.843 135.702 211.772 135.758 211.636H135.992C135.917 211.874 135.694 212.039 135.391 212.039ZM136.762 212.039C136.449 212.039 136.228 211.892 136.19 211.638H136.416C136.454 211.795 136.598 211.856 136.762 211.856C136.924 211.856 137.06 211.779 137.06 211.653C137.06 211.528 136.952 211.482 136.796 211.456L136.644 211.43C136.403 211.392 136.236 211.299 136.236 211.066C136.236 210.835 136.441 210.678 136.734 210.678C137.006 210.678 137.209 210.804 137.263 211.05H137.042C137.001 210.922 136.893 210.86 136.734 210.86C136.572 210.86 136.462 210.94 136.462 211.05C136.462 211.163 136.547 211.204 136.713 211.23L136.865 211.256C137.101 211.292 137.286 211.389 137.286 211.636C137.286 211.882 137.062 212.039 136.762 212.039ZM137.586 212V210.717H137.815V212H137.586ZM137.584 210.486V210.229H137.817V210.486H137.584ZM138.675 212.039C138.362 212.039 138.141 211.892 138.102 211.638H138.328C138.367 211.795 138.51 211.856 138.675 211.856C138.836 211.856 138.972 211.779 138.972 211.653C138.972 211.528 138.865 211.482 138.708 211.456L138.557 211.43C138.315 211.392 138.148 211.299 138.148 211.066C138.148 210.835 138.354 210.678 138.646 210.678C138.918 210.678 139.121 210.804 139.175 211.05H138.954C138.913 210.922 138.806 210.86 138.646 210.86C138.485 210.86 138.374 210.94 138.374 211.05C138.374 211.163 138.459 211.204 138.626 211.23L138.777 211.256C139.013 211.292 139.198 211.389 139.198 211.636C139.198 211.882 138.975 212.039 138.675 212.039ZM139.786 212.013C139.65 212.013 139.578 211.936 139.578 211.797V210.789L139.681 210.894H139.332V210.717H139.581V210.37H139.799V210.717H140.12V210.894H139.696L139.802 210.789V211.733C139.802 211.802 139.827 211.831 139.899 211.831H140.12V212.013H139.786ZM140.763 212.039C140.514 212.039 140.314 211.895 140.314 211.651C140.314 211.366 140.552 211.281 140.83 211.251L141.269 211.204V211.363L140.907 211.407C140.688 211.433 140.55 211.489 140.55 211.638C140.55 211.779 140.665 211.861 140.819 211.861C141.063 211.861 141.212 211.682 141.212 211.502V211.14C141.212 210.976 141.104 210.868 140.907 210.868C140.732 210.868 140.614 210.953 140.583 211.099H140.36C140.393 210.858 140.594 210.678 140.907 210.678C141.235 210.678 141.428 210.853 141.428 211.148V211.777C141.428 211.854 141.435 211.964 141.441 211.995V212H141.212C141.21 211.956 141.21 211.897 141.21 211.841H141.168C141.094 211.974 140.94 212.039 140.763 212.039ZM141.817 212V210.717H142.046V210.889H142.087C142.166 210.75 142.307 210.678 142.469 210.678C142.734 210.678 142.911 210.863 142.911 211.153V212H142.682V211.222C142.682 211.03 142.59 210.889 142.382 210.889C142.182 210.889 142.046 211.045 142.046 211.222V212H141.817ZM143.579 212.013C143.443 212.013 143.371 211.936 143.371 211.797V210.789L143.473 210.894H143.124V210.717H143.373V210.37H143.591V210.717H143.912V210.894H143.489L143.594 210.789V211.733C143.594 211.802 143.62 211.831 143.691 211.831H143.912V212.013H143.579ZM144.155 212V211.702H144.442V212H144.155Z" fill="#0A0B0D"/>
<g opacity="0.2">
<path d="M188.875 195.093C188.875 195.041 188.875 195.015 188.885 194.995C188.894 194.976 188.91 194.961 188.929 194.951C188.949 194.941 188.975 194.941 189.027 194.941H190.648C190.7 194.941 190.726 194.941 190.746 194.951C190.765 194.961 190.781 194.976 190.79 194.995C190.8 195.015 190.8 195.041 190.8 195.093V196.714C190.8 196.766 190.8 196.792 190.79 196.813C190.781 196.832 190.765 196.847 190.746 196.857C190.726 196.866 190.7 196.866 190.648 196.866H189.027C188.975 196.866 188.949 196.866 188.929 196.857C188.91 196.847 188.894 196.832 188.885 196.813C188.875 196.792 188.875 196.766 188.875 196.714V195.093Z" fill="#0A0B0D"/>
<path d="M188.91 204.717L189.822 202.06H190.423L191.32 204.717H190.889L190.153 202.43H190.08L189.318 204.717H188.91ZM189.349 204.047L189.476 203.7H190.75L190.877 204.047H189.349ZM192.389 204.775C191.838 204.775 191.399 204.374 191.399 203.754C191.399 203.138 191.838 202.734 192.389 202.734C192.855 202.734 193.213 203.011 193.309 203.454H192.916C192.843 203.227 192.655 203.088 192.393 203.088C192.065 203.088 191.804 203.338 191.804 203.754C191.804 204.174 192.065 204.424 192.393 204.424C192.655 204.424 192.847 204.282 192.928 204.043H193.321C193.232 204.486 192.87 204.775 192.389 204.775ZM194.5 204.775C193.95 204.775 193.511 204.374 193.511 203.754C193.511 203.138 193.95 202.734 194.5 202.734C194.966 202.734 195.324 203.011 195.42 203.454H195.028C194.954 203.227 194.766 203.088 194.504 203.088C194.177 203.088 193.915 203.338 193.915 203.754C193.915 204.174 194.177 204.424 194.504 204.424C194.766 204.424 194.958 204.282 195.039 204.043H195.432C195.343 204.486 194.981 204.775 194.5 204.775ZM196.604 204.775C196.011 204.775 195.622 204.363 195.622 203.754C195.622 203.154 196.026 202.734 196.6 202.734C197.189 202.734 197.539 203.173 197.539 203.758C197.539 203.777 197.539 203.804 197.539 203.824H195.837V203.558H197.15C197.112 203.258 196.896 203.061 196.596 203.061C196.284 203.061 196.038 203.265 196.011 203.62L196.007 203.766C195.999 204.17 196.257 204.44 196.604 204.44C196.861 204.44 197.031 204.343 197.108 204.162H197.512C197.404 204.524 197.058 204.775 196.604 204.775ZM198.968 202.734C199.503 202.734 199.865 203.161 199.865 203.739C199.865 204.336 199.473 204.775 198.949 204.775C198.699 204.775 198.472 204.674 198.356 204.443H198.291V205.448H197.898V202.792H198.291V203.069H198.356C198.475 202.842 198.718 202.734 198.968 202.734ZM198.872 203.084C198.537 203.084 198.287 203.362 198.287 203.754C198.287 204.151 198.537 204.428 198.872 204.428C199.222 204.428 199.457 204.139 199.457 203.754C199.457 203.373 199.219 203.084 198.872 203.084ZM200.659 204.736C200.455 204.736 200.343 204.613 200.343 204.405V202.915L200.524 203.096H199.981V202.792H200.347V202.272H200.72V202.792H201.194V203.096H200.547L200.728 202.915V204.286C200.728 204.382 200.763 204.42 200.867 204.42H201.194V204.736H200.659ZM203.199 204.775C202.648 204.775 202.209 204.374 202.209 203.754C202.209 203.138 202.648 202.734 203.199 202.734C203.665 202.734 204.023 203.011 204.119 203.454H203.726C203.653 203.227 203.464 203.088 203.203 203.088C202.875 203.088 202.613 203.338 202.613 203.754C202.613 204.174 202.875 204.424 203.203 204.424C203.464 204.424 203.657 204.282 203.738 204.043H204.13C204.042 204.486 203.68 204.775 203.199 204.775ZM204.463 204.717V202.792H204.856V203.146H204.921C205.021 202.903 205.275 202.757 205.572 202.757C205.583 202.757 205.591 202.757 205.602 202.757V203.181C205.541 203.173 205.514 203.169 205.452 203.169C205.117 203.169 204.859 203.373 204.859 203.789V204.717H204.463ZM205.72 205.448V205.133H206.048C206.194 205.133 206.256 205.079 206.306 204.932L206.452 204.528L206.402 204.859L205.628 202.792H206.04L206.529 204.239H206.594L207.087 202.792H207.499L206.594 205.125C206.506 205.36 206.375 205.448 206.105 205.448H205.72ZM208.808 202.734C209.343 202.734 209.705 203.161 209.705 203.739C209.705 204.336 209.312 204.775 208.789 204.775C208.539 204.775 208.311 204.674 208.196 204.443H208.13V205.448H207.738V202.792H208.13V203.069H208.196C208.315 202.842 208.558 202.734 208.808 202.734ZM208.712 203.084C208.377 203.084 208.127 203.362 208.127 203.754C208.127 204.151 208.377 204.428 208.712 204.428C209.062 204.428 209.297 204.139 209.297 203.754C209.297 203.373 209.058 203.084 208.712 203.084ZM210.499 204.736C210.295 204.736 210.183 204.613 210.183 204.405V202.915L210.364 203.096H209.821V202.792H210.187V202.272H210.56V202.792H211.034V203.096H210.387L210.568 202.915V204.286C210.568 204.382 210.603 204.42 210.707 204.42H211.034V204.736H210.499ZM212.183 204.775C211.606 204.775 211.182 204.343 211.182 203.754C211.182 203.165 211.606 202.734 212.183 202.734C212.757 202.734 213.184 203.165 213.184 203.754C213.184 204.343 212.757 204.775 212.183 204.775ZM212.183 204.424C212.534 204.424 212.78 204.143 212.78 203.754C212.78 203.369 212.534 203.088 212.183 203.088C211.833 203.088 211.59 203.369 211.59 203.754C211.59 204.143 211.833 204.424 212.183 204.424ZM215.437 202.734C215.972 202.734 216.334 203.161 216.334 203.739C216.334 204.336 215.941 204.775 215.418 204.775C215.167 204.775 214.94 204.674 214.825 204.443H214.759V205.448H214.367V202.792H214.759V203.069H214.825C214.944 202.842 215.187 202.734 215.437 202.734ZM215.341 203.084C215.006 203.084 214.755 203.362 214.755 203.754C214.755 204.151 215.006 204.428 215.341 204.428C215.691 204.428 215.926 204.139 215.926 203.754C215.926 203.373 215.687 203.084 215.341 203.084ZM217.239 204.775C216.869 204.775 216.565 204.555 216.565 204.189C216.565 203.762 216.915 203.631 217.327 203.585L217.97 203.519V203.789L217.45 203.851C217.15 203.885 216.969 203.966 216.969 204.17C216.969 204.363 217.127 204.474 217.343 204.474C217.689 204.474 217.897 204.216 217.897 203.954V203.419C217.897 203.204 217.743 203.057 217.47 203.057C217.219 203.057 217.062 203.177 217.015 203.369H216.634C216.684 203.007 216.985 202.734 217.47 202.734C217.962 202.734 218.267 202.988 218.267 203.439V204.382C218.267 204.497 218.278 204.663 218.286 204.709V204.717H217.897C217.893 204.651 217.893 204.574 217.893 204.497H217.832C217.716 204.694 217.493 204.775 217.239 204.775ZM218.555 205.448V205.133H218.882C219.028 205.133 219.09 205.079 219.14 204.932L219.286 204.528L219.236 204.859L218.463 202.792H218.874L219.363 204.239H219.429L219.922 202.792H220.334L219.429 205.125C219.34 205.36 219.209 205.448 218.94 205.448H218.555ZM220.572 204.717V202.792H220.969V203.038H221.03C221.15 202.838 221.342 202.734 221.589 202.734C221.839 202.734 222.031 202.846 222.139 203.05H222.208C222.336 202.846 222.528 202.734 222.801 202.734C223.221 202.734 223.491 203.015 223.491 203.45V204.717H223.098V203.554C223.098 203.296 222.978 203.096 222.686 203.096C222.413 203.096 222.228 203.3 222.228 203.531V204.717H221.835V203.562C221.835 203.304 221.712 203.096 221.419 203.096C221.146 203.096 220.969 203.312 220.969 203.55V204.717H220.572ZM224.812 204.775C224.219 204.775 223.831 204.363 223.831 203.754C223.831 203.154 224.235 202.734 224.808 202.734C225.398 202.734 225.748 203.173 225.748 203.758C225.748 203.777 225.748 203.804 225.748 203.824H224.046V203.558H225.359C225.321 203.258 225.105 203.061 224.805 203.061C224.493 203.061 224.246 203.265 224.219 203.62L224.216 203.766C224.208 204.17 224.466 204.44 224.812 204.44C225.07 204.44 225.24 204.343 225.317 204.162H225.721C225.613 204.524 225.267 204.775 224.812 204.775ZM226.107 204.717V202.792H226.503V203.038H226.565C226.688 202.834 226.888 202.734 227.123 202.734C227.516 202.734 227.778 203.007 227.778 203.439V204.717H227.385V203.562C227.385 203.3 227.258 203.096 226.965 203.096C226.684 203.096 226.503 203.315 226.503 203.562V204.717H226.107ZM228.698 204.736C228.494 204.736 228.383 204.613 228.383 204.405V202.915L228.564 203.096H228.021V202.792H228.387V202.272H228.76V202.792H229.234V203.096H228.587L228.768 202.915V204.286C228.768 204.382 228.802 204.42 228.906 204.42H229.234V204.736H228.698ZM230.267 204.775C229.793 204.775 229.454 204.547 229.4 204.166H229.785C229.843 204.378 230.043 204.463 230.27 204.463C230.494 204.463 230.678 204.359 230.678 204.185C230.678 204.016 230.521 203.958 230.297 203.92L230.082 203.885C229.712 203.824 229.466 203.677 229.466 203.327C229.466 202.969 229.781 202.734 230.228 202.734C230.652 202.734 230.952 202.93 231.033 203.296H230.652C230.594 203.123 230.436 203.042 230.228 203.042C230.001 203.042 229.851 203.15 229.851 203.3C229.851 203.45 229.966 203.504 230.205 203.543L230.424 203.577C230.782 203.635 231.063 203.785 231.063 204.155C231.063 204.54 230.729 204.775 230.267 204.775Z" fill="#0A0B0D"/>
<path d="M189.103 209V207.229H189.342V208.787H190.292V209H189.103ZM191.033 209.039C190.635 209.039 190.381 208.759 190.381 208.358C190.381 207.963 190.643 207.678 191.026 207.678C191.416 207.678 191.649 207.968 191.649 208.356C191.649 208.366 191.649 208.381 191.649 208.392H190.505V208.235H191.421C191.398 208.02 191.249 207.871 191.026 207.871C190.802 207.871 190.628 208.017 190.607 208.274L190.605 208.356C190.597 208.643 190.777 208.843 191.033 208.843C191.221 208.843 191.344 208.772 191.4 208.636H191.634C191.559 208.874 191.336 209.039 191.033 209.039ZM192.228 209.013C192.092 209.013 192.02 208.936 192.02 208.797V207.789L192.122 207.894H191.773V207.717H192.022V207.37H192.241V207.717H192.561V207.894H192.138L192.243 207.789V208.733C192.243 208.802 192.269 208.831 192.341 208.831H192.561V209.013H192.228ZM193.978 209.039C193.644 209.039 193.439 208.838 193.439 208.489V207.717H193.667V208.484C193.667 208.687 193.77 208.833 193.978 208.833C194.186 208.833 194.288 208.687 194.288 208.484V207.717H194.519V208.489C194.519 208.838 194.314 209.039 193.978 209.039ZM195.357 209.039C195.044 209.039 194.823 208.892 194.785 208.638H195.011C195.049 208.795 195.193 208.856 195.357 208.856C195.519 208.856 195.655 208.779 195.655 208.653C195.655 208.528 195.547 208.482 195.391 208.456L195.239 208.43C194.998 208.392 194.831 208.299 194.831 208.066C194.831 207.835 195.036 207.678 195.329 207.678C195.601 207.678 195.804 207.804 195.858 208.05H195.637C195.596 207.922 195.488 207.86 195.329 207.86C195.167 207.86 195.057 207.94 195.057 208.05C195.057 208.163 195.142 208.204 195.308 208.23L195.46 208.256C195.696 208.292 195.881 208.389 195.881 208.636C195.881 208.882 195.657 209.039 195.357 209.039ZM196.733 209.039C196.335 209.039 196.081 208.759 196.081 208.358C196.081 207.963 196.343 207.678 196.725 207.678C197.115 207.678 197.349 207.968 197.349 208.356C197.349 208.366 197.349 208.381 197.349 208.392H196.204V208.235H197.121C197.098 208.02 196.949 207.871 196.725 207.871C196.502 207.871 196.328 208.017 196.307 208.274L196.304 208.356C196.297 208.643 196.476 208.843 196.733 208.843C196.92 208.843 197.044 208.772 197.1 208.636H197.334C197.259 208.874 197.036 209.039 196.733 209.039ZM197.653 209V207.717H197.878V207.958H197.919C197.989 207.791 198.163 207.694 198.369 207.694C198.376 207.694 198.381 207.694 198.387 207.694V207.94C198.346 207.935 198.328 207.932 198.294 207.932C198.061 207.932 197.881 208.081 197.881 208.366V209H197.653ZM199.069 209.039C198.756 209.039 198.535 208.892 198.497 208.638H198.723C198.761 208.795 198.905 208.856 199.069 208.856C199.231 208.856 199.367 208.779 199.367 208.653C199.367 208.528 199.259 208.482 199.103 208.456L198.951 208.43C198.71 208.392 198.543 208.299 198.543 208.066C198.543 207.835 198.748 207.678 199.041 207.678C199.313 207.678 199.516 207.804 199.57 208.05H199.349C199.308 207.922 199.2 207.86 199.041 207.86C198.879 207.86 198.769 207.94 198.769 208.05C198.769 208.163 198.854 208.204 199.021 208.23L199.172 208.256C199.408 208.292 199.593 208.389 199.593 208.636C199.593 208.882 199.37 209.039 199.069 209.039ZM200.959 209.039C200.646 209.039 200.425 208.892 200.387 208.638H200.613C200.651 208.795 200.795 208.856 200.959 208.856C201.121 208.856 201.257 208.779 201.257 208.653C201.257 208.528 201.149 208.482 200.993 208.456L200.841 208.43C200.6 208.392 200.433 208.299 200.433 208.066C200.433 207.835 200.638 207.678 200.931 207.678C201.203 207.678 201.406 207.804 201.46 208.05H201.239C201.198 207.922 201.09 207.86 200.931 207.86C200.769 207.86 200.659 207.94 200.659 208.05C200.659 208.163 200.744 208.204 200.91 208.23L201.062 208.256C201.298 208.292 201.483 208.389 201.483 208.636C201.483 208.882 201.259 209.039 200.959 209.039ZM201.783 209V207.717H202.012V209H201.783ZM201.781 207.486V207.229H202.014V207.486H201.781ZM202.53 209.488V209.298H203.257C203.364 209.298 203.406 209.257 203.406 209.157V208.746H203.364C203.285 208.92 203.115 209 202.933 209C202.566 209 202.32 208.723 202.32 208.348C202.32 207.966 202.584 207.678 202.954 207.678C203.126 207.678 203.285 207.758 203.362 207.919H203.403V207.717H203.619V209.208C203.619 209.388 203.521 209.488 203.326 209.488H202.53ZM202.979 208.802C203.223 208.802 203.408 208.61 203.408 208.338C203.408 208.068 203.223 207.878 202.979 207.878C202.723 207.878 202.556 208.079 202.556 208.338C202.556 208.602 202.725 208.802 202.979 208.802ZM204.027 209V207.717H204.255V207.889H204.296C204.376 207.75 204.517 207.678 204.679 207.678C204.943 207.678 205.12 207.863 205.12 208.153V209H204.892V208.222C204.892 208.03 204.799 207.889 204.591 207.889C204.391 207.889 204.255 208.045 204.255 208.222V209H204.027ZM206.643 209.039C206.309 209.039 206.104 208.838 206.104 208.489V207.717H206.332V208.484C206.332 208.687 206.435 208.833 206.643 208.833C206.851 208.833 206.954 208.687 206.954 208.484V207.717H207.185V208.489C207.185 208.838 206.979 209.039 206.643 209.039ZM208.269 207.678C208.628 207.678 208.875 207.966 208.875 208.351C208.875 208.746 208.613 209.039 208.256 209.039C208.076 209.039 207.917 208.961 207.838 208.8H207.797V209.488H207.571V207.717H207.797V207.919H207.838C207.92 207.76 208.084 207.678 208.269 207.678ZM208.215 207.881C207.976 207.881 207.794 208.081 207.794 208.358C207.794 208.638 207.976 208.838 208.215 208.838C208.472 208.838 208.639 208.628 208.639 208.358C208.639 208.091 208.467 207.881 208.215 207.881ZM210.153 209.039C209.904 209.039 209.704 208.895 209.704 208.651C209.704 208.366 209.943 208.281 210.22 208.251L210.659 208.204V208.363L210.297 208.407C210.079 208.433 209.94 208.489 209.94 208.638C209.94 208.779 210.056 208.861 210.21 208.861C210.454 208.861 210.603 208.682 210.603 208.502V208.14C210.603 207.976 210.495 207.868 210.297 207.868C210.123 207.868 210.005 207.953 209.974 208.099H209.75C209.784 207.858 209.984 207.678 210.297 207.678C210.626 207.678 210.818 207.853 210.818 208.148V208.777C210.818 208.854 210.826 208.964 210.831 208.995V209H210.603C210.6 208.956 210.6 208.897 210.6 208.841H210.559C210.485 208.974 210.331 209.039 210.153 209.039ZM211.208 209V207.717H211.436V207.889H211.477C211.557 207.75 211.698 207.678 211.86 207.678C212.124 207.678 212.301 207.863 212.301 208.153V209H212.073V208.222C212.073 208.03 211.98 207.889 211.772 207.889C211.572 207.889 211.436 208.045 211.436 208.222V209H211.208ZM213.197 209.039C212.835 209.039 212.592 208.754 212.592 208.369C212.592 207.973 212.853 207.678 213.208 207.678C213.387 207.678 213.546 207.758 213.626 207.919H213.667V207.229H213.893V209H213.667V208.8H213.626C213.544 208.959 213.379 209.039 213.197 209.039ZM213.249 208.838C213.49 208.838 213.67 208.638 213.67 208.358C213.67 208.081 213.49 207.881 213.249 207.881C212.994 207.881 212.828 208.091 212.828 208.358C212.828 208.628 212.997 208.838 213.249 208.838ZM215.367 209.039C215.053 209.039 214.833 208.892 214.794 208.638H215.02C215.059 208.795 215.202 208.856 215.367 208.856C215.528 208.856 215.664 208.779 215.664 208.653C215.664 208.528 215.557 208.482 215.4 208.456L215.249 208.43C215.007 208.392 214.84 208.299 214.84 208.066C214.84 207.835 215.046 207.678 215.338 207.678C215.61 207.678 215.813 207.804 215.867 208.05H215.646C215.605 207.922 215.498 207.86 215.338 207.86C215.177 207.86 215.066 207.94 215.066 208.05C215.066 208.163 215.151 208.204 215.318 208.23L215.469 208.256C215.705 208.292 215.89 208.389 215.89 208.636C215.89 208.882 215.667 209.039 215.367 209.039ZM216.191 209V207.717H216.419V209H216.191ZM216.188 207.486V207.229H216.422V207.486H216.188ZM216.938 209.488V209.298H217.664C217.772 209.298 217.813 209.257 217.813 209.157V208.746H217.772C217.692 208.92 217.523 209 217.341 209C216.974 209 216.727 208.723 216.727 208.348C216.727 207.966 216.992 207.678 217.361 207.678C217.533 207.678 217.692 207.758 217.769 207.919H217.81V207.717H218.026V209.208C218.026 209.388 217.928 209.488 217.733 209.488H216.938ZM217.387 208.802C217.631 208.802 217.816 208.61 217.816 208.338C217.816 208.068 217.631 207.878 217.387 207.878C217.13 207.878 216.963 208.079 216.963 208.338C216.963 208.602 217.133 208.802 217.387 208.802ZM218.434 209V207.717H218.662V207.889H218.704C218.783 207.75 218.924 207.678 219.086 207.678C219.35 207.678 219.527 207.863 219.527 208.153V209H219.299V208.222C219.299 208.03 219.207 207.889 218.999 207.889C218.798 207.889 218.662 208.045 218.662 208.222V209H218.434ZM220.532 209V207.717H220.76V209H220.532ZM220.529 207.486V207.229H220.763V207.486H220.529ZM221.169 209V207.717H221.397V207.889H221.438C221.518 207.75 221.659 207.678 221.821 207.678C222.085 207.678 222.262 207.863 222.262 208.153V209H222.034V208.222C222.034 208.03 221.941 207.889 221.733 207.889C221.533 207.889 221.397 208.045 221.397 208.222V209H221.169ZM223.444 209L223.133 207.717H223.367L223.613 208.813H223.652L223.916 207.717H224.273L224.532 208.813H224.573L224.822 207.717H225.048L224.724 209H224.37L224.111 207.907H224.07L223.808 209H223.444ZM225.317 209V207.717H225.545V209H225.317ZM225.314 207.486V207.229H225.548V207.486H225.314ZM226.241 209.013C226.105 209.013 226.033 208.936 226.033 208.797V207.789L226.136 207.894H225.787V207.717H226.036V207.37H226.254V207.717H226.575V207.894H226.151L226.256 207.789V208.733C226.256 208.802 226.282 208.831 226.354 208.831H226.575V209.013H226.241ZM226.858 209V207.229H227.087V207.889H227.128C227.207 207.75 227.349 207.678 227.51 207.678C227.775 207.678 227.952 207.863 227.952 208.153V209H227.723V208.222C227.723 208.03 227.631 207.889 227.423 207.889C227.223 207.889 227.087 208.045 227.087 208.222V209H226.858ZM229.552 209.039C229.141 209.039 228.892 208.828 228.841 208.533H229.085C229.146 208.751 229.341 208.836 229.552 208.836C229.788 208.836 229.947 208.713 229.947 208.541C229.947 208.363 229.832 208.286 229.598 208.233L229.359 208.176C229.131 208.122 228.905 207.991 228.905 207.694C228.905 207.409 229.151 207.19 229.513 207.19C229.885 207.19 230.091 207.386 230.152 207.678H229.914C229.855 207.483 229.719 207.396 229.516 207.396C229.275 207.396 229.144 207.519 229.144 207.676C229.144 207.84 229.252 207.912 229.48 207.968L229.719 208.027C229.955 208.084 230.191 208.207 230.191 208.52C230.191 208.82 229.937 209.039 229.552 209.039ZM230.49 209V207.717H230.719V207.889H230.76C230.837 207.755 230.97 207.678 231.14 207.678C231.312 207.678 231.445 207.758 231.517 207.899H231.563C231.648 207.76 231.784 207.678 231.971 207.678C232.251 207.678 232.428 207.868 232.428 208.158V209H232.2V208.217C232.2 208.03 232.112 207.889 231.905 207.889C231.712 207.889 231.573 208.035 231.573 208.199V209H231.342V208.222C231.342 208.032 231.255 207.889 231.047 207.889C230.855 207.889 230.719 208.043 230.719 208.212V209H230.49ZM233.178 209.039C232.929 209.039 232.729 208.895 232.729 208.651C232.729 208.366 232.968 208.281 233.245 208.251L233.684 208.204V208.363L233.322 208.407C233.104 208.433 232.965 208.489 232.965 208.638C232.965 208.779 233.081 208.861 233.235 208.861C233.479 208.861 233.627 208.682 233.627 208.502V208.14C233.627 207.976 233.52 207.868 233.322 207.868C233.147 207.868 233.029 207.953 232.999 208.099H232.775C232.809 207.858 233.009 207.678 233.322 207.678C233.65 207.678 233.843 207.853 233.843 208.148V208.777C233.843 208.854 233.851 208.964 233.856 208.995V209H233.627C233.625 208.956 233.625 208.897 233.625 208.841H233.584C233.509 208.974 233.355 209.039 233.178 209.039ZM234.233 209V207.717H234.458V207.958H234.499C234.569 207.791 234.743 207.694 234.949 207.694C234.956 207.694 234.961 207.694 234.967 207.694V207.94C234.926 207.935 234.908 207.932 234.874 207.932C234.641 207.932 234.461 208.081 234.461 208.366V209H234.233ZM235.505 209.013C235.369 209.013 235.297 208.936 235.297 208.797V207.789L235.4 207.894H235.051V207.717H235.3V207.37H235.518V207.717H235.839V207.894H235.415L235.52 207.789V208.733C235.52 208.802 235.546 208.831 235.618 208.831H235.839V209.013H235.505ZM189.345 212L188.965 210.229H189.211L189.527 211.787H189.573L189.907 210.229H190.274L190.625 211.787H190.672L190.985 210.229H191.221L190.836 212H190.456L190.11 210.465H190.063L189.735 212H189.345ZM191.781 212.039C191.532 212.039 191.332 211.895 191.332 211.651C191.332 211.366 191.57 211.281 191.847 211.251L192.286 211.204V211.363L191.924 211.407C191.706 211.433 191.568 211.489 191.568 211.638C191.568 211.779 191.683 211.861 191.837 211.861C192.081 211.861 192.23 211.682 192.23 211.502V211.14C192.23 210.976 192.122 210.868 191.924 210.868C191.75 210.868 191.632 210.953 191.601 211.099H191.378C191.411 210.858 191.611 210.678 191.924 210.678C192.253 210.678 192.445 210.853 192.445 211.148V211.777C192.445 211.854 192.453 211.964 192.458 211.995V212H192.23C192.227 211.956 192.227 211.897 192.227 211.841H192.186C192.112 211.974 191.958 212.039 191.781 212.039ZM192.835 212V210.229H193.063V212H192.835ZM193.472 212V210.229H193.7V212H193.472ZM194.66 212.039C194.262 212.039 194.008 211.759 194.008 211.358C194.008 210.963 194.27 210.678 194.652 210.678C195.043 210.678 195.276 210.968 195.276 211.356C195.276 211.366 195.276 211.381 195.276 211.392H194.131V211.235H195.048C195.025 211.02 194.876 210.871 194.652 210.871C194.429 210.871 194.255 211.017 194.234 211.274L194.232 211.356C194.224 211.643 194.404 211.843 194.66 211.843C194.848 211.843 194.971 211.772 195.027 211.636H195.261C195.186 211.874 194.963 212.039 194.66 212.039ZM195.855 212.013C195.719 212.013 195.647 211.936 195.647 211.797V210.789L195.749 210.894H195.4V210.717H195.649V210.37H195.867V210.717H196.188V210.894H195.765L195.87 210.789V211.733C195.87 211.802 195.896 211.831 195.968 211.831H196.188V212.013H195.855ZM197.017 211.417V211.215H199.044V211.417H197.017ZM200.249 212.013C200.112 212.013 200.041 211.936 200.041 211.797V210.789L200.143 210.894H199.794V210.717H200.043V210.37H200.261V210.717H200.582V210.894H200.159L200.264 210.789V211.733C200.264 211.802 200.29 211.831 200.361 211.831H200.582V212.013H200.249ZM200.866 212V210.229H201.094V210.889H201.135C201.215 210.75 201.356 210.678 201.518 210.678C201.782 210.678 201.959 210.863 201.959 211.153V212H201.731V211.222C201.731 211.03 201.638 210.889 201.431 210.889C201.23 210.889 201.094 211.045 201.094 211.222V212H200.866ZM202.902 212.039C202.504 212.039 202.25 211.759 202.25 211.358C202.25 210.963 202.511 210.678 202.894 210.678C203.284 210.678 203.518 210.968 203.518 211.356C203.518 211.366 203.518 211.381 203.518 211.392H202.373V211.235H203.289C203.266 211.02 203.117 210.871 202.894 210.871C202.671 210.871 202.496 211.017 202.476 211.274L202.473 211.356C202.465 211.643 202.645 211.843 202.902 211.843C203.089 211.843 203.212 211.772 203.269 211.636H203.502C203.428 211.874 203.204 212.039 202.902 212.039ZM204.954 212.039C204.62 212.039 204.415 211.838 204.415 211.489V210.717H204.643V211.484C204.643 211.687 204.746 211.833 204.954 211.833C205.162 211.833 205.264 211.687 205.264 211.484V210.717H205.495V211.489C205.495 211.838 205.29 212.039 204.954 212.039ZM205.881 212V210.717H206.11V210.889H206.151C206.23 210.75 206.372 210.678 206.533 210.678C206.798 210.678 206.975 210.863 206.975 211.153V212H206.746V211.222C206.746 211.03 206.654 210.889 206.446 210.889C206.246 210.889 206.11 211.045 206.11 211.222V212H205.881ZM207.365 212V210.717H207.594V212H207.365ZM207.363 210.486V210.229H207.596V210.486H207.363ZM208.277 212L207.838 210.717H208.079L208.428 211.813H208.469L208.816 210.717H209.052L208.608 212H208.277ZM209.82 212.039C209.422 212.039 209.168 211.759 209.168 211.358C209.168 210.963 209.429 210.678 209.812 210.678C210.202 210.678 210.436 210.968 210.436 211.356C210.436 211.366 210.436 211.381 210.436 211.392H209.291V211.235H210.207C210.184 211.02 210.035 210.871 209.812 210.871C209.589 210.871 209.414 211.017 209.393 211.274L209.391 211.356C209.383 211.643 209.563 211.843 209.82 211.843C210.007 211.843 210.13 211.772 210.187 211.636H210.42C210.346 211.874 210.122 212.039 209.82 212.039ZM210.739 212V210.717H210.965V210.958H211.006C211.075 210.791 211.25 210.694 211.455 210.694C211.463 210.694 211.468 210.694 211.473 210.694V210.94C211.432 210.935 211.414 210.932 211.381 210.932C211.147 210.932 210.967 211.081 210.967 211.366V212H210.739ZM212.156 212.039C211.843 212.039 211.622 211.892 211.583 211.638H211.809C211.848 211.795 211.992 211.856 212.156 211.856C212.317 211.856 212.454 211.779 212.454 211.653C212.454 211.528 212.346 211.482 212.189 211.456L212.038 211.43C211.796 211.392 211.63 211.299 211.63 211.066C211.63 210.835 211.835 210.678 212.128 210.678C212.4 210.678 212.602 210.804 212.656 211.05H212.436C212.394 210.922 212.287 210.86 212.128 210.86C211.966 210.86 211.855 210.94 211.855 211.05C211.855 211.163 211.94 211.204 212.107 211.23L212.258 211.256C212.495 211.292 212.679 211.389 212.679 211.636C212.679 211.882 212.456 212.039 212.156 212.039ZM213.339 212.039C213.09 212.039 212.89 211.895 212.89 211.651C212.89 211.366 213.129 211.281 213.406 211.251L213.845 211.204V211.363L213.483 211.407C213.265 211.433 213.126 211.489 213.126 211.638C213.126 211.779 213.242 211.861 213.396 211.861C213.639 211.861 213.788 211.682 213.788 211.502V211.14C213.788 210.976 213.681 210.868 213.483 210.868C213.308 210.868 213.19 210.953 213.16 211.099H212.936C212.97 210.858 213.17 210.678 213.483 210.678C213.811 210.678 214.004 210.853 214.004 211.148V211.777C214.004 211.854 214.012 211.964 214.017 211.995V212H213.788C213.786 211.956 213.786 211.897 213.786 211.841H213.745C213.67 211.974 213.516 212.039 213.339 212.039ZM214.394 212V210.229H214.622V212H214.394ZM216.004 212.039C215.755 212.039 215.554 211.895 215.554 211.651C215.554 211.366 215.793 211.281 216.07 211.251L216.509 211.204V211.363L216.147 211.407C215.929 211.433 215.791 211.489 215.791 211.638C215.791 211.779 215.906 211.861 216.06 211.861C216.304 211.861 216.453 211.682 216.453 211.502V211.14C216.453 210.976 216.345 210.868 216.147 210.868C215.973 210.868 215.855 210.953 215.824 211.099H215.601C215.634 210.858 215.834 210.678 216.147 210.678C216.476 210.678 216.668 210.853 216.668 211.148V211.777C216.668 211.854 216.676 211.964 216.681 211.995V212H216.453C216.45 211.956 216.45 211.897 216.45 211.841H216.409C216.335 211.974 216.181 212.039 216.004 212.039ZM217.615 212.039C217.256 212.039 216.958 211.779 216.958 211.358C216.958 210.94 217.256 210.678 217.615 210.678C217.918 210.678 218.156 210.855 218.221 211.148H217.992C217.941 210.978 217.802 210.883 217.617 210.883C217.386 210.883 217.194 211.061 217.194 211.358C217.194 211.659 217.386 211.836 217.617 211.836C217.802 211.836 217.943 211.738 218 211.561H218.228C218.167 211.854 217.928 212.039 217.615 212.039ZM219.076 212.039C218.717 212.039 218.419 211.779 218.419 211.358C218.419 210.94 218.717 210.678 219.076 210.678C219.379 210.678 219.618 210.855 219.682 211.148H219.454C219.402 210.978 219.264 210.883 219.079 210.883C218.848 210.883 218.655 211.061 218.655 211.358C218.655 211.659 218.848 211.836 219.079 211.836C219.264 211.836 219.405 211.738 219.461 211.561H219.69C219.628 211.854 219.389 212.039 219.076 212.039ZM220.543 212.039C220.158 212.039 219.878 211.751 219.878 211.358C219.878 210.968 220.158 210.678 220.543 210.678C220.928 210.678 221.21 210.968 221.21 211.358C221.21 211.751 220.928 212.039 220.543 212.039ZM220.543 211.836C220.794 211.836 220.974 211.633 220.974 211.358C220.974 211.086 220.794 210.883 220.543 210.883C220.289 210.883 220.114 211.086 220.114 211.358C220.114 211.633 220.289 211.836 220.543 211.836ZM222.033 212.039C221.699 212.039 221.494 211.838 221.494 211.489V210.717H221.722V211.484C221.722 211.687 221.825 211.833 222.033 211.833C222.241 211.833 222.344 211.687 222.344 211.484V210.717H222.575V211.489C222.575 211.838 222.369 212.039 222.033 212.039ZM222.961 212V210.717H223.189V210.889H223.23C223.31 210.75 223.451 210.678 223.613 210.678C223.877 210.678 224.054 210.863 224.054 211.153V212H223.826V211.222C223.826 211.03 223.733 210.889 223.525 210.889C223.325 210.889 223.189 211.045 223.189 211.222V212H222.961ZM224.722 212.013C224.586 212.013 224.514 211.936 224.514 211.797V210.789L224.617 210.894H224.268V210.717H224.517V210.37H224.735V210.717H225.056V210.894H224.632L224.737 210.789V211.733C224.737 211.802 224.763 211.831 224.835 211.831H225.056V212.013H224.722ZM226.033 212V210.894H225.8V210.717H226.033V210.442C226.033 210.303 226.113 210.224 226.251 210.224H226.572V210.404H226.351C226.282 210.404 226.254 210.432 226.254 210.504V210.717H226.572V210.894H226.256V212H226.033ZM227.345 212.039C226.96 212.039 226.681 211.751 226.681 211.358C226.681 210.968 226.96 210.678 227.345 210.678C227.73 210.678 228.013 210.968 228.013 211.358C228.013 211.751 227.73 212.039 227.345 212.039ZM227.345 211.836C227.597 211.836 227.777 211.633 227.777 211.358C227.777 211.086 227.597 210.883 227.345 210.883C227.091 210.883 226.917 211.086 226.917 211.358C226.917 211.633 227.091 211.836 227.345 211.836ZM228.317 212V210.717H228.543V210.958H228.584C228.653 210.791 228.828 210.694 229.033 210.694C229.041 210.694 229.046 210.694 229.051 210.694V210.94C229.01 210.935 228.992 210.932 228.959 210.932C228.725 210.932 228.546 211.081 228.546 211.366V212H228.317ZM230.106 212.013C229.97 212.013 229.898 211.936 229.898 211.797V210.789L230.001 210.894H229.652V210.717H229.901V210.37H230.119V210.717H230.44V210.894H230.016L230.121 210.789V211.733C230.121 211.802 230.147 211.831 230.219 211.831H230.44V212.013H230.106ZM230.723 212V210.229H230.952V210.889H230.993C231.073 210.75 231.214 210.678 231.375 210.678C231.64 210.678 231.817 210.863 231.817 211.153V212H231.588V211.222C231.588 211.03 231.496 210.889 231.288 210.889C231.088 210.889 230.952 211.045 230.952 211.222V212H230.723ZM232.759 212.039C232.361 212.039 232.107 211.759 232.107 211.358C232.107 210.963 232.369 210.678 232.751 210.678C233.142 210.678 233.375 210.968 233.375 211.356C233.375 211.366 233.375 211.381 233.375 211.392H232.23V211.235H233.147C233.124 211.02 232.975 210.871 232.751 210.871C232.528 210.871 232.354 211.017 232.333 211.274L232.33 211.356C232.323 211.643 232.502 211.843 232.759 211.843C232.946 211.843 233.07 211.772 233.126 211.636H233.36C233.285 211.874 233.062 212.039 232.759 212.039ZM189.64 215.039C189.255 215.039 188.975 214.751 188.975 214.358C188.975 213.968 189.255 213.678 189.64 213.678C190.025 213.678 190.307 213.968 190.307 214.358C190.307 214.751 190.025 215.039 189.64 215.039ZM189.64 214.836C189.891 214.836 190.071 214.633 190.071 214.358C190.071 214.086 189.891 213.883 189.64 213.883C189.386 213.883 189.211 214.086 189.211 214.358C189.211 214.633 189.386 214.836 189.64 214.836ZM190.612 215V213.717H190.84V213.889H190.881C190.961 213.75 191.102 213.678 191.264 213.678C191.528 213.678 191.705 213.863 191.705 214.153V215H191.477V214.222C191.477 214.03 191.384 213.889 191.176 213.889C190.976 213.889 190.84 214.045 190.84 214.222V215H190.612ZM192.653 215.039C192.293 215.039 191.996 214.779 191.996 214.358C191.996 213.94 192.293 213.678 192.653 213.678C192.955 213.678 193.194 213.855 193.258 214.148H193.03C192.979 213.978 192.84 213.883 192.655 213.883C192.424 213.883 192.232 214.061 192.232 214.358C192.232 214.659 192.424 214.836 192.655 214.836C192.84 214.836 192.981 214.738 193.038 214.561H193.266C193.204 214.854 192.966 215.039 192.653 215.039ZM193.557 215V213.229H193.785V213.889H193.826C193.906 213.75 194.047 213.678 194.209 213.678C194.473 213.678 194.65 213.863 194.65 214.153V215H194.422V214.222C194.422 214.03 194.329 213.889 194.122 213.889C193.921 213.889 193.785 214.045 193.785 214.222V215H193.557ZM195.4 215.039C195.151 215.039 194.951 214.895 194.951 214.651C194.951 214.366 195.19 214.281 195.467 214.251L195.906 214.204V214.363L195.544 214.407C195.326 214.433 195.187 214.489 195.187 214.638C195.187 214.779 195.303 214.861 195.457 214.861C195.7 214.861 195.849 214.682 195.849 214.502V214.14C195.849 213.976 195.741 213.868 195.544 213.868C195.369 213.868 195.251 213.953 195.22 214.099H194.997C195.03 213.858 195.231 213.678 195.544 213.678C195.872 213.678 196.065 213.853 196.065 214.148V214.777C196.065 214.854 196.073 214.964 196.078 214.995V215H195.849C195.847 214.956 195.847 214.897 195.847 214.841H195.806C195.731 214.974 195.577 215.039 195.4 215.039ZM196.454 215V213.717H196.683V215H196.454ZM196.452 213.486V213.229H196.685V213.486H196.452ZM197.091 215V213.717H197.32V213.889H197.361C197.44 213.75 197.581 213.678 197.743 213.678C198.007 213.678 198.184 213.863 198.184 214.153V215H197.956V214.222C197.956 214.03 197.864 213.889 197.656 213.889C197.456 213.889 197.32 214.045 197.32 214.222V215H197.091ZM199.366 215L199.056 213.717H199.289L199.536 214.813H199.574L199.838 213.717H200.195L200.454 214.813H200.495L200.744 213.717H200.97L200.647 215H200.293L200.033 213.907H199.992L199.731 215H199.366ZM201.794 215.039C201.409 215.039 201.129 214.751 201.129 214.358C201.129 213.968 201.409 213.678 201.794 213.678C202.179 213.678 202.461 213.968 202.461 214.358C202.461 214.751 202.179 215.039 201.794 215.039ZM201.794 214.836C202.045 214.836 202.225 214.633 202.225 214.358C202.225 214.086 202.045 213.883 201.794 213.883C201.54 213.883 201.365 214.086 201.365 214.358C201.365 214.633 201.54 214.836 201.794 214.836ZM202.766 215V213.717H202.992V213.958H203.033C203.102 213.791 203.277 213.694 203.482 213.694C203.49 213.694 203.495 213.694 203.5 213.694V213.94C203.459 213.935 203.441 213.932 203.407 213.932C203.174 213.932 202.994 214.081 202.994 214.366V215H202.766ZM203.751 215V213.229H203.979V215H203.751ZM204.893 215.039C204.531 215.039 204.287 214.754 204.287 214.369C204.287 213.973 204.549 213.678 204.903 213.678C205.083 213.678 205.242 213.758 205.322 213.919H205.363V213.229H205.589V215H205.363V214.8H205.322C205.24 214.959 205.075 215.039 204.893 215.039ZM204.945 214.838C205.186 214.838 205.365 214.638 205.365 214.358C205.365 214.081 205.186 213.881 204.945 213.881C204.69 213.881 204.524 214.091 204.524 214.358C204.524 214.628 204.693 214.838 204.945 214.838ZM205.956 215V214.702H206.243V215H205.956Z" fill="#0A0B0D"/>
</g>
<rect x="105.939" y="125" width="107.96" height="63.525" rx="1.28333" fill="#FAFAFA"/>
<path d="M167.844 155.82C167.844 155.643 167.722 155.404 167.334 155.129C166.954 154.86 166.383 154.604 165.645 154.383C164.174 153.943 162.122 153.666 159.84 153.666C157.558 153.666 155.505 153.943 154.034 154.383C153.297 154.604 152.725 154.86 152.346 155.129C151.957 155.404 151.836 155.643 151.836 155.82C151.836 155.997 151.957 156.235 152.346 156.51C152.725 156.779 153.297 157.035 154.034 157.256C155.505 157.696 157.558 157.974 159.84 157.974C162.122 157.974 164.174 157.696 165.645 157.256C166.383 157.035 166.954 156.779 167.334 156.51C167.722 156.235 167.844 155.997 167.844 155.82ZM168.537 155.82C168.537 156.333 168.191 156.753 167.734 157.076C167.269 157.405 166.617 157.688 165.844 157.92C164.292 158.384 162.17 158.667 159.84 158.667C157.51 158.667 155.387 158.384 153.835 157.92C153.062 157.688 152.411 157.405 151.945 157.076C151.489 156.753 151.143 156.333 151.143 155.82C151.143 155.306 151.489 154.887 151.945 154.564C152.411 154.234 153.062 153.951 153.835 153.72C155.387 153.255 157.51 152.973 159.84 152.973C162.17 152.973 164.292 153.255 165.844 153.72C166.617 153.951 167.269 154.234 167.734 154.564C168.191 154.887 168.537 155.306 168.537 155.82Z" fill="#B1B7C3"/>
<path d="M164.006 152.266C164.006 154.567 162.141 156.432 159.84 156.432C157.539 156.432 155.674 154.567 155.674 152.266C155.674 149.965 157.539 148.1 159.84 148.1C162.141 148.1 164.006 149.965 164.006 152.266Z" fill="#0000FF"/>
<path d="M168.244 156.584L160.008 165.205C159.942 165.274 159.851 165.312 159.756 165.312C159.661 165.312 159.57 165.272 159.505 165.203L151.52 156.705L152.025 156.23L159.76 164.462L167.743 156.105L168.244 156.584Z" fill="#B1B7C3"/>
<path d="M159.839 159.859C160.813 159.859 161.708 159.973 162.37 160.163C162.699 160.258 162.991 160.377 163.208 160.524C163.413 160.664 163.63 160.885 163.63 161.197C163.63 161.508 163.413 161.729 163.208 161.869C162.991 162.016 162.699 162.136 162.37 162.23C161.708 162.421 160.813 162.534 159.839 162.534C158.865 162.534 157.971 162.421 157.308 162.23C156.979 162.136 156.688 162.016 156.471 161.869C156.272 161.733 156.062 161.522 156.049 161.226L156.049 161.197L156.049 161.168C156.062 160.871 156.272 160.66 156.471 160.524C156.688 160.377 156.979 160.258 157.308 160.163C157.971 159.973 158.865 159.859 159.839 159.859ZM159.839 160.552C158.911 160.552 158.084 160.661 157.5 160.829C157.205 160.914 156.992 161.008 156.861 161.098C156.791 161.145 156.761 161.179 156.749 161.197C156.761 161.214 156.791 161.248 156.861 161.296C156.992 161.385 157.205 161.48 157.5 161.564C158.084 161.732 158.911 161.841 159.839 161.841C160.767 161.841 161.595 161.732 162.179 161.564C162.473 161.48 162.686 161.385 162.818 161.296C162.888 161.248 162.918 161.214 162.93 161.197C162.918 161.179 162.888 161.145 162.818 161.098C162.686 161.008 162.473 160.914 162.179 160.829C161.595 160.661 160.767 160.552 159.839 160.552Z" fill="#B1B7C3"/>
<rect x="144.514" y="227.186" width="30.8125" height="7.37917" rx="0.48125" stroke="#32353D" stroke-width="0.320833"/>
<path d="M147.71 231.414C147.318 231.414 147.038 231.049 147.038 230.492C147.038 229.935 147.333 229.565 147.703 229.565C148.039 229.565 148.252 229.82 148.314 230.174H148.07C148.031 229.948 147.906 229.784 147.703 229.784C147.454 229.784 147.279 230.061 147.279 230.489C147.279 230.916 147.446 231.198 147.716 231.198C147.965 231.198 148.103 230.962 148.095 230.605L148.211 230.661H147.718V230.459H148.329V230.597C148.329 231.113 148.08 231.414 147.71 231.414ZM148.713 231.375V229.604H149.878V229.82H148.949V231.162H149.896V231.375H148.713ZM148.836 230.566V230.356H149.747V230.566H148.836ZM150.75 231.375V229.82H150.185V229.604H151.551V229.82H150.986V231.375H150.75ZM153.931 231.375V229.82H153.366V229.604H154.731V229.82H154.167V231.375H153.931ZM155.991 231.375V229.604H156.227V231.375H155.991ZM155.054 231.375V229.604H155.29V231.375H155.054ZM155.182 230.584V230.371H156.111V230.584H155.182ZM156.665 231.375V229.604H157.83V229.82H156.901V231.162H157.848V231.375H156.665ZM156.788 230.566V230.356H157.699V230.566H156.788ZM159.825 231.375V229.604H160.466C160.795 229.604 161.018 229.758 161.018 230.056C161.018 230.258 160.916 230.382 160.733 230.441V230.479C160.959 230.525 161.077 230.667 161.077 230.898C161.077 231.206 160.836 231.375 160.515 231.375H159.825ZM160.061 231.167H160.497C160.703 231.167 160.836 231.062 160.836 230.867C160.836 230.682 160.7 230.577 160.497 230.577H159.956V230.384H160.441C160.644 230.384 160.777 230.279 160.777 230.097C160.777 229.909 160.641 229.812 160.441 229.812H160.061V231.167ZM161.282 231.375L161.828 229.604H162.183L162.719 231.375H162.47L162.023 229.82H161.977L161.523 231.375H161.282ZM161.561 230.898L161.623 230.697H162.39L162.457 230.898H161.561ZM163.616 231.414C163.206 231.414 162.962 231.198 162.916 230.908H163.154C163.211 231.126 163.403 231.211 163.616 231.211C163.847 231.211 164.004 231.088 164.004 230.916C164.004 230.738 163.891 230.661 163.663 230.608L163.426 230.551C163.183 230.492 162.98 230.351 162.98 230.069C162.98 229.786 163.221 229.565 163.58 229.565C163.955 229.565 164.15 229.766 164.207 230.053H163.973C163.919 229.863 163.788 229.771 163.583 229.771C163.347 229.771 163.218 229.897 163.218 230.051C163.218 230.212 163.319 230.289 163.547 230.343L163.783 230.4C164.019 230.456 164.248 230.582 164.248 230.895C164.248 231.195 163.996 231.414 163.616 231.414ZM164.616 231.375V229.604H165.782V229.82H164.852V231.162H165.8V231.375H164.616ZM164.74 230.566V230.356H165.651V230.566H164.74ZM167.643 231.375L168.19 229.604H168.544L169.08 231.375H168.831L168.385 229.82H168.339L167.884 231.375H167.643ZM167.923 230.898L167.984 230.697H168.752L168.819 230.898H167.923ZM169.357 231.375V229.604H170.055C170.373 229.604 170.609 229.794 170.609 230.112C170.609 230.433 170.373 230.628 170.052 230.628H169.477V230.42H170.032C170.234 230.42 170.368 230.312 170.368 230.122C170.368 229.927 170.234 229.814 170.032 229.814H169.59V230.484L169.593 230.551V231.375H169.357ZM170.947 231.375V229.604H171.645C171.963 229.604 172.199 229.794 172.199 230.112C172.199 230.433 171.963 230.628 171.642 230.628H171.067V230.42H171.622C171.825 230.42 171.958 230.312 171.958 230.122C171.958 229.927 171.825 229.814 171.622 229.814H171.18V230.484L171.183 230.551V231.375H170.947Z" fill="#0A0B0D"/>
<path d="M50.916 83.3565C50.916 83.1829 50.916 83.0961 50.9487 83.0293C50.9801 82.9654 51.0318 82.9136 51.0957 82.8823C51.1625 82.8496 51.2493 82.8496 51.4229 82.8496H56.8258C56.9994 82.8496 57.0862 82.8496 57.153 82.8823C57.2169 82.9136 57.2686 82.9654 57.3 83.0293C57.3327 83.0961 57.3327 83.1829 57.3327 83.3565V88.7594C57.3327 88.933 57.3327 89.0198 57.3 89.0866C57.2686 89.1505 57.2169 89.2022 57.153 89.2336C57.0862 89.2663 56.9994 89.2663 56.8258 89.2663H51.4229C51.2493 89.2663 51.1625 89.2663 51.0957 89.2336C51.0318 89.2022 50.9801 89.1505 50.9487 89.0866C50.916 89.0198 50.916 88.933 50.916 88.7594V83.3565Z" fill="#0000FF"/>
</g>
<defs>
<clipPath id="clip0_3884_3710">
<rect width="320" height="252" rx="8" fill="white"/>
</clipPath>
</defs>
</svg>
