<svg width="320" height="252" viewBox="0 0 320 252" fill="none" xmlns="http://www.w3.org/2000/svg">
<rect width="320" height="252" rx="8" fill="#FAFAFA"/>
<rect x="86.793" y="131.75" width="63.5872" height="63.5872" rx="0.635872" fill="#0000FF"/>
<path d="M88.4765 193.066V189.556H90.0636C90.73 189.556 91.1573 189.862 91.1573 190.442C91.1573 190.869 90.9386 191.088 90.6283 191.205V191.296C91.0454 191.393 91.2642 191.637 91.2642 192.11C91.2642 192.736 90.786 193.066 90.1349 193.066H88.4765ZM90.1094 192.481C90.3994 192.481 90.5927 192.308 90.5927 192.018C90.5927 191.744 90.3943 191.566 90.1094 191.566H88.8478V191.032H90.0026C90.2875 191.032 90.4808 190.854 90.4808 190.579C90.4808 190.299 90.2824 190.131 90.0026 190.131H89.1327V192.481H90.1094ZM92.7744 193.143C92.0825 193.143 91.6501 192.736 91.6501 192.034V190.523H92.286V192.018C92.286 192.324 92.4386 192.568 92.7744 192.568C93.105 192.568 93.2576 192.324 93.2576 192.018V190.523H93.8935V192.034C93.8935 192.736 93.4662 193.143 92.7744 193.143ZM94.4194 193.066V190.523H95.0553V193.066H94.4194ZM94.4143 190.192V189.556H95.0604V190.192H94.4143ZM95.6131 193.066V189.556H96.2489V193.066H95.6131ZM97.7834 193.143C97.0967 193.143 96.6337 192.593 96.6337 191.82C96.6337 191.032 97.1424 190.447 97.819 190.447C98.0988 190.447 98.3684 190.548 98.5261 190.833H98.6177V189.556H99.2485V193.066H98.6177V192.771H98.5261C98.3633 193.036 98.0581 193.143 97.7834 193.143ZM97.9564 192.573C98.3379 192.573 98.6177 192.268 98.6177 191.795C98.6177 191.322 98.3379 191.016 97.9564 191.016C97.5647 191.016 97.2849 191.337 97.2849 191.795C97.2849 192.252 97.5698 192.573 97.9564 192.573ZM100.784 193.066V190.523H101.42V193.066H100.784ZM100.779 190.192V189.556H101.425V190.192H100.779ZM101.977 193.066V190.523H102.613V190.823H102.705C102.862 190.564 103.112 190.447 103.397 190.447C103.91 190.447 104.246 190.798 104.246 191.362V193.066H103.61V191.561C103.61 191.276 103.478 191.027 103.132 191.027C102.801 191.027 102.613 191.276 102.613 191.561V193.066H101.977ZM106.327 193.087C106.062 193.087 105.899 192.914 105.899 192.634V190.711L106.195 191.006H105.431V190.523H105.91V189.836H106.515V190.523H107.115V191.006H106.23L106.525 190.711V192.425C106.525 192.532 106.566 192.583 106.688 192.583H107.115V193.087H106.327ZM107.486 193.066V189.556H108.122V190.823H108.213C108.371 190.564 108.62 190.447 108.905 190.447C109.419 190.447 109.755 190.798 109.755 191.362V193.066H109.119V191.561C109.119 191.276 108.986 191.027 108.641 191.027C108.31 191.027 108.122 191.276 108.122 191.561V193.066H107.486ZM111.418 193.143C110.635 193.143 110.116 192.609 110.116 191.79C110.116 190.986 110.665 190.447 111.423 190.447C112.217 190.447 112.675 191.037 112.675 191.815C112.675 191.851 112.675 191.891 112.675 191.927H110.457V191.505H112.054C112.003 191.164 111.734 190.965 111.418 190.965C111.057 190.965 110.762 191.194 110.737 191.596L110.732 191.846C110.732 192.319 111.042 192.598 111.418 192.598C111.713 192.598 111.891 192.497 111.978 192.319H112.629C112.497 192.797 112.024 193.143 111.418 193.143ZM115.665 193.143C114.643 193.143 113.885 192.375 113.885 191.311C113.885 190.248 114.643 189.48 115.665 189.48C116.688 189.48 117.446 190.248 117.446 191.311C117.446 192.375 116.688 193.143 115.665 193.143ZM115.665 192.532C116.322 192.532 116.744 191.998 116.744 191.311C116.744 190.625 116.322 190.091 115.665 190.091C115.009 190.091 114.587 190.625 114.587 191.311C114.587 191.998 115.009 192.532 115.665 192.532ZM119.304 190.447C119.991 190.447 120.454 190.996 120.454 191.769C120.454 192.558 119.945 193.143 119.269 193.143C118.989 193.143 118.719 193.041 118.562 192.756H118.47V194.033H117.839V190.523H118.47V190.818H118.562C118.724 190.553 119.03 190.447 119.304 190.447ZM119.131 191.016C118.75 191.016 118.47 191.322 118.47 191.795C118.47 192.268 118.75 192.573 119.131 192.573C119.523 192.573 119.803 192.252 119.803 191.795C119.803 191.337 119.518 191.016 119.131 191.016ZM121.97 193.143C121.187 193.143 120.668 192.609 120.668 191.79C120.668 190.986 121.218 190.447 121.975 190.447C122.769 190.447 123.227 191.037 123.227 191.815C123.227 191.851 123.227 191.891 123.227 191.927H121.009V191.505H122.606C122.555 191.164 122.286 190.965 121.97 190.965C121.609 190.965 121.314 191.194 121.289 191.596L121.284 191.846C121.284 192.319 121.594 192.598 121.97 192.598C122.265 192.598 122.443 192.497 122.53 192.319H123.181C123.049 192.797 122.576 193.143 121.97 193.143ZM123.61 193.066V190.523H124.245V190.823H124.337C124.495 190.564 124.744 190.447 125.029 190.447C125.543 190.447 125.878 190.798 125.878 191.362V193.066H125.242V191.561C125.242 191.276 125.11 191.027 124.764 191.027C124.434 191.027 124.245 191.276 124.245 191.561V193.066H123.61ZM127.683 192.919L127.24 192.476L128.853 190.864V190.787L127.688 190.808V190.269H129.891V192.466H129.351L129.372 191.296H129.295L127.683 192.919Z" fill="white"/>
<rect x="136" y="166" width="63.5872" height="63.5872" rx="0.635872" fill="#B8A581"/>
<path d="M137.684 227.316V223.806H139.352C139.993 223.806 140.395 224.137 140.395 224.707C140.395 225.088 140.222 225.358 139.856 225.495V225.587C140.202 225.668 140.354 225.867 140.364 226.187L140.4 227.316H139.734L139.708 226.314C139.698 225.999 139.55 225.867 139.255 225.867H138.055V225.297H139.235C139.535 225.297 139.723 225.114 139.723 224.834C139.723 224.564 139.53 224.391 139.235 224.391H138.335V225.378L138.345 225.785V227.316H137.684ZM142.007 227.393C141.224 227.393 140.705 226.859 140.705 226.04C140.705 225.236 141.254 224.697 142.012 224.697C142.806 224.697 143.264 225.287 143.264 226.065C143.264 226.101 143.264 226.141 143.264 226.177H141.046V225.755H142.643C142.592 225.414 142.323 225.215 142.007 225.215C141.646 225.215 141.351 225.444 141.326 225.846L141.32 226.096C141.32 226.569 141.631 226.848 142.007 226.848C142.302 226.848 142.48 226.747 142.567 226.569H143.218C143.086 227.047 142.613 227.393 142.007 227.393ZM144.608 227.393C143.967 227.393 143.509 227.072 143.438 226.569H144.063C144.135 226.792 144.369 226.889 144.613 226.889C144.862 226.889 145.066 226.782 145.066 226.594C145.066 226.406 144.872 226.355 144.608 226.309L144.338 226.263C143.829 226.177 143.514 225.963 143.514 225.505C143.514 225.007 143.952 224.697 144.557 224.697C145.147 224.697 145.539 224.971 145.645 225.449H145.035C144.964 225.261 144.776 225.185 144.562 225.185C144.303 225.185 144.135 225.297 144.135 225.455C144.135 225.617 144.267 225.668 144.542 225.714L144.811 225.76C145.305 225.841 145.681 226.045 145.681 226.538C145.681 227.077 145.233 227.393 144.608 227.393ZM147.202 227.393C146.444 227.393 145.874 226.828 145.874 226.045C145.874 225.261 146.444 224.697 147.202 224.697C147.955 224.697 148.529 225.261 148.529 226.045C148.529 226.828 147.955 227.393 147.202 227.393ZM147.202 226.818C147.593 226.818 147.878 226.508 147.878 226.045C147.878 225.582 147.593 225.271 147.202 225.271C146.805 225.271 146.525 225.582 146.525 226.045C146.525 226.508 146.805 226.818 147.202 226.818ZM149.999 227.393C149.307 227.393 148.874 226.986 148.874 226.284V224.773H149.51V226.268C149.51 226.574 149.663 226.818 149.999 226.818C150.329 226.818 150.482 226.574 150.482 226.268V224.773H151.118V226.284C151.118 226.986 150.69 227.393 149.999 227.393ZM151.644 227.316V224.773H152.274V225.226H152.366C152.493 224.915 152.814 224.727 153.18 224.727C153.195 224.727 153.205 224.727 153.221 224.727V225.409C153.149 225.399 153.104 225.394 153.007 225.394C152.6 225.394 152.279 225.612 152.279 226.141V227.316H151.644ZM154.608 227.393C153.86 227.393 153.295 226.838 153.295 226.045C153.295 225.251 153.86 224.697 154.608 224.697C155.243 224.697 155.732 225.088 155.849 225.683H155.218C155.131 225.434 154.928 225.271 154.613 225.271C154.221 225.271 153.946 225.572 153.946 226.04C153.946 226.518 154.221 226.818 154.613 226.818C154.928 226.818 155.142 226.65 155.233 226.385H155.864C155.762 226.981 155.269 227.393 154.608 227.393ZM157.331 227.393C156.548 227.393 156.029 226.859 156.029 226.04C156.029 225.236 156.578 224.697 157.336 224.697C158.13 224.697 158.588 225.287 158.588 226.065C158.588 226.101 158.588 226.141 158.588 226.177H156.37V225.755H157.967C157.916 225.414 157.647 225.215 157.331 225.215C156.97 225.215 156.675 225.444 156.649 225.846L156.644 226.096C156.644 226.569 156.955 226.848 157.331 226.848C157.626 226.848 157.804 226.747 157.891 226.569H158.542C158.41 227.047 157.936 227.393 157.331 227.393ZM159.932 227.393C159.291 227.393 158.833 227.072 158.762 226.569H159.387C159.459 226.792 159.693 226.889 159.937 226.889C160.186 226.889 160.389 226.782 160.389 226.594C160.389 226.406 160.196 226.355 159.932 226.309L159.662 226.263C159.153 226.177 158.838 225.963 158.838 225.505C158.838 225.007 159.275 224.697 159.881 224.697C160.471 224.697 160.863 224.971 160.969 225.449H160.359C160.288 225.261 160.1 225.185 159.886 225.185C159.626 225.185 159.459 225.297 159.459 225.455C159.459 225.617 159.591 225.668 159.866 225.714L160.135 225.76C160.629 225.841 161.005 226.045 161.005 226.538C161.005 227.077 160.557 227.393 159.932 227.393ZM162.646 227.169L162.204 226.726L163.816 225.114V225.037L162.651 225.058V224.519H164.854V226.716H164.315L164.335 225.546H164.259L162.646 227.169Z" fill="#0A0B0D"/>
<rect x="186" y="145" width="63.5872" height="63.5872" rx="0.635872" fill="#FFD12F"/>
<path d="M187.684 206.316V202.806H188.772L189.876 205.645H189.978V202.806H190.593V206.316H189.505L188.401 203.478H188.299V206.316H187.684ZM192.305 206.393C191.522 206.393 191.003 205.859 191.003 205.04C191.003 204.236 191.552 203.697 192.31 203.697C193.104 203.697 193.562 204.287 193.562 205.065C193.562 205.101 193.562 205.141 193.562 205.177H191.344V204.755H192.941C192.89 204.414 192.621 204.215 192.305 204.215C191.944 204.215 191.649 204.444 191.624 204.846L191.619 205.096C191.619 205.569 191.929 205.848 192.305 205.848C192.6 205.848 192.778 205.747 192.865 205.569H193.516C193.384 206.047 192.911 206.393 192.305 206.393ZM193.545 206.316L194.43 205.065L193.54 203.773H194.262L194.796 204.602H194.888L195.396 203.773H196.083L195.218 205.034L196.114 206.316H195.386L194.852 205.497H194.761L194.232 206.316H193.545ZM196.986 206.337C196.721 206.337 196.559 206.164 196.559 205.884V203.961L196.854 204.256H196.091V203.773H196.569V203.086H197.174V203.773H197.774V204.256H196.889L197.184 203.961V205.675C197.184 205.782 197.225 205.833 197.347 205.833H197.774V206.337H196.986ZM199.176 206.316V202.806H200.31L201.028 205.645H201.119L201.852 202.806H202.95V206.316H202.345V203.478H202.243L201.506 206.316H200.61L199.883 203.478H199.781V206.316H199.176ZM204.662 206.393C203.879 206.393 203.36 205.859 203.36 205.04C203.36 204.236 203.909 203.697 204.667 203.697C205.461 203.697 205.919 204.287 205.919 205.065C205.919 205.101 205.919 205.141 205.919 205.177H203.701V204.755H205.298C205.247 204.414 204.977 204.215 204.662 204.215C204.301 204.215 204.006 204.444 203.98 204.846L203.975 205.096C203.975 205.569 204.286 205.848 204.662 205.848C204.957 205.848 205.135 205.747 205.222 205.569H205.873C205.74 206.047 205.267 206.393 204.662 206.393ZM207.43 206.393C206.647 206.393 206.128 205.859 206.128 205.04C206.128 204.236 206.678 203.697 207.436 203.697C208.229 203.697 208.687 204.287 208.687 205.065C208.687 205.101 208.687 205.141 208.687 205.177H206.469V204.755H208.066C208.015 204.414 207.746 204.215 207.43 204.215C207.069 204.215 206.774 204.444 206.749 204.846L206.744 205.096C206.744 205.569 207.054 205.848 207.43 205.848C207.726 205.848 207.904 205.747 207.99 205.569H208.641C208.509 206.047 208.036 206.393 207.43 206.393ZM209.671 206.337C209.406 206.337 209.243 206.164 209.243 205.884V203.961L209.538 204.256H208.775V203.773H209.253V203.086H209.859V203.773H210.459V204.256H209.574L209.869 203.961V205.675C209.869 205.782 209.91 205.833 210.032 205.833H210.459V206.337H209.671ZM211.918 206.393C211.226 206.393 210.794 205.986 210.794 205.284V203.773H211.43V205.268C211.43 205.574 211.582 205.818 211.918 205.818C212.249 205.818 212.401 205.574 212.401 205.268V203.773H213.037V205.284C213.037 205.986 212.61 206.393 211.918 206.393ZM215.028 203.697C215.715 203.697 216.178 204.246 216.178 205.019C216.178 205.808 215.669 206.393 214.993 206.393C214.713 206.393 214.443 206.291 214.286 206.006H214.194V207.283H213.563V203.773H214.194V204.068H214.286C214.448 203.803 214.754 203.697 215.028 203.697ZM214.855 204.266C214.474 204.266 214.194 204.572 214.194 205.045C214.194 205.518 214.474 205.823 214.855 205.823C215.247 205.823 215.527 205.502 215.527 205.045C215.527 204.587 215.242 204.266 214.855 204.266ZM217.835 206.169L217.393 205.726L219.005 204.114V204.037L217.84 204.058V203.519H220.043V205.716H219.504L219.524 204.546H219.448L217.835 206.169Z" fill="#0A0B0D"/>
<rect x="232" y="103" width="63.5872" height="63.5872" rx="0.635872" fill="#66C800"/>
<path d="M233.684 164.316V160.806H235.271C235.937 160.806 236.364 161.112 236.364 161.692C236.364 162.119 236.146 162.338 235.835 162.455V162.546C236.252 162.643 236.471 162.887 236.471 163.36C236.471 163.986 235.993 164.316 235.342 164.316H233.684ZM235.316 163.731C235.606 163.731 235.8 163.558 235.8 163.268C235.8 162.994 235.601 162.816 235.316 162.816H234.055V162.282H235.21C235.494 162.282 235.688 162.104 235.688 161.829C235.688 161.549 235.489 161.381 235.21 161.381H234.34V163.731H235.316ZM237.615 164.393C237.127 164.393 236.73 164.098 236.73 163.614C236.73 163.045 237.167 162.862 237.697 162.806L238.526 162.719V163.141L237.885 163.218C237.539 163.258 237.371 163.36 237.371 163.584C237.371 163.792 237.544 163.915 237.788 163.915C238.205 163.915 238.444 163.599 238.444 163.279V162.587C238.444 162.368 238.266 162.215 237.951 162.215C237.651 162.215 237.478 162.348 237.422 162.546H236.811C236.872 162.063 237.274 161.697 237.951 161.697C238.602 161.697 239.034 162.012 239.034 162.628V163.869C239.034 164.026 239.05 164.245 239.06 164.306V164.316H238.449C238.444 164.23 238.444 164.149 238.444 164.062H238.353C238.195 164.316 237.92 164.393 237.615 164.393ZM240.528 164.393C239.887 164.393 239.429 164.072 239.358 163.569H239.984C240.055 163.792 240.289 163.889 240.533 163.889C240.783 163.889 240.986 163.782 240.986 163.594C240.986 163.406 240.793 163.355 240.528 163.309L240.259 163.263C239.75 163.177 239.435 162.963 239.435 162.505C239.435 162.007 239.872 161.697 240.477 161.697C241.067 161.697 241.459 161.971 241.566 162.449H240.956C240.884 162.261 240.696 162.185 240.482 162.185C240.223 162.185 240.055 162.297 240.055 162.455C240.055 162.617 240.187 162.668 240.462 162.714L240.732 162.76C241.225 162.841 241.602 163.045 241.602 163.538C241.602 164.077 241.154 164.393 240.528 164.393ZM243.102 164.393C242.319 164.393 241.8 163.859 241.8 163.04C241.8 162.236 242.349 161.697 243.107 161.697C243.901 161.697 244.358 162.287 244.358 163.065C244.358 163.101 244.358 163.141 244.358 163.177H242.14V162.755H243.738C243.687 162.414 243.417 162.215 243.102 162.215C242.741 162.215 242.446 162.444 242.42 162.846L242.415 163.096C242.415 163.569 242.725 163.848 243.102 163.848C243.397 163.848 243.575 163.747 243.661 163.569H244.313C244.18 164.047 243.707 164.393 243.102 164.393ZM246.189 164.316L245.533 160.806H246.23L246.718 163.721H246.82L247.369 160.806H248.387L248.946 163.721H249.048L249.531 160.806H250.203L249.536 164.316H248.458L247.919 161.493H247.817L247.283 164.316H246.189ZM251.577 164.393C250.819 164.393 250.249 163.828 250.249 163.045C250.249 162.261 250.819 161.697 251.577 161.697C252.329 161.697 252.904 162.261 252.904 163.045C252.904 163.828 252.329 164.393 251.577 164.393ZM251.577 163.818C251.968 163.818 252.253 163.508 252.253 163.045C252.253 162.582 251.968 162.271 251.577 162.271C251.18 162.271 250.9 162.582 250.9 163.045C250.9 163.508 251.18 163.818 251.577 163.818ZM253.285 164.316V161.773H253.916V162.226H254.007C254.134 161.915 254.455 161.727 254.821 161.727C254.836 161.727 254.846 161.727 254.862 161.727V162.409C254.791 162.399 254.745 162.394 254.648 162.394C254.241 162.394 253.921 162.612 253.921 163.141V164.316H253.285ZM255.174 164.316V160.806H255.81V164.316H255.174ZM257.344 164.393C256.658 164.393 256.195 163.843 256.195 163.07C256.195 162.282 256.703 161.697 257.38 161.697C257.66 161.697 257.929 161.798 258.087 162.083H258.179V160.806H258.809V164.316H258.179V164.021H258.087C257.924 164.286 257.619 164.393 257.344 164.393ZM257.517 163.823C257.899 163.823 258.179 163.518 258.179 163.045C258.179 162.572 257.899 162.266 257.517 162.266C257.126 162.266 256.846 162.587 256.846 163.045C256.846 163.502 257.131 163.823 257.517 163.823ZM259.69 164.316L259.156 161.773H259.797L260.158 163.792H260.25L260.641 161.773H261.592L261.989 163.792H262.081L262.437 161.773H263.063L262.503 164.316H261.547L261.155 162.297H261.063L260.682 164.316H259.69ZM263.4 164.316V161.773H264.036V164.316H263.4ZM263.395 161.442V160.806H264.041V161.442H263.395ZM265.57 164.393C264.883 164.393 264.42 163.843 264.42 163.07C264.42 162.282 264.929 161.697 265.606 161.697C265.885 161.697 266.155 161.798 266.313 162.083H266.404V160.806H267.035V164.316H266.404V164.021H266.313C266.15 164.286 265.845 164.393 265.57 164.393ZM265.743 163.823C266.125 163.823 266.404 163.518 266.404 163.045C266.404 162.572 266.125 162.266 265.743 162.266C265.351 162.266 265.072 162.587 265.072 163.045C265.072 163.502 265.356 163.823 265.743 163.823ZM268.725 164.393C267.941 164.393 267.422 163.859 267.422 163.04C267.422 162.236 267.972 161.697 268.73 161.697C269.523 161.697 269.981 162.287 269.981 163.065C269.981 163.101 269.981 163.141 269.981 163.177H267.763V162.755H269.36C269.31 162.414 269.04 162.215 268.725 162.215C268.363 162.215 268.068 162.444 268.043 162.846L268.038 163.096C268.038 163.569 268.348 163.848 268.725 163.848C269.02 163.848 269.198 163.747 269.284 163.569H269.935C269.803 164.047 269.33 164.393 268.725 164.393ZM271.634 164.169L271.191 163.726L272.804 162.114V162.037L271.639 162.058V161.519H273.842V163.716H273.302L273.323 162.546H273.246L271.634 164.169Z" fill="#0A0B0D"/>
<rect x="109" y="83" width="63.5872" height="63.5872" rx="0.635872" fill="#FEA8CD"/>
<path d="M110.684 144.316V140.806H112.271C112.937 140.806 113.364 141.112 113.364 141.692C113.364 142.119 113.146 142.338 112.835 142.455V142.546C113.252 142.643 113.471 142.887 113.471 143.36C113.471 143.986 112.993 144.316 112.342 144.316H110.684ZM112.316 143.731C112.606 143.731 112.8 143.558 112.8 143.268C112.8 142.994 112.601 142.816 112.316 142.816H111.055V142.282H112.21C112.494 142.282 112.688 142.104 112.688 141.829C112.688 141.549 112.489 141.381 112.21 141.381H111.34V143.731H112.316ZM114.615 144.393C114.127 144.393 113.73 144.098 113.73 143.614C113.73 143.045 114.167 142.862 114.697 142.806L115.526 142.719V143.141L114.885 143.218C114.539 143.258 114.371 143.36 114.371 143.584C114.371 143.792 114.544 143.915 114.788 143.915C115.205 143.915 115.444 143.599 115.444 143.279V142.587C115.444 142.368 115.266 142.215 114.951 142.215C114.651 142.215 114.478 142.348 114.422 142.546H113.811C113.872 142.063 114.274 141.697 114.951 141.697C115.602 141.697 116.034 142.012 116.034 142.628V143.869C116.034 144.026 116.05 144.245 116.06 144.306V144.316H115.449C115.444 144.23 115.444 144.149 115.444 144.062H115.353C115.195 144.316 114.92 144.393 114.615 144.393ZM117.528 144.393C116.887 144.393 116.429 144.072 116.358 143.569H116.984C117.055 143.792 117.289 143.889 117.533 143.889C117.783 143.889 117.986 143.782 117.986 143.594C117.986 143.406 117.793 143.355 117.528 143.309L117.259 143.263C116.75 143.177 116.435 142.963 116.435 142.505C116.435 142.007 116.872 141.697 117.477 141.697C118.067 141.697 118.459 141.971 118.566 142.449H117.956C117.884 142.261 117.696 142.185 117.482 142.185C117.223 142.185 117.055 142.297 117.055 142.455C117.055 142.617 117.187 142.668 117.462 142.714L117.732 142.76C118.225 142.841 118.602 143.045 118.602 143.538C118.602 144.077 118.154 144.393 117.528 144.393ZM120.102 144.393C119.319 144.393 118.8 143.859 118.8 143.04C118.8 142.236 119.349 141.697 120.107 141.697C120.901 141.697 121.358 142.287 121.358 143.065C121.358 143.101 121.358 143.141 121.358 143.177H119.14V142.755H120.738C120.687 142.414 120.417 142.215 120.102 142.215C119.741 142.215 119.446 142.444 119.42 142.846L119.415 143.096C119.415 143.569 119.725 143.848 120.102 143.848C120.397 143.848 120.575 143.747 120.661 143.569H121.313C121.18 144.047 120.707 144.393 120.102 144.393ZM122.772 144.316V140.806H123.438V144.316H122.772ZM124.029 144.316V141.773H124.665V142.073H124.756C124.914 141.814 125.163 141.697 125.448 141.697C125.962 141.697 126.298 142.048 126.298 142.612V144.316H125.662V142.811C125.662 142.526 125.53 142.277 125.184 142.277C124.853 142.277 124.665 142.526 124.665 142.811V144.316H124.029ZM127.448 144.337C127.184 144.337 127.021 144.164 127.021 143.884V141.961L127.316 142.256H126.553V141.773H127.031V141.086H127.636V141.773H128.237V142.256H127.351L127.646 141.961V143.675C127.646 143.782 127.687 143.833 127.809 143.833H128.237V144.337H127.448ZM129.687 144.393C128.903 144.393 128.384 143.859 128.384 143.04C128.384 142.236 128.934 141.697 129.692 141.697C130.485 141.697 130.943 142.287 130.943 143.065C130.943 143.101 130.943 143.141 130.943 143.177H128.725V142.755H130.323C130.272 142.414 130.002 142.215 129.687 142.215C129.326 142.215 129.03 142.444 129.005 142.846L129 143.096C129 143.569 129.31 143.848 129.687 143.848C129.982 143.848 130.16 143.747 130.246 143.569H130.897C130.765 144.047 130.292 144.393 129.687 144.393ZM131.326 144.316V141.773H131.957V142.226H132.048C132.175 141.915 132.496 141.727 132.862 141.727C132.877 141.727 132.888 141.727 132.903 141.727V142.409C132.832 142.399 132.786 142.394 132.689 142.394C132.282 142.394 131.962 142.612 131.962 143.141V144.316H131.326ZM133.713 144.316L132.92 141.773H133.591L134.141 143.792H134.232L134.772 141.773H135.423L134.614 144.316H133.713ZM135.68 144.316V141.773H136.316V144.316H135.68ZM135.675 141.442V140.806H136.321V141.442H135.675ZM138.003 144.393C137.22 144.393 136.701 143.859 136.701 143.04C136.701 142.236 137.25 141.697 138.008 141.697C138.802 141.697 139.26 142.287 139.26 143.065C139.26 143.101 139.26 143.141 139.26 143.177H137.042V142.755H138.639C138.588 142.414 138.319 142.215 138.003 142.215C137.642 142.215 137.347 142.444 137.322 142.846L137.317 143.096C137.317 143.569 137.627 143.848 138.003 143.848C138.298 143.848 138.476 143.747 138.563 143.569H139.214C139.082 144.047 138.609 144.393 138.003 144.393ZM139.963 144.316L139.429 141.773H140.07L140.431 143.792H140.522L140.914 141.773H141.865L142.262 143.792H142.354L142.71 141.773H143.336L142.776 144.316H141.82L141.428 142.297H141.336L140.955 144.316H139.963ZM144.634 144.393C143.993 144.393 143.535 144.072 143.464 143.569H144.09C144.161 143.792 144.395 143.889 144.639 143.889C144.888 143.889 145.092 143.782 145.092 143.594C145.092 143.406 144.899 143.355 144.634 143.309L144.364 143.263C143.856 143.177 143.54 142.963 143.54 142.505C143.54 142.007 143.978 141.697 144.583 141.697C145.173 141.697 145.565 141.971 145.672 142.449H145.061C144.99 142.261 144.802 142.185 144.588 142.185C144.329 142.185 144.161 142.297 144.161 142.455C144.161 142.617 144.293 142.668 144.568 142.714L144.838 142.76C145.331 142.841 145.707 143.045 145.707 143.538C145.707 144.077 145.26 144.393 144.634 144.393ZM147.349 144.169L146.906 143.726L148.519 142.114V142.037L147.354 142.058V141.519H149.556V143.716H149.017L149.037 142.546H148.961L147.349 144.169Z" fill="#0A0B0D"/>
<rect x="36" y="109" width="63.5872" height="63.5872" rx="0.635872" fill="white"/>
<path d="M39.2605 170.393C38.238 170.393 37.4801 169.625 37.4801 168.561C37.4801 167.498 38.238 166.73 39.2605 166.73C40.283 166.73 41.0409 167.498 41.0409 168.561C41.0409 169.625 40.283 170.393 39.2605 170.393ZM39.2605 169.782C39.9167 169.782 40.3389 169.248 40.3389 168.561C40.3389 167.875 39.9167 167.341 39.2605 167.341C38.6043 167.341 38.1821 167.875 38.1821 168.561C38.1821 169.248 38.6043 169.782 39.2605 169.782ZM41.4343 170.316V167.773H42.0701V168.073H42.1617C42.3194 167.814 42.5687 167.697 42.8535 167.697C43.3673 167.697 43.7031 168.048 43.7031 168.612V170.316H43.0672V168.811C43.0672 168.526 42.9349 168.277 42.589 168.277C42.2584 168.277 42.0701 168.526 42.0701 168.811V170.316H41.4343ZM45.3719 170.393C44.6241 170.393 44.0594 169.838 44.0594 169.045C44.0594 168.251 44.6241 167.697 45.3719 167.697C46.0077 167.697 46.4961 168.088 46.6131 168.683H45.9823C45.8958 168.434 45.6923 168.271 45.3769 168.271C44.9853 168.271 44.7106 168.572 44.7106 169.04C44.7106 169.518 44.9853 169.818 45.3769 169.818C45.6923 169.818 45.906 169.65 45.9976 169.385H46.6283C46.5266 169.981 46.0332 170.393 45.3719 170.393ZM46.9662 170.316V166.806H47.602V168.073H47.6936C47.8513 167.814 48.1005 167.697 48.3854 167.697C48.8992 167.697 49.2349 168.048 49.2349 168.612V170.316H48.5991V168.811C48.5991 168.526 48.4668 168.277 48.1209 168.277C47.7902 168.277 47.602 168.526 47.602 168.811V170.316H46.9662ZM50.4917 170.393C50.0034 170.393 49.6066 170.098 49.6066 169.614C49.6066 169.045 50.0441 168.862 50.5731 168.806L51.4023 168.719V169.141L50.7613 169.218C50.4154 169.258 50.2475 169.36 50.2475 169.584C50.2475 169.792 50.4205 169.915 50.6647 169.915C51.0818 169.915 51.3209 169.599 51.3209 169.279V168.587C51.3209 168.368 51.1428 168.215 50.8274 168.215C50.5273 168.215 50.3544 168.348 50.2984 168.546H49.688C49.749 168.063 50.1509 167.697 50.8274 167.697C51.4786 167.697 51.911 168.012 51.911 168.628V169.869C51.911 170.026 51.9262 170.245 51.9364 170.306V170.316H51.326C51.3209 170.23 51.3209 170.149 51.3209 170.062H51.2293C51.0716 170.316 50.7969 170.393 50.4917 170.393ZM52.4434 170.316V167.773H53.0793V170.316H52.4434ZM52.4383 167.442V166.806H53.0844V167.442H52.4383ZM53.637 170.316V167.773H54.2729V168.073H54.3645C54.5222 167.814 54.7714 167.697 55.0563 167.697C55.5701 167.697 55.9058 168.048 55.9058 168.612V170.316H55.27V168.811C55.27 168.526 55.1377 168.277 54.7918 168.277C54.4611 168.277 54.2729 168.526 54.2729 168.811V170.316H53.637ZM58.6515 170.393C57.8477 170.393 57.3136 169.97 57.2118 169.33H57.8884C58.0054 169.681 58.3106 169.813 58.6515 169.813C59.0177 169.813 59.2721 169.625 59.2721 169.36C59.2721 169.07 59.0686 168.948 58.6108 168.851L58.3005 168.785C57.7918 168.678 57.3288 168.404 57.3288 167.793C57.3288 167.188 57.8426 166.73 58.5853 166.73C59.328 166.73 59.7757 167.122 59.9079 167.747H59.2415C59.15 167.458 58.9312 167.305 58.5853 167.305C58.2242 167.305 58.0003 167.493 58.0003 167.742C58.0003 167.997 58.2038 168.104 58.6006 168.195L58.9109 168.266C59.4654 168.394 59.9588 168.643 59.9588 169.299C59.9588 169.935 59.4399 170.393 58.6515 170.393ZM61.4512 170.393C60.7594 170.393 60.327 169.986 60.327 169.284V167.773H60.9629V169.268C60.9629 169.574 61.1155 169.818 61.4512 169.818C61.7819 169.818 61.9345 169.574 61.9345 169.268V167.773H62.5703V169.284C62.5703 169.986 62.143 170.393 61.4512 170.393ZM63.0962 170.316V167.773H63.7321V168.073H63.8237C63.9814 167.814 64.2256 167.697 64.5257 167.697C64.8411 167.697 65.0802 167.829 65.2175 168.073H65.3091C65.4719 167.824 65.7059 167.697 66.0518 167.697C66.6113 167.697 66.9674 168.058 66.9674 168.633V170.316H66.3316V168.795C66.3316 168.511 66.2044 168.277 65.8686 168.277C65.5431 168.277 65.3498 168.516 65.3498 168.785V170.316H64.7139V168.811C64.7139 168.526 64.5816 168.277 64.2408 168.277C63.9152 168.277 63.7321 168.526 63.7321 168.811V170.316H63.0962ZM67.504 170.316V167.773H68.1399V168.073H68.2315C68.3892 167.814 68.6333 167.697 68.9335 167.697C69.2489 167.697 69.488 167.829 69.6253 168.073H69.7169C69.8796 167.824 70.1136 167.697 70.4596 167.697C71.0191 167.697 71.3752 168.058 71.3752 168.633V170.316H70.7393V168.795C70.7393 168.511 70.6122 168.277 70.2764 168.277C69.9509 168.277 69.7576 168.516 69.7576 168.785V170.316H69.1217V168.811C69.1217 168.526 68.9894 168.277 68.6486 168.277C68.323 168.277 68.1399 168.526 68.1399 168.811V170.316H67.504ZM73.0411 170.393C72.2577 170.393 71.7389 169.859 71.7389 169.04C71.7389 168.236 72.2883 167.697 73.0462 167.697C73.8398 167.697 74.2976 168.287 74.2976 169.065C74.2976 169.101 74.2976 169.141 74.2976 169.177H72.0797V168.755H73.677C73.6261 168.414 73.3565 168.215 73.0411 168.215C72.68 168.215 72.3849 168.444 72.3595 168.846L72.3544 169.096C72.3544 169.569 72.6647 169.848 73.0411 169.848C73.3362 169.848 73.5142 169.747 73.6007 169.569H74.2518C74.1196 170.047 73.6465 170.393 73.0411 170.393ZM74.6802 170.316V167.773H75.311V168.226H75.4026C75.5298 167.915 75.8503 167.727 76.2165 167.727C76.2318 167.727 76.2419 167.727 76.2572 167.727V168.409C76.186 168.399 76.1402 168.394 76.0436 168.394C75.6366 168.394 75.3161 168.612 75.3161 169.141V170.316H74.6802ZM77.7203 170.169L77.2777 169.726L78.8903 168.114V168.037L77.7254 168.058V167.519H79.928V169.716H79.3888L79.4091 168.546H79.3328L77.7203 170.169Z" fill="#0A0B0D"/>
</svg>
