<svg width="320" height="252" viewBox="0 0 320 252" fill="none" xmlns="http://www.w3.org/2000/svg">
<rect width="320" height="252" rx="8" fill="#FAFAFA"/>
<rect x="85" y="105.52" width="158" height="41.039" rx="4.1039" fill="#0A0B0D"/>
<path d="M135.316 131.512C132.69 131.512 131.048 130.166 130.72 128.212H132.509C132.903 129.509 134.052 130.002 135.316 130.002C136.695 130.002 137.647 129.296 137.647 128.278C137.647 127.211 136.925 126.768 135.448 126.423L134.118 126.111C132.591 125.783 131.114 124.913 131.114 122.992C131.114 121.121 132.723 119.693 135.086 119.693C137.467 119.693 138.829 120.957 139.223 122.877H137.467C137.122 121.745 136.318 121.203 135.086 121.203C133.691 121.203 132.887 121.925 132.887 122.861C132.887 123.813 133.56 124.24 134.955 124.584L136.285 124.896C137.91 125.29 139.453 126.078 139.453 128.114C139.453 130.084 137.795 131.512 135.316 131.512ZM143.286 131.348C142.416 131.348 141.939 130.822 141.939 129.936V123.583L142.711 124.355H140.396V123.058H141.956V120.842H143.548V123.058H145.567V124.355H142.809L143.581 123.583V129.427C143.581 129.837 143.729 130.002 144.172 130.002H145.567V131.348H143.286ZM149.643 131.512C148.067 131.512 146.77 130.576 146.77 129.017C146.77 127.195 148.264 126.636 150.021 126.439L152.762 126.16V127.309L150.546 127.572C149.265 127.72 148.494 128.065 148.494 128.935C148.494 129.755 149.167 130.231 150.086 130.231C151.564 130.231 152.45 129.132 152.45 128.015V125.734C152.45 124.814 151.793 124.191 150.628 124.191C149.561 124.191 148.888 124.699 148.691 125.52H147.066C147.279 123.977 148.56 122.812 150.628 122.812C152.729 122.812 154.026 123.895 154.026 125.816V129.837C154.026 130.33 154.075 131.036 154.108 131.233V131.266H152.45C152.434 130.987 152.434 130.658 152.434 130.33H152.171C151.679 131.167 150.726 131.512 149.643 131.512ZM156.402 131.266V123.058H158.076V124.568H158.355C158.782 123.534 159.866 122.91 161.13 122.91C161.179 122.91 161.212 122.91 161.261 122.91V124.716C160.998 124.683 160.883 124.667 160.621 124.667C159.192 124.667 158.093 125.537 158.093 127.309V131.266H156.402ZM164.719 131.348C163.849 131.348 163.373 130.822 163.373 129.936V123.583L164.144 124.355H161.83V123.058H163.389V120.842H164.981V123.058H167.001V124.355H164.243L165.014 123.583V129.427C165.014 129.837 165.162 130.002 165.605 130.002H167.001V131.348H164.719ZM172.774 131.266V119.939H177.665C179.783 119.939 181.195 120.924 181.195 122.812C181.195 124.141 180.522 124.896 179.405 125.274V125.553C180.817 125.848 181.556 126.702 181.556 128.196C181.556 130.182 180.013 131.266 177.944 131.266H172.774ZM177.846 129.739C179.011 129.739 179.783 129.099 179.783 127.966C179.783 126.899 178.995 126.259 177.846 126.259H173.742V124.847H177.485C178.634 124.847 179.405 124.207 179.405 123.14C179.405 122.056 178.634 121.466 177.485 121.466H174.514V129.739H177.846ZM186.94 131.512C184.773 131.512 183.427 130.215 183.427 127.966V123.058H185.102V127.933C185.102 129.115 185.709 130.002 186.94 130.002C188.171 130.002 188.779 129.115 188.779 127.933V123.058H190.453V127.983C190.453 130.215 189.123 131.512 186.94 131.512ZM192.824 131.266V123.058H194.515V131.266H192.824ZM192.808 121.745V119.939H194.531V121.745H192.808ZM196.992 131.266V119.939H198.683V131.266H196.992ZM204.361 131.512C202.096 131.512 200.553 129.706 200.553 127.227C200.553 124.699 202.211 122.812 204.459 122.812C205.51 122.812 206.479 123.255 206.987 124.24H207.267V119.939H208.925V131.266H207.267V130.1H206.987C206.462 131.069 205.444 131.512 204.361 131.512ZM204.788 130.034C206.216 130.034 207.267 128.853 207.267 127.162C207.267 125.487 206.216 124.305 204.788 124.305C203.294 124.305 202.276 125.537 202.276 127.162C202.276 128.803 203.31 130.034 204.788 130.034ZM211.42 131.266V123.058H213.111V131.266H211.42ZM211.403 121.745V119.939H213.127V121.745H211.403ZM215.588 131.266V123.058H217.279V124.108H217.541C218.066 123.238 218.92 122.812 219.921 122.812C221.596 122.812 222.712 123.977 222.712 125.816V131.266H221.038V126.341C221.038 125.225 220.496 124.355 219.248 124.355C218.05 124.355 217.279 125.29 217.279 126.341V131.266H215.588ZM225.8 134.385V133.006H230.347C231.02 133.006 231.266 132.743 231.266 132.136V129.723H231.004C230.478 130.822 229.428 131.266 228.361 131.266C226.046 131.266 224.487 129.509 224.487 127.096C224.487 124.667 226.194 122.812 228.525 122.812C229.526 122.812 230.462 123.238 230.971 124.24H231.25V123.058H232.826V132.513C232.826 133.712 232.169 134.385 230.905 134.385H225.8ZM228.738 129.805C230.199 129.805 231.283 128.688 231.283 127.03C231.283 125.405 230.199 124.273 228.738 124.273C227.228 124.273 226.21 125.471 226.21 127.03C226.21 128.623 227.244 129.805 228.738 129.805Z" fill="white"/>
<rect x="89.1035" y="109.625" width="104.649" height="32.8312" rx="2.05195" fill="#FFD12F"/>
<path d="M89.1035 111.675C89.1035 110.542 90.0222 109.623 91.1555 109.623H101.086V142.454H91.1555C90.0222 142.454 89.1035 141.536 89.1035 140.402V111.675Z" fill="#FC401F"/>
<path d="M101.086 109.623H113.069V142.454H101.086V109.623Z" fill="#FEA8CD"/>
<path d="M113.07 109.623H125.053V142.454H113.07V109.623Z" fill="#B8A581"/>
<path d="M125.053 109.623H137.035V142.454H125.053V109.623Z" fill="#FFD12F"/>
<path d="M137.035 109.623H149.018V142.454H137.035V109.623Z" fill="#B6F569"/>
<path d="M149.018 109.623H171V142.454H149.018V109.623Z" fill="#66C800"/>
<rect x="160.922" y="109.623" width="32.8312" height="32.8312" rx="2.05195" fill="#5B616E"/>
<path d="M175.285 120.908L180.415 126.038L175.285 131.168" stroke="#EEF0F3" stroke-width="2.05195"/>
</svg>
