<svg width="375" height="564" viewBox="0 0 375 564" fill="none" xmlns="http://www.w3.org/2000/svg">
<g clip-path="url(#clip0_2424_5090)">
<rect width="375" height="564" rx="30" fill="white"/>
<path d="M154.66 111.539C154.66 109.734 154.66 108.832 155 108.138C155.326 107.474 155.863 106.936 156.527 106.611C157.221 106.271 158.124 106.271 159.928 106.271H216.072C217.877 106.271 218.779 106.271 219.473 106.611C220.137 106.936 220.674 107.474 221 108.138C221.34 108.832 221.34 109.734 221.34 111.539V167.683C221.34 169.487 221.34 170.39 221 171.084C220.674 171.748 220.137 172.285 219.473 172.611C218.779 172.951 217.877 172.951 216.072 172.951H159.928C158.124 172.951 157.221 172.951 156.527 172.611C155.863 172.285 155.326 171.748 155 171.084C154.66 170.39 154.66 169.487 154.66 167.683V111.539Z" fill="#0000FF"/>
<path d="M32.764 308.42C30.58 308.42 28.7787 307.897 27.36 306.852C25.96 305.788 25.12 304.36 24.84 302.568H28.564C28.8627 303.483 29.3853 304.155 30.132 304.584C30.8787 305.013 31.756 305.228 32.764 305.228C33.772 305.228 34.5933 304.995 35.228 304.528C35.8627 304.061 36.18 303.464 36.18 302.736C36.18 301.971 35.9 301.383 35.34 300.972C34.78 300.561 33.8467 300.216 32.54 299.936L30.832 299.572C29.2453 299.236 27.9573 298.629 26.968 297.752C25.9787 296.875 25.484 295.661 25.484 294.112C25.484 293.011 25.7733 292.021 26.352 291.144C26.9493 290.248 27.7707 289.548 28.816 289.044C29.8613 288.521 31.056 288.26 32.4 288.26C34.3973 288.26 36.012 288.755 37.244 289.744C38.4947 290.733 39.3067 292.105 39.68 293.86H36.012C35.508 292.236 34.304 291.424 32.4 291.424C31.4293 291.424 30.6453 291.657 30.048 292.124C29.4693 292.572 29.18 293.141 29.18 293.832C29.18 294.504 29.4413 295.027 29.964 295.4C30.4867 295.755 31.3267 296.063 32.484 296.324L34.192 296.716C35.9653 297.127 37.3653 297.761 38.392 298.62C39.4373 299.479 39.96 300.739 39.96 302.4C39.96 303.557 39.6613 304.593 39.064 305.508C38.4667 306.423 37.6173 307.141 36.516 307.664C35.4333 308.168 34.1827 308.42 32.764 308.42ZM43.0225 294H46.5225V308H43.0225V294ZM42.9945 288.68H46.5505V292.18H42.9945V288.68ZM51.6087 310.464H59.1127C59.6353 310.464 60.0087 310.352 60.2327 310.128C60.4567 309.923 60.5687 309.568 60.5687 309.064V305.62H60.0647C59.654 306.441 59.0753 307.039 58.3287 307.412C57.582 307.785 56.77 307.972 55.8927 307.972C54.6233 307.972 53.5033 307.673 52.5327 307.076C51.562 306.479 50.806 305.648 50.2647 304.584C49.742 303.501 49.4807 302.279 49.4807 300.916C49.4807 299.535 49.77 298.293 50.3487 297.192C50.946 296.072 51.7673 295.195 52.8127 294.56C53.858 293.907 55.0153 293.58 56.2847 293.58C57.9647 293.58 59.206 294.289 60.0087 295.708H60.5127V294H63.7887V309.876C63.7887 310.977 63.49 311.827 62.8927 312.424C62.314 313.021 61.4833 313.32 60.4007 313.32H51.6087V310.464ZM56.8167 304.92C57.918 304.92 58.814 304.547 59.5047 303.8C60.1953 303.035 60.5407 302.027 60.5407 300.776C60.5407 299.525 60.186 298.527 59.4767 297.78C58.786 297.015 57.8993 296.632 56.8167 296.632C55.7153 296.632 54.81 297.024 54.1007 297.808C53.41 298.573 53.0647 299.563 53.0647 300.776C53.0647 302.008 53.41 303.007 54.1007 303.772C54.81 304.537 55.7153 304.92 56.8167 304.92ZM67.7139 294H71.2139V295.652H71.7179C72.1472 294.961 72.6886 294.448 73.3419 294.112C73.9952 293.757 74.7232 293.58 75.5259 293.58C76.9446 293.58 78.0739 294.037 78.9139 294.952C79.7726 295.848 80.2019 297.071 80.2019 298.62V308H76.7019V299.712C76.7019 298.853 76.4872 298.153 76.0579 297.612C75.6286 297.052 74.9659 296.772 74.0699 296.772C73.1926 296.772 72.4926 297.061 71.9699 297.64C71.4659 298.2 71.2139 298.891 71.2139 299.712V308H67.7139V294ZM90.1905 294H93.6905V308H90.1905V294ZM90.1625 288.68H93.7185V292.18H90.1625V288.68ZM97.6006 294H101.101V295.652H101.605C102.034 294.961 102.575 294.448 103.229 294.112C103.882 293.757 104.61 293.58 105.413 293.58C106.831 293.58 107.961 294.037 108.801 294.952C109.659 295.848 110.089 297.071 110.089 298.62V308H106.589V299.712C106.589 298.853 106.374 298.153 105.945 297.612C105.515 297.052 104.853 296.772 103.957 296.772C103.079 296.772 102.379 297.061 101.857 297.64C101.353 298.2 101.101 298.891 101.101 299.712V308H97.6006V294ZM118.901 294H122.429L124.417 305.116H124.921L127.077 294H132.313L134.497 305.116H135.001L136.961 294H140.405L137.325 308H132.061L129.905 296.884H129.401L127.301 308H121.841L118.901 294ZM143.101 294H146.601V308H143.101V294ZM143.073 288.68H146.629V292.18H143.073V288.68ZM153.983 308.112C153.255 308.112 152.676 307.888 152.247 307.44C151.836 306.992 151.631 306.385 151.631 305.62V296.66H149.055V294H151.687V290.22H155.019V294H158.323V296.66H155.075V304.472C155.075 304.771 155.14 304.995 155.271 305.144C155.401 305.275 155.635 305.34 155.971 305.34H158.323V308.112H153.983ZM161.202 288.68H164.702V295.652H165.206C165.636 294.961 166.177 294.448 166.83 294.112C167.484 293.757 168.212 293.58 169.014 293.58C170.433 293.58 171.562 294.037 172.402 294.952C173.261 295.848 173.69 297.071 173.69 298.62V308H170.19V299.712C170.19 298.853 169.976 298.153 169.546 297.612C169.117 297.052 168.454 296.772 167.558 296.772C166.681 296.772 165.981 297.061 165.458 297.64C164.954 298.2 164.702 298.891 164.702 299.712V308H161.202V288.68ZM183.987 288.68H192.723C194.589 288.68 196.055 289.1 197.119 289.94C198.201 290.78 198.743 291.984 198.743 293.552C198.743 294.672 198.481 295.568 197.959 296.24C197.455 296.893 196.745 297.397 195.831 297.752V298.256C197.007 298.536 197.884 299.04 198.463 299.768C199.041 300.477 199.331 301.467 199.331 302.736C199.331 304.416 198.752 305.713 197.595 306.628C196.456 307.543 194.963 308 193.115 308H183.987V288.68ZM192.975 304.78C193.777 304.78 194.421 304.556 194.907 304.108C195.392 303.641 195.635 303.016 195.635 302.232C195.635 301.485 195.383 300.888 194.879 300.44C194.393 299.973 193.759 299.74 192.975 299.74H187.599V304.78H192.975ZM192.387 296.8C193.171 296.8 193.805 296.576 194.291 296.128C194.776 295.661 195.019 295.055 195.019 294.308C195.019 293.543 194.776 292.945 194.291 292.516C193.805 292.068 193.171 291.844 192.387 291.844H187.599V296.8H192.387ZM206.467 308.42C205.086 308.42 203.929 308.028 202.995 307.244C202.062 306.46 201.595 305.424 201.595 304.136C201.595 302.68 202.071 301.616 203.023 300.944C203.975 300.272 205.273 299.852 206.915 299.684L211.031 299.264V298.48C211.031 297.864 210.789 297.369 210.303 296.996C209.837 296.623 209.174 296.436 208.315 296.436C207.513 296.436 206.869 296.604 206.383 296.94C205.898 297.257 205.571 297.696 205.403 298.256H202.043C202.211 296.875 202.846 295.755 203.947 294.896C205.049 294.019 206.505 293.58 208.315 293.58C210.145 293.58 211.591 294.019 212.655 294.896C213.738 295.773 214.279 297.043 214.279 298.704V305.536C214.279 306.003 214.289 306.46 214.307 306.908C214.345 307.337 214.382 307.683 214.419 307.944V308H211.059C211.041 307.683 211.031 307.216 211.031 306.6H210.527C209.781 307.813 208.427 308.42 206.467 308.42ZM205.123 303.968C205.123 304.528 205.329 304.976 205.739 305.312C206.169 305.629 206.729 305.788 207.419 305.788C208.147 305.788 208.782 305.629 209.323 305.312C209.883 304.976 210.303 304.537 210.583 303.996C210.882 303.455 211.031 302.885 211.031 302.288V301.588L207.951 301.952C206.981 302.064 206.262 302.279 205.795 302.596C205.347 302.913 205.123 303.371 205.123 303.968ZM223.342 308.42C221.569 308.42 220.094 308.009 218.918 307.188C217.761 306.367 217.089 305.265 216.902 303.884H220.346C220.533 304.463 220.897 304.901 221.438 305.2C221.998 305.499 222.642 305.648 223.37 305.648C224.079 305.648 224.667 305.508 225.134 305.228C225.619 304.929 225.862 304.528 225.862 304.024C225.862 303.557 225.657 303.221 225.246 303.016C224.835 302.792 224.201 302.605 223.342 302.456L221.858 302.204C220.383 301.961 219.254 301.513 218.47 300.86C217.705 300.188 217.322 299.245 217.322 298.032C217.322 296.688 217.854 295.615 218.918 294.812C219.982 293.991 221.363 293.58 223.062 293.58C224.686 293.58 226.011 293.944 227.038 294.672C228.083 295.381 228.755 296.399 229.054 297.724H225.694C225.507 297.239 225.181 296.875 224.714 296.632C224.247 296.389 223.706 296.268 223.09 296.268C222.381 296.268 221.811 296.408 221.382 296.688C220.953 296.968 220.738 297.323 220.738 297.752C220.738 298.181 220.906 298.499 221.242 298.704C221.578 298.891 222.157 299.049 222.978 299.18L224.462 299.432C225.955 299.675 227.122 300.132 227.962 300.804C228.821 301.476 229.25 302.447 229.25 303.716C229.25 305.172 228.699 306.32 227.598 307.16C226.515 308 225.097 308.42 223.342 308.42ZM238.348 308.42C236.929 308.42 235.679 308.112 234.596 307.496C233.513 306.88 232.673 306.012 232.076 304.892C231.479 303.772 231.18 302.465 231.18 300.972C231.18 299.516 231.488 298.228 232.104 297.108C232.72 295.988 233.569 295.12 234.652 294.504C235.753 293.888 236.995 293.58 238.376 293.58C239.795 293.58 241.017 293.907 242.044 294.56C243.089 295.213 243.883 296.109 244.424 297.248C244.984 298.387 245.264 299.675 245.264 301.112V301.728H234.596C234.671 302.867 235.063 303.772 235.772 304.444C236.481 305.097 237.34 305.424 238.348 305.424C239.897 305.424 240.924 304.911 241.428 303.884H245.012C244.639 305.228 243.845 306.32 242.632 307.16C241.419 308 239.991 308.42 238.348 308.42ZM241.848 299.404C241.717 298.489 241.325 297.771 240.672 297.248C240.019 296.707 239.244 296.436 238.348 296.436C237.415 296.436 236.603 296.697 235.912 297.22C235.24 297.743 234.82 298.471 234.652 299.404H241.848Z" fill="#1F1F21"/>
<path d="M28.94 331.2H32.06L36.7 345H34.48L33.36 341.5H27.48L26.32 345H24.18L28.94 331.2ZM32.76 339.7L30.64 333.1H30.28L28.08 339.7H32.76ZM42.988 336.56H41.168V335H42.988V332.9C42.988 332.353 43.1413 331.927 43.448 331.62C43.7546 331.3 44.1813 331.14 44.728 331.14H47.368V332.74H45.668C45.4146 332.74 45.228 332.8 45.108 332.92C45.0013 333.04 44.948 333.227 44.948 333.48V335H47.368V336.56H44.968V345H42.988V336.56ZM51.5877 345.3C50.5877 345.3 49.7543 345.027 49.0877 344.48C48.421 343.92 48.0877 343.18 48.0877 342.26C48.0877 341.233 48.441 340.487 49.1477 340.02C49.8543 339.54 50.8143 339.24 52.0277 339.12L54.9877 338.8V338.26C54.9877 337.687 54.7943 337.233 54.4077 336.9C54.021 336.553 53.481 336.38 52.7877 336.38C52.1477 336.38 51.621 336.52 51.2077 336.8C50.7943 337.08 50.5277 337.48 50.4077 338H48.4477C48.5677 337.027 49.0143 336.233 49.7877 335.62C50.561 335.007 51.561 334.7 52.7877 334.7C54.081 334.7 55.0877 335.02 55.8077 335.66C56.541 336.287 56.9077 337.187 56.9077 338.36V343.24C56.9077 343.573 56.9143 343.9 56.9277 344.22C56.9543 344.527 56.981 344.773 57.0077 344.96V345H55.0077C54.9943 344.773 54.9877 344.387 54.9877 343.84H54.6477C54.3677 344.333 53.961 344.7 53.4277 344.94C52.8943 345.18 52.281 345.3 51.5877 345.3ZM50.1677 342.14C50.1677 342.633 50.3477 343.027 50.7077 343.32C51.0677 343.6 51.5343 343.74 52.1077 343.74C52.6943 343.74 53.201 343.613 53.6277 343.36C54.0677 343.093 54.401 342.753 54.6277 342.34C54.8677 341.927 54.9877 341.493 54.9877 341.04V340.2L52.6877 340.48C51.8477 340.573 51.2143 340.747 50.7877 341C50.3743 341.253 50.1677 341.633 50.1677 342.14ZM63.2423 345.3C62.0023 345.3 60.9757 345.02 60.1623 344.46C59.349 343.887 58.869 343.113 58.7223 342.14H60.7423C60.889 342.647 61.1823 343.027 61.6223 343.28C62.0757 343.533 62.6157 343.66 63.2423 343.66C63.8423 343.66 64.349 343.533 64.7623 343.28C65.1757 343.027 65.3823 342.68 65.3823 342.24C65.3823 341.827 65.2157 341.52 64.8823 341.32C64.549 341.12 64.0557 340.967 63.4023 340.86L62.2623 340.66C61.2357 340.5 60.4423 340.193 59.8823 339.74C59.3357 339.287 59.0623 338.633 59.0623 337.78C59.0623 336.86 59.429 336.12 60.1623 335.56C60.8957 334.987 61.849 334.7 63.0223 334.7C64.129 334.7 65.049 334.953 65.7823 335.46C66.5157 335.953 66.989 336.673 67.2023 337.62H65.2423C65.0823 337.18 64.809 336.853 64.4223 336.64C64.049 336.413 63.589 336.3 63.0423 336.3C62.4557 336.3 61.9823 336.427 61.6223 336.68C61.2623 336.92 61.0823 337.233 61.0823 337.62C61.0823 338.007 61.2223 338.287 61.5023 338.46C61.7823 338.633 62.249 338.773 62.9023 338.88L64.0423 339.08C65.0823 339.253 65.8957 339.573 66.4823 340.04C67.069 340.493 67.3623 341.173 67.3623 342.08C67.3623 343.053 66.9757 343.833 66.2023 344.42C65.4423 345.007 64.4557 345.3 63.2423 345.3ZM71.7228 345.08C71.2028 345.08 70.7961 344.933 70.5028 344.64C70.2228 344.333 70.0828 343.913 70.0828 343.38V336.56H68.2028V335H70.1228V332.3H72.0628V335H74.5228V336.56H72.0828V342.76C72.0828 343.013 72.1361 343.193 72.2428 343.3C72.3628 343.407 72.5495 343.46 72.8028 343.46H74.5228V345.08H71.7228ZM83.7564 345.3C82.7564 345.3 81.9231 345.027 81.2564 344.48C80.5897 343.92 80.2564 343.18 80.2564 342.26C80.2564 341.233 80.6097 340.487 81.3164 340.02C82.0231 339.54 82.9831 339.24 84.1964 339.12L87.1564 338.8V338.26C87.1564 337.687 86.9631 337.233 86.5764 336.9C86.1897 336.553 85.6497 336.38 84.9564 336.38C84.3164 336.38 83.7897 336.52 83.3764 336.8C82.9631 337.08 82.6964 337.48 82.5764 338H80.6164C80.7364 337.027 81.1831 336.233 81.9564 335.62C82.7297 335.007 83.7297 334.7 84.9564 334.7C86.2497 334.7 87.2564 335.02 87.9764 335.66C88.7097 336.287 89.0764 337.187 89.0764 338.36V343.24C89.0764 343.573 89.0831 343.9 89.0964 344.22C89.1231 344.527 89.1497 344.773 89.1764 344.96V345H87.1764C87.1631 344.773 87.1564 344.387 87.1564 343.84H86.8164C86.5364 344.333 86.1297 344.7 85.5964 344.94C85.0631 345.18 84.4497 345.3 83.7564 345.3ZM82.3364 342.14C82.3364 342.633 82.5164 343.027 82.8764 343.32C83.2364 343.6 83.7031 343.74 84.2764 343.74C84.8631 343.74 85.3697 343.613 85.7964 343.36C86.2364 343.093 86.5697 342.753 86.7964 342.34C87.0364 341.927 87.1564 341.493 87.1564 341.04V340.2L84.8564 340.48C84.0164 340.573 83.3831 340.747 82.9564 341C82.5431 341.253 82.3364 341.633 82.3364 342.14ZM91.7911 335H93.8311V336.28H94.1711C94.4778 335.76 94.8778 335.367 95.3711 335.1C95.8778 334.833 96.4378 334.7 97.0511 334.7C98.0911 334.7 98.9178 335.033 99.5311 335.7C100.144 336.353 100.451 337.24 100.451 338.36V345H98.4111V338.98C98.4111 338.26 98.2311 337.68 97.8711 337.24C97.5111 336.787 96.9711 336.56 96.2511 336.56C95.5311 336.56 94.9444 336.8 94.4911 337.28C94.0511 337.747 93.8311 338.313 93.8311 338.98V345H91.7911V335ZM107.073 345.3C106.166 345.3 105.36 345.08 104.653 344.64C103.96 344.187 103.413 343.567 103.013 342.78C102.626 341.98 102.433 341.08 102.433 340.08C102.433 339.067 102.64 338.153 103.053 337.34C103.466 336.513 104.033 335.867 104.753 335.4C105.473 334.933 106.28 334.7 107.173 334.7C107.853 334.7 108.466 334.847 109.013 335.14C109.56 335.433 109.98 335.867 110.273 336.44H110.593V331.2H112.633V345H110.593V343.58H110.273C109.966 344.14 109.526 344.567 108.953 344.86C108.38 345.153 107.753 345.3 107.073 345.3ZM107.573 343.48C108.146 343.48 108.66 343.333 109.113 343.04C109.58 342.747 109.946 342.34 110.213 341.82C110.48 341.287 110.613 340.68 110.613 340C110.613 339.32 110.48 338.72 110.213 338.2C109.946 337.667 109.58 337.253 109.113 336.96C108.66 336.667 108.146 336.52 107.573 336.52C106.68 336.52 105.946 336.853 105.373 337.52C104.813 338.173 104.533 339 104.533 340C104.533 340.653 104.66 341.247 104.913 341.78C105.18 342.313 105.54 342.733 105.993 343.04C106.46 343.333 106.986 343.48 107.573 343.48ZM123.561 345.3C122.321 345.3 121.294 345.02 120.481 344.46C119.668 343.887 119.188 343.113 119.041 342.14H121.061C121.208 342.647 121.501 343.027 121.941 343.28C122.394 343.533 122.934 343.66 123.561 343.66C124.161 343.66 124.668 343.533 125.081 343.28C125.494 343.027 125.701 342.68 125.701 342.24C125.701 341.827 125.534 341.52 125.201 341.32C124.868 341.12 124.374 340.967 123.721 340.86L122.581 340.66C121.554 340.5 120.761 340.193 120.201 339.74C119.654 339.287 119.381 338.633 119.381 337.78C119.381 336.86 119.748 336.12 120.481 335.56C121.214 334.987 122.168 334.7 123.341 334.7C124.448 334.7 125.368 334.953 126.101 335.46C126.834 335.953 127.308 336.673 127.521 337.62H125.561C125.401 337.18 125.128 336.853 124.741 336.64C124.368 336.413 123.908 336.3 123.361 336.3C122.774 336.3 122.301 336.427 121.941 336.68C121.581 336.92 121.401 337.233 121.401 337.62C121.401 338.007 121.541 338.287 121.821 338.46C122.101 338.633 122.568 338.773 123.221 338.88L124.361 339.08C125.401 339.253 126.214 339.573 126.801 340.04C127.388 340.493 127.681 341.173 127.681 342.08C127.681 343.053 127.294 343.833 126.521 344.42C125.761 345.007 124.774 345.3 123.561 345.3ZM134.082 345.3C133.068 345.3 132.175 345.08 131.402 344.64C130.628 344.187 130.028 343.56 129.602 342.76C129.188 341.947 128.982 341.02 128.982 339.98C128.982 338.953 129.195 338.04 129.622 337.24C130.048 336.44 130.642 335.82 131.402 335.38C132.175 334.927 133.055 334.7 134.042 334.7C135.042 334.7 135.908 334.933 136.642 335.4C137.375 335.853 137.935 336.48 138.322 337.28C138.722 338.08 138.922 338.987 138.922 340V340.34H130.962C131.002 341.3 131.308 342.073 131.882 342.66C132.468 343.247 133.202 343.54 134.082 343.54C135.402 343.54 136.275 343.067 136.702 342.12H138.782C138.502 343.067 137.935 343.833 137.082 344.42C136.242 345.007 135.242 345.3 134.082 345.3ZM136.902 338.96C136.808 338.173 136.502 337.547 135.982 337.08C135.462 336.613 134.815 336.38 134.042 336.38C133.268 336.38 132.602 336.613 132.042 337.08C131.495 337.533 131.155 338.16 131.022 338.96H136.902ZM145.386 345.3C144.439 345.3 143.573 345.08 142.786 344.64C141.999 344.2 141.379 343.58 140.926 342.78C140.473 341.98 140.246 341.053 140.246 340C140.246 338.947 140.473 338.02 140.926 337.22C141.379 336.42 141.999 335.8 142.786 335.36C143.573 334.92 144.439 334.7 145.386 334.7C146.599 334.7 147.639 335.033 148.506 335.7C149.373 336.367 149.926 337.273 150.166 338.42H148.146C147.946 337.82 147.606 337.36 147.126 337.04C146.659 336.707 146.086 336.54 145.406 336.54C144.833 336.54 144.313 336.68 143.846 336.96C143.393 337.24 143.026 337.64 142.746 338.16C142.479 338.68 142.346 339.287 142.346 339.98C142.346 340.687 142.479 341.307 142.746 341.84C143.013 342.36 143.379 342.76 143.846 343.04C144.313 343.32 144.833 343.46 145.406 343.46C146.099 343.46 146.686 343.293 147.166 342.96C147.646 342.613 147.986 342.127 148.186 341.5H150.226C149.999 342.66 149.446 343.587 148.566 344.28C147.686 344.96 146.626 345.3 145.386 345.3ZM156.313 345.3C154.98 345.3 153.926 344.92 153.153 344.16C152.393 343.4 152.013 342.34 152.013 340.98V335H154.053V340.94C154.053 341.687 154.246 342.293 154.633 342.76C155.02 343.227 155.58 343.46 156.313 343.46C157.033 343.46 157.58 343.227 157.953 342.76C158.34 342.293 158.533 341.687 158.533 340.94V335H160.573V340.98C160.573 342.34 160.193 343.4 159.433 344.16C158.686 344.92 157.646 345.3 156.313 345.3ZM163.282 335H165.302V336.84H165.642C165.895 336.213 166.328 335.72 166.942 335.36C167.555 335 168.255 334.82 169.042 334.82H169.182V337C168.968 336.973 168.708 336.96 168.402 336.96C167.482 336.96 166.735 337.233 166.162 337.78C165.602 338.327 165.322 339.127 165.322 340.18V345H163.282V335ZM174.961 345.3C173.948 345.3 173.055 345.08 172.281 344.64C171.508 344.187 170.908 343.56 170.481 342.76C170.068 341.947 169.861 341.02 169.861 339.98C169.861 338.953 170.075 338.04 170.501 337.24C170.928 336.44 171.521 335.82 172.281 335.38C173.055 334.927 173.935 334.7 174.921 334.7C175.921 334.7 176.788 334.933 177.521 335.4C178.255 335.853 178.815 336.48 179.201 337.28C179.601 338.08 179.801 338.987 179.801 340V340.34H171.841C171.881 341.3 172.188 342.073 172.761 342.66C173.348 343.247 174.081 343.54 174.961 343.54C176.281 343.54 177.155 343.067 177.581 342.12H179.661C179.381 343.067 178.815 343.833 177.961 344.42C177.121 345.007 176.121 345.3 174.961 345.3ZM177.781 338.96C177.688 338.173 177.381 337.547 176.861 337.08C176.341 336.613 175.695 336.38 174.921 336.38C174.148 336.38 173.481 336.613 172.921 337.08C172.375 337.533 172.035 338.16 171.901 338.96H177.781ZM185.394 335H187.454L189.194 343.32H189.534L191.394 335H194.514L196.374 343.32H196.714L198.454 335H200.454L198.074 345H194.934L193.094 336.68H192.754L190.914 345H187.694L185.394 335ZM204.989 345.3C203.989 345.3 203.156 345.027 202.489 344.48C201.823 343.92 201.489 343.18 201.489 342.26C201.489 341.233 201.843 340.487 202.549 340.02C203.256 339.54 204.216 339.24 205.429 339.12L208.389 338.8V338.26C208.389 337.687 208.196 337.233 207.809 336.9C207.423 336.553 206.883 336.38 206.189 336.38C205.549 336.38 205.023 336.52 204.609 336.8C204.196 337.08 203.929 337.48 203.809 338H201.849C201.969 337.027 202.416 336.233 203.189 335.62C203.963 335.007 204.963 334.7 206.189 334.7C207.483 334.7 208.489 335.02 209.209 335.66C209.943 336.287 210.309 337.187 210.309 338.36V343.24C210.309 343.573 210.316 343.9 210.329 344.22C210.356 344.527 210.383 344.773 210.409 344.96V345H208.409C208.396 344.773 208.389 344.387 208.389 343.84H208.049C207.769 344.333 207.363 344.7 206.829 344.94C206.296 345.18 205.683 345.3 204.989 345.3ZM203.569 342.14C203.569 342.633 203.749 343.027 204.109 343.32C204.469 343.6 204.936 343.74 205.509 343.74C206.096 343.74 206.603 343.613 207.029 343.36C207.469 343.093 207.803 342.753 208.029 342.34C208.269 341.927 208.389 341.493 208.389 341.04V340.2L206.089 340.48C205.249 340.573 204.616 340.747 204.189 341C203.776 341.253 203.569 341.633 203.569 342.14ZM212.007 347.16H213.707C214.081 347.16 214.361 347.08 214.547 346.92C214.747 346.773 214.921 346.507 215.067 346.12L215.387 345.22L211.547 335H213.687L216.207 342.52H216.547L219.127 335H221.247L216.547 347.12C216.321 347.733 216.014 348.167 215.627 348.42C215.254 348.673 214.714 348.8 214.007 348.8H212.007V347.16ZM228.889 345.08C228.369 345.08 227.963 344.933 227.669 344.64C227.389 344.333 227.249 343.913 227.249 343.38V336.56H225.369V335H227.289V332.3H229.229V335H231.689V336.56H229.249V342.76C229.249 343.013 229.303 343.193 229.409 343.3C229.529 343.407 229.716 343.46 229.969 343.46H231.689V345.08H228.889ZM237.86 345.3C236.873 345.3 235.98 345.073 235.18 344.62C234.393 344.153 233.773 343.52 233.32 342.72C232.88 341.907 232.66 341 232.66 340C232.66 339 232.88 338.1 233.32 337.3C233.773 336.487 234.393 335.853 235.18 335.4C235.98 334.933 236.873 334.7 237.86 334.7C238.847 334.7 239.733 334.933 240.52 335.4C241.307 335.853 241.927 336.487 242.38 337.3C242.833 338.1 243.06 339 243.06 340C243.06 341 242.833 341.907 242.38 342.72C241.927 343.52 241.307 344.153 240.52 344.62C239.733 345.073 238.847 345.3 237.86 345.3ZM237.86 343.46C238.447 343.46 238.973 343.313 239.44 343.02C239.92 342.727 240.293 342.32 240.56 341.8C240.827 341.267 240.96 340.667 240.96 340C240.96 339.333 240.827 338.74 240.56 338.22C240.293 337.687 239.92 337.273 239.44 336.98C238.973 336.687 238.447 336.54 237.86 336.54C236.94 336.54 236.193 336.867 235.62 337.52C235.047 338.16 234.76 338.987 234.76 340C234.76 341.013 235.047 341.847 235.62 342.5C236.193 343.14 236.94 343.46 237.86 343.46ZM253.222 345.3C251.982 345.3 250.955 345.02 250.142 344.46C249.329 343.887 248.849 343.113 248.702 342.14H250.722C250.869 342.647 251.162 343.027 251.602 343.28C252.055 343.533 252.595 343.66 253.222 343.66C253.822 343.66 254.329 343.533 254.742 343.28C255.155 343.027 255.362 342.68 255.362 342.24C255.362 341.827 255.195 341.52 254.862 341.32C254.529 341.12 254.035 340.967 253.382 340.86L252.242 340.66C251.215 340.5 250.422 340.193 249.862 339.74C249.315 339.287 249.042 338.633 249.042 337.78C249.042 336.86 249.409 336.12 250.142 335.56C250.875 334.987 251.829 334.7 253.002 334.7C254.109 334.7 255.029 334.953 255.762 335.46C256.495 335.953 256.969 336.673 257.182 337.62H255.222C255.062 337.18 254.789 336.853 254.402 336.64C254.029 336.413 253.569 336.3 253.022 336.3C252.435 336.3 251.962 336.427 251.602 336.68C251.242 336.92 251.062 337.233 251.062 337.62C251.062 338.007 251.202 338.287 251.482 338.46C251.762 338.633 252.229 338.773 252.882 338.88L254.022 339.08C255.062 339.253 255.875 339.573 256.462 340.04C257.049 340.493 257.342 341.173 257.342 342.08C257.342 343.053 256.955 343.833 256.182 344.42C255.422 345.007 254.435 345.3 253.222 345.3ZM259.383 335H261.423V345H259.383V335ZM259.363 331.2H261.443V333.38H259.363V331.2ZM265.121 347.12H270.661C271.061 347.12 271.347 347.033 271.521 346.86C271.694 346.7 271.781 346.427 271.781 346.04V343.12H271.441C271.147 343.747 270.707 344.213 270.121 344.52C269.547 344.827 268.914 344.98 268.221 344.98C267.301 344.98 266.481 344.767 265.761 344.34C265.054 343.9 264.501 343.3 264.101 342.54C263.714 341.767 263.521 340.893 263.521 339.92C263.521 338.933 263.727 338.047 264.141 337.26C264.567 336.46 265.154 335.833 265.901 335.38C266.647 334.927 267.487 334.7 268.421 334.7C269.074 334.7 269.661 334.847 270.181 335.14C270.714 335.42 271.127 335.853 271.421 336.44H271.761V335H273.681V346.5C273.681 347.247 273.481 347.813 273.081 348.2C272.681 348.6 272.101 348.8 271.341 348.8H265.121V347.12ZM268.701 343.22C269.287 343.22 269.814 343.08 270.281 342.8C270.747 342.507 271.114 342.107 271.381 341.6C271.647 341.08 271.781 340.493 271.781 339.84C271.781 339.187 271.647 338.607 271.381 338.1C271.114 337.58 270.747 337.18 270.281 336.9C269.814 336.62 269.287 336.48 268.701 336.48C267.794 336.48 267.054 336.8 266.481 337.44C265.907 338.067 265.621 338.867 265.621 339.84C265.621 340.813 265.907 341.62 266.481 342.26C267.054 342.9 267.794 343.22 268.701 343.22ZM276.522 335H278.562V336.28H278.902C279.208 335.76 279.608 335.367 280.102 335.1C280.608 334.833 281.168 334.7 281.782 334.7C282.822 334.7 283.648 335.033 284.262 335.7C284.875 336.353 285.182 337.24 285.182 338.36V345H283.142V338.98C283.142 338.26 282.962 337.68 282.602 337.24C282.242 336.787 281.702 336.56 280.982 336.56C280.262 336.56 279.675 336.8 279.222 337.28C278.782 337.747 278.562 338.313 278.562 338.98V345H276.522V335ZM292.372 335H294.412V345H292.372V335ZM292.352 331.2H294.432V333.38H292.352V331.2ZM297.25 335H299.29V336.28H299.63C299.936 335.76 300.336 335.367 300.83 335.1C301.336 334.833 301.896 334.7 302.51 334.7C303.55 334.7 304.376 335.033 304.99 335.7C305.603 336.353 305.91 337.24 305.91 338.36V345H303.87V338.98C303.87 338.26 303.69 337.68 303.33 337.24C302.97 336.787 302.43 336.56 301.71 336.56C300.99 336.56 300.403 336.8 299.95 337.28C299.51 337.747 299.29 338.313 299.29 338.98V345H297.25V335ZM310.893 345.08C310.373 345.08 309.966 344.933 309.673 344.64C309.393 344.333 309.253 343.913 309.253 343.38V336.56H307.373V335H309.293V332.3H311.233V335H313.693V336.56H311.253V342.76C311.253 343.013 311.306 343.193 311.413 343.3C311.533 343.407 311.72 343.46 311.973 343.46H313.693V345.08H310.893ZM319.864 345.3C318.877 345.3 317.984 345.073 317.184 344.62C316.397 344.153 315.777 343.52 315.324 342.72C314.884 341.907 314.664 341 314.664 340C314.664 339 314.884 338.1 315.324 337.3C315.777 336.487 316.397 335.853 317.184 335.4C317.984 334.933 318.877 334.7 319.864 334.7C320.851 334.7 321.737 334.933 322.524 335.4C323.311 335.853 323.931 336.487 324.384 337.3C324.837 338.1 325.064 339 325.064 340C325.064 341 324.837 341.907 324.384 342.72C323.931 343.52 323.311 344.153 322.524 344.62C321.737 345.073 320.851 345.3 319.864 345.3ZM319.864 343.46C320.451 343.46 320.977 343.313 321.444 343.02C321.924 342.727 322.297 342.32 322.564 341.8C322.831 341.267 322.964 340.667 322.964 340C322.964 339.333 322.831 338.74 322.564 338.22C322.297 337.687 321.924 337.273 321.444 336.98C320.977 336.687 320.451 336.54 319.864 336.54C318.944 336.54 318.197 336.867 317.624 337.52C317.051 338.16 316.764 338.987 316.764 340C316.764 341.013 317.051 341.847 317.624 342.5C318.197 343.14 318.944 343.46 319.864 343.46ZM28.34 373.3C27.34 373.3 26.5067 373.027 25.84 372.48C25.1733 371.92 24.84 371.18 24.84 370.26C24.84 369.233 25.1933 368.487 25.9 368.02C26.6067 367.54 27.5667 367.24 28.78 367.12L31.74 366.8V366.26C31.74 365.687 31.5467 365.233 31.16 364.9C30.7733 364.553 30.2333 364.38 29.54 364.38C28.9 364.38 28.3733 364.52 27.96 364.8C27.5467 365.08 27.28 365.48 27.16 366H25.2C25.32 365.027 25.7667 364.233 26.54 363.62C27.3133 363.007 28.3133 362.7 29.54 362.7C30.8333 362.7 31.84 363.02 32.56 363.66C33.2933 364.287 33.66 365.187 33.66 366.36V371.24C33.66 371.573 33.6667 371.9 33.68 372.22C33.7067 372.527 33.7333 372.773 33.76 372.96V373H31.76C31.7467 372.773 31.74 372.387 31.74 371.84H31.4C31.12 372.333 30.7133 372.7 30.18 372.94C29.6467 373.18 29.0333 373.3 28.34 373.3ZM26.92 370.14C26.92 370.633 27.1 371.027 27.46 371.32C27.82 371.6 28.2867 371.74 28.86 371.74C29.4467 371.74 29.9533 371.613 30.38 371.36C30.82 371.093 31.1533 370.753 31.38 370.34C31.62 369.927 31.74 369.493 31.74 369.04V368.2L29.44 368.48C28.6 368.573 27.9667 368.747 27.54 369C27.1267 369.253 26.92 369.633 26.92 370.14ZM41.9347 362.7C42.8414 362.7 43.6414 362.927 44.3347 363.38C45.0414 363.82 45.588 364.44 45.9747 365.24C46.3747 366.027 46.5747 366.92 46.5747 367.92C46.5747 368.933 46.368 369.853 45.9547 370.68C45.5414 371.493 44.9747 372.133 44.2547 372.6C43.5347 373.067 42.728 373.3 41.8347 373.3C41.1547 373.3 40.5414 373.153 39.9947 372.86C39.448 372.567 39.028 372.133 38.7347 371.56H38.4147V376.8H36.3747V363H38.4147V364.42H38.7347C39.0414 363.86 39.4814 363.433 40.0547 363.14C40.628 362.847 41.2547 362.7 41.9347 362.7ZM41.4347 364.52C40.8614 364.52 40.3414 364.667 39.8747 364.96C39.4214 365.253 39.0614 365.667 38.7947 366.2C38.528 366.72 38.3947 367.32 38.3947 368C38.3947 368.68 38.528 369.287 38.7947 369.82C39.0614 370.34 39.4214 370.747 39.8747 371.04C40.3414 371.333 40.8614 371.48 41.4347 371.48C42.328 371.48 43.0547 371.153 43.6147 370.5C44.188 369.833 44.4747 369 44.4747 368C44.4747 367.347 44.3414 366.753 44.0747 366.22C43.8214 365.687 43.4614 365.273 42.9947 364.98C42.5414 364.673 42.0214 364.52 41.4347 364.52ZM54.2347 362.7C55.1414 362.7 55.9414 362.927 56.6347 363.38C57.3414 363.82 57.888 364.44 58.2747 365.24C58.6747 366.027 58.8747 366.92 58.8747 367.92C58.8747 368.933 58.668 369.853 58.2547 370.68C57.8414 371.493 57.2747 372.133 56.5547 372.6C55.8347 373.067 55.028 373.3 54.1347 373.3C53.4547 373.3 52.8414 373.153 52.2947 372.86C51.748 372.567 51.328 372.133 51.0347 371.56H50.7147V376.8H48.6747V363H50.7147V364.42H51.0347C51.3414 363.86 51.7814 363.433 52.3547 363.14C52.928 362.847 53.5547 362.7 54.2347 362.7ZM53.7347 364.52C53.1614 364.52 52.6414 364.667 52.1747 364.96C51.7214 365.253 51.3614 365.667 51.0947 366.2C50.828 366.72 50.6947 367.32 50.6947 368C50.6947 368.68 50.828 369.287 51.0947 369.82C51.3614 370.34 51.7214 370.747 52.1747 371.04C52.6414 371.333 53.1614 371.48 53.7347 371.48C54.628 371.48 55.3547 371.153 55.9147 370.5C56.488 369.833 56.7747 369 56.7747 368C56.7747 367.347 56.6414 366.753 56.3747 366.22C56.1214 365.687 55.7614 365.273 55.2947 364.98C54.8414 364.673 54.3214 364.52 53.7347 364.52ZM64.5947 373.3C63.3547 373.3 62.328 373.02 61.5147 372.46C60.7014 371.887 60.2214 371.113 60.0747 370.14H62.0947C62.2414 370.647 62.5347 371.027 62.9747 371.28C63.428 371.533 63.968 371.66 64.5947 371.66C65.1947 371.66 65.7014 371.533 66.1147 371.28C66.528 371.027 66.7347 370.68 66.7347 370.24C66.7347 369.827 66.568 369.52 66.2347 369.32C65.9014 369.12 65.408 368.967 64.7547 368.86L63.6147 368.66C62.588 368.5 61.7947 368.193 61.2347 367.74C60.688 367.287 60.4147 366.633 60.4147 365.78C60.4147 364.86 60.7814 364.12 61.5147 363.56C62.248 362.987 63.2014 362.7 64.3747 362.7C65.4814 362.7 66.4014 362.953 67.1347 363.46C67.868 363.953 68.3414 364.673 68.5547 365.62H66.5947C66.4347 365.18 66.1614 364.853 65.7747 364.64C65.4014 364.413 64.9414 364.3 64.3947 364.3C63.808 364.3 63.3347 364.427 62.9747 364.68C62.6147 364.92 62.4347 365.233 62.4347 365.62C62.4347 366.007 62.5747 366.287 62.8547 366.46C63.1347 366.633 63.6014 366.773 64.2547 366.88L65.3947 367.08C66.4347 367.253 67.248 367.573 67.8347 368.04C68.4214 368.493 68.7147 369.173 68.7147 370.08C68.7147 371.053 68.328 371.833 67.5547 372.42C66.7947 373.007 65.808 373.3 64.5947 373.3ZM78.0431 373.3C77.0431 373.3 76.2098 373.027 75.5431 372.48C74.8765 371.92 74.5431 371.18 74.5431 370.26C74.5431 369.233 74.8965 368.487 75.6031 368.02C76.3098 367.54 77.2698 367.24 78.4831 367.12L81.4431 366.8V366.26C81.4431 365.687 81.2498 365.233 80.8631 364.9C80.4765 364.553 79.9365 364.38 79.2431 364.38C78.6031 364.38 78.0765 364.52 77.6631 364.8C77.2498 365.08 76.9831 365.48 76.8631 366H74.9031C75.0231 365.027 75.4698 364.233 76.2431 363.62C77.0165 363.007 78.0165 362.7 79.2431 362.7C80.5365 362.7 81.5431 363.02 82.2631 363.66C82.9965 364.287 83.3631 365.187 83.3631 366.36V371.24C83.3631 371.573 83.3698 371.9 83.3831 372.22C83.4098 372.527 83.4365 372.773 83.4631 372.96V373H81.4631C81.4498 372.773 81.4431 372.387 81.4431 371.84H81.1031C80.8231 372.333 80.4165 372.7 79.8831 372.94C79.3498 373.18 78.7365 373.3 78.0431 373.3ZM76.6231 370.14C76.6231 370.633 76.8031 371.027 77.1631 371.32C77.5231 371.6 77.9898 371.74 78.5631 371.74C79.1498 371.74 79.6565 371.613 80.0831 371.36C80.5231 371.093 80.8565 370.753 81.0831 370.34C81.3231 369.927 81.4431 369.493 81.4431 369.04V368.2L79.1431 368.48C78.3031 368.573 77.6698 368.747 77.2431 369C76.8298 369.253 76.6231 369.633 76.6231 370.14ZM86.0778 363H88.1178V364.28H88.4578C88.7645 363.76 89.1645 363.367 89.6578 363.1C90.1645 362.833 90.7245 362.7 91.3378 362.7C92.3778 362.7 93.2045 363.033 93.8178 363.7C94.4311 364.353 94.7378 365.24 94.7378 366.36V373H92.6978V366.98C92.6978 366.26 92.5178 365.68 92.1578 365.24C91.7978 364.787 91.2578 364.56 90.5378 364.56C89.8178 364.56 89.2311 364.8 88.7778 365.28C88.3378 365.747 88.1178 366.313 88.1178 366.98V373H86.0778V363ZM101.36 373.3C100.453 373.3 99.6465 373.08 98.9398 372.64C98.2465 372.187 97.6998 371.567 97.2998 370.78C96.9132 369.98 96.7198 369.08 96.7198 368.08C96.7198 367.067 96.9265 366.153 97.3398 365.34C97.7532 364.513 98.3198 363.867 99.0398 363.4C99.7598 362.933 100.567 362.7 101.46 362.7C102.14 362.7 102.753 362.847 103.3 363.14C103.847 363.433 104.267 363.867 104.56 364.44H104.88V359.2H106.92V373H104.88V371.58H104.56C104.253 372.14 103.813 372.567 103.24 372.86C102.667 373.153 102.04 373.3 101.36 373.3ZM101.86 371.48C102.433 371.48 102.947 371.333 103.4 371.04C103.867 370.747 104.233 370.34 104.5 369.82C104.767 369.287 104.9 368.68 104.9 368C104.9 367.32 104.767 366.72 104.5 366.2C104.233 365.667 103.867 365.253 103.4 364.96C102.947 364.667 102.433 364.52 101.86 364.52C100.967 364.52 100.233 364.853 99.6598 365.52C99.0998 366.173 98.8198 367 98.8198 368C98.8198 368.653 98.9465 369.247 99.1998 369.78C99.4665 370.313 99.8265 370.733 100.28 371.04C100.747 371.333 101.273 371.48 101.86 371.48ZM114.228 363H116.268V364.28H116.608C116.901 363.76 117.294 363.367 117.788 363.1C118.281 362.833 118.848 362.7 119.488 362.7C120.141 362.7 120.714 362.84 121.208 363.12C121.701 363.4 122.081 363.8 122.348 364.32H122.708C123.388 363.24 124.414 362.7 125.788 362.7C126.881 362.7 127.748 363.033 128.388 363.7C129.041 364.367 129.368 365.273 129.368 366.42V373H127.328V366.94C127.328 366.22 127.154 365.647 126.808 365.22C126.461 364.78 125.928 364.56 125.208 364.56C124.514 364.56 123.941 364.787 123.488 365.24C123.034 365.68 122.808 366.213 122.808 366.84V373H120.768V366.98C120.768 366.26 120.588 365.68 120.228 365.24C119.881 364.787 119.348 364.56 118.628 364.56C117.934 364.56 117.368 364.793 116.928 365.26C116.488 365.727 116.268 366.28 116.268 366.92V373H114.228V363ZM134.914 373.3C133.914 373.3 133.081 373.027 132.414 372.48C131.748 371.92 131.414 371.18 131.414 370.26C131.414 369.233 131.768 368.487 132.474 368.02C133.181 367.54 134.141 367.24 135.354 367.12L138.314 366.8V366.26C138.314 365.687 138.121 365.233 137.734 364.9C137.348 364.553 136.808 364.38 136.114 364.38C135.474 364.38 134.948 364.52 134.534 364.8C134.121 365.08 133.854 365.48 133.734 366H131.774C131.894 365.027 132.341 364.233 133.114 363.62C133.888 363.007 134.888 362.7 136.114 362.7C137.408 362.7 138.414 363.02 139.134 363.66C139.868 364.287 140.234 365.187 140.234 366.36V371.24C140.234 371.573 140.241 371.9 140.254 372.22C140.281 372.527 140.308 372.773 140.334 372.96V373H138.334C138.321 372.773 138.314 372.387 138.314 371.84H137.974C137.694 372.333 137.288 372.7 136.754 372.94C136.221 373.18 135.608 373.3 134.914 373.3ZM133.494 370.14C133.494 370.633 133.674 371.027 134.034 371.32C134.394 371.6 134.861 371.74 135.434 371.74C136.021 371.74 136.528 371.613 136.954 371.36C137.394 371.093 137.728 370.753 137.954 370.34C138.194 369.927 138.314 369.493 138.314 369.04V368.2L136.014 368.48C135.174 368.573 134.541 368.747 134.114 369C133.701 369.253 133.494 369.633 133.494 370.14ZM142.949 359.2H144.989V367.3H145.329L149.229 363H151.649L147.049 367.82L151.889 373H149.409L145.329 368.64H144.989V373H142.949V359.2ZM156.972 373.3C155.959 373.3 155.066 373.08 154.292 372.64C153.519 372.187 152.919 371.56 152.492 370.76C152.079 369.947 151.872 369.02 151.872 367.98C151.872 366.953 152.086 366.04 152.512 365.24C152.939 364.44 153.532 363.82 154.292 363.38C155.066 362.927 155.946 362.7 156.932 362.7C157.932 362.7 158.799 362.933 159.532 363.4C160.266 363.853 160.826 364.48 161.212 365.28C161.612 366.08 161.812 366.987 161.812 368V368.34H153.852C153.892 369.3 154.199 370.073 154.772 370.66C155.359 371.247 156.092 371.54 156.972 371.54C158.292 371.54 159.166 371.067 159.592 370.12H161.672C161.392 371.067 160.826 371.833 159.972 372.42C159.132 373.007 158.132 373.3 156.972 373.3ZM159.792 366.96C159.699 366.173 159.392 365.547 158.872 365.08C158.352 364.613 157.706 364.38 156.932 364.38C156.159 364.38 155.492 364.613 154.932 365.08C154.386 365.533 154.046 366.16 153.912 366.96H159.792ZM173.925 362.7C174.831 362.7 175.631 362.927 176.325 363.38C177.031 363.82 177.578 364.44 177.965 365.24C178.365 366.027 178.565 366.92 178.565 367.92C178.565 368.933 178.358 369.853 177.945 370.68C177.531 371.493 176.965 372.133 176.245 372.6C175.525 373.067 174.718 373.3 173.825 373.3C173.145 373.3 172.531 373.153 171.985 372.86C171.438 372.567 171.018 372.133 170.725 371.56H170.405V376.8H168.365V363H170.405V364.42H170.725C171.031 363.86 171.471 363.433 172.045 363.14C172.618 362.847 173.245 362.7 173.925 362.7ZM173.425 364.52C172.851 364.52 172.331 364.667 171.865 364.96C171.411 365.253 171.051 365.667 170.785 366.2C170.518 366.72 170.385 367.32 170.385 368C170.385 368.68 170.518 369.287 170.785 369.82C171.051 370.34 171.411 370.747 171.865 371.04C172.331 371.333 172.851 371.48 173.425 371.48C174.318 371.48 175.045 371.153 175.605 370.5C176.178 369.833 176.465 369 176.465 368C176.465 367.347 176.331 366.753 176.065 366.22C175.811 365.687 175.451 365.273 174.985 364.98C174.531 364.673 174.011 364.52 173.425 364.52ZM183.485 373.3C182.485 373.3 181.651 373.027 180.985 372.48C180.318 371.92 179.985 371.18 179.985 370.26C179.985 369.233 180.338 368.487 181.045 368.02C181.751 367.54 182.711 367.24 183.925 367.12L186.885 366.8V366.26C186.885 365.687 186.691 365.233 186.305 364.9C185.918 364.553 185.378 364.38 184.685 364.38C184.045 364.38 183.518 364.52 183.105 364.8C182.691 365.08 182.425 365.48 182.305 366H180.345C180.465 365.027 180.911 364.233 181.685 363.62C182.458 363.007 183.458 362.7 184.685 362.7C185.978 362.7 186.985 363.02 187.705 363.66C188.438 364.287 188.805 365.187 188.805 366.36V371.24C188.805 371.573 188.811 371.9 188.825 372.22C188.851 372.527 188.878 372.773 188.905 372.96V373H186.905C186.891 372.773 186.885 372.387 186.885 371.84H186.545C186.265 372.333 185.858 372.7 185.325 372.94C184.791 373.18 184.178 373.3 183.485 373.3ZM182.065 370.14C182.065 370.633 182.245 371.027 182.605 371.32C182.965 371.6 183.431 371.74 184.005 371.74C184.591 371.74 185.098 371.613 185.525 371.36C185.965 371.093 186.298 370.753 186.525 370.34C186.765 369.927 186.885 369.493 186.885 369.04V368.2L184.585 368.48C183.745 368.573 183.111 368.747 182.685 369C182.271 369.253 182.065 369.633 182.065 370.14ZM190.503 375.16H192.203C192.576 375.16 192.856 375.08 193.043 374.92C193.243 374.773 193.416 374.507 193.563 374.12L193.883 373.22L190.043 363H192.183L194.703 370.52H195.043L197.623 363H199.743L195.043 375.12C194.816 375.733 194.509 376.167 194.123 376.42C193.749 376.673 193.209 376.8 192.503 376.8H190.503V375.16ZM201.202 363H203.242V364.28H203.582C203.875 363.76 204.269 363.367 204.762 363.1C205.255 362.833 205.822 362.7 206.462 362.7C207.115 362.7 207.689 362.84 208.182 363.12C208.675 363.4 209.055 363.8 209.322 364.32H209.682C210.362 363.24 211.389 362.7 212.762 362.7C213.855 362.7 214.722 363.033 215.362 363.7C216.015 364.367 216.342 365.273 216.342 366.42V373H214.302V366.94C214.302 366.22 214.129 365.647 213.782 365.22C213.435 364.78 212.902 364.56 212.182 364.56C211.489 364.56 210.915 364.787 210.462 365.24C210.009 365.68 209.782 366.213 209.782 366.84V373H207.742V366.98C207.742 366.26 207.562 365.68 207.202 365.24C206.855 364.787 206.322 364.56 205.602 364.56C204.909 364.56 204.342 364.793 203.902 365.26C203.462 365.727 203.242 366.28 203.242 366.92V373H201.202V363ZM223.428 373.3C222.415 373.3 221.522 373.08 220.748 372.64C219.975 372.187 219.375 371.56 218.948 370.76C218.535 369.947 218.328 369.02 218.328 367.98C218.328 366.953 218.542 366.04 218.968 365.24C219.395 364.44 219.988 363.82 220.748 363.38C221.522 362.927 222.402 362.7 223.388 362.7C224.388 362.7 225.255 362.933 225.988 363.4C226.722 363.853 227.282 364.48 227.668 365.28C228.068 366.08 228.268 366.987 228.268 368V368.34H220.308C220.348 369.3 220.655 370.073 221.228 370.66C221.815 371.247 222.548 371.54 223.428 371.54C224.748 371.54 225.622 371.067 226.048 370.12H228.128C227.848 371.067 227.282 371.833 226.428 372.42C225.588 373.007 224.588 373.3 223.428 373.3ZM226.248 366.96C226.155 366.173 225.848 365.547 225.328 365.08C224.808 364.613 224.162 364.38 223.388 364.38C222.615 364.38 221.948 364.613 221.388 365.08C220.842 365.533 220.502 366.16 220.368 366.96H226.248ZM230.353 363H232.393V364.28H232.733C233.039 363.76 233.439 363.367 233.933 363.1C234.439 362.833 234.999 362.7 235.613 362.7C236.653 362.7 237.479 363.033 238.093 363.7C238.706 364.353 239.013 365.24 239.013 366.36V373H236.973V366.98C236.973 366.26 236.793 365.68 236.433 365.24C236.073 364.787 235.533 364.56 234.813 364.56C234.093 364.56 233.506 364.8 233.053 365.28C232.613 365.747 232.393 366.313 232.393 366.98V373H230.353V363ZM243.996 373.08C243.476 373.08 243.07 372.933 242.776 372.64C242.496 372.333 242.356 371.913 242.356 371.38V364.56H240.476V363H242.396V360.3H244.336V363H246.796V364.56H244.356V370.76C244.356 371.013 244.41 371.193 244.516 371.3C244.636 371.407 244.823 371.46 245.076 371.46H246.796V373.08H243.996ZM252.362 373.3C251.122 373.3 250.095 373.02 249.282 372.46C248.469 371.887 247.989 371.113 247.842 370.14H249.862C250.009 370.647 250.302 371.027 250.742 371.28C251.195 371.533 251.735 371.66 252.362 371.66C252.962 371.66 253.469 371.533 253.882 371.28C254.295 371.027 254.502 370.68 254.502 370.24C254.502 369.827 254.335 369.52 254.002 369.32C253.669 369.12 253.175 368.967 252.522 368.86L251.382 368.66C250.355 368.5 249.562 368.193 249.002 367.74C248.455 367.287 248.182 366.633 248.182 365.78C248.182 364.86 248.549 364.12 249.282 363.56C250.015 362.987 250.969 362.7 252.142 362.7C253.249 362.7 254.169 362.953 254.902 363.46C255.635 363.953 256.109 364.673 256.322 365.62H254.362C254.202 365.18 253.929 364.853 253.542 364.64C253.169 364.413 252.709 364.3 252.162 364.3C251.575 364.3 251.102 364.427 250.742 364.68C250.382 364.92 250.202 365.233 250.202 365.62C250.202 366.007 250.342 366.287 250.622 366.46C250.902 366.633 251.369 366.773 252.022 366.88L253.162 367.08C254.202 367.253 255.015 367.573 255.602 368.04C256.189 368.493 256.482 369.173 256.482 370.08C256.482 371.053 256.095 371.833 255.322 372.42C254.562 373.007 253.575 373.3 252.362 373.3ZM267.43 373.3C266.444 373.3 265.55 373.073 264.75 372.62C263.964 372.153 263.344 371.52 262.89 370.72C262.45 369.907 262.23 369 262.23 368C262.23 367 262.45 366.1 262.89 365.3C263.344 364.487 263.964 363.853 264.75 363.4C265.55 362.933 266.444 362.7 267.43 362.7C268.417 362.7 269.304 362.933 270.09 363.4C270.877 363.853 271.497 364.487 271.95 365.3C272.404 366.1 272.63 367 272.63 368C272.63 369 272.404 369.907 271.95 370.72C271.497 371.52 270.877 372.153 270.09 372.62C269.304 373.073 268.417 373.3 267.43 373.3ZM267.43 371.46C268.017 371.46 268.544 371.313 269.01 371.02C269.49 370.727 269.864 370.32 270.13 369.8C270.397 369.267 270.53 368.667 270.53 368C270.53 367.333 270.397 366.74 270.13 366.22C269.864 365.687 269.49 365.273 269.01 364.98C268.544 364.687 268.017 364.54 267.43 364.54C266.51 364.54 265.764 364.867 265.19 365.52C264.617 366.16 264.33 366.987 264.33 368C264.33 369.013 264.617 369.847 265.19 370.5C265.764 371.14 266.51 371.46 267.43 371.46ZM274.704 363H276.744V364.28H277.084C277.391 363.76 277.791 363.367 278.284 363.1C278.791 362.833 279.351 362.7 279.964 362.7C281.004 362.7 281.831 363.033 282.444 363.7C283.058 364.353 283.364 365.24 283.364 366.36V373H281.324V366.98C281.324 366.26 281.144 365.68 280.784 365.24C280.424 364.787 279.884 364.56 279.164 364.56C278.444 364.56 277.858 364.8 277.404 365.28C276.964 365.747 276.744 366.313 276.744 366.98V373H274.704V363ZM290.466 373.3C289.52 373.3 288.653 373.08 287.866 372.64C287.08 372.2 286.46 371.58 286.006 370.78C285.553 369.98 285.326 369.053 285.326 368C285.326 366.947 285.553 366.02 286.006 365.22C286.46 364.42 287.08 363.8 287.866 363.36C288.653 362.92 289.52 362.7 290.466 362.7C291.68 362.7 292.72 363.033 293.586 363.7C294.453 364.367 295.006 365.273 295.246 366.42H293.226C293.026 365.82 292.686 365.36 292.206 365.04C291.74 364.707 291.166 364.54 290.486 364.54C289.913 364.54 289.393 364.68 288.926 364.96C288.473 365.24 288.106 365.64 287.826 366.16C287.56 366.68 287.426 367.287 287.426 367.98C287.426 368.687 287.56 369.307 287.826 369.84C288.093 370.36 288.46 370.76 288.926 371.04C289.393 371.32 289.913 371.46 290.486 371.46C291.18 371.46 291.766 371.293 292.246 370.96C292.726 370.613 293.066 370.127 293.266 369.5H295.306C295.08 370.66 294.526 371.587 293.646 372.28C292.766 372.96 291.706 373.3 290.466 373.3ZM297.254 359.2H299.294V364.28H299.634C299.94 363.76 300.34 363.367 300.834 363.1C301.34 362.833 301.9 362.7 302.514 362.7C303.554 362.7 304.38 363.033 304.994 363.7C305.607 364.353 305.914 365.24 305.914 366.36V373H303.874V366.98C303.874 366.26 303.694 365.68 303.334 365.24C302.974 364.787 302.434 364.56 301.714 364.56C300.994 364.56 300.407 364.8 299.954 365.28C299.514 365.747 299.294 366.313 299.294 366.98V373H297.254V359.2ZM311.456 373.3C310.456 373.3 309.622 373.027 308.956 372.48C308.289 371.92 307.956 371.18 307.956 370.26C307.956 369.233 308.309 368.487 309.016 368.02C309.722 367.54 310.682 367.24 311.896 367.12L314.856 366.8V366.26C314.856 365.687 314.662 365.233 314.276 364.9C313.889 364.553 313.349 364.38 312.656 364.38C312.016 364.38 311.489 364.52 311.076 364.8C310.662 365.08 310.396 365.48 310.276 366H308.316C308.436 365.027 308.882 364.233 309.656 363.62C310.429 363.007 311.429 362.7 312.656 362.7C313.949 362.7 314.956 363.02 315.676 363.66C316.409 364.287 316.776 365.187 316.776 366.36V371.24C316.776 371.573 316.782 371.9 316.796 372.22C316.822 372.527 316.849 372.773 316.876 372.96V373H314.876C314.862 372.773 314.856 372.387 314.856 371.84H314.516C314.236 372.333 313.829 372.7 313.296 372.94C312.762 373.18 312.149 373.3 311.456 373.3ZM310.036 370.14C310.036 370.633 310.216 371.027 310.576 371.32C310.936 371.6 311.402 371.74 311.976 371.74C312.562 371.74 313.069 371.613 313.496 371.36C313.936 371.093 314.269 370.753 314.496 370.34C314.736 369.927 314.856 369.493 314.856 369.04V368.2L312.556 368.48C311.716 368.573 311.082 368.747 310.656 369C310.242 369.253 310.036 369.633 310.036 370.14ZM319.49 363H321.53V373H319.49V363ZM319.47 359.2H321.55V361.38H319.47V359.2ZM324.368 363H326.408V364.28H326.748C327.055 363.76 327.455 363.367 327.948 363.1C328.455 362.833 329.015 362.7 329.628 362.7C330.668 362.7 331.495 363.033 332.108 363.7C332.722 364.353 333.028 365.24 333.028 366.36V373H330.988V366.98C330.988 366.26 330.808 365.68 330.448 365.24C330.088 364.787 329.548 364.56 328.828 364.56C328.108 364.56 327.522 364.8 327.068 365.28C326.628 365.747 326.408 366.313 326.408 366.98V373H324.368V363Z" fill="#5B616E"/>
<path d="M24 432C24 425.373 29.3726 420 36 420H339C345.627 420 351 425.373 351 432V464C351 470.627 345.627 476 339 476H36C29.3726 476 24 470.627 24 464V432Z" fill="#0A0B0D"/>
<path d="M167.391 454.24C166.143 454.24 165.113 453.941 164.303 453.344C163.503 452.736 163.023 451.92 162.863 450.896H164.991C165.161 451.419 165.46 451.803 165.887 452.048C166.313 452.293 166.815 452.416 167.391 452.416C167.967 452.416 168.436 452.283 168.799 452.016C169.161 451.749 169.343 451.408 169.343 450.992C169.343 450.555 169.183 450.219 168.863 449.984C168.543 449.749 168.009 449.552 167.263 449.392L166.287 449.184C165.38 448.992 164.644 448.645 164.079 448.144C163.513 447.643 163.231 446.949 163.231 446.064C163.231 445.435 163.396 444.869 163.727 444.368C164.068 443.856 164.537 443.456 165.135 443.168C165.732 442.869 166.415 442.72 167.183 442.72C168.324 442.72 169.247 443.003 169.951 443.568C170.665 444.133 171.129 444.917 171.343 445.92H169.247C168.959 444.992 168.271 444.528 167.183 444.528C166.628 444.528 166.18 444.661 165.839 444.928C165.508 445.184 165.343 445.509 165.343 445.904C165.343 446.288 165.492 446.587 165.791 446.8C166.089 447.003 166.569 447.179 167.231 447.328L168.207 447.552C169.22 447.787 170.02 448.149 170.607 448.64C171.204 449.131 171.503 449.851 171.503 450.8C171.503 451.461 171.332 452.053 170.991 452.576C170.649 453.099 170.164 453.509 169.535 453.808C168.916 454.096 168.201 454.24 167.391 454.24ZM173.253 446H175.253V454H173.253V446ZM173.237 442.96H175.269V444.96H173.237V442.96ZM178.159 455.408H182.447C182.746 455.408 182.959 455.344 183.087 455.216C183.215 455.099 183.279 454.896 183.279 454.608V452.64H182.991C182.757 453.109 182.426 453.451 181.999 453.664C181.573 453.877 181.109 453.984 180.607 453.984C179.882 453.984 179.242 453.813 178.687 453.472C178.133 453.131 177.701 452.656 177.391 452.048C177.093 451.429 176.943 450.731 176.943 449.952C176.943 449.163 177.109 448.453 177.439 447.824C177.781 447.184 178.25 446.683 178.847 446.32C179.445 445.947 180.106 445.76 180.831 445.76C181.791 445.76 182.501 446.165 182.959 446.976H183.247V446H185.119V455.072C185.119 455.701 184.949 456.187 184.607 456.528C184.277 456.869 183.802 457.04 183.183 457.04H178.159V455.408ZM181.135 452.24C181.765 452.24 182.277 452.027 182.671 451.6C183.066 451.163 183.263 450.587 183.263 449.872C183.263 449.157 183.061 448.587 182.655 448.16C182.261 447.723 181.754 447.504 181.135 447.504C180.506 447.504 179.989 447.728 179.583 448.176C179.189 448.613 178.991 449.179 178.991 449.872C178.991 450.576 179.189 451.147 179.583 451.584C179.989 452.021 180.506 452.24 181.135 452.24ZM187.362 446H189.362V446.944H189.65C189.896 446.549 190.205 446.256 190.578 446.064C190.952 445.861 191.368 445.76 191.826 445.76C192.637 445.76 193.282 446.021 193.762 446.544C194.253 447.056 194.498 447.755 194.498 448.64V454H192.498V449.264C192.498 448.773 192.376 448.373 192.13 448.064C191.885 447.744 191.506 447.584 190.994 447.584C190.493 447.584 190.093 447.749 189.794 448.08C189.506 448.4 189.362 448.795 189.362 449.264V454H187.362V446ZM200.206 446H202.206V454H200.206V446ZM200.19 442.96H202.222V444.96H200.19V442.96ZM204.44 446H206.44V446.944H206.728C206.974 446.549 207.283 446.256 207.656 446.064C208.03 445.861 208.446 445.76 208.904 445.76C209.715 445.76 210.36 446.021 210.84 446.544C211.331 447.056 211.576 447.755 211.576 448.64V454H209.576V449.264C209.576 448.773 209.454 448.373 209.208 448.064C208.963 447.744 208.584 447.584 208.072 447.584C207.571 447.584 207.171 447.749 206.872 448.08C206.584 448.4 206.44 448.795 206.44 449.264V454H204.44V446Z" fill="white"/>
<path d="M24 496C24 489.373 29.3726 484 36 484H339C345.627 484 351 489.373 351 496V528C351 534.627 345.627 540 339 540H36C29.3726 540 24 534.627 24 528V496Z" fill="#EEF0F3"/>
<path d="M124.873 518.24C123.827 518.24 122.878 517.995 122.025 517.504C121.171 517.013 120.499 516.331 120.009 515.456C119.529 514.581 119.289 513.595 119.289 512.496C119.289 511.397 119.534 510.411 120.025 509.536C120.515 508.651 121.182 507.963 122.025 507.472C122.878 506.971 123.827 506.72 124.873 506.72C125.779 506.72 126.606 506.896 127.353 507.248C128.11 507.589 128.739 508.08 129.241 508.72C129.742 509.349 130.078 510.075 130.249 510.896H128.041C127.817 510.213 127.422 509.669 126.857 509.264C126.302 508.848 125.641 508.64 124.873 508.64C124.201 508.64 123.609 508.805 123.097 509.136C122.585 509.467 122.19 509.925 121.913 510.512C121.635 511.088 121.497 511.744 121.497 512.48C121.497 513.205 121.635 513.861 121.913 514.448C122.19 515.024 122.585 515.483 123.097 515.824C123.609 516.155 124.201 516.32 124.873 516.32C125.619 516.32 126.27 516.133 126.825 515.76C127.379 515.376 127.769 514.864 127.993 514.224H130.233C130.051 515.013 129.71 515.712 129.209 516.32C128.707 516.928 128.083 517.403 127.337 517.744C126.59 518.075 125.769 518.24 124.873 518.24ZM131.893 510H133.877V511.424H134.165C134.368 510.944 134.699 510.565 135.157 510.288C135.627 510 136.149 509.856 136.725 509.856H136.853V512C136.629 511.968 136.405 511.952 136.181 511.952C135.499 511.952 134.944 512.149 134.517 512.544C134.101 512.928 133.893 513.515 133.893 514.304V518H131.893V510ZM141.68 518.24C140.869 518.24 140.154 518.064 139.536 517.712C138.917 517.36 138.437 516.864 138.096 516.224C137.754 515.584 137.584 514.837 137.584 513.984C137.584 513.152 137.76 512.416 138.112 511.776C138.464 511.136 138.949 510.64 139.568 510.288C140.197 509.936 140.906 509.76 141.696 509.76C142.506 509.76 143.205 509.947 143.792 510.32C144.389 510.693 144.842 511.205 145.152 511.856C145.472 512.507 145.632 513.243 145.632 514.064V514.416H139.536C139.578 515.067 139.802 515.584 140.208 515.968C140.613 516.341 141.104 516.528 141.68 516.528C142.565 516.528 143.152 516.235 143.44 515.648H145.488C145.274 516.416 144.821 517.04 144.128 517.52C143.434 518 142.618 518.24 141.68 518.24ZM143.68 513.088C143.605 512.565 143.381 512.155 143.008 511.856C142.634 511.547 142.192 511.392 141.68 511.392C141.146 511.392 140.682 511.541 140.288 511.84C139.904 512.139 139.664 512.555 139.568 513.088H143.68ZM149.587 518.24C148.798 518.24 148.137 518.016 147.603 517.568C147.07 517.12 146.803 516.528 146.803 515.792C146.803 514.96 147.075 514.352 147.619 513.968C148.163 513.584 148.905 513.344 149.843 513.248L152.195 513.008V512.56C152.195 512.208 152.057 511.925 151.779 511.712C151.513 511.499 151.134 511.392 150.643 511.392C150.185 511.392 149.817 511.488 149.539 511.68C149.262 511.861 149.075 512.112 148.979 512.432H147.059C147.155 511.643 147.518 511.003 148.147 510.512C148.777 510.011 149.609 509.76 150.643 509.76C151.689 509.76 152.515 510.011 153.123 510.512C153.742 511.013 154.051 511.739 154.051 512.688V516.592C154.051 516.859 154.057 517.12 154.067 517.376C154.089 517.621 154.11 517.819 154.131 517.968V518H152.211C152.201 517.819 152.195 517.552 152.195 517.2H151.907C151.481 517.893 150.707 518.24 149.587 518.24ZM148.819 515.696C148.819 516.016 148.937 516.272 149.171 516.464C149.417 516.645 149.737 516.736 150.131 516.736C150.547 516.736 150.91 516.645 151.219 516.464C151.539 516.272 151.779 516.021 151.939 515.712C152.11 515.403 152.195 515.077 152.195 514.736V514.336L150.435 514.544C149.881 514.608 149.47 514.731 149.203 514.912C148.947 515.093 148.819 515.355 148.819 515.696ZM158.127 518.064C157.711 518.064 157.381 517.936 157.135 517.68C156.901 517.424 156.783 517.077 156.783 516.64V511.52H155.311V510H156.815V507.84H158.719V510H160.607V511.52H158.751V515.984C158.751 516.155 158.789 516.283 158.863 516.368C158.938 516.443 159.071 516.48 159.263 516.48H160.607V518.064H158.127ZM165.649 518.24C164.838 518.24 164.123 518.064 163.505 517.712C162.886 517.36 162.406 516.864 162.065 516.224C161.723 515.584 161.553 514.837 161.553 513.984C161.553 513.152 161.729 512.416 162.081 511.776C162.433 511.136 162.918 510.64 163.537 510.288C164.166 509.936 164.875 509.76 165.665 509.76C166.475 509.76 167.174 509.947 167.761 510.32C168.358 510.693 168.811 511.205 169.121 511.856C169.441 512.507 169.601 513.243 169.601 514.064V514.416H163.505C163.547 515.067 163.771 515.584 164.177 515.968C164.582 516.341 165.073 516.528 165.649 516.528C166.534 516.528 167.121 516.235 167.409 515.648H169.457C169.243 516.416 168.79 517.04 168.097 517.52C167.403 518 166.587 518.24 165.649 518.24ZM167.649 513.088C167.574 512.565 167.35 512.155 166.977 511.856C166.603 511.547 166.161 511.392 165.649 511.392C165.115 511.392 164.651 511.541 164.257 511.84C163.873 512.139 163.633 512.555 163.537 513.088H167.649ZM177.103 518.24C176.314 518.24 175.652 518.016 175.119 517.568C174.586 517.12 174.319 516.528 174.319 515.792C174.319 514.96 174.591 514.352 175.135 513.968C175.679 513.584 176.42 513.344 177.359 513.248L179.711 513.008V512.56C179.711 512.208 179.572 511.925 179.295 511.712C179.028 511.499 178.65 511.392 178.159 511.392C177.7 511.392 177.332 511.488 177.055 511.68C176.778 511.861 176.591 512.112 176.495 512.432H174.575C174.671 511.643 175.034 511.003 175.663 510.512C176.292 510.011 177.124 509.76 178.159 509.76C179.204 509.76 180.031 510.011 180.639 510.512C181.258 511.013 181.567 511.739 181.567 512.688V516.592C181.567 516.859 181.572 517.12 181.583 517.376C181.604 517.621 181.626 517.819 181.647 517.968V518H179.727C179.716 517.819 179.711 517.552 179.711 517.2H179.423C178.996 517.893 178.223 518.24 177.103 518.24ZM176.335 515.696C176.335 516.016 176.452 516.272 176.687 516.464C176.932 516.645 177.252 516.736 177.647 516.736C178.063 516.736 178.426 516.645 178.735 516.464C179.055 516.272 179.295 516.021 179.455 515.712C179.626 515.403 179.711 515.077 179.711 514.736V514.336L177.951 514.544C177.396 514.608 176.986 514.731 176.719 514.912C176.463 515.093 176.335 515.355 176.335 515.696ZM183.722 510H185.722V510.944H186.01C186.255 510.549 186.564 510.256 186.938 510.064C187.311 509.861 187.727 509.76 188.186 509.76C188.996 509.76 189.642 510.021 190.122 510.544C190.612 511.056 190.858 511.755 190.858 512.64V518H188.858V513.264C188.858 512.773 188.735 512.373 188.49 512.064C188.244 511.744 187.866 511.584 187.354 511.584C186.852 511.584 186.452 511.749 186.154 512.08C185.866 512.4 185.722 512.795 185.722 513.264V518H183.722V510ZM198.837 518.24C198.048 518.24 197.387 518.016 196.853 517.568C196.32 517.12 196.053 516.528 196.053 515.792C196.053 514.96 196.325 514.352 196.869 513.968C197.413 513.584 198.155 513.344 199.093 513.248L201.445 513.008V512.56C201.445 512.208 201.307 511.925 201.029 511.712C200.763 511.499 200.384 511.392 199.893 511.392C199.435 511.392 199.067 511.488 198.789 511.68C198.512 511.861 198.325 512.112 198.229 512.432H196.309C196.405 511.643 196.768 511.003 197.397 510.512C198.027 510.011 198.859 509.76 199.893 509.76C200.939 509.76 201.765 510.011 202.373 510.512C202.992 511.013 203.301 511.739 203.301 512.688V516.592C203.301 516.859 203.307 517.12 203.317 517.376C203.339 517.621 203.36 517.819 203.381 517.968V518H201.461C201.451 517.819 201.445 517.552 201.445 517.2H201.157C200.731 517.893 199.957 518.24 198.837 518.24ZM198.069 515.696C198.069 516.016 198.187 516.272 198.421 516.464C198.667 516.645 198.987 516.736 199.381 516.736C199.797 516.736 200.16 516.645 200.469 516.464C200.789 516.272 201.029 516.021 201.189 515.712C201.36 515.403 201.445 515.077 201.445 514.736V514.336L199.685 514.544C199.131 514.608 198.72 514.731 198.453 514.912C198.197 515.093 198.069 515.355 198.069 515.696ZM209.024 518.24C208.245 518.24 207.541 518.059 206.912 517.696C206.283 517.333 205.787 516.832 205.424 516.192C205.072 515.552 204.896 514.821 204.896 514C204.896 513.179 205.072 512.448 205.424 511.808C205.787 511.168 206.283 510.667 206.912 510.304C207.541 509.941 208.245 509.76 209.024 509.76C210.027 509.76 210.88 510.043 211.584 510.608C212.299 511.173 212.747 511.925 212.928 512.864H210.944C210.805 512.459 210.571 512.144 210.24 511.92C209.92 511.685 209.52 511.568 209.04 511.568C208.421 511.568 207.915 511.792 207.52 512.24C207.136 512.677 206.944 513.259 206.944 513.984C206.944 514.731 207.136 515.328 207.52 515.776C207.915 516.213 208.421 516.432 209.04 516.432C209.531 516.432 209.941 516.315 210.272 516.08C210.603 515.835 210.843 515.499 210.992 515.072H212.976C212.816 516.011 212.373 516.773 211.648 517.36C210.933 517.947 210.059 518.24 209.024 518.24ZM218.086 518.24C217.308 518.24 216.604 518.059 215.974 517.696C215.345 517.333 214.849 516.832 214.486 516.192C214.134 515.552 213.958 514.821 213.958 514C213.958 513.179 214.134 512.448 214.486 511.808C214.849 511.168 215.345 510.667 215.974 510.304C216.604 509.941 217.308 509.76 218.086 509.76C219.089 509.76 219.942 510.043 220.646 510.608C221.361 511.173 221.809 511.925 221.99 512.864H220.006C219.868 512.459 219.633 512.144 219.302 511.92C218.982 511.685 218.582 511.568 218.102 511.568C217.484 511.568 216.977 511.792 216.582 512.24C216.198 512.677 216.006 513.259 216.006 513.984C216.006 514.731 216.198 515.328 216.582 515.776C216.977 516.213 217.484 516.432 218.102 516.432C218.593 516.432 219.004 516.315 219.334 516.08C219.665 515.835 219.905 515.499 220.054 515.072H222.038C221.878 516.011 221.436 516.773 220.71 517.36C219.996 517.947 219.121 518.24 218.086 518.24ZM227.197 518.24C226.408 518.24 225.693 518.059 225.053 517.696C224.424 517.333 223.928 516.832 223.565 516.192C223.202 515.541 223.021 514.811 223.021 514C223.021 513.189 223.202 512.464 223.565 511.824C223.928 511.173 224.424 510.667 225.053 510.304C225.693 509.941 226.408 509.76 227.197 509.76C227.976 509.76 228.685 509.941 229.325 510.304C229.965 510.667 230.466 511.173 230.829 511.824C231.192 512.464 231.373 513.189 231.373 514C231.373 514.811 231.192 515.541 230.829 516.192C230.466 516.832 229.965 517.333 229.325 517.696C228.685 518.059 227.976 518.24 227.197 518.24ZM227.197 516.432C227.816 516.432 228.322 516.208 228.717 515.76C229.122 515.312 229.325 514.725 229.325 514C229.325 513.275 229.122 512.688 228.717 512.24C228.322 511.792 227.816 511.568 227.197 511.568C226.568 511.568 226.056 511.792 225.661 512.24C225.266 512.688 225.069 513.275 225.069 514C225.069 514.725 225.266 515.312 225.661 515.76C226.056 516.208 226.568 516.432 227.197 516.432ZM236.474 518.24C235.375 518.24 234.511 517.936 233.882 517.328C233.252 516.709 232.938 515.851 232.938 514.752V510H234.938V514.704C234.938 515.216 235.066 515.632 235.322 515.952C235.588 516.272 235.972 516.432 236.474 516.432C236.975 516.432 237.354 516.272 237.61 515.952C237.866 515.632 237.994 515.216 237.994 514.704V510H239.994V514.752C239.994 515.851 239.679 516.709 239.05 517.328C238.431 517.936 237.572 518.24 236.474 518.24ZM242.128 510H244.128V510.944H244.416C244.661 510.549 244.97 510.256 245.344 510.064C245.717 509.861 246.133 509.76 246.592 509.76C247.402 509.76 248.048 510.021 248.528 510.544C249.018 511.056 249.264 511.755 249.264 512.64V518H247.264V513.264C247.264 512.773 247.141 512.373 246.896 512.064C246.65 511.744 246.272 511.584 245.76 511.584C245.258 511.584 244.858 511.749 244.56 512.08C244.272 512.4 244.128 512.795 244.128 513.264V518H242.128V510ZM253.362 518.064C252.946 518.064 252.615 517.936 252.37 517.68C252.135 517.424 252.018 517.077 252.018 516.64V511.52H250.546V510H252.05V507.84H253.954V510H255.842V511.52H253.986V515.984C253.986 516.155 254.023 516.283 254.098 516.368C254.172 516.443 254.306 516.48 254.498 516.48H255.842V518.064H253.362Z" fill="#0A0B0D"/>
</g>
<defs>
<clipPath id="clip0_2424_5090">
<rect width="375" height="564" rx="30" fill="white"/>
</clipPath>
</defs>
</svg>