<svg width="375" height="304" viewBox="0 0 375 304" fill="none" xmlns="http://www.w3.org/2000/svg">
<rect width="375" height="304" rx="30" fill="white"/>
<path d="M28.92 33.54H24.28V31.2H36.2V33.54H31.54V45H28.92V33.54ZM40.1153 45.3C39.1286 45.3 38.2353 45.0733 37.4353 44.62C36.6486 44.1667 36.0286 43.54 35.5753 42.74C35.122 41.9267 34.8953 41.0133 34.8953 40C34.8953 38.9867 35.122 38.08 35.5753 37.28C36.0286 36.4667 36.6486 35.8333 37.4353 35.38C38.2353 34.9267 39.1286 34.7 40.1153 34.7C41.0886 34.7 41.9753 34.9267 42.7753 35.38C43.5753 35.8333 44.202 36.4667 44.6553 37.28C45.1086 38.08 45.3353 38.9867 45.3353 40C45.3353 41.0133 45.1086 41.9267 44.6553 42.74C44.202 43.54 43.5753 44.1667 42.7753 44.62C41.9753 45.0733 41.0886 45.3 40.1153 45.3ZM40.1153 43.04C40.8886 43.04 41.522 42.76 42.0153 42.2C42.522 41.64 42.7753 40.9067 42.7753 40C42.7753 39.0933 42.522 38.36 42.0153 37.8C41.522 37.24 40.8886 36.96 40.1153 36.96C39.3286 36.96 38.6886 37.24 38.1953 37.8C37.702 38.36 37.4553 39.0933 37.4553 40C37.4553 40.9067 37.702 41.64 38.1953 42.2C38.6886 42.76 39.3286 43.04 40.1153 43.04ZM53.1913 34.7C54.0846 34.7 54.8713 34.92 55.5513 35.36C56.2313 35.8 56.7579 36.42 57.1313 37.22C57.5179 38.0067 57.7113 38.9 57.7113 39.9C57.7113 40.9133 57.5046 41.8333 57.0913 42.66C56.6913 43.4867 56.1379 44.1333 55.4313 44.6C54.7246 45.0667 53.9313 45.3 53.0513 45.3C52.4646 45.3 51.9246 45.18 51.4313 44.94C50.9513 44.7 50.5646 44.3133 50.2713 43.78H49.9113V48.8H47.4313V35H49.9113V36.16H50.2713C50.5779 35.6667 50.9913 35.3 51.5113 35.06C52.0446 34.82 52.6046 34.7 53.1913 34.7ZM52.5113 36.94C51.7513 36.94 51.1246 37.22 50.6313 37.78C50.1513 38.34 49.9113 39.08 49.9113 40C49.9113 40.92 50.1513 41.66 50.6313 42.22C51.1246 42.78 51.7513 43.06 52.5113 43.06C53.2846 43.06 53.9179 42.7733 54.4113 42.2C54.9046 41.6267 55.1513 40.8933 55.1513 40C55.1513 39.1067 54.8979 38.3733 54.3913 37.8C53.8979 37.2267 53.2713 36.94 52.5113 36.94ZM68.5472 45.3C67.1739 45.3 66.0939 44.92 65.3072 44.16C64.5205 43.3867 64.1272 42.3133 64.1272 40.94V35H66.6272V40.88C66.6272 41.52 66.7872 42.04 67.1072 42.44C67.4405 42.84 67.9205 43.04 68.5472 43.04C69.1739 43.04 69.6472 42.84 69.9672 42.44C70.2872 42.04 70.4472 41.52 70.4472 40.88V35H72.9472V40.94C72.9472 42.3133 72.5539 43.3867 71.7672 44.16C70.9939 44.92 69.9205 45.3 68.5472 45.3ZM81.3748 34.7C82.2682 34.7 83.0548 34.92 83.7348 35.36C84.4148 35.8 84.9415 36.42 85.3148 37.22C85.7015 38.0067 85.8948 38.9 85.8948 39.9C85.8948 40.9133 85.6882 41.8333 85.2748 42.66C84.8748 43.4867 84.3215 44.1333 83.6148 44.6C82.9082 45.0667 82.1148 45.3 81.2348 45.3C80.6482 45.3 80.1082 45.18 79.6148 44.94C79.1348 44.7 78.7482 44.3133 78.4548 43.78H78.0948V48.8H75.6148V35H78.0948V36.16H78.4548C78.7615 35.6667 79.1748 35.3 79.6948 35.06C80.2282 34.82 80.7882 34.7 81.3748 34.7ZM80.6948 36.94C79.9348 36.94 79.3082 37.22 78.8148 37.78C78.3348 38.34 78.0948 39.08 78.0948 40C78.0948 40.92 78.3348 41.66 78.8148 42.22C79.3082 42.78 79.9348 43.06 80.6948 43.06C81.4682 43.06 82.1015 42.7733 82.5948 42.2C83.0882 41.6267 83.3348 40.8933 83.3348 40C83.3348 39.1067 83.0815 38.3733 82.5748 37.8C82.0815 37.2267 81.4548 36.94 80.6948 36.94ZM91.3988 46.8H93.2188C93.5388 46.8 93.7921 46.7267 93.9788 46.58C94.1788 46.4333 94.3321 46.1933 94.4388 45.86L94.6388 45.28L90.8188 35H93.4188L95.6588 41.96H96.0188L98.2188 35H100.819L96.3188 46.92C96.0788 47.5867 95.7521 48.0667 95.3388 48.36C94.9254 48.6533 94.3388 48.8 93.5788 48.8H91.3988V46.8ZM106.6 45.3C105.613 45.3 104.72 45.0733 103.92 44.62C103.133 44.1667 102.513 43.54 102.06 42.74C101.606 41.9267 101.38 41.0133 101.38 40C101.38 38.9867 101.606 38.08 102.06 37.28C102.513 36.4667 103.133 35.8333 103.92 35.38C104.72 34.9267 105.613 34.7 106.6 34.7C107.573 34.7 108.46 34.9267 109.26 35.38C110.06 35.8333 110.686 36.4667 111.14 37.28C111.593 38.08 111.82 38.9867 111.82 40C111.82 41.0133 111.593 41.9267 111.14 42.74C110.686 43.54 110.06 44.1667 109.26 44.62C108.46 45.0733 107.573 45.3 106.6 45.3ZM106.6 43.04C107.373 43.04 108.006 42.76 108.5 42.2C109.006 41.64 109.26 40.9067 109.26 40C109.26 39.0933 109.006 38.36 108.5 37.8C108.006 37.24 107.373 36.96 106.6 36.96C105.813 36.96 105.173 37.24 104.68 37.8C104.186 38.36 103.94 39.0933 103.94 40C103.94 40.9067 104.186 41.64 104.68 42.2C105.173 42.76 105.813 43.04 106.6 43.04ZM118.196 45.3C116.822 45.3 115.742 44.92 114.956 44.16C114.169 43.3867 113.776 42.3133 113.776 40.94V35H116.276V40.88C116.276 41.52 116.436 42.04 116.756 42.44C117.089 42.84 117.569 43.04 118.196 43.04C118.822 43.04 119.296 42.84 119.616 42.44C119.936 42.04 120.096 41.52 120.096 40.88V35H122.596V40.94C122.596 42.3133 122.202 43.3867 121.416 44.16C120.642 44.92 119.569 45.3 118.196 45.3ZM125.263 35H127.743V36.78H128.103C128.357 36.18 128.77 35.7067 129.343 35.36C129.93 35 130.583 34.82 131.303 34.82H131.463V37.5C131.183 37.46 130.903 37.44 130.623 37.44C129.77 37.44 129.077 37.6867 128.543 38.18C128.023 38.66 127.763 39.3933 127.763 40.38V45H125.263V35ZM142.895 45.3C142.309 45.3 141.769 45.1867 141.275 44.96C140.795 44.72 140.409 44.3467 140.115 43.84H139.755V45H137.255V31.2H139.755V36.22H140.115C140.422 35.7 140.835 35.32 141.355 35.08C141.889 34.8267 142.449 34.7 143.035 34.7C143.929 34.7 144.715 34.92 145.395 35.36C146.075 35.8 146.602 36.42 146.975 37.22C147.362 38.0067 147.555 38.9 147.555 39.9C147.555 40.9133 147.349 41.8333 146.935 42.66C146.535 43.4867 145.982 44.1333 145.275 44.6C144.569 45.0667 143.775 45.3 142.895 45.3ZM142.355 43.06C143.129 43.06 143.762 42.7733 144.255 42.2C144.749 41.6267 144.995 40.8933 144.995 40C144.995 39.1067 144.742 38.3733 144.235 37.8C143.742 37.2267 143.115 36.94 142.355 36.94C141.595 36.94 140.969 37.22 140.475 37.78C139.995 38.34 139.755 39.08 139.755 40C139.755 40.92 139.995 41.66 140.475 42.22C140.969 42.78 141.595 43.06 142.355 43.06ZM152.517 45.3C151.531 45.3 150.704 45.02 150.037 44.46C149.371 43.9 149.037 43.16 149.037 42.24C149.037 41.2 149.377 40.44 150.057 39.96C150.737 39.48 151.664 39.18 152.837 39.06L155.777 38.76V38.2C155.777 37.76 155.604 37.4067 155.257 37.14C154.924 36.8733 154.451 36.74 153.837 36.74C153.264 36.74 152.804 36.86 152.457 37.1C152.111 37.3267 151.877 37.64 151.757 38.04H149.357C149.477 37.0533 149.931 36.2533 150.717 35.64C151.504 35.0133 152.544 34.7 153.837 34.7C155.144 34.7 156.177 35.0133 156.937 35.64C157.711 36.2667 158.097 37.1733 158.097 38.36V43.24C158.097 43.5733 158.104 43.9 158.117 44.22C158.144 44.5267 158.171 44.7733 158.197 44.96V45H155.797C155.784 44.7733 155.777 44.44 155.777 44H155.417C154.884 44.8667 153.917 45.3 152.517 45.3ZM151.557 42.12C151.557 42.52 151.704 42.84 151.997 43.08C152.304 43.3067 152.704 43.42 153.197 43.42C153.717 43.42 154.171 43.3067 154.557 43.08C154.957 42.84 155.257 42.5267 155.457 42.14C155.671 41.7533 155.777 41.3467 155.777 40.92V40.42L153.577 40.68C152.884 40.76 152.371 40.9133 152.037 41.14C151.717 41.3667 151.557 41.6933 151.557 42.12ZM160.791 31.2H163.291V45H160.791V31.2ZM168.924 45.3C167.937 45.3 167.11 45.02 166.444 44.46C165.777 43.9 165.444 43.16 165.444 42.24C165.444 41.2 165.784 40.44 166.464 39.96C167.144 39.48 168.07 39.18 169.244 39.06L172.184 38.76V38.2C172.184 37.76 172.01 37.4067 171.664 37.14C171.33 36.8733 170.857 36.74 170.244 36.74C169.67 36.74 169.21 36.86 168.864 37.1C168.517 37.3267 168.284 37.64 168.164 38.04H165.764C165.884 37.0533 166.337 36.2533 167.124 35.64C167.91 35.0133 168.95 34.7 170.244 34.7C171.55 34.7 172.584 35.0133 173.344 35.64C174.117 36.2667 174.504 37.1733 174.504 38.36V43.24C174.504 43.5733 174.51 43.9 174.524 44.22C174.55 44.5267 174.577 44.7733 174.604 44.96V45H172.204C172.19 44.7733 172.184 44.44 172.184 44H171.824C171.29 44.8667 170.324 45.3 168.924 45.3ZM167.964 42.12C167.964 42.52 168.11 42.84 168.404 43.08C168.71 43.3067 169.11 43.42 169.604 43.42C170.124 43.42 170.577 43.3067 170.964 43.08C171.364 42.84 171.664 42.5267 171.864 42.14C172.077 41.7533 172.184 41.3467 172.184 40.92V40.42L169.984 40.68C169.29 40.76 168.777 40.9133 168.444 41.14C168.124 41.3667 167.964 41.6933 167.964 42.12ZM177.197 35H179.697V36.18H180.057C180.364 35.6867 180.75 35.32 181.217 35.08C181.684 34.8267 182.204 34.7 182.777 34.7C183.79 34.7 184.597 35.0267 185.197 35.68C185.81 36.32 186.117 37.1933 186.117 38.3V45H183.617V39.08C183.617 38.4667 183.464 37.9667 183.157 37.58C182.85 37.18 182.377 36.98 181.737 36.98C181.11 36.98 180.61 37.1867 180.237 37.6C179.877 38 179.697 38.4933 179.697 39.08V45H177.197V35ZM193.278 45.3C192.305 45.3 191.425 45.0733 190.638 44.62C189.851 44.1667 189.231 43.54 188.778 42.74C188.338 41.94 188.118 41.0267 188.118 40C188.118 38.9733 188.338 38.06 188.778 37.26C189.231 36.46 189.851 35.8333 190.638 35.38C191.425 34.9267 192.305 34.7 193.278 34.7C194.531 34.7 195.598 35.0533 196.478 35.76C197.371 36.4667 197.931 37.4067 198.158 38.58H195.678C195.505 38.0733 195.211 37.68 194.798 37.4C194.398 37.1067 193.898 36.96 193.298 36.96C192.525 36.96 191.891 37.24 191.398 37.8C190.918 38.3467 190.678 39.0733 190.678 39.98C190.678 40.9133 190.918 41.66 191.398 42.22C191.891 42.7667 192.525 43.04 193.298 43.04C193.911 43.04 194.425 42.8933 194.838 42.6C195.251 42.2933 195.551 41.8733 195.738 41.34H198.218C198.018 42.5133 197.465 43.4667 196.558 44.2C195.665 44.9333 194.571 45.3 193.278 45.3ZM204.586 45.3C203.573 45.3 202.679 45.08 201.906 44.64C201.133 44.2 200.533 43.58 200.106 42.78C199.679 41.98 199.466 41.0467 199.466 39.98C199.466 38.94 199.686 38.02 200.126 37.22C200.566 36.42 201.173 35.8 201.946 35.36C202.733 34.92 203.619 34.7 204.606 34.7C205.619 34.7 206.493 34.9333 207.226 35.4C207.973 35.8667 208.539 36.5067 208.926 37.32C209.326 38.1333 209.526 39.0533 209.526 40.08V40.52H201.906C201.959 41.3333 202.239 41.98 202.746 42.46C203.253 42.9267 203.866 43.16 204.586 43.16C205.693 43.16 206.426 42.7933 206.786 42.06H209.346C209.079 43.02 208.513 43.8 207.646 44.4C206.779 45 205.759 45.3 204.586 45.3ZM207.086 38.86C206.993 38.2067 206.713 37.6933 206.246 37.32C205.779 36.9333 205.226 36.74 204.586 36.74C203.919 36.74 203.339 36.9267 202.846 37.3C202.366 37.6733 202.066 38.1933 201.946 38.86H207.086Z" fill="black"/>
<path d="M27.952 62.96H30.448L34.16 74H32.384L31.488 71.2H26.784L25.856 74H24.144L27.952 62.96ZM31.008 69.76L29.312 64.48H29.024L27.264 69.76H31.008ZM38.5391 74.24C37.8138 74.24 37.1685 74.064 36.6031 73.712C36.0485 73.3493 35.6111 72.8533 35.2911 72.224C34.9818 71.584 34.8271 70.864 34.8271 70.064C34.8271 69.2533 34.9925 68.5227 35.3231 67.872C35.6538 67.2107 36.1071 66.6933 36.6831 66.32C37.2591 65.9467 37.9045 65.76 38.6191 65.76C39.1631 65.76 39.6538 65.8773 40.0911 66.112C40.5285 66.3467 40.8645 66.6933 41.0991 67.152H41.3551V62.96H42.9871V74H41.3551V72.864H41.0991C40.8538 73.312 40.5018 73.6533 40.0431 73.888C39.5845 74.1227 39.0831 74.24 38.5391 74.24ZM38.9391 72.784C39.3978 72.784 39.8085 72.6667 40.1711 72.432C40.5445 72.1973 40.8378 71.872 41.0511 71.456C41.2645 71.0293 41.3711 70.544 41.3711 70C41.3711 69.456 41.2645 68.976 41.0511 68.56C40.8378 68.1333 40.5445 67.8027 40.1711 67.568C39.8085 67.3333 39.3978 67.216 38.9391 67.216C38.2245 67.216 37.6378 67.4827 37.1791 68.016C36.7311 68.5387 36.5071 69.2 36.5071 70C36.5071 70.5227 36.6085 70.9973 36.8111 71.424C37.0245 71.8507 37.3125 72.1867 37.6751 72.432C38.0485 72.6667 38.4698 72.784 38.9391 72.784ZM48.5391 74.24C47.8138 74.24 47.1685 74.064 46.6031 73.712C46.0485 73.3493 45.6111 72.8533 45.2911 72.224C44.9818 71.584 44.8271 70.864 44.8271 70.064C44.8271 69.2533 44.9925 68.5227 45.3231 67.872C45.6538 67.2107 46.1071 66.6933 46.6831 66.32C47.2591 65.9467 47.9045 65.76 48.6191 65.76C49.1631 65.76 49.6538 65.8773 50.0911 66.112C50.5285 66.3467 50.8645 66.6933 51.0991 67.152H51.3551V62.96H52.9871V74H51.3551V72.864H51.0991C50.8538 73.312 50.5018 73.6533 50.0431 73.888C49.5845 74.1227 49.0831 74.24 48.5391 74.24ZM48.9391 72.784C49.3978 72.784 49.8085 72.6667 50.1711 72.432C50.5445 72.1973 50.8378 71.872 51.0511 71.456C51.2645 71.0293 51.3711 70.544 51.3711 70C51.3711 69.456 51.2645 68.976 51.0511 68.56C50.8378 68.1333 50.5445 67.8027 50.1711 67.568C49.8085 67.3333 49.3978 67.216 48.9391 67.216C48.2245 67.216 47.6378 67.4827 47.1791 68.016C46.7311 68.5387 46.5071 69.2 46.5071 70C46.5071 70.5227 46.6085 70.9973 46.8111 71.424C47.0245 71.8507 47.3125 72.1867 47.6751 72.432C48.0485 72.6667 48.4698 72.784 48.9391 72.784ZM61.4095 74.24C60.6095 74.24 59.9428 74.0213 59.4095 73.584C58.8762 73.136 58.6095 72.544 58.6095 71.808C58.6095 70.9867 58.8922 70.3893 59.4575 70.016C60.0228 69.632 60.7908 69.392 61.7615 69.296L64.1295 69.04V68.608C64.1295 68.1493 63.9748 67.7867 63.6655 67.52C63.3562 67.2427 62.9242 67.104 62.3695 67.104C61.8575 67.104 61.4362 67.216 61.1055 67.44C60.7748 67.664 60.5615 67.984 60.4655 68.4H58.8975C58.9935 67.6213 59.3508 66.9867 59.9695 66.496C60.5882 66.0053 61.3882 65.76 62.3695 65.76C63.4042 65.76 64.2095 66.016 64.7855 66.528C65.3722 67.0293 65.6655 67.7493 65.6655 68.688V72.592C65.6655 72.8587 65.6708 73.12 65.6815 73.376C65.7028 73.6213 65.7242 73.8187 65.7455 73.968V74H64.1455C64.1348 73.8187 64.1295 73.5093 64.1295 73.072H63.8575C63.6335 73.4667 63.3082 73.76 62.8815 73.952C62.4548 74.144 61.9642 74.24 61.4095 74.24ZM60.2735 71.712C60.2735 72.1067 60.4175 72.4213 60.7055 72.656C60.9935 72.88 61.3668 72.992 61.8255 72.992C62.2948 72.992 62.7002 72.8907 63.0415 72.688C63.3935 72.4747 63.6602 72.2027 63.8415 71.872C64.0335 71.5413 64.1295 71.1947 64.1295 70.832V70.16L62.2895 70.384C61.6175 70.4587 61.1108 70.5973 60.7695 70.8C60.4388 71.0027 60.2735 71.3067 60.2735 71.712ZM67.9973 66H69.6293V67.024H69.9013C70.1466 66.608 70.4666 66.2933 70.8613 66.08C71.2666 65.8667 71.7146 65.76 72.2053 65.76C73.0373 65.76 73.6986 66.0267 74.1893 66.56C74.6799 67.0827 74.9253 67.792 74.9253 68.688V74H73.2933V69.184C73.2933 68.608 73.1493 68.144 72.8613 67.792C72.5733 67.4293 72.1413 67.248 71.5653 67.248C70.9893 67.248 70.5199 67.44 70.1573 67.824C69.8053 68.1973 69.6293 68.6507 69.6293 69.184V74H67.9973V66ZM83.2533 74.24C82.4533 74.24 81.7866 74.0213 81.2533 73.584C80.7199 73.136 80.4533 72.544 80.4533 71.808C80.4533 70.9867 80.7359 70.3893 81.3013 70.016C81.8666 69.632 82.6346 69.392 83.6053 69.296L85.9733 69.04V68.608C85.9733 68.1493 85.8186 67.7867 85.5093 67.52C85.1999 67.2427 84.7679 67.104 84.2133 67.104C83.7013 67.104 83.2799 67.216 82.9493 67.44C82.6186 67.664 82.4053 67.984 82.3093 68.4H80.7413C80.8373 67.6213 81.1946 66.9867 81.8133 66.496C82.4319 66.0053 83.2319 65.76 84.2133 65.76C85.2479 65.76 86.0533 66.016 86.6293 66.528C87.2159 67.0293 87.5093 67.7493 87.5093 68.688V72.592C87.5093 72.8587 87.5146 73.12 87.5253 73.376C87.5466 73.6213 87.5679 73.8187 87.5893 73.968V74H85.9893C85.9786 73.8187 85.9733 73.5093 85.9733 73.072H85.7013C85.4773 73.4667 85.1519 73.76 84.7253 73.952C84.2986 74.144 83.8079 74.24 83.2533 74.24ZM82.1173 71.712C82.1173 72.1067 82.2613 72.4213 82.5493 72.656C82.8373 72.88 83.2106 72.992 83.6693 72.992C84.1386 72.992 84.5439 72.8907 84.8853 72.688C85.2373 72.4747 85.5039 72.2027 85.6853 71.872C85.8773 71.5413 85.9733 71.1947 85.9733 70.832V70.16L84.1333 70.384C83.4613 70.4587 82.9546 70.5973 82.6133 70.8C82.2826 71.0027 82.1173 71.3067 82.1173 71.712ZM92.961 74.24C92.2357 74.24 91.5903 74.064 91.025 73.712C90.4703 73.3493 90.033 72.8533 89.713 72.224C89.4037 71.584 89.249 70.864 89.249 70.064C89.249 69.2533 89.4143 68.5227 89.745 67.872C90.0757 67.2107 90.529 66.6933 91.105 66.32C91.681 65.9467 92.3263 65.76 93.041 65.76C93.585 65.76 94.0757 65.8773 94.513 66.112C94.9503 66.3467 95.2863 66.6933 95.521 67.152H95.777V62.96H97.409V74H95.777V72.864H95.521C95.2757 73.312 94.9237 73.6533 94.465 73.888C94.0063 74.1227 93.505 74.24 92.961 74.24ZM93.361 72.784C93.8197 72.784 94.2303 72.6667 94.593 72.432C94.9663 72.1973 95.2597 71.872 95.473 71.456C95.6863 71.0293 95.793 70.544 95.793 70C95.793 69.456 95.6863 68.976 95.473 68.56C95.2597 68.1333 94.9663 67.8027 94.593 67.568C94.2303 67.3333 93.8197 67.216 93.361 67.216C92.6463 67.216 92.0597 67.4827 91.601 68.016C91.153 68.5387 90.929 69.2 90.929 70C90.929 70.5227 91.0303 70.9973 91.233 71.424C91.4463 71.8507 91.7343 72.1867 92.097 72.432C92.4703 72.6667 92.8917 72.784 93.361 72.784ZM102.961 74.24C102.236 74.24 101.59 74.064 101.025 73.712C100.47 73.3493 100.033 72.8533 99.713 72.224C99.4037 71.584 99.249 70.864 99.249 70.064C99.249 69.2533 99.4143 68.5227 99.745 67.872C100.076 67.2107 100.529 66.6933 101.105 66.32C101.681 65.9467 102.326 65.76 103.041 65.76C103.585 65.76 104.076 65.8773 104.513 66.112C104.95 66.3467 105.286 66.6933 105.521 67.152H105.777V62.96H107.409V74H105.777V72.864H105.521C105.276 73.312 104.924 73.6533 104.465 73.888C104.006 74.1227 103.505 74.24 102.961 74.24ZM103.361 72.784C103.82 72.784 104.23 72.6667 104.593 72.432C104.966 72.1973 105.26 71.872 105.473 71.456C105.686 71.0293 105.793 70.544 105.793 70C105.793 69.456 105.686 68.976 105.473 68.56C105.26 68.1333 104.966 67.8027 104.593 67.568C104.23 67.3333 103.82 67.216 103.361 67.216C102.646 67.216 102.06 67.4827 101.601 68.016C101.153 68.5387 100.929 69.2 100.929 70C100.929 70.5227 101.03 70.9973 101.233 71.424C101.446 71.8507 101.734 72.1867 102.097 72.432C102.47 72.6667 102.892 72.784 103.361 72.784ZM109.841 66H111.473V74H109.841V66ZM109.825 62.96H111.489V64.704H109.825V62.96ZM115.76 74.064C115.344 74.064 115.018 73.9467 114.784 73.712C114.56 73.4667 114.448 73.1307 114.448 72.704V67.248H112.944V66H114.48V63.84H116.032V66H118V67.248H116.048V72.208C116.048 72.4107 116.09 72.5547 116.176 72.64C116.272 72.7253 116.421 72.768 116.624 72.768H118V74.064H115.76ZM119.716 66H121.348V74H119.716V66ZM119.7 62.96H121.364V64.704H119.7V62.96ZM127.331 74.24C126.541 74.24 125.827 74.0587 125.187 73.696C124.557 73.3227 124.061 72.816 123.699 72.176C123.347 71.5253 123.171 70.8 123.171 70C123.171 69.2 123.347 68.48 123.699 67.84C124.061 67.1893 124.557 66.6827 125.187 66.32C125.827 65.9467 126.541 65.76 127.331 65.76C128.12 65.76 128.829 65.9467 129.459 66.32C130.088 66.6827 130.584 67.1893 130.947 67.84C131.309 68.48 131.491 69.2 131.491 70C131.491 70.8 131.309 71.5253 130.947 72.176C130.584 72.816 130.088 73.3227 129.459 73.696C128.829 74.0587 128.12 74.24 127.331 74.24ZM127.331 72.768C127.8 72.768 128.221 72.6507 128.595 72.416C128.979 72.1813 129.277 71.856 129.491 71.44C129.704 71.0133 129.811 70.5333 129.811 70C129.811 69.4667 129.704 68.992 129.491 68.576C129.277 68.1493 128.979 67.8187 128.595 67.584C128.221 67.3493 127.8 67.232 127.331 67.232C126.595 67.232 125.997 67.4933 125.539 68.016C125.08 68.528 124.851 69.1893 124.851 70C124.851 70.8107 125.08 71.4773 125.539 72C125.997 72.512 126.595 72.768 127.331 72.768ZM133.31 66H134.942V67.024H135.214C135.459 66.608 135.779 66.2933 136.174 66.08C136.579 65.8667 137.027 65.76 137.518 65.76C138.35 65.76 139.011 66.0267 139.502 66.56C139.992 67.0827 140.238 67.792 140.238 68.688V74H138.606V69.184C138.606 68.608 138.462 68.144 138.174 67.792C137.886 67.4293 137.454 67.248 136.878 67.248C136.302 67.248 135.832 67.44 135.47 67.824C135.118 68.1973 134.942 68.6507 134.942 69.184V74H133.31V66ZM144.831 74.24C144.031 74.24 143.365 74.0213 142.831 73.584C142.298 73.136 142.031 72.544 142.031 71.808C142.031 70.9867 142.314 70.3893 142.879 70.016C143.445 69.632 144.213 69.392 145.183 69.296L147.551 69.04V68.608C147.551 68.1493 147.397 67.7867 147.087 67.52C146.778 67.2427 146.346 67.104 145.791 67.104C145.279 67.104 144.858 67.216 144.527 67.44C144.197 67.664 143.983 67.984 143.887 68.4H142.319C142.415 67.6213 142.773 66.9867 143.391 66.496C144.01 66.0053 144.81 65.76 145.791 65.76C146.826 65.76 147.631 66.016 148.207 66.528C148.794 67.0293 149.087 67.7493 149.087 68.688V72.592C149.087 72.8587 149.093 73.12 149.103 73.376C149.125 73.6213 149.146 73.8187 149.167 73.968V74H147.567C147.557 73.8187 147.551 73.5093 147.551 73.072H147.279C147.055 73.4667 146.73 73.76 146.303 73.952C145.877 74.144 145.386 74.24 144.831 74.24ZM143.695 71.712C143.695 72.1067 143.839 72.4213 144.127 72.656C144.415 72.88 144.789 72.992 145.247 72.992C145.717 72.992 146.122 72.8907 146.463 72.688C146.815 72.4747 147.082 72.2027 147.263 71.872C147.455 71.5413 147.551 71.1947 147.551 70.832V70.16L145.711 70.384C145.039 70.4587 144.533 70.5973 144.191 70.8C143.861 71.0027 143.695 71.3067 143.695 71.712ZM151.419 62.96H153.051V74H151.419V62.96ZM162.784 74.24C161.717 74.24 160.837 73.9627 160.144 73.408C159.461 72.8533 159.035 72.112 158.864 71.184H160.624C160.752 71.6427 161.003 72.016 161.376 72.304C161.749 72.592 162.224 72.736 162.8 72.736C163.451 72.736 163.973 72.5227 164.368 72.096C164.773 71.6693 164.976 71.1253 164.976 70.464C164.976 69.8027 164.784 69.2587 164.4 68.832C164.016 68.4053 163.488 68.192 162.816 68.192C162.24 68.192 161.771 68.3467 161.408 68.656C161.045 68.9547 160.805 69.3067 160.688 69.712L159.008 69.648L159.328 63.2H165.872V64.72H160.72L160.56 68H160.816C161.051 67.6267 161.381 67.328 161.808 67.104C162.235 66.8693 162.736 66.752 163.312 66.752C163.984 66.752 164.576 66.912 165.088 67.232C165.6 67.552 165.995 67.9947 166.272 68.56C166.549 69.1147 166.688 69.744 166.688 70.448C166.688 71.1733 166.517 71.824 166.176 72.4C165.845 72.976 165.381 73.4293 164.784 73.76C164.187 74.08 163.52 74.24 162.784 74.24ZM172.351 74.24C171.477 74.24 170.719 74 170.079 73.52C169.45 73.0293 168.97 72.3573 168.639 71.504C168.319 70.6507 168.159 69.68 168.159 68.592C168.159 67.504 168.319 66.5333 168.639 65.68C168.97 64.8267 169.45 64.16 170.079 63.68C170.709 63.2 171.466 62.96 172.351 62.96C173.226 62.96 173.978 63.2 174.607 63.68C175.237 64.16 175.711 64.8267 176.031 65.68C176.362 66.5227 176.527 67.4933 176.527 68.592C176.527 69.6907 176.362 70.6667 176.031 71.52C175.711 72.3627 175.237 73.0293 174.607 73.52C173.978 74 173.226 74.24 172.351 74.24ZM172.351 72.752C173.162 72.752 173.77 72.384 174.175 71.648C174.581 70.9013 174.783 69.8827 174.783 68.592C174.783 67.312 174.581 66.304 174.175 65.568C173.77 64.8213 173.162 64.448 172.351 64.448C171.541 64.448 170.927 64.8213 170.511 65.568C170.106 66.304 169.903 67.312 169.903 68.592C169.903 69.872 170.106 70.8853 170.511 71.632C170.927 72.3787 171.541 72.752 172.351 72.752ZM182.32 74.24C181.445 74.24 180.688 74 180.048 73.52C179.419 73.0293 178.939 72.3573 178.608 71.504C178.288 70.6507 178.128 69.68 178.128 68.592C178.128 67.504 178.288 66.5333 178.608 65.68C178.939 64.8267 179.419 64.16 180.048 63.68C180.677 63.2 181.435 62.96 182.32 62.96C183.195 62.96 183.947 63.2 184.576 63.68C185.205 64.16 185.68 64.8267 186 65.68C186.331 66.5227 186.496 67.4933 186.496 68.592C186.496 69.6907 186.331 70.6667 186 71.52C185.68 72.3627 185.205 73.0293 184.576 73.52C183.947 74 183.195 74.24 182.32 74.24ZM182.32 72.752C183.131 72.752 183.739 72.384 184.144 71.648C184.549 70.9013 184.752 69.8827 184.752 68.592C184.752 67.312 184.549 66.304 184.144 65.568C183.739 64.8213 183.131 64.448 182.32 64.448C181.509 64.448 180.896 64.8213 180.48 65.568C180.075 66.304 179.872 67.312 179.872 68.592C179.872 69.872 180.075 70.8853 180.48 71.632C180.896 72.3787 181.509 72.752 182.32 72.752ZM196.711 74.24C195.346 74.24 194.269 73.84 193.479 73.04C192.69 72.24 192.295 71.136 192.295 69.728V62.96H194.007V69.568C194.007 70.5067 194.231 71.264 194.679 71.84C195.138 72.4053 195.81 72.688 196.695 72.688C197.581 72.688 198.247 72.4053 198.695 71.84C199.154 71.264 199.383 70.5067 199.383 69.568V62.96H201.095V69.728C201.095 71.136 200.706 72.24 199.927 73.04C199.149 73.84 198.077 74.24 196.711 74.24ZM207.351 74.24C206.103 74.24 205.085 73.9467 204.295 73.36C203.517 72.7627 203.047 71.9787 202.887 71.008H204.615C204.797 71.616 205.133 72.064 205.623 72.352C206.114 72.6293 206.69 72.768 207.351 72.768C208.023 72.768 208.573 72.6133 208.999 72.304C209.426 71.984 209.639 71.5787 209.639 71.088C209.639 70.5867 209.469 70.2027 209.127 69.936C208.797 69.6693 208.253 69.4507 207.495 69.28L206.183 68.976C205.33 68.784 204.631 68.448 204.087 67.968C203.543 67.4773 203.271 66.8 203.271 65.936C203.271 65.328 203.431 64.784 203.751 64.304C204.082 63.8133 204.541 63.4293 205.127 63.152C205.714 62.864 206.381 62.72 207.127 62.72C208.258 62.72 209.165 62.992 209.847 63.536C210.53 64.08 210.973 64.8373 211.175 65.808H209.463C209.133 64.72 208.359 64.176 207.143 64.176C206.471 64.176 205.943 64.3307 205.559 64.64C205.175 64.9387 204.983 65.3227 204.983 65.792C204.983 66.2507 205.143 66.6027 205.463 66.848C205.783 67.0933 206.301 67.3013 207.015 67.472L208.311 67.792C209.239 68.0053 209.981 68.352 210.535 68.832C211.101 69.312 211.383 70.0107 211.383 70.928C211.383 71.568 211.213 72.1387 210.871 72.64C210.541 73.1413 210.071 73.536 209.463 73.824C208.855 74.1013 208.151 74.24 207.351 74.24ZM213.439 62.96H217.455C218.596 62.96 219.578 63.1893 220.399 63.648C221.231 64.1067 221.866 64.7467 222.303 65.568C222.74 66.3893 222.959 67.328 222.959 68.384C222.959 69.4507 222.74 70.4107 222.303 71.264C221.866 72.1067 221.231 72.7733 220.399 73.264C219.567 73.7547 218.586 74 217.455 74H213.439V62.96ZM217.151 72.496C218.431 72.496 219.423 72.128 220.127 71.392C220.831 70.6453 221.183 69.648 221.183 68.4C221.183 67.152 220.831 66.1867 220.127 65.504C219.434 64.8107 218.442 64.464 217.151 64.464H215.135V72.496H217.151ZM229.944 74.24C228.898 74.24 227.954 73.9947 227.112 73.504C226.269 73.0133 225.602 72.3307 225.112 71.456C224.632 70.5813 224.392 69.5947 224.392 68.496C224.392 67.408 224.632 66.4267 225.112 65.552C225.602 64.6667 226.269 63.9733 227.112 63.472C227.965 62.9707 228.909 62.72 229.944 62.72C230.818 62.72 231.624 62.8853 232.36 63.216C233.106 63.5467 233.725 64.016 234.216 64.624C234.717 65.232 235.053 65.9413 235.224 66.752H233.432C233.208 66.0053 232.781 65.408 232.152 64.96C231.533 64.5013 230.802 64.272 229.96 64.272C229.224 64.272 228.568 64.4533 227.992 64.816C227.416 65.1787 226.968 65.68 226.648 66.32C226.338 66.96 226.184 67.68 226.184 68.48C226.184 69.2693 226.338 69.984 226.648 70.624C226.968 71.264 227.416 71.7707 227.992 72.144C228.568 72.5067 229.224 72.688 229.96 72.688C230.792 72.688 231.512 72.48 232.12 72.064C232.728 71.6373 233.16 71.072 233.416 70.368H235.224C235.032 71.136 234.685 71.8133 234.184 72.4C233.693 72.9867 233.085 73.44 232.36 73.76C231.634 74.08 230.829 74.24 229.944 74.24ZM242.431 74.064C242.015 74.064 241.69 73.9467 241.455 73.712C241.231 73.4667 241.119 73.1307 241.119 72.704V67.248H239.615V66H241.151V63.84H242.703V66H244.671V67.248H242.719V72.208C242.719 72.4107 242.762 72.5547 242.847 72.64C242.943 72.7253 243.093 72.768 243.295 72.768H244.671V74.064H242.431ZM249.768 74.24C248.979 74.24 248.264 74.0587 247.624 73.696C246.995 73.3227 246.499 72.816 246.136 72.176C245.784 71.5253 245.608 70.8 245.608 70C245.608 69.2 245.784 68.48 246.136 67.84C246.499 67.1893 246.995 66.6827 247.624 66.32C248.264 65.9467 248.979 65.76 249.768 65.76C250.557 65.76 251.267 65.9467 251.896 66.32C252.525 66.6827 253.021 67.1893 253.384 67.84C253.747 68.48 253.928 69.2 253.928 70C253.928 70.8 253.747 71.5253 253.384 72.176C253.021 72.816 252.525 73.3227 251.896 73.696C251.267 74.0587 250.557 74.24 249.768 74.24ZM249.768 72.768C250.237 72.768 250.659 72.6507 251.032 72.416C251.416 72.1813 251.715 71.856 251.928 71.44C252.141 71.0133 252.248 70.5333 252.248 70C252.248 69.4667 252.141 68.992 251.928 68.576C251.715 68.1493 251.416 67.8187 251.032 67.584C250.659 67.3493 250.237 67.232 249.768 67.232C249.032 67.232 248.435 67.4933 247.976 68.016C247.517 68.528 247.288 69.1893 247.288 70C247.288 70.8107 247.517 71.4773 247.976 72C248.435 72.512 249.032 72.768 249.768 72.768ZM262.986 74.24C262.228 74.24 261.535 74.064 260.906 73.712C260.276 73.36 259.78 72.864 259.418 72.224C259.055 71.584 258.874 70.8427 258.874 70C258.874 69.1573 259.055 68.416 259.418 67.776C259.78 67.136 260.276 66.64 260.906 66.288C261.535 65.936 262.228 65.76 262.986 65.76C263.956 65.76 264.788 66.0267 265.482 66.56C266.175 67.0933 266.618 67.8187 266.81 68.736H265.194C265.034 68.256 264.762 67.888 264.378 67.632C264.004 67.3653 263.546 67.232 263.002 67.232C262.543 67.232 262.127 67.344 261.754 67.568C261.391 67.792 261.098 68.112 260.874 68.528C260.66 68.944 260.554 69.4293 260.554 69.984C260.554 70.5493 260.66 71.0453 260.874 71.472C261.087 71.888 261.38 72.208 261.754 72.432C262.127 72.656 262.543 72.768 263.002 72.768C263.556 72.768 264.026 72.6347 264.41 72.368C264.794 72.0907 265.066 71.7013 265.226 71.2H266.858C266.676 72.128 266.234 72.8693 265.53 73.424C264.826 73.968 263.978 74.24 262.986 74.24ZM272.127 74.24C271.338 74.24 270.623 74.0587 269.983 73.696C269.354 73.3227 268.858 72.816 268.495 72.176C268.143 71.5253 267.967 70.8 267.967 70C267.967 69.2 268.143 68.48 268.495 67.84C268.858 67.1893 269.354 66.6827 269.983 66.32C270.623 65.9467 271.338 65.76 272.127 65.76C272.917 65.76 273.626 65.9467 274.255 66.32C274.885 66.6827 275.381 67.1893 275.743 67.84C276.106 68.48 276.287 69.2 276.287 70C276.287 70.8 276.106 71.5253 275.743 72.176C275.381 72.816 274.885 73.3227 274.255 73.696C273.626 74.0587 272.917 74.24 272.127 74.24ZM272.127 72.768C272.597 72.768 273.018 72.6507 273.391 72.416C273.775 72.1813 274.074 71.856 274.287 71.44C274.501 71.0133 274.607 70.5333 274.607 70C274.607 69.4667 274.501 68.992 274.287 68.576C274.074 68.1493 273.775 67.8187 273.391 67.584C273.018 67.3493 272.597 67.232 272.127 67.232C271.391 67.232 270.794 67.4933 270.335 68.016C269.877 68.528 269.647 69.1893 269.647 70C269.647 70.8107 269.877 71.4773 270.335 72C270.794 72.512 271.391 72.768 272.127 72.768ZM276.99 66H278.718L280.734 72.656H280.99L282.99 66H284.67L281.982 74H279.646L276.99 66ZM289.438 74.24C288.628 74.24 287.913 74.064 287.294 73.712C286.676 73.3493 286.196 72.848 285.854 72.208C285.524 71.5573 285.358 70.816 285.358 69.984C285.358 69.1627 285.529 68.432 285.87 67.792C286.212 67.152 286.686 66.656 287.294 66.304C287.913 65.9413 288.617 65.76 289.406 65.76C290.206 65.76 290.9 65.9467 291.486 66.32C292.073 66.6827 292.521 67.184 292.83 67.824C293.15 68.464 293.31 69.1893 293.31 70V70.272H286.942C286.974 71.04 287.22 71.6587 287.678 72.128C288.148 72.5973 288.734 72.832 289.438 72.832C290.494 72.832 291.193 72.4533 291.534 71.696H293.198C292.974 72.4533 292.521 73.0667 291.838 73.536C291.166 74.0053 290.366 74.24 289.438 74.24ZM291.694 69.168C291.62 68.5387 291.374 68.0373 290.958 67.664C290.542 67.2907 290.025 67.104 289.406 67.104C288.788 67.104 288.254 67.2907 287.806 67.664C287.369 68.0267 287.097 68.528 286.99 69.168H291.694ZM295.138 66H296.754V67.472H297.026C297.229 66.9707 297.575 66.576 298.066 66.288C298.557 66 299.117 65.856 299.746 65.856H299.858V67.6C299.687 67.5787 299.479 67.568 299.234 67.568C298.498 67.568 297.901 67.7867 297.442 68.224C296.994 68.6613 296.77 69.3013 296.77 70.144V74H295.138V66ZM303.746 75.728H305.106C305.405 75.728 305.629 75.664 305.778 75.536C305.938 75.4187 306.077 75.2053 306.194 74.896L306.45 74.176L303.378 66H305.09L307.106 72.016H307.378L309.442 66H311.138L307.378 75.696C307.197 76.1867 306.952 76.5333 306.642 76.736C306.344 76.9387 305.912 77.04 305.346 77.04H303.746V75.728ZM315.846 74.24C315.057 74.24 314.342 74.0587 313.702 73.696C313.073 73.3227 312.577 72.816 312.214 72.176C311.862 71.5253 311.686 70.8 311.686 70C311.686 69.2 311.862 68.48 312.214 67.84C312.577 67.1893 313.073 66.6827 313.702 66.32C314.342 65.9467 315.057 65.76 315.846 65.76C316.635 65.76 317.345 65.9467 317.974 66.32C318.603 66.6827 319.099 67.1893 319.462 67.84C319.825 68.48 320.006 69.2 320.006 70C320.006 70.8 319.825 71.5253 319.462 72.176C319.099 72.816 318.603 73.3227 317.974 73.696C317.345 74.0587 316.635 74.24 315.846 74.24ZM315.846 72.768C316.315 72.768 316.737 72.6507 317.11 72.416C317.494 72.1813 317.793 71.856 318.006 71.44C318.219 71.0133 318.326 70.5333 318.326 70C318.326 69.4667 318.219 68.992 318.006 68.576C317.793 68.1493 317.494 67.8187 317.11 67.584C316.737 67.3493 316.315 67.232 315.846 67.232C315.11 67.232 314.513 67.4933 314.054 68.016C313.595 68.528 313.366 69.1893 313.366 70C313.366 70.8107 313.595 71.4773 314.054 72C314.513 72.512 315.11 72.768 315.846 72.768ZM325.137 74.24C324.071 74.24 323.228 73.936 322.609 73.328C322.001 72.72 321.697 71.872 321.697 70.784V66H323.329V70.752C323.329 71.3493 323.484 71.8347 323.793 72.208C324.103 72.5813 324.551 72.768 325.137 72.768C325.713 72.768 326.151 72.5813 326.449 72.208C326.759 71.8347 326.913 71.3493 326.913 70.752V66H328.545V70.784C328.545 71.872 328.241 72.72 327.633 73.328C327.036 73.936 326.204 74.24 325.137 74.24ZM330.872 66H332.488V67.472H332.76C332.963 66.9707 333.31 66.576 333.8 66.288C334.291 66 334.851 65.856 335.48 65.856H335.592V67.6C335.422 67.5787 335.214 67.568 334.968 67.568C334.232 67.568 333.635 67.7867 333.176 68.224C332.728 68.6613 332.504 69.3013 332.504 70.144V74H330.872V66ZM28.768 98.24C27.9787 98.24 27.264 98.0587 26.624 97.696C25.9947 97.3227 25.4987 96.816 25.136 96.176C24.784 95.5253 24.608 94.8 24.608 94C24.608 93.2 24.784 92.48 25.136 91.84C25.4987 91.1893 25.9947 90.6827 26.624 90.32C27.264 89.9467 27.9787 89.76 28.768 89.76C29.5573 89.76 30.2667 89.9467 30.896 90.32C31.5253 90.6827 32.0213 91.1893 32.384 91.84C32.7467 92.48 32.928 93.2 32.928 94C32.928 94.8 32.7467 95.5253 32.384 96.176C32.0213 96.816 31.5253 97.3227 30.896 97.696C30.2667 98.0587 29.5573 98.24 28.768 98.24ZM28.768 96.768C29.2373 96.768 29.6587 96.6507 30.032 96.416C30.416 96.1813 30.7147 95.856 30.928 95.44C31.1413 95.0133 31.248 94.5333 31.248 94C31.248 93.4667 31.1413 92.992 30.928 92.576C30.7147 92.1493 30.416 91.8187 30.032 91.584C29.6587 91.3493 29.2373 91.232 28.768 91.232C28.032 91.232 27.4347 91.4933 26.976 92.016C26.5173 92.528 26.288 93.1893 26.288 94C26.288 94.8107 26.5173 95.4773 26.976 96C27.4347 96.512 28.032 96.768 28.768 96.768ZM34.7473 90H36.3633V91.472H36.6353C36.8379 90.9707 37.1846 90.576 37.6753 90.288C38.1659 90 38.7259 89.856 39.3553 89.856H39.4673V91.6C39.2966 91.5787 39.0886 91.568 38.8433 91.568C38.1073 91.568 37.5099 91.7867 37.0513 92.224C36.6033 92.6613 36.3793 93.3013 36.3793 94.144V98H34.7473V90ZM43.8829 98.24C43.1575 98.24 42.5122 98.064 41.9469 97.712C41.3922 97.3493 40.9549 96.8533 40.6349 96.224C40.3255 95.584 40.1709 94.864 40.1709 94.064C40.1709 93.2533 40.3362 92.5227 40.6669 91.872C40.9975 91.2107 41.4509 90.6933 42.0269 90.32C42.6029 89.9467 43.2482 89.76 43.9629 89.76C44.5069 89.76 44.9975 89.8773 45.4349 90.112C45.8722 90.3467 46.2082 90.6933 46.4429 91.152H46.6989V86.96H48.3309V98H46.6989V96.864H46.4429C46.1975 97.312 45.8455 97.6533 45.3869 97.888C44.9282 98.1227 44.4269 98.24 43.8829 98.24ZM44.2829 96.784C44.7415 96.784 45.1522 96.6667 45.5149 96.432C45.8882 96.1973 46.1815 95.872 46.3949 95.456C46.6082 95.0293 46.7149 94.544 46.7149 94C46.7149 93.456 46.6082 92.976 46.3949 92.56C46.1815 92.1333 45.8882 91.8027 45.5149 91.568C45.1522 91.3333 44.7415 91.216 44.2829 91.216C43.5682 91.216 42.9815 91.4827 42.5229 92.016C42.0749 92.5387 41.8509 93.2 41.8509 94C41.8509 94.5227 41.9522 94.9973 42.1549 95.424C42.3682 95.8507 42.6562 96.1867 43.0189 96.432C43.3922 96.6667 43.8135 96.784 44.2829 96.784ZM54.2509 98.24C53.4402 98.24 52.7255 98.064 52.1069 97.712C51.4882 97.3493 51.0082 96.848 50.6669 96.208C50.3362 95.5573 50.1709 94.816 50.1709 93.984C50.1709 93.1627 50.3415 92.432 50.6829 91.792C51.0242 91.152 51.4989 90.656 52.1069 90.304C52.7255 89.9413 53.4295 89.76 54.2189 89.76C55.0189 89.76 55.7122 89.9467 56.2989 90.32C56.8855 90.6827 57.3335 91.184 57.6429 91.824C57.9629 92.464 58.1229 93.1893 58.1229 94V94.272H51.7549C51.7869 95.04 52.0322 95.6587 52.4909 96.128C52.9602 96.5973 53.5469 96.832 54.2509 96.832C55.3069 96.832 56.0055 96.4533 56.3469 95.696H58.0109C57.7869 96.4533 57.3335 97.0667 56.6509 97.536C55.9789 98.0053 55.1789 98.24 54.2509 98.24ZM56.5069 93.168C56.4322 92.5387 56.1869 92.0373 55.7709 91.664C55.3549 91.2907 54.8375 91.104 54.2189 91.104C53.6002 91.104 53.0669 91.2907 52.6189 91.664C52.1815 92.0267 51.9095 92.528 51.8029 93.168H56.5069ZM59.9504 90H61.5664V91.472H61.8384C62.041 90.9707 62.3877 90.576 62.8784 90.288C63.369 90 63.929 89.856 64.5584 89.856H64.6704V91.6C64.4997 91.5787 64.2917 91.568 64.0464 91.568C63.3104 91.568 62.713 91.7867 62.2544 92.224C61.8064 92.6613 61.5824 93.3013 61.5824 94.144V98H59.9504V90ZM73.0805 98.24C72.2912 98.24 71.5765 98.0587 70.9365 97.696C70.3072 97.3227 69.8112 96.816 69.4485 96.176C69.0965 95.5253 68.9205 94.8 68.9205 94C68.9205 93.2 69.0965 92.48 69.4485 91.84C69.8112 91.1893 70.3072 90.6827 70.9365 90.32C71.5765 89.9467 72.2912 89.76 73.0805 89.76C73.8698 89.76 74.5792 89.9467 75.2085 90.32C75.8378 90.6827 76.3338 91.1893 76.6965 91.84C77.0592 92.48 77.2405 93.2 77.2405 94C77.2405 94.8 77.0592 95.5253 76.6965 96.176C76.3338 96.816 75.8378 97.3227 75.2085 97.696C74.5792 98.0587 73.8698 98.24 73.0805 98.24ZM73.0805 96.768C73.5498 96.768 73.9712 96.6507 74.3445 96.416C74.7285 96.1813 75.0272 95.856 75.2405 95.44C75.4538 95.0133 75.5605 94.5333 75.5605 94C75.5605 93.4667 75.4538 92.992 75.2405 92.576C75.0272 92.1493 74.7285 91.8187 74.3445 91.584C73.9712 91.3493 73.5498 91.232 73.0805 91.232C72.3445 91.232 71.7472 91.4933 71.2885 92.016C70.8298 92.528 70.6005 93.1893 70.6005 94C70.6005 94.8107 70.8298 95.4773 71.2885 96C71.7472 96.512 72.3445 96.768 73.0805 96.768ZM79.4948 91.248H78.0388V90H79.4948V88.32C79.4948 87.8827 79.6174 87.5413 79.8628 87.296C80.1081 87.04 80.4494 86.912 80.8868 86.912H82.9988V88.192H81.6388C81.4361 88.192 81.2868 88.24 81.1908 88.336C81.1054 88.432 81.0628 88.5813 81.0628 88.784V90H82.9988V91.248H81.0788V98H79.4948V91.248ZM91.3778 98.24C90.3111 98.24 89.4311 97.9627 88.7378 97.408C88.0551 96.8533 87.6284 96.112 87.4578 95.184H89.2178C89.3458 95.6427 89.5964 96.016 89.9698 96.304C90.3431 96.592 90.8178 96.736 91.3938 96.736C92.0444 96.736 92.5671 96.5227 92.9618 96.096C93.3671 95.6693 93.5698 95.1253 93.5698 94.464C93.5698 93.8027 93.3778 93.2587 92.9938 92.832C92.6098 92.4053 92.0818 92.192 91.4098 92.192C90.8338 92.192 90.3644 92.3467 90.0018 92.656C89.6391 92.9547 89.3991 93.3067 89.2818 93.712L87.6018 93.648L87.9218 87.2H94.4658V88.72H89.3138L89.1538 92H89.4098C89.6444 91.6267 89.9751 91.328 90.4018 91.104C90.8284 90.8693 91.3298 90.752 91.9058 90.752C92.5778 90.752 93.1698 90.912 93.6818 91.232C94.1938 91.552 94.5884 91.9947 94.8658 92.56C95.1431 93.1147 95.2818 93.744 95.2818 94.448C95.2818 95.1733 95.1111 95.824 94.7698 96.4C94.4391 96.976 93.9751 97.4293 93.3778 97.76C92.7804 98.08 92.1138 98.24 91.3778 98.24ZM100.737 98.24C99.6705 98.24 98.7905 97.9627 98.0971 97.408C97.4145 96.8533 96.9878 96.112 96.8171 95.184H98.5771C98.7051 95.6427 98.9558 96.016 99.3291 96.304C99.7025 96.592 100.177 96.736 100.753 96.736C101.404 96.736 101.926 96.5227 102.321 96.096C102.726 95.6693 102.929 95.1253 102.929 94.464C102.929 93.8027 102.737 93.2587 102.353 92.832C101.969 92.4053 101.441 92.192 100.769 92.192C100.193 92.192 99.7238 92.3467 99.3611 92.656C98.9985 92.9547 98.7585 93.3067 98.6411 93.712L96.9611 93.648L97.2811 87.2H103.825V88.72H98.6731L98.5131 92H98.7691C99.0038 91.6267 99.3345 91.328 99.7611 91.104C100.188 90.8693 100.689 90.752 101.265 90.752C101.937 90.752 102.529 90.912 103.041 91.232C103.553 91.552 103.948 91.9947 104.225 92.56C104.502 93.1147 104.641 93.744 104.641 94.448C104.641 95.1733 104.47 95.824 104.129 96.4C103.798 96.976 103.334 97.4293 102.737 97.76C102.14 98.08 101.473 98.24 100.737 98.24ZM110.305 98.24C109.43 98.24 108.673 98 108.033 97.52C107.403 97.0293 106.923 96.3573 106.593 95.504C106.273 94.6507 106.113 93.68 106.113 92.592C106.113 91.504 106.273 90.5333 106.593 89.68C106.923 88.8267 107.403 88.16 108.033 87.68C108.662 87.2 109.419 86.96 110.305 86.96C111.179 86.96 111.931 87.2 112.561 87.68C113.19 88.16 113.665 88.8267 113.985 89.68C114.315 90.5227 114.481 91.4933 114.481 92.592C114.481 93.6907 114.315 94.6667 113.985 95.52C113.665 96.3627 113.19 97.0293 112.561 97.52C111.931 98 111.179 98.24 110.305 98.24ZM110.305 96.752C111.115 96.752 111.723 96.384 112.129 95.648C112.534 94.9013 112.737 93.8827 112.737 92.592C112.737 91.312 112.534 90.304 112.129 89.568C111.723 88.8213 111.115 88.448 110.305 88.448C109.494 88.448 108.881 88.8213 108.465 89.568C108.059 90.304 107.857 91.312 107.857 92.592C107.857 93.872 108.059 94.8853 108.465 95.632C108.881 96.3787 109.494 96.752 110.305 96.752ZM115.71 95.952H117.726V98H115.71V95.952ZM123.148 98.24C122.274 98.24 121.516 98 120.876 97.52C120.247 97.0293 119.767 96.3573 119.436 95.504C119.116 94.6507 118.956 93.68 118.956 92.592C118.956 91.504 119.116 90.5333 119.436 89.68C119.767 88.8267 120.247 88.16 120.876 87.68C121.506 87.2 122.263 86.96 123.148 86.96C124.023 86.96 124.775 87.2 125.404 87.68C126.034 88.16 126.508 88.8267 126.828 89.68C127.159 90.5227 127.324 91.4933 127.324 92.592C127.324 93.6907 127.159 94.6667 126.828 95.52C126.508 96.3627 126.034 97.0293 125.404 97.52C124.775 98 124.023 98.24 123.148 98.24ZM123.148 96.752C123.959 96.752 124.567 96.384 124.972 95.648C125.378 94.9013 125.58 93.8827 125.58 92.592C125.58 91.312 125.378 90.304 124.972 89.568C124.567 88.8213 123.959 88.448 123.148 88.448C122.338 88.448 121.724 88.8213 121.308 89.568C120.903 90.304 120.7 91.312 120.7 92.592C120.7 93.872 120.903 94.8853 121.308 95.632C121.724 96.3787 122.338 96.752 123.148 96.752ZM133.117 98.24C132.242 98.24 131.485 98 130.845 97.52C130.216 97.0293 129.736 96.3573 129.405 95.504C129.085 94.6507 128.925 93.68 128.925 92.592C128.925 91.504 129.085 90.5333 129.405 89.68C129.736 88.8267 130.216 88.16 130.845 87.68C131.474 87.2 132.232 86.96 133.117 86.96C133.992 86.96 134.744 87.2 135.373 87.68C136.002 88.16 136.477 88.8267 136.797 89.68C137.128 90.5227 137.293 91.4933 137.293 92.592C137.293 93.6907 137.128 94.6667 136.797 95.52C136.477 96.3627 136.002 97.0293 135.373 97.52C134.744 98 133.992 98.24 133.117 98.24ZM133.117 96.752C133.928 96.752 134.536 96.384 134.941 95.648C135.346 94.9013 135.549 93.8827 135.549 92.592C135.549 91.312 135.346 90.304 134.941 89.568C134.536 88.8213 133.928 88.448 133.117 88.448C132.306 88.448 131.693 88.8213 131.277 89.568C130.872 90.304 130.669 91.312 130.669 92.592C130.669 93.872 130.872 94.8853 131.277 95.632C131.693 96.3787 132.306 96.752 133.117 96.752ZM147.508 98.24C146.143 98.24 145.065 97.84 144.276 97.04C143.487 96.24 143.092 95.136 143.092 93.728V86.96H144.804V93.568C144.804 94.5067 145.028 95.264 145.476 95.84C145.935 96.4053 146.607 96.688 147.492 96.688C148.377 96.688 149.044 96.4053 149.492 95.84C149.951 95.264 150.18 94.5067 150.18 93.568V86.96H151.892V93.728C151.892 95.136 151.503 96.24 150.724 97.04C149.945 97.84 148.873 98.24 147.508 98.24ZM158.148 98.24C156.9 98.24 155.882 97.9467 155.092 97.36C154.314 96.7627 153.844 95.9787 153.684 95.008H155.412C155.594 95.616 155.93 96.064 156.42 96.352C156.911 96.6293 157.487 96.768 158.148 96.768C158.82 96.768 159.37 96.6133 159.796 96.304C160.223 95.984 160.436 95.5787 160.436 95.088C160.436 94.5867 160.266 94.2027 159.924 93.936C159.594 93.6693 159.05 93.4507 158.292 93.28L156.98 92.976C156.127 92.784 155.428 92.448 154.884 91.968C154.34 91.4773 154.068 90.8 154.068 89.936C154.068 89.328 154.228 88.784 154.548 88.304C154.879 87.8133 155.338 87.4293 155.924 87.152C156.511 86.864 157.178 86.72 157.924 86.72C159.055 86.72 159.962 86.992 160.644 87.536C161.327 88.08 161.77 88.8373 161.972 89.808H160.26C159.93 88.72 159.156 88.176 157.94 88.176C157.268 88.176 156.74 88.3307 156.356 88.64C155.972 88.9387 155.78 89.3227 155.78 89.792C155.78 90.2507 155.94 90.6027 156.26 90.848C156.58 91.0933 157.098 91.3013 157.812 91.472L159.108 91.792C160.036 92.0053 160.778 92.352 161.332 92.832C161.898 93.312 162.18 94.0107 162.18 94.928C162.18 95.568 162.01 96.1387 161.668 96.64C161.338 97.1413 160.868 97.536 160.26 97.824C159.652 98.1013 158.948 98.24 158.148 98.24ZM164.236 86.96H168.252C169.393 86.96 170.374 87.1893 171.196 87.648C172.028 88.1067 172.662 88.7467 173.1 89.568C173.537 90.3893 173.756 91.328 173.756 92.384C173.756 93.4507 173.537 94.4107 173.1 95.264C172.662 96.1067 172.028 96.7733 171.196 97.264C170.364 97.7547 169.382 98 168.252 98H164.236V86.96ZM167.948 96.496C169.228 96.496 170.22 96.128 170.924 95.392C171.628 94.6453 171.98 93.648 171.98 92.4C171.98 91.152 171.628 90.1867 170.924 89.504C170.23 88.8107 169.238 88.464 167.948 88.464H165.932V96.496H167.948ZM180.74 98.24C179.695 98.24 178.751 97.9947 177.908 97.504C177.066 97.0133 176.399 96.3307 175.908 95.456C175.428 94.5813 175.188 93.5947 175.188 92.496C175.188 91.408 175.428 90.4267 175.908 89.552C176.399 88.6667 177.066 87.9733 177.908 87.472C178.762 86.9707 179.706 86.72 180.74 86.72C181.615 86.72 182.42 86.8853 183.156 87.216C183.903 87.5467 184.522 88.016 185.012 88.624C185.514 89.232 185.85 89.9413 186.02 90.752H184.228C184.004 90.0053 183.578 89.408 182.948 88.96C182.33 88.5013 181.599 88.272 180.756 88.272C180.02 88.272 179.364 88.4533 178.788 88.816C178.212 89.1787 177.764 89.68 177.444 90.32C177.135 90.96 176.98 91.68 176.98 92.48C176.98 93.2693 177.135 93.984 177.444 94.624C177.764 95.264 178.212 95.7707 178.788 96.144C179.364 96.5067 180.02 96.688 180.756 96.688C181.588 96.688 182.308 96.48 182.916 96.064C183.524 95.6373 183.956 95.072 184.212 94.368H186.02C185.828 95.136 185.482 95.8133 184.98 96.4C184.49 96.9867 183.882 97.44 183.156 97.76C182.431 98.08 181.626 98.24 180.74 98.24ZM187.148 95.952H189.164V98H187.148V95.952Z" fill="#5B616E"/>
<rect x="20" y="132" width="32" height="32" rx="16" fill="#EEF0F3"/>
<path d="M36.9883 148.995H39.9883V149.995H36.9883V148.995Z" fill="#0A0B0D"/>
<path d="M42.9883 152.995H28.9883V142.995H42.9883V152.995ZM41.3883 144.595H30.5883V145.695H41.3883V144.595ZM30.5883 147.295V151.395H41.3883V147.295H30.5883Z" fill="#0A0B0D"/>
<path d="M73.616 142.736C77.056 142.736 78.944 145.248 78.944 148.368C78.944 151.504 77.072 154 73.616 154H69.328V142.736H73.616ZM73.632 144.592H71.472V152.144H73.632C75.344 152.144 76.752 150.928 76.752 148.768V147.952C76.752 145.808 75.344 144.592 73.632 144.592ZM84.473 154.224C81.641 154.224 80.249 152.176 80.249 149.808C80.249 147.456 81.657 145.392 84.393 145.392C87.097 145.392 88.441 147.36 88.441 149.584V150.336H82.329C82.345 151.808 83.273 152.672 84.521 152.672C85.577 152.672 86.137 152.08 86.217 151.52H88.297C88.025 153.12 86.537 154.224 84.473 154.224ZM84.393 146.944C83.305 146.944 82.473 147.68 82.345 148.944H86.361C86.313 147.664 85.513 146.944 84.393 146.944ZM90.1505 154V142.128H92.2305V146.832H92.2465C92.7265 145.952 93.5905 145.392 94.8545 145.392C97.2705 145.392 98.5185 147.456 98.5185 149.808C98.5185 152.176 97.2705 154.224 94.8545 154.224C93.4785 154.224 92.5985 153.6 92.1185 152.592H92.1025V154H90.1505ZM96.4385 150.192V149.456C96.4385 147.968 95.4945 147.12 94.3265 147.12C93.1585 147.12 92.2305 148 92.2305 149.456V150.192C92.2305 151.648 93.1585 152.528 94.3265 152.528C95.4945 152.528 96.4385 151.68 96.4385 150.192ZM101.925 144.64H101.781C101.061 144.64 100.501 144.08 100.501 143.408C100.501 142.704 101.061 142.16 101.781 142.16H101.925C102.629 142.16 103.189 142.704 103.189 143.408C103.189 144.08 102.629 144.64 101.925 144.64ZM99.5086 147.28V145.616H102.885V154H100.805V147.28H99.5086ZM104.257 145.616H106.081V143.264H108.161V145.616H110.753V147.312H108.161V151.616C108.161 152.112 108.369 152.32 108.849 152.32H110.753V154H108.369C106.817 154 106.081 153.232 106.081 151.792V147.312H104.257V145.616ZM117.422 149.456V150.192C117.422 151.648 118.318 152.528 119.486 152.528C120.51 152.528 121.054 151.904 121.23 151.2H123.246C122.958 153.04 121.582 154.224 119.502 154.224C116.718 154.224 115.358 152.208 115.358 149.808C115.358 147.408 116.734 145.392 119.502 145.392C121.582 145.392 122.974 146.592 123.246 148.416H121.23C121.054 147.728 120.51 147.104 119.486 147.104C118.318 147.104 117.422 148 117.422 149.456ZM124.598 148.048C124.774 146.464 126.054 145.392 128.246 145.392C130.166 145.392 131.734 146.224 131.734 148.352V151.824C131.734 152.288 131.91 152.384 132.294 152.384H132.79V154H131.638C130.486 154 130.038 153.472 130.054 152.64V152.56H130.038C129.638 153.568 128.646 154.224 127.27 154.224C125.526 154.224 124.326 153.28 124.326 151.696C124.326 150.064 125.542 149.296 127.51 149.024L128.534 148.864C129.318 148.752 129.654 148.496 129.654 147.968C129.654 147.408 129.286 146.896 128.214 146.896C127.222 146.896 126.71 147.344 126.646 148.048H124.598ZM129.686 150.608V149.824C129.51 149.968 129.19 150.144 128.71 150.208L127.83 150.336C126.902 150.48 126.342 150.848 126.342 151.488V151.584C126.342 152.24 126.854 152.656 127.702 152.656C128.918 152.656 129.686 151.824 129.686 150.608ZM134.072 154V145.616H136.056V147.088H136.072C136.28 146.384 136.968 145.6 138.456 145.6H139.48V147.504H138.072C136.648 147.504 136.152 148.192 136.152 149.312V154H134.072ZM148.539 154H146.587V152.592H146.571C146.091 153.6 145.195 154.224 143.835 154.224C141.419 154.224 140.171 152.176 140.171 149.808C140.171 147.456 141.419 145.392 143.835 145.392C145.099 145.392 145.947 145.952 146.443 146.832H146.459V142.128H148.539V154ZM142.251 150.192C142.251 151.68 143.195 152.528 144.363 152.528C145.531 152.528 146.459 151.648 146.459 150.192V149.456C146.459 148 145.531 147.12 144.363 147.12C143.195 147.12 142.251 147.968 142.251 149.456V150.192ZM151.897 156.32H150.089L151.145 151.696H153.257L151.897 156.32ZM158.588 154V142.128H160.668V146.832H160.684C161.164 145.952 162.028 145.392 163.292 145.392C165.708 145.392 166.956 147.456 166.956 149.808C166.956 152.176 165.708 154.224 163.292 154.224C161.916 154.224 161.036 153.6 160.556 152.592H160.54V154H158.588ZM164.876 150.192V149.456C164.876 147.968 163.932 147.12 162.764 147.12C161.596 147.12 160.668 148 160.668 149.456V150.192C160.668 151.648 161.596 152.528 162.764 152.528C163.932 152.528 164.876 151.68 164.876 150.192ZM168.348 148.048C168.524 146.464 169.804 145.392 171.996 145.392C173.916 145.392 175.484 146.224 175.484 148.352V151.824C175.484 152.288 175.66 152.384 176.044 152.384H176.54V154H175.388C174.236 154 173.788 153.472 173.804 152.64V152.56H173.788C173.388 153.568 172.396 154.224 171.02 154.224C169.276 154.224 168.076 153.28 168.076 151.696C168.076 150.064 169.292 149.296 171.26 149.024L172.284 148.864C173.068 148.752 173.404 148.496 173.404 147.968C173.404 147.408 173.036 146.896 171.964 146.896C170.972 146.896 170.46 147.344 170.396 148.048H168.348ZM173.436 150.608V149.824C173.26 149.968 172.94 150.144 172.46 150.208L171.58 150.336C170.652 150.48 170.092 150.848 170.092 151.488V151.584C170.092 152.24 170.604 152.656 171.452 152.656C172.668 152.656 173.436 151.824 173.436 150.608ZM179.902 149.072V154H177.822V145.616H179.774V146.96H179.79C180.238 145.92 181.214 145.392 182.398 145.392C184.19 145.392 185.502 146.64 185.502 148.752V154H183.422V148.976C183.422 147.744 182.606 147.152 181.71 147.152C180.766 147.152 179.902 147.776 179.902 149.072ZM189.668 142.128V154H187.588V142.128H189.668ZM195.476 145.616L192.084 149.36L195.796 154H193.22L189.668 149.424L192.98 145.616H195.476ZM203.926 154.224C201.126 154.224 199.718 152.16 199.718 149.808C199.718 147.456 201.142 145.392 203.926 145.392C206.694 145.392 208.118 147.472 208.118 149.808C208.118 152.16 206.71 154.224 203.926 154.224ZM206.038 150.176V149.456C206.038 147.952 205.11 147.104 203.926 147.104C202.726 147.104 201.798 147.984 201.798 149.456V150.176C201.798 151.632 202.726 152.512 203.926 152.512C205.11 152.512 206.038 151.664 206.038 150.176ZM209.822 154V145.616H211.806V147.088H211.822C212.03 146.384 212.718 145.6 214.206 145.6H215.23V147.504H213.822C212.398 147.504 211.902 148.192 211.902 149.312V154H209.822ZM227.564 154L226.716 151.648H221.916L221.084 154H218.876L223.116 142.736H225.596L229.868 154H227.564ZM224.268 145.008L222.572 149.792H226.044L224.3 145.008H224.268ZM231.01 145.616H232.962V147.024H232.978C233.458 146.032 234.354 145.392 235.714 145.392C238.13 145.392 239.378 147.44 239.378 149.808C239.378 152.16 238.13 154.224 235.714 154.224C234.434 154.224 233.586 153.664 233.106 152.784H233.09V157.072H231.01V145.616ZM237.298 149.44C237.298 147.936 236.354 147.088 235.186 147.088C234.018 147.088 233.09 147.984 233.09 149.44V150.16C233.09 151.632 234.018 152.496 235.186 152.496C236.354 152.496 237.298 151.664 237.298 150.16V149.44ZM241.088 145.616H243.04V147.024H243.056C243.536 146.032 244.432 145.392 245.792 145.392C248.208 145.392 249.456 147.44 249.456 149.808C249.456 152.16 248.208 154.224 245.792 154.224C244.512 154.224 243.664 153.664 243.184 152.784H243.168V157.072H241.088V145.616ZM247.376 149.44C247.376 147.936 246.432 147.088 245.264 147.088C244.096 147.088 243.168 147.984 243.168 149.44V150.16C243.168 151.632 244.096 152.496 245.264 152.496C246.432 152.496 247.376 151.664 247.376 150.16V149.44ZM251.086 151.792V142.128H253.166V151.472C253.166 152.032 253.422 152.288 253.982 152.288H255.374V154H253.374C251.822 154 251.086 153.232 251.086 151.792ZM260.176 154.224C257.344 154.224 255.952 152.176 255.952 149.808C255.952 147.456 257.36 145.392 260.096 145.392C262.8 145.392 264.144 147.36 264.144 149.584V150.336H258.032C258.048 151.808 258.976 152.672 260.224 152.672C261.28 152.672 261.84 152.08 261.92 151.52H264C263.728 153.12 262.24 154.224 260.176 154.224ZM260.096 146.944C259.008 146.944 258.176 147.68 258.048 148.944H262.064C262.016 147.664 261.216 146.944 260.096 146.944ZM269.5 154V142.736H274.588C277.132 142.736 278.508 144.208 278.508 146.224C278.508 148.24 277.132 149.696 274.588 149.696H271.644V154H269.5ZM276.332 146.304V146.128C276.332 145.136 275.708 144.576 274.524 144.576H271.644V147.872H274.524C275.708 147.872 276.332 147.296 276.332 146.304ZM279.566 148.048C279.742 146.464 281.022 145.392 283.214 145.392C285.134 145.392 286.702 146.224 286.702 148.352V151.824C286.702 152.288 286.878 152.384 287.262 152.384H287.758V154H286.606C285.454 154 285.006 153.472 285.022 152.64V152.56H285.006C284.606 153.568 283.614 154.224 282.238 154.224C280.494 154.224 279.294 153.28 279.294 151.696C279.294 150.064 280.51 149.296 282.478 149.024L283.502 148.864C284.286 148.752 284.622 148.496 284.622 147.968C284.622 147.408 284.254 146.896 283.182 146.896C282.19 146.896 281.678 147.344 281.614 148.048H279.566ZM284.654 150.608V149.824C284.478 149.968 284.158 150.144 283.678 150.208L282.798 150.336C281.87 150.48 281.31 150.848 281.31 151.488V151.584C281.31 152.24 281.822 152.656 282.67 152.656C283.886 152.656 284.654 151.824 284.654 150.608ZM292.654 154.672C291.982 156.416 291.07 157.056 289.39 157.056H287.63V155.376H289.294C289.95 155.376 290.254 155.216 290.526 154.48L290.798 153.744L287.55 145.616H289.838L291.886 151.408H291.902L293.934 145.616H296.03L292.654 154.672Z" fill="#0A0B0D"/>
<path fill-rule="evenodd" clip-rule="evenodd" d="M350.631 148L344.065 154.566L342.934 153.435L348.368 148L342.934 142.566L344.065 141.435L350.631 148Z" fill="#5B616E"/>
<rect x="20" y="188" width="32" height="32" rx="16" fill="#EEF0F3"/>
<path d="M38.9883 206.995C39.5406 206.995 39.9883 206.547 39.9883 205.995C39.9883 205.443 39.5406 204.995 38.9883 204.995C38.436 204.995 37.9883 205.443 37.9883 205.995C37.9883 206.547 38.436 206.995 38.9883 206.995Z" fill="#0A0B0D"/>
<path d="M40.9886 200.995V196.995L28.9883 200.987V210.995H42.9883V200.995H40.9886ZM39.3886 200.91L34.1402 200.959L39.3886 199.214V200.91ZM41.3883 202.595V209.395H30.5883V202.595H41.3883Z" fill="#0A0B0D"/>
<path d="M69.296 198.96H77.168V200.832H71.376V203.392H76.32V205.264H71.376V210H69.296V198.96ZM81.7159 210.24C80.6172 210.24 79.7532 209.936 79.1239 209.328C78.4945 208.709 78.1799 207.851 78.1799 206.752V202H80.1799V206.704C80.1799 207.216 80.3079 207.632 80.5639 207.952C80.8305 208.272 81.2145 208.432 81.7159 208.432C82.2172 208.432 82.5959 208.272 82.8519 207.952C83.1079 207.632 83.2359 207.216 83.2359 206.704V202H85.2359V206.752C85.2359 207.851 84.9212 208.709 84.2919 209.328C83.6732 209.936 82.8145 210.24 81.7159 210.24ZM87.37 202H89.37V202.944H89.658C89.9033 202.549 90.2127 202.256 90.586 202.064C90.9593 201.861 91.3753 201.76 91.834 201.76C92.6447 201.76 93.29 202.021 93.77 202.544C94.2607 203.056 94.506 203.755 94.506 204.64V210H92.506V205.264C92.506 204.773 92.3833 204.373 92.138 204.064C91.8927 203.744 91.514 203.584 91.002 203.584C90.5007 203.584 90.1007 203.749 89.802 204.08C89.514 204.4 89.37 204.795 89.37 205.264V210H87.37V202ZM99.7389 210.24C99.0242 210.24 98.3949 210.064 97.8509 209.712C97.3069 209.36 96.8802 208.869 96.5709 208.24C96.2722 207.6 96.1229 206.88 96.1229 206.08C96.1229 205.269 96.2829 204.533 96.6029 203.872C96.9335 203.211 97.3815 202.693 97.9469 202.32C98.5122 201.947 99.1469 201.76 99.8509 201.76C100.331 201.76 100.763 201.856 101.147 202.048C101.531 202.24 101.84 202.549 102.075 202.976H102.363V198.96H104.347V210H102.363V209.072H102.075C101.83 209.467 101.494 209.76 101.067 209.952C100.651 210.144 100.208 210.24 99.7389 210.24ZM100.283 208.448C100.891 208.448 101.387 208.224 101.771 207.776C102.166 207.328 102.363 206.736 102.363 206C102.363 205.264 102.166 204.672 101.771 204.224C101.387 203.776 100.891 203.552 100.283 203.552C99.6642 203.552 99.1575 203.781 98.7629 204.24C98.3682 204.699 98.1709 205.285 98.1709 206C98.1709 206.715 98.3682 207.301 98.7629 207.76C99.1682 208.219 99.6749 208.448 100.283 208.448ZM110.792 203.52H109.368V202H110.808V200.384C110.808 199.936 110.936 199.579 111.192 199.312C111.458 199.045 111.81 198.912 112.248 198.912H114.568V200.448H113.24C112.888 200.448 112.712 200.629 112.712 200.992V202H114.568V203.52H112.728V210H110.792V203.52ZM115.933 202H117.917V203.424H118.205C118.407 202.944 118.738 202.565 119.197 202.288C119.666 202 120.189 201.856 120.765 201.856H120.893V204C120.669 203.968 120.445 203.952 120.221 203.952C119.538 203.952 118.983 204.149 118.557 204.544C118.141 204.928 117.933 205.515 117.933 206.304V210H115.933V202ZM125.783 210.24C124.994 210.24 124.279 210.059 123.639 209.696C123.01 209.333 122.514 208.832 122.151 208.192C121.788 207.541 121.607 206.811 121.607 206C121.607 205.189 121.788 204.464 122.151 203.824C122.514 203.173 123.01 202.667 123.639 202.304C124.279 201.941 124.994 201.76 125.783 201.76C126.562 201.76 127.271 201.941 127.911 202.304C128.551 202.667 129.052 203.173 129.415 203.824C129.778 204.464 129.959 205.189 129.959 206C129.959 206.811 129.778 207.541 129.415 208.192C129.052 208.832 128.551 209.333 127.911 209.696C127.271 210.059 126.562 210.24 125.783 210.24ZM125.783 208.432C126.402 208.432 126.908 208.208 127.303 207.76C127.708 207.312 127.911 206.725 127.911 206C127.911 205.275 127.708 204.688 127.303 204.24C126.908 203.792 126.402 203.568 125.783 203.568C125.154 203.568 124.642 203.792 124.247 204.24C123.852 204.688 123.655 205.275 123.655 206C123.655 206.725 123.852 207.312 124.247 207.76C124.642 208.208 125.154 208.432 125.783 208.432ZM131.636 202H133.636V202.944H133.924C134.404 202.155 135.14 201.76 136.132 201.76C136.622 201.76 137.054 201.861 137.428 202.064C137.801 202.267 138.094 202.56 138.308 202.944H138.596C138.852 202.549 139.172 202.256 139.556 202.064C139.94 201.861 140.398 201.76 140.932 201.76C141.817 201.76 142.516 202.027 143.028 202.56C143.55 203.083 143.812 203.797 143.812 204.704V210H141.812V205.216C141.812 204.725 141.694 204.331 141.46 204.032C141.225 203.733 140.857 203.584 140.356 203.584C139.865 203.584 139.47 203.739 139.172 204.048C138.873 204.357 138.724 204.736 138.724 205.184V210H136.724V205.264C136.724 204.773 136.601 204.373 136.356 204.064C136.11 203.744 135.737 203.584 135.236 203.584C134.745 203.584 134.356 203.749 134.068 204.08C133.78 204.4 133.636 204.795 133.636 205.264V210H131.636V202ZM151.798 210.24C151.009 210.24 150.348 210.016 149.814 209.568C149.281 209.12 149.014 208.528 149.014 207.792C149.014 206.96 149.286 206.352 149.83 205.968C150.374 205.584 151.116 205.344 152.054 205.248L154.406 205.008V204.56C154.406 204.208 154.268 203.925 153.99 203.712C153.724 203.499 153.345 203.392 152.854 203.392C152.396 203.392 152.028 203.488 151.75 203.68C151.473 203.861 151.286 204.112 151.19 204.432H149.27C149.366 203.643 149.729 203.003 150.358 202.512C150.988 202.011 151.82 201.76 152.854 201.76C153.9 201.76 154.726 202.011 155.334 202.512C155.953 203.013 156.262 203.739 156.262 204.688V208.592C156.262 208.859 156.268 209.12 156.278 209.376C156.3 209.621 156.321 209.819 156.342 209.968V210H154.422C154.412 209.819 154.406 209.552 154.406 209.2H154.118C153.692 209.893 152.918 210.24 151.798 210.24ZM151.03 207.696C151.03 208.016 151.148 208.272 151.382 208.464C151.628 208.645 151.948 208.736 152.342 208.736C152.758 208.736 153.121 208.645 153.43 208.464C153.75 208.272 153.99 208.021 154.15 207.712C154.321 207.403 154.406 207.077 154.406 206.736V206.336L152.646 206.544C152.092 206.608 151.681 206.731 151.414 206.912C151.158 207.093 151.03 207.355 151.03 207.696ZM158.417 202H160.417V202.944H160.705C160.95 202.549 161.26 202.256 161.633 202.064C162.006 201.861 162.422 201.76 162.881 201.76C163.692 201.76 164.337 202.021 164.817 202.544C165.308 203.056 165.553 203.755 165.553 204.64V210H163.553V205.264C163.553 204.773 163.43 204.373 163.185 204.064C162.94 203.744 162.561 203.584 162.049 203.584C161.548 203.584 161.148 203.749 160.849 204.08C160.561 204.4 160.417 204.795 160.417 205.264V210H158.417V202ZM171.33 210.24C170.54 210.24 169.826 210.059 169.186 209.696C168.556 209.333 168.06 208.832 167.698 208.192C167.335 207.541 167.154 206.811 167.154 206C167.154 205.189 167.335 204.464 167.698 203.824C168.06 203.173 168.556 202.667 169.186 202.304C169.826 201.941 170.54 201.76 171.33 201.76C172.108 201.76 172.818 201.941 173.458 202.304C174.098 202.667 174.599 203.173 174.962 203.824C175.324 204.464 175.506 205.189 175.506 206C175.506 206.811 175.324 207.541 174.962 208.192C174.599 208.832 174.098 209.333 173.458 209.696C172.818 210.059 172.108 210.24 171.33 210.24ZM171.33 208.432C171.948 208.432 172.455 208.208 172.85 207.76C173.255 207.312 173.458 206.725 173.458 206C173.458 205.275 173.255 204.688 172.85 204.24C172.455 203.792 171.948 203.568 171.33 203.568C170.7 203.568 170.188 203.792 169.794 204.24C169.399 204.688 169.202 205.275 169.202 206C169.202 206.725 169.399 207.312 169.794 207.76C170.188 208.208 170.7 208.432 171.33 208.432ZM179.057 210.064C178.641 210.064 178.31 209.936 178.065 209.68C177.83 209.424 177.713 209.077 177.713 208.64V203.52H176.241V202H177.745V199.84H179.649V202H181.537V203.52H179.681V207.984C179.681 208.155 179.718 208.283 179.793 208.368C179.868 208.443 180.001 208.48 180.193 208.48H181.537V210.064H179.057ZM183.183 198.96H185.183V202.944H185.471C185.716 202.549 186.025 202.256 186.399 202.064C186.772 201.861 187.188 201.76 187.647 201.76C188.457 201.76 189.103 202.021 189.583 202.544C190.073 203.056 190.319 203.755 190.319 204.64V210H188.319V205.264C188.319 204.773 188.196 204.373 187.951 204.064C187.705 203.744 187.327 203.584 186.815 203.584C186.313 203.584 185.913 203.749 185.615 204.08C185.327 204.4 185.183 204.795 185.183 205.264V210H183.183V198.96ZM196.031 210.24C195.221 210.24 194.506 210.064 193.887 209.712C193.269 209.36 192.789 208.864 192.447 208.224C192.106 207.584 191.935 206.837 191.935 205.984C191.935 205.152 192.111 204.416 192.463 203.776C192.815 203.136 193.301 202.64 193.919 202.288C194.549 201.936 195.258 201.76 196.047 201.76C196.858 201.76 197.557 201.947 198.143 202.32C198.741 202.693 199.194 203.205 199.503 203.856C199.823 204.507 199.983 205.243 199.983 206.064V206.416H193.887C193.93 207.067 194.154 207.584 194.559 207.968C194.965 208.341 195.455 208.528 196.031 208.528C196.917 208.528 197.503 208.235 197.791 207.648H199.839C199.626 208.416 199.173 209.04 198.479 209.52C197.786 210 196.97 210.24 196.031 210.24ZM198.031 205.088C197.957 204.565 197.733 204.155 197.359 203.856C196.986 203.547 196.543 203.392 196.031 203.392C195.498 203.392 195.034 203.541 194.639 203.84C194.255 204.139 194.015 204.555 193.919 205.088H198.031ZM201.667 202H203.651V203.424H203.939C204.142 202.944 204.472 202.565 204.931 202.288C205.4 202 205.923 201.856 206.499 201.856H206.627V204C206.403 203.968 206.179 203.952 205.955 203.952C205.272 203.952 204.718 204.149 204.291 204.544C203.875 204.928 203.667 205.515 203.667 206.304V210H201.667V202ZM210.589 202H212.605L213.741 208.352H214.029L215.261 202H218.253L219.501 208.352H219.789L220.909 202H222.877L221.117 210H218.109L216.877 203.648H216.589L215.389 210H212.269L210.589 202ZM226.611 210.24C225.821 210.24 225.16 210.016 224.627 209.568C224.093 209.12 223.827 208.528 223.827 207.792C223.827 206.96 224.099 206.352 224.643 205.968C225.187 205.584 225.928 205.344 226.867 205.248L229.219 205.008V204.56C229.219 204.208 229.08 203.925 228.803 203.712C228.536 203.499 228.157 203.392 227.667 203.392C227.208 203.392 226.84 203.488 226.563 203.68C226.285 203.861 226.099 204.112 226.003 204.432H224.083C224.179 203.643 224.541 203.003 225.171 202.512C225.8 202.011 226.632 201.76 227.667 201.76C228.712 201.76 229.539 202.011 230.147 202.512C230.765 203.013 231.075 203.739 231.075 204.688V208.592C231.075 208.859 231.08 209.12 231.091 209.376C231.112 209.621 231.133 209.819 231.155 209.968V210H229.235C229.224 209.819 229.219 209.552 229.219 209.2H228.931C228.504 209.893 227.731 210.24 226.611 210.24ZM225.843 207.696C225.843 208.016 225.96 208.272 226.195 208.464C226.44 208.645 226.76 208.736 227.155 208.736C227.571 208.736 227.933 208.645 228.243 208.464C228.563 208.272 228.803 208.021 228.963 207.712C229.133 207.403 229.219 207.077 229.219 206.736V206.336L227.459 206.544C226.904 206.608 226.493 206.731 226.227 206.912C225.971 207.093 225.843 207.355 225.843 207.696ZM233.229 198.96H235.229V210H233.229V198.96ZM237.464 198.96H239.464V210H237.464V198.96ZM245.25 210.24C244.439 210.24 243.725 210.064 243.106 209.712C242.487 209.36 242.007 208.864 241.666 208.224C241.325 207.584 241.154 206.837 241.154 205.984C241.154 205.152 241.33 204.416 241.682 203.776C242.034 203.136 242.519 202.64 243.138 202.288C243.767 201.936 244.477 201.76 245.266 201.76C246.077 201.76 246.775 201.947 247.362 202.32C247.959 202.693 248.413 203.205 248.722 203.856C249.042 204.507 249.202 205.243 249.202 206.064V206.416H243.106C243.149 207.067 243.373 207.584 243.778 207.968C244.183 208.341 244.674 208.528 245.25 208.528C246.135 208.528 246.722 208.235 247.01 207.648H249.058C248.845 208.416 248.391 209.04 247.698 209.52C247.005 210 246.189 210.24 245.25 210.24ZM247.25 205.088C247.175 204.565 246.951 204.155 246.578 203.856C246.205 203.547 245.762 203.392 245.25 203.392C244.717 203.392 244.253 203.541 243.858 203.84C243.474 204.139 243.234 204.555 243.138 205.088H247.25ZM252.776 210.064C252.36 210.064 252.029 209.936 251.784 209.68C251.549 209.424 251.432 209.077 251.432 208.64V203.52H249.96V202H251.464V199.84H253.368V202H255.256V203.52H253.4V207.984C253.4 208.155 253.437 208.283 253.512 208.368C253.587 208.443 253.72 208.48 253.912 208.48H255.256V210.064H252.776Z" fill="#0A0B0D"/>
<path fill-rule="evenodd" clip-rule="evenodd" d="M350.631 204L344.065 210.566L342.934 209.435L348.368 204L342.934 198.566L344.065 197.435L350.631 204Z" fill="#5B616E"/>
<rect x="20" y="244" width="32" height="32" rx="16" fill="#EEF0F3"/>
<path d="M36.0014 263.495C34.064 263.495 32.4949 261.929 32.4949 259.995C32.4949 258.061 34.064 256.495 36.0014 256.495C37.7372 256.495 39.1778 257.758 39.4554 259.412H42.9883C42.6902 255.818 39.6775 252.995 36.0014 252.995C32.1296 252.995 28.9883 256.131 28.9883 259.995C28.9883 263.86 32.1296 266.995 36.0014 266.995C39.6775 266.995 42.6902 264.172 42.9883 260.578H39.4554C39.1778 262.232 37.7372 263.495 36.0014 263.495Z" fill="#0A0B0D"/>
<path d="M74.24 266.24C73.1947 266.24 72.2453 265.995 71.392 265.504C70.5387 265.013 69.8667 264.331 69.376 263.456C68.896 262.581 68.656 261.595 68.656 260.496C68.656 259.397 68.9013 258.411 69.392 257.536C69.8827 256.651 70.5493 255.963 71.392 255.472C72.2453 254.971 73.1947 254.72 74.24 254.72C75.1467 254.72 75.9733 254.896 76.72 255.248C77.4773 255.589 78.1067 256.08 78.608 256.72C79.1093 257.349 79.4453 258.075 79.616 258.896H77.408C77.184 258.213 76.7893 257.669 76.224 257.264C75.6693 256.848 75.008 256.64 74.24 256.64C73.568 256.64 72.976 256.805 72.464 257.136C71.952 257.467 71.5573 257.925 71.28 258.512C71.0027 259.088 70.864 259.744 70.864 260.48C70.864 261.205 71.0027 261.861 71.28 262.448C71.5573 263.024 71.952 263.483 72.464 263.824C72.976 264.155 73.568 264.32 74.24 264.32C74.9867 264.32 75.6373 264.133 76.192 263.76C76.7467 263.376 77.136 262.864 77.36 262.224H79.6C79.4187 263.013 79.0773 263.712 78.576 264.32C78.0747 264.928 77.4507 265.403 76.704 265.744C75.9573 266.075 75.136 266.24 74.24 266.24ZM84.8766 266.24C84.0873 266.24 83.3726 266.059 82.7326 265.696C82.1033 265.333 81.6073 264.832 81.2446 264.192C80.882 263.541 80.7006 262.811 80.7006 262C80.7006 261.189 80.882 260.464 81.2446 259.824C81.6073 259.173 82.1033 258.667 82.7326 258.304C83.3726 257.941 84.0873 257.76 84.8766 257.76C85.6553 257.76 86.3646 257.941 87.0046 258.304C87.6446 258.667 88.146 259.173 88.5086 259.824C88.8713 260.464 89.0526 261.189 89.0526 262C89.0526 262.811 88.8713 263.541 88.5086 264.192C88.146 264.832 87.6446 265.333 87.0046 265.696C86.3646 266.059 85.6553 266.24 84.8766 266.24ZM84.8766 264.432C85.4953 264.432 86.002 264.208 86.3966 263.76C86.802 263.312 87.0046 262.725 87.0046 262C87.0046 261.275 86.802 260.688 86.3966 260.24C86.002 259.792 85.4953 259.568 84.8766 259.568C84.2473 259.568 83.7353 259.792 83.3406 260.24C82.946 260.688 82.7486 261.275 82.7486 262C82.7486 262.725 82.946 263.312 83.3406 263.76C83.7353 264.208 84.2473 264.432 84.8766 264.432ZM90.7294 258H92.7294V258.944H93.0174C93.2627 258.549 93.572 258.256 93.9454 258.064C94.3187 257.861 94.7347 257.76 95.1934 257.76C96.004 257.76 96.6494 258.021 97.1294 258.544C97.62 259.056 97.8654 259.755 97.8654 260.64V266H95.8654V261.264C95.8654 260.773 95.7427 260.373 95.4974 260.064C95.252 259.744 94.8734 259.584 94.3614 259.584C93.86 259.584 93.46 259.749 93.1614 260.08C92.8734 260.4 92.7294 260.795 92.7294 261.264V266H90.7294V258ZM100.026 258H102.026V258.944H102.314C102.56 258.549 102.869 258.256 103.242 258.064C103.616 257.861 104.032 257.76 104.49 257.76C105.301 257.76 105.946 258.021 106.426 258.544C106.917 259.056 107.162 259.755 107.162 260.64V266H105.162V261.264C105.162 260.773 105.04 260.373 104.794 260.064C104.549 259.744 104.17 259.584 103.658 259.584C103.157 259.584 102.757 259.749 102.458 260.08C102.17 260.4 102.026 260.795 102.026 261.264V266H100.026V258ZM112.875 266.24C112.064 266.24 111.35 266.064 110.731 265.712C110.112 265.36 109.632 264.864 109.291 264.224C108.95 263.584 108.779 262.837 108.779 261.984C108.779 261.152 108.955 260.416 109.307 259.776C109.659 259.136 110.144 258.64 110.763 258.288C111.392 257.936 112.102 257.76 112.891 257.76C113.702 257.76 114.4 257.947 114.987 258.32C115.584 258.693 116.038 259.205 116.347 259.856C116.667 260.507 116.827 261.243 116.827 262.064V262.416H110.731C110.774 263.067 110.998 263.584 111.403 263.968C111.808 264.341 112.299 264.528 112.875 264.528C113.76 264.528 114.347 264.235 114.635 263.648H116.683C116.47 264.416 116.016 265.04 115.323 265.52C114.63 266 113.814 266.24 112.875 266.24ZM114.875 261.088C114.8 260.565 114.576 260.155 114.203 259.856C113.83 259.547 113.387 259.392 112.875 259.392C112.342 259.392 111.878 259.541 111.483 259.84C111.099 260.139 110.859 260.555 110.763 261.088H114.875ZM122.079 266.24C121.3 266.24 120.596 266.059 119.967 265.696C119.337 265.333 118.841 264.832 118.479 264.192C118.127 263.552 117.951 262.821 117.951 262C117.951 261.179 118.127 260.448 118.479 259.808C118.841 259.168 119.337 258.667 119.967 258.304C120.596 257.941 121.3 257.76 122.079 257.76C123.081 257.76 123.935 258.043 124.639 258.608C125.353 259.173 125.801 259.925 125.983 260.864H123.999C123.86 260.459 123.625 260.144 123.295 259.92C122.975 259.685 122.575 259.568 122.095 259.568C121.476 259.568 120.969 259.792 120.575 260.24C120.191 260.677 119.999 261.259 119.999 261.984C119.999 262.731 120.191 263.328 120.575 263.776C120.969 264.213 121.476 264.432 122.095 264.432C122.585 264.432 122.996 264.315 123.327 264.08C123.657 263.835 123.897 263.499 124.047 263.072H126.031C125.871 264.011 125.428 264.773 124.703 265.36C123.988 265.947 123.113 266.24 122.079 266.24ZM129.557 266.064C129.141 266.064 128.81 265.936 128.565 265.68C128.33 265.424 128.213 265.077 128.213 264.64V259.52H126.741V258H128.245V255.84H130.149V258H132.037V259.52H130.181V263.984C130.181 264.155 130.218 264.283 130.293 264.368C130.368 264.443 130.501 264.48 130.693 264.48H132.037V266.064H129.557ZM139.026 266.064C138.61 266.064 138.279 265.936 138.034 265.68C137.799 265.424 137.682 265.077 137.682 264.64V259.52H136.21V258H137.714V255.84H139.618V258H141.506V259.52H139.65V263.984C139.65 264.155 139.687 264.283 139.762 264.368C139.837 264.443 139.97 264.48 140.162 264.48H141.506V266.064H139.026ZM146.611 266.24C145.822 266.24 145.107 266.059 144.467 265.696C143.838 265.333 143.342 264.832 142.979 264.192C142.616 263.541 142.435 262.811 142.435 262C142.435 261.189 142.616 260.464 142.979 259.824C143.342 259.173 143.838 258.667 144.467 258.304C145.107 257.941 145.822 257.76 146.611 257.76C147.39 257.76 148.099 257.941 148.739 258.304C149.379 258.667 149.88 259.173 150.243 259.824C150.606 260.464 150.787 261.189 150.787 262C150.787 262.811 150.606 263.541 150.243 264.192C149.88 264.832 149.379 265.333 148.739 265.696C148.099 266.059 147.39 266.24 146.611 266.24ZM146.611 264.432C147.23 264.432 147.736 264.208 148.131 263.76C148.536 263.312 148.739 262.725 148.739 262C148.739 261.275 148.536 260.688 148.131 260.24C147.736 259.792 147.23 259.568 146.611 259.568C145.982 259.568 145.47 259.792 145.075 260.24C144.68 260.688 144.483 261.275 144.483 262C144.483 262.725 144.68 263.312 145.075 263.76C145.47 264.208 145.982 264.432 146.611 264.432ZM161.131 266.24C160.085 266.24 159.136 265.995 158.283 265.504C157.429 265.013 156.757 264.331 156.267 263.456C155.787 262.581 155.547 261.595 155.547 260.496C155.547 259.397 155.792 258.411 156.283 257.536C156.773 256.651 157.44 255.963 158.283 255.472C159.136 254.971 160.085 254.72 161.131 254.72C162.037 254.72 162.864 254.896 163.611 255.248C164.368 255.589 164.997 256.08 165.499 256.72C166 257.349 166.336 258.075 166.507 258.896H164.299C164.075 258.213 163.68 257.669 163.115 257.264C162.56 256.848 161.899 256.64 161.131 256.64C160.459 256.64 159.867 256.805 159.355 257.136C158.843 257.467 158.448 257.925 158.171 258.512C157.893 259.088 157.755 259.744 157.755 260.48C157.755 261.205 157.893 261.861 158.171 262.448C158.448 263.024 158.843 263.483 159.355 263.824C159.867 264.155 160.459 264.32 161.131 264.32C161.877 264.32 162.528 264.133 163.083 263.76C163.637 263.376 164.027 262.864 164.251 262.224H166.491C166.309 263.013 165.968 263.712 165.467 264.32C164.965 264.928 164.341 265.403 163.595 265.744C162.848 266.075 162.027 266.24 161.131 266.24ZM171.767 266.24C170.978 266.24 170.263 266.059 169.623 265.696C168.994 265.333 168.498 264.832 168.135 264.192C167.773 263.541 167.591 262.811 167.591 262C167.591 261.189 167.773 260.464 168.135 259.824C168.498 259.173 168.994 258.667 169.623 258.304C170.263 257.941 170.978 257.76 171.767 257.76C172.546 257.76 173.255 257.941 173.895 258.304C174.535 258.667 175.037 259.173 175.399 259.824C175.762 260.464 175.943 261.189 175.943 262C175.943 262.811 175.762 263.541 175.399 264.192C175.037 264.832 174.535 265.333 173.895 265.696C173.255 266.059 172.546 266.24 171.767 266.24ZM171.767 264.432C172.386 264.432 172.893 264.208 173.287 263.76C173.693 263.312 173.895 262.725 173.895 262C173.895 261.275 173.693 260.688 173.287 260.24C172.893 259.792 172.386 259.568 171.767 259.568C171.138 259.568 170.626 259.792 170.231 260.24C169.837 260.688 169.639 261.275 169.639 262C169.639 262.725 169.837 263.312 170.231 263.76C170.626 264.208 171.138 264.432 171.767 264.432ZM177.62 258H179.62V266H177.62V258ZM177.604 254.96H179.636V256.96H177.604V254.96ZM181.854 258H183.854V258.944H184.142C184.388 258.549 184.697 258.256 185.07 258.064C185.444 257.861 185.86 257.76 186.318 257.76C187.129 257.76 187.774 258.021 188.254 258.544C188.745 259.056 188.99 259.755 188.99 260.64V266H186.99V261.264C186.99 260.773 186.868 260.373 186.622 260.064C186.377 259.744 185.998 259.584 185.486 259.584C184.985 259.584 184.585 259.749 184.286 260.08C183.998 260.4 183.854 260.795 183.854 261.264V266H181.854V258ZM195.663 266.24C195.194 266.24 194.762 266.149 194.367 265.968C193.983 265.776 193.674 265.477 193.439 265.072H193.151V266H191.151V254.96H193.151V258.976H193.439C193.685 258.56 194.015 258.256 194.431 258.064C194.858 257.861 195.306 257.76 195.775 257.76C196.49 257.76 197.119 257.936 197.663 258.288C198.207 258.64 198.629 259.136 198.927 259.776C199.237 260.405 199.391 261.12 199.391 261.92C199.391 262.731 199.226 263.467 198.895 264.128C198.575 264.789 198.133 265.307 197.567 265.68C197.002 266.053 196.367 266.24 195.663 266.24ZM195.231 264.448C195.85 264.448 196.357 264.219 196.751 263.76C197.146 263.301 197.343 262.715 197.343 262C197.343 261.285 197.141 260.699 196.735 260.24C196.341 259.781 195.839 259.552 195.231 259.552C194.623 259.552 194.122 259.776 193.727 260.224C193.343 260.672 193.151 261.264 193.151 262C193.151 262.736 193.343 263.328 193.727 263.776C194.122 264.224 194.623 264.448 195.231 264.448ZM203.361 266.24C202.571 266.24 201.91 266.016 201.377 265.568C200.843 265.12 200.577 264.528 200.577 263.792C200.577 262.96 200.849 262.352 201.393 261.968C201.937 261.584 202.678 261.344 203.617 261.248L205.969 261.008V260.56C205.969 260.208 205.83 259.925 205.553 259.712C205.286 259.499 204.907 259.392 204.417 259.392C203.958 259.392 203.59 259.488 203.313 259.68C203.035 259.861 202.849 260.112 202.753 260.432H200.833C200.929 259.643 201.291 259.003 201.921 258.512C202.55 258.011 203.382 257.76 204.417 257.76C205.462 257.76 206.289 258.011 206.897 258.512C207.515 259.013 207.825 259.739 207.825 260.688V264.592C207.825 264.859 207.83 265.12 207.841 265.376C207.862 265.621 207.883 265.819 207.905 265.968V266H205.985C205.974 265.819 205.969 265.552 205.969 265.2H205.681C205.254 265.893 204.481 266.24 203.361 266.24ZM202.593 263.696C202.593 264.016 202.71 264.272 202.945 264.464C203.19 264.645 203.51 264.736 203.905 264.736C204.321 264.736 204.683 264.645 204.993 264.464C205.313 264.272 205.553 264.021 205.713 263.712C205.883 263.403 205.969 263.077 205.969 262.736V262.336L204.209 262.544C203.654 262.608 203.243 262.731 202.977 262.912C202.721 263.093 202.593 263.355 202.593 263.696ZM213.003 266.24C211.99 266.24 211.147 266.005 210.475 265.536C209.814 265.067 209.43 264.437 209.323 263.648H211.291C211.398 263.979 211.606 264.229 211.915 264.4C212.235 264.571 212.603 264.656 213.019 264.656C213.425 264.656 213.761 264.576 214.027 264.416C214.305 264.245 214.443 264.016 214.443 263.728C214.443 263.461 214.326 263.269 214.091 263.152C213.857 263.024 213.494 262.917 213.003 262.832L212.155 262.688C211.313 262.549 210.667 262.293 210.219 261.92C209.782 261.536 209.563 260.997 209.563 260.304C209.563 259.536 209.867 258.923 210.475 258.464C211.083 257.995 211.873 257.76 212.843 257.76C213.771 257.76 214.529 257.968 215.115 258.384C215.713 258.789 216.097 259.371 216.267 260.128H214.347C214.241 259.851 214.054 259.643 213.787 259.504C213.521 259.365 213.211 259.296 212.859 259.296C212.454 259.296 212.129 259.376 211.883 259.536C211.638 259.696 211.515 259.899 211.515 260.144C211.515 260.389 211.611 260.571 211.803 260.688C211.995 260.795 212.326 260.885 212.795 260.96L213.643 261.104C214.497 261.243 215.163 261.504 215.643 261.888C216.134 262.272 216.379 262.827 216.379 263.552C216.379 264.384 216.065 265.04 215.435 265.52C214.817 266 214.006 266.24 213.003 266.24ZM221.578 266.24C220.768 266.24 220.053 266.064 219.434 265.712C218.816 265.36 218.336 264.864 217.994 264.224C217.653 263.584 217.482 262.837 217.482 261.984C217.482 261.152 217.658 260.416 218.01 259.776C218.362 259.136 218.848 258.64 219.466 258.288C220.096 257.936 220.805 257.76 221.594 257.76C222.405 257.76 223.104 257.947 223.69 258.32C224.288 258.693 224.741 259.205 225.05 259.856C225.37 260.507 225.53 261.243 225.53 262.064V262.416H219.434C219.477 263.067 219.701 263.584 220.106 263.968C220.512 264.341 221.002 264.528 221.578 264.528C222.464 264.528 223.05 264.235 223.338 263.648H225.386C225.173 264.416 224.72 265.04 224.026 265.52C223.333 266 222.517 266.24 221.578 266.24ZM223.578 261.088C223.504 260.565 223.28 260.155 222.906 259.856C222.533 259.547 222.09 259.392 221.578 259.392C221.045 259.392 220.581 259.541 220.186 259.84C219.802 260.139 219.562 260.555 219.466 261.088H223.578Z" fill="#0A0B0D"/>
<path fill-rule="evenodd" clip-rule="evenodd" d="M350.631 260L344.065 266.566L342.934 265.435L348.368 260L342.934 254.566L344.065 253.435L350.631 260Z" fill="#5B616E"/>
</svg>