<svg width="671" height="565" viewBox="0 0 671 565" fill="none" xmlns="http://www.w3.org/2000/svg">
<path d="M0 7.99998C0 3.5817 3.58172 0 8 0H663C667.418 0 671 3.58172 671 8V556.083C671 560.502 667.418 564.083 663 564.083H7.99998C3.58171 564.083 0 560.502 0 556.083V7.99998Z" fill="#FAFAFA"/>
<path d="M435.085 42.5376C448.307 42.5376 457.339 53.0595 457.339 66.9334C457.339 81.273 447.748 91.888 434.712 91.888C427.729 91.888 421.583 88.629 418.79 82.6697H417.393V108.183H410.316V43.9343H417.393V51.9421H418.79C421.676 45.8897 427.822 42.5376 435.085 42.5376ZM433.595 48.7762C424.283 48.7762 417.207 56.5978 417.207 67.2128C417.207 77.8278 424.283 85.6493 433.595 85.6493C443.651 85.6493 449.983 77.4553 449.983 67.2128C449.983 56.9703 443.465 48.7762 433.595 48.7762Z" fill="#0A0B0D"/>
<path d="M378.296 42.5376C391.518 42.5376 400.55 53.0595 400.55 66.9334C400.55 81.273 390.959 91.888 377.923 91.888C370.94 91.888 364.794 88.629 362.001 82.6697H360.604V108.183H353.527V43.9343H360.604V51.9421H362.001C364.887 45.8897 371.033 42.5376 378.296 42.5376ZM376.806 48.7762C367.494 48.7762 360.418 56.5978 360.418 67.2128C360.418 77.8278 367.494 85.6493 376.806 85.6493C386.862 85.6493 393.194 77.4553 393.194 67.2128C393.194 56.9703 386.676 48.7762 376.806 48.7762Z" fill="#0A0B0D"/>
<path d="M317.232 91.888C308.107 91.888 300.844 86.5805 300.844 77.7347C300.844 67.4921 309.69 64.5125 319.932 63.3951L333.806 61.9053V59.3912C333.806 52.687 329.709 48.4038 322.074 48.4038C315.37 48.4038 310.714 51.6628 309.596 57.6221H302.613C303.823 48.8693 311.086 42.5376 322.074 42.5376C333.992 42.5376 340.603 48.9625 340.603 59.5774V82.3904C340.603 85.1838 340.883 89.1877 341.069 90.305V90.4913H333.899C333.806 88.9083 333.806 86.4874 333.806 84.2526H332.316C329.709 89.1877 323.936 91.888 317.232 91.888ZM308.2 77.3622C308.2 83.0421 312.762 86.208 318.815 86.208C328.126 86.208 333.806 79.4107 333.806 72.7065V67.1197L322.446 68.4233C313.973 69.4475 308.2 71.496 308.2 77.3622Z" fill="#0A0B0D"/>
<path d="M118.076 91.888C112.955 91.888 108.02 90.0257 105.134 85.0907H103.458V90.4913H91.8184V26.2427H103.458V49.6143H105.134C108.113 44.493 113.7 42.5376 118.728 42.5376C131.299 42.5376 139.772 52.5939 139.772 66.7472C139.772 81.1799 130.461 91.888 118.076 91.888ZM115.562 81.4592C122.732 81.4592 127.853 75.593 127.853 67.2128C127.853 58.8325 122.639 52.9664 115.562 52.9664C108.579 52.9664 103.458 58.5532 103.458 67.2128C103.458 75.8724 108.579 81.4592 115.562 81.4592ZM161.281 91.888C152.342 91.888 145.08 86.4874 145.08 77.6415C145.08 67.2128 153.087 63.8607 162.771 62.8364L176.459 61.4397V58.8325C176.459 54.8286 173.2 52.0352 167.427 52.0352C161.933 52.0352 158.767 54.4562 157.743 58.0876H146.569C147.687 49.2418 155.043 42.5376 167.427 42.5376C179.345 42.5376 187.26 48.3107 187.26 59.5775V82.2972C187.26 85.1838 187.539 89.1877 187.726 90.305V90.4913H176.552C176.459 88.9083 176.459 87.4185 176.459 85.8356H174.783C171.896 90.4913 166.868 91.888 161.281 91.888ZM164.447 83.1353C172.083 83.1353 176.459 77.3622 176.459 71.496V69.1682L166.216 70.3787C159.885 71.1236 156.812 72.9859 156.812 77.0829C156.812 80.9005 159.978 83.1353 164.447 83.1353ZM215.194 91.888C203.462 91.888 195.082 86.0218 193.778 76.8035H205.231C206.535 80.9005 210.818 82.6697 215.287 82.6697C219.85 82.6697 223.575 80.7143 223.575 77.2691C223.575 73.8239 220.036 72.8927 215.194 72.0547L210.259 71.2167C200.948 69.6338 195.175 65.723 195.175 57.3427C195.175 48.2176 203.183 42.5376 214.263 42.5376C225.064 42.5376 232.234 47.5658 234.189 56.3185H223.016C221.712 52.8733 218.267 51.4765 214.356 51.4765C209.607 51.4765 206.535 53.5251 206.535 56.4116C206.535 59.3912 208.956 60.3224 213.984 61.1604L218.919 61.9984C227.951 63.4882 234.841 67.2128 234.841 76.2448C234.841 86.1149 226.647 91.888 215.194 91.888ZM263.986 91.888C249.646 91.888 240.149 82.111 240.149 67.1197C240.149 52.4077 250.205 42.5376 264.079 42.5376C278.605 42.5376 286.985 53.3388 286.985 67.5853V69.6338H251.509C252.067 77.3622 257.468 81.9248 263.986 81.9248C269.387 81.9248 272.646 80.0625 274.228 76.8035H286.147C283.726 85.5562 275.067 91.888 263.986 91.888ZM275.625 61.9053C274.694 55.6667 269.759 52.0352 263.986 52.0352C257.934 52.0352 252.812 55.5736 251.695 61.9053H275.625Z" fill="#0A0B0D"/>
<path d="M30.1528 90.4913C28.2905 90.4913 27.3594 89.5601 27.3594 87.6979V46.7277C27.3594 44.8655 28.2905 43.9343 30.1528 43.9343H71.1229C72.9852 43.9343 73.9163 44.8655 73.9163 46.7277V87.6979C73.9163 89.5601 72.9852 90.4913 71.1229 90.4913H30.1528Z" fill="#0000FF"/>
<path d="M471.223 208.225C458.001 208.225 448.969 197.704 448.969 183.83C448.969 169.49 458.559 158.875 471.595 158.875C478.579 158.875 484.724 162.134 487.518 168.093H488.915V142.58H495.991V206.829H488.915V198.821H487.518C484.631 204.873 478.486 208.225 471.223 208.225ZM472.713 201.987C482.024 201.987 489.101 194.165 489.101 183.55C489.101 172.935 482.024 165.114 472.713 165.114C462.657 165.114 456.325 173.308 456.325 183.55C456.325 193.793 462.843 201.987 472.713 201.987Z" fill="#0A0B0D"/>
<path d="M432.098 206.829V142.58H439.174V206.829H432.098Z" fill="#0A0B0D"/>
<path d="M411.41 206.829V160.272H418.486V206.829H411.41ZM411.316 151.053V142.58H418.579V151.053H411.316Z" fill="#0A0B0D"/>
<path d="M379.423 208.225C367.504 208.225 360.148 200.963 360.148 188.299V160.272H367.225V188.206C367.225 196.214 371.415 201.894 379.423 201.894C387.431 201.894 391.621 196.214 391.621 188.206V160.272H398.698V188.392C398.698 200.963 391.342 208.225 379.423 208.225Z" fill="#0A0B0D"/>
<path d="M328.593 208.225C322.075 208.225 315.65 205.339 312.671 199.007H311.274V206.829H304.197V142.58H311.274V168.559H312.671C315.557 162.32 321.796 158.875 328.966 158.875C342.188 158.875 351.313 169.397 351.313 183.271C351.313 197.61 341.815 208.225 328.593 208.225ZM327.569 201.987C337.532 201.987 343.957 193.793 343.957 183.55C343.957 173.308 337.346 165.114 327.569 165.114C318.164 165.114 311.088 172.935 311.088 183.55C311.088 194.165 318.164 201.987 327.569 201.987Z" fill="#0A0B0D"/>
<path d="M118.076 208.225C112.955 208.225 108.02 206.363 105.134 201.428H103.458V206.829H91.8184V142.58H103.458V165.952H105.134C108.113 160.83 113.7 158.875 118.728 158.875C131.299 158.875 139.772 168.931 139.772 183.085C139.772 197.517 130.461 208.225 118.076 208.225ZM115.562 197.797C122.732 197.797 127.853 191.93 127.853 183.55C127.853 175.17 122.639 169.304 115.562 169.304C108.579 169.304 103.458 174.891 103.458 183.55C103.458 192.21 108.579 197.797 115.562 197.797ZM161.281 208.225C152.342 208.225 145.08 202.825 145.08 193.979C145.08 183.55 153.087 180.198 162.771 179.174L176.459 177.777V175.17C176.459 171.166 173.2 168.373 167.427 168.373C161.933 168.373 158.767 170.794 157.743 174.425H146.569C147.687 165.579 155.043 158.875 167.427 158.875C179.345 158.875 187.26 164.648 187.26 175.915V198.635C187.26 201.521 187.539 205.525 187.726 206.642V206.829H176.552C176.459 205.246 176.459 203.756 176.459 202.173H174.783C171.896 206.829 166.868 208.225 161.281 208.225ZM164.447 199.473C172.083 199.473 176.459 193.7 176.459 187.833V185.506L166.216 186.716C159.885 187.461 156.812 189.323 156.812 193.42C156.812 197.238 159.978 199.473 164.447 199.473ZM215.194 208.225C203.462 208.225 195.082 202.359 193.778 193.141H205.231C206.535 197.238 210.818 199.007 215.287 199.007C219.85 199.007 223.575 197.052 223.575 193.606C223.575 190.161 220.036 189.23 215.194 188.392L210.259 187.554C200.948 185.971 195.175 182.06 195.175 173.68C195.175 164.555 203.183 158.875 214.263 158.875C225.064 158.875 232.234 163.903 234.189 172.656H223.016C221.712 169.211 218.267 167.814 214.356 167.814C209.607 167.814 206.535 169.862 206.535 172.749C206.535 175.729 208.956 176.66 213.984 177.498L218.919 178.336C227.951 179.826 234.841 183.55 234.841 192.582C234.841 202.452 226.647 208.225 215.194 208.225ZM263.986 208.225C249.646 208.225 240.149 198.448 240.149 183.457C240.149 168.745 250.205 158.875 264.079 158.875C278.605 158.875 286.985 169.676 286.985 183.923V185.971H251.509C252.067 193.7 257.468 198.262 263.986 198.262C269.387 198.262 272.646 196.4 274.228 193.141H286.147C283.726 201.894 275.067 208.225 263.986 208.225ZM275.625 178.243C274.694 172.004 269.759 168.373 263.986 168.373C257.934 168.373 252.812 171.911 251.695 178.243H275.625Z" fill="#0A0B0D"/>
<path d="M30.1528 206.829C28.2905 206.829 27.3594 205.898 27.3594 204.035V163.065C27.3594 161.203 28.2905 160.272 30.1528 160.272H71.1229C72.9852 160.272 73.9163 161.203 73.9163 163.065V204.035C73.9163 205.898 72.9852 206.829 71.1229 206.829H30.1528Z" fill="#0000FF"/>
<path d="M477.336 314.632V268.075H484.413V274.5H485.809C488.789 269.378 494.003 266.678 500.149 266.678C509.833 266.678 516.351 273.382 516.351 283.997V314.632H509.274V286.046C509.274 278.503 505.549 273.103 497.635 273.103C489.813 273.103 484.413 279.248 484.413 286.046V314.632H477.336Z" fill="#0A0B0D"/>
<path d="M456.648 314.632V268.075H463.724V314.632H456.648ZM456.555 258.856V250.383H463.818V258.856H456.555Z" fill="#0A0B0D"/>
<path d="M420.353 316.028C411.228 316.028 403.965 310.721 403.965 301.875C403.965 291.633 412.811 288.653 423.053 287.535L436.927 286.046V283.532C436.927 276.827 432.83 272.544 425.195 272.544C418.491 272.544 413.835 275.803 412.718 281.762H405.734C406.944 273.01 414.207 266.678 425.195 266.678C437.113 266.678 443.724 273.103 443.724 283.718V306.531C443.724 309.324 444.004 313.328 444.19 314.445V314.632H437.02C436.927 313.049 436.927 310.628 436.927 308.393H435.437C432.83 313.328 427.057 316.028 420.353 316.028ZM411.321 301.503C411.321 307.183 415.883 310.348 421.936 310.348C431.247 310.348 436.927 303.551 436.927 296.847V291.26L425.567 292.564C417.094 293.588 411.321 295.636 411.321 301.503Z" fill="#0A0B0D"/>
<path d="M355.438 314.632V250.383H362.514V274.5H363.911C366.891 269.378 372.105 266.678 378.25 266.678C387.934 266.678 394.452 273.382 394.452 283.997V314.632H387.376V286.046C387.376 278.503 383.651 273.103 375.736 273.103C367.915 273.103 362.514 279.248 362.514 286.046V314.632H355.438Z" fill="#0A0B0D"/>
<path d="M324.216 316.028C311.366 316.028 300.379 306.903 300.379 291.353C300.379 275.803 311.366 266.678 324.216 266.678C335.017 266.678 343.491 272.73 345.912 283.252H338.835C336.786 276.641 331.293 273.01 324.216 273.01C315.463 273.01 307.735 279.621 307.735 291.353C307.735 303.086 315.463 309.697 324.216 309.697C331.293 309.697 336.88 305.972 339.021 299.082H346.191C343.77 309.603 335.297 316.028 324.216 316.028Z" fill="#0A0B0D"/>
<path d="M118.076 316.028C112.955 316.028 108.02 314.166 105.134 309.231H103.458V314.632H91.8184V250.383H103.458V273.755H105.134C108.113 268.633 113.7 266.678 118.728 266.678C131.299 266.678 139.772 276.734 139.772 290.888C139.772 305.32 130.461 316.028 118.076 316.028ZM115.562 305.6C122.732 305.6 127.853 299.733 127.853 291.353C127.853 282.973 122.639 277.107 115.562 277.107C108.579 277.107 103.458 282.694 103.458 291.353C103.458 300.013 108.579 305.6 115.562 305.6ZM161.281 316.028C152.342 316.028 145.08 310.628 145.08 301.782C145.08 291.353 153.087 288.001 162.771 286.977L176.459 285.58V282.973C176.459 278.969 173.2 276.176 167.427 276.176C161.933 276.176 158.767 278.597 157.743 282.228H146.569C147.687 273.382 155.043 266.678 167.427 266.678C179.345 266.678 187.26 272.451 187.26 283.718V306.438C187.26 309.324 187.539 313.328 187.726 314.445V314.632H176.552C176.459 313.049 176.459 311.559 176.459 309.976H174.783C171.896 314.632 166.868 316.028 161.281 316.028ZM164.447 307.276C172.083 307.276 176.459 301.503 176.459 295.636V293.309L166.216 294.519C159.885 295.264 156.812 297.126 156.812 301.223C156.812 305.041 159.978 307.276 164.447 307.276ZM215.194 316.028C203.462 316.028 195.082 310.162 193.778 300.944H205.231C206.535 305.041 210.818 306.81 215.287 306.81C219.85 306.81 223.575 304.855 223.575 301.409C223.575 297.964 220.036 297.033 215.194 296.195L210.259 295.357C200.948 293.774 195.175 289.863 195.175 281.483C195.175 272.358 203.183 266.678 214.263 266.678C225.064 266.678 232.234 271.706 234.189 280.459H223.016C221.712 277.014 218.267 275.617 214.356 275.617C209.607 275.617 206.535 277.665 206.535 280.552C206.535 283.532 208.956 284.463 213.984 285.301L218.919 286.139C227.951 287.629 234.841 291.353 234.841 300.385C234.841 310.255 226.647 316.028 215.194 316.028ZM263.986 316.028C249.646 316.028 240.149 306.251 240.149 291.26C240.149 276.548 250.205 266.678 264.079 266.678C278.605 266.678 286.985 277.479 286.985 291.726V293.774H251.509C252.067 301.503 257.468 306.065 263.986 306.065C269.387 306.065 272.646 304.203 274.228 300.944H286.147C283.726 309.697 275.067 316.028 263.986 316.028ZM275.625 286.046C274.694 279.807 269.759 276.176 263.986 276.176C257.934 276.176 252.812 279.714 251.695 286.046H275.625Z" fill="#0A0B0D"/>
<path d="M30.1528 314.632C28.2905 314.632 27.3594 313.701 27.3594 311.838V270.868C27.3594 269.006 28.2905 268.075 30.1528 268.075H71.1229C72.9852 268.075 73.9163 269.006 73.9163 270.868V311.838C73.9163 313.701 72.9852 314.632 71.1229 314.632H30.1528Z" fill="#0000FF"/>
<path d="M621.882 422.9C616.947 422.9 614.433 420.199 614.433 415.264V381.371H605.494V375.877H614.526V363.307H621.23V375.877H633.242V381.371H621.417V413.495C621.417 416.195 622.441 417.126 625.141 417.126H633.242V422.9H621.882Z" fill="#0A0B0D"/>
<path d="M560.404 422.434V375.877H567.481V382.302H568.878C571.857 377.181 577.072 374.48 583.217 374.48C592.901 374.48 599.419 381.185 599.419 391.8V422.434H592.342V393.848C592.342 386.306 588.618 380.905 580.703 380.905C572.882 380.905 567.481 387.051 567.481 393.848V422.434H560.404Z" fill="#0A0B0D"/>
<path d="M528.417 423.831C516.499 423.831 509.143 416.568 509.143 403.904V375.877H516.219V403.811C516.219 411.819 520.409 417.499 528.417 417.499C536.425 417.499 540.615 411.819 540.615 403.811V375.877H547.692V403.998C547.692 416.568 540.336 423.831 528.417 423.831Z" fill="#0A0B0D"/>
<path d="M476.218 423.831C462.065 423.831 452.102 413.309 452.102 399.063C452.102 384.909 462.065 374.48 476.218 374.48C490.185 374.48 500.241 384.909 500.241 399.063C500.241 413.309 490.185 423.831 476.218 423.831ZM476.218 417.499C486.088 417.499 492.885 409.584 492.885 399.063C492.885 388.727 486.088 380.812 476.218 380.812C466.255 380.812 459.458 388.727 459.458 399.063C459.458 409.584 466.255 417.499 476.218 417.499Z" fill="#0A0B0D"/>
<path d="M424.788 423.831C411.939 423.831 400.951 414.706 400.951 399.156C400.951 383.606 411.939 374.48 424.788 374.48C435.59 374.48 444.063 380.533 446.484 391.055H439.407C437.359 384.444 431.865 380.812 424.788 380.812C416.036 380.812 408.307 387.423 408.307 399.156C408.307 410.888 416.036 417.499 424.788 417.499C431.865 417.499 437.452 413.775 439.593 406.884H446.763C444.342 417.406 435.869 423.831 424.788 423.831Z" fill="#0A0B0D"/>
<path d="M373.548 423.831C360.698 423.831 349.711 414.706 349.711 399.156C349.711 383.606 360.698 374.48 373.548 374.48C384.349 374.48 392.823 380.533 395.244 391.055H388.167C386.118 384.444 380.625 380.812 373.548 380.812C364.795 380.812 357.067 387.423 357.067 399.156C357.067 410.888 364.795 417.499 373.548 417.499C380.625 417.499 386.212 413.775 388.353 406.884H395.523C393.102 417.406 384.629 423.831 373.548 423.831Z" fill="#0A0B0D"/>
<path d="M317.232 423.831C308.107 423.831 300.844 418.523 300.844 409.678C300.844 399.435 309.69 396.455 319.932 395.338L333.806 393.848V391.334C333.806 384.63 329.709 380.347 322.074 380.347C315.37 380.347 310.714 383.606 309.596 389.565H302.613C303.823 380.812 311.086 374.48 322.074 374.48C333.992 374.48 340.603 380.905 340.603 391.52V414.333C340.603 417.127 340.883 421.131 341.069 422.248V422.434H333.899C333.806 420.851 333.806 418.43 333.806 416.195H332.316C329.709 421.131 323.936 423.831 317.232 423.831ZM308.2 409.305C308.2 414.985 312.762 418.151 318.815 418.151C328.126 418.151 333.806 411.354 333.806 404.649V399.063L322.446 400.366C313.973 401.39 308.2 403.439 308.2 409.305Z" fill="#0A0B0D"/>
<path d="M118.076 423.831C112.955 423.831 108.02 421.969 105.134 417.034H103.458V422.434H91.8184V358.186H103.458V381.557H105.134C108.113 376.436 113.7 374.48 118.728 374.48C131.299 374.48 139.772 384.537 139.772 398.69C139.772 413.123 130.461 423.831 118.076 423.831ZM115.562 413.402C122.732 413.402 127.853 407.536 127.853 399.156C127.853 390.775 122.639 384.909 115.562 384.909C108.579 384.909 103.458 390.496 103.458 399.156C103.458 407.815 108.579 413.402 115.562 413.402ZM161.281 423.831C152.342 423.831 145.08 418.43 145.08 409.584C145.08 399.156 153.087 395.804 162.771 394.779L176.459 393.383V390.775C176.459 386.772 173.2 383.978 167.427 383.978C161.933 383.978 158.767 386.399 157.743 390.031H146.569C147.687 381.185 155.043 374.48 167.427 374.48C179.345 374.48 187.26 380.254 187.26 391.52V414.24C187.26 417.127 187.539 421.131 187.726 422.248V422.434H176.552C176.459 420.851 176.459 419.361 176.459 417.778H174.783C171.896 422.434 166.868 423.831 161.281 423.831ZM164.447 415.078C172.083 415.078 176.459 409.305 176.459 403.439V401.111L166.216 402.322C159.885 403.066 156.812 404.929 156.812 409.026C156.812 412.843 159.978 415.078 164.447 415.078ZM215.194 423.831C203.462 423.831 195.082 417.965 193.778 408.746H205.231C206.535 412.843 210.818 414.613 215.287 414.613C219.85 414.613 223.575 412.657 223.575 409.212C223.575 405.767 220.036 404.836 215.194 403.998L210.259 403.16C200.948 401.577 195.175 397.666 195.175 389.286C195.175 380.16 203.183 374.48 214.263 374.48C225.064 374.48 232.234 379.509 234.189 388.261H223.016C221.712 384.816 218.267 383.419 214.356 383.419C209.607 383.419 206.535 385.468 206.535 388.354C206.535 391.334 208.956 392.265 213.984 393.103L218.919 393.941C227.951 395.431 234.841 399.156 234.841 408.188C234.841 418.058 226.647 423.831 215.194 423.831ZM263.986 423.831C249.646 423.831 240.149 414.054 240.149 399.063C240.149 384.351 250.205 374.48 264.079 374.48C278.605 374.48 286.985 385.282 286.985 399.528V401.577H251.509C252.067 409.305 257.468 413.868 263.986 413.868C269.387 413.868 272.646 412.005 274.228 408.746H286.147C283.726 417.499 275.067 423.831 263.986 423.831ZM275.625 393.848C274.694 387.61 269.759 383.978 263.986 383.978C257.934 383.978 252.812 387.516 251.695 393.848H275.625Z" fill="#0A0B0D"/>
<path d="M30.1528 422.434C28.2905 422.434 27.3594 421.503 27.3594 419.641V378.671C27.3594 376.808 28.2905 375.877 30.1528 375.877H71.1229C72.9852 375.877 73.9163 376.808 73.9163 378.671V419.641C73.9163 421.503 72.9852 422.434 71.1229 422.434H30.1528Z" fill="#0000FF"/>
<path d="M404.746 547.928V542.155H412.102C416.199 542.155 417.409 540.851 418.992 536.754L421.134 531.074L403.256 483.679H410.705L424.02 521.577H425.417L439.384 483.679H446.833L423.927 541.13C421.786 546.438 418.992 547.928 413.126 547.928H404.746Z" fill="#0A0B0D"/>
<path d="M374.021 531.633C364.896 531.633 357.633 526.325 357.633 517.48C357.633 507.237 366.479 504.257 376.721 503.14L390.595 501.65V499.136C390.595 492.432 386.498 488.149 378.863 488.149C372.159 488.149 367.503 491.408 366.386 497.367H359.402C360.612 488.614 367.875 482.282 378.863 482.282C390.781 482.282 397.392 488.707 397.392 499.322V522.135C397.392 524.929 397.672 528.933 397.858 530.05V530.236H390.688C390.595 528.653 390.595 526.232 390.595 523.998H389.105C386.498 528.933 380.725 531.633 374.021 531.633ZM364.989 517.107C364.989 522.787 369.551 525.953 375.604 525.953C384.915 525.953 390.595 519.156 390.595 512.451V506.865L379.235 508.168C370.762 509.192 364.989 511.241 364.989 517.107Z" fill="#0A0B0D"/>
<path d="M328.964 482.282C342.186 482.282 351.218 492.804 351.218 506.678C351.218 521.018 341.627 531.633 328.591 531.633C321.608 531.633 315.462 528.374 312.669 522.415H311.272V547.928H304.195V483.679H311.272V491.687H312.669C315.555 485.635 321.701 482.282 328.964 482.282ZM327.474 488.521C318.162 488.521 311.086 496.343 311.086 506.958C311.086 517.573 318.162 525.394 327.474 525.394C337.53 525.394 343.862 517.2 343.862 506.958C343.862 496.715 337.344 488.521 327.474 488.521Z" fill="#0A0B0D"/>
<path d="M118.076 531.633C112.955 531.633 108.02 529.771 105.134 524.836H103.458V530.236H91.8184V465.988H103.458V489.359H105.134C108.113 484.238 113.7 482.282 118.728 482.282C131.299 482.282 139.772 492.339 139.772 506.492C139.772 520.925 130.461 531.633 118.076 531.633ZM115.562 521.204C122.732 521.204 127.853 515.338 127.853 506.958C127.853 498.577 122.639 492.711 115.562 492.711C108.579 492.711 103.458 498.298 103.458 506.958C103.458 515.617 108.579 521.204 115.562 521.204ZM161.281 531.633C152.342 531.633 145.08 526.232 145.08 517.386C145.08 506.958 153.087 503.606 162.771 502.581L176.459 501.185V498.577C176.459 494.574 173.2 491.78 167.427 491.78C161.933 491.78 158.767 494.201 157.743 497.833H146.569C147.687 488.987 155.043 482.282 167.427 482.282C179.345 482.282 187.26 488.056 187.26 499.322V522.042C187.26 524.929 187.539 528.933 187.726 530.05V530.236H176.552C176.459 528.653 176.459 527.163 176.459 525.58H174.783C171.896 530.236 166.868 531.633 161.281 531.633ZM164.447 522.88C172.083 522.88 176.459 517.107 176.459 511.241V508.913L166.216 510.124C159.885 510.868 156.812 512.731 156.812 516.828C156.812 520.645 159.978 522.88 164.447 522.88ZM215.194 531.633C203.462 531.633 195.082 525.767 193.778 516.548H205.231C206.535 520.645 210.818 522.415 215.287 522.415C219.85 522.415 223.575 520.459 223.575 517.014C223.575 513.569 220.036 512.638 215.194 511.8L210.259 510.962C200.948 509.379 195.175 505.468 195.175 497.088C195.175 487.962 203.183 482.282 214.263 482.282C225.064 482.282 232.234 487.311 234.189 496.063H223.016C221.712 492.618 218.267 491.221 214.356 491.221C209.607 491.221 206.535 493.27 206.535 496.156C206.535 499.136 208.956 500.067 213.984 500.905L218.919 501.743C227.951 503.233 234.841 506.958 234.841 515.99C234.841 525.86 226.647 531.633 215.194 531.633ZM263.986 531.633C249.646 531.633 240.149 521.856 240.149 506.865C240.149 492.153 250.205 482.282 264.079 482.282C278.605 482.282 286.985 493.084 286.985 507.33V509.379H251.509C252.067 517.107 257.468 521.67 263.986 521.67C269.387 521.67 272.646 519.807 274.228 516.548H286.147C283.726 525.301 275.067 531.633 263.986 531.633ZM275.625 501.65C274.694 495.412 269.759 491.78 263.986 491.78C257.934 491.78 252.812 495.318 251.695 501.65H275.625Z" fill="#0A0B0D"/>
<path d="M30.1528 530.236C28.2905 530.236 27.3594 529.305 27.3594 527.443V486.473C27.3594 484.61 28.2905 483.679 30.1528 483.679H71.1229C72.9852 483.679 73.9163 484.61 73.9163 486.473V527.443C73.9163 529.305 72.9852 530.236 71.1229 530.236H30.1528Z" fill="#0000FF"/>
</svg>
