<svg width="671" height="126" viewBox="0 0 671 126" fill="none" xmlns="http://www.w3.org/2000/svg">
<rect width="126" height="126" fill="#0A0B0D"/>
<rect x="126" width="126" height="126" fill="#EEF0F3"/>
<path d="M279 78L277 78L277 48L279 48L279 78Z" fill="#0A0B0D"/>
<path d="M264 64L264 62L292 62L292 64L264 64Z" fill="#0A0B0D"/>
<rect x="304" y="0.176758" width="125.646" height="125.646" fill="#0000FF"/>
<path d="M456.646 78L454.646 78L454.646 48L456.646 48L456.646 78Z" fill="#0A0B0D"/>
<path d="M441.646 64L441.646 62L469.646 62L469.646 64L441.646 64Z" fill="#0A0B0D"/>
<rect x="481.646" width="189.353" height="18" fill="#3C8AFF"/>
<rect width="189.353" height="18" transform="matrix(-1 -6.34826e-09 1.20391e-06 -1 671 126)" fill="#FC401F"/>
<rect width="189.353" height="18" transform="matrix(-1 -6.34826e-09 1.20391e-06 -1 671 108)" fill="#FEA8CD"/>
<rect width="189.353" height="18" transform="matrix(-1 -6.34826e-09 1.20391e-06 -1 671 90)" fill="#66C800"/>
<rect width="189.353" height="18" transform="matrix(-1 -6.34826e-09 1.20391e-06 -1 671 72)" fill="#B6F569"/>
<rect width="189.353" height="18" transform="matrix(-1 -6.34826e-09 1.20391e-06 -1 671 54)" fill="#B8A581"/>
<rect width="189.353" height="18" transform="matrix(-1 -6.34826e-09 1.20391e-06 -1 671 36)" fill="#FFD12F"/>
</svg>
