<svg width="1021" height="576" viewBox="0 0 1021 576" fill="none" xmlns="http://www.w3.org/2000/svg">
<g clip-path="url(#clip0_4826_8931)">
<rect width="1021" height="576" rx="8" fill="#FAFAFA"/>
<g clip-path="url(#clip1_4826_8931)">
<rect width="1026" height="577.125" transform="translate(-2 -0.5625)" fill="#0000FF"/>
<path d="M137.846 159.217C127.906 159.217 118.127 155.209 113.157 145.591H110.432V156.812H94.0802V46.1969H110.432V88.5194H113.157C118.127 78.7403 128.227 74.2516 138.647 74.2516C160.931 74.2516 176 91.8859 176 116.093C176 140.781 159.808 159.217 137.846 159.217ZM134.639 144.629C149.228 144.629 159.167 132.605 159.167 116.734C159.167 100.863 149.067 88.84 134.639 88.84C120.692 88.84 110.272 100.222 110.272 116.734C110.272 133.247 120.692 144.629 134.639 144.629ZM213.673 159.217C198.123 159.217 185.619 150.079 185.619 134.85C185.619 116.895 200.207 111.444 217.2 109.681L240.926 107.116V102.787C240.926 93.6494 234.674 87.7178 223.292 87.7178C212.872 87.7178 206.139 92.5272 204.215 100.703H188.504C190.428 85.4734 203.093 74.2516 223.292 74.2516C243.812 74.2516 256.316 84.6719 256.316 103.589V142.705C256.316 147.675 256.797 154.568 257.118 156.492V156.812H241.087C240.926 154.087 240.926 150.721 240.926 147.514H238.201C233.552 155.69 224.254 159.217 213.673 159.217ZM202.291 133.888C202.291 142.064 208.864 146.713 217.841 146.713C232.43 146.713 240.926 135.812 240.926 125.071V118.337L222.491 120.582C209.826 122.025 202.291 125.391 202.291 133.888ZM305.49 159.217C285.611 159.217 271.664 149.598 269.259 133.888H285.451C287.855 142.545 296.192 146.072 305.49 146.072C314.788 146.072 322.643 141.903 322.643 134.689C322.643 127.475 316.07 125.071 306.772 123.628L297.635 122.025C282.245 119.62 271.985 113.368 271.985 98.9397C271.985 84.0306 285.13 74.2516 303.726 74.2516C321.361 74.2516 333.865 82.4275 337.232 97.6572H321.521C318.956 90.4431 312.544 87.0766 303.887 87.0766C294.428 87.0766 288.176 91.5653 288.176 97.6572C288.176 104.07 292.985 106.154 302.765 107.757L311.902 109.36C326.811 111.765 338.514 117.857 338.514 133.407C338.514 149.278 324.567 159.217 305.49 159.217ZM388.215 159.217C363.366 159.217 347.335 141.903 347.335 116.574C347.335 91.7256 364.008 74.2516 387.894 74.2516C412.422 74.2516 427.01 92.5272 427.01 116.734V119.46H363.206C363.847 135.01 374.268 145.11 388.215 145.11C398.956 145.11 405.849 141.262 409.216 133.727H425.888C421.4 148.637 407.132 159.217 388.215 159.217ZM363.687 108.398H410.819C409.376 95.8937 400.399 87.7178 387.894 87.7178C375.71 87.7178 365.771 95.2525 363.687 108.398Z" fill="#EEF0F3"/>
<path d="M576.943 91.5121C576.943 81.733 582.714 76.1221 592.172 76.1221H684.993C694.452 76.1221 700.063 81.733 700.063 91.5121V156.278H675.695V101.612C675.695 98.2452 674.413 96.6421 670.725 96.6421H650.686V156.278H626.319V96.6421H606.28C602.593 96.6421 601.31 98.2452 601.31 101.612V156.278H576.943V91.5121Z" fill="#B1B7C3"/>
<path d="M856.794 165.363V145.324H899.277C904.407 145.324 906.331 143.24 906.331 138.43V122.078H903.124C898.796 130.094 890.299 133.461 880.841 133.461C859.199 133.461 844.61 117.109 844.61 93.703C844.61 70.1371 861.283 52.3424 882.925 52.3424C891.261 52.3424 898.475 55.0677 902.964 62.4421H906.17V54.7471H929.255V143.079C929.255 157.668 921.721 165.363 907.132 165.363H856.794ZM887.895 112.78C898.796 112.78 906.331 104.765 906.331 93.0618C906.331 81.3589 898.796 73.183 887.895 73.183C877.154 73.183 869.298 81.3589 869.298 93.0618C869.298 104.765 877.154 112.78 887.895 112.78Z" fill="#B1B7C3"/>
<path d="M605.091 330.765C584.683 330.765 573.346 320.435 570.952 307.207H578.385C581.66 319.805 592.998 324.718 605.091 324.718C618.949 324.718 628.271 317.537 628.271 307.333C628.271 297.129 621.846 292.72 610.382 289.823L594.887 285.917C585.061 283.398 574.227 277.225 574.227 263.242C574.227 250.141 585.691 240.063 603.076 240.063C621.216 240.063 630.286 249.511 633.058 262.738H625.751C622.35 250.896 614.539 246.109 603.328 246.109C588.841 246.109 581.408 253.542 581.408 262.612C581.408 272.186 586.951 276.721 599.548 279.871L614.917 283.776C624.618 286.295 635.577 292.09 635.577 306.703C635.577 320.435 623.358 330.765 605.091 330.765ZM665.311 328.875L697.183 241.952H707.387L739.763 328.875H732.078L722.378 301.79H682.318L672.744 328.875H665.311ZM684.586 295.618H720.111L703.23 248.503H701.214L684.586 295.618ZM777.819 328.875V241.952H790.92L836.146 322.324H838.161V241.952H845.09V328.875H831.988L786.763 248.503H784.748V328.875H777.819ZM920.482 330.765C900.074 330.765 888.736 320.435 886.343 307.207H893.775C897.051 319.805 908.388 324.718 920.482 324.718C934.339 324.718 943.661 317.537 943.661 307.333C943.661 297.129 937.237 292.72 925.773 289.823L910.278 285.917C900.452 283.398 889.618 277.225 889.618 263.242C889.618 250.141 901.082 240.063 918.466 240.063C936.607 240.063 945.677 249.511 948.448 262.738H941.142C937.741 250.896 929.93 246.109 918.718 246.109C904.231 246.109 896.799 253.542 896.799 262.612C896.799 272.186 902.342 276.721 914.939 279.871L930.308 283.776C940.008 286.295 950.968 292.09 950.968 306.703C950.968 320.435 938.748 330.765 920.482 330.765Z" fill="#EEF0F3"/>
<path d="M327.266 501.062L309.567 495.162L309.567 490.212L327.266 484.569L327.266 488.057L323.29 489.263L323.29 496.445L327.266 497.727L327.266 501.062ZM320.468 495.547L320.468 490.109L312.568 492.495L312.568 493.008L320.468 495.547ZM327.266 471.945L309.567 471.945L309.567 466.456L323.88 460.89L323.88 460.377L309.567 460.377L309.567 457.273L327.266 457.273L327.266 462.762L312.953 468.329L312.953 468.842L327.266 468.842L327.266 471.945ZM327.266 442.848L309.567 442.848L309.567 436C309.567 430.459 313.235 427.253 318.262 427.253C323.29 427.253 327.266 430.459 327.266 436L327.266 442.848ZM324.29 436.564C324.29 432.845 321.905 430.767 318.288 430.767C314.646 430.767 312.543 432.845 312.543 436.564L312.543 439.488L324.29 439.488L324.29 436.564Z" fill="#EEF0F3"/>
<path d="M139.05 341.398C130.862 341.398 125.571 336.359 125.571 327.918V319.73C104.911 315.699 90.1718 298.314 90.1718 275.261C90.1718 248.68 109.572 229.91 134.893 229.91C160.088 229.91 179.614 248.68 179.614 275.261C179.614 299.07 164.623 315.447 144.971 319.604V321.746C144.971 324.517 146.105 325.777 148.876 325.777H158.072V341.398H139.05ZM134.893 302.219C149.002 302.219 158.828 290.63 158.828 275.261C158.828 259.892 149.002 248.302 134.893 248.302C120.784 248.302 110.958 259.892 110.958 275.261C110.958 290.63 120.784 302.219 134.893 302.219Z" fill="#B1B7C3"/>
<path d="M353.416 328.737V241.814H388.941C404.562 241.814 416.151 250.129 416.151 264.994C416.151 275.954 409.853 282.378 401.034 284.646V286.41C410.987 287.921 414.388 292.582 414.64 301.779L415.522 328.737H408.089L407.459 303.29C407.207 293.464 402.168 289.433 391.838 289.433H360.722V328.737H353.416ZM360.722 283.134H387.933C400.531 283.134 408.719 277.339 408.719 266.002C408.719 254.16 400.531 248.113 387.933 248.113H360.722V283.134Z" fill="#B1B7C3"/>
<path d="M350.419 505.828V425.672H361.32V431.924H363.564C366.29 426.634 371.099 423.267 377.832 423.267C384.405 423.267 389.856 426.313 392.741 432.084H394.986C398.352 426.794 404.444 423.267 411.498 423.267C422.399 423.267 429.934 430.802 429.934 444.589V505.828H418.712V446.512C418.712 438.337 415.666 433.207 408.131 433.207C400.757 433.207 395.627 439.138 395.627 446.512V505.828H384.565V446.512C384.565 438.337 381.519 433.207 373.985 433.207C366.61 433.207 361.48 439.298 361.48 446.512V505.828H350.419ZM482.614 508.233C458.727 508.233 441.734 490.117 441.734 465.59C441.734 441.222 458.727 423.267 482.614 423.267C506.34 423.267 523.494 441.222 523.494 465.59C523.494 490.117 506.34 508.233 482.614 508.233ZM482.614 497.332C499.126 497.332 510.829 483.705 510.829 465.59C510.829 447.795 499.126 434.168 482.614 434.168C465.941 434.168 454.399 447.795 454.399 465.59C454.399 483.705 465.941 497.332 482.614 497.332ZM542.348 505.828V425.672H554.532V436.733H556.936C562.066 427.916 571.204 423.267 581.785 423.267C598.457 423.267 609.519 434.81 609.519 453.085V505.828H597.335V456.612C597.335 443.627 591.083 434.329 577.296 434.329C563.99 434.329 554.532 444.909 554.532 456.612V505.828H542.348ZM668.451 508.233C644.565 508.233 627.571 490.117 627.571 465.59C627.571 441.222 644.565 423.267 668.451 423.267C692.177 423.267 709.331 441.222 709.331 465.59C709.331 490.117 692.177 508.233 668.451 508.233ZM668.451 497.332C684.963 497.332 696.666 483.705 696.666 465.59C696.666 447.795 684.963 434.168 668.451 434.168C651.779 434.168 640.236 447.795 640.236 465.59C640.236 483.705 651.779 497.332 668.451 497.332Z" fill="#EEF0F3"/>
<path d="M93.7921 511.341V498.003H119.079V455.071H95.8762V441.872H119.218V428.256C119.218 420.476 124.636 415.057 132.139 415.057H162.983V428.395H141.587C137.974 428.395 136.307 430.34 136.307 433.675V441.872H162.983V455.071H136.446V498.003H165.206V511.341H93.7921Z" fill="#B1B7C3"/>
<line x1="24.1836" y1="199.486" x2="247.871" y2="199.486" stroke="#B1B7C3"/>
<line x1="24.1836" y1="375.296" x2="247.871" y2="375.296" stroke="#B1B7C3"/>
<line x1="276.119" y1="199.486" x2="499.807" y2="199.486" stroke="#B1B7C3"/>
<line x1="276.119" y1="375.296" x2="499.807" y2="375.296" stroke="#B1B7C3"/>
<line x1="527.719" y1="199.486" x2="751.406" y2="199.486" stroke="#B1B7C3"/>
<line x1="527.719" y1="375.296" x2="751.406" y2="375.296" stroke="#B1B7C3"/>
<line x1="514.867" y1="40.0498" x2="514.867" y2="183.716" stroke="#B1B7C3"/>
<line x1="514.867" y1="216.058" x2="514.867" y2="359.724" stroke="#B1B7C3"/>
<line x1="261.652" y1="216.058" x2="261.652" y2="359.724" stroke="#B1B7C3"/>
<line x1="261.652" y1="392.064" x2="261.652" y2="535.731" stroke="#B1B7C3"/>
<line x1="774.527" y1="199.486" x2="998.215" y2="199.486" stroke="#B1B7C3"/>
<line x1="774.527" y1="375.296" x2="998.215" y2="375.296" stroke="#B1B7C3"/>
<line x1="761.68" y1="40.0498" x2="761.68" y2="183.716" stroke="#B1B7C3"/>
<line x1="761.68" y1="392.064" x2="761.68" y2="535.731" stroke="#B1B7C3"/>
<path d="M851.824 518.05V407.434H868.176V437.894H910.178C918.675 437.894 923.484 442.863 923.484 451.68V504.263C923.484 513.08 918.675 518.05 910.178 518.05H851.824ZM901.361 503.942C905.529 503.942 907.132 502.339 907.132 498.331V457.612C907.132 453.604 905.529 452.001 901.361 452.001H868.176V503.942H901.361Z" fill="#B1B7C3"/>
</g>
</g>
<defs>
<clipPath id="clip0_4826_8931">
<rect width="1021" height="576" rx="8" fill="white"/>
</clipPath>
<clipPath id="clip1_4826_8931">
<rect width="1026" height="577.125" fill="white" transform="translate(-2 -0.5625)"/>
</clipPath>
</defs>
</svg>
