<svg width="267" height="45" viewBox="0 0 267 45" fill="none" xmlns="http://www.w3.org/2000/svg">
<path d="M17.3 36C7.5 36 0 28.55 0 18.05C0 7.6 7.55 0 17.5 0C25.85 0 31.9 4.9 33.65 12.3H26.7C25.3 8.5 22.25 6 17.55 6C11.1 6 6.9 11.1 6.9 18C6.9 24.8 11.05 30 17.55 30C23.65 30 27.6 25.9 27.6 20.8L29.85 22.15H17.55V16.65H34.3V20.2C34.3 28.7 27.9 36 17.3 36Z" fill="#0A0B0D"/>
<path d="M47.0266 44.75V39.65H60.4266C62.3266 39.65 63.0266 38.9 63.0266 37.15V31H62.1266C60.5266 34.2 57.4266 35.2 54.6766 35.2C47.8266 35.2 43.2266 30 43.2266 22.6C43.2266 15.15 48.4266 9.5 55.3766 9.5C57.9266 9.5 60.3766 10.35 62.0266 13.3H62.9266V10.25H68.7766V38.6C68.7766 42.55 66.6266 44.75 62.7266 44.75H47.0266ZM56.3266 29.75C60.1766 29.75 62.9766 26.9 62.9766 22.35C62.9766 17.85 60.1766 14.95 56.3266 14.95C52.4266 14.95 49.6266 18 49.6266 22.35C49.6266 26.75 52.4266 29.75 56.3266 29.75Z" fill="#0A0B0D"/>
<path d="M77.8359 35.4V29.5H83.7359C85.1859 29.5 85.7359 28.8 85.7359 27.45V0.749999H92.2859V30.25C92.2859 33.35 90.1859 35.4 87.1859 35.4H77.8359Z" fill="#0A0B0D"/>
<path d="M98.9395 44.75V39.8H102.689C103.889 39.8 104.389 39.2 104.389 38.05V10.25H110.639V39.95C110.639 42.9 108.739 44.75 105.889 44.75H98.9395ZM104.339 7V0.749999H110.689V7H104.339Z" fill="#0A0B0D"/>
<path d="M138.477 36C128.427 36 120.977 28.45 120.977 18C120.977 7.55 128.577 0 138.477 0C148.377 0 155.977 7.55 155.977 18C155.977 28.45 148.577 36 138.477 36ZM140.127 43.75C137.277 43.75 135.377 41.9 135.377 38.95V32.7H141.877V36.9C141.877 38.05 142.377 38.65 143.577 38.65H147.227V43.75H140.127ZM138.477 30C144.777 30 149.077 24.75 149.077 18C149.077 11.25 144.777 6 138.477 6C132.177 6 127.877 11.25 127.877 18C127.877 24.75 132.177 30 138.477 30Z" fill="#0A0B0D"/>
<path d="M167.088 35.25V0.749999H183.488C189.788 0.749999 193.738 4 193.738 9.6C193.738 13.35 192.038 16 188.438 17.35V18.25C191.838 19.05 193.338 21 193.438 24.15L193.788 35.25H187.238L186.988 25.4C186.888 22.3 185.438 21 182.538 21H170.738V15.4H182.338C185.288 15.4 187.138 13.6 187.138 10.85C187.138 8.2 185.238 6.5 182.338 6.5H173.488V16.2L173.588 20.2V35.25H167.088Z" fill="#0A0B0D"/>
<path d="M219.43 36C210.78 36 205.38 30.8 205.38 21.75V0.749999H211.93V21.25C211.93 26.15 214.23 30 219.38 30C224.48 30 226.83 26.15 226.83 21.25V0.749999H233.38V21.75C233.38 30.8 228.08 36 219.43 36Z" fill="#0A0B0D"/>
<path d="M255.793 36C248.993 36 244.743 32 244.743 25.1V10.25H250.993V24.95C250.993 27.95 252.493 30.35 255.793 30.35C259.043 30.35 260.543 27.95 260.543 24.95V10.25H266.793V25.1C266.793 32 262.593 36 255.793 36Z" fill="#0A0B0D"/>
</svg>
