<svg width="444" height="88" viewBox="0 0 444 88" fill="none" xmlns="http://www.w3.org/2000/svg">
<path d="M13.05 36.2002C5.6 36.2002 0 30.6502 0 22.9502C0 15.2502 5.6 9.7002 13.05 9.7002C20.45 9.7002 26.1 15.2502 26.1 22.9502C26.1 30.6502 20.45 36.2002 13.05 36.2002ZM13.05 30.5502C16.9 30.5502 19.7 27.5002 19.7 22.9502C19.7 18.4002 16.9 15.3502 13.05 15.3502C9.15 15.3502 6.4 18.4002 6.4 22.9502C6.4 27.5002 9.15 30.5502 13.05 30.5502Z" fill="#0A0B0D"/>
<path d="M31.3398 35.4502V10.4502H37.5898V13.4002H38.4898C40.0398 10.8502 42.4898 9.7002 45.2898 9.7002C50.3398 9.7002 53.6398 13.1502 53.6398 18.7002V35.4502H47.3898V20.6502C47.3898 17.8502 46.0898 15.4002 42.6898 15.4002C39.4398 15.4002 37.5898 17.8502 37.5898 20.6502V35.4502H31.3398Z" fill="#0A0B0D"/>
<path d="M71.5426 36.2002C64.1926 36.2002 58.6426 30.7502 58.6426 22.9502C58.6426 15.1502 64.1926 9.7002 71.5426 9.7002C77.7926 9.7002 82.5926 13.5502 83.7426 19.4002H77.5426C76.6926 16.9502 74.6926 15.3502 71.5926 15.3502C67.7426 15.3502 65.0426 18.3002 65.0426 22.9002C65.0426 27.6002 67.7426 30.5502 71.5926 30.5502C74.6926 30.5502 76.7926 28.9002 77.6926 26.3002H83.8926C82.8926 32.1502 78.0426 36.2002 71.5426 36.2002Z" fill="#0A0B0D"/>
<path d="M88.7129 35.4502V0.950195H94.9629V13.4002H95.8629C97.4129 10.8502 99.8629 9.7002 102.663 9.7002C107.713 9.7002 111.013 13.1502 111.013 18.7002V35.4502H104.763V20.6502C104.763 17.8502 103.463 15.4002 100.063 15.4002C96.8129 15.4002 94.9629 17.8502 94.9629 20.6502V35.4502H88.7129Z" fill="#0A0B0D"/>
<path d="M124.866 36.2002C120.066 36.2002 116.166 33.3002 116.166 28.5502C116.166 22.9502 120.466 21.1502 125.666 20.6002L133.816 19.7502V23.9002L127.516 24.6502C124.116 25.0502 122.466 26.0502 122.466 28.2502C122.466 30.3002 124.166 31.5002 126.566 31.5002C130.666 31.5002 133.016 28.4002 133.016 25.2502V18.4502C133.016 16.3002 131.266 14.8002 128.166 14.8002C125.216 14.8002 123.516 16.1002 122.966 18.0502H116.966C117.566 13.3002 121.516 9.7002 128.166 9.7002C134.566 9.7002 138.816 12.8002 138.816 18.8502V31.0502C138.816 32.6002 138.966 34.7502 139.066 35.3502V35.4502H133.066C133.016 34.6002 133.016 33.8002 133.016 32.9502H132.116C130.566 35.4502 127.866 36.2002 124.866 36.2002Z" fill="#0A0B0D"/>
<path d="M145.549 35.4502V10.4502H151.799V35.4502H145.549ZM145.499 7.2002V0.950195H151.849V7.2002H145.499Z" fill="#0A0B0D"/>
<path d="M158.781 35.4502V10.4502H165.031V13.4002H165.931C167.481 10.8502 169.931 9.7002 172.731 9.7002C177.781 9.7002 181.081 13.1502 181.081 18.7002V35.4502H174.831V20.6502C174.831 17.8502 173.531 15.4002 170.131 15.4002C166.881 15.4002 165.031 17.8502 165.031 20.6502V35.4502H158.781Z" fill="#0A0B0D"/>
<path d="M198.918 35.4502V10.4502H205.168V35.4502H198.918ZM198.868 7.2002V0.950195H205.218V7.2002H198.868Z" fill="#0A0B0D"/>
<path d="M212.15 35.4502V10.4502H218.4V13.4002H219.3C220.85 10.8502 223.3 9.7002 226.1 9.7002C231.15 9.7002 234.45 13.1502 234.45 18.7002V35.4502H228.2V20.6502C228.2 17.8502 226.9 15.4002 223.5 15.4002C220.25 15.4002 218.4 17.8502 218.4 20.6502V35.4502H212.15Z" fill="#0A0B0D"/>
<path d="M241.203 35.4502V10.4502H247.453V13.4002H248.353C249.903 10.8502 252.353 9.7002 255.153 9.7002C260.203 9.7002 263.503 13.1502 263.503 18.7002V35.4502H257.253V20.6502C257.253 17.8502 255.953 15.4002 252.553 15.4002C249.303 15.4002 247.453 17.8502 247.453 20.6502V35.4502H241.203Z" fill="#0A0B0D"/>
<path d="M281.556 36.2002C274.106 36.2002 268.506 30.6502 268.506 22.9502C268.506 15.2502 274.106 9.7002 281.556 9.7002C288.956 9.7002 294.606 15.2502 294.606 22.9502C294.606 30.6502 288.956 36.2002 281.556 36.2002ZM281.556 30.5502C285.406 30.5502 288.206 27.5002 288.206 22.9502C288.206 18.4002 285.406 15.3502 281.556 15.3502C277.656 15.3502 274.906 18.4002 274.906 22.9502C274.906 27.5002 277.656 30.5502 281.556 30.5502Z" fill="#0A0B0D"/>
<path d="M304.355 35.4502L296.555 10.4502H303.155L308.555 30.3002H309.455L314.755 10.4502H321.155L313.205 35.4502H304.355Z" fill="#0A0B0D"/>
<path d="M331.702 36.2002C326.902 36.2002 323.002 33.3002 323.002 28.5502C323.002 22.9502 327.302 21.1502 332.502 20.6002L340.652 19.7502V23.9002L334.352 24.6502C330.952 25.0502 329.302 26.0502 329.302 28.2502C329.302 30.3002 331.002 31.5002 333.402 31.5002C337.502 31.5002 339.852 28.4002 339.852 25.2502V18.4502C339.852 16.3002 338.102 14.8002 335.002 14.8002C332.052 14.8002 330.352 16.1002 329.802 18.0502H323.802C324.402 13.3002 328.352 9.7002 335.002 9.7002C341.402 9.7002 345.652 12.8002 345.652 18.8502V31.0502C345.652 32.6002 345.802 34.7502 345.902 35.3502V35.4502H339.902C339.852 34.6002 339.852 33.8002 339.852 32.9502H338.952C337.402 35.4502 334.702 36.2002 331.702 36.2002Z" fill="#0A0B0D"/>
<path d="M358.389 35.6502C355.789 35.6502 354.189 33.9502 354.189 31.2002V12.3002L357.089 15.2002H349.589V10.4502H354.289V3.7002H360.239V10.4502H366.139V15.2002H357.439L360.339 12.3002V29.1502C360.339 30.2002 360.739 30.7002 361.939 30.7002H366.139V35.6502H358.389Z" fill="#0A0B0D"/>
<path d="M371.281 35.4502V10.4502H377.531V35.4502H371.281ZM371.231 7.2002V0.950195H377.581V7.2002H371.231Z" fill="#0A0B0D"/>
<path d="M395.814 36.2002C388.364 36.2002 382.764 30.6502 382.764 22.9502C382.764 15.2502 388.364 9.7002 395.814 9.7002C403.214 9.7002 408.864 15.2502 408.864 22.9502C408.864 30.6502 403.214 36.2002 395.814 36.2002ZM395.814 30.5502C399.664 30.5502 402.464 27.5002 402.464 22.9502C402.464 18.4002 399.664 15.3502 395.814 15.3502C391.914 15.3502 389.164 18.4002 389.164 22.9502C389.164 27.5002 391.914 30.5502 395.814 30.5502Z" fill="#0A0B0D"/>
<path d="M414.104 35.4502V10.4502H420.354V13.4002H421.254C422.803 10.8502 425.254 9.7002 428.054 9.7002C433.104 9.7002 436.404 13.1502 436.404 18.7002V35.4502H430.154V20.6502C430.154 17.8502 428.854 15.4002 425.454 15.4002C422.204 15.4002 420.354 17.8502 420.354 20.6502V35.4502H414.104Z" fill="#0A0B0D"/>
<path d="M13.05 87.4502C5.6 87.4502 0 81.9002 0 74.2002C0 66.5002 5.6 60.9502 13.05 60.9502C20.45 60.9502 26.1 66.5002 26.1 74.2002C26.1 81.9002 20.45 87.4502 13.05 87.4502ZM13.05 81.8002C16.9 81.8002 19.7 78.7502 19.7 74.2002C19.7 69.6502 16.9 66.6002 13.05 66.6002C9.15 66.6002 6.4 69.6502 6.4 74.2002C6.4 78.7502 9.15 81.8002 13.05 81.8002Z" fill="#0000FF"/>
<path d="M31.3398 86.7002V61.7002H37.5898V64.6502H38.4898C40.0398 62.1002 42.4898 60.9502 45.2898 60.9502C50.3398 60.9502 53.6398 64.4002 53.6398 69.9502V86.7002H47.3898V71.9002C47.3898 69.1002 46.0898 66.6502 42.6898 66.6502C39.4398 66.6502 37.5898 69.1002 37.5898 71.9002V86.7002H31.3398Z" fill="#0000FF"/>
<path d="M71.5426 87.4502C64.1926 87.4502 58.6426 82.0002 58.6426 74.2002C58.6426 66.4002 64.1926 60.9502 71.5426 60.9502C77.7926 60.9502 82.5926 64.8002 83.7426 70.6502H77.5426C76.6926 68.2002 74.6926 66.6002 71.5926 66.6002C67.7426 66.6002 65.0426 69.5502 65.0426 74.1502C65.0426 78.8502 67.7426 81.8002 71.5926 81.8002C74.6926 81.8002 76.7926 80.1502 77.6926 77.5502H83.8926C82.8926 83.4002 78.0426 87.4502 71.5426 87.4502Z" fill="#0000FF"/>
<path d="M88.7129 86.7002V52.2002H94.9629V64.6502H95.8629C97.4129 62.1002 99.8629 60.9502 102.663 60.9502C107.713 60.9502 111.013 64.4002 111.013 69.9502V86.7002H104.763V71.9002C104.763 69.1002 103.463 66.6502 100.063 66.6502C96.8129 66.6502 94.9629 69.1002 94.9629 71.9002V86.7002H88.7129Z" fill="#0000FF"/>
<path d="M127.366 87.4502C120.616 87.4502 116.066 82.0502 116.066 74.4502C116.066 66.7002 121.066 60.9502 127.716 60.9502C130.466 60.9502 133.116 61.9502 134.666 64.7502H135.566V61.7002H141.766V86.7002H135.566V83.8002H134.666C133.066 86.4002 130.066 87.4502 127.366 87.4502ZM129.066 81.8502C132.816 81.8502 135.566 78.8502 135.566 74.2002C135.566 69.5502 132.816 66.5502 129.066 66.5502C125.216 66.5502 122.466 69.7002 122.466 74.2002C122.466 78.7002 125.266 81.8502 129.066 81.8502Z" fill="#0000FF"/>
<path d="M148.771 86.7002V61.7002H155.021V86.7002H148.771ZM148.721 58.4502V52.2002H155.071V58.4502H148.721Z" fill="#0000FF"/>
<path d="M162.004 86.7002V61.7002H168.254V64.6502H169.154C170.704 62.1002 173.154 60.9502 175.954 60.9502C181.004 60.9502 184.304 64.4002 184.304 69.9502V86.7002H178.054V71.9002C178.054 69.1002 176.754 66.6502 173.354 66.6502C170.104 66.6502 168.254 69.1002 168.254 71.9002V86.7002H162.004Z" fill="#0000FF"/>
<path d="M202.141 86.7002V61.7002H208.391V86.7002H202.141ZM202.091 58.4502V52.2002H208.441V58.4502H202.091Z" fill="#0000FF"/>
<path d="M215.373 86.7002V61.7002H221.623V64.6502H222.523C224.073 62.1002 226.523 60.9502 229.323 60.9502C234.373 60.9502 237.673 64.4002 237.673 69.9502V86.7002H231.423V71.9002C231.423 69.1002 230.123 66.6502 226.723 66.6502C223.473 66.6502 221.623 69.1002 221.623 71.9002V86.7002H215.373Z" fill="#0000FF"/>
<path d="M244.426 86.7002V61.7002H250.676V64.6502H251.576C253.126 62.1002 255.576 60.9502 258.376 60.9502C263.426 60.9502 266.726 64.4002 266.726 69.9502V86.7002H260.476V71.9002C260.476 69.1002 259.176 66.6502 255.776 66.6502C252.526 66.6502 250.676 69.1002 250.676 71.9002V86.7002H244.426Z" fill="#0000FF"/>
<path d="M284.779 87.4502C277.328 87.4502 271.729 81.9002 271.729 74.2002C271.729 66.5002 277.328 60.9502 284.779 60.9502C292.178 60.9502 297.829 66.5002 297.829 74.2002C297.829 81.9002 292.178 87.4502 284.779 87.4502ZM284.779 81.8002C288.629 81.8002 291.429 78.7502 291.429 74.2002C291.429 69.6502 288.629 66.6002 284.779 66.6002C280.879 66.6002 278.129 69.6502 278.129 74.2002C278.129 78.7502 280.879 81.8002 284.779 81.8002Z" fill="#0000FF"/>
<path d="M307.578 86.7002L299.778 61.7002H306.378L311.778 81.5502H312.678L317.978 61.7002H324.378L316.428 86.7002H307.578Z" fill="#0000FF"/>
<path d="M337.571 87.4502C330.821 87.4502 326.271 82.0502 326.271 74.4502C326.271 66.7002 331.271 60.9502 337.921 60.9502C340.671 60.9502 343.321 61.9502 344.871 64.7502H345.771V61.7002H351.971V86.7002H345.771V83.8002H344.871C343.271 86.4002 340.271 87.4502 337.571 87.4502ZM339.271 81.8502C343.021 81.8502 345.771 78.8502 345.771 74.2002C345.771 69.5502 343.021 66.5502 339.271 66.5502C335.421 66.5502 332.671 69.7002 332.671 74.2002C332.671 78.7002 335.471 81.8502 339.271 81.8502Z" fill="#0000FF"/>
<path d="M365.177 86.9002C362.577 86.9002 360.977 85.2002 360.977 82.4502V63.5502L363.877 66.4502H356.377V61.7002H361.077V54.9502H367.027V61.7002H372.927V66.4502H364.227L367.127 63.5502V80.4002C367.127 81.4502 367.527 81.9502 368.727 81.9502H372.927V86.9002H365.177Z" fill="#0000FF"/>
<path d="M378.068 86.7002V61.7002H384.318V86.7002H378.068ZM378.018 58.4502V52.2002H384.368V58.4502H378.018Z" fill="#0000FF"/>
<path d="M402.601 87.4502C395.151 87.4502 389.551 81.9002 389.551 74.2002C389.551 66.5002 395.151 60.9502 402.601 60.9502C410.001 60.9502 415.651 66.5002 415.651 74.2002C415.651 81.9002 410.001 87.4502 402.601 87.4502ZM402.601 81.8002C406.451 81.8002 409.251 78.7502 409.251 74.2002C409.251 69.6502 406.451 66.6002 402.601 66.6002C398.701 66.6002 395.951 69.6502 395.951 74.2002C395.951 78.7502 398.701 81.8002 402.601 81.8002Z" fill="#0000FF"/>
<path d="M420.891 86.7002V61.7002H427.141V64.6502H428.041C429.591 62.1002 432.041 60.9502 434.841 60.9502C439.891 60.9502 443.191 64.4002 443.191 69.9502V86.7002H436.941V71.9002C436.941 69.1002 435.641 66.6502 432.241 66.6502C428.991 66.6502 427.141 69.1002 427.141 71.9002V86.7002H420.891Z" fill="#0000FF"/>
</svg>
