<svg width="670" height="105" viewBox="0 0 670 105" fill="none" xmlns="http://www.w3.org/2000/svg">
<path d="M0 35.25V10.25H6.25V13.2H7.15C8.7 10.65 11.15 9.5 13.95 9.5C19 9.5 22.3 12.95 22.3 18.5V35.25H16.05V20.45C16.05 17.65 14.75 15.2 11.35 15.2C8.1 15.2 6.25 17.65 6.25 20.45V35.25H0Z" fill="#0A0B0D"/>
<path d="M39.7527 36C32.9527 36 28.7027 32 28.7027 25.1V10.25H34.9527V24.95C34.9527 27.95 36.4527 30.35 39.7527 30.35C43.0027 30.35 44.5027 27.95 44.5027 24.95V10.25H50.7527V25.1C50.7527 32 46.5527 36 39.7527 36Z" fill="#0A0B0D"/>
<path d="M57.4219 35.25V10.25H63.6719V13.2H64.5719C66.1219 10.65 68.5219 9.5 71.4719 9.5C74.5719 9.5 76.9219 10.8 78.2719 13.2H79.1719C80.7719 10.75 83.0719 9.5 86.4719 9.5C91.9719 9.5 95.4719 13.05 95.4719 18.7V35.25H89.2219V20.3C89.2219 17.5 87.9719 15.2 84.6719 15.2C81.4719 15.2 79.5719 17.55 79.5719 20.2V35.25H73.3219V20.45C73.3219 17.65 72.0219 15.2 68.6719 15.2C65.4719 15.2 63.6719 17.65 63.6719 20.45V35.25H57.4219Z" fill="#0A0B0D"/>
<path d="M116.346 36C113.596 36 110.946 35 109.396 32.35H108.496V35.25H102.246V0.75H108.496V13.3H109.396C110.996 10.55 113.996 9.5 116.696 9.5C123.446 9.5 127.996 14.9 127.996 22.5C127.996 30.25 122.996 36 116.346 36ZM114.996 30.4C118.846 30.4 121.596 27.25 121.596 22.75C121.596 18.25 118.796 15.1 114.996 15.1C111.246 15.1 108.496 18.1 108.496 22.75C108.496 27.4 111.246 30.4 114.996 30.4Z" fill="#0A0B0D"/>
<path d="M144.401 36C136.701 36 131.601 30.75 131.601 22.7C131.601 14.8 137.001 9.5 144.451 9.5C152.251 9.5 156.751 15.3 156.751 22.95C156.751 23.3 156.751 23.7 156.751 24.05H134.951V19.9H150.651C150.151 16.55 147.501 14.6 144.401 14.6C140.851 14.6 137.951 16.85 137.701 20.8L137.651 23.25C137.651 27.9 140.701 30.65 144.401 30.65C147.301 30.65 149.051 29.65 149.901 27.9H156.301C155.001 32.6 150.351 36 144.401 36Z" fill="#0A0B0D"/>
<path d="M162.012 35.25V10.25H168.212V14.7H169.112C170.362 11.65 173.512 9.8 177.112 9.8C177.262 9.8 177.362 9.8 177.512 9.8V16.5C176.812 16.4 176.362 16.35 175.412 16.35C171.412 16.35 168.262 18.5 168.262 23.7V35.25H162.012Z" fill="#0A0B0D"/>
<path d="M191.237 36C184.937 36 180.437 32.85 179.737 27.9H185.887C186.587 30.1 188.887 31.05 191.287 31.05C193.737 31.05 195.737 30 195.737 28.15C195.737 26.3 193.837 25.8 191.237 25.35L188.587 24.9C183.587 24.05 180.487 21.95 180.487 17.45C180.487 12.55 184.787 9.5 190.737 9.5C196.537 9.5 200.387 12.2 201.437 16.9H195.437C194.737 15.05 192.887 14.3 190.787 14.3C188.237 14.3 186.587 15.4 186.587 16.95C186.587 18.55 187.887 19.05 190.587 19.5L193.237 19.95C198.087 20.75 201.787 22.75 201.787 27.6C201.787 32.9 197.387 36 191.237 36Z" fill="#0A0B0D"/>
<path d="M218.018 35.25V0.75H224.268V13.2H225.168C226.718 10.65 229.168 9.5 231.968 9.5C237.018 9.5 240.318 12.95 240.318 18.5V35.25H234.068V20.45C234.068 17.65 232.768 15.2 229.368 15.2C226.118 15.2 224.268 17.65 224.268 20.45V35.25H218.018Z" fill="#0A0B0D"/>
<path d="M257.77 36C250.97 36 246.72 32 246.72 25.1V10.25H252.97V24.95C252.97 27.95 254.47 30.35 257.77 30.35C261.02 30.35 262.52 27.95 262.52 24.95V10.25H268.77V25.1C268.77 32 264.57 36 257.77 36Z" fill="#0A0B0D"/>
<path d="M275.439 35.25V10.25H281.689V13.2H282.589C284.139 10.65 286.589 9.5 289.389 9.5C294.439 9.5 297.739 12.95 297.739 18.5V35.25H291.489V20.45C291.489 17.65 290.189 15.2 286.789 15.2C283.539 15.2 281.689 17.65 281.689 20.45V35.25H275.439Z" fill="#0A0B0D"/>
<path d="M306.592 44.75V39.65H319.992C321.892 39.65 322.592 38.9 322.592 37.15V31H321.692C320.092 34.2 316.992 35.2 314.242 35.2C307.392 35.2 302.792 30 302.792 22.6C302.792 15.15 307.992 9.5 314.942 9.5C317.492 9.5 319.942 10.35 321.592 13.3H322.492V10.25H328.342V38.6C328.342 42.55 326.192 44.75 322.292 44.75H306.592ZM315.892 29.75C319.742 29.75 322.542 26.9 322.542 22.35C322.542 17.85 319.742 14.95 315.892 14.95C311.992 14.95 309.192 18 309.192 22.35C309.192 26.75 311.992 29.75 315.892 29.75Z" fill="#0A0B0D"/>
<path d="M357.736 36C350.286 36 344.686 30.45 344.686 22.75C344.686 15.05 350.286 9.5 357.736 9.5C365.136 9.5 370.786 15.05 370.786 22.75C370.786 30.45 365.136 36 357.736 36ZM357.736 30.35C361.586 30.35 364.386 27.3 364.386 22.75C364.386 18.2 361.586 15.15 357.736 15.15C353.836 15.15 351.086 18.2 351.086 22.75C351.086 27.3 353.836 30.35 357.736 30.35Z" fill="#0A0B0D"/>
<path d="M376.025 35.25V10.25H382.275V13.2H383.175C384.725 10.65 387.175 9.5 389.975 9.5C395.025 9.5 398.325 12.95 398.325 18.5V35.25H392.075V20.45C392.075 17.65 390.775 15.2 387.375 15.2C384.125 15.2 382.275 17.65 382.275 20.45V35.25H376.025Z" fill="#0A0B0D"/>
<path d="M421.776 35.45C419.176 35.45 417.576 33.75 417.576 31V12.1L420.476 15H412.976V10.25H417.676V3.5H423.626V10.25H429.526V15H420.826L423.726 12.1V28.95C423.726 30 424.126 30.5 425.326 30.5H429.526V35.45H421.776Z" fill="#0A0B0D"/>
<path d="M434.668 35.25V0.75H440.918V13.2H441.818C443.368 10.65 445.818 9.5 448.618 9.5C453.668 9.5 456.968 12.95 456.968 18.5V35.25H450.718V20.45C450.718 17.65 449.418 15.2 446.018 15.2C442.768 15.2 440.918 17.65 440.918 20.45V35.25H434.668Z" fill="#0A0B0D"/>
<path d="M474.821 36C467.121 36 462.021 30.75 462.021 22.7C462.021 14.8 467.421 9.5 474.871 9.5C482.671 9.5 487.171 15.3 487.171 22.95C487.171 23.3 487.171 23.7 487.171 24.05H465.371V19.9H481.071C480.571 16.55 477.921 14.6 474.821 14.6C471.271 14.6 468.371 16.85 468.121 20.8L468.071 23.25C468.071 27.9 471.121 30.65 474.821 30.65C477.721 30.65 479.471 29.65 480.321 27.9H486.721C485.421 32.6 480.771 36 474.821 36Z" fill="#0A0B0D"/>
<path d="M517.616 36C514.866 36 512.216 35 510.666 32.35H509.766V35.25H503.516V0.75H509.766V13.3H510.666C512.266 10.55 515.266 9.5 517.966 9.5C524.716 9.5 529.266 14.9 529.266 22.5C529.266 30.25 524.266 36 517.616 36ZM516.266 30.4C520.116 30.4 522.866 27.25 522.866 22.75C522.866 18.25 520.066 15.1 516.266 15.1C512.516 15.1 509.766 18.1 509.766 22.75C509.766 27.4 512.516 30.4 516.266 30.4Z" fill="#0A0B0D"/>
<path d="M545.87 36C538.42 36 532.82 30.45 532.82 22.75C532.82 15.05 538.42 9.5 545.87 9.5C553.27 9.5 558.92 15.05 558.92 22.75C558.92 30.45 553.27 36 545.87 36ZM545.87 30.35C549.72 30.35 552.52 27.3 552.52 22.75C552.52 18.2 549.72 15.15 545.87 15.15C541.97 15.15 539.22 18.2 539.22 22.75C539.22 27.3 541.97 30.35 545.87 30.35Z" fill="#0A0B0D"/>
<path d="M571.26 36C566.46 36 562.56 33.1 562.56 28.35C562.56 22.75 566.86 20.95 572.06 20.4L580.21 19.55V23.7L573.91 24.45C570.51 24.85 568.86 25.85 568.86 28.05C568.86 30.1 570.56 31.3 572.96 31.3C577.06 31.3 579.41 28.2 579.41 25.05V18.25C579.41 16.1 577.66 14.6 574.56 14.6C571.61 14.6 569.91 15.9 569.36 17.85H563.36C563.96 13.1 567.91 9.5 574.56 9.5C580.96 9.5 585.21 12.6 585.21 18.65V30.85C585.21 32.4 585.36 34.55 585.46 35.15V35.25H579.46C579.41 34.4 579.41 33.6 579.41 32.75H578.51C576.96 35.25 574.26 36 571.26 36Z" fill="#0A0B0D"/>
<path d="M591.943 35.25V10.25H598.143V14.7H599.043C600.293 11.65 603.443 9.8 607.043 9.8C607.193 9.8 607.293 9.8 607.443 9.8V16.5C606.743 16.4 606.293 16.35 605.343 16.35C601.343 16.35 598.193 18.5 598.193 23.7V35.25H591.943Z" fill="#0A0B0D"/>
<path d="M621.026 36C614.276 36 609.726 30.6 609.726 23C609.726 15.25 614.726 9.5 621.376 9.5C624.126 9.5 626.776 10.5 628.326 13.3H629.226V0.75H635.426V35.25H629.226V32.35H628.326C626.726 34.95 623.726 36 621.026 36ZM622.726 30.4C626.476 30.4 629.226 27.4 629.226 22.75C629.226 18.1 626.476 15.1 622.726 15.1C618.876 15.1 616.126 18.25 616.126 22.75C616.126 27.25 618.926 30.4 622.726 30.4Z" fill="#0A0B0D"/>
<path d="M0 74.7C0 71.95 1.6 70.25 4.2 70.25H18.1C20.7 70.25 22.3 71.95 22.3 74.7V95.25H16.05V77.25C16.05 76.2 15.65 75.7 14.45 75.7H7.85C6.65 75.7 6.25 76.2 6.25 77.25V95.25H0V74.7Z" fill="#0000FF"/>
<path d="M51.3039 90.8C51.3039 93.55 49.7039 95.25 47.1039 95.25H33.2039C30.6039 95.25 29.0039 93.55 29.0039 90.8V70.25H35.2539V88.25C35.2539 89.3 35.6539 89.8 36.8539 89.8H43.4539C44.6539 89.8 45.0539 89.3 45.0539 88.25V70.25H51.3039V90.8Z" fill="#0000FF"/>
<path d="M58.0078 74.7C58.0078 71.95 59.6078 70.25 62.2078 70.25H91.1578C93.7578 70.25 95.3578 71.95 95.3578 74.7V95.25H89.1078V77.25C89.1078 76.2 88.7078 75.7 87.5078 75.7H79.8078V95.25H73.5578V75.7H65.8578C64.6578 75.7 64.2578 76.2 64.2578 77.25V95.25H58.0078V74.7Z" fill="#0000FF"/>
<path d="M102.201 95.25V60.75H108.451V70.25H121.301C123.901 70.25 125.501 71.95 125.501 74.7V90.8C125.501 93.55 123.901 95.25 121.301 95.25H102.201ZM117.651 89.8C118.851 89.8 119.251 89.3 119.251 88.25V77.25C119.251 76.2 118.851 75.7 117.651 75.7H108.451V89.8H117.651Z" fill="#0000FF"/>
<path d="M143.33 96C135.63 96 130.53 90.75 130.53 82.7C130.53 74.8 135.93 69.5 143.38 69.5C151.18 69.5 155.68 75.3 155.68 82.95C155.68 83.3 155.68 83.7 155.68 84.05H133.88V79.9H149.58C149.08 76.55 146.43 74.6 143.33 74.6C139.78 74.6 136.88 76.85 136.63 80.8L136.58 83.25C136.58 87.9 139.63 90.65 143.33 90.65C146.23 90.65 147.98 89.65 148.83 87.9H155.23C153.93 92.6 149.28 96 143.33 96Z" fill="#0000FF"/>
<path d="M160.791 74.7C160.791 71.95 162.391 70.25 164.991 70.25H175.291V75.7H168.641C167.441 75.7 167.041 76.2 167.041 77.25V95.25H160.791V74.7Z" fill="#0000FF"/>
<path d="M188.848 96C182.548 96 178.048 92.85 177.348 87.9H183.498C184.198 90.1 186.498 91.05 188.898 91.05C191.348 91.05 193.348 90 193.348 88.15C193.348 86.3 191.448 85.8 188.848 85.35L186.198 84.9C181.198 84.05 178.098 81.95 178.098 77.45C178.098 72.55 182.398 69.5 188.348 69.5C194.148 69.5 197.998 72.2 199.048 76.9H193.048C192.348 75.05 190.498 74.3 188.398 74.3C185.848 74.3 184.198 75.4 184.198 76.95C184.198 78.55 185.498 79.05 188.198 79.5L190.848 79.95C195.698 80.75 199.398 82.75 199.398 87.6C199.398 92.9 194.998 96 188.848 96Z" fill="#0000FF"/>
<path d="M215.629 95.25V60.75H221.879V70.25H233.729C236.329 70.25 237.929 71.95 237.929 74.7V95.25H231.679V77.25C231.679 76.2 231.279 75.7 230.079 75.7H221.879V95.25H215.629Z" fill="#0000FF"/>
<path d="M266.929 90.8C266.929 93.55 265.329 95.25 262.729 95.25H248.829C246.229 95.25 244.629 93.55 244.629 90.8V70.25H250.879V88.25C250.879 89.3 251.279 89.8 252.479 89.8H259.079C260.279 89.8 260.679 89.3 260.679 88.25V70.25H266.929V90.8Z" fill="#0000FF"/>
<path d="M273.633 74.7C273.633 71.95 275.233 70.25 277.833 70.25H291.733C294.333 70.25 295.933 71.95 295.933 74.7V95.25H289.683V77.25C289.683 76.2 289.283 75.7 288.083 75.7H281.483C280.283 75.7 279.883 76.2 279.883 77.25V95.25H273.633V74.7Z" fill="#0000FF"/>
<path d="M304.887 104.75V99.65H318.287C320.187 99.65 320.887 98.9 320.887 97.15V91H319.987C318.387 94.2 315.287 95.2 312.537 95.2C305.687 95.2 301.087 90 301.087 82.6C301.087 75.15 306.287 69.5 313.237 69.5C315.787 69.5 318.237 70.35 319.887 73.3H320.787V70.25H326.637V98.6C326.637 102.55 324.487 104.75 320.587 104.75H304.887ZM314.187 89.75C318.037 89.75 320.837 86.9 320.837 82.35C320.837 77.85 318.037 74.95 314.187 74.95C310.287 74.95 307.487 78 307.487 82.35C307.487 86.75 310.287 89.75 314.187 89.75Z" fill="#0000FF"/>
<path d="M356.03 96C348.58 96 342.98 90.45 342.98 82.75C342.98 75.05 348.58 69.5 356.03 69.5C363.43 69.5 369.08 75.05 369.08 82.75C369.08 90.45 363.43 96 356.03 96ZM356.03 90.35C359.88 90.35 362.68 87.3 362.68 82.75C362.68 78.2 359.88 75.15 356.03 75.15C352.13 75.15 349.38 78.2 349.38 82.75C349.38 87.3 352.13 90.35 356.03 90.35Z" fill="#0000FF"/>
<path d="M374.17 74.7C374.17 71.95 375.77 70.25 378.37 70.25H392.27C394.87 70.25 396.47 71.95 396.47 74.7V95.25H390.22V77.25C390.22 76.2 389.82 75.7 388.62 75.7H382.02C380.82 75.7 380.42 76.2 380.42 77.25V95.25H374.17V74.7Z" fill="#0000FF"/>
<path d="M420.022 95.45C417.422 95.45 415.822 93.75 415.822 91V72.1L418.722 75H411.222V70.25H415.922V63.5H421.872V70.25H427.772V75H419.072L421.972 72.1V88.95C421.972 90 422.372 90.5 423.572 90.5H427.772V95.45H420.022Z" fill="#0000FF"/>
<path d="M432.914 95.25V60.75H439.164V70.25H451.014C453.614 70.25 455.214 71.95 455.214 74.7V95.25H448.964V77.25C448.964 76.2 448.564 75.7 447.364 75.7H439.164V95.25H432.914Z" fill="#0000FF"/>
<path d="M473.164 96C465.464 96 460.364 90.75 460.364 82.7C460.364 74.8 465.764 69.5 473.214 69.5C481.014 69.5 485.514 75.3 485.514 82.95C485.514 83.3 485.514 83.7 485.514 84.05H463.714V79.9H479.414C478.914 76.55 476.264 74.6 473.164 74.6C469.614 74.6 466.714 76.85 466.464 80.8L466.414 83.25C466.414 87.9 469.464 90.65 473.164 90.65C476.064 90.65 477.814 89.65 478.664 87.9H485.064C483.764 92.6 479.114 96 473.164 96Z" fill="#0000FF"/>
<path d="M501.859 95.25V60.75H508.109V70.25H520.959C523.559 70.25 525.159 71.95 525.159 74.7V90.8C525.159 93.55 523.559 95.25 520.959 95.25H501.859ZM517.309 89.8C518.509 89.8 518.909 89.3 518.909 88.25V77.25C518.909 76.2 518.509 75.7 517.309 75.7H508.109V89.8H517.309Z" fill="#0000FF"/>
<path d="M543.188 96C535.738 96 530.138 90.45 530.138 82.75C530.138 75.05 535.738 69.5 543.188 69.5C550.588 69.5 556.238 75.05 556.238 82.75C556.238 90.45 550.588 96 543.188 96ZM543.188 90.35C547.038 90.35 549.838 87.3 549.838 82.75C549.838 78.2 547.038 75.15 543.188 75.15C539.288 75.15 536.538 78.2 536.538 82.75C536.538 87.3 539.288 90.35 543.188 90.35Z" fill="#0000FF"/>
<path d="M571.078 96C564.328 96 559.778 90.6 559.778 83C559.778 75.25 564.778 69.5 571.428 69.5C574.178 69.5 576.828 70.5 578.378 73.3H579.278V70.25H585.478V95.25H579.278V92.35H578.378C576.778 94.95 573.778 96 571.078 96ZM572.778 90.4C576.528 90.4 579.278 87.4 579.278 82.75C579.278 78.1 576.528 75.1 572.778 75.1C568.928 75.1 566.178 78.25 566.178 82.75C566.178 87.25 568.978 90.4 572.778 90.4Z" fill="#0000FF"/>
<path d="M592.334 74.7C592.334 71.95 593.934 70.25 596.534 70.25H606.834V75.7H600.184C598.984 75.7 598.584 76.2 598.584 77.25V95.25H592.334V74.7Z" fill="#0000FF"/>
<path d="M620.199 96C613.449 96 608.899 90.6 608.899 83C608.899 75.25 613.899 69.5 620.549 69.5C623.299 69.5 625.949 70.5 627.499 73.3H628.399V60.75H634.599V95.25H628.399V92.35H627.499C625.899 94.95 622.899 96 620.199 96ZM621.899 90.4C625.649 90.4 628.399 87.4 628.399 82.75C628.399 78.1 625.649 75.1 621.899 75.1C618.049 75.1 615.299 78.25 615.299 82.75C615.299 87.25 618.099 90.4 621.899 90.4Z" fill="#0000FF"/>
</svg>
