<svg width="619" height="99" viewBox="0 0 619 99" fill="none" xmlns="http://www.w3.org/2000/svg">
<path d="M20.1 41.15C8.6 41.15 0 33.7 0 21.6C0 9.65 9.1 1.2 20.1 1.2C33 1.2 39.8 10.1 39.8 19.75C39.8 27.7 34.9 32 30.05 32C27.4 32 25.7 30.8 25.15 28.75H24.25C23.2 30.75 20.9 32.05 18.25 32.05C12.6 32.05 9.25 27.15 9.25 21.4C9.25 15.4 13.35 10.4 18.8 10.4C21.25 10.4 23.1 11.45 23.85 12.95H24.75V11H29.45V26.15C29.45 27.15 29.95 27.75 31 27.75C33.3 27.75 35.45 24.8 35.45 20.05C35.45 11.15 29.85 5.1 20.05 5.1C10.85 5.1 4.35 12.3 4.35 21.6C4.35 31.15 10.8 37.3 20.05 37.3C23.55 37.3 26.5 36.4 28.7 35.05L30.6 38.25C28 39.95 24.7 41.15 20.1 41.15ZM19.55 27.2C22.6 27.2 24.75 24.75 24.75 21.2C24.75 17.8 22.65 15.35 19.7 15.35C16.65 15.35 14.7 17.8 14.7 21.2C14.7 24.75 16.6 27.2 19.55 27.2Z" fill="#0A0B0D"/>
<path d="M56.6023 36.75C49.3523 36.75 43.7023 33.15 43.7023 26.55C43.7023 22.35 46.3023 19.3 50.5023 17.3V16.5C48.6023 14.5 47.3023 12.5 47.3023 9.75C47.3023 4.75 51.1023 0.75 57.4523 0.75C64.2023 0.75 67.3523 5.25 67.3523 9.3C67.3523 13 65.4023 15.35 60.3523 17.7V18.5L66.1523 24.35C66.8023 22.6 67.0523 20.45 67.0523 18.05H73.1523C73.0023 22.4 72.2023 26.05 70.6523 28.95L77.6523 36H69.5523L66.9523 33.35C64.4023 35.4 60.8023 36.75 56.6023 36.75ZM57.0523 31.15C59.7023 31.15 61.5523 30.35 62.8523 29.15L54.4523 20.6C51.6023 21.7 50.3523 23.7 50.3523 26C50.3523 28.75 52.6523 31.15 57.0523 31.15ZM56.2023 14.35C59.7023 13 61.1523 11.45 61.1523 9.6C61.1523 7.55 59.7523 6.05 57.4023 6.05C55.1523 6.05 53.6023 7.6 53.6023 9.7C53.6023 11.25 54.6023 12.65 56.2023 14.35Z" fill="#0A0B0D"/>
<path d="M90.7363 41V19.4L93.1363 22.15C84.6863 23.2 78.8363 18.6 78.8363 11.9C78.8363 5.8 83.5863 1.5 90.7363 1.5H103.086V41H99.3363V2.85L101.386 4.85H92.3363L94.4863 2.85V41H90.7363Z" fill="#0A0B0D"/>
<path d="M127.476 36.75C117.176 36.75 109.326 28.95 109.326 18.75C109.326 8.55 117.176 0.75 127.476 0.75C137.726 0.75 145.626 8.55 145.626 18.75C145.626 28.95 137.726 36.75 127.476 36.75ZM127.476 33.7C135.776 33.7 142.276 27.2 142.276 18.75C142.276 10.3 135.776 3.8 127.476 3.8C119.126 3.8 112.676 10.3 112.676 18.75C112.676 27.2 119.126 33.7 127.476 33.7ZM127.576 28.85C122.076 28.85 117.726 24.65 117.726 18.8C117.726 12.9 122.076 8.65 127.576 8.65C132.376 8.65 136.126 11.55 137.026 16.1H132.126C131.476 14.25 129.926 13.1 127.526 13.1C124.626 13.1 122.576 15.55 122.576 18.75C122.576 21.95 124.626 24.4 127.526 24.4C129.876 24.4 131.376 23.3 132.126 21.65H136.926C136.076 25.9 132.426 28.85 127.576 28.85Z" fill="#0A0B0D"/>
<path d="M160.909 23.45C154.409 23.45 149.459 18.5 149.459 12.1C149.459 5.65 154.409 0.75 160.909 0.75C167.359 0.75 172.359 5.65 172.359 12.1C172.359 18.5 167.359 23.45 160.909 23.45ZM160.909 21C165.859 21 169.709 17.1 169.709 12.1C169.709 7.05 165.859 3.2 160.909 3.2C155.909 3.2 152.109 7.05 152.109 12.1C152.109 17.1 155.909 21 160.909 21ZM156.659 17.6V6.55H162.159C164.409 6.55 165.709 7.6 165.709 9.55C165.709 10.65 165.159 11.7 163.859 12.05V12.55C165.009 12.75 165.559 13.3 165.609 14.45L165.709 17.6H162.909L162.859 14.9C162.859 14.05 162.509 13.5 161.409 13.5H158.359V11.25H161.659C162.459 11.25 162.909 10.8 162.909 10.1C162.909 9.45 162.459 9 161.659 9H159.359V17.6H156.659Z" fill="#0A0B0D"/>
<path d="M187.905 23.1V17.8H211.605V23.1H187.905ZM199.805 33.65C197.655 33.65 196.005 31.95 196.005 29.85C196.005 27.75 197.655 26.05 199.805 26.05C201.905 26.05 203.555 27.75 203.555 29.85C203.555 31.95 201.905 33.65 199.805 33.65ZM199.805 14.95C197.655 14.95 196.005 13.25 196.005 11.1C196.005 9.05 197.655 7.35 199.805 7.35C201.905 7.35 203.555 9.05 203.555 11.1C203.555 13.25 201.905 14.95 199.805 14.95Z" fill="#0A0B0D"/>
<path d="M218.261 43.95V0.75H230.511V5.8H224.661V38.9H230.511V43.95H218.261Z" fill="#0A0B0D"/>
<path d="M246.08 0.75V43.95H233.83V38.9H239.68V5.8H233.83V0.75H246.08Z" fill="#0A0B0D"/>
<path d="M260.448 24.1C254.748 24.1 251.548 19.3 251.548 12.8C251.548 6.3 254.748 1.5 260.448 1.5C266.148 1.5 269.298 6.3 269.298 12.8C269.298 19.25 266.148 24.1 260.448 24.1ZM260.448 19.75C263.098 19.75 264.348 17.05 264.348 12.8C264.348 8.5 263.098 5.85 260.448 5.85C257.748 5.85 256.498 8.5 256.498 12.8C256.498 17.05 257.748 19.75 260.448 19.75ZM263.998 36L280.898 2H286.148L269.298 36H263.998ZM289.798 36.5C284.098 36.5 280.898 31.7 280.898 25.2C280.898 18.7 284.098 13.9 289.798 13.9C295.498 13.9 298.648 18.7 298.648 25.2C298.648 31.65 295.498 36.5 289.798 36.5ZM289.798 32.15C292.448 32.15 293.698 29.45 293.698 25.2C293.698 20.9 292.448 18.25 289.798 18.25C287.098 18.25 285.848 20.9 285.848 25.2C285.848 29.45 287.098 32.15 289.798 32.15Z" fill="#0A0B0D"/>
<path d="M322.101 36V17.8H313.251V18.55L317.401 22.5L313.601 26.25L302.251 14.8L313.601 3.45L317.401 7.1L313.251 11.1V11.85H328.251V36H322.101Z" fill="#0A0B0D"/>
<path d="M333.839 36V30H347.739V14.6H346.989L343.139 18.65L339.389 14.85L350.839 3.5L362.189 14.85L358.539 18.65L354.639 14.6H353.889V36H333.839Z" fill="#0A0B0D"/>
<path d="M393.204 29.55H398.254V7.95H393.854L388.504 11.15V15.65L392.604 13.25H393.204V29.55ZM395.554 36.75C385.504 36.75 377.604 28.8 377.604 18.75C377.604 8.65 385.504 0.75 395.554 0.75C405.604 0.75 413.554 8.65 413.554 18.75C413.554 28.8 405.604 36.75 395.554 36.75Z" fill="#0A0B0D"/>
<path d="M429.118 29.55H445.268V25.4H436.018V24.85L439.118 22.5C442.468 19.95 444.718 17.75 444.718 14.55C444.718 10.25 441.468 7.45 437.118 7.45C432.668 7.45 429.168 9.95 428.568 14.65H433.668C433.918 12.85 435.268 11.85 436.868 11.85C438.418 11.85 439.568 12.9 439.568 14.65C439.568 16.6 437.718 18.1 435.218 20.05L429.118 24.8V29.55ZM436.668 36.75C426.618 36.75 418.718 28.8 418.718 18.75C418.718 8.65 426.618 0.75 436.668 0.75C446.718 0.75 454.668 8.65 454.668 18.75C454.668 28.8 446.718 36.75 436.668 36.75Z" fill="#0A0B0D"/>
<path d="M478.081 30.05C482.431 30.05 486.381 27.85 486.381 23.45C486.381 20.65 484.681 19.05 482.581 18.55V17.95C484.381 17.2 485.681 16 485.681 13.5C485.681 10 482.681 7.45 478.081 7.45C473.631 7.45 470.181 9.85 469.481 14.45H474.731C475.081 12.65 476.381 11.85 477.881 11.85C479.381 11.85 480.531 12.85 480.531 14.4C480.531 15.9 479.431 16.8 477.531 16.8H475.781V20.4H477.881C479.981 20.4 481.231 21.35 481.231 22.95C481.231 24.65 479.881 25.65 478.081 25.65C476.531 25.65 474.981 25.05 474.481 22.95H469.131C469.681 28.2 473.731 30.05 478.081 30.05ZM477.781 36.75C467.731 36.75 459.831 28.8 459.831 18.75C459.831 8.65 467.731 0.75 477.781 0.75C487.831 0.75 495.781 8.65 495.781 18.75C495.781 28.8 487.831 36.75 477.781 36.75Z" fill="#0A0B0D"/>
<path d="M516.544 29.55V13.25H515.944L511.844 15.65V11.15L517.194 7.95H521.594V29.55H516.544ZM518.744 36.75C508.694 36.75 500.794 28.8 500.794 18.75C500.794 8.65 508.694 0.75 518.744 0.75C528.794 0.75 536.744 8.6 536.744 18.75C536.744 28.8 528.794 36.75 518.744 36.75ZM518.794 34.4C527.444 34.4 534.244 27.65 534.244 18.75C534.244 9.8 527.444 3.1 518.794 3.1C510.094 3.1 503.294 9.8 503.294 18.75C503.294 27.65 510.094 34.4 518.794 34.4Z" fill="#0A0B0D"/>
<path d="M552.457 29.55V24.8L558.557 20.05C561.057 18.1 562.907 16.6 562.907 14.65C562.907 12.9 561.757 11.85 560.207 11.85C558.607 11.85 557.257 12.85 557.007 14.65H551.907C552.507 9.95 556.007 7.45 560.457 7.45C564.807 7.45 568.057 10.25 568.057 14.55C568.057 17.75 565.807 19.95 562.457 22.5L559.357 24.85V25.4H568.607V29.55H552.457ZM559.857 36.75C549.807 36.75 541.907 28.8 541.907 18.75C541.907 8.65 549.807 0.75 559.857 0.75C569.907 0.75 577.857 8.6 577.857 18.75C577.857 28.8 569.907 36.75 559.857 36.75ZM559.907 34.4C568.557 34.4 575.357 27.65 575.357 18.75C575.357 9.8 568.557 3.1 559.907 3.1C551.207 3.1 544.407 9.8 544.407 18.75C544.407 27.65 551.207 34.4 559.907 34.4Z" fill="#0A0B0D"/>
<path d="M601.421 30.05C597.071 30.05 593.021 28.2 592.471 22.95H597.821C598.321 25.05 599.871 25.65 601.421 25.65C603.221 25.65 604.571 24.65 604.571 22.95C604.571 21.35 603.321 20.4 601.221 20.4H599.121V16.8H600.871C602.771 16.8 603.871 15.9 603.871 14.4C603.871 12.85 602.721 11.85 601.221 11.85C599.721 11.85 598.421 12.65 598.071 14.45H592.821C593.521 9.85 596.971 7.45 601.421 7.45C606.021 7.45 609.021 10 609.021 13.5C609.021 16 607.721 17.2 605.921 17.95V18.55C608.021 19.05 609.721 20.65 609.721 23.45C609.721 27.85 605.771 30.05 601.421 30.05ZM600.971 36.75C590.921 36.75 583.021 28.8 583.021 18.75C583.021 8.65 590.921 0.75 600.971 0.75C611.021 0.75 618.971 8.6 618.971 18.75C618.971 28.8 611.021 36.75 600.971 36.75ZM601.021 34.4C609.671 34.4 616.471 27.65 616.471 18.75C616.471 9.8 609.671 3.1 601.021 3.1C592.321 3.1 585.521 9.8 585.521 18.75C585.521 27.65 592.321 34.4 601.021 34.4Z" fill="#0A0B0D"/>
<path d="M2.48991 95.971C0.933717 95.971 0 94.9328 0 93.2627V63.3356C0 61.6655 0.933717 60.6273 2.48991 60.6273H32.3689C33.9251 60.6273 34.8588 61.5752 34.8588 63.3356V81.346C34.8588 86.6724 31.5241 88.2071 27.6114 88.2071C24.2767 88.2071 22.3648 86.8078 21.7867 85.228H20.9864C20.0972 87.0335 18.0519 88.2071 15.6509 88.2071C10.6266 88.2071 7.64759 83.7835 7.64759 78.5926C7.64759 73.1759 11.2491 68.662 16.14 68.662C18.3187 68.662 19.9638 69.6099 20.6307 70.9641H21.431V69.2037H25.6105V81.5266C25.6105 83.5127 26.4998 84.3252 27.9226 84.3252C29.3454 84.3252 30.2347 83.5127 30.2347 81.346V65.9537C30.2347 65.2314 29.8345 64.8252 29.1231 64.8252H5.73569C5.02429 64.8252 4.62413 65.2314 4.62413 65.9537V90.6446C4.62413 91.3669 5.02429 91.7731 5.73569 91.7731H33.8806V95.971H2.48991ZM16.8069 83.8287C19.5191 83.8287 21.431 81.6169 21.431 78.412C21.431 75.3426 19.5636 73.1308 16.9403 73.1308C14.2281 73.1308 12.494 75.3426 12.494 78.412C12.494 81.6169 14.1836 83.8287 16.8069 83.8287Z" fill="#0000FF"/>
<path d="M54.8045 92.4502C48.0462 92.4502 42.9774 88.9294 42.9774 82.4294C42.9774 78.5023 45.4673 75.3877 49.1133 74.5301V73.9433C47.4681 72.1377 46.2677 70.4224 46.2677 67.7141C46.2677 62.9294 49.1133 59.9502 53.9597 59.9502H56.8942C61.7407 59.9502 64.0972 62.8842 64.0972 66.9016V69.3842H58.8061V67.7141C58.8061 65.9085 57.9614 64.7349 56.0939 64.7349H54.76C52.8037 64.7349 51.87 65.8634 51.87 67.7141C51.87 69.7002 53.0704 70.6933 54.8045 72.5439L63.0746 81.1203C63.6081 79.5856 63.8304 77.6898 63.8304 75.5683H69.2549C69.1215 79.4502 68.4546 82.7453 67.0762 85.3634L73.2565 91.7731H66.0536L63.786 89.3808C61.5628 91.2314 58.4504 92.4502 54.8045 92.4502ZM48.891 82.0683C48.891 85.3183 51.0252 87.3946 55.2491 87.3946C57.4723 87.3946 59.0729 86.6724 60.14 85.5891L52.3146 77.2835C50.1359 77.8252 48.891 79.6308 48.891 82.0683Z" fill="#0000FF"/>
<path d="M88.5323 96.287V79.4502H82.7521C79.6842 79.4502 77.9501 77.5995 77.9501 74.3946V65.6377C77.9501 62.4328 79.6842 60.6273 82.7521 60.6273H99.5146V96.287H96.1799V63.6516H91.867V96.287H88.5323Z" fill="#0000FF"/>
<path d="M112.216 91.7731C110.659 91.7731 109.726 90.7801 109.726 89.0648V63.3356C109.726 61.6203 110.659 60.6273 112.216 60.6273H137.915C139.471 60.6273 140.405 61.6203 140.405 63.3356V89.0648C140.405 90.7801 139.471 91.7731 137.915 91.7731H112.216ZM136.403 88.8842C137.115 88.8842 137.47 88.5231 137.47 87.8009V64.5995C137.47 63.8773 137.115 63.5162 136.403 63.5162H113.727C113.016 63.5162 112.66 63.8773 112.66 64.5995V87.8009C112.66 88.5231 113.016 88.8842 113.727 88.8842H136.403ZM125.154 85.3183C120.263 85.3183 116.395 81.5266 116.395 76.2453C116.395 70.9189 120.263 67.0821 125.154 67.0821C129.423 67.0821 132.757 69.7002 133.558 73.8078H129.2C128.622 72.1377 127.244 71.0995 125.11 71.0995C122.531 71.0995 120.708 73.3113 120.708 76.2002C120.708 79.0891 122.531 81.3009 125.11 81.3009C127.2 81.3009 128.533 80.3078 129.2 78.8183H133.469C132.713 82.6551 129.467 85.3183 125.154 85.3183Z" fill="#0000FF"/>
<path d="M151.906 79.5856C151.016 79.5856 150.527 78.9988 150.527 78.0509V62.0717C150.527 61.1689 151.016 60.6273 151.906 60.6273H168.134C168.979 60.6273 169.468 61.1238 169.468 62.0717V78.1412C169.468 79.0891 168.979 79.5856 168.134 79.5856H151.906ZM166.623 77.5092C167.023 77.5092 167.112 77.3738 167.112 77.0127V63.2002C167.112 62.8391 167.023 62.7037 166.623 62.7037H153.373C153.017 62.7037 152.884 62.8391 152.884 63.2002V77.0127C152.884 77.3738 153.017 77.5092 153.373 77.5092H166.623ZM156.218 75.162V65.1863H161.109C163.11 65.1863 164.266 66.1342 164.266 67.8946C164.266 68.8877 163.777 69.8356 162.621 70.1516V70.603C163.644 70.7835 164.133 71.2801 164.177 72.3183L164.266 75.162H161.776L161.732 72.7245C161.732 71.9571 161.421 71.4606 160.442 71.4606H158.619V75.162H156.218ZM158.619 69.4294H160.665C161.376 69.4294 161.776 69.0231 161.776 68.3912C161.776 67.8044 161.376 67.3981 160.665 67.3981H158.619V69.4294Z" fill="#0000FF"/>
<path d="M191.374 80.1273V75.3426H212.449V80.1273H191.374ZM198.754 72.4988V66.1794H205.113V72.4988H198.754ZM198.754 89.3808V83.0613H205.113V89.3808H198.754Z" fill="#0000FF"/>
<path d="M225.171 98.9502C222.948 98.9502 221.303 97.2349 221.303 94.8877V64.0127C221.303 61.6655 222.814 59.9502 225.171 59.9502H232.196V64.5092H228.55C227.438 64.5092 226.994 65.0509 226.994 66.0891V92.8113C226.994 93.8495 227.438 94.3912 228.55 94.3912H232.196V98.9502H225.171Z" fill="#0000FF"/>
<path d="M245.289 59.9502C247.512 59.9502 249.157 61.6655 249.157 64.0127V94.8877C249.157 97.2349 247.645 98.9502 245.289 98.9502H238.264V94.3912H241.91C243.021 94.3912 243.466 93.8495 243.466 92.8113V66.0891C243.466 65.0509 243.021 64.5092 241.91 64.5092H238.264V59.9502H245.289Z" fill="#0000FF"/>
<path d="M287.638 91.8634C284.437 91.8634 282.569 89.9676 282.569 86.5821V77.4641C282.569 74.0787 284.437 72.1828 287.638 72.1828H292.04C295.286 72.1828 297.064 74.0787 297.064 77.4641V86.5821C297.064 89.9676 295.286 91.8634 292.04 91.8634H287.638ZM262.606 80.6689C259.404 80.6689 257.537 78.7731 257.537 75.3877V66.2696C257.537 62.8842 259.404 60.9884 262.606 60.9884H267.007C270.253 60.9884 272.032 62.8842 272.032 66.2696V75.3877C272.032 78.7731 270.253 80.6689 267.007 80.6689H262.606ZM265.007 76.8321C267.007 76.8321 267.585 76.0196 267.585 74.2592V67.3981C267.585 65.6377 267.007 64.8252 265.007 64.8252H264.518C262.65 64.8252 261.983 65.6377 261.983 67.3981V74.2592C261.983 76.0196 262.65 76.8321 264.518 76.8321H265.007ZM290.039 88.0266C292.04 88.0266 292.618 87.2141 292.618 85.4537V78.5926C292.618 76.8321 292.04 76.0196 290.039 76.0196H289.55C287.683 76.0196 287.016 76.8321 287.016 78.5926V85.4537C287.016 87.2141 287.683 88.0266 289.55 88.0266H290.039ZM267.497 91.7731L282.525 61.0787H287.194L272.21 91.7731H267.497Z" fill="#0000FF"/>
<path d="M321.55 76.7419C321.55 75.7939 321.194 75.3426 320.127 75.3426H313.68V76.0196L317.371 79.5856L313.991 82.971L303.898 72.6342L313.991 62.3877L317.371 65.6828L313.68 69.2939V69.971H323.284C325.596 69.971 327.019 71.5058 327.019 73.9884V91.7731H321.55V76.7419Z" fill="#0000FF"/>
<path d="M335.058 91.7731V86.3564H346.041C346.974 86.3564 347.419 85.9953 347.419 84.912V72.4537H346.752L343.328 76.1099L339.994 72.6794L350.176 62.4328L360.269 72.6794L357.023 76.1099L353.555 72.4537H352.888V87.9814C352.888 90.3287 351.376 91.7731 348.931 91.7731H335.058Z" fill="#0000FF"/>
<path d="M381.447 89.0648V63.3356C381.447 61.6203 382.38 60.6273 383.936 60.6273H409.636C411.192 60.6273 412.126 61.6203 412.126 63.3356V89.0648C412.126 90.7801 411.192 91.7731 409.636 91.7731H383.936C382.38 91.7731 381.447 90.7801 381.447 89.0648ZM394.652 85.9502H399.143V66.4502H395.23L390.473 69.3391V73.4016L394.118 71.2349H394.652V85.9502Z" fill="#0000FF"/>
<path d="M422.248 89.0648V63.3356C422.248 61.6203 423.182 60.6273 424.738 60.6273H450.437C451.994 60.6273 452.927 61.6203 452.927 63.3356V89.0648C452.927 90.7801 451.994 91.7731 450.437 91.7731H424.738C423.182 91.7731 422.248 90.7801 422.248 89.0648ZM430.829 85.9502H445.191V82.2037H436.965V81.7071L439.722 79.5856C442.701 77.2835 444.702 75.2974 444.702 72.4085C444.702 68.5266 441.812 65.9988 437.943 65.9988C433.986 65.9988 430.874 68.2558 430.34 72.4988H434.875C435.098 70.8738 436.298 69.971 437.721 69.971C439.099 69.971 440.122 70.9189 440.122 72.4988C440.122 74.2592 438.477 75.6134 436.254 77.3738L430.829 81.662V85.9502Z" fill="#0000FF"/>
<path d="M463.05 89.0648V63.3356C463.05 61.6203 463.983 60.6273 465.54 60.6273H491.239C492.795 60.6273 493.729 61.6203 493.729 63.3356V89.0648C493.729 90.7801 492.795 91.7731 491.239 91.7731H465.54C463.983 91.7731 463.05 90.7801 463.05 89.0648ZM478.612 86.4016C482.48 86.4016 485.992 84.4155 485.992 80.4433C485.992 77.9155 484.481 76.471 482.613 76.0196V75.478C484.214 74.8009 485.37 73.7176 485.37 71.4606C485.37 68.3009 482.702 65.9988 478.612 65.9988C474.654 65.9988 471.586 68.1655 470.964 72.3183H475.633C475.944 70.6933 477.1 69.971 478.434 69.971C479.768 69.971 480.79 70.8738 480.79 72.2731C480.79 73.6273 479.812 74.4398 478.122 74.4398H476.566V77.6898H478.434C480.301 77.6898 481.413 78.5474 481.413 79.9919C481.413 81.5266 480.212 82.4294 478.612 82.4294C477.233 82.4294 475.855 81.8877 475.41 79.9919H470.653C471.142 84.7314 474.743 86.4016 478.612 86.4016Z" fill="#0000FF"/>
<path d="M503.718 63.3356C503.718 61.6203 504.651 60.6273 506.208 60.6273H531.907C533.463 60.6273 534.397 61.6203 534.397 63.3356V89.0648C534.397 90.7801 533.463 91.7731 531.907 91.7731H506.208C504.651 91.7731 503.718 90.7801 503.718 89.0648V63.3356ZM505.985 88.4328C505.985 89.1551 506.385 89.5613 507.097 89.5613H531.018C531.729 89.5613 532.129 89.1551 532.129 88.4328V63.9676C532.129 63.2453 531.729 62.8391 531.018 62.8391H507.097C506.385 62.8391 505.985 63.2453 505.985 63.9676V88.4328ZM517.057 85.9502V71.2349H516.523L512.877 73.4016V69.3391L517.635 66.4502H521.547V85.9502H517.057Z" fill="#0000FF"/>
<path d="M544.519 63.3356C544.519 61.6203 545.453 60.6273 547.009 60.6273H572.709C574.265 60.6273 575.198 61.6203 575.198 63.3356V89.0648C575.198 90.7801 574.265 91.7731 572.709 91.7731H547.009C545.453 91.7731 544.519 90.7801 544.519 89.0648V63.3356ZM546.787 88.4328C546.787 89.1551 547.187 89.5613 547.898 89.5613H571.819C572.531 89.5613 572.931 89.1551 572.931 88.4328V63.9676C572.931 63.2453 572.531 62.8391 571.819 62.8391H547.898C547.187 62.8391 546.787 63.2453 546.787 63.9676V88.4328ZM553.234 85.9502V81.662L558.658 77.3738C560.881 75.6134 562.527 74.2592 562.527 72.4988C562.527 70.9189 561.504 69.971 560.126 69.971C558.703 69.971 557.502 70.8738 557.28 72.4988H552.745C553.278 68.2558 556.391 65.9988 560.348 65.9988C564.216 65.9988 567.106 68.5266 567.106 72.4085C567.106 75.2974 565.105 77.2835 562.126 79.5856L559.37 81.7071V82.2037H567.595V85.9502H553.234Z" fill="#0000FF"/>
<path d="M585.321 63.3356C585.321 61.6203 586.254 60.6273 587.811 60.6273H613.51C615.066 60.6273 616 61.6203 616 63.3356V89.0648C616 90.7801 615.066 91.7731 613.51 91.7731H587.811C586.254 91.7731 585.321 90.7801 585.321 89.0648V63.3356ZM587.588 88.4328C587.588 89.1551 587.989 89.5613 588.7 89.5613H612.621C613.332 89.5613 613.732 89.1551 613.732 88.4328V63.9676C613.732 63.2453 613.332 62.8391 612.621 62.8391H588.7C587.989 62.8391 587.588 63.2453 587.588 63.9676V88.4328ZM601.016 86.4016C597.148 86.4016 593.546 84.7314 593.057 79.9919H597.815C598.259 81.8877 599.638 82.4294 601.016 82.4294C602.617 82.4294 603.817 81.5266 603.817 79.9919C603.817 78.5474 602.706 77.6898 600.838 77.6898H598.971V74.4398H600.527C602.217 74.4398 603.195 73.6273 603.195 72.2731C603.195 70.8738 602.172 69.971 600.838 69.971C599.504 69.971 598.348 70.6933 598.037 72.3183H593.368C593.991 68.1655 597.059 65.9988 601.016 65.9988C605.107 65.9988 607.774 68.3009 607.774 71.4606C607.774 73.7176 606.618 74.8009 605.018 75.478V76.0196C606.885 76.471 608.397 77.9155 608.397 80.4433C608.397 84.4155 604.884 86.4016 601.016 86.4016Z" fill="#0000FF"/>
</svg>
