<svg width="1022" height="750" viewBox="0 0 1022 750" fill="none" xmlns="http://www.w3.org/2000/svg">
<rect width="92.9091" height="57.6154" fill="#F5F8FF"/>
<rect y="57.6152" width="92.9091" height="57.6154" fill="#E0E0FF"/>
<rect y="115.23" width="92.9091" height="57.6154" fill="#B0CAFF"/>
<rect y="172.846" width="92.9091" height="57.6154" fill="#8F8FFF"/>
<rect y="230.462" width="92.9091" height="57.6154" fill="#7575FF"/>
<rect y="288.077" width="92.9091" height="57.6154" fill="#5C5CFF"/>
<rect y="345.692" width="92.9091" height="57.6154" fill="#4747FF"/>
<rect y="403.308" width="92.9091" height="57.6154" fill="#2929FF"/>
<rect y="460.923" width="92.9091" height="57.6154" fill="#0052FF"/>
<rect y="518.538" width="92.9091" height="57.6154" fill="#004BEB"/>
<rect y="576.154" width="92.9091" height="57.6154" fill="#003EC1"/>
<rect y="633.77" width="92.9091" height="57.6154" fill="#002982"/>
<rect y="691.385" width="92.9091" height="57.6154" fill="#00184D"/>
<rect x="92.9082" width="92.9091" height="57.6154" fill="#F0FEFF"/>
<rect x="92.9082" y="57.6152" width="92.9091" height="57.6154" fill="#BCF6FD"/>
<rect x="92.9082" y="115.23" width="92.9091" height="57.6154" fill="#88EDFB"/>
<rect x="92.9082" y="172.846" width="92.9091" height="57.6154" fill="#5DE2F8"/>
<rect x="92.9082" y="230.462" width="92.9091" height="57.6154" fill="#33D5F4"/>
<rect x="92.9082" y="288.077" width="92.9091" height="57.6154" fill="#00BCEB"/>
<rect x="92.9082" y="345.692" width="92.9091" height="57.6154" fill="#00A9DD"/>
<rect x="92.9082" y="403.308" width="92.9091" height="57.6154" fill="#0093CB"/>
<rect x="92.9082" y="460.923" width="92.9091" height="57.6154" fill="#007BB3"/>
<rect x="92.9082" y="518.538" width="92.9091" height="57.6154" fill="#006195"/>
<rect x="92.9082" y="576.154" width="92.9091" height="57.6154" fill="#004774"/>
<rect x="92.9082" y="633.77" width="92.9091" height="57.6154" fill="#002F53"/>
<rect x="92.9082" y="691.385" width="92.9091" height="57.6154" fill="#001B33"/>
<rect x="185.818" width="92.9091" height="57.6154" fill="#F5FFFB"/>
<rect x="185.818" y="57.6152" width="92.9091" height="57.6154" fill="#CBF5E3"/>
<rect x="185.818" y="115.23" width="92.9091" height="57.6154" fill="#A3EBCD"/>
<rect x="185.818" y="172.846" width="92.9091" height="57.6154" fill="#83E0BA"/>
<rect x="185.818" y="230.462" width="92.9091" height="57.6154" fill="#65D6A7"/>
<rect x="185.818" y="288.077" width="92.9091" height="57.6154" fill="#3CC28A"/>
<rect x="185.818" y="345.692" width="92.9091" height="57.6154" fill="#22AD73"/>
<rect x="185.818" y="403.308" width="92.9091" height="57.6154" fill="#129961"/>
<rect x="185.818" y="460.923" width="92.9091" height="57.6154" fill="#098551"/>
<rect x="185.818" y="518.538" width="92.9091" height="57.6154" fill="#047043"/>
<rect x="185.818" y="576.154" width="92.9091" height="57.6154" fill="#025332"/>
<rect x="185.818" y="633.77" width="92.9091" height="57.6154" fill="#003923"/>
<rect x="185.818" y="691.385" width="92.9091" height="57.6154" fill="#001F12"/>
<rect x="278.727" width="92.9091" height="57.6154" fill="#F5FFFA"/>
<rect x="278.727" y="57.6152" width="92.9091" height="57.6154" fill="#DDFBE8"/>
<rect x="278.727" y="115.23" width="92.9091" height="57.6154" fill="#C6F7D1"/>
<rect x="278.727" y="172.846" width="92.9091" height="57.6154" fill="#B0F2B6"/>
<rect x="278.727" y="230.462" width="92.9091" height="57.6154" fill="#9FEE9B"/>
<rect x="278.727" y="288.077" width="92.9091" height="57.6154" fill="#89DF75"/>
<rect x="278.727" y="345.692" width="92.9091" height="57.6154" fill="#7FD057"/>
<rect x="278.727" y="403.308" width="92.9091" height="57.6154" fill="#56B340"/>
<rect x="278.727" y="460.923" width="92.9091" height="57.6154" fill="#359730"/>
<rect x="278.727" y="518.538" width="92.9091" height="57.6154" fill="#237A2B"/>
<rect x="278.727" y="576.154" width="92.9091" height="57.6154" fill="#195D29"/>
<rect x="278.727" y="633.77" width="92.9091" height="57.6154" fill="#114023"/>
<rect x="278.727" y="691.385" width="92.9091" height="57.6154" fill="#071A11"/>
<rect x="371.637" width="92.9091" height="57.6154" fill="#FFFCF1"/>
<rect x="371.637" y="57.6152" width="92.9091" height="57.6154" fill="#FFF4C0"/>
<rect x="371.637" y="115.23" width="92.9091" height="57.6154" fill="#FFF091"/>
<rect x="371.637" y="172.846" width="92.9091" height="57.6154" fill="#FFEA64"/>
<rect x="371.637" y="230.462" width="92.9091" height="57.6154" fill="#FFE436"/>
<rect x="371.637" y="288.077" width="92.9091" height="57.6154" fill="#F7D21A"/>
<rect x="371.637" y="345.692" width="92.9091" height="57.6154" fill="#EBBA00"/>
<rect x="371.637" y="403.308" width="92.9091" height="57.6154" fill="#CF9700"/>
<rect x="371.637" y="460.923" width="92.9091" height="57.6154" fill="#AE7100"/>
<rect x="371.637" y="518.538" width="92.9091" height="57.6154" fill="#884C00"/>
<rect x="371.637" y="576.154" width="92.9091" height="57.6154" fill="#603000"/>
<rect x="371.637" y="633.77" width="92.9091" height="57.6154" fill="#3A1400"/>
<rect x="371.637" y="691.385" width="92.9091" height="57.6154" fill="#1B0600"/>
<rect x="464.545" width="92.9091" height="57.6154" fill="#FFFAF5"/>
<rect x="464.545" y="57.6152" width="92.9091" height="57.6154" fill="#FEE8D2"/>
<rect x="464.545" y="115.23" width="92.9091" height="57.6154" fill="#FDD5B0"/>
<rect x="464.545" y="172.846" width="92.9091" height="57.6154" fill="#FBC293"/>
<rect x="464.545" y="230.462" width="92.9091" height="57.6154" fill="#F9AE76"/>
<rect x="464.545" y="288.077" width="92.9091" height="57.6154" fill="#F48C4C"/>
<rect x="464.545" y="345.692" width="92.9091" height="57.6154" fill="#ED702F"/>
<rect x="464.545" y="403.308" width="92.9091" height="57.6154" fill="#E1591B"/>
<rect x="464.545" y="460.923" width="92.9091" height="57.6154" fill="#CF470E"/>
<rect x="464.545" y="518.538" width="92.9091" height="57.6154" fill="#B53606"/>
<rect x="464.545" y="576.154" width="92.9091" height="57.6154" fill="#912702"/>
<rect x="464.545" y="633.77" width="92.9091" height="57.6154" fill="#641A00"/>
<rect x="464.545" y="691.385" width="92.9091" height="57.6154" fill="#330D00"/>
<rect x="557.455" width="92.9091" height="57.6154" fill="#FFF5F6"/>
<rect x="557.455" y="57.6152" width="92.9091" height="57.6154" fill="#FEE1E4"/>
<rect x="557.455" y="115.23" width="92.9091" height="57.6154" fill="#FDCED2"/>
<rect x="557.455" y="172.846" width="92.9091" height="57.6154" fill="#FBBABF"/>
<rect x="557.455" y="230.462" width="92.9091" height="57.6154" fill="#F9A6AD"/>
<rect x="557.455" y="288.077" width="92.9091" height="57.6154" fill="#F47F88"/>
<rect x="557.455" y="345.692" width="92.9091" height="57.6154" fill="#ED5966"/>
<rect x="557.455" y="403.308" width="92.9091" height="57.6154" fill="#E13947"/>
<rect x="557.455" y="460.923" width="92.9091" height="57.6154" fill="#CF202F"/>
<rect x="557.455" y="518.538" width="92.9091" height="57.6154" fill="#B50F1D"/>
<rect x="557.455" y="576.154" width="92.9091" height="57.6154" fill="#910510"/>
<rect x="557.455" y="633.77" width="92.9091" height="57.6154" fill="#640109"/>
<rect x="557.455" y="691.385" width="92.9091" height="57.6154" fill="#330004"/>
<rect x="650.363" width="92.9091" height="57.6154" fill="#FFF2FF"/>
<rect x="650.363" y="57.6152" width="92.9091" height="57.6154" fill="#FDE4FD"/>
<rect x="650.363" y="115.23" width="92.9091" height="57.6154" fill="#FBD4FA"/>
<rect x="650.363" y="172.846" width="92.9091" height="57.6154" fill="#F8C3F5"/>
<rect x="650.363" y="230.462" width="92.9091" height="57.6154" fill="#F4B2F0"/>
<rect x="650.363" y="288.077" width="92.9091" height="57.6154" fill="#EB8FE3"/>
<rect x="650.363" y="345.692" width="92.9091" height="57.6154" fill="#DD6ED1"/>
<rect x="650.363" y="403.308" width="92.9091" height="57.6154" fill="#CB51BB"/>
<rect x="650.363" y="460.923" width="92.9091" height="57.6154" fill="#B33AA2"/>
<rect x="650.363" y="518.538" width="92.9091" height="57.6154" fill="#952785"/>
<rect x="650.363" y="576.154" width="92.9091" height="57.6154" fill="#741A66"/>
<rect x="650.363" y="633.77" width="92.9091" height="57.6154" fill="#531148"/>
<rect x="650.363" y="691.385" width="92.9091" height="57.6154" fill="#330A2C"/>
<rect x="743.273" width="92.9091" height="57.6154" fill="#FBF7FF"/>
<rect x="743.273" y="57.6152" width="92.9091" height="57.6154" fill="#F4E8FF"/>
<rect x="743.273" y="115.23" width="92.9091" height="57.6154" fill="#EDD9FF"/>
<rect x="743.273" y="172.846" width="92.9091" height="57.6154" fill="#E6C9FF"/>
<rect x="743.273" y="230.462" width="92.9091" height="57.6154" fill="#DEB8FF"/>
<rect x="743.273" y="288.077" width="92.9091" height="57.6154" fill="#CD99FD"/>
<rect x="743.273" y="345.692" width="92.9091" height="57.6154" fill="#BC7BFB"/>
<rect x="743.273" y="403.308" width="92.9091" height="57.6154" fill="#9D6BF2"/>
<rect x="743.273" y="460.923" width="92.9091" height="57.6154" fill="#8A55E9"/>
<rect x="743.273" y="518.538" width="92.9091" height="57.6154" fill="#7743D7"/>
<rect x="743.273" y="576.154" width="92.9091" height="57.6154" fill="#5A30AD"/>
<rect x="743.273" y="633.77" width="92.9091" height="57.6154" fill="#361B6B"/>
<rect x="743.273" y="691.385" width="92.9091" height="57.6154" fill="#190D33"/>
<rect x="836.182" width="92.9091" height="57.6154" fill="#F6F7FF"/>
<rect x="836.182" y="57.6152" width="92.9091" height="57.6154" fill="#E6E8FF"/>
<rect x="836.182" y="115.23" width="92.9091" height="57.6154" fill="#D6DAFE"/>
<rect x="836.182" y="172.846" width="92.9091" height="57.6154" fill="#C6CCFD"/>
<rect x="836.182" y="230.462" width="92.9091" height="57.6154" fill="#B5BDFD"/>
<rect x="836.182" y="288.077" width="92.9091" height="57.6154" fill="#94A1FB"/>
<rect x="836.182" y="345.692" width="92.9091" height="57.6154" fill="#7487F7"/>
<rect x="836.182" y="403.308" width="92.9091" height="57.6154" fill="#596FF2"/>
<rect x="836.182" y="460.923" width="92.9091" height="57.6154" fill="#425BE9"/>
<rect x="836.182" y="518.538" width="92.9091" height="57.6154" fill="#2F4AD7"/>
<rect x="836.182" y="576.154" width="92.9091" height="57.6154" fill="#1F36AD"/>
<rect x="836.182" y="633.77" width="92.9091" height="57.6154" fill="#11206B"/>
<rect x="836.182" y="691.385" width="92.9091" height="57.6154" fill="#080F33"/>
<rect x="929.09" width="92.9091" height="57.6154" fill="white"/>
<rect x="929.09" y="57.6152" width="92.9091" height="57.6154" fill="#F7F8F9"/>
<rect x="929.09" y="115.23" width="92.9091" height="57.6154" fill="#EEF0F3"/>
<rect x="929.09" y="172.846" width="92.9091" height="57.6154" fill="#DEE1E7"/>
<rect x="929.09" y="230.462" width="92.9091" height="57.6154" fill="#CED2DB"/>
<rect x="929.09" y="288.077" width="92.9091" height="57.6154" fill="#B1B7C3"/>
<rect x="929.09" y="345.692" width="92.9091" height="57.6154" fill="#89909E"/>
<rect x="929.09" y="403.308" width="92.9091" height="57.6154" fill="#717886"/>
<rect x="929.09" y="460.923" width="92.9091" height="57.6154" fill="#5B616E"/>
<rect x="929.09" y="518.538" width="92.9091" height="57.6154" fill="#464B55"/>
<rect x="929.09" y="576.154" width="92.9091" height="57.6154" fill="#32353D"/>
<rect x="929.09" y="633.77" width="92.9091" height="57.6154" fill="#1E2025"/>
<rect x="929.09" y="691.385" width="92.9091" height="57.6154" fill="#0A0B0D"/>
</svg>
