<svg width="420" height="286" viewBox="0 0 420 286" fill="none" xmlns="http://www.w3.org/2000/svg">
<path d="M0 6.00001C0 2.6863 2.68629 0 6 0H414C417.314 0 420 2.68629 420 6V280C420 283.314 417.314 286 414 286H5.99999C2.68628 286 0 283.314 0 280V6.00001Z" fill="#EEF0F3"/>
<path d="M24.9627 98.9969L24.882 96.0457H26.0233L25.9426 98.9969H24.9627ZM32.3822 104L32.7741 101.89H31.3216L30.9412 104H29.8806L30.2726 101.89H29.0391L29.2005 100.991H30.4339L30.7567 99.239H29.5232L29.6846 98.3283H30.9181L31.3101 96.2186H32.3591L31.9787 98.3283H33.4197L33.8116 96.2186H34.8722L34.4803 98.3283H35.7022L35.5408 99.239H34.3189L33.9961 100.991H35.2065L35.0567 101.89H33.8347L33.4427 104H32.3822ZM31.4945 100.991H32.9355L33.2583 99.239H31.8058L31.4945 100.991ZM39.2944 104L39.6864 101.89H38.2339L37.8534 104H36.7929L37.1848 101.89H35.9513L36.1127 100.991H37.3462L37.669 99.239H36.4355L36.5969 98.3283H37.8304L38.2223 96.2186H39.2714L38.8909 98.3283H40.3319L40.7239 96.2186H41.7845L41.3925 98.3283H42.6145L42.4531 99.239H41.2311L40.9083 100.991H42.1188L41.9689 101.89H40.7469L40.355 104H39.2944ZM38.4068 100.991H39.8478L40.1706 99.239H38.718L38.4068 100.991ZM45.4458 104V102.524H46.9445V104H45.4458ZM45.4458 99.7116V98.236H46.9445V99.7116H45.4458ZM52.3581 104V102.524H53.8567V104H52.3581ZM52.3581 99.7116V98.236H53.8567V99.7116H52.3581ZM59.2704 104V102.524H60.769V104H59.2704ZM59.2704 99.7116V98.236H60.769V99.7116H59.2704ZM66.1826 104V102.524H67.6813V104H66.1826ZM66.1826 99.7116V98.236H67.6813V99.7116H66.1826ZM73.0949 104V102.524H74.5935V104H73.0949ZM73.0949 99.7116V98.236H74.5935V99.7116H73.0949ZM80.0071 104V102.524H81.5058V104H80.0071ZM80.0071 99.7116V98.236H81.5058V99.7116H80.0071ZM86.9194 104V102.524H88.418V104H86.9194ZM86.9194 99.7116V98.236H88.418V99.7116H86.9194ZM93.8317 104V102.524H95.3303V104H93.8317ZM93.8317 99.7116V98.236H95.3303V99.7116H93.8317ZM100.744 104V102.524H102.243V104H100.744ZM100.744 99.7116V98.236H102.243V99.7116H100.744ZM107.656 104V102.524H109.155V104H107.656ZM107.656 99.7116V98.236H109.155V99.7116H107.656ZM114.822 98.9969L114.741 96.0457H115.883L115.802 98.9969H114.822ZM122.242 104L122.633 101.89H121.181L120.801 104H119.74L120.132 101.89H118.898L119.06 100.991H120.293L120.616 99.239H119.383L119.544 98.3283H120.777L121.169 96.2186H122.218L121.838 98.3283H123.279L123.671 96.2186H124.732L124.34 98.3283H125.562L125.4 99.239H124.178L123.855 100.991H125.066L124.916 101.89H123.694L123.302 104H122.242ZM121.354 100.991H122.795L123.118 99.239H121.665L121.354 100.991ZM129.154 104L129.546 101.89H128.093L127.713 104H126.652L127.044 101.89H125.811L125.972 100.991H127.206L127.528 99.239H126.295L126.456 98.3283H127.69L128.082 96.2186H129.131L128.75 98.3283H130.191L130.583 96.2186H131.644L131.252 98.3283H132.474L132.312 99.239H131.09L130.768 100.991H131.978L131.828 101.89H130.606L130.214 104H129.154ZM128.266 100.991H129.707L130.03 99.239H128.577L128.266 100.991ZM136.066 104L136.458 101.89H135.005L134.625 104H133.564L133.956 101.89H132.723L132.884 100.991H134.118L134.441 99.239H133.207L133.369 98.3283H134.602L134.994 96.2186H136.043L135.663 98.3283H137.104L137.496 96.2186H138.556L138.164 98.3283H139.386L139.225 99.239H138.003L137.68 100.991H138.89L138.741 101.89H137.519L137.127 104H136.066ZM135.178 100.991H136.619L136.942 99.239H135.49L135.178 100.991ZM142.978 104L143.37 101.89H141.918L141.537 104H140.477L140.869 101.89H139.635L139.797 100.991H141.03L141.353 99.239H140.119L140.281 98.3283H141.514L141.906 96.2186H142.955L142.575 98.3283H144.016L144.408 96.2186H145.468L145.076 98.3283H146.298L146.137 99.239H144.915L144.592 100.991H145.803L145.653 101.89H144.431L144.039 104H142.978ZM142.091 100.991H143.532L143.854 99.239H142.402L142.091 100.991ZM149.891 104L150.283 101.89H148.83L148.45 104H147.389L147.781 101.89H146.547L146.709 100.991H147.942L148.265 99.239H147.032L147.193 98.3283H148.427L148.818 96.2186H149.868L149.487 98.3283H150.928L151.32 96.2186H152.381L151.989 98.3283H153.211L153.049 99.239H151.827L151.504 100.991H152.715L152.565 101.89H151.343L150.951 104H149.891ZM149.003 100.991H150.444L150.767 99.239H149.314L149.003 100.991ZM156.042 104V102.524H157.541V104H156.042ZM156.042 99.7116V98.236H157.541V99.7116H156.042ZM162.954 104V102.524H164.453V104H162.954ZM162.954 99.7116V98.236H164.453V99.7116H162.954ZM169.867 104V102.524H171.365V104H169.867ZM169.867 99.7116V98.236H171.365V99.7116H169.867ZM177.032 98.9969L176.952 96.0457H178.093L178.012 98.9969H177.032ZM184.452 104L184.844 101.89H183.391L183.011 104H181.95L182.342 101.89H181.109L181.27 100.991H182.504L182.826 99.239H181.593L181.754 98.3283H182.988L183.38 96.2186H184.429L184.048 98.3283H185.489L185.881 96.2186H186.942L186.55 98.3283H187.772L187.611 99.239H186.389L186.066 100.991H187.276L187.126 101.89H185.904L185.512 104H184.452ZM183.564 100.991H185.005L185.328 99.239H183.875L183.564 100.991ZM191.364 104L191.756 101.89H190.304L189.923 104H188.863L189.255 101.89H188.021L188.182 100.991H189.416L189.739 99.239H188.505L188.667 98.3283H189.9L190.292 96.2186H191.341L190.961 98.3283H192.402L192.794 96.2186H193.854L193.462 98.3283H194.684L194.523 99.239H193.301L192.978 100.991H194.188L194.039 101.89H192.817L192.425 104H191.364ZM190.476 100.991H191.917L192.24 99.239H190.788L190.476 100.991ZM197.516 104V102.524H199.014V104H197.516ZM197.516 99.7116V98.236H199.014V99.7116H197.516ZM204.428 104V102.524H205.926V104H204.428ZM204.428 99.7116V98.236H205.926V99.7116H204.428ZM211.34 104V102.524H212.839V104H211.34ZM211.34 99.7116V98.236H212.839V99.7116H211.34ZM218.252 104V102.524H219.751V104H218.252ZM218.252 99.7116V98.236H219.751V99.7116H218.252ZM225.165 104V102.524H226.663V104H225.165ZM225.165 99.7116V98.236H226.663V99.7116H225.165ZM232.077 104V102.524H233.575V104H232.077ZM232.077 99.7116V98.236H233.575V99.7116H232.077ZM238.989 104V102.524H240.488V104H238.989ZM238.989 99.7116V98.236H240.488V99.7116H238.989ZM245.901 104V102.524H247.4V104H245.901ZM245.901 99.7116V98.236H247.4V99.7116H245.901ZM32.3822 115L32.7741 112.89H31.3216L30.9412 115H29.8806L30.2726 112.89H29.0391L29.2005 111.991H30.4339L30.7567 110.239H29.5232L29.6846 109.328H30.9181L31.3101 107.219H32.3591L31.9787 109.328H33.4197L33.8116 107.219H34.8722L34.4803 109.328H35.7022L35.5408 110.239H34.3189L33.9961 111.991H35.2065L35.0567 112.89H33.8347L33.4427 115H32.3822ZM31.4945 111.991H32.9355L33.2583 110.239H31.8058L31.4945 111.991ZM39.2944 115L39.6864 112.89H38.2339L37.8534 115H36.7929L37.1848 112.89H35.9513L36.1127 111.991H37.3462L37.669 110.239H36.4355L36.5969 109.328H37.8304L38.2223 107.219H39.2714L38.8909 109.328H40.3319L40.7239 107.219H41.7845L41.3925 109.328H42.6145L42.4531 110.239H41.2311L40.9083 111.991H42.1188L41.9689 112.89H40.7469L40.355 115H39.2944ZM38.4068 111.991H39.8478L40.1706 110.239H38.718L38.4068 111.991ZM45.4458 115V113.524H46.9445V115H45.4458ZM45.4458 110.712V109.236H46.9445V110.712H45.4458ZM52.3581 115V113.524H53.8567V115H52.3581ZM52.3581 110.712V109.236H53.8567V110.712H52.3581ZM59.2704 115V113.524H60.769V115H59.2704ZM59.2704 110.712V109.236H60.769V110.712H59.2704ZM66.4362 109.997L66.3555 107.046H67.4968L67.4161 109.997H66.4362ZM73.8557 115L74.2477 112.89H72.7952L72.4147 115H71.3542L71.7461 112.89H70.5126L70.674 111.991H71.9075L72.2303 110.239H70.9968L71.1582 109.328H72.3917L72.7836 107.219H73.8327L73.4522 109.328H74.8932L75.2852 107.219H76.3458L75.9538 109.328H77.1758L77.0144 110.239H75.7924L75.4696 111.991H76.6801L76.5302 112.89H75.3082L74.9163 115H73.8557ZM72.9681 111.991H74.4091L74.7318 110.239H73.2793L72.9681 111.991ZM80.768 115L81.1599 112.89H79.7074L79.327 115H78.2664L78.6584 112.89H77.4249L77.5863 111.991H78.8198L79.1425 110.239H77.9091L78.0704 109.328H79.3039L79.6959 107.219H80.7449L80.3645 109.328H81.8055L82.1974 107.219H83.258L82.8661 109.328H84.088L83.9266 110.239H82.7047L82.3819 111.991H83.5923L83.4425 112.89H82.2205L81.8286 115H80.768ZM79.8803 111.991H81.3213L81.6441 110.239H80.1916L79.8803 111.991ZM86.9194 115V113.524H88.418V115H86.9194ZM86.9194 110.712V109.236H88.418V110.712H86.9194ZM93.8317 115V113.524H95.3303V115H93.8317ZM93.8317 110.712V109.236H95.3303V110.712H93.8317ZM100.744 115V113.524H102.243V115H100.744ZM100.744 110.712V109.236H102.243V110.712H100.744ZM107.91 109.997L107.829 107.046H108.97L108.89 109.997H107.91ZM115.329 115L115.721 112.89H114.269L113.888 115H112.828L113.22 112.89H111.986L112.148 111.991H113.381L113.704 110.239H112.47L112.632 109.328H113.865L114.257 107.219H115.306L114.926 109.328H116.367L116.759 107.219H117.819L117.427 109.328H118.649L118.488 110.239H117.266L116.943 111.991H118.154L118.004 112.89H116.782L116.39 115H115.329ZM114.442 111.991H115.883L116.205 110.239H114.753L114.442 111.991ZM122.242 115L122.633 112.89H121.181L120.801 115H119.74L120.132 112.89H118.898L119.06 111.991H120.293L120.616 110.239H119.383L119.544 109.328H120.777L121.169 107.219H122.218L121.838 109.328H123.279L123.671 107.219H124.732L124.34 109.328H125.562L125.4 110.239H124.178L123.855 111.991H125.066L124.916 112.89H123.694L123.302 115H122.242ZM121.354 111.991H122.795L123.118 110.239H121.665L121.354 111.991ZM128.393 115V113.524H129.892V115H128.393ZM135.305 115V113.524H136.804V115H135.305ZM149.891 115L150.283 112.89H148.83L148.45 115H147.389L147.781 112.89H146.547L146.709 111.991H147.942L148.265 110.239H147.032L147.193 109.328H148.427L148.818 107.219H149.868L149.487 109.328H150.928L151.32 107.219H152.381L151.989 109.328H153.211L153.049 110.239H151.827L151.504 111.991H152.715L152.565 112.89H151.343L150.951 115H149.891ZM149.003 111.991H150.444L150.767 110.239H149.314L149.003 111.991ZM156.803 115L157.195 112.89H155.742L155.362 115H154.301L154.693 112.89H153.46L153.621 111.991H154.855L155.177 110.239H153.944L154.105 109.328H155.339L155.731 107.219H156.78L156.399 109.328H157.84L158.232 107.219H159.293L158.901 109.328H160.123L159.961 110.239H158.74L158.417 111.991H159.627L159.477 112.89H158.255L157.863 115H156.803ZM155.915 111.991H157.356L157.679 110.239H156.226L155.915 111.991ZM162.954 115V113.524H164.453V115H162.954ZM162.954 110.712V109.236H164.453V110.712H162.954ZM169.867 115V113.524H171.365V115H169.867ZM169.867 110.712V109.236H171.365V110.712H169.867ZM184.452 115L184.844 112.89H183.391L183.011 115H181.95L182.342 112.89H181.109L181.27 111.991H182.504L182.826 110.239H181.593L181.754 109.328H182.988L183.38 107.219H184.429L184.048 109.328H185.489L185.881 107.219H186.942L186.55 109.328H187.772L187.611 110.239H186.389L186.066 111.991H187.276L187.126 112.89H185.904L185.512 115H184.452ZM183.564 111.991H185.005L185.328 110.239H183.875L183.564 111.991ZM191.364 115L191.756 112.89H190.304L189.923 115H188.863L189.255 112.89H188.021L188.182 111.991H189.416L189.739 110.239H188.505L188.667 109.328H189.9L190.292 107.219H191.341L190.961 109.328H192.402L192.794 107.219H193.854L193.462 109.328H194.684L194.523 110.239H193.301L192.978 111.991H194.188L194.039 112.89H192.817L192.425 115H191.364ZM190.476 111.991H191.917L192.24 110.239H190.788L190.476 111.991ZM197.516 115V113.524H199.014V115H197.516ZM197.516 110.712V109.236H199.014V110.712H197.516ZM204.428 115V113.524H205.926V115H204.428ZM204.428 110.712V109.236H205.926V110.712H204.428ZM211.34 115V113.524H212.839V115H211.34ZM211.34 110.712V109.236H212.839V110.712H211.34ZM218.506 109.997L218.425 107.046H219.567L219.486 109.997H218.506ZM225.925 115L226.317 112.89H224.865L224.484 115H223.424L223.816 112.89H222.582L222.744 111.991H223.977L224.3 110.239H223.067L223.228 109.328H224.461L224.853 107.219H225.902L225.522 109.328H226.963L227.355 107.219H228.415L228.024 109.328H229.245L229.084 110.239H227.862L227.539 111.991H228.75L228.6 112.89H227.378L226.986 115H225.925ZM225.038 111.991H226.479L226.802 110.239H225.349L225.038 111.991ZM232.838 115L233.23 112.89H231.777L231.397 115H230.336L230.728 112.89H229.495L229.656 111.991H230.889L231.212 110.239H229.979L230.14 109.328H231.374L231.766 107.219H232.815L232.434 109.328H233.875L234.267 107.219H235.328L234.936 109.328H236.158L235.996 110.239H234.774L234.452 111.991H235.662L235.512 112.89H234.29L233.898 115H232.838ZM231.95 111.991H233.391L233.714 110.239H232.261L231.95 111.991ZM238.989 115V113.524H240.488V115H238.989ZM238.989 110.712V109.236H240.488V110.712H238.989ZM245.901 115V113.524H247.4V115H245.901ZM245.901 110.712V109.236H247.4V110.712H245.901ZM32.3822 127L32.7741 124.89H31.3216L30.9412 127H29.8806L30.2726 124.89H29.0391L29.2005 123.991H30.4339L30.7567 122.239H29.5232L29.6846 121.328H30.9181L31.3101 119.219H32.3591L31.9787 121.328H33.4197L33.8116 119.219H34.8722L34.4803 121.328H35.7022L35.5408 122.239H34.3189L33.9961 123.991H35.2065L35.0567 124.89H33.8347L33.4427 127H32.3822ZM31.4945 123.991H32.9355L33.2583 122.239H31.8058L31.4945 123.991ZM39.2944 127L39.6864 124.89H38.2339L37.8534 127H36.7929L37.1848 124.89H35.9513L36.1127 123.991H37.3462L37.669 122.239H36.4355L36.5969 121.328H37.8304L38.2223 119.219H39.2714L38.8909 121.328H40.3319L40.7239 119.219H41.7845L41.3925 121.328H42.6145L42.4531 122.239H41.2311L40.9083 123.991H42.1188L41.9689 124.89H40.7469L40.355 127H39.2944ZM38.4068 123.991H39.8478L40.1706 122.239H38.718L38.4068 123.991ZM45.4458 127V125.524H46.9445V127H45.4458ZM45.4458 122.712V121.236H46.9445V122.712H45.4458ZM52.3581 127V125.524H53.8567V127H52.3581ZM52.3581 122.712V121.236H53.8567V122.712H52.3581ZM59.2704 127V125.524H60.769V127H59.2704ZM59.2704 122.712V121.236H60.769V122.712H59.2704ZM73.8557 127L74.2477 124.89H72.7952L72.4147 127H71.3542L71.7461 124.89H70.5126L70.674 123.991H71.9075L72.2303 122.239H70.9968L71.1582 121.328H72.3917L72.7836 119.219H73.8327L73.4522 121.328H74.8932L75.2852 119.219H76.3458L75.9538 121.328H77.1758L77.0144 122.239H75.7924L75.4696 123.991H76.6801L76.5302 124.89H75.3082L74.9163 127H73.8557ZM72.9681 123.991H74.4091L74.7318 122.239H73.2793L72.9681 123.991ZM80.768 127L81.1599 124.89H79.7074L79.327 127H78.2664L78.6584 124.89H77.4249L77.5863 123.991H78.8198L79.1425 122.239H77.9091L78.0704 121.328H79.3039L79.6959 119.219H80.7449L80.3645 121.328H81.8055L82.1974 119.219H83.258L82.8661 121.328H84.088L83.9266 122.239H82.7047L82.3819 123.991H83.5923L83.4425 124.89H82.2205L81.8286 127H80.768ZM79.8803 123.991H81.3213L81.6441 122.239H80.1916L79.8803 123.991ZM86.9194 127V125.524H88.418V127H86.9194ZM86.9194 122.712V121.236H88.418V122.712H86.9194ZM93.8317 127V125.524H95.3303V127H93.8317ZM93.8317 122.712V121.236H95.3303V122.712H93.8317ZM100.998 121.997L100.917 119.046H102.058L101.977 121.997H100.998ZM108.417 127L108.809 124.89H107.356L106.976 127H105.915L106.307 124.89H105.074L105.235 123.991H106.469L106.792 122.239H105.558L105.719 121.328H106.953L107.345 119.219H108.394L108.014 121.328H109.455L109.846 119.219H110.907L110.515 121.328H111.737L111.576 122.239H110.354L110.031 123.991H111.241L111.092 124.89H109.87L109.478 127H108.417ZM107.529 123.991H108.97L109.293 122.239H107.841L107.529 123.991ZM115.329 127L115.721 124.89H114.269L113.888 127H112.828L113.22 124.89H111.986L112.148 123.991H113.381L113.704 122.239H112.47L112.632 121.328H113.865L114.257 119.219H115.306L114.926 121.328H116.367L116.759 119.219H117.819L117.427 121.328H118.649L118.488 122.239H117.266L116.943 123.991H118.154L118.004 124.89H116.782L116.39 127H115.329ZM114.442 123.991H115.883L116.205 122.239H114.753L114.442 123.991ZM121.481 127V125.524H122.979V127H121.481ZM121.481 122.712V121.236H122.979V122.712H121.481ZM128.393 127V125.524H129.892V127H128.393ZM128.393 122.712V121.236H129.892V122.712H128.393ZM135.305 127V125.524H136.804V127H135.305ZM135.305 122.712V121.236H136.804V122.712H135.305ZM142.217 127V125.524H143.716V127H142.217ZM142.217 122.712V121.236H143.716V122.712H142.217ZM156.803 127L157.195 124.89H155.742L155.362 127H154.301L154.693 124.89H153.46L153.621 123.991H154.855L155.177 122.239H153.944L154.105 121.328H155.339L155.731 119.219H156.78L156.399 121.328H157.84L158.232 119.219H159.293L158.901 121.328H160.123L159.961 122.239H158.74L158.417 123.991H159.627L159.477 124.89H158.255L157.863 127H156.803ZM155.915 123.991H157.356L157.679 122.239H156.226L155.915 123.991ZM163.715 127L164.107 124.89H162.655L162.274 127H161.214L161.605 124.89H160.372L160.533 123.991H161.767L162.09 122.239H160.856L161.018 121.328H162.251L162.643 119.219H163.692L163.312 121.328H164.753L165.145 119.219H166.205L165.813 121.328H167.035L166.874 122.239H165.652L165.329 123.991H166.539L166.39 124.89H165.168L164.776 127H163.715ZM162.827 123.991H164.268L164.591 122.239H163.139L162.827 123.991ZM169.867 127V125.524H171.365V127H169.867ZM169.867 122.712V121.236H171.365V122.712H169.867ZM184.452 127L184.844 124.89H183.391L183.011 127H181.95L182.342 124.89H181.109L181.27 123.991H182.504L182.826 122.239H181.593L181.754 121.328H182.988L183.38 119.219H184.429L184.048 121.328H185.489L185.881 119.219H186.942L186.55 121.328H187.772L187.611 122.239H186.389L186.066 123.991H187.276L187.126 124.89H185.904L185.512 127H184.452ZM183.564 123.991H185.005L185.328 122.239H183.875L183.564 123.991ZM191.364 127L191.756 124.89H190.304L189.923 127H188.863L189.255 124.89H188.021L188.182 123.991H189.416L189.739 122.239H188.505L188.667 121.328H189.9L190.292 119.219H191.341L190.961 121.328H192.402L192.794 119.219H193.854L193.462 121.328H194.684L194.523 122.239H193.301L192.978 123.991H194.188L194.039 124.89H192.817L192.425 127H191.364ZM190.476 123.991H191.917L192.24 122.239H190.788L190.476 123.991ZM197.516 127V125.524H199.014V127H197.516ZM197.516 122.712V121.236H199.014V122.712H197.516ZM204.428 127V125.524H205.926V127H204.428ZM204.428 122.712V121.236H205.926V122.712H204.428ZM211.34 127V125.524H212.839V127H211.34ZM211.34 122.712V121.236H212.839V122.712H211.34ZM225.925 127L226.317 124.89H224.865L224.484 127H223.424L223.816 124.89H222.582L222.744 123.991H223.977L224.3 122.239H223.067L223.228 121.328H224.461L224.853 119.219H225.902L225.522 121.328H226.963L227.355 119.219H228.415L228.024 121.328H229.245L229.084 122.239H227.862L227.539 123.991H228.75L228.6 124.89H227.378L226.986 127H225.925ZM225.038 123.991H226.479L226.802 122.239H225.349L225.038 123.991ZM232.838 127L233.23 124.89H231.777L231.397 127H230.336L230.728 124.89H229.495L229.656 123.991H230.889L231.212 122.239H229.979L230.14 121.328H231.374L231.766 119.219H232.815L232.434 121.328H233.875L234.267 119.219H235.328L234.936 121.328H236.158L235.996 122.239H234.774L234.452 123.991H235.662L235.512 124.89H234.29L233.898 127H232.838ZM231.95 123.991H233.391L233.714 122.239H232.261L231.95 123.991ZM238.989 127V125.524H240.488V127H238.989ZM238.989 122.712V121.236H240.488V122.712H238.989ZM245.901 127V125.524H247.4V127H245.901ZM245.901 122.712V121.236H247.4V122.712H245.901ZM32.3822 138L32.7741 135.89H31.3216L30.9412 138H29.8806L30.2726 135.89H29.0391L29.2005 134.991H30.4339L30.7567 133.239H29.5232L29.6846 132.328H30.9181L31.3101 130.219H32.3591L31.9787 132.328H33.4197L33.8116 130.219H34.8722L34.4803 132.328H35.7022L35.5408 133.239H34.3189L33.9961 134.991H35.2065L35.0567 135.89H33.8347L33.4427 138H32.3822ZM31.4945 134.991H32.9355L33.2583 133.239H31.8058L31.4945 134.991ZM39.2944 138L39.6864 135.89H38.2339L37.8534 138H36.7929L37.1848 135.89H35.9513L36.1127 134.991H37.3462L37.669 133.239H36.4355L36.5969 132.328H37.8304L38.2223 130.219H39.2714L38.8909 132.328H40.3319L40.7239 130.219H41.7845L41.3925 132.328H42.6145L42.4531 133.239H41.2311L40.9083 134.991H42.1188L41.9689 135.89H40.7469L40.355 138H39.2944ZM38.4068 134.991H39.8478L40.1706 133.239H38.718L38.4068 134.991ZM45.4458 138V136.524H46.9445V138H45.4458ZM45.4458 133.712V132.236H46.9445V133.712H45.4458ZM52.3581 138V136.524H53.8567V138H52.3581ZM52.3581 133.712V132.236H53.8567V133.712H52.3581ZM59.2704 138V136.524H60.769V138H59.2704ZM59.2704 133.712V132.236H60.769V133.712H59.2704ZM73.8557 138L74.2477 135.89H72.7952L72.4147 138H71.3542L71.7461 135.89H70.5126L70.674 134.991H71.9075L72.2303 133.239H70.9968L71.1582 132.328H72.3917L72.7836 130.219H73.8327L73.4522 132.328H74.8932L75.2852 130.219H76.3458L75.9538 132.328H77.1758L77.0144 133.239H75.7924L75.4696 134.991H76.6801L76.5302 135.89H75.3082L74.9163 138H73.8557ZM72.9681 134.991H74.4091L74.7318 133.239H73.2793L72.9681 134.991ZM80.768 138L81.1599 135.89H79.7074L79.327 138H78.2664L78.6584 135.89H77.4249L77.5863 134.991H78.8198L79.1425 133.239H77.9091L78.0704 132.328H79.3039L79.6959 130.219H80.7449L80.3645 132.328H81.8055L82.1974 130.219H83.258L82.8661 132.328H84.088L83.9266 133.239H82.7047L82.3819 134.991H83.5923L83.4425 135.89H82.2205L81.8286 138H80.768ZM79.8803 134.991H81.3213L81.6441 133.239H80.1916L79.8803 134.991ZM86.9194 138V136.524H88.418V138H86.9194ZM86.9194 133.712V132.236H88.418V133.712H86.9194ZM93.8317 138V136.524H95.3303V138H93.8317ZM93.8317 133.712V132.236H95.3303V133.712H93.8317ZM108.417 138L108.809 135.89H107.356L106.976 138H105.915L106.307 135.89H105.074L105.235 134.991H106.469L106.792 133.239H105.558L105.719 132.328H106.953L107.345 130.219H108.394L108.014 132.328H109.455L109.846 130.219H110.907L110.515 132.328H111.737L111.576 133.239H110.354L110.031 134.991H111.241L111.092 135.89H109.87L109.478 138H108.417ZM107.529 134.991H108.97L109.293 133.239H107.841L107.529 134.991ZM115.329 138L115.721 135.89H114.269L113.888 138H112.828L113.22 135.89H111.986L112.148 134.991H113.381L113.704 133.239H112.47L112.632 132.328H113.865L114.257 130.219H115.306L114.926 132.328H116.367L116.759 130.219H117.819L117.427 132.328H118.649L118.488 133.239H117.266L116.943 134.991H118.154L118.004 135.89H116.782L116.39 138H115.329ZM114.442 134.991H115.883L116.205 133.239H114.753L114.442 134.991ZM121.481 138V136.524H122.979V138H121.481ZM121.481 133.712V132.236H122.979V133.712H121.481ZM128.393 138V136.524H129.892V138H128.393ZM128.393 133.712V132.236H129.892V133.712H128.393ZM135.305 138V136.524H136.804V138H135.305ZM135.305 133.712V132.236H136.804V133.712H135.305ZM142.217 138V136.524H143.716V138H142.217ZM142.217 133.712V132.236H143.716V133.712H142.217ZM156.803 138L157.195 135.89H155.742L155.362 138H154.301L154.693 135.89H153.46L153.621 134.991H154.855L155.177 133.239H153.944L154.105 132.328H155.339L155.731 130.219H156.78L156.399 132.328H157.84L158.232 130.219H159.293L158.901 132.328H160.123L159.961 133.239H158.74L158.417 134.991H159.627L159.477 135.89H158.255L157.863 138H156.803ZM155.915 134.991H157.356L157.679 133.239H156.226L155.915 134.991ZM163.715 138L164.107 135.89H162.655L162.274 138H161.214L161.605 135.89H160.372L160.533 134.991H161.767L162.09 133.239H160.856L161.018 132.328H162.251L162.643 130.219H163.692L163.312 132.328H164.753L165.145 130.219H166.205L165.813 132.328H167.035L166.874 133.239H165.652L165.329 134.991H166.539L166.39 135.89H165.168L164.776 138H163.715ZM162.827 134.991H164.268L164.591 133.239H163.139L162.827 134.991ZM169.867 138V136.524H171.365V138H169.867ZM169.867 133.712V132.236H171.365V133.712H169.867ZM184.452 138L184.844 135.89H183.391L183.011 138H181.95L182.342 135.89H181.109L181.27 134.991H182.504L182.826 133.239H181.593L181.754 132.328H182.988L183.38 130.219H184.429L184.048 132.328H185.489L185.881 130.219H186.942L186.55 132.328H187.772L187.611 133.239H186.389L186.066 134.991H187.276L187.126 135.89H185.904L185.512 138H184.452ZM183.564 134.991H185.005L185.328 133.239H183.875L183.564 134.991ZM191.364 138L191.756 135.89H190.304L189.923 138H188.863L189.255 135.89H188.021L188.182 134.991H189.416L189.739 133.239H188.505L188.667 132.328H189.9L190.292 130.219H191.341L190.961 132.328H192.402L192.794 130.219H193.854L193.462 132.328H194.684L194.523 133.239H193.301L192.978 134.991H194.188L194.039 135.89H192.817L192.425 138H191.364ZM190.476 134.991H191.917L192.24 133.239H190.788L190.476 134.991ZM197.516 138V136.524H199.014V138H197.516ZM197.516 133.712V132.236H199.014V133.712H197.516ZM204.428 138V136.524H205.926V138H204.428ZM204.428 133.712V132.236H205.926V133.712H204.428ZM211.34 138V136.524H212.839V138H211.34ZM211.34 133.712V132.236H212.839V133.712H211.34ZM225.925 138L226.317 135.89H224.865L224.484 138H223.424L223.816 135.89H222.582L222.744 134.991H223.977L224.3 133.239H223.067L223.228 132.328H224.461L224.853 130.219H225.902L225.522 132.328H226.963L227.355 130.219H228.415L228.024 132.328H229.245L229.084 133.239H227.862L227.539 134.991H228.75L228.6 135.89H227.378L226.986 138H225.925ZM225.038 134.991H226.479L226.802 133.239H225.349L225.038 134.991ZM232.838 138L233.23 135.89H231.777L231.397 138H230.336L230.728 135.89H229.495L229.656 134.991H230.889L231.212 133.239H229.979L230.14 132.328H231.374L231.766 130.219H232.815L232.434 132.328H233.875L234.267 130.219H235.328L234.936 132.328H236.158L235.996 133.239H234.774L234.452 134.991H235.662L235.512 135.89H234.29L233.898 138H232.838ZM231.95 134.991H233.391L233.714 133.239H232.261L231.95 134.991ZM238.989 138V136.524H240.488V138H238.989ZM238.989 133.712V132.236H240.488V133.712H238.989ZM245.901 138V136.524H247.4V138H245.901ZM245.901 133.712V132.236H247.4V133.712H245.901ZM32.3822 150L32.7741 147.89H31.3216L30.9412 150H29.8806L30.2726 147.89H29.0391L29.2005 146.991H30.4339L30.7567 145.239H29.5232L29.6846 144.328H30.9181L31.3101 142.219H32.3591L31.9787 144.328H33.4197L33.8116 142.219H34.8722L34.4803 144.328H35.7022L35.5408 145.239H34.3189L33.9961 146.991H35.2065L35.0567 147.89H33.8347L33.4427 150H32.3822ZM31.4945 146.991H32.9355L33.2583 145.239H31.8058L31.4945 146.991ZM39.2944 150L39.6864 147.89H38.2339L37.8534 150H36.7929L37.1848 147.89H35.9513L36.1127 146.991H37.3462L37.669 145.239H36.4355L36.5969 144.328H37.8304L38.2223 142.219H39.2714L38.8909 144.328H40.3319L40.7239 142.219H41.7845L41.3925 144.328H42.6145L42.4531 145.239H41.2311L40.9083 146.991H42.1188L41.9689 147.89H40.7469L40.355 150H39.2944ZM38.4068 146.991H39.8478L40.1706 145.239H38.718L38.4068 146.991ZM46.2067 150L46.5986 147.89H45.1461L44.7657 150H43.7051L44.0971 147.89H42.8636L43.025 146.991H44.2585L44.5812 145.239H43.3478L43.5092 144.328H44.7426L45.1346 142.219H46.1836L45.8032 144.328H47.2442L47.6362 142.219H48.6967L48.3048 144.328H49.5267L49.3653 145.239H48.1434L47.8206 146.991H49.031L48.8812 147.89H47.6592L47.2673 150H46.2067ZM45.319 146.991H46.76L47.0828 145.239H45.6303L45.319 146.991ZM53.1189 150L53.5109 147.89H52.0584L51.678 150H50.6174L51.0093 147.89H49.7758L49.9372 146.991H51.1707L51.4935 145.239H50.26L50.4214 144.328H51.6549L52.0468 142.219H53.0959L52.7155 144.328H54.1565L54.5484 142.219H55.609L55.217 144.328H56.439L56.2776 145.239H55.0556L54.7329 146.991H55.9433L55.7934 147.89H54.5715L54.1795 150H53.1189ZM52.2313 146.991H53.6723L53.9951 145.239H52.5425L52.2313 146.991ZM60.0312 150L60.4232 147.89H58.9706L58.5902 150H57.5296L57.9216 147.89H56.6881L56.8495 146.991H58.083L58.4058 145.239H57.1723L57.3337 144.328H58.5672L58.9591 142.219H60.0081L59.6277 144.328H61.0687L61.4607 142.219H62.5212L62.1293 144.328H63.3512L63.1899 145.239H61.9679L61.6451 146.991H62.8555L62.7057 147.89H61.4837L61.0918 150H60.0312ZM59.1436 146.991H60.5845L60.9073 145.239H59.4548L59.1436 146.991ZM66.9435 150L67.3354 147.89H65.8829L65.5025 150H64.4419L64.8339 147.89H63.6004L63.7618 146.991H64.9952L65.318 145.239H64.0845L64.2459 144.328H65.4794L65.8714 142.219H66.9204L66.54 144.328H67.981L68.3729 142.219H69.4335L69.0416 144.328H70.2635L70.1021 145.239H68.8802L68.5574 146.991H69.7678L69.6179 147.89H68.396L68.004 150H66.9435ZM66.0558 146.991H67.4968L67.8196 145.239H66.3671L66.0558 146.991ZM73.8557 150L74.2477 147.89H72.7952L72.4147 150H71.3542L71.7461 147.89H70.5126L70.674 146.991H71.9075L72.2303 145.239H70.9968L71.1582 144.328H72.3917L72.7836 142.219H73.8327L73.4522 144.328H74.8932L75.2852 142.219H76.3458L75.9538 144.328H77.1758L77.0144 145.239H75.7924L75.4696 146.991H76.6801L76.5302 147.89H75.3082L74.9163 150H73.8557ZM72.9681 146.991H74.4091L74.7318 145.239H73.2793L72.9681 146.991ZM80.768 150L81.1599 147.89H79.7074L79.327 150H78.2664L78.6584 147.89H77.4249L77.5863 146.991H78.8198L79.1425 145.239H77.9091L78.0704 144.328H79.3039L79.6959 142.219H80.7449L80.3645 144.328H81.8055L82.1974 142.219H83.258L82.8661 144.328H84.088L83.9266 145.239H82.7047L82.3819 146.991H83.5923L83.4425 147.89H82.2205L81.8286 150H80.768ZM79.8803 146.991H81.3213L81.6441 145.239H80.1916L79.8803 146.991ZM87.6802 150L88.0722 147.89H86.6197L86.2392 150H85.1787L85.5706 147.89H84.3371L84.4985 146.991H85.732L86.0548 145.239H84.8213L84.9827 144.328H86.2162L86.6081 142.219H87.6572L87.2768 144.328H88.7178L89.1097 142.219H90.1703L89.7783 144.328H91.0003L90.8389 145.239H89.6169L89.2942 146.991H90.5046L90.3547 147.89H89.1328L88.7408 150H87.6802ZM86.7926 146.991H88.2336L88.5564 145.239H87.1038L86.7926 146.991ZM93.8317 150V148.524H95.3303V150H93.8317ZM93.8317 145.712V144.236H95.3303V145.712H93.8317ZM108.417 150L108.809 147.89H107.356L106.976 150H105.915L106.307 147.89H105.074L105.235 146.991H106.469L106.792 145.239H105.558L105.719 144.328H106.953L107.345 142.219H108.394L108.014 144.328H109.455L109.846 142.219H110.907L110.515 144.328H111.737L111.576 145.239H110.354L110.031 146.991H111.241L111.092 147.89H109.87L109.478 150H108.417ZM107.529 146.991H108.97L109.293 145.239H107.841L107.529 146.991ZM115.329 150L115.721 147.89H114.269L113.888 150H112.828L113.22 147.89H111.986L112.148 146.991H113.381L113.704 145.239H112.47L112.632 144.328H113.865L114.257 142.219H115.306L114.926 144.328H116.367L116.759 142.219H117.819L117.427 144.328H118.649L118.488 145.239H117.266L116.943 146.991H118.154L118.004 147.89H116.782L116.39 150H115.329ZM114.442 146.991H115.883L116.205 145.239H114.753L114.442 146.991ZM121.481 150V148.524H122.979V150H121.481ZM121.481 145.712V144.236H122.979V145.712H121.481ZM128.393 150V148.524H129.892V150H128.393ZM128.393 145.712V144.236H129.892V145.712H128.393ZM135.305 150V148.524H136.804V150H135.305ZM135.305 145.712V144.236H136.804V145.712H135.305ZM142.217 150V148.524H143.716V150H142.217ZM142.217 145.712V144.236H143.716V145.712H142.217ZM156.803 150L157.195 147.89H155.742L155.362 150H154.301L154.693 147.89H153.46L153.621 146.991H154.855L155.177 145.239H153.944L154.105 144.328H155.339L155.731 142.219H156.78L156.399 144.328H157.84L158.232 142.219H159.293L158.901 144.328H160.123L159.961 145.239H158.74L158.417 146.991H159.627L159.477 147.89H158.255L157.863 150H156.803ZM155.915 146.991H157.356L157.679 145.239H156.226L155.915 146.991ZM163.715 150L164.107 147.89H162.655L162.274 150H161.214L161.605 147.89H160.372L160.533 146.991H161.767L162.09 145.239H160.856L161.018 144.328H162.251L162.643 142.219H163.692L163.312 144.328H164.753L165.145 142.219H166.205L165.813 144.328H167.035L166.874 145.239H165.652L165.329 146.991H166.539L166.39 147.89H165.168L164.776 150H163.715ZM162.827 146.991H164.268L164.591 145.239H163.139L162.827 146.991ZM169.867 150V148.524H171.365V150H169.867ZM169.867 145.712V144.236H171.365V145.712H169.867ZM184.452 150L184.844 147.89H183.391L183.011 150H181.95L182.342 147.89H181.109L181.27 146.991H182.504L182.826 145.239H181.593L181.754 144.328H182.988L183.38 142.219H184.429L184.048 144.328H185.489L185.881 142.219H186.942L186.55 144.328H187.772L187.611 145.239H186.389L186.066 146.991H187.276L187.126 147.89H185.904L185.512 150H184.452ZM183.564 146.991H185.005L185.328 145.239H183.875L183.564 146.991ZM191.364 150L191.756 147.89H190.304L189.923 150H188.863L189.255 147.89H188.021L188.182 146.991H189.416L189.739 145.239H188.505L188.667 144.328H189.9L190.292 142.219H191.341L190.961 144.328H192.402L192.794 142.219H193.854L193.462 144.328H194.684L194.523 145.239H193.301L192.978 146.991H194.188L194.039 147.89H192.817L192.425 150H191.364ZM190.476 146.991H191.917L192.24 145.239H190.788L190.476 146.991ZM198.276 150L198.668 147.89H197.216L196.835 150H195.775L196.167 147.89H194.933L195.095 146.991H196.328L196.651 145.239H195.417L195.579 144.328H196.812L197.204 142.219H198.253L197.873 144.328H199.314L199.706 142.219H200.766L200.374 144.328H201.596L201.435 145.239H200.213L199.89 146.991H201.101L200.951 147.89H199.729L199.337 150H198.276ZM197.389 146.991H198.83L199.153 145.239H197.7L197.389 146.991ZM205.189 150L205.581 147.89H204.128L203.748 150H202.687L203.079 147.89H201.846L202.007 146.991H203.24L203.563 145.239H202.33L202.491 144.328H203.725L204.117 142.219H205.166L204.785 144.328H206.226L206.618 142.219H207.679L207.287 144.328H208.509L208.347 145.239H207.125L206.803 146.991H208.013L207.863 147.89H206.641L206.249 150H205.189ZM204.301 146.991H205.742L206.065 145.239H204.612L204.301 146.991ZM212.101 150L212.493 147.89H211.04L210.66 150H209.599L209.991 147.89H208.758L208.919 146.991H210.153L210.475 145.239H209.242L209.403 144.328H210.637L211.029 142.219H212.078L211.697 144.328H213.138L213.53 142.219H214.591L214.199 144.328H215.421L215.26 145.239H214.038L213.715 146.991H214.925L214.775 147.89H213.553L213.161 150H212.101ZM211.213 146.991H212.654L212.977 145.239H211.525L211.213 146.991ZM219.013 150L219.405 147.89H217.953L217.572 150H216.512L216.904 147.89H215.67L215.831 146.991H217.065L217.388 145.239H216.154L216.316 144.328H217.549L217.941 142.219H218.99L218.61 144.328H220.051L220.443 142.219H221.503L221.111 144.328H222.333L222.172 145.239H220.95L220.627 146.991H221.838L221.688 147.89H220.466L220.074 150H219.013ZM218.126 146.991H219.567L219.889 145.239H218.437L218.126 146.991ZM225.925 150L226.317 147.89H224.865L224.484 150H223.424L223.816 147.89H222.582L222.744 146.991H223.977L224.3 145.239H223.067L223.228 144.328H224.461L224.853 142.219H225.902L225.522 144.328H226.963L227.355 142.219H228.415L228.024 144.328H229.245L229.084 145.239H227.862L227.539 146.991H228.75L228.6 147.89H227.378L226.986 150H225.925ZM225.038 146.991H226.479L226.802 145.239H225.349L225.038 146.991ZM232.838 150L233.23 147.89H231.777L231.397 150H230.336L230.728 147.89H229.495L229.656 146.991H230.889L231.212 145.239H229.979L230.14 144.328H231.374L231.766 142.219H232.815L232.434 144.328H233.875L234.267 142.219H235.328L234.936 144.328H236.158L235.996 145.239H234.774L234.452 146.991H235.662L235.512 147.89H234.29L233.898 150H232.838ZM231.95 146.991H233.391L233.714 145.239H232.261L231.95 146.991ZM239.75 150L240.142 147.89H238.689L238.309 150H237.248L237.64 147.89H236.407L236.568 146.991H237.802L238.124 145.239H236.891L237.052 144.328H238.286L238.678 142.219H239.727L239.346 144.328H240.787L241.179 142.219H242.24L241.848 144.328H243.07L242.909 145.239H241.687L241.364 146.991H242.574L242.424 147.89H241.202L240.811 150H239.75ZM238.862 146.991H240.303L240.626 145.239H239.174L238.862 146.991ZM245.901 150V148.524H247.4V150H245.901ZM245.901 145.712V144.236H247.4V145.712H245.901ZM24.7091 161V159.524H26.2077V161H24.7091ZM31.6213 161V159.524H33.12V161H31.6213ZM38.5336 161V159.524H40.0322V161H38.5336ZM45.4458 161V159.524H46.9445V161H45.4458ZM52.3581 161V159.524H53.8567V161H52.3581ZM59.2704 161V159.524H60.769V161H59.2704ZM73.8557 161L74.2477 158.89H72.7952L72.4147 161H71.3542L71.7461 158.89H70.5126L70.674 157.991H71.9075L72.2303 156.239H70.9968L71.1582 155.328H72.3917L72.7836 153.219H73.8327L73.4522 155.328H74.8932L75.2852 153.219H76.3458L75.9538 155.328H77.1758L77.0144 156.239H75.7924L75.4696 157.991H76.6801L76.5302 158.89H75.3082L74.9163 161H73.8557ZM72.9681 157.991H74.4091L74.7318 156.239H73.2793L72.9681 157.991ZM80.768 161L81.1599 158.89H79.7074L79.327 161H78.2664L78.6584 158.89H77.4249L77.5863 157.991H78.8198L79.1425 156.239H77.9091L78.0704 155.328H79.3039L79.6959 153.219H80.7449L80.3645 155.328H81.8055L82.1974 153.219H83.258L82.8661 155.328H84.088L83.9266 156.239H82.7047L82.3819 157.991H83.5923L83.4425 158.89H82.2205L81.8286 161H80.768ZM79.8803 157.991H81.3213L81.6441 156.239H80.1916L79.8803 157.991ZM86.9194 161V159.524H88.418V161H86.9194ZM86.9194 156.712V155.236H88.418V156.712H86.9194ZM93.8317 161V159.524H95.3303V161H93.8317ZM93.8317 156.712V155.236H95.3303V156.712H93.8317ZM100.744 161V159.524H102.243V161H100.744ZM115.329 161L115.721 158.89H114.269L113.888 161H112.828L113.22 158.89H111.986L112.148 157.991H113.381L113.704 156.239H112.47L112.632 155.328H113.865L114.257 153.219H115.306L114.926 155.328H116.367L116.759 153.219H117.819L117.427 155.328H118.649L118.488 156.239H117.266L116.943 157.991H118.154L118.004 158.89H116.782L116.39 161H115.329ZM114.442 157.991H115.883L116.205 156.239H114.753L114.442 157.991ZM122.242 161L122.633 158.89H121.181L120.801 161H119.74L120.132 158.89H118.898L119.06 157.991H120.293L120.616 156.239H119.383L119.544 155.328H120.777L121.169 153.219H122.218L121.838 155.328H123.279L123.671 153.219H124.732L124.34 155.328H125.562L125.4 156.239H124.178L123.855 157.991H125.066L124.916 158.89H123.694L123.302 161H122.242ZM121.354 157.991H122.795L123.118 156.239H121.665L121.354 157.991ZM128.393 161V159.524H129.892V161H128.393ZM128.393 156.712V155.236H129.892V156.712H128.393ZM135.305 161V159.524H136.804V161H135.305ZM135.305 156.712V155.236H136.804V156.712H135.305ZM149.891 161L150.283 158.89H148.83L148.45 161H147.389L147.781 158.89H146.547L146.709 157.991H147.942L148.265 156.239H147.032L147.193 155.328H148.427L148.818 153.219H149.868L149.487 155.328H150.928L151.32 153.219H152.381L151.989 155.328H153.211L153.049 156.239H151.827L151.504 157.991H152.715L152.565 158.89H151.343L150.951 161H149.891ZM149.003 157.991H150.444L150.767 156.239H149.314L149.003 157.991ZM156.803 161L157.195 158.89H155.742L155.362 161H154.301L154.693 158.89H153.46L153.621 157.991H154.855L155.177 156.239H153.944L154.105 155.328H155.339L155.731 153.219H156.78L156.399 155.328H157.84L158.232 153.219H159.293L158.901 155.328H160.123L159.961 156.239H158.74L158.417 157.991H159.627L159.477 158.89H158.255L157.863 161H156.803ZM155.915 157.991H157.356L157.679 156.239H156.226L155.915 157.991ZM162.954 161V159.524H164.453V161H162.954ZM162.954 156.712V155.236H164.453V156.712H162.954ZM169.867 161V159.524H171.365V161H169.867ZM169.867 156.712V155.236H171.365V156.712H169.867ZM176.779 161V159.524H178.277V161H176.779ZM183.691 161V159.524H185.19V161H183.691ZM190.603 161V159.524H192.102V161H190.603ZM197.516 161V159.524H199.014V161H197.516ZM204.428 161V159.524H205.926V161H204.428ZM211.34 161V159.524H212.839V161H211.34ZM225.925 161L226.317 158.89H224.865L224.484 161H223.424L223.816 158.89H222.582L222.744 157.991H223.977L224.3 156.239H223.067L223.228 155.328H224.461L224.853 153.219H225.902L225.522 155.328H226.963L227.355 153.219H228.415L228.024 155.328H229.245L229.084 156.239H227.862L227.539 157.991H228.75L228.6 158.89H227.378L226.986 161H225.925ZM225.038 157.991H226.479L226.802 156.239H225.349L225.038 157.991ZM232.838 161L233.23 158.89H231.777L231.397 161H230.336L230.728 158.89H229.495L229.656 157.991H230.889L231.212 156.239H229.979L230.14 155.328H231.374L231.766 153.219H232.815L232.434 155.328H233.875L234.267 153.219H235.328L234.936 155.328H236.158L235.996 156.239H234.774L234.452 157.991H235.662L235.512 158.89H234.29L233.898 161H232.838ZM231.95 157.991H233.391L233.714 156.239H232.261L231.95 157.991ZM238.989 161V159.524H240.488V161H238.989ZM238.989 156.712V155.236H240.488V156.712H238.989ZM245.901 161V159.524H247.4V161H245.901ZM245.901 156.712V155.236H247.4V156.712H245.901ZM24.7091 173V171.524H26.2077V173H24.7091ZM24.7091 168.712V167.236H26.2077V168.712H24.7091ZM31.6213 173V171.524H33.12V173H31.6213ZM31.6213 168.712V167.236H33.12V168.712H31.6213ZM38.5336 173V171.524H40.0322V173H38.5336ZM38.5336 168.712V167.236H40.0322V168.712H38.5336ZM45.4458 173V171.524H46.9445V173H45.4458ZM45.4458 168.712V167.236H46.9445V168.712H45.4458ZM52.3581 173V171.524H53.8567V173H52.3581ZM52.3581 168.712V167.236H53.8567V168.712H52.3581ZM59.2704 173V171.524H60.769V173H59.2704ZM59.2704 168.712V167.236H60.769V168.712H59.2704ZM73.8557 173L74.2477 170.89H72.7952L72.4147 173H71.3542L71.7461 170.89H70.5126L70.674 169.991H71.9075L72.2303 168.239H70.9968L71.1582 167.328H72.3917L72.7836 165.219H73.8327L73.4522 167.328H74.8932L75.2852 165.219H76.3458L75.9538 167.328H77.1758L77.0144 168.239H75.7924L75.4696 169.991H76.6801L76.5302 170.89H75.3082L74.9163 173H73.8557ZM72.9681 169.991H74.4091L74.7318 168.239H73.2793L72.9681 169.991ZM80.768 173L81.1599 170.89H79.7074L79.327 173H78.2664L78.6584 170.89H77.4249L77.5863 169.991H78.8198L79.1425 168.239H77.9091L78.0704 167.328H79.3039L79.6959 165.219H80.7449L80.3645 167.328H81.8055L82.1974 165.219H83.258L82.8661 167.328H84.088L83.9266 168.239H82.7047L82.3819 169.991H83.5923L83.4425 170.89H82.2205L81.8286 173H80.768ZM79.8803 169.991H81.3213L81.6441 168.239H80.1916L79.8803 169.991ZM86.9194 173V171.524H88.418V173H86.9194ZM86.9194 168.712V167.236H88.418V168.712H86.9194ZM93.8317 173V171.524H95.3303V173H93.8317ZM93.8317 168.712V167.236H95.3303V168.712H93.8317ZM100.744 173V171.524H102.243V173H100.744ZM100.744 168.712V167.236H102.243V168.712H100.744ZM107.656 173V171.524H109.155V173H107.656ZM122.242 173L122.633 170.89H121.181L120.801 173H119.74L120.132 170.89H118.898L119.06 169.991H120.293L120.616 168.239H119.383L119.544 167.328H120.777L121.169 165.219H122.218L121.838 167.328H123.279L123.671 165.219H124.732L124.34 167.328H125.562L125.4 168.239H124.178L123.855 169.991H125.066L124.916 170.89H123.694L123.302 173H122.242ZM121.354 169.991H122.795L123.118 168.239H121.665L121.354 169.991ZM129.154 173L129.546 170.89H128.093L127.713 173H126.652L127.044 170.89H125.811L125.972 169.991H127.206L127.528 168.239H126.295L126.456 167.328H127.69L128.082 165.219H129.131L128.75 167.328H130.191L130.583 165.219H131.644L131.252 167.328H132.474L132.312 168.239H131.09L130.768 169.991H131.978L131.828 170.89H130.606L130.214 173H129.154ZM128.266 169.991H129.707L130.03 168.239H128.577L128.266 169.991ZM136.066 173L136.458 170.89H135.005L134.625 173H133.564L133.956 170.89H132.723L132.884 169.991H134.118L134.441 168.239H133.207L133.369 167.328H134.602L134.994 165.219H136.043L135.663 167.328H137.104L137.496 165.219H138.556L138.164 167.328H139.386L139.225 168.239H138.003L137.68 169.991H138.89L138.741 170.89H137.519L137.127 173H136.066ZM135.178 169.991H136.619L136.942 168.239H135.49L135.178 169.991ZM142.978 173L143.37 170.89H141.918L141.537 173H140.477L140.869 170.89H139.635L139.797 169.991H141.03L141.353 168.239H140.119L140.281 167.328H141.514L141.906 165.219H142.955L142.575 167.328H144.016L144.408 165.219H145.468L145.076 167.328H146.298L146.137 168.239H144.915L144.592 169.991H145.803L145.653 170.89H144.431L144.039 173H142.978ZM142.091 169.991H143.532L143.854 168.239H142.402L142.091 169.991ZM149.891 173L150.283 170.89H148.83L148.45 173H147.389L147.781 170.89H146.547L146.709 169.991H147.942L148.265 168.239H147.032L147.193 167.328H148.427L148.818 165.219H149.868L149.487 167.328H150.928L151.32 165.219H152.381L151.989 167.328H153.211L153.049 168.239H151.827L151.504 169.991H152.715L152.565 170.89H151.343L150.951 173H149.891ZM149.003 169.991H150.444L150.767 168.239H149.314L149.003 169.991ZM156.042 173V171.524H157.541V173H156.042ZM156.042 168.712V167.236H157.541V168.712H156.042ZM162.954 173V171.524H164.453V173H162.954ZM162.954 168.712V167.236H164.453V168.712H162.954ZM169.867 173V171.524H171.365V173H169.867ZM169.867 168.712V167.236H171.365V168.712H169.867ZM176.779 173V171.524H178.277V173H176.779ZM176.779 168.712V167.236H178.277V168.712H176.779ZM183.691 173V171.524H185.19V173H183.691ZM183.691 168.712V167.236H185.19V168.712H183.691ZM190.603 173V171.524H192.102V173H190.603ZM190.603 168.712V167.236H192.102V168.712H190.603ZM197.516 173V171.524H199.014V173H197.516ZM197.516 168.712V167.236H199.014V168.712H197.516ZM204.428 173V171.524H205.926V173H204.428ZM204.428 168.712V167.236H205.926V168.712H204.428ZM211.34 173V171.524H212.839V173H211.34ZM211.34 168.712V167.236H212.839V168.712H211.34ZM225.925 173L226.317 170.89H224.865L224.484 173H223.424L223.816 170.89H222.582L222.744 169.991H223.977L224.3 168.239H223.067L223.228 167.328H224.461L224.853 165.219H225.902L225.522 167.328H226.963L227.355 165.219H228.415L228.024 167.328H229.245L229.084 168.239H227.862L227.539 169.991H228.75L228.6 170.89H227.378L226.986 173H225.925ZM225.038 169.991H226.479L226.802 168.239H225.349L225.038 169.991ZM232.838 173L233.23 170.89H231.777L231.397 173H230.336L230.728 170.89H229.495L229.656 169.991H230.889L231.212 168.239H229.979L230.14 167.328H231.374L231.766 165.219H232.815L232.434 167.328H233.875L234.267 165.219H235.328L234.936 167.328H236.158L235.996 168.239H234.774L234.452 169.991H235.662L235.512 170.89H234.29L233.898 173H232.838ZM231.95 169.991H233.391L233.714 168.239H232.261L231.95 169.991ZM238.989 173V171.524H240.488V173H238.989ZM238.989 168.712V167.236H240.488V168.712H238.989ZM245.901 173V171.524H247.4V173H245.901ZM245.901 168.712V167.236H247.4V168.712H245.901ZM24.7091 184V182.524H26.2077V184H24.7091ZM24.7091 179.712V178.236H26.2077V179.712H24.7091ZM31.6213 184V182.524H33.12V184H31.6213ZM31.6213 179.712V178.236H33.12V179.712H31.6213ZM38.5336 184V182.524H40.0322V184H38.5336ZM38.5336 179.712V178.236H40.0322V179.712H38.5336ZM45.4458 184V182.524H46.9445V184H45.4458ZM45.4458 179.712V178.236H46.9445V179.712H45.4458ZM52.3581 184V182.524H53.8567V184H52.3581ZM52.3581 179.712V178.236H53.8567V179.712H52.3581ZM59.2704 184V182.524H60.769V184H59.2704ZM59.2704 179.712V178.236H60.769V179.712H59.2704ZM66.1826 184V182.524H67.6813V184H66.1826ZM73.0949 184V182.524H74.5935V184H73.0949ZM80.0071 184V182.524H81.5058V184H80.0071ZM80.0071 179.712V178.236H81.5058V179.712H80.0071ZM86.9194 184V182.524H88.418V184H86.9194ZM86.9194 179.712V178.236H88.418V179.712H86.9194ZM93.8317 184V182.524H95.3303V184H93.8317ZM93.8317 179.712V178.236H95.3303V179.712H93.8317ZM100.744 184V182.524H102.243V184H100.744ZM100.744 179.712V178.236H102.243V179.712H100.744ZM107.656 184V182.524H109.155V184H107.656ZM107.656 179.712V178.236H109.155V179.712H107.656ZM114.568 184V182.524H116.067V184H114.568ZM121.481 184V182.524H122.979V184H121.481ZM128.393 184V182.524H129.892V184H128.393ZM135.305 184V182.524H136.804V184H135.305ZM142.217 184V182.524H143.716V184H142.217ZM149.13 184V182.524H150.628V184H149.13ZM149.13 179.712V178.236H150.628V179.712H149.13ZM156.042 184V182.524H157.541V184H156.042ZM156.042 179.712V178.236H157.541V179.712H156.042ZM162.954 184V182.524H164.453V184H162.954ZM162.954 179.712V178.236H164.453V179.712H162.954ZM169.867 184V182.524H171.365V184H169.867ZM169.867 179.712V178.236H171.365V179.712H169.867ZM176.779 184V182.524H178.277V184H176.779ZM176.779 179.712V178.236H178.277V179.712H176.779ZM183.691 184V182.524H185.19V184H183.691ZM183.691 179.712V178.236H185.19V179.712H183.691ZM190.603 184V182.524H192.102V184H190.603ZM190.603 179.712V178.236H192.102V179.712H190.603ZM197.516 184V182.524H199.014V184H197.516ZM197.516 179.712V178.236H199.014V179.712H197.516ZM204.428 184V182.524H205.926V184H204.428ZM204.428 179.712V178.236H205.926V179.712H204.428ZM211.34 184V182.524H212.839V184H211.34ZM211.34 179.712V178.236H212.839V179.712H211.34ZM218.252 184V182.524H219.751V184H218.252ZM225.165 184V182.524H226.663V184H225.165ZM232.077 184V182.524H233.575V184H232.077ZM232.077 179.712V178.236H233.575V179.712H232.077ZM238.989 184V182.524H240.488V184H238.989ZM238.989 179.712V178.236H240.488V179.712H238.989ZM245.901 184V182.524H247.4V184H245.901ZM245.901 179.712V178.236H247.4V179.712H245.901Z" fill="#0A0B0D"/>
<path d="M0 5.75105C0 2.57483 2.57483 0 5.75105 0H414.249C417.425 0 420 2.57483 420 5.75105V40H0V5.75105Z" fill="#242E3D"/>
<path d="M37.2652 26V15.0874H44.398V16.5898H38.9417V19.6264H43.5914V21.113H38.9417V24.4975H44.5403V26H37.2652ZM47.2702 26V18.0923H48.8834V19.8794H49.1364C49.7374 18.6458 51.0026 17.95 52.6158 17.95C52.6949 17.95 52.9005 17.95 53.1219 17.9816V19.6264C52.8847 19.5948 52.6949 19.579 52.3469 19.579C50.3542 19.579 48.8834 20.8442 48.8834 22.4574V26H47.2702ZM56.2788 26V18.0923H57.892V19.8794H58.145C58.746 18.6458 60.0112 17.95 61.6244 17.95C61.7035 17.95 61.9091 17.95 62.1305 17.9816V19.6264C61.8933 19.5948 61.7035 19.579 61.3555 19.579C59.3628 19.579 57.892 20.8442 57.892 22.4574V26H56.2788ZM67.7704 26.2372C65.4297 26.2372 63.69 24.4659 63.69 22.0462C63.69 19.6264 65.4297 17.8551 67.7704 17.8551C70.1111 17.8551 71.8508 19.6264 71.8508 22.0462C71.8508 24.4659 70.1111 26.2372 67.7704 26.2372ZM67.7704 24.7822C69.178 24.7822 70.1902 23.6435 70.1902 22.0462C70.1902 20.4488 69.178 19.3101 67.7704 19.3101C66.3628 19.3101 65.3507 20.4488 65.3507 22.0462C65.3507 23.6435 66.3628 24.7822 67.7704 24.7822ZM74.296 26V18.0923H75.9092V19.8794H76.1622C76.7632 18.6458 78.0284 17.95 79.6416 17.95C79.7207 17.95 79.9263 17.95 80.1477 17.9816V19.6264C79.9105 19.5948 79.7207 19.579 79.3727 19.579C77.38 19.579 75.9092 20.8442 75.9092 22.4574V26H74.296ZM95.8242 26V23.5644H90.6051V21.7931L95.1758 15.3246H97.4374V22.2043H99.0822V23.5644H97.4374V26H95.8242ZM92.0759 22.2043H95.8242V16.9852H95.5712L92.0759 21.9354V22.2043ZM103.821 26.2372C101.179 26.2372 99.7561 23.8649 99.7561 20.6544C99.7561 17.4439 101.179 15.0874 103.821 15.0874C106.446 15.0874 107.869 17.4439 107.869 20.6544C107.869 23.8649 106.446 26.2372 103.821 26.2372ZM103.821 24.7664C105.45 24.7664 106.225 23.1374 106.225 20.6544C106.225 20.2748 106.209 19.9111 106.161 19.579L101.812 23.2481C102.192 24.2129 102.856 24.7664 103.821 24.7664ZM101.401 20.6544C101.401 21.034 101.417 21.3977 101.448 21.7298L105.813 18.0607C105.434 17.1117 104.77 16.5582 103.821 16.5582C102.176 16.5582 101.401 18.1872 101.401 20.6544ZM113.841 26V23.5644H108.622V21.7931L113.193 15.3246H115.455V22.2043H117.099V23.5644H115.455V26H113.841ZM110.093 22.2043H113.841V16.9852H113.588L110.093 21.9354V22.2043Z" fill="#BEC5D1"/>
<path d="M23.1278 75.4392V74.2056C21.1034 73.9842 19.8698 72.7664 19.6642 71.1374H21.2458C21.483 72.1338 22.2263 72.6399 23.1278 72.798V69.1763L22.8273 69.0972C21.3249 68.7335 19.9647 67.9269 19.9647 66.1081C19.9647 64.4949 21.23 63.2772 23.1278 63.1032V61.8538H24.1558V63.119C26.022 63.3088 27.05 64.4475 27.3347 65.9974H25.7848C25.5318 65.1276 24.994 64.6057 24.1558 64.4475V67.8953L24.5038 67.9743C26.1011 68.3539 27.5403 69.1447 27.5403 71.09C27.5403 72.8138 26.2118 74.0949 24.1558 74.2214V75.4392H23.1278ZM21.5305 65.9658C21.5305 66.8198 22.0049 67.3101 23.1278 67.6264V64.4317C22.0998 64.574 21.5305 65.2066 21.5305 65.9658ZM24.1558 72.8455C25.2154 72.719 25.9113 72.0705 25.9113 71.1849C25.9113 70.2359 25.3736 69.7773 24.1558 69.4294V72.8455Z" fill="#5B616E"/>
<path d="M38.2824 74V63.0874H45.4152V64.5898H39.9589V67.6264H44.6086V69.113H39.9589V72.4975H45.5575V74H38.2824ZM48.2874 74V66.0923H49.9006V67.8794H50.1536C50.7546 66.6458 52.0198 65.95 53.633 65.95C53.7121 65.95 53.9177 65.95 54.1391 65.9816V67.6264C53.9019 67.5948 53.7121 67.579 53.3641 67.579C51.3714 67.579 49.9006 68.8442 49.9006 70.4574V74H48.2874ZM57.296 74V66.0923H58.9092V67.8794H59.1622C59.7632 66.6458 61.0284 65.95 62.6416 65.95C62.7207 65.95 62.9263 65.95 63.1477 65.9816V67.6264C62.9105 67.5948 62.7207 67.579 62.3727 67.579C60.38 67.579 58.9092 68.8442 58.9092 70.4574V74H57.296ZM68.7876 74.2372C66.4469 74.2372 64.7072 72.4659 64.7072 70.0462C64.7072 67.6264 66.4469 65.8551 68.7876 65.8551C71.1283 65.8551 72.868 67.6264 72.868 70.0462C72.868 72.4659 71.1283 74.2372 68.7876 74.2372ZM68.7876 72.7822C70.1952 72.7822 71.2074 71.6435 71.2074 70.0462C71.2074 68.4488 70.1952 67.3101 68.7876 67.3101C67.38 67.3101 66.3678 68.4488 66.3678 70.0462C66.3678 71.6435 67.38 72.7822 68.7876 72.7822ZM75.3132 74V66.0923H76.9263V67.8794H77.1794C77.7804 66.6458 79.0456 65.95 80.6588 65.95C80.7379 65.95 80.9435 65.95 81.1649 65.9816V67.6264C80.9276 67.5948 80.7379 67.579 80.3899 67.579C78.3972 67.579 76.9263 68.8442 76.9263 70.4574V74H75.3132ZM85.7768 74V71.9756H87.8328V74H85.7768ZM85.7768 68.1167V66.0923H87.8328V68.1167H85.7768ZM105.85 74V71.5644H100.631V69.7931L105.202 63.3246H107.463V70.2043H109.108V71.5644H107.463V74H105.85ZM102.102 70.2043H105.85V64.9852H105.597L102.102 69.9354V70.2043ZM113.846 74.2372C111.205 74.2372 109.782 71.8649 109.782 68.6544C109.782 65.4439 111.205 63.0874 113.846 63.0874C116.472 63.0874 117.895 65.4439 117.895 68.6544C117.895 71.8649 116.472 74.2372 113.846 74.2372ZM113.846 72.7664C115.475 72.7664 116.25 71.1374 116.25 68.6544C116.25 68.2748 116.235 67.9111 116.187 67.579L111.838 71.2481C112.217 72.2129 112.882 72.7664 113.846 72.7664ZM111.427 68.6544C111.427 69.034 111.442 69.3977 111.474 69.7298L115.839 66.0607C115.46 65.1117 114.795 64.5582 113.846 64.5582C112.202 64.5582 111.427 66.1872 111.427 68.6544ZM123.867 74V71.5644H118.648V69.7931L123.219 63.3246H125.48V70.2043H127.125V71.5644H125.48V74H123.867ZM120.119 70.2043H123.867V64.9852H123.614L120.119 69.9354V70.2043ZM138.184 70.5048V69.0182H143.529V70.5048H138.184ZM155.189 74V63.0874H159.253C161.293 63.0874 162.653 64.0363 162.653 65.8551C162.653 67.1361 162.005 67.8636 160.93 68.2274V68.4804C162.29 68.7651 163.001 69.6033 163.001 71.0425C163.001 72.9562 161.515 74 159.522 74H155.189ZM159.427 72.5292C160.55 72.5292 161.293 71.9124 161.293 70.8211C161.293 69.7773 160.55 69.1605 159.427 69.1605H156.865V72.5292H159.427ZM156.865 67.8004H159.079C160.202 67.8004 160.945 67.1994 160.945 66.1714C160.945 65.1276 160.186 64.5424 159.079 64.5424H156.865V67.8004ZM167.06 74.2372C165.526 74.2372 164.292 73.3358 164.292 71.8333C164.292 70.062 165.715 69.5242 167.408 69.3503L169.748 69.0972V68.6702C169.748 67.7687 169.132 67.1836 167.993 67.1836C166.965 67.1836 166.316 67.658 166.127 68.4646H164.561C164.767 66.9621 166 65.8551 167.993 65.8551C170.017 65.8551 171.267 66.8831 171.267 68.7493V72.6082C171.267 73.0985 171.314 73.7786 171.346 73.9684V74H169.764C169.748 73.7311 169.748 73.399 169.748 73.0827H169.48C169.005 73.8893 168.088 74.2372 167.06 74.2372ZM165.937 71.7384C165.937 72.545 166.585 73.0036 167.471 73.0036C168.894 73.0036 169.748 71.9282 169.748 70.8686V70.2043L167.914 70.4257C166.68 70.5681 165.937 70.9002 165.937 71.7384ZM177.033 74.2372C174.993 74.2372 173.617 73.3041 173.364 71.7384H174.93C175.183 72.6082 176.037 72.9404 177.049 72.9404C178.029 72.9404 178.836 72.4975 178.836 71.8017C178.836 71.1058 178.156 70.8527 177.191 70.7104L176.274 70.5681C174.708 70.3466 173.649 69.7298 173.649 68.3065C173.649 66.8356 174.993 65.8551 176.875 65.8551C178.694 65.8551 179.959 66.6933 180.307 68.1641H178.773C178.504 67.4524 177.808 67.1203 176.875 67.1203C175.894 67.1203 175.23 67.579 175.23 68.1641C175.23 68.8126 175.768 69.034 176.748 69.1763L177.666 69.3186C179.295 69.5559 180.402 70.2043 180.402 71.6593C180.402 73.2567 178.963 74.2372 177.033 74.2372ZM186.026 74.2372C183.59 74.2372 182.009 72.5292 182.009 70.0303C182.009 67.579 183.654 65.8551 186.01 65.8551C188.43 65.8551 189.869 67.658 189.869 70.0462V70.315H183.574C183.638 71.8491 184.666 72.8455 186.026 72.8455C187.101 72.8455 187.781 72.4659 188.114 71.7226H189.758C189.315 73.1934 187.892 74.2372 186.026 74.2372ZM183.622 69.2238H188.272C188.114 67.9902 187.228 67.1836 185.994 67.1836C184.792 67.1836 183.828 67.9269 183.622 69.2238ZM199.994 74V66.0923H201.386V66.6617H201.639C201.892 66.1556 202.335 65.8551 202.936 65.8551C203.553 65.8551 204.043 66.1239 204.312 66.6617H204.549C204.897 66.1714 205.466 65.8551 206.131 65.8551C207.238 65.8551 207.934 66.6458 207.934 68.085V74H206.51V68.3065C206.51 67.6106 206.289 67.1045 205.656 67.1045C205.039 67.1045 204.676 67.6422 204.676 68.2748V74H203.252V68.3065C203.252 67.6106 203.031 67.1045 202.414 67.1045C201.781 67.1045 201.434 67.6738 201.434 68.2906V74H199.994ZM212.925 74.2372C210.584 74.2372 208.845 72.4659 208.845 70.0462C208.845 67.6264 210.584 65.8551 212.925 65.8551C215.266 65.8551 217.006 67.6264 217.006 70.0462C217.006 72.4659 215.266 74.2372 212.925 74.2372ZM212.925 72.7822C214.333 72.7822 215.345 71.6435 215.345 70.0462C215.345 68.4488 214.333 67.3101 212.925 67.3101C211.518 67.3101 210.505 68.4488 210.505 70.0462C210.505 71.6435 211.518 72.7822 212.925 72.7822ZM221.396 74.2372C219.277 74.2372 217.853 72.4975 217.853 70.1094C217.853 67.6738 219.387 65.8551 221.428 65.8551C222.535 65.8551 223.405 66.3612 223.8 67.231H224.069V63.0874H225.682V74H224.069V72.8771H223.8C223.357 73.7311 222.471 74.2372 221.396 74.2372ZM221.807 72.798C223.12 72.798 224.069 71.6751 224.069 70.0462C224.069 68.4172 223.12 67.2943 221.807 67.2943C220.415 67.2943 219.514 68.4646 219.514 70.0462C219.514 71.6277 220.447 72.798 221.807 72.798ZM230.895 74.2372C228.807 74.2372 227.51 72.9878 227.51 70.8211V66.0923H229.124V70.7895C229.124 71.9282 229.709 72.7822 230.895 72.7822C232.081 72.7822 232.666 71.9282 232.666 70.7895V66.0923H234.279V70.8211C234.279 72.9878 232.998 74.2372 230.895 74.2372ZM236.487 74V72.7506H239.397V64.3368H236.788V63.0874H241.011V72.7506H243.905V74H236.487ZM249.086 74.2372C246.65 74.2372 245.069 72.5292 245.069 70.0303C245.069 67.579 246.714 65.8551 249.07 65.8551C251.49 65.8551 252.929 67.658 252.929 70.0462V70.315H246.635C246.698 71.8491 247.726 72.8455 249.086 72.8455C250.161 72.8455 250.842 72.4659 251.174 71.7226H252.818C252.376 73.1934 250.952 74.2372 249.086 74.2372ZM246.682 69.2238H251.332C251.174 67.9902 250.288 67.1836 249.054 67.1836C247.852 67.1836 246.888 67.9269 246.682 69.2238ZM263.592 74V66.0923H265.205V67.1045H265.458C265.965 66.2663 266.787 65.8551 267.752 65.8551C269.365 65.8551 270.44 66.9621 270.44 68.7493V74H268.827V69.2396C268.827 68.1641 268.321 67.3259 267.103 67.3259C265.949 67.3259 265.205 68.2274 265.205 69.2396V74H263.592ZM275.985 74.2372C273.645 74.2372 271.905 72.4659 271.905 70.0462C271.905 67.6264 273.645 65.8551 275.985 65.8551C278.326 65.8551 280.066 67.6264 280.066 70.0462C280.066 72.4659 278.326 74.2372 275.985 74.2372ZM275.985 72.7822C277.393 72.7822 278.405 71.6435 278.405 70.0462C278.405 68.4488 277.393 67.3101 275.985 67.3101C274.578 67.3101 273.566 68.4488 273.566 70.0462C273.566 71.6435 274.578 72.7822 275.985 72.7822ZM284.994 74.0633C284.156 74.0633 283.681 73.5572 283.681 72.6873V67.3259H281.103V66.0923H283.713V63.9572H285.247V66.0923H288.426V67.3259H285.279V72.1496C285.279 72.5924 285.421 72.7822 285.895 72.7822H288.552V74.0633H284.994ZM299.057 74V72.7506H301.983V67.3259H299.215V66.0923H301.999V64.4633C301.999 63.5777 302.521 63.0399 303.375 63.0399H306.728V64.3052H304.213C303.77 64.3052 303.58 64.5108 303.58 64.9536V66.0923H306.728V67.3259H303.596V72.7506H306.886V74H299.057ZM312.02 74.2372C309.679 74.2372 307.939 72.4659 307.939 70.0462C307.939 67.6264 309.679 65.8551 312.02 65.8551C314.36 65.8551 316.1 67.6264 316.1 70.0462C316.1 72.4659 314.36 74.2372 312.02 74.2372ZM312.02 72.7822C313.427 72.7822 314.439 71.6435 314.439 70.0462C314.439 68.4488 313.427 67.3101 312.02 67.3101C310.612 67.3101 309.6 68.4488 309.6 70.0462C309.6 71.6435 310.612 72.7822 312.02 72.7822ZM320.981 74.2372C318.893 74.2372 317.596 72.9878 317.596 70.8211V66.0923H319.21V70.7895C319.21 71.9282 319.795 72.7822 320.981 72.7822C322.167 72.7822 322.752 71.9282 322.752 70.7895V66.0923H324.365V70.8211C324.365 72.9878 323.084 74.2372 320.981 74.2372ZM326.652 74V66.0923H328.266V67.1045H328.519C329.025 66.2663 329.847 65.8551 330.812 65.8551C332.425 65.8551 333.5 66.9621 333.5 68.7493V74H331.887V69.2396C331.887 68.1641 331.381 67.3259 330.163 67.3259C329.009 67.3259 328.266 68.2274 328.266 69.2396V74H326.652ZM338.508 74.2372C336.389 74.2372 334.965 72.4975 334.965 70.1094C334.965 67.6738 336.499 65.8551 338.539 65.8551C339.646 65.8551 340.516 66.3612 340.912 67.231H341.181V63.0874H342.794V74H341.181V72.8771H340.912C340.469 73.7311 339.583 74.2372 338.508 74.2372ZM338.919 72.798C340.232 72.798 341.181 71.6751 341.181 70.0462C341.181 68.4172 340.232 67.2943 338.919 67.2943C337.527 67.2943 336.626 68.4646 336.626 70.0462C336.626 71.6277 337.559 72.798 338.919 72.798Z" fill="#0000FF"/>
<path d="M23.8711 209.237C21.3407 209.237 19.8066 207.877 19.5377 206.043H21.2142C21.5463 207.292 22.6375 207.782 23.8711 207.782C25.168 207.782 26.0379 207.086 26.0379 206.122C26.0379 205.094 25.3894 204.651 24.0135 204.334L22.7324 204.034C21.1351 203.654 19.9331 202.753 19.9331 201.029C19.9331 199.226 21.4356 197.85 23.6497 197.85C25.9746 197.85 27.2082 199.1 27.5561 200.903H25.9113C25.6108 199.859 24.8833 199.289 23.6655 199.289C22.3529 199.289 21.6254 200.001 21.6254 200.887C21.6254 201.804 22.2105 202.247 23.539 202.547L24.8042 202.848C26.37 203.212 27.7775 204.002 27.7775 205.963C27.7775 207.861 26.2276 209.237 23.8711 209.237ZM32.7058 209.237C30.6181 209.237 29.3213 207.988 29.3213 205.821V201.092H30.9344V205.789C30.9344 206.928 31.5196 207.782 32.7058 207.782C33.8919 207.782 34.4771 206.928 34.4771 205.789V201.092H36.0903V205.821C36.0903 207.988 34.8092 209.237 32.7058 209.237ZM38.6304 212.005V210.676H43.0112C43.6597 210.676 43.8969 210.423 43.8969 209.822V207.513H43.628C43.201 208.431 42.2995 208.984 41.0976 208.984C39.0732 208.984 37.6498 207.308 37.6498 204.983C37.6498 202.611 39.2313 200.855 41.2557 200.855C42.4102 200.855 43.201 201.424 43.6122 202.231H43.8811V201.092H45.3994V210.186C45.3994 211.356 44.7667 212.005 43.549 212.005H38.6304ZM41.6037 207.592C42.948 207.592 43.8969 206.501 43.8969 204.92C43.8969 203.338 42.948 202.263 41.6037 202.263C40.2277 202.263 39.3104 203.37 39.3104 204.92C39.3104 206.454 40.2435 207.592 41.6037 207.592ZM47.639 212.005V210.676H52.0198C52.6683 210.676 52.9055 210.423 52.9055 209.822V207.513H52.6366C52.2096 208.431 51.3081 208.984 50.1062 208.984C48.0818 208.984 46.6584 207.308 46.6584 204.983C46.6584 202.611 48.2399 200.855 50.2643 200.855C51.4188 200.855 52.2096 201.424 52.6208 202.231H52.8897V201.092H54.4079V210.186C54.4079 211.356 53.7753 212.005 52.5575 212.005H47.639ZM50.6123 207.592C51.9566 207.592 52.9055 206.501 52.9055 204.92C52.9055 203.338 51.9566 202.263 50.6123 202.263C49.2363 202.263 48.319 203.37 48.319 204.92C48.319 206.454 49.2521 207.592 50.6123 207.592ZM59.9055 209.237C57.47 209.237 55.8884 207.529 55.8884 205.03C55.8884 202.579 57.5332 200.855 59.8897 200.855C62.3095 200.855 63.7487 202.658 63.7487 205.046V205.315H57.4541C57.5174 206.849 58.5454 207.845 59.9055 207.845C60.981 207.845 61.661 207.466 61.9932 206.723H63.638C63.1951 208.193 61.7717 209.237 59.9055 209.237ZM57.5016 204.224H62.1513C61.9932 202.99 61.1075 202.184 59.8739 202.184C58.6719 202.184 57.7072 202.927 57.5016 204.224ZM68.9299 209.237C66.8898 209.237 65.5138 208.304 65.2608 206.738H66.8265C67.0795 207.608 67.9336 207.94 68.9458 207.94C69.9263 207.94 70.7329 207.498 70.7329 206.802C70.7329 206.106 70.0528 205.853 69.0881 205.71L68.1708 205.568C66.6051 205.347 65.5454 204.73 65.5454 203.306C65.5454 201.836 66.8898 200.855 68.7718 200.855C70.5906 200.855 71.8558 201.693 72.2037 203.164H70.6696C70.4008 202.452 69.7049 202.12 68.7718 202.12C67.7912 202.12 67.127 202.579 67.127 203.164C67.127 203.813 67.6647 204.034 68.6453 204.176L69.5626 204.319C71.1915 204.556 72.2986 205.204 72.2986 206.659C72.2986 208.257 70.8594 209.237 68.9299 209.237ZM77.7962 209.063C76.958 209.063 76.4835 208.557 76.4835 207.687V202.326H73.9056V201.092H76.5151V198.957H78.0492V201.092H81.2281V202.326H78.0809V207.15C78.0809 207.592 78.2232 207.782 78.6977 207.782H81.3547V209.063H77.7962ZM83.3412 209V207.751H86.2513V202.342H83.6417V201.092H87.8644V207.751H90.7586V209H83.3412ZM86.0773 199.875V198.087H88.0384V199.875H86.0773ZM95.8134 209.237C93.4727 209.237 91.733 207.466 91.733 205.046C91.733 202.626 93.4727 200.855 95.8134 200.855C98.1541 200.855 99.8938 202.626 99.8938 205.046C99.8938 207.466 98.1541 209.237 95.8134 209.237ZM95.8134 207.782C97.221 207.782 98.2331 206.644 98.2331 205.046C98.2331 203.449 97.221 202.31 95.8134 202.31C94.4058 202.31 93.3936 203.449 93.3936 205.046C93.3936 206.644 94.4058 207.782 95.8134 207.782ZM101.437 209V201.092H103.051V202.104H103.304C103.81 201.266 104.632 200.855 105.597 200.855C107.21 200.855 108.286 201.962 108.286 203.749V209H106.672V204.24C106.672 203.164 106.166 202.326 104.949 202.326C103.794 202.326 103.051 203.227 103.051 204.24V209H101.437ZM112.803 209V206.976H114.859V209H112.803ZM112.803 203.117V201.092H114.859V203.117H112.803Z" fill="#5B616E"/>
<path d="M128.716 212.005V210.676H133.097C133.746 210.676 133.983 210.423 133.983 209.822V207.513H133.714C133.287 208.431 132.385 208.984 131.184 208.984C129.159 208.984 127.736 207.308 127.736 204.983C127.736 202.611 129.317 200.855 131.342 200.855C132.496 200.855 133.287 201.424 133.698 202.231H133.967V201.092H135.485V210.186C135.485 211.356 134.853 212.005 133.635 212.005H128.716ZM131.69 207.592C133.034 207.592 133.983 206.501 133.983 204.92C133.983 203.338 133.034 202.263 131.69 202.263C130.314 202.263 129.396 203.37 129.396 204.92C129.396 206.454 130.329 207.592 131.69 207.592ZM168.404 209.237C167.297 209.237 166.411 208.684 166.016 207.893H165.747V209H164.134V198.087H165.747V202.263H166.016C166.443 201.424 167.344 200.855 168.499 200.855C170.555 200.855 171.963 202.595 171.963 204.983C171.963 207.418 170.428 209.237 168.404 209.237ZM168.009 207.798C169.4 207.798 170.302 206.628 170.302 205.046C170.302 203.465 169.369 202.294 168.024 202.294C166.696 202.294 165.747 203.417 165.747 205.046C165.747 206.691 166.696 207.798 168.009 207.798ZM176.068 209.237C174.534 209.237 173.301 208.336 173.301 206.833C173.301 205.062 174.724 204.524 176.416 204.35L178.757 204.097V203.67C178.757 202.769 178.14 202.184 177.001 202.184C175.973 202.184 175.325 202.658 175.135 203.465H173.57C173.775 201.962 175.009 200.855 177.001 200.855C179.026 200.855 180.275 201.883 180.275 203.749V207.608C180.275 208.099 180.323 208.779 180.354 208.968V209H178.773C178.757 208.731 178.757 208.399 178.757 208.083H178.488C178.014 208.889 177.096 209.237 176.068 209.237ZM174.945 206.738C174.945 207.545 175.594 208.004 176.48 208.004C177.903 208.004 178.757 206.928 178.757 205.869V205.204L176.922 205.426C175.689 205.568 174.945 205.9 174.945 206.738ZM186.073 209.237C183.828 209.237 182.009 207.592 182.009 205.046C182.009 202.5 183.828 200.855 186.073 200.855C187.987 200.855 189.474 201.978 189.853 203.797H188.256C187.94 202.864 187.18 202.31 186.089 202.31C184.745 202.31 183.669 203.338 183.669 205.03C183.669 206.754 184.745 207.782 186.089 207.782C187.18 207.782 187.971 207.213 188.287 206.232H189.901C189.537 208.051 188.05 209.237 186.073 209.237ZM191.65 209V198.087H193.263V204.493H193.532L196.885 201.092H198.83L194.908 204.904L199.02 209H196.98L193.532 205.552H193.263V209H191.65ZM212.925 209.063C212.087 209.063 211.612 208.557 211.612 207.687V202.326H209.035V201.092H211.644V198.957H213.178V201.092H216.357V202.326H213.21V207.15C213.21 207.592 213.352 207.782 213.827 207.782H216.484V209.063H212.925ZM221.934 209.237C219.593 209.237 217.853 207.466 217.853 205.046C217.853 202.626 219.593 200.855 221.934 200.855C224.274 200.855 226.014 202.626 226.014 205.046C226.014 207.466 224.274 209.237 221.934 209.237ZM221.934 207.782C223.341 207.782 224.353 206.644 224.353 205.046C224.353 203.449 223.341 202.31 221.934 202.31C220.526 202.31 219.514 203.449 219.514 205.046C219.514 206.644 220.526 207.782 221.934 207.782ZM236.772 210.566L241.564 197.85H243.13L238.338 210.566H236.772ZM249.481 209.237C248.374 209.237 247.489 208.684 247.093 207.893H246.824V209H245.211V198.087H246.824V202.263H247.093C247.52 201.424 248.422 200.855 249.576 200.855C251.632 200.855 253.04 202.595 253.04 204.983C253.04 207.418 251.506 209.237 249.481 209.237ZM249.086 207.798C250.478 207.798 251.379 206.628 251.379 205.046C251.379 203.465 250.446 202.294 249.102 202.294C247.773 202.294 246.824 203.417 246.824 205.046C246.824 206.691 247.773 207.798 249.086 207.798ZM257.146 209.237C255.612 209.237 254.378 208.336 254.378 206.833C254.378 205.062 255.801 204.524 257.494 204.35L259.834 204.097V203.67C259.834 202.769 259.218 202.184 258.079 202.184C257.051 202.184 256.402 202.658 256.213 203.465H254.647C254.852 201.962 256.086 200.855 258.079 200.855C260.103 200.855 261.353 201.883 261.353 203.749V207.608C261.353 208.099 261.4 208.779 261.432 208.968V209H259.85C259.834 208.731 259.834 208.399 259.834 208.083H259.565C259.091 208.889 258.174 209.237 257.146 209.237ZM256.023 206.738C256.023 207.545 256.671 208.004 257.557 208.004C258.98 208.004 259.834 206.928 259.834 205.869V205.204L258 205.426C256.766 205.568 256.023 205.9 256.023 206.738ZM267.119 209.237C265.079 209.237 263.703 208.304 263.45 206.738H265.016C265.269 207.608 266.123 207.94 267.135 207.94C268.115 207.94 268.922 207.498 268.922 206.802C268.922 206.106 268.242 205.853 267.277 205.71L266.36 205.568C264.794 205.347 263.735 204.73 263.735 203.306C263.735 201.836 265.079 200.855 266.961 200.855C268.78 200.855 270.045 201.693 270.393 203.164H268.859C268.59 202.452 267.894 202.12 266.961 202.12C265.98 202.12 265.316 202.579 265.316 203.164C265.316 203.813 265.854 204.034 266.834 204.176L267.752 204.319C269.381 204.556 270.488 205.204 270.488 206.659C270.488 208.257 269.049 209.237 267.119 209.237ZM276.112 209.237C273.676 209.237 272.095 207.529 272.095 205.03C272.095 202.579 273.74 200.855 276.096 200.855C278.516 200.855 279.955 202.658 279.955 205.046V205.315H273.66C273.724 206.849 274.752 207.845 276.112 207.845C277.187 207.845 277.867 207.466 278.199 206.723H279.844C279.401 208.193 277.978 209.237 276.112 209.237ZM273.708 204.224H278.358C278.199 202.99 277.314 202.184 276.08 202.184C274.878 202.184 273.913 202.927 273.708 204.224Z" fill="#0000FF"/>
<path d="M140.983 209.237C138.547 209.237 136.966 207.529 136.966 205.03C136.966 202.579 138.611 200.855 140.967 200.855C143.387 200.855 144.826 202.658 144.826 205.046V205.315H138.532C138.595 206.849 139.623 207.845 140.983 207.845C142.058 207.845 142.738 207.466 143.071 206.723H144.715C144.272 208.193 142.849 209.237 140.983 209.237ZM138.579 204.224H143.229C143.071 202.99 142.185 202.184 140.951 202.184C139.749 202.184 138.785 202.927 138.579 204.224ZM149.865 209.063C149.027 209.063 148.552 208.557 148.552 207.687V202.326H145.974V201.092H148.584V198.957H150.118V201.092H153.297V202.326H150.15V207.15C150.15 207.592 150.292 207.782 150.766 207.782H153.423V209.063H149.865Z" fill="#0000FF"/>
<path d="M23.9186 254.237C21.6412 254.237 19.8066 252.055 19.8066 248.544C19.8066 245.033 21.6412 242.85 23.9186 242.85C25.9746 242.85 27.3031 244.448 27.7143 246.836H26.0062C25.769 245.349 25.0257 244.384 23.9186 244.384C22.511 244.384 21.5146 245.997 21.5146 248.544C21.5146 251.09 22.511 252.703 23.9186 252.703C25.0415 252.703 25.769 251.802 26.0062 250.41H27.7301C27.3189 252.703 25.9746 254.237 23.9186 254.237ZM29.2896 254V252.751H32.1997V244.337H29.5901V243.087H33.8128V252.751H36.7071V254H29.2896ZM38.2982 254V252.751H41.2083V247.342H38.5987V246.092H42.8214V252.751H45.7157V254H38.2982ZM41.0343 244.875V243.087H42.9954V244.875H41.0343ZM50.9444 254.237C48.6986 254.237 46.8798 252.592 46.8798 250.046C46.8798 247.5 48.6986 245.855 50.9444 245.855C52.858 245.855 54.3447 246.978 54.7243 248.797H53.1269C52.8106 247.864 52.0515 247.31 50.9602 247.31C49.6159 247.31 48.5404 248.338 48.5404 250.03C48.5404 251.754 49.6159 252.782 50.9602 252.782C52.0515 252.782 52.8422 252.213 53.1585 251.232H54.7717C54.4079 253.051 52.9213 254.237 50.9444 254.237ZM56.521 254V243.087H58.1342V249.493H58.4031L61.7559 246.092H63.7012L59.779 249.904L63.891 254H61.8508L58.4031 250.552H58.1342V254H56.521ZM74.4117 254V243.087H76.0249V247.104H76.2779C76.784 246.266 77.6064 245.855 78.5712 245.855C80.1843 245.855 81.2598 246.962 81.2598 248.749V254H79.6466V249.24C79.6466 248.164 79.1405 247.326 77.9227 247.326C76.7682 247.326 76.0249 248.227 76.0249 249.24V254H74.4117ZM86.9313 254.237C84.4957 254.237 82.9142 252.529 82.9142 250.03C82.9142 247.579 84.559 245.855 86.9155 245.855C89.3353 245.855 90.7745 247.658 90.7745 250.046V250.315H84.4799C84.5432 251.849 85.5712 252.845 86.9313 252.845C88.0068 252.845 88.6868 252.466 89.0189 251.723H90.6637C90.2209 253.193 88.7975 254.237 86.9313 254.237ZM84.5274 249.224H89.1771C89.0189 247.99 88.1333 247.184 86.8997 247.184C85.6977 247.184 84.733 247.927 84.5274 249.224ZM93.3304 254V246.092H94.9435V247.879H95.1966C95.7976 246.646 97.0628 245.95 98.676 245.95C98.7551 245.95 98.9607 245.95 99.1821 245.982V247.626C98.9448 247.595 98.7551 247.579 98.4071 247.579C96.4144 247.579 94.9435 248.844 94.9435 250.457V254H93.3304ZM104.949 254.237C102.513 254.237 100.931 252.529 100.931 250.03C100.931 247.579 102.576 245.855 104.933 245.855C107.352 245.855 108.792 247.658 108.792 250.046V250.315H102.497C102.56 251.849 103.588 252.845 104.949 252.845C106.024 252.845 106.704 252.466 107.036 251.723H108.681C108.238 253.193 106.815 254.237 104.949 254.237ZM102.545 249.224H107.194C107.036 247.99 106.15 247.184 104.917 247.184C103.715 247.184 102.75 247.927 102.545 249.224ZM122.839 254.063C122.001 254.063 121.526 253.557 121.526 252.687V247.326H118.949V246.092H121.558V243.957H123.092V246.092H126.271V247.326H123.124V252.15C123.124 252.592 123.266 252.782 123.741 252.782H126.398V254.063H122.839ZM131.848 254.237C129.507 254.237 127.767 252.466 127.767 250.046C127.767 247.626 129.507 245.855 131.848 245.855C134.188 245.855 135.928 247.626 135.928 250.046C135.928 252.466 134.188 254.237 131.848 254.237ZM131.848 252.782C133.255 252.782 134.268 251.644 134.268 250.046C134.268 248.449 133.255 247.31 131.848 247.31C130.44 247.31 129.428 248.449 129.428 250.046C129.428 251.644 130.44 252.782 131.848 252.782ZM147.382 254V246.092H148.995V247.879H149.248C149.849 246.646 151.114 245.95 152.728 245.95C152.807 245.95 153.012 245.95 153.234 245.982V247.626C152.996 247.595 152.807 247.579 152.459 247.579C150.466 247.579 148.995 248.844 148.995 250.457V254H147.382ZM159 254.237C156.565 254.237 154.983 252.529 154.983 250.03C154.983 247.579 156.628 245.855 158.984 245.855C161.404 245.855 162.843 247.658 162.843 250.046V250.315H156.549C156.612 251.849 157.64 252.845 159 252.845C160.076 252.845 160.756 252.466 161.088 251.723H162.733C162.29 253.193 160.866 254.237 159 254.237ZM156.596 249.224H161.246C161.088 247.99 160.202 247.184 158.968 247.184C157.766 247.184 156.802 247.927 156.596 249.224ZM168.404 254.237C167.297 254.237 166.411 253.684 166.016 252.893H165.747V254H164.134V243.087H165.747V247.263H166.016C166.443 246.424 167.344 245.855 168.499 245.855C170.555 245.855 171.963 247.595 171.963 249.983C171.963 252.418 170.428 254.237 168.404 254.237ZM168.009 252.798C169.4 252.798 170.302 251.628 170.302 250.046C170.302 248.465 169.369 247.294 168.024 247.294C166.696 247.294 165.747 248.417 165.747 250.046C165.747 251.691 166.696 252.798 168.009 252.798ZM176.891 254.237C174.55 254.237 172.81 252.466 172.81 250.046C172.81 247.626 174.55 245.855 176.891 245.855C179.231 245.855 180.971 247.626 180.971 250.046C180.971 252.466 179.231 254.237 176.891 254.237ZM176.891 252.782C178.298 252.782 179.311 251.644 179.311 250.046C179.311 248.449 178.298 247.31 176.891 247.31C175.483 247.31 174.471 248.449 174.471 250.046C174.471 251.644 175.483 252.782 176.891 252.782ZM185.899 254.237C183.559 254.237 181.819 252.466 181.819 250.046C181.819 247.626 183.559 245.855 185.899 245.855C188.24 245.855 189.98 247.626 189.98 250.046C189.98 252.466 188.24 254.237 185.899 254.237ZM185.899 252.782C187.307 252.782 188.319 251.644 188.319 250.046C188.319 248.449 187.307 247.31 185.899 247.31C184.492 247.31 183.48 248.449 183.48 250.046C183.48 251.644 184.492 252.782 185.899 252.782ZM194.908 254.063C194.07 254.063 193.595 253.557 193.595 252.687V247.326H191.017V246.092H193.627V243.957H195.161V246.092H198.34V247.326H195.193V252.15C195.193 252.592 195.335 252.782 195.809 252.782H198.466V254.063H194.908ZM209.24 254V243.087H213.305C215.345 243.087 216.705 244.036 216.705 245.855C216.705 247.136 216.057 247.864 214.981 248.227V248.48C216.341 248.765 217.053 249.603 217.053 251.043C217.053 252.956 215.566 254 213.574 254H209.24ZM213.479 252.529C214.602 252.529 215.345 251.912 215.345 250.821C215.345 249.777 214.602 249.16 213.479 249.16H210.917V252.529H213.479ZM210.917 247.8H213.131C214.254 247.8 214.997 247.199 214.997 246.171C214.997 245.128 214.238 244.542 213.131 244.542H210.917V247.8ZM221.111 254.237C219.577 254.237 218.344 253.336 218.344 251.833C218.344 250.062 219.767 249.524 221.459 249.35L223.8 249.097V248.67C223.8 247.769 223.183 247.184 222.044 247.184C221.016 247.184 220.368 247.658 220.178 248.465H218.613C218.818 246.962 220.052 245.855 222.044 245.855C224.069 245.855 225.318 246.883 225.318 248.749V252.608C225.318 253.099 225.366 253.779 225.397 253.968V254H223.816C223.8 253.731 223.8 253.399 223.8 253.083H223.531C223.057 253.889 222.139 254.237 221.111 254.237ZM219.988 251.738C219.988 252.545 220.637 253.004 221.523 253.004C222.946 253.004 223.8 251.928 223.8 250.869V250.204L221.965 250.426C220.732 250.568 219.988 250.9 219.988 251.738ZM231.085 254.237C229.044 254.237 227.669 253.304 227.415 251.738H228.981C229.234 252.608 230.088 252.94 231.1 252.94C232.081 252.94 232.888 252.498 232.888 251.802C232.888 251.106 232.208 250.853 231.243 250.71L230.326 250.568C228.76 250.347 227.7 249.73 227.7 248.306C227.7 246.836 229.044 245.855 230.927 245.855C232.745 245.855 234.011 246.693 234.358 248.164H232.824C232.555 247.452 231.86 247.12 230.927 247.12C229.946 247.12 229.282 247.579 229.282 248.164C229.282 248.813 229.819 249.034 230.8 249.176L231.717 249.319C233.346 249.556 234.453 250.204 234.453 251.659C234.453 253.257 233.014 254.237 231.085 254.237ZM240.077 254.237C237.642 254.237 236.06 252.529 236.06 250.03C236.06 247.579 237.705 245.855 240.062 245.855C242.481 245.855 243.921 247.658 243.921 250.046V250.315H237.626C237.689 251.849 238.717 252.845 240.077 252.845C241.153 252.845 241.833 252.466 242.165 251.723H243.81C243.367 253.193 241.944 254.237 240.077 254.237ZM237.674 249.224H242.323C242.165 247.99 241.279 247.184 240.046 247.184C238.844 247.184 237.879 247.927 237.674 249.224Z" fill="#5B616E"/>
<path d="M19.2847 232L22.5426 221.087H25.0415L28.1887 232H26.4491L25.7057 229.232H21.7519L20.9769 232H19.2847ZM22.1473 227.809H25.3103L23.9028 222.59H23.6181L22.1473 227.809ZM29.0366 232V221.087H33.4649C35.426 221.087 36.881 222.289 36.881 224.235C36.881 226.212 35.426 227.461 33.4491 227.461H30.713V232H29.0366ZM30.6814 225.974H33.3068C34.4455 225.974 35.173 225.358 35.173 224.298C35.173 223.222 34.4455 222.574 33.3068 222.574H30.6814V225.974ZM38.061 232V230.498H40.9078V222.59H38.061V221.087H45.4468V222.59H42.6V230.498H45.4468V232H38.061ZM56.094 232V221.087H57.7704V225.753H58.0709L62.1197 221.087H64.1124L59.3836 226.433L64.4129 232H62.2937L58.0709 227.303H57.7704V232H56.094ZM68.9141 232.237C66.4786 232.237 64.897 230.529 64.897 228.03C64.897 225.579 66.5418 223.855 68.8983 223.855C71.3181 223.855 72.7573 225.658 72.7573 228.046V228.315H66.4627C66.526 229.849 67.554 230.845 68.9141 230.845C69.9896 230.845 70.6696 230.466 71.0018 229.723H72.6466C72.2037 231.193 70.7803 232.237 68.9141 232.237ZM66.5102 227.224H71.1599C71.0018 225.99 70.1161 225.184 68.8825 225.184C67.6805 225.184 66.7158 225.927 66.5102 227.224ZM74.2061 235.005V233.708H75.6927C76.2779 233.708 76.531 233.502 76.7524 232.886L77.0054 232.174L73.6684 224.092H75.3606L77.6855 230.165H77.9544L80.3267 224.092H82.0031L77.9385 233.676C77.5273 234.625 77.0529 235.005 75.9458 235.005H74.2061ZM85.7768 232V229.976H87.8328V232H85.7768ZM85.7768 226.117V224.092H87.8328V226.117H85.7768Z" fill="#5B616E"/>
<path d="M101.137 232V221.087H104.047L106.688 230.339H106.989V221.087H108.507V232H105.597L102.956 222.748H102.655V232H101.137ZM113.831 232.237C111.49 232.237 109.75 230.466 109.75 228.046C109.75 225.626 111.49 223.855 113.831 223.855C116.171 223.855 117.911 225.626 117.911 228.046C117.911 230.466 116.171 232.237 113.831 232.237ZM113.831 230.782C115.238 230.782 116.25 229.644 116.25 228.046C116.25 226.449 115.238 225.31 113.831 225.31C112.423 225.31 111.411 226.449 111.411 228.046C111.411 229.644 112.423 230.782 113.831 230.782ZM122.839 232.063C122.001 232.063 121.526 231.557 121.526 230.687V225.326H118.949V224.092H121.558V221.957H123.092V224.092H126.271V225.326H123.124V230.15C123.124 230.592 123.266 230.782 123.741 230.782H126.398V232.063H122.839ZM137.472 232V224.092H139.085V225.104H139.338C139.844 224.266 140.667 223.855 141.631 223.855C143.244 223.855 144.32 224.962 144.32 226.749V232H142.707V227.24C142.707 226.164 142.201 225.326 140.983 225.326C139.828 225.326 139.085 226.227 139.085 227.24V232H137.472ZM149.991 232.237C147.556 232.237 145.974 230.529 145.974 228.03C145.974 225.579 147.619 223.855 149.976 223.855C152.395 223.855 153.835 225.658 153.835 228.046V228.315H147.54C147.603 229.849 148.631 230.845 149.991 230.845C151.067 230.845 151.747 230.466 152.079 229.723H153.724C153.281 231.193 151.858 232.237 149.991 232.237ZM147.588 227.224H152.237C152.079 225.99 151.193 225.184 149.96 225.184C148.758 225.184 147.793 225.927 147.588 227.224ZM159 232.237C156.565 232.237 154.983 230.529 154.983 228.03C154.983 225.579 156.628 223.855 158.984 223.855C161.404 223.855 162.843 225.658 162.843 228.046V228.315H156.549C156.612 229.849 157.64 230.845 159 230.845C160.076 230.845 160.756 230.466 161.088 229.723H162.733C162.29 231.193 160.866 232.237 159 232.237ZM156.596 227.224H161.246C161.088 225.99 160.202 225.184 158.968 225.184C157.766 225.184 156.802 225.927 156.596 227.224ZM167.344 232.237C165.225 232.237 163.802 230.498 163.802 228.109C163.802 225.674 165.336 223.855 167.376 223.855C168.483 223.855 169.353 224.361 169.748 225.231H170.017V221.087H171.63V232H170.017V230.877H169.748C169.306 231.731 168.42 232.237 167.344 232.237ZM167.756 230.798C169.068 230.798 170.017 229.675 170.017 228.046C170.017 226.417 169.068 225.294 167.756 225.294C166.364 225.294 165.462 226.465 165.462 228.046C165.462 229.628 166.396 230.798 167.756 230.798ZM177.017 232.237C174.582 232.237 173 230.529 173 228.03C173 225.579 174.645 223.855 177.001 223.855C179.421 223.855 180.86 225.658 180.86 228.046V228.315H174.566C174.629 229.849 175.657 230.845 177.017 230.845C178.093 230.845 178.773 230.466 179.105 229.723H180.75C180.307 231.193 178.883 232.237 177.017 232.237ZM174.613 227.224H179.263C179.105 225.99 178.219 225.184 176.986 225.184C175.784 225.184 174.819 225.927 174.613 227.224ZM185.362 232.237C183.242 232.237 181.819 230.498 181.819 228.109C181.819 225.674 183.353 223.855 185.393 223.855C186.5 223.855 187.37 224.361 187.766 225.231H188.034V221.087H189.648V232H188.034V230.877H187.766C187.323 231.731 186.437 232.237 185.362 232.237ZM185.773 230.798C187.086 230.798 188.034 229.675 188.034 228.046C188.034 226.417 187.086 225.294 185.773 225.294C184.381 225.294 183.48 226.465 183.48 228.046C183.48 229.628 184.413 230.798 185.773 230.798Z" fill="#0000FF"/>
<path d="M27.2 12H12.8C12.3587 12 12 12.3587 12 12.8V27.2C12 27.6413 12.3587 28 12.8 28H27.2C27.6413 28 28 27.6413 28 27.2V12.8C28 12.3587 27.6413 12 27.2 12Z" fill="#0000FF"/>
</svg>
