<svg width="1017" height="568" viewBox="0 0 1017 568" fill="none" xmlns="http://www.w3.org/2000/svg">
<path d="M449.457 562.88C449.457 560.052 447.163 557.759 444.336 557.759C441.509 557.759 439.215 560.052 439.215 562.88C439.215 565.707 441.509 568.001 444.336 568.001C447.163 568.001 449.457 565.707 449.457 562.88Z" fill="#1E2025"/>
<path d="M507.125 562.88C507.125 560.052 504.832 557.759 502.004 557.759C499.177 557.759 496.883 560.052 496.883 562.88C496.883 565.707 499.177 568.001 502.004 568.001C504.832 568.001 507.125 565.707 507.125 562.88Z" fill="#1E2025"/>
<path d="M526.34 562.88C526.34 560.052 524.046 557.759 521.219 557.759C518.392 557.759 516.098 560.052 516.098 562.88C516.098 565.707 518.392 568.001 521.219 568.001C524.046 568.001 526.34 565.707 526.34 562.88Z" fill="#1E2025"/>
<path d="M545.567 562.88C545.567 560.052 543.273 557.759 540.446 557.759C537.618 557.759 535.325 560.052 535.325 562.88C535.325 565.707 537.618 568.001 540.446 568.001C543.273 568.001 545.567 565.707 545.567 562.88Z" fill="#1E2025"/>
<path d="M564.782 562.88C564.782 560.052 562.488 557.759 559.661 557.759C556.833 557.759 554.54 560.052 554.54 562.88C554.54 565.707 556.833 568.001 559.661 568.001C562.488 568.001 564.782 565.707 564.782 562.88Z" fill="#1E2025"/>
<path d="M603.218 562.88C603.218 560.052 600.924 557.759 598.097 557.759C595.269 557.759 592.975 560.052 592.975 562.88C592.975 565.707 595.269 568.001 598.097 568.001C600.924 568.001 603.218 565.707 603.218 562.88Z" fill="#1E2025"/>
<path d="M641.659 562.88C641.659 560.052 639.365 557.759 636.538 557.759C633.711 557.759 631.417 560.052 631.417 562.88C631.417 565.707 633.711 568.001 636.538 568.001C639.365 568.001 641.659 565.707 641.659 562.88Z" fill="#32353D"/>
<path d="M660.886 562.88C660.886 560.052 658.592 557.759 655.764 557.759C652.937 557.759 650.643 560.052 650.643 562.88C650.643 565.707 652.937 568.001 655.764 568.001C658.592 568.001 660.886 565.707 660.886 562.88Z" fill="#32353D"/>
<path d="M680.101 562.88C680.101 560.052 677.807 557.759 674.98 557.759C672.152 557.759 669.858 560.052 669.858 562.88C669.858 565.707 672.152 568.001 674.98 568.001C677.807 568.001 680.101 565.707 680.101 562.88Z" fill="#1E2025"/>
<path d="M699.327 562.88C699.327 560.052 697.033 557.759 694.206 557.759C691.379 557.759 689.085 560.052 689.085 562.88C689.085 565.707 691.379 568.001 694.206 568.001C697.033 568.001 699.327 565.707 699.327 562.88Z" fill="#1E2025"/>
<path d="M718.542 562.88C718.542 560.052 716.248 557.759 713.421 557.759C710.594 557.759 708.3 560.052 708.3 562.88C708.3 565.707 710.594 568.001 713.421 568.001C716.248 568.001 718.542 565.707 718.542 562.88Z" fill="#1E2025"/>
<path d="M737.769 562.88C737.769 560.052 735.475 557.759 732.648 557.759C729.82 557.759 727.526 560.052 727.526 562.88C727.526 565.707 729.82 568.001 732.648 568.001C735.475 568.001 737.769 565.707 737.769 562.88Z" fill="#1E2025"/>
<path d="M756.984 562.88C756.984 560.052 754.69 557.759 751.863 557.759C749.035 557.759 746.741 560.052 746.741 562.88C746.741 565.707 749.035 568.001 751.863 568.001C754.69 568.001 756.984 565.707 756.984 562.88Z" fill="#1E2025"/>
<path d="M776.21 562.88C776.21 560.052 773.916 557.759 771.089 557.759C768.262 557.759 765.968 560.052 765.968 562.88C765.968 565.707 768.262 568.001 771.089 568.001C773.916 568.001 776.21 565.707 776.21 562.88Z" fill="#1E2025"/>
<path d="M795.425 562.88C795.425 560.052 793.131 557.759 790.304 557.759C787.477 557.759 785.183 560.052 785.183 562.88C785.183 565.707 787.477 568.001 790.304 568.001C793.131 568.001 795.425 565.707 795.425 562.88Z" fill="#1E2025"/>
<path d="M814.652 562.88C814.652 560.052 812.358 557.759 809.531 557.759C806.703 557.759 804.409 560.052 804.409 562.88C804.409 565.707 806.703 568.001 809.531 568.001C812.358 568.001 814.652 565.707 814.652 562.88Z" fill="#1E2025"/>
<path d="M833.867 562.88C833.867 560.052 831.573 557.759 828.746 557.759C825.918 557.759 823.624 560.052 823.624 562.88C823.624 565.707 825.918 568.001 828.746 568.001C831.573 568.001 833.867 565.707 833.867 562.88Z" fill="#1E2025"/>
<path d="M853.093 562.88C853.093 560.052 850.799 557.759 847.972 557.759C845.145 557.759 842.851 560.052 842.851 562.88C842.851 565.707 845.145 568.001 847.972 568.001C850.799 568.001 853.093 565.707 853.093 562.88Z" fill="#1E2025"/>
<path d="M872.308 562.88C872.308 560.052 870.014 557.759 867.187 557.759C864.36 557.759 862.066 560.052 862.066 562.88C862.066 565.707 864.36 568.001 867.187 568.001C870.014 568.001 872.308 565.707 872.308 562.88Z" fill="#1E2025"/>
<path d="M891.529 562.88C891.529 560.052 889.235 557.759 886.408 557.759C883.581 557.759 881.287 560.052 881.287 562.88C881.287 565.707 883.581 568.001 886.408 568.001C889.235 568.001 891.529 565.707 891.529 562.88Z" fill="#1E2025"/>
<path d="M910.744 562.88C910.744 560.052 908.45 557.759 905.623 557.759C902.795 557.759 900.501 560.052 900.501 562.88C900.501 565.707 902.795 568.001 905.623 568.001C908.45 568.001 910.744 565.707 910.744 562.88Z" fill="#1E2025"/>
<path d="M929.971 562.88C929.971 560.052 927.677 557.759 924.849 557.759C922.022 557.759 919.728 560.052 919.728 562.88C919.728 565.707 922.022 568.001 924.849 568.001C927.677 568.001 929.971 565.707 929.971 562.88Z" fill="#1E2025"/>
<path d="M949.186 562.88C949.186 560.052 946.892 557.759 944.064 557.759C941.237 557.759 938.943 560.052 938.943 562.88C938.943 565.707 941.237 568.001 944.064 568.001C946.892 568.001 949.186 565.707 949.186 562.88Z" fill="#1E2025"/>
<path d="M968.412 562.88C968.412 560.052 966.118 557.759 963.291 557.759C960.464 557.759 958.17 560.052 958.17 562.88C958.17 565.707 960.464 568.001 963.291 568.001C966.118 568.001 968.412 565.707 968.412 562.88Z" fill="#1E2025"/>
<path d="M987.627 562.88C987.627 560.052 985.333 557.759 982.506 557.759C979.679 557.759 977.385 560.052 977.385 562.88C977.385 565.707 979.679 568.001 982.506 568.001C985.333 568.001 987.627 565.707 987.627 562.88Z" fill="#1E2025"/>
<path d="M1006.85 562.88C1006.85 560.052 1004.56 557.759 1001.73 557.759C998.905 557.759 996.611 560.052 996.611 562.88C996.611 565.707 998.905 568.001 1001.73 568.001C1004.56 568.001 1006.85 565.707 1006.85 562.88Z" fill="#1E2025"/>
<path d="M1026.07 562.88C1026.07 560.052 1023.77 557.759 1020.95 557.759C1018.12 557.759 1015.83 560.052 1015.83 562.88C1015.83 565.707 1018.12 568.001 1020.95 568.001C1023.77 568.001 1026.07 565.707 1026.07 562.88Z" fill="#1E2025"/>
<path d="M526.34 543.653C526.34 540.826 524.046 538.532 521.219 538.532C518.392 538.532 516.098 540.826 516.098 543.653C516.098 546.481 518.392 548.774 521.219 548.774C524.046 548.774 526.34 546.481 526.34 543.653Z" fill="#1E2025"/>
<path d="M545.567 543.653C545.567 540.826 543.273 538.532 540.446 538.532C537.618 538.532 535.325 540.826 535.325 543.653C535.325 546.481 537.618 548.774 540.446 548.774C543.273 548.774 545.567 546.481 545.567 543.653Z" fill="#1E2025"/>
<path d="M584.003 543.653C584.003 540.826 581.709 538.532 578.881 538.532C576.054 538.532 573.76 540.826 573.76 543.653C573.76 546.481 576.054 548.774 578.881 548.774C581.709 548.774 584.003 546.481 584.003 543.653Z" fill="#1E2025"/>
<path d="M603.218 543.653C603.218 540.826 600.924 538.532 598.097 538.532C595.269 538.532 592.975 540.826 592.975 543.653C592.975 546.481 595.269 548.774 598.097 548.774C600.924 548.774 603.218 546.481 603.218 543.653Z" fill="#1E2025"/>
<path d="M622.444 543.653C622.444 540.826 620.15 538.532 617.323 538.532C614.496 538.532 612.202 540.826 612.202 543.653C612.202 546.481 614.496 548.774 617.323 548.774C620.15 548.774 622.444 546.481 622.444 543.653Z" fill="#32353D"/>
<path d="M641.659 543.653C641.659 540.826 639.365 538.532 636.538 538.532C633.711 538.532 631.417 540.826 631.417 543.653C631.417 546.481 633.711 548.774 636.538 548.774C639.365 548.774 641.659 546.481 641.659 543.653Z" fill="#32353D"/>
<path d="M660.886 543.653C660.886 540.826 658.592 538.532 655.764 538.532C652.937 538.532 650.643 540.826 650.643 543.653C650.643 546.481 652.937 548.774 655.764 548.774C658.592 548.774 660.886 546.481 660.886 543.653Z" fill="#32353D"/>
<path d="M680.101 543.653C680.101 540.826 677.807 538.532 674.98 538.532C672.152 538.532 669.858 540.826 669.858 543.653C669.858 546.481 672.152 548.774 674.98 548.774C677.807 548.774 680.101 546.481 680.101 543.653Z" fill="#32353D"/>
<path d="M699.327 543.653C699.327 540.826 697.033 538.532 694.206 538.532C691.379 538.532 689.085 540.826 689.085 543.653C689.085 546.481 691.379 548.774 694.206 548.774C697.033 548.774 699.327 546.481 699.327 543.653Z" fill="#32353D"/>
<path d="M718.542 543.653C718.542 540.826 716.248 538.532 713.421 538.532C710.594 538.532 708.3 540.826 708.3 543.653C708.3 546.481 710.594 548.774 713.421 548.774C716.248 548.774 718.542 546.481 718.542 543.653Z" fill="#1E2025"/>
<path d="M737.769 543.653C737.769 540.826 735.475 538.532 732.648 538.532C729.82 538.532 727.526 540.826 727.526 543.653C727.526 546.481 729.82 548.774 732.648 548.774C735.475 548.774 737.769 546.481 737.769 543.653Z" fill="#1E2025"/>
<path d="M756.984 543.653C756.984 540.826 754.69 538.532 751.862 538.532C749.035 538.532 746.741 540.826 746.741 543.653C746.741 546.481 749.035 548.774 751.862 548.774C754.69 548.774 756.984 546.481 756.984 543.653Z" fill="#1E2025"/>
<path d="M776.21 543.653C776.21 540.826 773.916 538.532 771.089 538.532C768.262 538.532 765.968 540.826 765.968 543.653C765.968 546.481 768.262 548.774 771.089 548.774C773.916 548.774 776.21 546.481 776.21 543.653Z" fill="#1E2025"/>
<path d="M795.425 543.653C795.425 540.826 793.131 538.532 790.304 538.532C787.477 538.532 785.183 540.826 785.183 543.653C785.183 546.481 787.477 548.774 790.304 548.774C793.131 548.774 795.425 546.481 795.425 543.653Z" fill="#1E2025"/>
<path d="M814.652 543.653C814.652 540.826 812.358 538.532 809.531 538.532C806.703 538.532 804.409 540.826 804.409 543.653C804.409 546.481 806.703 548.774 809.531 548.774C812.358 548.774 814.652 546.481 814.652 543.653Z" fill="#1E2025"/>
<path d="M833.867 543.653C833.867 540.826 831.573 538.532 828.746 538.532C825.918 538.532 823.624 540.826 823.624 543.653C823.624 546.481 825.918 548.774 828.746 548.774C831.573 548.774 833.867 546.481 833.867 543.653Z" fill="#1E2025"/>
<path d="M853.093 543.653C853.093 540.826 850.799 538.532 847.972 538.532C845.145 538.532 842.851 540.826 842.851 543.653C842.851 546.481 845.145 548.774 847.972 548.774C850.799 548.774 853.093 546.481 853.093 543.653Z" fill="#1E2025"/>
<path d="M872.308 543.653C872.308 540.826 870.014 538.532 867.187 538.532C864.36 538.532 862.066 540.826 862.066 543.653C862.066 546.481 864.36 548.774 867.187 548.774C870.014 548.774 872.308 546.481 872.308 543.653Z" fill="#1E2025"/>
<path d="M891.529 543.653C891.529 540.826 889.235 538.532 886.408 538.532C883.581 538.532 881.287 540.826 881.287 543.653C881.287 546.481 883.581 548.774 886.408 548.774C889.235 548.774 891.529 546.481 891.529 543.653Z" fill="#1E2025"/>
<path d="M910.744 543.653C910.744 540.826 908.45 538.532 905.623 538.532C902.795 538.532 900.501 540.826 900.501 543.653C900.501 546.481 902.795 548.774 905.623 548.774C908.45 548.774 910.744 546.481 910.744 543.653Z" fill="#1E2025"/>
<path d="M949.186 543.653C949.186 540.826 946.892 538.532 944.064 538.532C941.237 538.532 938.943 540.826 938.943 543.653C938.943 546.481 941.237 548.774 944.064 548.774C946.892 548.774 949.186 546.481 949.186 543.653Z" fill="#1E2025"/>
<path d="M968.412 543.653C968.412 540.826 966.118 538.532 963.291 538.532C960.464 538.532 958.17 540.826 958.17 543.653C958.17 546.481 960.464 548.774 963.291 548.774C966.118 548.774 968.412 546.481 968.412 543.653Z" fill="#1E2025"/>
<path d="M987.627 543.653C987.627 540.826 985.333 538.532 982.506 538.532C979.679 538.532 977.385 540.826 977.385 543.653C977.385 546.481 979.679 548.774 982.506 548.774C985.333 548.774 987.627 546.481 987.627 543.653Z" fill="#1E2025"/>
<path d="M1006.85 543.653C1006.85 540.826 1004.56 538.532 1001.73 538.532C998.905 538.532 996.611 540.826 996.611 543.653C996.611 546.481 998.905 548.774 1001.73 548.774C1004.56 548.774 1006.85 546.481 1006.85 543.653Z" fill="#1E2025"/>
<path d="M1026.07 543.653C1026.07 540.826 1023.77 538.532 1020.95 538.532C1018.12 538.532 1015.83 540.826 1015.83 543.653C1015.83 546.481 1018.12 548.774 1020.95 548.774C1023.77 548.774 1026.07 546.481 1026.07 543.653Z" fill="#1E2025"/>
<path d="M430.242 524.438C430.242 521.611 427.948 519.317 425.121 519.317C422.294 519.317 420 521.611 420 524.438C420 527.266 422.294 529.559 425.121 529.559C427.948 529.559 430.242 527.266 430.242 524.438Z" fill="#1E2025"/>
<path d="M507.125 524.438C507.125 521.611 504.832 519.317 502.004 519.317C499.177 519.317 496.883 521.611 496.883 524.438C496.883 527.266 499.177 529.559 502.004 529.559C504.832 529.559 507.125 527.266 507.125 524.438Z" fill="#1E2025"/>
<path d="M526.34 524.438C526.34 521.611 524.046 519.317 521.219 519.317C518.392 519.317 516.098 521.611 516.098 524.438C516.098 527.266 518.392 529.559 521.219 529.559C524.046 529.559 526.34 527.266 526.34 524.438Z" fill="#1E2025"/>
<path d="M545.567 524.438C545.567 521.611 543.273 519.317 540.446 519.317C537.618 519.317 535.325 521.611 535.325 524.438C535.325 527.266 537.618 529.559 540.446 529.559C543.273 529.559 545.567 527.266 545.567 524.438Z" fill="#1E2025"/>
<path d="M564.782 524.438C564.782 521.611 562.488 519.317 559.661 519.317C556.833 519.317 554.54 521.611 554.54 524.438C554.54 527.266 556.833 529.559 559.661 529.559C562.488 529.559 564.782 527.266 564.782 524.438Z" fill="#1E2025"/>
<path d="M584.003 524.438C584.003 521.611 581.709 519.317 578.881 519.317C576.054 519.317 573.76 521.611 573.76 524.438C573.76 527.266 576.054 529.559 578.881 529.559C581.709 529.559 584.003 527.266 584.003 524.438Z" fill="#1E2025"/>
<path d="M603.218 524.438C603.218 521.611 600.924 519.317 598.097 519.317C595.269 519.317 592.975 521.611 592.975 524.438C592.975 527.266 595.269 529.559 598.097 529.559C600.924 529.559 603.218 527.266 603.218 524.438Z" fill="#1E2025"/>
<path d="M680.101 524.438C680.101 521.611 677.807 519.317 674.98 519.317C672.152 519.317 669.858 521.611 669.858 524.438C669.858 527.266 672.152 529.559 674.98 529.559C677.807 529.559 680.101 527.266 680.101 524.438Z" fill="#32353D"/>
<path d="M699.327 524.438C699.327 521.611 697.033 519.317 694.206 519.317C691.379 519.317 689.085 521.611 689.085 524.438C689.085 527.266 691.379 529.559 694.206 529.559C697.033 529.559 699.327 527.266 699.327 524.438Z" fill="#32353D"/>
<path d="M718.542 524.438C718.542 521.611 716.248 519.317 713.421 519.317C710.594 519.317 708.3 521.611 708.3 524.438C708.3 527.266 710.594 529.559 713.421 529.559C716.248 529.559 718.542 527.266 718.542 524.438Z" fill="#32353D"/>
<path d="M737.769 524.438C737.769 521.611 735.475 519.317 732.648 519.317C729.82 519.317 727.526 521.611 727.526 524.438C727.526 527.266 729.82 529.559 732.648 529.559C735.475 529.559 737.769 527.266 737.769 524.438Z" fill="#1E2025"/>
<path d="M756.984 524.438C756.984 521.611 754.69 519.317 751.862 519.317C749.035 519.317 746.741 521.611 746.741 524.438C746.741 527.266 749.035 529.559 751.862 529.559C754.69 529.559 756.984 527.266 756.984 524.438Z" fill="#1E2025"/>
<path d="M776.21 524.438C776.21 521.611 773.916 519.317 771.089 519.317C768.262 519.317 765.968 521.611 765.968 524.438C765.968 527.266 768.262 529.559 771.089 529.559C773.916 529.559 776.21 527.266 776.21 524.438Z" fill="#1E2025"/>
<path d="M795.425 524.438C795.425 521.611 793.131 519.317 790.304 519.317C787.477 519.317 785.183 521.611 785.183 524.438C785.183 527.266 787.477 529.559 790.304 529.559C793.131 529.559 795.425 527.266 795.425 524.438Z" fill="#1E2025"/>
<path d="M814.652 524.438C814.652 521.611 812.358 519.317 809.531 519.317C806.703 519.317 804.409 521.611 804.409 524.438C804.409 527.266 806.703 529.559 809.531 529.559C812.358 529.559 814.652 527.266 814.652 524.438Z" fill="#1E2025"/>
<path d="M833.867 524.438C833.867 521.611 831.573 519.317 828.746 519.317C825.918 519.317 823.624 521.611 823.624 524.438C823.624 527.266 825.918 529.559 828.746 529.559C831.573 529.559 833.867 527.266 833.867 524.438Z" fill="#1E2025"/>
<path d="M853.093 524.438C853.093 521.611 850.799 519.317 847.972 519.317C845.145 519.317 842.851 521.611 842.851 524.438C842.851 527.266 845.145 529.559 847.972 529.559C850.799 529.559 853.093 527.266 853.093 524.438Z" fill="#1E2025"/>
<path d="M872.308 524.438C872.308 521.611 870.014 519.317 867.187 519.317C864.36 519.317 862.066 521.611 862.066 524.438C862.066 527.266 864.36 529.559 867.187 529.559C870.014 529.559 872.308 527.266 872.308 524.438Z" fill="#1E2025"/>
<path d="M891.529 524.438C891.529 521.611 889.235 519.317 886.408 519.317C883.581 519.317 881.287 521.611 881.287 524.438C881.287 527.266 883.581 529.559 886.408 529.559C889.235 529.559 891.529 527.266 891.529 524.438Z" fill="#1E2025"/>
<path d="M910.744 524.438C910.744 521.611 908.45 519.317 905.623 519.317C902.795 519.317 900.501 521.611 900.501 524.438C900.501 527.266 902.795 529.56 905.623 529.56C908.45 529.56 910.744 527.266 910.744 524.438Z" fill="#1E2025"/>
<path d="M929.971 524.438C929.971 521.611 927.677 519.317 924.849 519.317C922.022 519.317 919.728 521.611 919.728 524.438C919.728 527.266 922.022 529.559 924.849 529.559C927.677 529.559 929.971 527.266 929.971 524.438Z" fill="#1E2025"/>
<path d="M949.186 524.438C949.186 521.611 946.892 519.317 944.064 519.317C941.237 519.317 938.943 521.611 938.943 524.438C938.943 527.266 941.237 529.559 944.064 529.559C946.892 529.559 949.186 527.266 949.186 524.438Z" fill="#1E2025"/>
<path d="M968.412 524.438C968.412 521.611 966.118 519.317 963.291 519.317C960.464 519.317 958.17 521.611 958.17 524.438C958.17 527.266 960.464 529.559 963.291 529.559C966.118 529.559 968.412 527.266 968.412 524.438Z" fill="#1E2025"/>
<path d="M987.627 524.438C987.627 521.611 985.333 519.317 982.506 519.317C979.679 519.317 977.385 521.611 977.385 524.438C977.385 527.266 979.679 529.559 982.506 529.559C985.333 529.559 987.627 527.266 987.627 524.438Z" fill="#1E2025"/>
<path d="M1006.85 524.438C1006.85 521.611 1004.56 519.317 1001.73 519.317C998.905 519.317 996.611 521.611 996.611 524.438C996.611 527.266 998.905 529.559 1001.73 529.559C1004.56 529.559 1006.85 527.266 1006.85 524.438Z" fill="#1E2025"/>
<path d="M1026.07 524.438C1026.07 521.611 1023.77 519.317 1020.95 519.317C1018.12 519.317 1015.83 521.611 1015.83 524.438C1015.83 527.266 1018.12 529.559 1020.95 529.559C1023.77 529.559 1026.07 527.266 1026.07 524.438Z" fill="#1E2025"/>
<path d="M545.567 505.212C545.567 502.384 543.273 500.09 540.446 500.09C537.618 500.09 535.325 502.384 535.325 505.212C535.325 508.039 537.618 510.333 540.446 510.333C543.273 510.333 545.567 508.039 545.567 505.212Z" fill="#1E2025"/>
<path d="M680.101 505.212C680.101 502.384 677.807 500.09 674.98 500.09C672.152 500.09 669.858 502.384 669.858 505.212C669.858 508.039 672.152 510.333 674.98 510.333C677.807 510.333 680.101 508.039 680.101 505.212Z" fill="#32353D"/>
<path d="M699.316 505.212C699.316 502.383 697.023 500.09 694.195 500.09C691.366 500.09 689.073 502.383 689.073 505.212C689.073 508.04 691.366 510.333 694.195 510.333C697.023 510.333 699.316 508.04 699.316 505.212Z" fill="#32353D"/>
<path d="M718.542 505.212C718.542 502.384 716.248 500.09 713.421 500.09C710.594 500.09 708.3 502.384 708.3 505.212C708.3 508.039 710.594 510.333 713.421 510.333C716.248 510.333 718.542 508.039 718.542 505.212Z" fill="#32353D"/>
<path d="M737.769 505.212C737.769 502.384 735.475 500.09 732.648 500.09C729.82 500.09 727.526 502.384 727.526 505.212C727.526 508.039 729.82 510.333 732.648 510.333C735.475 510.333 737.769 508.039 737.769 505.212Z" fill="#1E2025"/>
<path d="M756.984 505.212C756.984 502.384 754.69 500.09 751.862 500.09C749.035 500.09 746.741 502.384 746.741 505.212C746.741 508.039 749.035 510.333 751.862 510.333C754.69 510.333 756.984 508.039 756.984 505.212Z" fill="#1E2025"/>
<path d="M776.21 505.212C776.21 502.384 773.916 500.09 771.089 500.09C768.262 500.09 765.968 502.384 765.968 505.212C765.968 508.039 768.262 510.333 771.089 510.333C773.916 510.333 776.21 508.039 776.21 505.212Z" fill="#1E2025"/>
<path d="M795.425 505.212C795.425 502.384 793.131 500.09 790.304 500.09C787.477 500.09 785.183 502.384 785.183 505.212C785.183 508.039 787.477 510.333 790.304 510.333C793.131 510.333 795.425 508.039 795.425 505.212Z" fill="#1E2025"/>
<path d="M814.652 505.212C814.652 502.384 812.358 500.09 809.531 500.09C806.703 500.09 804.409 502.384 804.409 505.212C804.409 508.039 806.703 510.333 809.531 510.333C812.358 510.333 814.652 508.039 814.652 505.212Z" fill="#1E2025"/>
<path d="M833.867 505.212C833.867 502.384 831.573 500.09 828.746 500.09C825.918 500.09 823.624 502.384 823.624 505.212C823.624 508.039 825.918 510.333 828.746 510.333C831.573 510.333 833.867 508.039 833.867 505.212Z" fill="#1E2025"/>
<path d="M853.082 505.212C853.082 502.383 850.789 500.09 847.961 500.09C845.132 500.09 842.839 502.383 842.839 505.212C842.839 508.04 845.132 510.333 847.961 510.333C850.789 510.333 853.082 508.04 853.082 505.212Z" fill="#1E2025"/>
<path d="M872.308 505.212C872.308 502.384 870.014 500.09 867.187 500.09C864.36 500.09 862.066 502.384 862.066 505.212C862.066 508.039 864.36 510.333 867.187 510.333C870.014 510.333 872.308 508.039 872.308 505.212Z" fill="#1E2025"/>
<path d="M891.529 505.212C891.529 502.384 889.235 500.09 886.408 500.09C883.581 500.09 881.287 502.384 881.287 505.212C881.287 508.039 883.581 510.333 886.408 510.333C889.235 510.333 891.529 508.039 891.529 505.212Z" fill="#1E2025"/>
<path d="M910.744 505.212C910.744 502.383 908.451 500.091 905.623 500.091C902.794 500.091 900.501 502.383 900.501 505.212C900.501 508.04 902.794 510.333 905.623 510.333C908.451 510.333 910.744 508.04 910.744 505.212Z" fill="#1E2025"/>
<path d="M929.971 505.212C929.971 502.384 927.677 500.09 924.849 500.09C922.022 500.09 919.728 502.384 919.728 505.212C919.728 508.039 922.022 510.333 924.849 510.333C927.677 510.333 929.971 508.039 929.971 505.212Z" fill="#1E2025"/>
<path d="M949.186 505.212C949.186 502.384 946.892 500.09 944.064 500.09C941.237 500.09 938.943 502.384 938.943 505.212C938.943 508.039 941.237 510.333 944.064 510.333C946.892 510.333 949.186 508.039 949.186 505.212Z" fill="#1E2025"/>
<path d="M968.401 505.212C968.401 502.383 966.108 500.09 963.279 500.09C960.451 500.09 958.158 502.383 958.158 505.212C958.158 508.04 960.451 510.333 963.279 510.333C966.108 510.333 968.401 508.04 968.401 505.212Z" fill="#1E2025"/>
<path d="M987.627 505.212C987.627 502.384 985.333 500.09 982.506 500.09C979.679 500.09 977.385 502.384 977.385 505.212C977.385 508.039 979.679 510.333 982.506 510.333C985.333 510.333 987.627 508.039 987.627 505.212Z" fill="#1E2025"/>
<path d="M1006.85 505.212C1006.85 502.384 1004.56 500.09 1001.73 500.09C998.905 500.09 996.611 502.384 996.611 505.212C996.611 508.039 998.905 510.333 1001.73 510.333C1004.56 510.333 1006.85 508.039 1006.85 505.212Z" fill="#1E2025"/>
<path d="M1026.07 505.212C1026.07 502.384 1023.77 500.09 1020.95 500.09C1018.12 500.09 1015.83 502.384 1015.83 505.212C1015.83 508.039 1018.12 510.333 1020.95 510.333C1023.77 510.333 1026.07 508.039 1026.07 505.212Z" fill="#1E2025"/>
<path d="M507.125 485.997C507.125 483.169 504.832 480.875 502.004 480.875C499.177 480.875 496.883 483.169 496.883 485.997C496.883 488.824 499.177 491.118 502.004 491.118C504.832 491.118 507.125 488.824 507.125 485.997Z" fill="#1E2025"/>
<path d="M526.34 485.997C526.34 483.169 524.046 480.875 521.219 480.875C518.392 480.875 516.098 483.169 516.098 485.997C516.098 488.824 518.392 491.118 521.219 491.118C524.046 491.118 526.34 488.824 526.34 485.997Z" fill="#1E2025"/>
<path d="M564.782 485.997C564.782 483.169 562.488 480.875 559.661 480.875C556.833 480.875 554.54 483.169 554.54 485.997C554.54 488.824 556.833 491.118 559.661 491.118C562.488 491.118 564.782 488.824 564.782 485.997Z" fill="#1E2025"/>
<path d="M603.218 485.997C603.218 483.169 600.924 480.875 598.097 480.875C595.269 480.875 592.975 483.169 592.975 485.997C592.975 488.824 595.269 491.118 598.097 491.118C600.924 491.118 603.218 488.824 603.218 485.997Z" fill="#1E2025"/>
<path d="M680.101 485.997C680.101 483.169 677.807 480.875 674.98 480.875C672.152 480.875 669.858 483.169 669.858 485.997C669.858 488.824 672.152 491.118 674.98 491.118C677.807 491.118 680.101 488.824 680.101 485.997Z" fill="#32353D"/>
<path d="M699.327 485.997C699.327 483.169 697.033 480.875 694.206 480.875C691.379 480.875 689.085 483.169 689.085 485.997C689.085 488.824 691.379 491.118 694.206 491.118C697.033 491.118 699.327 488.824 699.327 485.997Z" fill="#32353D"/>
<path d="M718.542 485.997C718.542 483.169 716.248 480.875 713.421 480.875C710.594 480.875 708.3 483.169 708.3 485.997C708.3 488.824 710.594 491.118 713.421 491.118C716.248 491.118 718.542 488.824 718.542 485.997Z" fill="#32353D"/>
<path d="M737.769 485.997C737.769 483.169 735.475 480.875 732.648 480.875C729.82 480.875 727.526 483.169 727.526 485.997C727.526 488.824 729.82 491.118 732.648 491.118C735.475 491.118 737.769 488.824 737.769 485.997Z" fill="#1E2025"/>
<path d="M756.984 485.997C756.984 483.169 754.69 480.875 751.862 480.875C749.035 480.875 746.741 483.169 746.741 485.997C746.741 488.824 749.035 491.118 751.862 491.118C754.69 491.118 756.984 488.824 756.984 485.997Z" fill="#1E2025"/>
<path d="M776.21 485.997C776.21 483.169 773.916 480.875 771.089 480.875C768.262 480.875 765.968 483.169 765.968 485.997C765.968 488.824 768.262 491.118 771.089 491.118C773.916 491.118 776.21 488.824 776.21 485.997Z" fill="#1E2025"/>
<path d="M795.425 485.997C795.425 483.169 793.131 480.875 790.304 480.875C787.477 480.875 785.183 483.169 785.183 485.997C785.183 488.824 787.477 491.118 790.304 491.118C793.131 491.118 795.425 488.824 795.425 485.997Z" fill="#1E2025"/>
<path d="M814.652 485.997C814.652 483.169 812.358 480.875 809.531 480.875C806.703 480.875 804.409 483.169 804.409 485.997C804.409 488.824 806.703 491.118 809.531 491.118C812.358 491.118 814.652 488.824 814.652 485.997Z" fill="#1E2025"/>
<path d="M833.867 485.997C833.867 483.169 831.573 480.875 828.746 480.875C825.918 480.875 823.624 483.169 823.624 485.997C823.624 488.824 825.918 491.118 828.746 491.118C831.573 491.118 833.867 488.824 833.867 485.997Z" fill="#1E2025"/>
<path d="M853.093 485.997C853.093 483.169 850.799 480.875 847.972 480.875C845.145 480.875 842.851 483.169 842.851 485.997C842.851 488.824 845.145 491.118 847.972 491.118C850.799 491.118 853.093 488.824 853.093 485.997Z" fill="#1E2025"/>
<path d="M872.308 485.997C872.308 483.169 870.014 480.875 867.187 480.875C864.36 480.875 862.066 483.169 862.066 485.997C862.066 488.824 864.36 491.118 867.187 491.118C870.014 491.118 872.308 488.824 872.308 485.997Z" fill="#1E2025"/>
<path d="M891.529 485.997C891.529 483.169 889.235 480.875 886.408 480.875C883.581 480.875 881.287 483.169 881.287 485.997C881.287 488.824 883.581 491.118 886.408 491.118C889.235 491.118 891.529 488.824 891.529 485.997Z" fill="#1E2025"/>
<path d="M910.744 485.997C910.744 483.17 908.45 480.876 905.623 480.876C902.795 480.876 900.501 483.17 900.501 485.997C900.501 488.824 902.795 491.118 905.623 491.118C908.45 491.118 910.744 488.824 910.744 485.997Z" fill="#1E2025"/>
<path d="M929.971 485.997C929.971 483.169 927.677 480.875 924.849 480.875C922.022 480.875 919.728 483.169 919.728 485.997C919.728 488.824 922.022 491.118 924.849 491.118C927.677 491.118 929.971 488.824 929.971 485.997Z" fill="#1E2025"/>
<path d="M949.186 485.997C949.186 483.169 946.892 480.875 944.064 480.875C941.237 480.875 938.943 483.169 938.943 485.997C938.943 488.824 941.237 491.118 944.064 491.118C946.892 491.118 949.186 488.824 949.186 485.997Z" fill="#1E2025"/>
<path d="M968.412 485.997C968.412 483.169 966.118 480.875 963.291 480.875C960.464 480.875 958.17 483.169 958.17 485.997C958.17 488.824 960.464 491.118 963.291 491.118C966.118 491.118 968.412 488.824 968.412 485.997Z" fill="#1E2025"/>
<path d="M987.627 485.997C987.627 483.169 985.333 480.875 982.506 480.875C979.679 480.875 977.385 483.169 977.385 485.997C977.385 488.824 979.679 491.118 982.506 491.118C985.333 491.118 987.627 488.824 987.627 485.997Z" fill="#1E2025"/>
<path d="M1006.85 485.997C1006.85 483.169 1004.56 480.875 1001.73 480.875C998.905 480.875 996.611 483.169 996.611 485.997C996.611 488.824 998.905 491.118 1001.73 491.118C1004.56 491.118 1006.85 488.824 1006.85 485.997Z" fill="#1E2025"/>
<path d="M1026.07 485.997C1026.07 483.169 1023.77 480.875 1020.95 480.875C1018.12 480.875 1015.83 483.169 1015.83 485.997C1015.83 488.824 1018.12 491.118 1020.95 491.118C1023.77 491.118 1026.07 488.824 1026.07 485.997Z" fill="#1E2025"/>
<path d="M680.101 466.77C680.101 463.943 677.807 461.649 674.98 461.649C672.152 461.649 669.858 463.943 669.858 466.77C669.858 469.597 672.152 471.891 674.98 471.891C677.807 471.891 680.101 469.597 680.101 466.77Z" fill="#32353D"/>
<path d="M699.327 466.77C699.327 463.943 697.033 461.649 694.206 461.649C691.379 461.649 689.085 463.943 689.085 466.77C689.085 469.597 691.379 471.891 694.206 471.891C697.033 471.891 699.327 469.597 699.327 466.77Z" fill="#32353D"/>
<path d="M718.542 466.77C718.542 463.943 716.248 461.649 713.421 461.649C710.594 461.649 708.3 463.943 708.3 466.77C708.3 469.597 710.594 471.891 713.421 471.891C716.248 471.891 718.542 469.597 718.542 466.77Z" fill="#32353D"/>
<path d="M737.769 466.77C737.769 463.943 735.475 461.649 732.648 461.649C729.82 461.649 727.526 463.943 727.526 466.77C727.526 469.597 729.82 471.891 732.648 471.891C735.475 471.891 737.769 469.597 737.769 466.77Z" fill="#1E2025"/>
<path d="M756.984 466.77C756.984 463.943 754.69 461.649 751.862 461.649C749.035 461.649 746.741 463.943 746.741 466.77C746.741 469.597 749.035 471.891 751.862 471.891C754.69 471.891 756.984 469.597 756.984 466.77Z" fill="#1E2025"/>
<path d="M776.21 466.77C776.21 463.943 773.916 461.649 771.089 461.649C768.262 461.649 765.968 463.943 765.968 466.77C765.968 469.597 768.262 471.891 771.089 471.891C773.916 471.891 776.21 469.597 776.21 466.77Z" fill="#1E2025"/>
<path d="M795.425 466.77C795.425 463.943 793.131 461.649 790.304 461.649C787.477 461.649 785.183 463.943 785.183 466.77C785.183 469.597 787.477 471.891 790.304 471.891C793.131 471.891 795.425 469.597 795.425 466.77Z" fill="#1E2025"/>
<path d="M814.652 466.77C814.652 463.943 812.358 461.649 809.531 461.649C806.703 461.649 804.409 463.943 804.409 466.77C804.409 469.597 806.703 471.891 809.531 471.891C812.358 471.891 814.652 469.597 814.652 466.77Z" fill="#1E2025"/>
<path d="M833.867 466.77C833.867 463.943 831.573 461.649 828.746 461.649C825.918 461.649 823.624 463.943 823.624 466.77C823.624 469.597 825.918 471.891 828.746 471.891C831.573 471.891 833.867 469.597 833.867 466.77Z" fill="#1E2025"/>
<path d="M853.093 466.77C853.093 463.943 850.799 461.649 847.972 461.649C845.145 461.649 842.851 463.943 842.851 466.77C842.851 469.597 845.145 471.891 847.972 471.891C850.799 471.891 853.093 469.597 853.093 466.77Z" fill="#1E2025"/>
<path d="M891.529 466.77C891.529 463.943 889.235 461.649 886.408 461.649C883.581 461.649 881.287 463.943 881.287 466.77C881.287 469.597 883.581 471.891 886.408 471.891C889.235 471.891 891.529 469.597 891.529 466.77Z" fill="#1E2025"/>
<path d="M910.744 466.77C910.744 463.943 908.45 461.649 905.623 461.649C902.795 461.649 900.501 463.943 900.501 466.77C900.501 469.598 902.795 471.892 905.623 471.892C908.45 471.892 910.744 469.598 910.744 466.77Z" fill="#1E2025"/>
<path d="M929.971 466.77C929.971 463.943 927.677 461.649 924.849 461.649C922.022 461.649 919.728 463.943 919.728 466.77C919.728 469.597 922.022 471.891 924.849 471.891C927.677 471.891 929.971 469.597 929.971 466.77Z" fill="#1E2025"/>
<path d="M949.186 466.77C949.186 463.943 946.892 461.649 944.064 461.649C941.237 461.649 938.943 463.943 938.943 466.77C938.943 469.597 941.237 471.891 944.064 471.891C946.892 471.891 949.186 469.597 949.186 466.77Z" fill="#1E2025"/>
<path d="M968.412 466.77C968.412 463.943 966.118 461.649 963.291 461.649C960.464 461.649 958.17 463.943 958.17 466.77C958.17 469.597 960.464 471.891 963.291 471.891C966.118 471.891 968.412 469.597 968.412 466.77Z" fill="#1E2025"/>
<path d="M987.627 466.77C987.627 463.943 985.333 461.649 982.506 461.649C979.679 461.649 977.385 463.943 977.385 466.77C977.385 469.597 979.679 471.891 982.506 471.891C985.333 471.891 987.627 469.597 987.627 466.77Z" fill="#1E2025"/>
<path d="M1006.85 466.77C1006.85 463.943 1004.56 461.649 1001.73 461.649C998.905 461.649 996.611 463.943 996.611 466.77C996.611 469.597 998.905 471.891 1001.73 471.891C1004.56 471.891 1006.85 469.597 1006.85 466.77Z" fill="#1E2025"/>
<path d="M1026.07 466.77C1026.07 463.943 1023.77 461.649 1020.95 461.649C1018.12 461.649 1015.83 463.943 1015.83 466.77C1015.83 469.597 1018.12 471.891 1020.95 471.891C1023.77 471.891 1026.07 469.597 1026.07 466.77Z" fill="#1E2025"/>
<path d="M526.34 447.556C526.34 444.728 524.047 442.434 521.219 442.434C518.392 442.434 516.098 444.728 516.098 447.556C516.098 450.383 518.392 452.677 521.219 452.677C524.047 452.677 526.34 450.383 526.34 447.556Z" fill="#1E2025"/>
<path d="M583.997 447.556C583.997 444.727 581.704 442.434 578.876 442.434C576.047 442.434 573.754 444.727 573.754 447.556C573.754 450.384 576.047 452.677 578.876 452.677C581.704 452.677 583.997 450.384 583.997 447.556Z" fill="#1E2025"/>
<path d="M699.316 447.556C699.316 444.727 697.023 442.434 694.194 442.434C691.366 442.434 689.073 444.727 689.073 447.556C689.073 450.384 691.366 452.677 694.194 452.677C697.023 452.677 699.316 450.384 699.316 447.556Z" fill="#32353D"/>
<path d="M718.542 447.556C718.542 444.728 716.248 442.434 713.421 442.434C710.594 442.434 708.3 444.728 708.3 447.556C708.3 450.383 710.594 452.677 713.421 452.677C716.248 452.677 718.542 450.383 718.542 447.556Z" fill="#32353D"/>
<path d="M737.769 447.556C737.769 444.728 735.475 442.434 732.648 442.434C729.82 442.434 727.526 444.728 727.526 447.556C727.526 450.383 729.82 452.677 732.648 452.677C735.475 452.677 737.769 450.383 737.769 447.556Z" fill="#1E2025"/>
<path d="M756.984 447.556C756.984 444.728 754.69 442.434 751.862 442.434C749.035 442.434 746.741 444.728 746.741 447.556C746.741 450.383 749.035 452.677 751.862 452.677C754.69 452.677 756.984 450.383 756.984 447.556Z" fill="#1E2025"/>
<path d="M776.21 447.556C776.21 444.728 773.916 442.434 771.089 442.434C768.262 442.434 765.968 444.728 765.968 447.556C765.968 450.383 768.262 452.677 771.089 452.677C773.916 452.677 776.21 450.383 776.21 447.556Z" fill="#1E2025"/>
<path d="M795.425 447.556C795.425 444.728 793.132 442.434 790.304 442.434C787.477 442.434 785.183 444.728 785.183 447.556C785.183 450.383 787.477 452.677 790.304 452.677C793.132 452.677 795.425 450.383 795.425 447.556Z" fill="#1E2025"/>
<path d="M814.652 447.556C814.652 444.728 812.358 442.434 809.531 442.434C806.704 442.434 804.41 444.728 804.41 447.556C804.41 450.383 806.704 452.677 809.531 452.677C812.358 452.677 814.652 450.383 814.652 447.556Z" fill="#1E2025"/>
<path d="M833.867 447.556C833.867 444.728 831.573 442.434 828.746 442.434C825.918 442.434 823.625 444.728 823.625 447.556C823.625 450.383 825.918 452.677 828.746 452.677C831.573 452.677 833.867 450.383 833.867 447.556Z" fill="#1E2025"/>
<path d="M853.082 447.556C853.082 444.727 850.789 442.434 847.961 442.434C845.132 442.434 842.839 444.727 842.839 447.556C842.839 450.384 845.132 452.677 847.961 452.677C850.789 452.677 853.082 450.384 853.082 447.556Z" fill="#1E2025"/>
<path d="M872.308 447.556C872.308 444.728 870.014 442.434 867.187 442.434C864.36 442.434 862.066 444.728 862.066 447.556C862.066 450.383 864.36 452.677 867.187 452.677C870.014 452.677 872.308 450.383 872.308 447.556Z" fill="#1E2025"/>
<path d="M891.529 447.556C891.529 444.728 889.235 442.434 886.408 442.434C883.58 442.434 881.287 444.728 881.287 447.556C881.287 450.383 883.58 452.677 886.408 452.677C889.235 452.677 891.529 450.383 891.529 447.556Z" fill="#1E2025"/>
<path d="M910.744 447.556C910.744 444.727 908.451 442.434 905.623 442.434C902.794 442.434 900.501 444.727 900.501 447.556C900.501 450.384 902.794 452.677 905.623 452.677C908.451 452.677 910.744 450.384 910.744 447.556Z" fill="#1E2025"/>
<path d="M929.97 447.556C929.97 444.728 927.677 442.434 924.849 442.434C922.022 442.434 919.728 444.728 919.728 447.556C919.728 450.383 922.022 452.677 924.849 452.677C927.677 452.677 929.97 450.383 929.97 447.556Z" fill="#1E2025"/>
<path d="M949.186 447.556C949.186 444.728 946.892 442.434 944.065 442.434C941.237 442.434 938.943 444.728 938.943 447.556C938.943 450.383 941.237 452.677 944.065 452.677C946.892 452.677 949.186 450.383 949.186 447.556Z" fill="#1E2025"/>
<path d="M956.773 441.424L956.773 454.237L969.586 454.237L969.586 441.424L956.773 441.424Z" fill="#1E2025"/>
<path d="M987.627 447.556C987.627 444.728 985.333 442.434 982.506 442.434C979.679 442.434 977.385 444.728 977.385 447.556C977.385 450.383 979.679 452.677 982.506 452.677C985.333 452.677 987.627 450.383 987.627 447.556Z" fill="#1E2025"/>
<path d="M1006.85 447.556C1006.85 444.728 1004.56 442.434 1001.73 442.434C998.905 442.434 996.611 444.728 996.611 447.556C996.611 450.383 998.905 452.677 1001.73 452.677C1004.56 452.677 1006.85 450.383 1006.85 447.556Z" fill="#1E2025"/>
<path d="M1026.07 447.556C1026.07 444.728 1023.77 442.434 1020.95 442.434C1018.12 442.434 1015.83 444.728 1015.83 447.556C1015.83 450.383 1018.12 452.677 1020.95 452.677C1023.77 452.677 1026.07 450.383 1026.07 447.556Z" fill="#1E2025"/>
<path d="M584.003 428.329C584.003 425.501 581.709 423.208 578.881 423.208C576.054 423.208 573.76 425.501 573.76 428.329C573.76 431.156 576.054 433.45 578.881 433.45C581.709 433.45 584.003 431.156 584.003 428.329Z" fill="#1E2025"/>
<path d="M699.327 428.329C699.327 425.501 697.033 423.208 694.206 423.208C691.379 423.208 689.085 425.501 689.085 428.329C689.085 431.156 691.379 433.45 694.206 433.45C697.033 433.45 699.327 431.156 699.327 428.329Z" fill="#32353D"/>
<path d="M718.542 428.329C718.542 425.501 716.248 423.208 713.421 423.208C710.594 423.208 708.3 425.501 708.3 428.329C708.3 431.156 710.594 433.45 713.421 433.45C716.248 433.45 718.542 431.156 718.542 428.329Z" fill="#32353D"/>
<path d="M737.769 428.329C737.769 425.501 735.475 423.208 732.648 423.208C729.82 423.208 727.526 425.501 727.526 428.329C727.526 431.156 729.82 433.45 732.648 433.45C735.475 433.45 737.769 431.156 737.769 428.329Z" fill="#1E2025"/>
<path d="M756.984 428.329C756.984 425.501 754.69 423.208 751.862 423.208C749.035 423.208 746.741 425.501 746.741 428.329C746.741 431.156 749.035 433.45 751.862 433.45C754.69 433.45 756.984 431.156 756.984 428.329Z" fill="#1E2025"/>
<path d="M776.21 428.329C776.21 425.501 773.916 423.208 771.089 423.208C768.262 423.208 765.968 425.501 765.968 428.329C765.968 431.156 768.262 433.45 771.089 433.45C773.916 433.45 776.21 431.156 776.21 428.329Z" fill="#1E2025"/>
<path d="M795.425 428.329C795.425 425.501 793.132 423.208 790.304 423.208C787.477 423.208 785.183 425.501 785.183 428.329C785.183 431.156 787.477 433.45 790.304 433.45C793.132 433.45 795.425 431.156 795.425 428.329Z" fill="#1E2025"/>
<path d="M814.652 428.329C814.652 425.501 812.358 423.208 809.531 423.208C806.703 423.208 804.41 425.501 804.41 428.329C804.41 431.156 806.703 433.45 809.531 433.45C812.358 433.45 814.652 431.156 814.652 428.329Z" fill="#1E2025"/>
<path d="M833.867 428.329C833.867 425.501 831.573 423.208 828.746 423.208C825.918 423.208 823.624 425.501 823.624 428.329C823.624 431.156 825.918 433.45 828.746 433.45C831.573 433.45 833.867 431.156 833.867 428.329Z" fill="#1E2025"/>
<path d="M853.093 428.329C853.093 425.501 850.8 423.208 847.972 423.208C845.145 423.208 842.851 425.501 842.851 428.329C842.851 431.156 845.145 433.45 847.972 433.45C850.8 433.45 853.093 431.156 853.093 428.329Z" fill="#1E2025"/>
<path d="M872.308 428.329C872.308 425.501 870.014 423.208 867.187 423.208C864.36 423.208 862.066 425.501 862.066 428.329C862.066 431.156 864.36 433.45 867.187 433.45C870.014 433.45 872.308 431.156 872.308 428.329Z" fill="#1E2025"/>
<path d="M891.529 428.329C891.529 425.501 889.235 423.208 886.408 423.208C883.58 423.208 881.287 425.501 881.287 428.329C881.287 431.156 883.58 433.45 886.408 433.45C889.235 433.45 891.529 431.156 891.529 428.329Z" fill="#1E2025"/>
<path d="M910.744 428.329C910.744 425.501 908.45 423.208 905.623 423.208C902.795 423.208 900.501 425.501 900.501 428.329C900.501 431.156 902.795 433.45 905.623 433.45C908.45 433.45 910.744 431.156 910.744 428.329Z" fill="#1E2025"/>
<path d="M929.97 428.329C929.97 425.501 927.676 423.208 924.849 423.208C922.022 423.208 919.728 425.501 919.728 428.329C919.728 431.156 922.022 433.45 924.849 433.45C927.676 433.45 929.97 431.156 929.97 428.329Z" fill="#1E2025"/>
<path d="M949.186 428.329C949.186 425.501 946.892 423.208 944.065 423.208C941.237 423.208 938.943 425.501 938.943 428.329C938.943 431.156 941.237 433.45 944.065 433.45C946.892 433.45 949.186 431.156 949.186 428.329Z" fill="#1E2025"/>
<path d="M968.412 428.329C968.412 425.501 966.118 423.208 963.291 423.208C960.464 423.208 958.17 425.501 958.17 428.329C958.17 431.156 960.464 433.45 963.291 433.45C966.118 433.45 968.412 431.156 968.412 428.329Z" fill="#1E2025"/>
<path d="M987.627 428.329C987.627 425.501 985.333 423.208 982.506 423.208C979.679 423.208 977.385 425.501 977.385 428.329C977.385 431.156 979.679 433.45 982.506 433.45C985.333 433.45 987.627 431.156 987.627 428.329Z" fill="#1E2025"/>
<path d="M1006.85 428.329C1006.85 425.501 1004.56 423.208 1001.73 423.208C998.905 423.208 996.611 425.501 996.611 428.329C996.611 431.156 998.905 433.45 1001.73 433.45C1004.56 433.45 1006.85 431.156 1006.85 428.329Z" fill="#1E2025"/>
<path d="M1026.07 428.329C1026.07 425.501 1023.77 423.208 1020.95 423.208C1018.12 423.208 1015.83 425.501 1015.83 428.329C1015.83 431.156 1018.12 433.45 1020.95 433.45C1023.77 433.45 1026.07 431.156 1026.07 428.329Z" fill="#1E2025"/>
<path d="M526.34 409.114C526.34 406.287 524.047 403.993 521.219 403.993C518.392 403.993 516.098 406.287 516.098 409.114C516.098 411.941 518.392 414.235 521.219 414.235C524.047 414.235 526.34 411.941 526.34 409.114Z" fill="#1E2025"/>
<path d="M718.542 409.114C718.542 406.287 716.248 403.993 713.421 403.993C710.594 403.993 708.3 406.287 708.3 409.114C708.3 411.941 710.594 414.235 713.421 414.235C716.248 414.235 718.542 411.941 718.542 409.114Z" fill="#32353D"/>
<path d="M776.21 409.114C776.21 406.287 773.916 403.993 771.089 403.993C768.262 403.993 765.968 406.287 765.968 409.114C765.968 411.941 768.262 414.235 771.089 414.235C773.916 414.235 776.21 411.941 776.21 409.114Z" fill="#1E2025"/>
<path d="M853.093 409.114C853.093 406.287 850.8 403.993 847.972 403.993C845.145 403.993 842.851 406.287 842.851 409.114C842.851 411.941 845.145 414.235 847.972 414.235C850.8 414.235 853.093 411.941 853.093 409.114Z" fill="#1E2025"/>
<path d="M872.308 409.114C872.308 406.287 870.014 403.993 867.187 403.993C864.36 403.993 862.066 406.287 862.066 409.114C862.066 411.941 864.36 414.235 867.187 414.235C870.014 414.235 872.308 411.941 872.308 409.114Z" fill="#1E2025"/>
<path d="M891.529 409.114C891.529 406.287 889.235 403.993 886.408 403.993C883.58 403.993 881.287 406.287 881.287 409.114C881.287 411.941 883.58 414.235 886.408 414.235C889.235 414.235 891.529 411.941 891.529 409.114Z" fill="#1E2025"/>
<path d="M910.744 409.114C910.744 406.287 908.45 403.993 905.623 403.993C902.795 403.993 900.501 406.287 900.501 409.114C900.501 411.941 902.795 414.235 905.623 414.235C908.45 414.235 910.744 411.941 910.744 409.114Z" fill="#1E2025"/>
<path d="M929.97 409.114C929.97 406.287 927.676 403.993 924.849 403.993C922.022 403.993 919.728 406.287 919.728 409.114C919.728 411.941 922.022 414.235 924.849 414.235C927.676 414.235 929.97 411.941 929.97 409.114Z" fill="#1E2025"/>
<path d="M949.186 409.114C949.186 406.287 946.892 403.993 944.065 403.993C941.237 403.993 938.943 406.287 938.943 409.114C938.943 411.941 941.237 414.235 944.065 414.235C946.892 414.235 949.186 411.941 949.186 409.114Z" fill="#1E2025"/>
<path d="M968.412 409.114C968.412 406.287 966.118 403.993 963.291 403.993C960.464 403.993 958.17 406.287 958.17 409.114C958.17 411.941 960.464 414.235 963.291 414.235C966.118 414.235 968.412 411.941 968.412 409.114Z" fill="#1E2025"/>
<path d="M987.627 409.114C987.627 406.287 985.333 403.993 982.506 403.993C979.679 403.993 977.385 406.287 977.385 409.114C977.385 411.941 979.679 414.235 982.506 414.235C985.333 414.235 987.627 411.941 987.627 409.114Z" fill="#1E2025"/>
<path d="M1006.85 409.114C1006.85 406.287 1004.56 403.993 1001.73 403.993C998.905 403.993 996.611 406.287 996.611 409.114C996.611 411.941 998.905 414.235 1001.73 414.235C1004.56 414.235 1006.85 411.941 1006.85 409.114Z" fill="#1E2025"/>
<path d="M1026.07 409.114C1026.07 406.287 1023.77 403.993 1020.95 403.993C1018.12 403.993 1015.83 406.287 1015.83 409.114C1015.83 411.941 1018.12 414.235 1020.95 414.235C1023.77 414.235 1026.07 411.941 1026.07 409.114Z" fill="#1E2025"/>
<path d="M718.542 389.887C718.542 387.06 716.248 384.766 713.421 384.766C710.594 384.766 708.3 387.06 708.3 389.887C708.3 392.715 710.594 395.009 713.421 395.009C716.248 395.009 718.542 392.715 718.542 389.887Z" fill="#32353D"/>
<path d="M737.769 389.887C737.769 387.06 735.475 384.766 732.648 384.766C729.82 384.766 727.526 387.06 727.526 389.887C727.526 392.715 729.82 395.009 732.648 395.009C735.475 395.009 737.769 392.715 737.769 389.887Z" fill="#1E2025"/>
<path d="M776.21 389.887C776.21 387.06 773.916 384.766 771.089 384.766C768.262 384.766 765.968 387.06 765.968 389.887C765.968 392.715 768.262 395.009 771.089 395.009C773.916 395.009 776.21 392.715 776.21 389.887Z" fill="#1E2025"/>
<path d="M795.425 389.887C795.425 387.06 793.132 384.766 790.304 384.766C787.477 384.766 785.183 387.06 785.183 389.887C785.183 392.715 787.477 395.009 790.304 395.009C793.132 395.009 795.425 392.715 795.425 389.887Z" fill="#1E2025"/>
<path d="M833.867 389.887C833.867 387.06 831.573 384.766 828.746 384.766C825.918 384.766 823.624 387.06 823.624 389.887C823.624 392.715 825.918 395.009 828.746 395.009C831.573 395.009 833.867 392.715 833.867 389.887Z" fill="#1E2025"/>
<path d="M853.082 389.887C853.082 387.059 850.789 384.766 847.96 384.766C845.132 384.766 842.839 387.059 842.839 389.887C842.839 392.716 845.132 395.009 847.96 395.009C850.789 395.009 853.082 392.716 853.082 389.887Z" fill="#1E2025"/>
<path d="M872.308 389.887C872.308 387.06 870.014 384.766 867.187 384.766C864.36 384.766 862.066 387.06 862.066 389.887C862.066 392.715 864.36 395.009 867.187 395.009C870.014 395.009 872.308 392.715 872.308 389.887Z" fill="#1E2025"/>
<path d="M891.529 389.887C891.529 387.06 889.235 384.766 886.408 384.766C883.58 384.766 881.287 387.06 881.287 389.887C881.287 392.715 883.58 395.009 886.408 395.009C889.235 395.009 891.529 392.715 891.529 389.887Z" fill="#1E2025"/>
<path d="M910.744 389.887C910.744 387.059 908.451 384.766 905.623 384.766C902.794 384.766 900.501 387.059 900.501 389.887C900.501 392.716 902.794 395.009 905.623 395.009C908.451 395.009 910.744 392.716 910.744 389.887Z" fill="#1E2025"/>
<path d="M929.97 389.887C929.97 387.06 927.676 384.766 924.849 384.766C922.022 384.766 919.728 387.06 919.728 389.887C919.728 392.715 922.022 395.009 924.849 395.009C927.676 395.009 929.97 392.715 929.97 389.887Z" fill="#1E2025"/>
<path d="M949.186 389.887C949.186 387.06 946.892 384.766 944.065 384.766C941.237 384.766 938.943 387.06 938.943 389.887C938.943 392.715 941.237 395.009 944.065 395.009C946.892 395.009 949.186 392.715 949.186 389.887Z" fill="#1E2025"/>
<path d="M968.401 389.887C968.401 387.059 966.108 384.766 963.279 384.766C960.451 384.766 958.158 387.059 958.158 389.887C958.158 392.716 960.451 395.009 963.279 395.009C966.108 395.009 968.401 392.716 968.401 389.887Z" fill="#1E2025"/>
<path d="M987.627 389.887C987.627 387.06 985.333 384.766 982.506 384.766C979.679 384.766 977.385 387.06 977.385 389.887C977.385 392.715 979.679 395.009 982.506 395.009C985.333 395.009 987.627 392.715 987.627 389.887Z" fill="#1E2025"/>
<path d="M1006.85 389.887C1006.85 387.06 1004.56 384.766 1001.73 384.766C998.905 384.766 996.611 387.06 996.611 389.887C996.611 392.715 998.905 395.009 1001.73 395.009C1004.56 395.009 1006.85 392.715 1006.85 389.887Z" fill="#1E2025"/>
<path d="M1026.07 389.887C1026.07 387.06 1023.77 384.766 1020.95 384.766C1018.12 384.766 1015.83 387.06 1015.83 389.887C1015.83 392.715 1018.12 395.009 1020.95 395.009C1023.77 395.009 1026.07 392.715 1026.07 389.887Z" fill="#1E2025"/>
<path d="M718.542 370.671C718.542 367.844 716.248 365.55 713.421 365.55C710.594 365.55 708.3 367.844 708.3 370.671C708.3 373.499 710.594 375.793 713.421 375.793C716.248 375.793 718.542 373.499 718.542 370.671Z" fill="#32353D"/>
<path d="M737.769 370.671C737.769 367.844 735.475 365.55 732.648 365.55C729.82 365.55 727.526 367.844 727.526 370.671C727.526 373.499 729.82 375.793 732.648 375.793C735.475 375.793 737.769 373.499 737.769 370.671Z" fill="#1E2025"/>
<path d="M756.984 370.671C756.984 367.844 754.69 365.55 751.862 365.55C749.035 365.55 746.741 367.844 746.741 370.671C746.741 373.499 749.035 375.793 751.862 375.793C754.69 375.793 756.984 373.499 756.984 370.671Z" fill="#1E2025"/>
<path d="M776.21 370.671C776.21 367.844 773.916 365.55 771.089 365.55C768.262 365.55 765.968 367.844 765.968 370.671C765.968 373.499 768.262 375.793 771.089 375.793C773.916 375.793 776.21 373.499 776.21 370.671Z" fill="#1E2025"/>
<path d="M814.652 370.671C814.652 367.844 812.358 365.55 809.531 365.55C806.703 365.55 804.41 367.844 804.41 370.671C804.41 373.499 806.703 375.793 809.531 375.793C812.358 375.793 814.652 373.499 814.652 370.671Z" fill="#1E2025"/>
<path d="M833.867 370.671C833.867 367.844 831.573 365.55 828.746 365.55C825.918 365.55 823.624 367.844 823.624 370.671C823.624 373.499 825.918 375.793 828.746 375.793C831.573 375.793 833.867 373.499 833.867 370.671Z" fill="#1E2025"/>
<path d="M853.093 370.671C853.093 367.844 850.8 365.55 847.972 365.55C845.145 365.55 842.851 367.844 842.851 370.671C842.851 373.499 845.145 375.793 847.972 375.793C850.8 375.793 853.093 373.499 853.093 370.671Z" fill="#1E2025"/>
<path d="M872.308 370.671C872.308 367.844 870.014 365.55 867.187 365.55C864.36 365.55 862.066 367.844 862.066 370.671C862.066 373.499 864.36 375.793 867.187 375.793C870.014 375.793 872.308 373.499 872.308 370.671Z" fill="#1E2025"/>
<path d="M891.529 370.671C891.529 367.844 889.235 365.55 886.408 365.55C883.58 365.55 881.287 367.844 881.287 370.671C881.287 373.499 883.58 375.793 886.408 375.793C889.235 375.793 891.529 373.499 891.529 370.671Z" fill="#1E2025"/>
<path d="M910.744 370.671C910.744 367.844 908.45 365.55 905.623 365.55C902.795 365.55 900.501 367.844 900.501 370.671C900.501 373.499 902.795 375.793 905.623 375.793C908.45 375.793 910.744 373.499 910.744 370.671Z" fill="#1E2025"/>
<path d="M929.97 370.671C929.97 367.844 927.676 365.55 924.849 365.55C922.022 365.55 919.728 367.844 919.728 370.671C919.728 373.499 922.022 375.793 924.849 375.793C927.676 375.793 929.97 373.499 929.97 370.671Z" fill="#1E2025"/>
<path d="M949.186 370.671C949.186 367.844 946.892 365.55 944.065 365.55C941.237 365.55 938.943 367.844 938.943 370.671C938.943 373.499 941.237 375.793 944.065 375.793C946.892 375.793 949.186 373.499 949.186 370.671Z" fill="#1E2025"/>
<path d="M968.412 370.671C968.412 367.844 966.118 365.55 963.291 365.55C960.464 365.55 958.17 367.844 958.17 370.671C958.17 373.499 960.464 375.793 963.291 375.793C966.118 375.793 968.412 373.499 968.412 370.671Z" fill="#1E2025"/>
<path d="M987.627 370.671C987.627 367.844 985.333 365.55 982.506 365.55C979.679 365.55 977.385 367.844 977.385 370.671C977.385 373.499 979.679 375.793 982.506 375.793C985.333 375.793 987.627 373.499 987.627 370.671Z" fill="#1E2025"/>
<path d="M1006.85 370.671C1006.85 367.844 1004.56 365.55 1001.73 365.55C998.905 365.55 996.611 367.844 996.611 370.671C996.611 373.499 998.905 375.793 1001.73 375.793C1004.56 375.793 1006.85 373.499 1006.85 370.671Z" fill="#1E2025"/>
<path d="M1026.07 370.671C1026.07 367.844 1023.77 365.55 1020.95 365.55C1018.12 365.55 1015.83 367.844 1015.83 370.671C1015.83 373.499 1018.12 375.793 1020.95 375.793C1023.77 375.793 1026.07 373.499 1026.07 370.671Z" fill="#1E2025"/>
<path d="M737.769 351.445C737.769 348.618 735.475 346.324 732.648 346.324C729.82 346.324 727.526 348.618 727.526 351.445C727.526 354.272 729.82 356.566 732.648 356.566C735.475 356.566 737.769 354.272 737.769 351.445Z" fill="#1E2025"/>
<path d="M756.984 351.445C756.984 348.618 754.69 346.324 751.862 346.324C749.035 346.324 746.741 348.618 746.741 351.445C746.741 354.272 749.035 356.566 751.862 356.566C754.69 356.566 756.984 354.272 756.984 351.445Z" fill="#1E2025"/>
<path d="M776.21 351.445C776.21 348.618 773.916 346.324 771.089 346.324C768.262 346.324 765.968 348.618 765.968 351.445C765.968 354.272 768.262 356.566 771.089 356.566C773.916 356.566 776.21 354.272 776.21 351.445Z" fill="#1E2025"/>
<path d="M795.425 351.445C795.425 348.618 793.132 346.324 790.304 346.324C787.477 346.324 785.183 348.618 785.183 351.445C785.183 354.272 787.477 356.566 790.304 356.566C793.132 356.566 795.425 354.272 795.425 351.445Z" fill="#1E2025"/>
<path d="M814.652 351.445C814.652 348.618 812.358 346.324 809.531 346.324C806.703 346.324 804.41 348.618 804.41 351.445C804.41 354.272 806.703 356.566 809.531 356.566C812.358 356.566 814.652 354.272 814.652 351.445Z" fill="#1E2025"/>
<path d="M833.867 351.445C833.867 348.618 831.573 346.324 828.746 346.324C825.918 346.324 823.624 348.618 823.624 351.445C823.624 354.272 825.918 356.566 828.746 356.566C831.573 356.566 833.867 354.272 833.867 351.445Z" fill="#1E2025"/>
<path d="M853.093 351.445C853.093 348.618 850.8 346.324 847.972 346.324C845.145 346.324 842.851 348.618 842.851 351.445C842.851 354.272 845.145 356.566 847.972 356.566C850.8 356.566 853.093 354.272 853.093 351.445Z" fill="#1E2025"/>
<path d="M872.308 351.445C872.308 348.618 870.014 346.324 867.187 346.324C864.36 346.324 862.066 348.618 862.066 351.445C862.066 354.272 864.36 356.566 867.187 356.566C870.014 356.566 872.308 354.272 872.308 351.445Z" fill="#1E2025"/>
<path d="M891.529 351.445C891.529 348.618 889.235 346.324 886.408 346.324C883.58 346.324 881.287 348.618 881.287 351.445C881.287 354.272 883.58 356.566 886.408 356.566C889.235 356.566 891.529 354.272 891.529 351.445Z" fill="#1E2025"/>
<path d="M910.744 351.445C910.744 348.618 908.45 346.324 905.623 346.324C902.795 346.324 900.501 348.618 900.501 351.445C900.501 354.272 902.795 356.566 905.623 356.566C908.45 356.566 910.744 354.272 910.744 351.445Z" fill="#1E2025"/>
<path d="M929.97 351.445C929.97 348.618 927.676 346.324 924.849 346.324C922.022 346.324 919.728 348.618 919.728 351.445C919.728 354.272 922.022 356.566 924.849 356.566C927.676 356.566 929.97 354.272 929.97 351.445Z" fill="#1E2025"/>
<path d="M949.186 351.445C949.186 348.618 946.892 346.324 944.065 346.324C941.237 346.324 938.943 348.618 938.943 351.445C938.943 354.272 941.237 356.566 944.065 356.566C946.892 356.566 949.186 354.272 949.186 351.445Z" fill="#1E2025"/>
<path d="M968.412 351.445C968.412 348.618 966.118 346.324 963.291 346.324C960.464 346.324 958.17 348.618 958.17 351.445C958.17 354.272 960.464 356.566 963.291 356.566C966.118 356.566 968.412 354.272 968.412 351.445Z" fill="#1E2025"/>
<path d="M987.627 351.445C987.627 348.618 985.333 346.324 982.506 346.324C979.679 346.324 977.385 348.618 977.385 351.445C977.385 354.272 979.679 356.566 982.506 356.566C985.333 356.566 987.627 354.272 987.627 351.445Z" fill="#1E2025"/>
<path d="M1006.85 351.445C1006.85 348.618 1004.56 346.324 1001.73 346.324C998.905 346.324 996.611 348.618 996.611 351.445C996.611 354.272 998.905 356.566 1001.73 356.566C1004.56 356.566 1006.85 354.272 1006.85 351.445Z" fill="#1E2025"/>
<path d="M1026.07 351.445C1026.07 348.618 1023.77 346.324 1020.95 346.324C1018.12 346.324 1015.83 348.618 1015.83 351.445C1015.83 354.272 1018.12 356.566 1020.95 356.566C1023.77 356.566 1026.07 354.272 1026.07 351.445Z" fill="#1E2025"/>
<path d="M718.542 332.23C718.542 329.403 716.248 327.109 713.421 327.109C710.594 327.109 708.3 329.403 708.3 332.23C708.3 335.057 710.594 337.351 713.421 337.351C716.248 337.351 718.542 335.057 718.542 332.23Z" fill="#32353D"/>
<path d="M737.769 332.23C737.769 329.403 735.475 327.109 732.648 327.109C729.82 327.109 727.526 329.403 727.526 332.23C727.526 335.057 729.82 337.351 732.648 337.351C735.475 337.351 737.769 335.057 737.769 332.23Z" fill="#1E2025"/>
<path d="M776.21 332.23C776.21 329.403 773.916 327.109 771.089 327.109C768.262 327.109 765.968 329.403 765.968 332.23C765.968 335.057 768.262 337.351 771.089 337.351C773.916 337.351 776.21 335.057 776.21 332.23Z" fill="#1E2025"/>
<path d="M814.652 332.23C814.652 329.403 812.358 327.109 809.531 327.109C806.703 327.109 804.41 329.403 804.41 332.23C804.41 335.057 806.703 337.351 809.531 337.351C812.358 337.351 814.652 335.057 814.652 332.23Z" fill="#1E2025"/>
<path d="M833.867 332.23C833.867 329.403 831.573 327.109 828.746 327.109C825.918 327.109 823.624 329.403 823.624 332.23C823.624 335.057 825.918 337.351 828.746 337.351C831.573 337.351 833.867 335.057 833.867 332.23Z" fill="#1E2025"/>
<path d="M853.093 332.23C853.093 329.403 850.8 327.109 847.972 327.109C845.145 327.109 842.851 329.403 842.851 332.23C842.851 335.057 845.145 337.351 847.972 337.351C850.8 337.351 853.093 335.057 853.093 332.23Z" fill="#1E2025"/>
<path d="M872.308 332.23C872.308 329.403 870.014 327.109 867.187 327.109C864.36 327.109 862.066 329.403 862.066 332.23C862.066 335.057 864.36 337.351 867.187 337.351C870.014 337.351 872.308 335.057 872.308 332.23Z" fill="#1E2025"/>
<path d="M910.744 332.23C910.744 329.403 908.45 327.109 905.623 327.109C902.795 327.109 900.501 329.403 900.501 332.23C900.501 335.057 902.795 337.351 905.623 337.351C908.45 337.351 910.744 335.057 910.744 332.23Z" fill="#1E2025"/>
<path d="M929.97 332.23C929.97 329.403 927.676 327.109 924.849 327.109C922.022 327.109 919.728 329.403 919.728 332.23C919.728 335.057 922.022 337.351 924.849 337.351C927.676 337.351 929.97 335.057 929.97 332.23Z" fill="#1E2025"/>
<path d="M949.186 332.23C949.186 329.403 946.892 327.109 944.065 327.109C941.237 327.109 938.943 329.403 938.943 332.23C938.943 335.057 941.237 337.351 944.065 337.351C946.892 337.351 949.186 335.057 949.186 332.23Z" fill="#1E2025"/>
<path d="M968.412 332.23C968.412 329.403 966.118 327.109 963.291 327.109C960.464 327.109 958.17 329.403 958.17 332.23C958.17 335.057 960.464 337.351 963.291 337.351C966.118 337.351 968.412 335.057 968.412 332.23Z" fill="#1E2025"/>
<path d="M987.627 332.23C987.627 329.403 985.333 327.109 982.506 327.109C979.679 327.109 977.385 329.403 977.385 332.23C977.385 335.057 979.679 337.351 982.506 337.351C985.333 337.351 987.627 335.057 987.627 332.23Z" fill="#1E2025"/>
<path d="M1006.85 332.23C1006.85 329.403 1004.56 327.109 1001.73 327.109C998.905 327.109 996.611 329.403 996.611 332.23C996.611 335.057 998.905 337.351 1001.73 337.351C1004.56 337.351 1006.85 335.057 1006.85 332.23Z" fill="#1E2025"/>
<path d="M1031 340.001C1026.58 340.001 1023 336.419 1023 332.001C1023 327.582 1026.58 324.001 1031 324.001L1031 340.001ZM1022 332.001C1022 335.316 1019.32 338.001 1016 338.001C1012.68 338.001 1010 335.316 1010 332.001C1010 328.686 1012.68 326.001 1016 326.001C1019.31 326.001 1022 328.686 1022 332.001Z" fill="#B6F569"/>
<path d="M584.003 313.004C584.003 310.176 581.709 307.882 578.881 307.882C576.054 307.882 573.76 310.176 573.76 313.004C573.76 315.831 576.054 318.125 578.881 318.125C581.709 318.125 584.003 315.831 584.003 313.004Z" fill="#1E2025"/>
<path d="M776.21 313.004C776.21 310.176 773.916 307.882 771.089 307.882C768.262 307.882 765.968 310.176 765.968 313.004C765.968 315.831 768.262 318.125 771.089 318.125C773.916 318.125 776.21 315.831 776.21 313.004Z" fill="#1E2025"/>
<path d="M814.652 313.004C814.652 310.176 812.358 307.882 809.531 307.882C806.703 307.882 804.41 310.176 804.41 313.004C804.41 315.831 806.703 318.125 809.531 318.125C812.358 318.125 814.652 315.831 814.652 313.004Z" fill="#1E2025"/>
<path d="M833.867 313.004C833.867 310.176 831.573 307.882 828.746 307.882C825.918 307.882 823.624 310.176 823.624 313.004C823.624 315.831 825.918 318.125 828.746 318.125C831.573 318.125 833.867 315.831 833.867 313.004Z" fill="#1E2025"/>
<path d="M853.093 313.004C853.093 310.176 850.8 307.882 847.972 307.882C845.145 307.882 842.851 310.176 842.851 313.004C842.851 315.831 845.145 318.125 847.972 318.125C850.8 318.125 853.093 315.831 853.093 313.004Z" fill="#1E2025"/>
<path d="M872.308 313.004C872.308 310.176 870.014 307.882 867.187 307.882C864.36 307.882 862.066 310.176 862.066 313.004C862.066 315.831 864.36 318.125 867.187 318.125C870.014 318.125 872.308 315.831 872.308 313.004Z" fill="#1E2025"/>
<path d="M891.529 313.004C891.529 310.176 889.235 307.882 886.408 307.882C883.58 307.882 881.287 310.176 881.287 313.004C881.287 315.831 883.58 318.125 886.408 318.125C889.235 318.125 891.529 315.831 891.529 313.004Z" fill="#1E2025"/>
<path d="M910.744 313.004C910.744 310.176 908.45 307.882 905.623 307.882C902.795 307.882 900.501 310.176 900.501 313.004C900.501 315.831 902.795 318.125 905.623 318.125C908.45 318.125 910.744 315.831 910.744 313.004Z" fill="#1E2025"/>
<path d="M929.97 313.004C929.97 310.176 927.676 307.882 924.849 307.882C922.022 307.882 919.728 310.176 919.728 313.004C919.728 315.831 922.022 318.125 924.849 318.125C927.676 318.125 929.97 315.831 929.97 313.004Z" fill="#1E2025"/>
<path d="M949.186 313.004C949.186 310.176 946.892 307.882 944.065 307.882C941.237 307.882 938.943 310.176 938.943 313.004C938.943 315.831 941.237 318.125 944.065 318.125C946.892 318.125 949.186 315.831 949.186 313.004Z" fill="#1E2025"/>
<path d="M968.412 313.004C968.412 310.176 966.118 307.882 963.291 307.882C960.464 307.882 958.17 310.176 958.17 313.004C958.17 315.831 960.464 318.125 963.291 318.125C966.118 318.125 968.412 315.831 968.412 313.004Z" fill="#1E2025"/>
<path d="M987.627 313.004C987.627 310.176 985.333 307.882 982.506 307.882C979.679 307.882 977.385 310.176 977.385 313.004C977.385 315.831 979.679 318.125 982.506 318.125C985.333 318.125 987.627 315.831 987.627 313.004Z" fill="#1E2025"/>
<path d="M1006.85 313.004C1006.85 310.176 1004.56 307.882 1001.73 307.882C998.905 307.882 996.611 310.176 996.611 313.004C996.611 315.831 998.905 318.125 1001.73 318.125C1004.56 318.125 1006.85 315.831 1006.85 313.004Z" fill="#1E2025"/>
<path d="M1026.07 313.004C1026.07 310.176 1023.77 307.882 1020.95 307.882C1018.12 307.882 1015.83 310.176 1015.83 313.004C1015.83 315.831 1018.12 318.125 1020.95 318.125C1023.77 318.125 1026.07 315.831 1026.07 313.004Z" fill="#1E2025"/>
<path d="M699.327 293.789C699.327 290.961 697.033 288.668 694.206 288.668C691.379 288.668 689.085 290.961 689.085 293.789C689.085 296.616 691.379 298.91 694.206 298.91C697.033 298.91 699.327 296.616 699.327 293.789Z" fill="#32353D"/>
<path d="M718.542 293.789C718.542 290.961 716.248 288.668 713.421 288.668C710.594 288.668 708.3 290.961 708.3 293.789C708.3 296.616 710.594 298.91 713.421 298.91C716.248 298.91 718.542 296.616 718.542 293.789Z" fill="#32353D"/>
<path d="M756.984 293.789C756.984 290.961 754.69 288.668 751.862 288.668C749.035 288.668 746.741 290.961 746.741 293.789C746.741 296.616 749.035 298.91 751.862 298.91C754.69 298.91 756.984 296.616 756.984 293.789Z" fill="#1E2025"/>
<path d="M795.425 293.789C795.425 290.961 793.131 288.668 790.304 288.668C787.477 288.668 785.183 290.961 785.183 293.789C785.183 296.616 787.477 298.91 790.304 298.91C793.131 298.91 795.425 296.616 795.425 293.789Z" fill="#1E2025"/>
<path d="M814.652 293.789C814.652 290.961 812.358 288.668 809.531 288.668C806.703 288.668 804.409 290.961 804.409 293.789C804.409 296.616 806.703 298.91 809.531 298.91C812.358 298.91 814.652 296.616 814.652 293.789Z" fill="#1E2025"/>
<path d="M853.093 293.789C853.093 290.961 850.799 288.668 847.972 288.668C845.145 288.668 842.851 290.961 842.851 293.789C842.851 296.616 845.145 298.91 847.972 298.91C850.799 298.91 853.093 296.616 853.093 293.789Z" fill="#1E2025"/>
<path d="M891.529 293.789C891.529 290.961 889.235 288.668 886.408 288.668C883.581 288.668 881.287 290.961 881.287 293.789C881.287 296.616 883.581 298.91 886.408 298.91C889.235 298.91 891.529 296.616 891.529 293.789Z" fill="#1E2025"/>
<path d="M910.744 293.789C910.744 290.961 908.45 288.667 905.623 288.667C902.795 288.667 900.501 290.961 900.501 293.789C900.501 296.616 902.795 298.91 905.623 298.91C908.45 298.91 910.744 296.616 910.744 293.789Z" fill="#1E2025"/>
<path d="M929.971 293.789C929.971 290.961 927.677 288.668 924.849 288.668C922.022 288.668 919.728 290.961 919.728 293.789C919.728 296.616 922.022 298.91 924.849 298.91C927.677 298.91 929.971 296.616 929.971 293.789Z" fill="#1E2025"/>
<path d="M949.186 293.789C949.186 290.961 946.892 288.668 944.064 288.668C941.237 288.668 938.943 290.961 938.943 293.789C938.943 296.616 941.237 298.91 944.064 298.91C946.892 298.91 949.186 296.616 949.186 293.789Z" fill="#1E2025"/>
<path d="M968.412 293.789C968.412 290.961 966.118 288.668 963.291 288.668C960.464 288.668 958.17 290.961 958.17 293.789C958.17 296.616 960.464 298.91 963.291 298.91C966.118 298.91 968.412 296.616 968.412 293.789Z" fill="#1E2025"/>
<path d="M987.627 293.789C987.627 290.961 985.333 288.668 982.506 288.668C979.679 288.668 977.385 290.961 977.385 293.789C977.385 296.616 979.679 298.91 982.506 298.91C985.333 298.91 987.627 296.616 987.627 293.789Z" fill="#1E2025"/>
<path d="M1006.85 293.789C1006.85 290.961 1004.56 288.668 1001.73 288.668C998.905 288.668 996.611 290.961 996.611 293.789C996.611 296.616 998.905 298.91 1001.73 298.91C1004.56 298.91 1006.85 296.616 1006.85 293.789Z" fill="#1E2025"/>
<path d="M1026.07 293.789C1026.07 290.961 1023.77 288.668 1020.95 288.668C1018.12 288.668 1015.83 290.961 1015.83 293.789C1015.83 296.616 1018.12 298.91 1020.95 298.91C1023.77 298.91 1026.07 296.616 1026.07 293.789Z" fill="#1E2025"/>
<path d="M718.542 274.562C718.542 271.735 716.248 269.441 713.421 269.441C710.594 269.441 708.3 271.735 708.3 274.562C708.3 277.39 710.594 279.683 713.421 279.683C716.248 279.683 718.542 277.39 718.542 274.562Z" fill="#1E2025"/>
<path d="M737.769 274.562C737.769 271.735 735.475 269.441 732.648 269.441C729.82 269.441 727.526 271.735 727.526 274.562C727.526 277.39 729.82 279.683 732.648 279.683C735.475 279.683 737.769 277.39 737.769 274.562Z" fill="#1E2025"/>
<path d="M776.21 274.562C776.21 271.735 773.916 269.441 771.089 269.441C768.262 269.441 765.968 271.735 765.968 274.562C765.968 277.39 768.262 279.683 771.089 279.683C773.916 279.683 776.21 277.39 776.21 274.562Z" fill="#1E2025"/>
<path d="M795.425 274.562C795.425 271.735 793.131 269.441 790.304 269.441C787.477 269.441 785.183 271.735 785.183 274.562C785.183 277.39 787.477 279.683 790.304 279.683C793.131 279.683 795.425 277.39 795.425 274.562Z" fill="#1E2025"/>
<path d="M814.652 274.562C814.652 271.735 812.358 269.441 809.531 269.441C806.703 269.441 804.409 271.735 804.409 274.562C804.409 277.39 806.703 279.683 809.531 279.683C812.358 279.683 814.652 277.39 814.652 274.562Z" fill="#1E2025"/>
<path d="M853.093 274.562C853.093 271.735 850.799 269.441 847.972 269.441C845.145 269.441 842.851 271.735 842.851 274.562C842.851 277.39 845.145 279.683 847.972 279.683C850.799 279.683 853.093 277.39 853.093 274.562Z" fill="#1E2025"/>
<path d="M891.529 274.562C891.529 271.735 889.235 269.441 886.408 269.441C883.581 269.441 881.287 271.735 881.287 274.562C881.287 277.39 883.581 279.683 886.408 279.683C889.235 279.683 891.529 277.39 891.529 274.562Z" fill="#1E2025"/>
<path d="M910.744 274.562C910.744 271.735 908.45 269.441 905.623 269.441C902.795 269.441 900.501 271.735 900.501 274.562C900.501 277.389 902.795 279.683 905.623 279.683C908.45 279.683 910.744 277.389 910.744 274.562Z" fill="#1E2025"/>
<path d="M968.412 274.562C968.412 271.735 966.118 269.441 963.291 269.441C960.464 269.441 958.17 271.735 958.17 274.562C958.17 277.39 960.464 279.683 963.291 279.683C966.118 279.683 968.412 277.39 968.412 274.562Z" fill="#1E2025"/>
<path d="M987.627 274.562C987.627 271.735 985.333 269.441 982.506 269.441C979.679 269.441 977.385 271.735 977.385 274.562C977.385 277.39 979.679 279.683 982.506 279.683C985.333 279.683 987.627 277.39 987.627 274.562Z" fill="#1E2025"/>
<path d="M1006.85 274.562C1006.85 271.735 1004.56 269.441 1001.73 269.441C998.905 269.441 996.611 271.735 996.611 274.562C996.611 277.39 998.905 279.683 1001.73 279.683C1004.56 279.683 1006.85 277.39 1006.85 274.562Z" fill="#1E2025"/>
<path d="M1026.07 274.562C1026.07 271.735 1023.77 269.441 1020.95 269.441C1018.12 269.441 1015.83 271.735 1015.83 274.562C1015.83 277.39 1018.12 279.683 1020.95 279.683C1023.77 279.683 1026.07 277.39 1026.07 274.562Z" fill="#1E2025"/>
<path d="M756.984 255.347C756.984 252.52 754.69 250.226 751.862 250.226C749.035 250.226 746.741 252.52 746.741 255.347C746.741 258.175 749.035 260.469 751.862 260.469C754.69 260.469 756.984 258.175 756.984 255.347Z" fill="#1E2025"/>
<path d="M814.652 255.347C814.652 252.52 812.358 250.226 809.531 250.226C806.703 250.226 804.409 252.52 804.409 255.347C804.409 258.175 806.703 260.469 809.531 260.469C812.358 260.469 814.652 258.175 814.652 255.347Z" fill="#1E2025"/>
<path d="M853.093 255.347C853.093 252.52 850.799 250.226 847.972 250.226C845.145 250.226 842.851 252.52 842.851 255.347C842.851 258.175 845.145 260.469 847.972 260.469C850.799 260.469 853.093 258.175 853.093 255.347Z" fill="#1E2025"/>
<path d="M872.308 255.347C872.308 252.52 870.014 250.226 867.187 250.226C864.36 250.226 862.066 252.52 862.066 255.347C862.066 258.175 864.36 260.469 867.187 260.469C870.014 260.469 872.308 258.175 872.308 255.347Z" fill="#1E2025"/>
<path d="M891.529 255.347C891.529 252.52 889.235 250.226 886.408 250.226C883.581 250.226 881.287 252.52 881.287 255.347C881.287 258.175 883.581 260.469 886.408 260.469C889.235 260.469 891.529 258.175 891.529 255.347Z" fill="#1E2025"/>
<path d="M910.744 255.347C910.744 252.52 908.45 250.226 905.623 250.226C902.795 250.226 900.501 252.52 900.501 255.347C900.501 258.175 902.795 260.469 905.623 260.469C908.45 260.469 910.744 258.175 910.744 255.347Z" fill="#1E2025"/>
<path d="M929.971 255.347C929.971 252.52 927.677 250.226 924.849 250.226C922.022 250.226 919.728 252.52 919.728 255.347C919.728 258.175 922.022 260.469 924.849 260.469C927.677 260.469 929.971 258.175 929.971 255.347Z" fill="#1E2025"/>
<path d="M949.186 255.347C949.186 252.52 946.892 250.226 944.064 250.226C941.237 250.226 938.943 252.52 938.943 255.347C938.943 258.175 941.237 260.469 944.064 260.469C946.892 260.469 949.186 258.175 949.186 255.347Z" fill="#1E2025"/>
<path d="M968.412 255.347C968.412 252.52 966.118 250.226 963.291 250.226C960.464 250.226 958.17 252.52 958.17 255.347C958.17 258.175 960.464 260.469 963.291 260.469C966.118 260.469 968.412 258.175 968.412 255.347Z" fill="#1E2025"/>
<path d="M987.627 255.347C987.627 252.52 985.333 250.226 982.506 250.226C979.679 250.226 977.385 252.52 977.385 255.347C977.385 258.175 979.679 260.469 982.506 260.469C985.333 260.469 987.627 258.175 987.627 255.347Z" fill="#1E2025"/>
<path d="M1006.85 255.347C1006.85 252.52 1004.56 250.226 1001.73 250.226C998.905 250.226 996.611 252.52 996.611 255.347C996.611 258.175 998.905 260.469 1001.73 260.469C1004.56 260.469 1006.85 258.175 1006.85 255.347Z" fill="#1E2025"/>
<path d="M1026.07 255.347C1026.07 252.52 1023.77 250.226 1020.95 250.226C1018.12 250.226 1015.83 252.52 1015.83 255.347C1015.83 258.175 1018.12 260.469 1020.95 260.469C1023.77 260.469 1026.07 258.175 1026.07 255.347Z" fill="#1E2025"/>
<path d="M718.543 312.88C718.543 310.052 716.249 307.758 713.422 307.758C710.595 307.758 708.301 310.052 708.301 312.88C708.301 315.707 710.595 318.001 713.422 318.001C716.249 318.001 718.543 315.707 718.543 312.88Z" fill="#32353D"/>
<path d="M505.242 236.122C505.242 233.294 502.948 231.001 500.121 231.001C497.294 231.001 495 233.294 495 236.122C495 238.949 497.294 241.243 500.121 241.243C502.948 241.243 505.242 238.949 505.242 236.122Z" fill="#1E2025"/>
<path d="M562.899 236.122C562.899 233.294 560.605 231.001 557.777 231.001C554.95 231.001 552.656 233.294 552.656 236.122C552.656 238.949 554.95 241.243 557.777 241.243C560.605 241.243 562.899 238.949 562.899 236.122Z" fill="#1E2025"/>
<path d="M853.082 236.121C853.082 233.292 850.789 231 847.961 231C845.132 231 842.839 233.292 842.839 236.121C842.839 238.949 845.132 241.242 847.961 241.242C850.789 241.242 853.082 238.949 853.082 236.121Z" fill="#1E2025"/>
<path d="M872.308 236.121C872.308 233.293 870.014 231 867.187 231C864.36 231 862.066 233.293 862.066 236.121C862.066 238.948 864.36 241.242 867.187 241.242C870.014 241.242 872.308 238.948 872.308 236.121Z" fill="#1E2025"/>
<path d="M891.529 236.121C891.529 233.293 889.235 231 886.408 231C883.581 231 881.287 233.293 881.287 236.121C881.287 238.948 883.581 241.242 886.408 241.242C889.235 241.242 891.529 238.948 891.529 236.121Z" fill="#1E2025"/>
<path d="M910.744 236.121C910.744 233.292 908.451 231 905.623 231C902.794 231 900.501 233.292 900.501 236.121C900.501 238.949 902.794 241.242 905.623 241.242C908.451 241.242 910.744 238.949 910.744 236.121Z" fill="#1E2025"/>
<path d="M929.971 236.121C929.971 233.293 927.677 231 924.849 231C922.022 231 919.728 233.293 919.728 236.121C919.728 238.948 922.022 241.242 924.849 241.242C927.677 241.242 929.971 238.948 929.971 236.121Z" fill="#1E2025"/>
<path d="M949.186 236.121C949.186 233.293 946.892 231 944.064 231C941.237 231 938.943 233.293 938.943 236.121C938.943 238.948 941.237 241.242 944.064 241.242C946.892 241.242 949.186 238.948 949.186 236.121Z" fill="#1E2025"/>
<path d="M968.401 236.121C968.401 233.292 966.108 231 963.279 231C960.451 231 958.158 233.292 958.158 236.121C958.158 238.949 960.451 241.242 963.279 241.242C966.108 241.242 968.401 238.949 968.401 236.121Z" fill="#1E2025"/>
<path d="M987.627 236.121C987.627 233.293 985.333 231 982.506 231C979.679 231 977.385 233.293 977.385 236.121C977.385 238.948 979.679 241.242 982.506 241.242C985.333 241.242 987.627 238.948 987.627 236.121Z" fill="#1E2025"/>
<path d="M1006.85 236.121C1006.85 233.293 1004.56 231 1001.73 231C998.905 231 996.611 233.293 996.611 236.121C996.611 238.948 998.905 241.242 1001.73 241.242C1004.56 241.242 1006.85 238.948 1006.85 236.121Z" fill="#1E2025"/>
<path d="M1026.07 236.121C1026.07 233.293 1023.77 231 1020.95 231C1018.12 231 1015.83 233.293 1015.83 236.121C1015.83 238.948 1018.12 241.242 1020.95 241.242C1023.77 241.242 1026.07 238.948 1026.07 236.121Z" fill="#1E2025"/>
<path d="M505.242 216.903C505.242 214.076 502.948 211.782 500.121 211.782C497.294 211.782 495 214.076 495 216.903C495 219.73 497.294 222.024 500.121 222.024C502.948 222.024 505.242 219.73 505.242 216.903Z" fill="#1E2025"/>
<path d="M524.457 216.903C524.457 214.076 522.163 211.782 519.336 211.782C516.509 211.782 514.215 214.076 514.215 216.903C514.215 219.73 516.509 222.024 519.336 222.024C522.163 222.024 524.457 219.73 524.457 216.903Z" fill="#1E2025"/>
<path d="M853.093 216.906C853.093 214.078 850.799 211.785 847.972 211.785C845.145 211.785 842.851 214.078 842.851 216.906C842.851 219.733 845.145 222.027 847.972 222.027C850.799 222.027 853.093 219.733 853.093 216.906Z" fill="#1E2025"/>
<path d="M891.529 216.906C891.529 214.078 889.235 211.785 886.408 211.785C883.581 211.785 881.287 214.078 881.287 216.906C881.287 219.733 883.581 222.027 886.408 222.027C889.235 222.027 891.529 219.733 891.529 216.906Z" fill="#1E2025"/>
<path d="M910.744 216.906C910.744 214.079 908.45 211.785 905.623 211.785C902.795 211.785 900.501 214.079 900.501 216.906C900.501 219.733 902.795 222.027 905.623 222.027C908.45 222.027 910.744 219.733 910.744 216.906Z" fill="#1E2025"/>
<path d="M929.971 216.906C929.971 214.078 927.677 211.785 924.849 211.785C922.022 211.785 919.728 214.078 919.728 216.906C919.728 219.733 922.022 222.027 924.849 222.027C927.677 222.027 929.971 219.733 929.971 216.906Z" fill="#1E2025"/>
<path d="M968.412 216.906C968.412 214.078 966.118 211.785 963.291 211.785C960.464 211.785 958.17 214.078 958.17 216.906C958.17 219.733 960.464 222.027 963.291 222.027C966.118 222.027 968.412 219.733 968.412 216.906Z" fill="#1E2025"/>
<path d="M987.627 216.906C987.627 214.078 985.333 211.785 982.506 211.785C979.679 211.785 977.385 214.078 977.385 216.906C977.385 219.733 979.679 222.027 982.506 222.027C985.333 222.027 987.627 219.733 987.627 216.906Z" fill="#1E2025"/>
<path d="M1006.85 216.906C1006.85 214.078 1004.56 211.785 1001.73 211.785C998.905 211.785 996.611 214.078 996.611 216.906C996.611 219.733 998.905 222.027 1001.73 222.027C1004.56 222.027 1006.85 219.733 1006.85 216.906Z" fill="#1E2025"/>
<path d="M1026.07 216.906C1026.07 214.078 1023.77 211.785 1020.95 211.785C1018.12 211.785 1015.83 214.078 1015.83 216.906C1015.83 219.733 1018.12 222.027 1020.95 222.027C1023.77 222.027 1026.07 219.733 1026.07 216.906Z" fill="#1E2025"/>
<path d="M543.684 197.676C543.684 194.849 541.39 192.555 538.563 192.555C535.735 192.555 533.441 194.849 533.441 197.676C533.441 200.504 535.735 202.798 538.563 202.798C541.39 202.798 543.684 200.504 543.684 197.676Z" fill="#1E2025"/>
<path d="M562.899 197.676C562.899 194.849 560.605 192.555 557.777 192.555C554.95 192.555 552.656 194.849 552.656 197.676C552.656 200.504 554.95 202.798 557.777 202.798C560.605 202.798 562.899 200.504 562.899 197.676Z" fill="#1E2025"/>
<path d="M910.744 197.679C910.744 194.852 908.45 192.558 905.623 192.558C902.795 192.558 900.501 194.852 900.501 197.679C900.501 200.507 902.795 202.801 905.623 202.801C908.45 202.801 910.744 200.507 910.744 197.679Z" fill="#1E2025"/>
<path d="M929.971 197.679C929.971 194.852 927.677 192.558 924.849 192.558C922.022 192.558 919.728 194.852 919.728 197.679C919.728 200.507 922.022 202.8 924.849 202.8C927.677 202.8 929.971 200.507 929.971 197.679Z" fill="#1E2025"/>
<path d="M1026.07 197.679C1026.07 194.852 1023.77 192.558 1020.95 192.558C1018.12 192.558 1015.83 194.852 1015.83 197.679C1015.83 200.507 1018.12 202.8 1020.95 202.8C1023.77 202.8 1026.07 200.507 1026.07 197.679Z" fill="#1E2025"/>
<path d="M1026.07 178.464C1026.07 175.637 1023.77 173.343 1020.95 173.343C1018.12 173.343 1015.83 175.637 1015.83 178.464C1015.83 181.292 1018.12 183.585 1020.95 183.585C1023.77 183.585 1026.07 181.292 1026.07 178.464Z" fill="#1E2025"/>
<path d="M524.457 159.239C524.457 156.412 522.163 154.118 519.336 154.118C516.509 154.118 514.215 156.412 514.215 159.239C514.215 162.066 516.509 164.36 519.336 164.36C522.163 164.36 524.457 162.066 524.457 159.239Z" fill="#1E2025"/>
<path d="M543.684 159.239C543.684 156.412 541.39 154.118 538.563 154.118C535.735 154.118 533.441 156.412 533.441 159.239C533.441 162.066 535.735 164.36 538.563 164.36C541.39 164.36 543.684 162.066 543.684 159.239Z" fill="#1E2025"/>
<path d="M562.899 159.239C562.899 156.412 560.605 154.118 557.777 154.118C554.95 154.118 552.656 156.412 552.656 159.239C552.656 162.066 554.95 164.36 557.777 164.36C560.605 164.36 562.899 162.066 562.899 159.239Z" fill="#1E2025"/>
<path d="M853.093 159.238C853.093 156.41 850.799 154.117 847.972 154.117C845.145 154.117 842.851 156.41 842.851 159.238C842.851 162.065 845.145 164.359 847.972 164.359C850.799 164.359 853.093 162.065 853.093 159.238Z" fill="#1E2025"/>
<path d="M891.529 159.238C891.529 156.41 889.235 154.117 886.408 154.117C883.581 154.117 881.287 156.41 881.287 159.238C881.287 162.065 883.581 164.359 886.408 164.359C889.235 164.359 891.529 162.065 891.529 159.238Z" fill="#1E2025"/>
<path d="M1026.07 159.238C1026.07 156.41 1023.77 154.117 1020.95 154.117C1018.12 154.117 1015.83 156.41 1015.83 159.238C1015.83 162.065 1018.12 164.359 1020.95 164.359C1023.77 164.359 1026.07 162.065 1026.07 159.238Z" fill="#1E2025"/>
<path d="M505.242 140.02C505.242 137.193 502.948 134.899 500.121 134.899C497.294 134.899 495 137.193 495 140.02C495 142.847 497.294 145.141 500.121 145.141C502.948 145.141 505.242 142.847 505.242 140.02Z" fill="#1E2025"/>
<path d="M891.529 140.023C891.529 137.196 889.235 134.902 886.408 134.902C883.58 134.902 881.287 137.196 881.287 140.023C881.287 142.85 883.58 145.144 886.408 145.144C889.235 145.144 891.529 142.85 891.529 140.023Z" fill="#1E2025"/>
<path d="M910.744 140.023C910.744 137.196 908.45 134.902 905.623 134.902C902.795 134.902 900.501 137.196 900.501 140.023C900.501 142.85 902.795 145.144 905.623 145.144C908.45 145.144 910.744 142.85 910.744 140.023Z" fill="#1E2025"/>
<path d="M562.899 120.794C562.899 117.966 560.605 115.672 557.777 115.672C554.95 115.672 552.656 117.966 552.656 120.794C552.656 123.621 554.95 125.915 557.777 125.915C560.605 125.915 562.899 123.621 562.899 120.794Z" fill="#1E2025"/>
<path d="M891.529 101.582C891.529 98.7543 889.235 96.4604 886.408 96.4604C883.58 96.4604 881.287 98.7543 881.287 101.582C881.287 104.409 883.58 106.703 886.408 106.703C889.235 106.703 891.529 104.409 891.529 101.582Z" fill="#1E2025"/>
<path d="M1026.07 101.582C1026.07 98.7543 1023.77 96.4604 1020.95 96.4604C1018.12 96.4604 1015.83 98.7543 1015.83 101.582C1015.83 104.409 1018.12 106.703 1020.95 106.703C1023.77 106.703 1026.07 104.409 1026.07 101.582Z" fill="#1E2025"/>
<path d="M543.684 82.3561C543.684 79.5287 541.39 77.2348 538.563 77.2348C535.735 77.2348 533.441 79.5287 533.441 82.3561C533.441 85.1834 535.735 87.4773 538.563 87.4773C541.39 87.4773 543.684 85.1834 543.684 82.3561Z" fill="#1E2025"/>
<path d="M872.308 82.3551C872.308 79.5278 870.014 77.2339 867.187 77.2339C864.36 77.2339 862.066 79.5278 862.066 82.3551C862.066 85.1825 864.36 87.4763 867.187 87.4763C870.014 87.4763 872.308 85.1825 872.308 82.3551Z" fill="#1E2025"/>
<path d="M891.529 82.3551C891.529 79.5278 889.235 77.2339 886.408 77.2339C883.58 77.2339 881.287 79.5278 881.287 82.3551C881.287 85.1825 883.58 87.4763 886.408 87.4763C889.235 87.4763 891.529 85.1825 891.529 82.3551Z" fill="#1E2025"/>
<path d="M1026.07 82.3551C1026.07 79.5278 1023.77 77.2339 1020.95 77.2339C1018.12 77.2339 1015.83 79.5278 1015.83 82.3551C1015.83 85.1825 1018.12 87.4763 1020.95 87.4763C1023.77 87.4763 1026.07 85.1825 1026.07 82.3551Z" fill="#1E2025"/>
<path d="M853.093 63.1393C853.093 60.3119 850.8 58.0181 847.972 58.0181C845.145 58.0181 842.851 60.3119 842.851 63.1393C842.851 65.9666 845.145 68.2605 847.972 68.2605C850.8 68.2605 853.093 65.9666 853.093 63.1393Z" fill="#1E2025"/>
<path d="M1026.07 63.1393C1026.07 60.3119 1023.77 58.0181 1020.95 58.0181C1018.12 58.0181 1015.83 60.3119 1015.83 63.1393C1015.83 65.9666 1018.12 68.2605 1020.95 68.2605C1023.77 68.2605 1026.07 65.9666 1026.07 63.1393Z" fill="#1E2025"/>
<path d="M1026.07 43.9125C1026.07 41.0851 1023.77 38.7912 1020.95 38.7912C1018.12 38.7912 1015.83 41.0851 1015.83 43.9125C1015.83 46.7398 1018.12 49.0337 1020.95 49.0337C1023.77 49.0337 1026.07 46.7398 1026.07 43.9125Z" fill="#1E2025"/>
<path d="M1026.07 24.6976C1026.07 21.8703 1023.77 19.5764 1020.95 19.5764C1018.12 19.5764 1015.83 21.8703 1015.83 24.6976C1015.83 27.525 1018.12 29.8188 1020.95 29.8188C1023.77 29.8188 1026.07 27.525 1026.07 24.6976Z" fill="#1E2025"/>
<path d="M872.308 5.47108C872.308 2.64373 870.014 0.349867 867.187 0.349868C864.36 0.349868 862.066 2.64373 862.066 5.47108C862.066 8.29842 864.36 10.5923 867.187 10.5923C870.014 10.5923 872.308 8.29842 872.308 5.47108Z" fill="#1E2025"/>
<path d="M194.4 123H183.6C183.269 123 183 123.269 183 123.6V134.4C183 134.731 183.269 135 183.6 135H194.4C194.731 135 195 134.731 195 134.4V123.6C195 123.269 194.731 123 194.4 123Z" fill="#FFD200"/>
<path d="M911.4 250H900.6C900.269 250 900 250.269 900 250.6V261.4C900 261.731 900.269 262 900.6 262H911.4C911.731 262 912 261.731 912 261.4V250.6C912 250.269 911.731 250 911.4 250Z" fill="#3C8AFF"/>
<path d="M814.4 480H803.6C803.269 480 803 480.269 803 480.6V491.4C803 491.731 803.269 492 803.6 492H814.4C814.731 492 815 491.731 815 491.4V480.6C815 480.269 814.731 480 814.4 480Z" fill="#FFD200"/>
<path d="M853.4 152H842.6C842.269 152 842 152.269 842 152.6V163.4C842 163.731 842.269 164 842.6 164H853.4C853.731 164 854 163.731 854 163.4V152.6C854 152.269 853.731 152 853.4 152Z" fill="#FEA8CD"/>
<path d="M622.4 87H611.6C611.269 87 611 87.269 611 87.6V98.4C611 98.731 611.269 99 611.6 99H622.4C622.731 99 623 98.731 623 98.4V87.6C623 87.269 622.731 87 622.4 87Z" fill="#B6F569"/>
<path d="M220.4 485H209.6C209.269 485 209 485.269 209 485.6V496.4C209 496.731 209.269 497 209.6 497H220.4C220.731 497 221 496.731 221 496.4V485.6C221 485.269 220.731 485 220.4 485Z" fill="#FEA8CD"/>
<path d="M389.4 420H378.6C378.269 420 378 420.269 378 420.6V431.4C378 431.731 378.269 432 378.6 432H389.4C389.731 432 390 431.731 390 431.4V420.6C390 420.269 389.731 420 389.4 420Z" fill="#3C8AFF"/>
<path d="M11.4 90H0.6C0.269 90 0 90.269 0 90.6V101.4C0 101.731 0.269 102 0.6 102H11.4C11.731 102 12 101.731 12 101.4V90.6C12 90.269 11.731 90 11.4 90Z" fill="#3C8AFF"/>
</svg>
