<svg width="402" height="183" viewBox="0 0 402 183" fill="none" xmlns="http://www.w3.org/2000/svg">
<rect x="313" y="62.5969" width="89" height="55" rx="4" fill="#0A0B0D"/>
<path d="M342.992 97.1751C341.744 97.1751 340.725 96.8817 339.936 96.2951C339.157 95.6977 338.688 94.9137 338.528 93.9431H340.256C340.437 94.5511 340.773 94.9991 341.264 95.2871C341.755 95.5644 342.331 95.7031 342.992 95.7031C343.664 95.7031 344.213 95.5484 344.64 95.2391C345.067 94.9191 345.28 94.5137 345.28 94.0231C345.28 93.5217 345.109 93.1377 344.768 92.8711C344.437 92.6044 343.893 92.3857 343.136 92.2151L341.824 91.9111C340.971 91.7191 340.272 91.3831 339.728 90.9031C339.184 90.4124 338.912 89.7351 338.912 88.8711C338.912 88.2631 339.072 87.7191 339.392 87.2391C339.723 86.7484 340.181 86.3644 340.768 86.0871C341.355 85.7991 342.021 85.6551 342.768 85.6551C343.899 85.6551 344.805 85.9271 345.488 86.4711C346.171 87.0151 346.613 87.7724 346.816 88.7431H345.104C344.773 87.6551 344 87.1111 342.784 87.1111C342.112 87.1111 341.584 87.2657 341.2 87.5751C340.816 87.8737 340.624 88.2577 340.624 88.7271C340.624 89.1857 340.784 89.5377 341.104 89.7831C341.424 90.0284 341.941 90.2364 342.656 90.4071L343.952 90.7271C344.88 90.9404 345.621 91.2871 346.176 91.7671C346.741 92.2471 347.024 92.9457 347.024 93.8631C347.024 94.5031 346.853 95.0737 346.512 95.5751C346.181 96.0764 345.712 96.4711 345.104 96.7591C344.496 97.0364 343.792 97.1751 342.992 97.1751ZM352.391 97.1751C351.581 97.1751 350.866 96.9991 350.248 96.6471C349.629 96.2844 349.149 95.7831 348.808 95.1431C348.477 94.4924 348.312 93.7511 348.312 92.9191C348.312 92.0977 348.482 91.3671 348.824 90.7271C349.165 90.0871 349.64 89.5911 350.248 89.2391C350.866 88.8764 351.57 88.6951 352.36 88.6951C353.16 88.6951 353.853 88.8817 354.44 89.2551C355.026 89.6177 355.474 90.1191 355.784 90.7591C356.104 91.3991 356.264 92.1244 356.264 92.9351V93.2071H349.896C349.928 93.9751 350.173 94.5937 350.632 95.0631C351.101 95.5324 351.688 95.7671 352.391 95.7671C353.448 95.7671 354.146 95.3884 354.488 94.6311H356.152C355.928 95.3884 355.474 96.0017 354.792 96.4711C354.12 96.9404 353.32 97.1751 352.391 97.1751ZM354.648 92.1031C354.573 91.4737 354.328 90.9724 353.912 90.5991C353.496 90.2257 352.978 90.0391 352.36 90.0391C351.741 90.0391 351.208 90.2257 350.76 90.5991C350.322 90.9617 350.05 91.4631 349.944 92.1031H354.648ZM358.091 88.9351H359.723V89.9591H359.995C360.24 89.5431 360.56 89.2284 360.955 89.0151C361.36 88.8017 361.808 88.6951 362.299 88.6951C363.131 88.6951 363.792 88.9617 364.283 89.4951C364.774 90.0177 365.019 90.7271 365.019 91.6231V96.9351H363.387V92.1191C363.387 91.5431 363.243 91.0791 362.955 90.7271C362.667 90.3644 362.235 90.1831 361.659 90.1831C361.083 90.1831 360.614 90.3751 360.251 90.7591C359.899 91.1324 359.723 91.5857 359.723 92.1191V96.9351H358.091V88.9351ZM370.477 97.1751C369.751 97.1751 369.106 96.9991 368.541 96.6471C367.986 96.2844 367.549 95.7884 367.229 95.1591C366.919 94.5191 366.765 93.7991 366.765 92.9991C366.765 92.1884 366.93 91.4577 367.261 90.8071C367.591 90.1457 368.045 89.6284 368.621 89.2551C369.197 88.8817 369.842 88.6951 370.557 88.6951C371.101 88.6951 371.591 88.8124 372.029 89.0471C372.466 89.2817 372.802 89.6284 373.037 90.0871H373.293V85.8951H374.925V96.9351H373.293V95.7991H373.037C372.791 96.2471 372.439 96.5884 371.981 96.8231C371.522 97.0577 371.021 97.1751 370.477 97.1751ZM370.877 95.7191C371.335 95.7191 371.746 95.6017 372.109 95.3671C372.482 95.1324 372.775 94.8071 372.989 94.3911C373.202 93.9644 373.309 93.4791 373.309 92.9351C373.309 92.3911 373.202 91.9111 372.989 91.4951C372.775 91.0684 372.482 90.7377 372.109 90.5031C371.746 90.2684 371.335 90.1511 370.877 90.1511C370.162 90.1511 369.575 90.4177 369.117 90.9511C368.669 91.4737 368.445 92.1351 368.445 92.9351C368.445 93.4577 368.546 93.9324 368.749 94.3591C368.962 94.7857 369.25 95.1217 369.613 95.3671C369.986 95.6017 370.407 95.7191 370.877 95.7191Z" fill="white"/>
<rect x="216" y="62.5969" width="89" height="55" rx="4" fill="#0A0B0D"/>
<path d="M244.461 97.1751C243.213 97.1751 242.184 96.8764 241.373 96.2791C240.573 95.6711 240.093 94.8551 239.933 93.8311H242.061C242.232 94.3537 242.53 94.7377 242.957 94.9831C243.384 95.2284 243.885 95.3511 244.461 95.3511C245.037 95.3511 245.506 95.2177 245.869 94.9511C246.232 94.6844 246.413 94.3431 246.413 93.9271C246.413 93.4897 246.253 93.1537 245.933 92.9191C245.613 92.6844 245.08 92.4871 244.333 92.3271L243.357 92.1191C242.45 91.9271 241.714 91.5804 241.149 91.0791C240.584 90.5777 240.301 89.8844 240.301 88.9991C240.301 88.3697 240.466 87.8044 240.797 87.3031C241.138 86.7911 241.608 86.3911 242.205 86.1031C242.802 85.8044 243.485 85.6551 244.253 85.6551C245.394 85.6551 246.317 85.9377 247.021 86.5031C247.736 87.0684 248.2 87.8524 248.413 88.8551H246.317C246.029 87.9271 245.341 87.4631 244.253 87.4631C243.698 87.4631 243.25 87.5964 242.909 87.8631C242.578 88.1191 242.413 88.4444 242.413 88.8391C242.413 89.2231 242.562 89.5217 242.861 89.7351C243.16 89.9377 243.64 90.1137 244.301 90.2631L245.277 90.4871C246.29 90.7217 247.09 91.0844 247.677 91.5751C248.274 92.0657 248.573 92.7857 248.573 93.7351C248.573 94.3964 248.402 94.9884 248.061 95.5111C247.72 96.0337 247.234 96.4444 246.605 96.7431C245.986 97.0311 245.272 97.1751 244.461 97.1751ZM252.307 96.9991C251.891 96.9991 251.56 96.8711 251.315 96.6151C251.08 96.3591 250.963 96.0124 250.963 95.5751V90.4551H249.491V88.9351H250.995V86.7751H252.899V88.9351H254.787V90.4551H252.931V94.9191C252.931 95.0897 252.968 95.2177 253.043 95.3031C253.118 95.3777 253.251 95.4151 253.443 95.4151H254.787V96.9991H252.307ZM258.704 97.1751C257.915 97.1751 257.254 96.9511 256.72 96.5031C256.187 96.0551 255.92 95.4631 255.92 94.7271C255.92 93.8951 256.192 93.2871 256.736 92.9031C257.28 92.5191 258.022 92.2791 258.96 92.1831L261.312 91.9431V91.4951C261.312 91.1431 261.174 90.8604 260.896 90.6471C260.63 90.4337 260.251 90.3271 259.76 90.3271C259.302 90.3271 258.934 90.4231 258.656 90.6151C258.379 90.7964 258.192 91.0471 258.096 91.3671H256.176C256.272 90.5777 256.635 89.9377 257.264 89.4471C257.894 88.9457 258.726 88.6951 259.76 88.6951C260.806 88.6951 261.632 88.9457 262.24 89.4471C262.859 89.9484 263.168 90.6737 263.168 91.6231V95.5271C263.168 95.7937 263.174 96.0551 263.184 96.3111C263.206 96.5564 263.227 96.7537 263.248 96.9031V96.9351H261.328C261.318 96.7537 261.312 96.4871 261.312 96.1351H261.024C260.598 96.8284 259.824 97.1751 258.704 97.1751ZM257.936 94.6311C257.936 94.9511 258.054 95.2071 258.288 95.3991C258.534 95.5804 258.854 95.6711 259.248 95.6711C259.664 95.6711 260.027 95.5804 260.336 95.3991C260.656 95.2071 260.896 94.9564 261.056 94.6471C261.227 94.3377 261.312 94.0124 261.312 93.6711V93.2711L259.552 93.4791C258.998 93.5431 258.587 93.6657 258.32 93.8471C258.064 94.0284 257.936 94.2897 257.936 94.6311ZM265.323 85.8951H267.323V92.2951H267.611L270.331 88.9351H272.651L269.291 92.7591L272.827 96.9351H270.459L267.611 93.5431H267.323V96.9351H265.323V85.8951ZM277.031 97.1751C276.221 97.1751 275.506 96.9991 274.887 96.6471C274.269 96.2951 273.789 95.7991 273.447 95.1591C273.106 94.5191 272.935 93.7724 272.935 92.9191C272.935 92.0871 273.111 91.3511 273.463 90.7111C273.815 90.0711 274.301 89.5751 274.919 89.2231C275.549 88.8711 276.258 88.6951 277.047 88.6951C277.858 88.6951 278.557 88.8817 279.143 89.2551C279.741 89.6284 280.194 90.1404 280.503 90.7911C280.823 91.4417 280.983 92.1777 280.983 92.9991V93.3511H274.887C274.93 94.0017 275.154 94.5191 275.559 94.9031C275.965 95.2764 276.455 95.4631 277.031 95.4631C277.917 95.4631 278.503 95.1697 278.791 94.5831H280.839C280.626 95.3511 280.173 95.9751 279.479 96.4551C278.786 96.9351 277.97 97.1751 277.031 97.1751ZM279.031 92.0231C278.957 91.5004 278.733 91.0897 278.359 90.7911C277.986 90.4817 277.543 90.3271 277.031 90.3271C276.498 90.3271 276.034 90.4764 275.639 90.7751C275.255 91.0737 275.015 91.4897 274.919 92.0231H279.031Z" fill="white"/>
<rect x="97" y="55.5969" width="111" height="69" rx="4" fill="white"/>
<path d="M134.936 88.0995H131.224V86.2275H140.76V88.0995H137.032V97.2675H134.936V88.0995ZM140.62 89.2675H142.604V90.6915H142.892C143.095 90.2115 143.425 89.8328 143.884 89.5555C144.353 89.2675 144.876 89.1235 145.452 89.1235H145.58V91.2675C145.356 91.2355 145.132 91.2195 144.908 91.2195C144.225 91.2195 143.671 91.4168 143.244 91.8115C142.828 92.1955 142.62 92.7821 142.62 93.5715V97.2675H140.62V89.2675ZM149.064 97.5075C148.275 97.5075 147.613 97.2835 147.08 96.8355C146.547 96.3875 146.28 95.7955 146.28 95.0595C146.28 94.2275 146.552 93.6195 147.096 93.2355C147.64 92.8515 148.381 92.6115 149.32 92.5155L151.672 92.2755V91.8275C151.672 91.4755 151.533 91.1928 151.256 90.9795C150.989 90.7661 150.611 90.6595 150.12 90.6595C149.661 90.6595 149.293 90.7555 149.016 90.9475C148.739 91.1288 148.552 91.3795 148.456 91.6995H146.536C146.632 90.9101 146.995 90.2701 147.624 89.7795C148.253 89.2781 149.085 89.0275 150.12 89.0275C151.165 89.0275 151.992 89.2781 152.6 89.7795C153.219 90.2808 153.528 91.0061 153.528 91.9555V95.8595C153.528 96.1261 153.533 96.3875 153.544 96.6435C153.565 96.8888 153.587 97.0861 153.608 97.2355V97.2675H151.688C151.677 97.0861 151.672 96.8195 151.672 96.4675H151.384C150.957 97.1608 150.184 97.5075 149.064 97.5075ZM148.296 94.9635C148.296 95.2835 148.413 95.5395 148.648 95.7315C148.893 95.9128 149.213 96.0035 149.608 96.0035C150.024 96.0035 150.387 95.9128 150.696 95.7315C151.016 95.5395 151.256 95.2888 151.416 94.9795C151.587 94.6701 151.672 94.3448 151.672 94.0035V93.6035L149.912 93.8115C149.357 93.8755 148.947 93.9981 148.68 94.1795C148.424 94.3608 148.296 94.6221 148.296 94.9635ZM158.755 97.5075C158.04 97.5075 157.411 97.3315 156.867 96.9795C156.323 96.6275 155.896 96.1368 155.587 95.5075C155.288 94.8675 155.139 94.1475 155.139 93.3475C155.139 92.5368 155.299 91.8008 155.618 91.1395C155.949 90.4781 156.397 89.9608 156.963 89.5875C157.528 89.2141 158.163 89.0275 158.867 89.0275C159.347 89.0275 159.779 89.1235 160.163 89.3155C160.547 89.5075 160.856 89.8168 161.091 90.2435H161.379V86.2275H163.363V97.2675H161.379V96.3395H161.091C160.845 96.7341 160.509 97.0275 160.083 97.2195C159.667 97.4115 159.224 97.5075 158.755 97.5075ZM159.299 95.7155C159.907 95.7155 160.403 95.4915 160.787 95.0435C161.181 94.5955 161.379 94.0035 161.379 93.2675C161.379 92.5315 161.181 91.9395 160.787 91.4915C160.403 91.0435 159.907 90.8195 159.299 90.8195C158.68 90.8195 158.173 91.0488 157.779 91.5075C157.384 91.9661 157.187 92.5528 157.187 93.2675C157.187 93.9821 157.384 94.5688 157.779 95.0275C158.184 95.4861 158.691 95.7155 159.299 95.7155ZM169.156 97.5075C168.346 97.5075 167.631 97.3315 167.012 96.9795C166.394 96.6275 165.914 96.1315 165.572 95.4915C165.231 94.8515 165.06 94.1048 165.06 93.2515C165.06 92.4195 165.236 91.6835 165.588 91.0435C165.94 90.4035 166.426 89.9075 167.044 89.5555C167.674 89.2035 168.383 89.0275 169.172 89.0275C169.983 89.0275 170.682 89.2141 171.268 89.5875C171.866 89.9608 172.319 90.4728 172.628 91.1235C172.948 91.7741 173.108 92.5101 173.108 93.3315V93.6835H167.012C167.055 94.3341 167.279 94.8515 167.684 95.2355C168.09 95.6088 168.58 95.7955 169.156 95.7955C170.042 95.7955 170.628 95.5021 170.916 94.9155H172.964C172.751 95.6835 172.298 96.3075 171.604 96.7875C170.911 97.2675 170.095 97.5075 169.156 97.5075ZM171.156 92.3555C171.082 91.8328 170.858 91.4221 170.484 91.1235C170.111 90.8141 169.668 90.6595 169.156 90.6595C168.623 90.6595 168.159 90.8088 167.764 91.1075C167.38 91.4061 167.14 91.8221 167.044 92.3555H171.156Z" fill="black"/>
<rect y="62.5969" width="89" height="52" rx="4" fill="#0A0B0D"/>
<path d="M31.796 84.3951H36.788C37.8547 84.3951 38.692 84.6351 39.3 85.1151C39.9187 85.5951 40.228 86.2831 40.228 87.1791C40.228 87.8191 40.0787 88.3311 39.78 88.7151C39.492 89.0884 39.0867 89.3764 38.564 89.5791V89.8671C39.236 90.0271 39.7373 90.3151 40.068 90.7311C40.3987 91.1364 40.564 91.7017 40.564 92.4271C40.564 93.3871 40.2333 94.1284 39.572 94.6511C38.9213 95.1737 38.068 95.4351 37.012 95.4351H31.796V84.3951ZM36.932 93.5951C37.3907 93.5951 37.7587 93.4671 38.036 93.2111C38.3133 92.9444 38.452 92.5871 38.452 92.1391C38.452 91.7124 38.308 91.3711 38.02 91.1151C37.7427 90.8484 37.38 90.7151 36.932 90.7151H33.86V93.5951H36.932ZM36.596 89.0351C37.044 89.0351 37.4067 88.9071 37.684 88.6511C37.9613 88.3844 38.1 88.0377 38.1 87.6111C38.1 87.1737 37.9613 86.8324 37.684 86.5871C37.4067 86.3311 37.044 86.2031 36.596 86.2031H33.86V89.0351H36.596ZM45.794 95.6751C44.6953 95.6751 43.8313 95.3711 43.202 94.7631C42.5727 94.1444 42.258 93.2857 42.258 92.1871V87.4351H44.258V92.1391C44.258 92.6511 44.386 93.0671 44.642 93.3871C44.9087 93.7071 45.2927 93.8671 45.794 93.8671C46.2953 93.8671 46.674 93.7071 46.93 93.3871C47.186 93.0671 47.314 92.6511 47.314 92.1391V87.4351H49.314V92.1871C49.314 93.2857 48.9993 94.1444 48.37 94.7631C47.7513 95.3711 46.8927 95.6751 45.794 95.6751ZM50.8721 96.8751H52.3281C52.5841 96.8751 52.7868 96.8164 52.9361 96.6991C53.0961 96.5817 53.2188 96.3897 53.3041 96.1231L53.4641 95.6591L50.4081 87.4351H52.4881L54.2801 93.0031H54.5681L56.3281 87.4351H58.4081L54.8081 96.9711C54.6161 97.5044 54.3548 97.8884 54.0241 98.1231C53.6935 98.3577 53.2241 98.4751 52.6161 98.4751H50.8721V96.8751Z" fill="white"/>
<rect width="8.1448" height="8.18476" transform="matrix(0.730878 0.682508 -0.650068 0.759876 218.807 40.2063)" fill="#B8A581"/>
<rect width="8.19247" height="8.13705" transform="matrix(0.633439 0.773793 -0.745674 0.66631 228.954 148.69)" fill="#B8A581"/>
<rect width="8.03043" height="8.297" transform="matrix(0.928883 -0.370374 0.34311 0.939295 115.303 30.6868)" fill="#B8A581"/>
<rect width="8.06808" height="8.2604" transform="matrix(0.867812 -0.496892 0.464522 0.885562 198.946 146.545)" fill="#3C8AFF"/>
<rect width="7.9899" height="8.33604" transform="matrix(0.991308 0.131564 -0.120696 0.992689 168.413 30.9641)" fill="#3C8AFF"/>
<rect width="7.9881" height="8.33777" transform="matrix(0.994011 0.109276 -0.100206 0.994967 182.681 0.151611)" fill="#66C800"/>
<rect width="7.98806" height="8.33781" transform="matrix(0.994074 0.108701 -0.0996779 0.99502 117.742 161.586)" fill="#66C800"/>
<rect width="8.01083" height="8.31593" transform="matrix(0.959467 -0.281819 0.259844 0.965651 115.532 7.21021)" fill="#FFD12F"/>
<rect width="8.21319" height="8.11614" transform="matrix(0.586682 0.809817 -0.784378 0.620283 85.3661 131.686)" fill="#FFD12F"/>
<rect width="8.15775" height="8.17186" transform="matrix(0.705589 -0.708622 0.67708 0.73591 91.7899 36.9817)" fill="#FC401F"/>
<rect width="8.26863" height="8.05965" transform="matrix(0.440023 -0.897986 0.881787 0.471647 84.3681 179.047)" fill="#FC401F"/>
<rect x="149.353" y="10.925" width="7.9841" height="8.3416" fill="#FC401F"/>
<rect width="8.03848" height="8.28921" transform="matrix(0.916106 -0.400937 0.372144 0.928175 177.694 168.877)" fill="#FC401F"/>
</svg>
