<svg width="402" height="269" viewBox="0 0 402 269" fill="none" xmlns="http://www.w3.org/2000/svg">
<path d="M278.08 54.29H123.92C122.191 54.29 120.79 55.6914 120.79 57.42V211.58C120.79 213.309 122.191 214.71 123.92 214.71H278.08C279.809 214.71 281.21 213.309 281.21 211.58V57.42C281.21 55.6914 279.809 54.29 278.08 54.29Z" fill="#31353E"/>
<path d="M192.81 139.56H123.92C122.191 139.56 120.79 140.961 120.79 142.69V211.58C120.79 213.308 122.191 214.71 123.92 214.71H192.81C194.539 214.71 195.94 213.308 195.94 211.58V142.69C195.94 140.961 194.539 139.56 192.81 139.56Z" fill="white"/>
<path d="M246.76 91.0996L209.77 128.09" stroke="#3C8AFF" stroke-width="4" stroke-miterlimit="10"/>
<path d="M218.51 90.5498H247.31V119.35" stroke="#3C8AFF" stroke-width="4" stroke-miterlimit="10"/>
</svg>
