<svg width="193" height="27" viewBox="0 0 193 27" fill="none" xmlns="http://www.w3.org/2000/svg">
<path d="M182.317 26.7889C176.906 26.7889 173.209 22.52 173.209 16.8911C173.209 11.0733 177.134 6.76663 182.47 6.76663C185.328 6.76663 187.843 8.08885 188.987 10.5066H189.558V0.155518H192.455V26.2222H189.558V22.9733H188.987C187.805 25.4289 185.29 26.7889 182.317 26.7889ZM182.927 24.2577C186.738 24.2577 189.635 21.0844 189.635 16.7777C189.635 12.4711 186.738 9.29774 182.927 9.29774C178.811 9.29774 176.22 12.6222 176.22 16.7777C176.22 20.9333 178.887 24.2577 182.927 24.2577Z" fill="#0A0B0D"/>
<path d="M166.305 26.2222V0.155518H169.201V26.2222H166.305Z" fill="#0A0B0D"/>
<path d="M157.837 26.2222V7.3333H160.733V26.2222H157.837ZM157.799 3.5933V0.155518H160.771V3.5933H157.799Z" fill="#0A0B0D"/>
<path d="M144.744 26.7889C139.866 26.7889 136.855 23.8423 136.855 18.7045V7.33337H139.752V18.6667C139.752 21.9156 141.467 24.22 144.744 24.22C148.022 24.22 149.737 21.9156 149.737 18.6667V7.33337H152.633V18.7423C152.633 23.8423 149.622 26.7889 144.744 26.7889Z" fill="#0A0B0D"/>
<path d="M123.941 26.7889C121.273 26.7889 118.644 25.6177 117.424 23.0489H116.852V26.2222H113.956V0.155518H116.852V10.6955H117.424C118.606 8.16441 121.159 6.76663 124.093 6.76663C129.505 6.76663 133.24 11.0355 133.24 16.6644C133.24 22.4822 129.353 26.7889 123.941 26.7889ZM123.522 24.2577C127.6 24.2577 130.229 20.9333 130.229 16.7777C130.229 12.6222 127.523 9.29774 123.522 9.29774C119.673 9.29774 116.776 12.4711 116.776 16.7777C116.776 21.0844 119.673 24.2577 123.522 24.2577Z" fill="#0A0B0D"/>
<path d="M37.7794 26.7889C35.6833 26.7889 33.6635 26.0333 32.482 24.0311H31.796V26.2222H27.0322V0.155518H31.796V9.63774H32.482C33.7016 7.55996 35.9882 6.76663 38.0462 6.76663C43.1911 6.76663 46.6591 10.8466 46.6591 16.5889C46.6591 22.4444 42.8481 26.7889 37.7794 26.7889ZM36.7504 22.5577C39.6849 22.5577 41.781 20.1777 41.781 16.7777C41.781 13.3777 39.6468 10.9977 36.7504 10.9977C33.8921 10.9977 31.796 13.2644 31.796 16.7777C31.796 20.2911 33.8921 22.5577 36.7504 22.5577ZM55.4627 26.7889C51.8041 26.7889 48.8314 24.5977 48.8314 21.0089C48.8314 16.7777 52.1089 15.4177 56.0724 15.0022L61.6747 14.4355V13.3777C61.6747 11.7533 60.3408 10.62 57.978 10.62C55.7294 10.62 54.4337 11.6022 54.0145 13.0755H49.4412C49.8985 9.48663 52.9093 6.76663 57.978 6.76663C62.8561 6.76663 66.0955 9.10885 66.0955 13.68V22.8977C66.0955 24.0689 66.2098 25.6933 66.2861 26.1466V26.2222H61.7128C61.6747 25.58 61.6747 24.9755 61.6747 24.3333H60.9887C59.8073 26.2222 57.7493 26.7889 55.4627 26.7889ZM56.7584 23.2377C59.8835 23.2377 61.6747 20.8955 61.6747 18.5155V17.5711L57.4825 18.0622C54.891 18.3644 53.6334 19.12 53.6334 20.7822C53.6334 22.3311 54.9291 23.2377 56.7584 23.2377ZM77.5286 26.7889C72.7267 26.7889 69.2968 24.4089 68.7632 20.6689H73.4508C73.9844 22.3311 75.7375 23.0489 77.5668 23.0489C79.4342 23.0489 80.9586 22.2555 80.9586 20.8577C80.9586 19.46 79.5104 19.0822 77.5286 18.7422L75.5088 18.4022C71.6977 17.76 69.3349 16.1733 69.3349 12.7733C69.3349 9.07107 72.6124 6.76663 77.1475 6.76663C81.5684 6.76663 84.5029 8.80663 85.3032 12.3577H80.7299C80.1964 10.96 78.7863 10.3933 77.1857 10.3933C75.242 10.3933 73.9844 11.2244 73.9844 12.3955C73.9844 13.6044 74.9752 13.9822 77.0332 14.3222L79.0531 14.6622C82.7498 15.2666 85.57 16.7777 85.57 20.4422C85.57 24.4466 82.2162 26.7889 77.5286 26.7889ZM97.4986 26.7889C91.6295 26.7889 87.7423 22.8222 87.7423 16.74C87.7423 10.7711 91.8582 6.76663 97.5367 6.76663C103.482 6.76663 106.912 11.1489 106.912 16.9289V17.76H92.3917C92.6204 20.8955 94.8308 22.7466 97.4986 22.7466C99.709 22.7466 101.043 21.9911 101.691 20.6689H106.569C105.578 24.22 102.034 26.7889 97.4986 26.7889ZM102.262 14.6244C101.881 12.0933 99.8614 10.62 97.4986 10.62C95.0214 10.62 92.9253 12.0555 92.468 14.6244H102.262Z" fill="#0A0B0D"/>
<path d="M1.79273 26.2223C1.03052 26.2223 0.649414 25.8445 0.649414 25.0889V8.46671C0.649414 7.71115 1.03052 7.33337 1.79273 7.33337H18.5613C19.3236 7.33337 19.7047 7.71115 19.7047 8.46671V25.0889C19.7047 25.8445 19.3236 26.2223 18.5613 26.2223H1.79273Z" fill="#0000FF"/>
</svg>
