<svg width="21" height="12" viewBox="0 0 21 12" fill="none" xmlns="http://www.w3.org/2000/svg">
<path d="M0.944 12V0.735999H6.208C8.272 0.735999 9.712 1.888 9.712 3.696C9.712 4.928 9.008 5.76 7.936 6.096V6.112C9.184 6.464 10.032 7.36 10.032 8.784C10.032 10.8 8.512 12 6.416 12H0.944ZM7.568 4.016V3.856C7.568 3.04 7.024 2.528 6.048 2.528H3.072V5.344H6.048C7.024 5.344 7.568 4.832 7.568 4.016ZM7.888 8.72V8.56C7.888 7.616 7.248 7.04 6.176 7.04H3.072V10.192H6.192C7.296 10.192 7.888 9.568 7.888 8.72ZM11.5065 12V0.735999H16.7705C18.8345 0.735999 20.2745 1.888 20.2745 3.696C20.2745 4.928 19.5705 5.76 18.4985 6.096V6.112C19.7465 6.464 20.5945 7.36 20.5945 8.784C20.5945 10.8 19.0745 12 16.9785 12H11.5065ZM18.1305 4.016V3.856C18.1305 3.04 17.5865 2.528 16.6105 2.528H13.6345V5.344H16.6105C17.5865 5.344 18.1305 4.832 18.1305 4.016ZM18.4505 8.72V8.56C18.4505 7.616 17.8105 7.04 16.7385 7.04H13.6345V10.192H16.7545C17.8585 10.192 18.4505 9.568 18.4505 8.72Z" fill="#8A919E"/>
</svg>
