<svg width="172" height="41" viewBox="0 0 172 41" fill="none" xmlns="http://www.w3.org/2000/svg">
<path d="M1.79971 33.0556C1.03659 33.0556 0.655029 32.6744 0.655029 31.9122V15.1433C0.655029 14.3811 1.03659 14 1.79971 14H18.5884C19.3515 14 19.7331 14.3811 19.7331 15.1433V31.9122C19.7331 32.6744 19.3515 33.0556 18.5884 33.0556H1.79971Z" fill="#0000FF"/>
<path d="M38.376 33.57C36.286 33.57 34.272 32.81 33.094 30.796H32.41V33H27.66V6.78H32.41V16.318H33.094C34.31 14.228 36.59 13.43 38.642 13.43C43.772 13.43 47.23 17.534 47.23 23.31C47.23 29.2 43.43 33.57 38.376 33.57ZM37.35 29.314C40.276 29.314 42.366 26.92 42.366 23.5C42.366 20.08 40.238 17.686 37.35 17.686C34.5 17.686 32.41 19.966 32.41 23.5C32.41 27.034 34.5 29.314 37.35 29.314ZM55.8976 33.57C52.2496 33.57 49.2856 31.366 49.2856 27.756C49.2856 23.5 52.5536 22.132 56.5056 21.714L62.6996 21.068V24.222L57.9116 24.792C55.3276 25.096 54.0736 25.856 54.0736 27.528C54.0736 29.086 55.3656 29.998 57.1896 29.998C60.3056 29.998 62.0916 27.642 62.0916 25.248V20.08C62.0916 18.446 60.7616 17.306 58.4056 17.306C56.1636 17.306 54.8716 18.294 54.4536 19.776H49.8936C50.3496 16.166 53.3516 13.43 58.4056 13.43C63.2696 13.43 66.4996 15.786 66.4996 20.384V29.656C66.4996 30.834 66.6136 32.468 66.6896 32.924V33H62.1296C62.0916 32.354 62.0916 31.746 62.0916 31.1H61.4076C60.2296 33 58.1776 33.57 55.8976 33.57ZM78.0388 33.57C73.2508 33.57 69.8308 31.176 69.2988 27.414H73.9728C74.5048 29.086 76.2528 29.808 78.0768 29.808C79.9388 29.808 81.4588 29.01 81.4588 27.604C81.4588 26.198 80.0148 25.818 78.0388 25.476L76.0248 25.134C72.2248 24.488 69.8688 22.892 69.8688 19.472C69.8688 15.748 73.1368 13.43 77.6588 13.43C82.0668 13.43 84.9928 15.482 85.7908 19.054H81.2308C80.6988 17.648 79.2928 17.078 77.6968 17.078C75.7588 17.078 74.5048 17.914 74.5048 19.092C74.5048 20.308 75.4928 20.688 77.5448 21.03L79.5588 21.372C83.2448 21.98 86.0568 23.5 86.0568 27.186C86.0568 31.214 82.7128 33.57 78.0388 33.57ZM97.6441 33.57C91.7921 33.57 87.9161 29.58 87.9161 23.462C87.9161 17.458 92.0201 13.43 97.6821 13.43C103.61 13.43 107.03 17.838 107.03 23.652C107.03 23.918 107.03 24.222 107.03 24.488H90.4621V21.334H102.394C102.014 18.788 100 17.306 97.6441 17.306C94.9461 17.306 92.7421 19.016 92.5521 22.018L92.5141 23.88C92.5141 27.414 94.8321 29.504 97.6441 29.504C99.8481 29.504 101.178 28.744 101.824 27.414H106.688C105.7 30.986 102.166 33.57 97.6441 33.57Z" fill="black"/>
<path d="M123.224 13.43C128.62 13.43 132.344 17.724 132.344 23.424C132.344 29.238 128.43 33.57 123.11 33.57C120.222 33.57 117.714 32.278 116.574 29.808H116.004V40.22H113.116V14H116.004V17.306H116.574C117.752 14.798 120.26 13.43 123.224 13.43ZM122.654 15.976C118.816 15.976 115.966 19.206 115.966 23.5C115.966 27.87 118.816 31.062 122.654 31.062C126.72 31.062 129.342 27.68 129.342 23.5C129.342 19.358 126.682 15.976 122.654 15.976ZM141.232 33.57C137.546 33.57 134.544 31.442 134.544 27.832C134.544 23.614 138.192 22.436 142.372 21.98L148.946 21.258V23.348L143.398 23.994C139.94 24.412 137.584 25.248 137.584 27.642C137.584 29.96 139.446 31.29 141.878 31.29C145.716 31.29 148.034 28.516 148.034 25.742V20.346C148.034 17.61 146.362 15.824 143.246 15.824C140.51 15.824 138.61 17.192 138.116 19.624H135.304C135.798 16.052 138.762 13.43 143.246 13.43C148.11 13.43 150.77 16.09 150.77 20.384V29.694C150.77 30.834 150.884 32.468 150.96 32.924V33H148.034C147.996 32.354 147.996 31.404 147.996 30.454H147.426C146.362 32.468 143.968 33.57 141.232 33.57ZM153.428 40.22V37.902H156.392C158.102 37.902 158.596 37.37 159.242 35.66L160.762 31.67L160.534 34.558L152.782 14H155.822L161.294 29.466H161.864L167.526 14H170.566L161.218 37.446C160.382 39.612 159.242 40.22 156.848 40.22H153.428Z" fill="black"/>
</svg>
