<svg width="174" height="251" viewBox="0 0 174 251" fill="none" xmlns="http://www.w3.org/2000/svg">
<path d="M80.64 0.450195H92.928C94.208 0.450195 95.104 0.834198 95.616 1.6022C96.384 2.11421 96.768 3.01022 96.768 4.29021V16.5782C96.768 17.8582 96.384 18.8822 95.616 19.6502C95.104 20.1622 94.208 20.4182 92.928 20.4182H80.64C79.36 20.4182 78.336 20.1622 77.568 19.6502C77.056 18.8822 76.8 17.8582 76.8 16.5782V4.29021C76.8 3.01022 77.056 2.11421 77.568 1.6022C78.336 0.834198 79.36 0.450195 80.64 0.450195ZM42.24 38.8502H54.528C55.808 38.8502 56.704 39.2342 57.216 40.0022C57.984 40.5142 58.368 41.4102 58.368 42.6902V54.9782C58.368 56.2582 57.984 57.2822 57.216 58.0502C56.704 58.5622 55.808 58.8182 54.528 58.8182H42.24C40.96 58.8182 39.936 58.5622 39.168 58.0502C38.656 57.2822 38.4 56.2582 38.4 54.9782V42.6902C38.4 41.4102 38.656 40.5142 39.168 40.0022C39.936 39.2342 40.96 38.8502 42.24 38.8502ZM119.04 38.8502H131.328C132.608 38.8502 133.504 39.2342 134.016 40.0022C134.784 40.5142 135.168 41.4102 135.168 42.6902V54.9782C135.168 56.2582 134.784 57.2822 134.016 58.0502C133.504 58.5622 132.608 58.8182 131.328 58.8182H119.04C117.76 58.8182 116.736 58.5622 115.968 58.0502C115.456 57.2822 115.2 56.2582 115.2 54.9782V42.6902C115.2 41.4102 115.456 40.5142 115.968 40.0022C116.736 39.2342 117.76 38.8502 119.04 38.8502ZM3.84 77.2502H16.128C17.408 77.2502 18.304 77.6342 18.816 78.4022C19.584 78.9142 19.968 79.8102 19.968 81.0902V93.3782C19.968 94.6582 19.584 95.6822 18.816 96.4502C18.304 96.9622 17.408 97.2182 16.128 97.2182H3.84C2.56 97.2182 1.536 96.9622 0.768 96.4502C0.256 95.6822 0 94.6582 0 93.3782V81.0902C0 79.8102 0.256 78.9142 0.768 78.4022C1.536 77.6342 2.56 77.2502 3.84 77.2502ZM157.44 77.2502H169.728C171.008 77.2502 171.904 77.6342 172.416 78.4022C173.184 78.9142 173.568 79.8102 173.568 81.0902V93.3782C173.568 94.6582 173.184 95.6822 172.416 96.4502C171.904 96.9622 171.008 97.2182 169.728 97.2182H157.44C156.16 97.2182 155.136 96.9622 154.368 96.4502C153.856 95.6822 153.6 94.6582 153.6 93.3782V81.0902C153.6 79.8102 153.856 78.9142 154.368 78.4022C155.136 77.6342 156.16 77.2502 157.44 77.2502ZM3.84 115.65H16.128C17.408 115.65 18.304 116.034 18.816 116.802C19.584 117.314 19.968 118.21 19.968 119.49V131.778C19.968 133.058 19.584 134.082 18.816 134.85C18.304 135.362 17.408 135.618 16.128 135.618H3.84C2.56 135.618 1.536 135.362 0.768 134.85C0.256 134.082 0 133.058 0 131.778V119.49C0 118.21 0.256 117.314 0.768 116.802C1.536 116.034 2.56 115.65 3.84 115.65ZM157.44 115.65H169.728C171.008 115.65 171.904 116.034 172.416 116.802C173.184 117.314 173.568 118.21 173.568 119.49V131.778C173.568 133.058 173.184 134.082 172.416 134.85C171.904 135.362 171.008 135.618 169.728 135.618H157.44C156.16 135.618 155.136 135.362 154.368 134.85C153.856 134.082 153.6 133.058 153.6 131.778V119.49C153.6 118.21 153.856 117.314 154.368 116.802C155.136 116.034 156.16 115.65 157.44 115.65ZM3.84 154.05H16.128C17.408 154.05 18.304 154.434 18.816 155.202C19.584 155.714 19.968 156.61 19.968 157.89V170.178C19.968 171.458 19.584 172.482 18.816 173.25C18.304 173.762 17.408 174.018 16.128 174.018H3.84C2.56 174.018 1.536 173.762 0.768 173.25C0.256 172.482 0 171.458 0 170.178V157.89C0 156.61 0.256 155.714 0.768 155.202C1.536 154.434 2.56 154.05 3.84 154.05ZM42.24 154.05H54.528C55.808 154.05 56.704 154.434 57.216 155.202C57.984 155.714 58.368 156.61 58.368 157.89V170.178C58.368 171.458 57.984 172.482 57.216 173.25C56.704 173.762 55.808 174.018 54.528 174.018H42.24C40.96 174.018 39.936 173.762 39.168 173.25C38.656 172.482 38.4 171.458 38.4 170.178V157.89C38.4 156.61 38.656 155.714 39.168 155.202C39.936 154.434 40.96 154.05 42.24 154.05ZM80.64 154.05H92.928C94.208 154.05 95.104 154.434 95.616 155.202C96.384 155.714 96.768 156.61 96.768 157.89V170.178C96.768 171.458 96.384 172.482 95.616 173.25C95.104 173.762 94.208 174.018 92.928 174.018H80.64C79.36 174.018 78.336 173.762 77.568 173.25C77.056 172.482 76.8 171.458 76.8 170.178V157.89C76.8 156.61 77.056 155.714 77.568 155.202C78.336 154.434 79.36 154.05 80.64 154.05ZM119.04 154.05H131.328C132.608 154.05 133.504 154.434 134.016 155.202C134.784 155.714 135.168 156.61 135.168 157.89V170.178C135.168 171.458 134.784 172.482 134.016 173.25C133.504 173.762 132.608 174.018 131.328 174.018H119.04C117.76 174.018 116.736 173.762 115.968 173.25C115.456 172.482 115.2 171.458 115.2 170.178V157.89C115.2 156.61 115.456 155.714 115.968 155.202C116.736 154.434 117.76 154.05 119.04 154.05ZM157.44 154.05H169.728C171.008 154.05 171.904 154.434 172.416 155.202C173.184 155.714 173.568 156.61 173.568 157.89V170.178C173.568 171.458 173.184 172.482 172.416 173.25C171.904 173.762 171.008 174.018 169.728 174.018H157.44C156.16 174.018 155.136 173.762 154.368 173.25C153.856 172.482 153.6 171.458 153.6 170.178V157.89C153.6 156.61 153.856 155.714 154.368 155.202C155.136 154.434 156.16 154.05 157.44 154.05ZM3.84 192.45H16.128C17.408 192.45 18.304 192.834 18.816 193.602C19.584 194.114 19.968 195.01 19.968 196.29V208.578C19.968 209.858 19.584 210.882 18.816 211.65C18.304 212.162 17.408 212.418 16.128 212.418H3.84C2.56 212.418 1.536 212.162 0.768 211.65C0.256 210.882 0 209.858 0 208.578V196.29C0 195.01 0.256 194.114 0.768 193.602C1.536 192.834 2.56 192.45 3.84 192.45ZM157.44 192.45H169.728C171.008 192.45 171.904 192.834 172.416 193.602C173.184 194.114 173.568 195.01 173.568 196.29V208.578C173.568 209.858 173.184 210.882 172.416 211.65C171.904 212.162 171.008 212.418 169.728 212.418H157.44C156.16 212.418 155.136 212.162 154.368 211.65C153.856 210.882 153.6 209.858 153.6 208.578V196.29C153.6 195.01 153.856 194.114 154.368 193.602C155.136 192.834 156.16 192.45 157.44 192.45ZM3.84 230.85H16.128C17.408 230.85 18.304 231.234 18.816 232.002C19.584 232.514 19.968 233.41 19.968 234.69V246.978C19.968 248.258 19.584 249.282 18.816 250.05C18.304 250.562 17.408 250.818 16.128 250.818H3.84C2.56 250.818 1.536 250.562 0.768 250.05C0.256 249.282 0 248.258 0 246.978V234.69C0 233.41 0.256 232.514 0.768 232.002C1.536 231.234 2.56 230.85 3.84 230.85ZM157.44 230.85H169.728C171.008 230.85 171.904 231.234 172.416 232.002C173.184 232.514 173.568 233.41 173.568 234.69V246.978C173.568 248.258 173.184 249.282 172.416 250.05C171.904 250.562 171.008 250.818 169.728 250.818H157.44C156.16 250.818 155.136 250.562 154.368 250.05C153.856 249.282 153.6 248.258 153.6 246.978V234.69C153.6 233.41 153.856 232.514 154.368 232.002C155.136 231.234 156.16 230.85 157.44 230.85Z" fill="#0A0B0D"/>
</svg>
