<svg width="174" height="251" viewBox="0 0 174 251" fill="none" xmlns="http://www.w3.org/2000/svg">
<path d="M86.4 0.450195H87.168C89.728 0.450195 91.904 1.4742 93.696 3.5222C95.744 5.31421 96.768 7.49021 96.768 10.0502V10.8182C96.768 13.3782 95.744 15.6822 93.696 17.7302C91.904 19.5222 89.728 20.4182 87.168 20.4182H86.4C83.84 20.4182 81.536 19.5222 79.488 17.7302C77.696 15.6822 76.8 13.3782 76.8 10.8182V10.0502C76.8 7.49021 77.696 5.31421 79.488 3.5222C81.536 1.4742 83.84 0.450195 86.4 0.450195ZM48 38.8502H48.768C51.328 38.8502 53.504 39.8742 55.296 41.9222C57.344 43.7142 58.368 45.8902 58.368 48.4502V49.2182C58.368 51.7782 57.344 54.0822 55.296 56.1302C53.504 57.9222 51.328 58.8182 48.768 58.8182H48C45.44 58.8182 43.136 57.9222 41.088 56.1302C39.296 54.0822 38.4 51.7782 38.4 49.2182V48.4502C38.4 45.8902 39.296 43.7142 41.088 41.9222C43.136 39.8742 45.44 38.8502 48 38.8502ZM124.8 38.8502H125.568C128.128 38.8502 130.304 39.8742 132.096 41.9222C134.144 43.7142 135.168 45.8902 135.168 48.4502V49.2182C135.168 51.7782 134.144 54.0822 132.096 56.1302C130.304 57.9222 128.128 58.8182 125.568 58.8182H124.8C122.24 58.8182 119.936 57.9222 117.888 56.1302C116.096 54.0822 115.2 51.7782 115.2 49.2182V48.4502C115.2 45.8902 116.096 43.7142 117.888 41.9222C119.936 39.8742 122.24 38.8502 124.8 38.8502ZM9.6 77.2502H10.368C12.928 77.2502 15.104 78.2742 16.896 80.3222C18.944 82.1142 19.968 84.2902 19.968 86.8502V87.6182C19.968 90.1782 18.944 92.4822 16.896 94.5302C15.104 96.3222 12.928 97.2182 10.368 97.2182H9.6C7.04 97.2182 4.736 96.3222 2.688 94.5302C0.896 92.4822 0 90.1782 0 87.6182V86.8502C0 84.2902 0.896 82.1142 2.688 80.3222C4.736 78.2742 7.04 77.2502 9.6 77.2502ZM163.2 77.2502H163.968C166.528 77.2502 168.704 78.2742 170.496 80.3222C172.544 82.1142 173.568 84.2902 173.568 86.8502V87.6182C173.568 90.1782 172.544 92.4822 170.496 94.5302C168.704 96.3222 166.528 97.2182 163.968 97.2182H163.2C160.64 97.2182 158.336 96.3222 156.288 94.5302C154.496 92.4822 153.6 90.1782 153.6 87.6182V86.8502C153.6 84.2902 154.496 82.1142 156.288 80.3222C158.336 78.2742 160.64 77.2502 163.2 77.2502ZM9.6 115.65H10.368C12.928 115.65 15.104 116.674 16.896 118.722C18.944 120.514 19.968 122.69 19.968 125.25V126.018C19.968 128.578 18.944 130.882 16.896 132.93C15.104 134.722 12.928 135.618 10.368 135.618H9.6C7.04 135.618 4.736 134.722 2.688 132.93C0.896 130.882 0 128.578 0 126.018V125.25C0 122.69 0.896 120.514 2.688 118.722C4.736 116.674 7.04 115.65 9.6 115.65ZM163.2 115.65H163.968C166.528 115.65 168.704 116.674 170.496 118.722C172.544 120.514 173.568 122.69 173.568 125.25V126.018C173.568 128.578 172.544 130.882 170.496 132.93C168.704 134.722 166.528 135.618 163.968 135.618H163.2C160.64 135.618 158.336 134.722 156.288 132.93C154.496 130.882 153.6 128.578 153.6 126.018V125.25C153.6 122.69 154.496 120.514 156.288 118.722C158.336 116.674 160.64 115.65 163.2 115.65ZM9.6 154.05H10.368C12.928 154.05 15.104 155.074 16.896 157.122C18.944 158.914 19.968 161.09 19.968 163.65V164.418C19.968 166.978 18.944 169.282 16.896 171.33C15.104 173.122 12.928 174.018 10.368 174.018H9.6C7.04 174.018 4.736 173.122 2.688 171.33C0.896 169.282 0 166.978 0 164.418V163.65C0 161.09 0.896 158.914 2.688 157.122C4.736 155.074 7.04 154.05 9.6 154.05ZM48 154.05H48.768C51.328 154.05 53.504 155.074 55.296 157.122C57.344 158.914 58.368 161.09 58.368 163.65V164.418C58.368 166.978 57.344 169.282 55.296 171.33C53.504 173.122 51.328 174.018 48.768 174.018H48C45.44 174.018 43.136 173.122 41.088 171.33C39.296 169.282 38.4 166.978 38.4 164.418V163.65C38.4 161.09 39.296 158.914 41.088 157.122C43.136 155.074 45.44 154.05 48 154.05ZM86.4 154.05H87.168C89.728 154.05 91.904 155.074 93.696 157.122C95.744 158.914 96.768 161.09 96.768 163.65V164.418C96.768 166.978 95.744 169.282 93.696 171.33C91.904 173.122 89.728 174.018 87.168 174.018H86.4C83.84 174.018 81.536 173.122 79.488 171.33C77.696 169.282 76.8 166.978 76.8 164.418V163.65C76.8 161.09 77.696 158.914 79.488 157.122C81.536 155.074 83.84 154.05 86.4 154.05ZM124.8 154.05H125.568C128.128 154.05 130.304 155.074 132.096 157.122C134.144 158.914 135.168 161.09 135.168 163.65V164.418C135.168 166.978 134.144 169.282 132.096 171.33C130.304 173.122 128.128 174.018 125.568 174.018H124.8C122.24 174.018 119.936 173.122 117.888 171.33C116.096 169.282 115.2 166.978 115.2 164.418V163.65C115.2 161.09 116.096 158.914 117.888 157.122C119.936 155.074 122.24 154.05 124.8 154.05ZM163.2 154.05H163.968C166.528 154.05 168.704 155.074 170.496 157.122C172.544 158.914 173.568 161.09 173.568 163.65V164.418C173.568 166.978 172.544 169.282 170.496 171.33C168.704 173.122 166.528 174.018 163.968 174.018H163.2C160.64 174.018 158.336 173.122 156.288 171.33C154.496 169.282 153.6 166.978 153.6 164.418V163.65C153.6 161.09 154.496 158.914 156.288 157.122C158.336 155.074 160.64 154.05 163.2 154.05ZM9.6 192.45H10.368C12.928 192.45 15.104 193.474 16.896 195.522C18.944 197.314 19.968 199.49 19.968 202.05V202.818C19.968 205.378 18.944 207.682 16.896 209.73C15.104 211.522 12.928 212.418 10.368 212.418H9.6C7.04 212.418 4.736 211.522 2.688 209.73C0.896 207.682 0 205.378 0 202.818V202.05C0 199.49 0.896 197.314 2.688 195.522C4.736 193.474 7.04 192.45 9.6 192.45ZM163.2 192.45H163.968C166.528 192.45 168.704 193.474 170.496 195.522C172.544 197.314 173.568 199.49 173.568 202.05V202.818C173.568 205.378 172.544 207.682 170.496 209.73C168.704 211.522 166.528 212.418 163.968 212.418H163.2C160.64 212.418 158.336 211.522 156.288 209.73C154.496 207.682 153.6 205.378 153.6 202.818V202.05C153.6 199.49 154.496 197.314 156.288 195.522C158.336 193.474 160.64 192.45 163.2 192.45ZM9.6 230.85H10.368C12.928 230.85 15.104 231.874 16.896 233.922C18.944 235.714 19.968 237.89 19.968 240.45V241.218C19.968 243.778 18.944 246.082 16.896 248.13C15.104 249.922 12.928 250.818 10.368 250.818H9.6C7.04 250.818 4.736 249.922 2.688 248.13C0.896 246.082 0 243.778 0 241.218V240.45C0 237.89 0.896 235.714 2.688 233.922C4.736 231.874 7.04 230.85 9.6 230.85ZM163.2 230.85H163.968C166.528 230.85 168.704 231.874 170.496 233.922C172.544 235.714 173.568 237.89 173.568 240.45V241.218C173.568 243.778 172.544 246.082 170.496 248.13C168.704 249.922 166.528 250.818 163.968 250.818H163.2C160.64 250.818 158.336 249.922 156.288 248.13C154.496 246.082 153.6 243.778 153.6 241.218V240.45C153.6 237.89 154.496 235.714 156.288 233.922C158.336 231.874 160.64 230.85 163.2 230.85Z" fill="#0A0B0D"/>
</svg>
