<svg width="174" height="251" viewBox="0 0 174 251" fill="none" xmlns="http://www.w3.org/2000/svg">
<path d="M77.184 0.450195H96.384C96.64 0.450195 96.768 0.450195 96.768 0.450195C96.768 0.450195 96.768 0.578201 96.768 0.834213V20.0342C96.768 20.2902 96.768 20.4182 96.768 20.4182C96.768 20.4182 96.64 20.4182 96.384 20.4182H77.184C76.928 20.4182 76.8 20.4182 76.8 20.4182C76.8 20.4182 76.8 20.2902 76.8 20.0342V0.834213C76.8 0.578201 76.8 0.450195 76.8 0.450195C76.8 0.450195 76.928 0.450195 77.184 0.450195ZM38.784 38.8502H57.984C58.24 38.8502 58.368 38.8502 58.368 38.8502C58.368 38.8502 58.368 38.9782 58.368 39.2342V58.4342C58.368 58.6902 58.368 58.8182 58.368 58.8182C58.368 58.8182 58.24 58.8182 57.984 58.8182H38.784C38.528 58.8182 38.4 58.8182 38.4 58.8182C38.4 58.8182 38.4 58.6902 38.4 58.4342V39.2342C38.4 38.9782 38.4 38.8502 38.4 38.8502C38.4 38.8502 38.528 38.8502 38.784 38.8502ZM115.584 38.8502H134.784C135.04 38.8502 135.168 38.8502 135.168 38.8502C135.168 38.8502 135.168 38.9782 135.168 39.2342V58.4342C135.168 58.6902 135.168 58.8182 135.168 58.8182C135.168 58.8182 135.04 58.8182 134.784 58.8182H115.584C115.328 58.8182 115.2 58.8182 115.2 58.8182C115.2 58.8182 115.2 58.6902 115.2 58.4342V39.2342C115.2 38.9782 115.2 38.8502 115.2 38.8502C115.2 38.8502 115.328 38.8502 115.584 38.8502ZM0.384 77.2502H19.584C19.84 77.2502 19.968 77.2502 19.968 77.2502C19.968 77.2502 19.968 77.3782 19.968 77.6342V96.8342C19.968 97.0902 19.968 97.2182 19.968 97.2182C19.968 97.2182 19.84 97.2182 19.584 97.2182H0.384C0.128 97.2182 0 97.2182 0 97.2182C0 97.2182 0 97.0902 0 96.8342V77.6342C0 77.3782 0 77.2502 0 77.2502C0 77.2502 0.128 77.2502 0.384 77.2502ZM153.984 77.2502H173.184C173.44 77.2502 173.568 77.2502 173.568 77.2502C173.568 77.2502 173.568 77.3782 173.568 77.6342V96.8342C173.568 97.0902 173.568 97.2182 173.568 97.2182C173.568 97.2182 173.44 97.2182 173.184 97.2182H153.984C153.728 97.2182 153.6 97.2182 153.6 97.2182C153.6 97.2182 153.6 97.0902 153.6 96.8342V77.6342C153.6 77.3782 153.6 77.2502 153.6 77.2502C153.6 77.2502 153.728 77.2502 153.984 77.2502ZM0.384 115.65H19.584C19.84 115.65 19.968 115.65 19.968 115.65C19.968 115.65 19.968 115.778 19.968 116.034V135.234C19.968 135.49 19.968 135.618 19.968 135.618C19.968 135.618 19.84 135.618 19.584 135.618H0.384C0.128 135.618 0 135.618 0 135.618C0 135.618 0 135.49 0 135.234V116.034C0 115.778 0 115.65 0 115.65C0 115.65 0.128 115.65 0.384 115.65ZM153.984 115.65H173.184C173.44 115.65 173.568 115.65 173.568 115.65C173.568 115.65 173.568 115.778 173.568 116.034V135.234C173.568 135.49 173.568 135.618 173.568 135.618C173.568 135.618 173.44 135.618 173.184 135.618H153.984C153.728 135.618 153.6 135.618 153.6 135.618C153.6 135.618 153.6 135.49 153.6 135.234V116.034C153.6 115.778 153.6 115.65 153.6 115.65C153.6 115.65 153.728 115.65 153.984 115.65ZM0.384 154.05H19.584C19.84 154.05 19.968 154.05 19.968 154.05C19.968 154.05 19.968 154.178 19.968 154.434V173.634C19.968 173.89 19.968 174.018 19.968 174.018C19.968 174.018 19.84 174.018 19.584 174.018H0.384C0.128 174.018 0 174.018 0 174.018C0 174.018 0 173.89 0 173.634V154.434C0 154.178 0 154.05 0 154.05C0 154.05 0.128 154.05 0.384 154.05ZM38.784 154.05H57.984C58.24 154.05 58.368 154.05 58.368 154.05C58.368 154.05 58.368 154.178 58.368 154.434V173.634C58.368 173.89 58.368 174.018 58.368 174.018C58.368 174.018 58.24 174.018 57.984 174.018H38.784C38.528 174.018 38.4 174.018 38.4 174.018C38.4 174.018 38.4 173.89 38.4 173.634V154.434C38.4 154.178 38.4 154.05 38.4 154.05C38.4 154.05 38.528 154.05 38.784 154.05ZM77.184 154.05H96.384C96.64 154.05 96.768 154.05 96.768 154.05C96.768 154.05 96.768 154.178 96.768 154.434V173.634C96.768 173.89 96.768 174.018 96.768 174.018C96.768 174.018 96.64 174.018 96.384 174.018H77.184C76.928 174.018 76.8 174.018 76.8 174.018C76.8 174.018 76.8 173.89 76.8 173.634V154.434C76.8 154.178 76.8 154.05 76.8 154.05C76.8 154.05 76.928 154.05 77.184 154.05ZM115.584 154.05H134.784C135.04 154.05 135.168 154.05 135.168 154.05C135.168 154.05 135.168 154.178 135.168 154.434V173.634C135.168 173.89 135.168 174.018 135.168 174.018C135.168 174.018 135.04 174.018 134.784 174.018H115.584C115.328 174.018 115.2 174.018 115.2 174.018C115.2 174.018 115.2 173.89 115.2 173.634V154.434C115.2 154.178 115.2 154.05 115.2 154.05C115.2 154.05 115.328 154.05 115.584 154.05ZM153.984 154.05H173.184C173.44 154.05 173.568 154.05 173.568 154.05C173.568 154.05 173.568 154.178 173.568 154.434V173.634C173.568 173.89 173.568 174.018 173.568 174.018C173.568 174.018 173.44 174.018 173.184 174.018H153.984C153.728 174.018 153.6 174.018 153.6 174.018C153.6 174.018 153.6 173.89 153.6 173.634V154.434C153.6 154.178 153.6 154.05 153.6 154.05C153.6 154.05 153.728 154.05 153.984 154.05ZM0.384 192.45H19.584C19.84 192.45 19.968 192.45 19.968 192.45C19.968 192.45 19.968 192.578 19.968 192.834V212.034C19.968 212.29 19.968 212.418 19.968 212.418C19.968 212.418 19.84 212.418 19.584 212.418H0.384C0.128 212.418 0 212.418 0 212.418C0 212.418 0 212.29 0 212.034V192.834C0 192.578 0 192.45 0 192.45C0 192.45 0.128 192.45 0.384 192.45ZM153.984 192.45H173.184C173.44 192.45 173.568 192.45 173.568 192.45C173.568 192.45 173.568 192.578 173.568 192.834V212.034C173.568 212.29 173.568 212.418 173.568 212.418C173.568 212.418 173.44 212.418 173.184 212.418H153.984C153.728 212.418 153.6 212.418 153.6 212.418C153.6 212.418 153.6 212.29 153.6 212.034V192.834C153.6 192.578 153.6 192.45 153.6 192.45C153.6 192.45 153.728 192.45 153.984 192.45ZM0.384 230.85H19.584C19.84 230.85 19.968 230.85 19.968 230.85C19.968 230.85 19.968 230.978 19.968 231.234V250.434C19.968 250.69 19.968 250.818 19.968 250.818C19.968 250.818 19.84 250.818 19.584 250.818H0.384C0.128 250.818 0 250.818 0 250.818C0 250.818 0 250.69 0 250.434V231.234C0 230.978 0 230.85 0 230.85C0 230.85 0.128 230.85 0.384 230.85ZM153.984 230.85H173.184C173.44 230.85 173.568 230.85 173.568 230.85C173.568 230.85 173.568 230.978 173.568 231.234V250.434C173.568 250.69 173.568 250.818 173.568 250.818C173.568 250.818 173.44 250.818 173.184 250.818H153.984C153.728 250.818 153.6 250.818 153.6 250.818C153.6 250.818 153.6 250.69 153.6 250.434V231.234C153.6 230.978 153.6 230.85 153.6 230.85C153.6 230.85 153.728 230.85 153.984 230.85Z" fill="#0A0B0D"/>
</svg>
