<svg width="155" height="50" viewBox="0 0 155 50" fill="none" xmlns="http://www.w3.org/2000/svg">
<path d="M2.16 49.68C0.719999 49.68 0 48.96 0 47.52V2.16C0 0.720004 0.719999 0 2.16 0H12.312C13.752 0 14.472 0.720004 14.472 2.16V11.52C14.472 12.96 15.192 13.68 16.632 13.68H33.84C35.28 13.68 36 14.4 36 15.84V47.52C36 48.96 35.28 49.68 33.84 49.68H2.16ZM81.36 49.68C79.92 49.68 79.2 48.96 79.2 47.52V15.84C79.2 14.4 79.92 13.68 81.36 13.68H113.04C114.48 13.68 115.2 14.4 115.2 15.84V47.52C115.2 48.96 114.48 49.68 113.04 49.68H81.36ZM41.76 49.68C40.32 49.68 39.6 48.96 39.6 47.52V15.84C39.6 14.4 40.32 13.68 41.76 13.68H73.44C74.88 13.68 75.6 14.4 75.6 15.84V47.52C75.6 48.96 74.88 49.68 73.44 49.68H41.76ZM120.96 49.68C119.52 49.68 118.8 48.96 118.8 47.52V15.84C118.8 14.4 119.52 13.68 120.96 13.68H152.64C154.08 13.68 154.8 14.4 154.8 15.84V47.52C154.8 48.96 154.08 49.68 152.64 49.68H120.96Z" fill="#0A0B0D"/>
</svg>
