<svg width="200" height="51" viewBox="0 0 200 51" fill="none" xmlns="http://www.w3.org/2000/svg">
<path d="M2.16 49.68C0.719999 49.68 0 48.96 0 47.52V15.84C0 14.4 0.719999 13.68 2.16 13.68H33.84C35.28 13.68 36 14.4 36 15.84V47.52C36 48.96 35.28 49.68 33.84 49.68H2.16Z" fill="#0A0B0D"/>
<path d="M69.6831 50.76C65.7231 50.76 61.9071 49.32 59.6751 45.504H58.3791V49.68H49.3791V0H58.3791V18.072H59.6751C61.9791 14.112 66.2991 12.6 70.1871 12.6C79.9071 12.6 86.4591 20.376 86.4591 31.32C86.4591 42.48 79.2591 50.76 69.6831 50.76ZM67.7391 42.696C73.2831 42.696 77.2431 38.16 77.2431 31.68C77.2431 25.2 73.2111 20.664 67.7391 20.664C62.3391 20.664 58.3791 24.984 58.3791 31.68C58.3791 38.376 62.3391 42.696 67.7391 42.696Z" fill="#0A0B0D"/>
<path d="M102.882 50.76C95.9698 50.76 90.3538 46.584 90.3538 39.744C90.3538 31.68 96.5458 29.088 104.034 28.296L114.618 27.216V25.2C114.618 22.104 112.098 19.944 107.634 19.944C103.386 19.944 100.938 21.816 100.146 24.624H91.5058C92.3698 17.784 98.0578 12.6 107.634 12.6C116.85 12.6 122.97 17.064 122.97 25.776V43.344C122.97 45.576 123.186 48.672 123.33 49.536V49.68H114.69C114.618 48.456 114.618 47.304 114.618 46.08H113.322C111.09 49.68 107.202 50.76 102.882 50.76ZM99.4258 39.312C99.4258 42.264 101.874 43.992 105.33 43.992C111.234 43.992 114.618 39.528 114.618 34.992V33.192L106.698 34.128C101.802 34.704 99.4258 36.144 99.4258 39.312Z" fill="#0A0B0D"/>
<path d="M144.834 50.76C135.762 50.76 129.282 46.224 128.274 39.096H137.13C138.138 42.264 141.45 43.632 144.906 43.632C148.434 43.632 151.314 42.12 151.314 39.456C151.314 36.792 148.578 36.072 144.834 35.424L141.018 34.776C133.818 33.552 129.354 30.528 129.354 24.048C129.354 16.992 135.546 12.6 144.114 12.6C152.466 12.6 158.01 16.488 159.522 23.256H150.882C149.874 20.592 147.21 19.512 144.186 19.512C140.514 19.512 138.138 21.096 138.138 23.328C138.138 25.632 140.01 26.352 143.898 27L147.714 27.648C154.698 28.8 160.026 31.68 160.026 38.664C160.026 46.296 153.69 50.76 144.834 50.76Z" fill="#0A0B0D"/>
<path d="M181.981 50.76C170.893 50.76 163.549 43.2 163.549 31.608C163.549 20.232 171.325 12.6 182.053 12.6C193.285 12.6 199.765 20.952 199.765 31.968V33.552H172.333C172.765 39.528 176.941 43.056 181.981 43.056C186.157 43.056 188.677 41.616 189.901 39.096H199.117C197.245 45.864 190.549 50.76 181.981 50.76ZM172.477 27.576H190.981C190.261 22.752 186.445 19.944 181.981 19.944C177.301 19.944 173.341 22.68 172.477 27.576Z" fill="#0A0B0D"/>
</svg>
