<svg width="151" height="51" viewBox="0 0 151 51" fill="none" xmlns="http://www.w3.org/2000/svg">
<path d="M20.304 50.76C16.344 50.76 12.528 49.32 10.296 45.504H9V49.68H0V0H9V18.072H10.296C12.6 14.112 16.92 12.6 20.808 12.6C30.528 12.6 37.08 20.376 37.08 31.32C37.08 42.48 29.88 50.76 20.304 50.76ZM18.36 42.696C23.904 42.696 27.864 38.16 27.864 31.68C27.864 25.2 23.832 20.664 18.36 20.664C12.96 20.664 9 24.984 9 31.68C9 38.376 12.96 42.696 18.36 42.696Z" fill="#0A0B0D"/>
<path d="M53.5028 50.76C46.5908 50.76 40.9748 46.584 40.9748 39.744C40.9748 31.68 47.1667 29.088 54.6548 28.296L65.2388 27.216V25.2C65.2388 22.104 62.7188 19.944 58.2548 19.944C54.0068 19.944 51.5588 21.816 50.7668 24.624H42.1268C42.9907 17.784 48.6788 12.6 58.2548 12.6C67.4707 12.6 73.5908 17.064 73.5908 25.776V43.344C73.5908 45.576 73.8068 48.672 73.9508 49.536V49.68H65.3108C65.2388 48.456 65.2388 47.304 65.2388 46.08H63.9428C61.7108 49.68 57.8228 50.76 53.5028 50.76ZM50.0468 39.312C50.0468 42.264 52.4948 43.992 55.9508 43.992C61.8548 43.992 65.2388 39.528 65.2388 34.992V33.192L57.3188 34.128C52.4228 34.704 50.0468 36.144 50.0468 39.312Z" fill="#0A0B0D"/>
<path d="M95.4546 50.76C86.3826 50.76 79.9026 46.224 78.8946 39.096H87.7506C88.7586 42.264 92.0706 43.632 95.5266 43.632C99.0546 43.632 101.935 42.12 101.935 39.456C101.935 36.792 99.1986 36.072 95.4546 35.424L91.6386 34.776C84.4386 33.552 79.9746 30.528 79.9746 24.048C79.9746 16.992 86.1666 12.6 94.7346 12.6C103.087 12.6 108.631 16.488 110.143 23.256H101.503C100.495 20.592 97.8306 19.512 94.8066 19.512C91.1346 19.512 88.7586 21.096 88.7586 23.328C88.7586 25.632 90.6306 26.352 94.5186 27L98.3346 27.648C105.319 28.8 110.647 31.68 110.647 38.664C110.647 46.296 104.311 50.76 95.4546 50.76Z" fill="#0A0B0D"/>
<path d="M132.602 50.76C121.514 50.76 114.17 43.2 114.17 31.608C114.17 20.232 121.946 12.6 132.674 12.6C143.906 12.6 150.385 20.952 150.385 31.968V33.552H122.953C123.385 39.528 127.562 43.056 132.602 43.056C136.777 43.056 139.298 41.616 140.521 39.096H149.738C147.866 45.864 141.169 50.76 132.602 50.76ZM123.098 27.576H141.602C140.882 22.752 137.066 19.944 132.602 19.944C127.922 19.944 123.962 22.68 123.098 27.576Z" fill="#0A0B0D"/>
</svg>
