<svg width="320" height="253" viewBox="0 0 320 253" fill="none" xmlns="http://www.w3.org/2000/svg">
<rect y="0.450195" width="320" height="252" rx="8" fill="#B1B7C3"/>
<path d="M101.489 88.6364H103.44C103.472 88.6364 103.488 88.6364 103.488 88.6364C103.488 88.6364 103.488 88.6527 103.488 88.6852V90.6354C103.488 90.6679 103.488 90.6842 103.488 90.6842C103.488 90.6842 103.472 90.6842 103.44 90.6842H101.489C101.457 90.6842 101.441 90.6842 101.441 90.6842C101.441 90.6842 101.441 90.6679 101.441 90.6354V88.6852C101.441 88.6527 101.441 88.6364 101.441 88.6364C101.441 88.6364 101.457 88.6364 101.489 88.6364ZM106.365 88.6364H108.315C108.348 88.6364 108.364 88.6364 108.364 88.6364C108.364 88.6364 108.364 88.6527 108.364 88.6852V90.6354C108.364 90.6679 108.364 90.6842 108.364 90.6842C108.364 90.6842 108.348 90.6842 108.315 90.6842H106.365C106.332 90.6842 106.316 90.6842 106.316 90.6842C106.316 90.6842 106.316 90.6679 106.316 90.6354V88.6852C106.316 88.6527 106.316 88.6364 106.316 88.6364C106.316 88.6364 106.332 88.6364 106.365 88.6364ZM111.24 88.6364H113.191C113.223 88.6364 113.239 88.6364 113.239 88.6364C113.239 88.6364 113.239 88.6527 113.239 88.6852V90.6354C113.239 90.6679 113.239 90.6842 113.239 90.6842C113.239 90.6842 113.223 90.6842 113.191 90.6842H111.24C111.208 90.6842 111.192 90.6842 111.192 90.6842C111.192 90.6842 111.192 90.6679 111.192 90.6354V88.6852C111.192 88.6527 111.192 88.6364 111.192 88.6364C111.192 88.6364 111.208 88.6364 111.24 88.6364ZM116.116 88.6364H118.066C118.099 88.6364 118.115 88.6364 118.115 88.6364C118.115 88.6364 118.115 88.6527 118.115 88.6852V90.6354C118.115 90.6679 118.115 90.6842 118.115 90.6842C118.115 90.6842 118.099 90.6842 118.066 90.6842H116.116C116.084 90.6842 116.067 90.6842 116.067 90.6842C116.067 90.6842 116.067 90.6679 116.067 90.6354V88.6852C116.067 88.6527 116.067 88.6364 116.067 88.6364C116.067 88.6364 116.084 88.6364 116.116 88.6364ZM106.365 93.512H108.315C108.348 93.512 108.364 93.512 108.364 93.512C108.364 93.512 108.364 93.5283 108.364 93.5608V95.511C108.364 95.5435 108.364 95.5598 108.364 95.5598C108.364 95.5598 108.348 95.5598 108.315 95.5598H106.365C106.332 95.5598 106.316 95.5598 106.316 95.5598C106.316 95.5598 106.316 95.5435 106.316 95.511V93.5608C106.316 93.5283 106.316 93.512 106.316 93.512C106.316 93.512 106.332 93.512 106.365 93.512ZM120.992 93.512H122.942C122.974 93.512 122.991 93.512 122.991 93.512C122.991 93.512 122.991 93.5283 122.991 93.5608V95.511C122.991 95.5435 122.991 95.5598 122.991 95.5598C122.991 95.5598 122.974 95.5598 122.942 95.5598H120.992C120.959 95.5598 120.943 95.5598 120.943 95.5598C120.943 95.5598 120.943 95.5435 120.943 95.511V93.5608C120.943 93.5283 120.943 93.512 120.943 93.512C120.943 93.512 120.959 93.512 120.992 93.512ZM106.365 98.3876H108.315C108.348 98.3876 108.364 98.3876 108.364 98.3876C108.364 98.3876 108.364 98.4039 108.364 98.4364V100.387C108.364 100.419 108.364 100.435 108.364 100.435C108.364 100.435 108.348 100.435 108.315 100.435H106.365C106.332 100.435 106.316 100.435 106.316 100.435C106.316 100.435 106.316 100.419 106.316 100.387V98.4364C106.316 98.4039 106.316 98.3876 106.316 98.3876C106.316 98.3876 106.332 98.3876 106.365 98.3876ZM120.992 98.3876H122.942C122.974 98.3876 122.991 98.3876 122.991 98.3876C122.991 98.3876 122.991 98.4039 122.991 98.4364V100.387C122.991 100.419 122.991 100.435 122.991 100.435C122.991 100.435 122.974 100.435 122.942 100.435H120.992C120.959 100.435 120.943 100.435 120.943 100.435C120.943 100.435 120.943 100.419 120.943 100.387V98.4364C120.943 98.4039 120.943 98.3876 120.943 98.3876C120.943 98.3876 120.959 98.3876 120.992 98.3876ZM106.365 103.263H108.315C108.348 103.263 108.364 103.263 108.364 103.263C108.364 103.263 108.364 103.279 108.364 103.312V105.262C108.364 105.295 108.364 105.311 108.364 105.311C108.364 105.311 108.348 105.311 108.315 105.311H106.365C106.332 105.311 106.316 105.311 106.316 105.311C106.316 105.311 106.316 105.295 106.316 105.262V103.312C106.316 103.279 106.316 103.263 106.316 103.263C106.316 103.263 106.332 103.263 106.365 103.263ZM111.24 103.263H113.191C113.223 103.263 113.239 103.263 113.239 103.263C113.239 103.263 113.239 103.279 113.239 103.312V105.262C113.239 105.295 113.239 105.311 113.239 105.311C113.239 105.311 113.223 105.311 113.191 105.311H111.24C111.208 105.311 111.192 105.311 111.192 105.311C111.192 105.311 111.192 105.295 111.192 105.262V103.312C111.192 103.279 111.192 103.263 111.192 103.263C111.192 103.263 111.208 103.263 111.24 103.263ZM116.116 103.263H118.066C118.099 103.263 118.115 103.263 118.115 103.263C118.115 103.263 118.115 103.279 118.115 103.312V105.262C118.115 105.295 118.115 105.311 118.115 105.311C118.115 105.311 118.099 105.311 118.066 105.311H116.116C116.084 105.311 116.067 105.311 116.067 105.311C116.067 105.311 116.067 105.295 116.067 105.262V103.312C116.067 103.279 116.067 103.263 116.067 103.263C116.067 103.263 116.084 103.263 116.116 103.263ZM106.365 108.139H108.315C108.348 108.139 108.364 108.139 108.364 108.139C108.364 108.139 108.364 108.155 108.364 108.188V110.138C108.364 110.17 108.364 110.186 108.364 110.186C108.364 110.186 108.348 110.186 108.315 110.186H106.365C106.332 110.186 106.316 110.186 106.316 110.186C106.316 110.186 106.316 110.17 106.316 110.138V108.188C106.316 108.155 106.316 108.139 106.316 108.139C106.316 108.139 106.332 108.139 106.365 108.139ZM120.992 108.139H122.942C122.974 108.139 122.991 108.139 122.991 108.139C122.991 108.139 122.991 108.155 122.991 108.188V110.138C122.991 110.17 122.991 110.186 122.991 110.186C122.991 110.186 122.974 110.186 122.942 110.186H120.992C120.959 110.186 120.943 110.186 120.943 110.186C120.943 110.186 120.943 110.17 120.943 110.138V108.188C120.943 108.155 120.943 108.139 120.943 108.139C120.943 108.139 120.959 108.139 120.992 108.139ZM106.365 113.014H108.315C108.348 113.014 108.364 113.014 108.364 113.014C108.364 113.014 108.364 113.031 108.364 113.063V115.013C108.364 115.046 108.364 115.062 108.364 115.062C108.364 115.062 108.348 115.062 108.315 115.062H106.365C106.332 115.062 106.316 115.062 106.316 115.062C106.316 115.062 106.316 115.046 106.316 115.013V113.063C106.316 113.031 106.316 113.014 106.316 113.014C106.316 113.014 106.332 113.014 106.365 113.014ZM120.992 113.014H122.942C122.974 113.014 122.991 113.014 122.991 113.014C122.991 113.014 122.991 113.031 122.991 113.063V115.013C122.991 115.046 122.991 115.062 122.991 115.062C122.991 115.062 122.974 115.062 122.942 115.062H120.992C120.959 115.062 120.943 115.062 120.943 115.062C120.943 115.062 120.943 115.046 120.943 115.013V113.063C120.943 113.031 120.943 113.014 120.943 113.014C120.943 113.014 120.959 113.014 120.992 113.014ZM101.489 117.89H103.44C103.472 117.89 103.488 117.89 103.488 117.89C103.488 117.89 103.488 117.906 103.488 117.939V119.889C103.488 119.921 103.488 119.938 103.488 119.938C103.488 119.938 103.472 119.938 103.44 119.938H101.489C101.457 119.938 101.441 119.938 101.441 119.938C101.441 119.938 101.441 119.921 101.441 119.889V117.939C101.441 117.906 101.441 117.89 101.441 117.89C101.441 117.89 101.457 117.89 101.489 117.89ZM106.365 117.89H108.315C108.348 117.89 108.364 117.89 108.364 117.89C108.364 117.89 108.364 117.906 108.364 117.939V119.889C108.364 119.921 108.364 119.938 108.364 119.938C108.364 119.938 108.348 119.938 108.315 119.938H106.365C106.332 119.938 106.316 119.938 106.316 119.938C106.316 119.938 106.316 119.921 106.316 119.889V117.939C106.316 117.906 106.316 117.89 106.316 117.89C106.316 117.89 106.332 117.89 106.365 117.89ZM111.24 117.89H113.191C113.223 117.89 113.239 117.89 113.239 117.89C113.239 117.89 113.239 117.906 113.239 117.939V119.889C113.239 119.921 113.239 119.938 113.239 119.938C113.239 119.938 113.223 119.938 113.191 119.938H111.24C111.208 119.938 111.192 119.938 111.192 119.938C111.192 119.938 111.192 119.921 111.192 119.889V117.939C111.192 117.906 111.192 117.89 111.192 117.89C111.192 117.89 111.208 117.89 111.24 117.89ZM116.116 117.89H118.066C118.099 117.89 118.115 117.89 118.115 117.89C118.115 117.89 118.115 117.906 118.115 117.939V119.889C118.115 119.921 118.115 119.938 118.115 119.938C118.115 119.938 118.099 119.938 118.066 119.938H116.116C116.084 119.938 116.067 119.938 116.067 119.938C116.067 119.938 116.067 119.921 116.067 119.889V117.939C116.067 117.906 116.067 117.89 116.067 117.89C116.067 117.89 116.084 117.89 116.116 117.89ZM141.45 88.6364H143.4C143.433 88.6364 143.449 88.6364 143.449 88.6364C143.449 88.6364 143.449 88.6527 143.449 88.6852V90.6354C143.449 90.6679 143.449 90.6842 143.449 90.6842C143.449 90.6842 143.433 90.6842 143.4 90.6842H141.45C141.418 90.6842 141.401 90.6842 141.401 90.6842C141.401 90.6842 141.401 90.6679 141.401 90.6354V88.6852C141.401 88.6527 141.401 88.6364 141.401 88.6364C141.401 88.6364 141.418 88.6364 141.45 88.6364ZM136.574 93.512H138.525C138.557 93.512 138.573 93.512 138.573 93.512C138.573 93.512 138.573 93.5283 138.573 93.5608V95.511C138.573 95.5435 138.573 95.5598 138.573 95.5598C138.573 95.5598 138.557 95.5598 138.525 95.5598H136.574C136.542 95.5598 136.526 95.5598 136.526 95.5598C136.526 95.5598 136.526 95.5435 136.526 95.511V93.5608C136.526 93.5283 136.526 93.512 136.526 93.512C136.526 93.512 136.542 93.512 136.574 93.512ZM146.326 93.512H148.276C148.308 93.512 148.325 93.512 148.325 93.512C148.325 93.512 148.325 93.5283 148.325 93.5608V95.511C148.325 95.5435 148.325 95.5598 148.325 95.5598C148.325 95.5598 148.308 95.5598 148.276 95.5598H146.326C146.293 95.5598 146.277 95.5598 146.277 95.5598C146.277 95.5598 146.277 95.5435 146.277 95.511V93.5608C146.277 93.5283 146.277 93.512 146.277 93.512C146.277 93.512 146.293 93.512 146.326 93.512ZM131.699 98.3876H133.649C133.682 98.3876 133.698 98.3876 133.698 98.3876C133.698 98.3876 133.698 98.4039 133.698 98.4364V100.387C133.698 100.419 133.698 100.435 133.698 100.435C133.698 100.435 133.682 100.435 133.649 100.435H131.699C131.666 100.435 131.65 100.435 131.65 100.435C131.65 100.435 131.65 100.419 131.65 100.387V98.4364C131.65 98.4039 131.65 98.3876 131.65 98.3876C131.65 98.3876 131.666 98.3876 131.699 98.3876ZM151.201 98.3876H153.151C153.184 98.3876 153.2 98.3876 153.2 98.3876C153.2 98.3876 153.2 98.4039 153.2 98.4364V100.387C153.2 100.419 153.2 100.435 153.2 100.435C153.2 100.435 153.184 100.435 153.151 100.435H151.201C151.169 100.435 151.152 100.435 151.152 100.435C151.152 100.435 151.152 100.419 151.152 100.387V98.4364C151.152 98.4039 151.152 98.3876 151.152 98.3876C151.152 98.3876 151.169 98.3876 151.201 98.3876ZM131.699 103.263H133.649C133.682 103.263 133.698 103.263 133.698 103.263C133.698 103.263 133.698 103.279 133.698 103.312V105.262C133.698 105.295 133.698 105.311 133.698 105.311C133.698 105.311 133.682 105.311 133.649 105.311H131.699C131.666 105.311 131.65 105.311 131.65 105.311C131.65 105.311 131.65 105.295 131.65 105.262V103.312C131.65 103.279 131.65 103.263 131.65 103.263C131.65 103.263 131.666 103.263 131.699 103.263ZM151.201 103.263H153.151C153.184 103.263 153.2 103.263 153.2 103.263C153.2 103.263 153.2 103.279 153.2 103.312V105.262C153.2 105.295 153.2 105.311 153.2 105.311C153.2 105.311 153.184 105.311 153.151 105.311H151.201C151.169 105.311 151.152 105.311 151.152 105.311C151.152 105.311 151.152 105.295 151.152 105.262V103.312C151.152 103.279 151.152 103.263 151.152 103.263C151.152 103.263 151.169 103.263 151.201 103.263ZM131.699 108.139H133.649C133.682 108.139 133.698 108.139 133.698 108.139C133.698 108.139 133.698 108.155 133.698 108.188V110.138C133.698 110.17 133.698 110.186 133.698 110.186C133.698 110.186 133.682 110.186 133.649 110.186H131.699C131.666 110.186 131.65 110.186 131.65 110.186C131.65 110.186 131.65 110.17 131.65 110.138V108.188C131.65 108.155 131.65 108.139 131.65 108.139C131.65 108.139 131.666 108.139 131.699 108.139ZM136.574 108.139H138.525C138.557 108.139 138.573 108.139 138.573 108.139C138.573 108.139 138.573 108.155 138.573 108.188V110.138C138.573 110.17 138.573 110.186 138.573 110.186C138.573 110.186 138.557 110.186 138.525 110.186H136.574C136.542 110.186 136.526 110.186 136.526 110.186C136.526 110.186 136.526 110.17 136.526 110.138V108.188C136.526 108.155 136.526 108.139 136.526 108.139C136.526 108.139 136.542 108.139 136.574 108.139ZM141.45 108.139H143.4C143.433 108.139 143.449 108.139 143.449 108.139C143.449 108.139 143.449 108.155 143.449 108.188V110.138C143.449 110.17 143.449 110.186 143.449 110.186C143.449 110.186 143.433 110.186 143.4 110.186H141.45C141.418 110.186 141.401 110.186 141.401 110.186C141.401 110.186 141.401 110.17 141.401 110.138V108.188C141.401 108.155 141.401 108.139 141.401 108.139C141.401 108.139 141.418 108.139 141.45 108.139ZM146.326 108.139H148.276C148.308 108.139 148.325 108.139 148.325 108.139C148.325 108.139 148.325 108.155 148.325 108.188V110.138C148.325 110.17 148.325 110.186 148.325 110.186C148.325 110.186 148.308 110.186 148.276 110.186H146.326C146.293 110.186 146.277 110.186 146.277 110.186C146.277 110.186 146.277 110.17 146.277 110.138V108.188C146.277 108.155 146.277 108.139 146.277 108.139C146.277 108.139 146.293 108.139 146.326 108.139ZM151.201 108.139H153.151C153.184 108.139 153.2 108.139 153.2 108.139C153.2 108.139 153.2 108.155 153.2 108.188V110.138C153.2 110.17 153.2 110.186 153.2 110.186C153.2 110.186 153.184 110.186 153.151 110.186H151.201C151.169 110.186 151.152 110.186 151.152 110.186C151.152 110.186 151.152 110.17 151.152 110.138V108.188C151.152 108.155 151.152 108.139 151.152 108.139C151.152 108.139 151.169 108.139 151.201 108.139ZM131.699 113.014H133.649C133.682 113.014 133.698 113.014 133.698 113.014C133.698 113.014 133.698 113.031 133.698 113.063V115.013C133.698 115.046 133.698 115.062 133.698 115.062C133.698 115.062 133.682 115.062 133.649 115.062H131.699C131.666 115.062 131.65 115.062 131.65 115.062C131.65 115.062 131.65 115.046 131.65 115.013V113.063C131.65 113.031 131.65 113.014 131.65 113.014C131.65 113.014 131.666 113.014 131.699 113.014ZM151.201 113.014H153.151C153.184 113.014 153.2 113.014 153.2 113.014C153.2 113.014 153.2 113.031 153.2 113.063V115.013C153.2 115.046 153.2 115.062 153.2 115.062C153.2 115.062 153.184 115.062 153.151 115.062H151.201C151.169 115.062 151.152 115.062 151.152 115.062C151.152 115.062 151.152 115.046 151.152 115.013V113.063C151.152 113.031 151.152 113.014 151.152 113.014C151.152 113.014 151.169 113.014 151.201 113.014ZM131.699 117.89H133.649C133.682 117.89 133.698 117.89 133.698 117.89C133.698 117.89 133.698 117.906 133.698 117.939V119.889C133.698 119.921 133.698 119.938 133.698 119.938C133.698 119.938 133.682 119.938 133.649 119.938H131.699C131.666 119.938 131.65 119.938 131.65 119.938C131.65 119.938 131.65 119.921 131.65 119.889V117.939C131.65 117.906 131.65 117.89 131.65 117.89C131.65 117.89 131.666 117.89 131.699 117.89ZM151.201 117.89H153.151C153.184 117.89 153.2 117.89 153.2 117.89C153.2 117.89 153.2 117.906 153.2 117.939V119.889C153.2 119.921 153.2 119.938 153.2 119.938C153.2 119.938 153.184 119.938 153.151 119.938H151.201C151.169 119.938 151.152 119.938 151.152 119.938C151.152 119.938 151.152 119.921 151.152 119.889V117.939C151.152 117.906 151.152 117.89 151.152 117.89C151.152 117.89 151.169 117.89 151.201 117.89ZM166.784 88.6364H168.734C168.767 88.6364 168.783 88.6364 168.783 88.6364C168.783 88.6364 168.783 88.6527 168.783 88.6852V90.6354C168.783 90.6679 168.783 90.6842 168.783 90.6842C168.783 90.6842 168.767 90.6842 168.734 90.6842H166.784C166.751 90.6842 166.735 90.6842 166.735 90.6842C166.735 90.6842 166.735 90.6679 166.735 90.6354V88.6852C166.735 88.6527 166.735 88.6364 166.735 88.6364C166.735 88.6364 166.751 88.6364 166.784 88.6364ZM171.66 88.6364H173.61C173.642 88.6364 173.659 88.6364 173.659 88.6364C173.659 88.6364 173.659 88.6527 173.659 88.6852V90.6354C173.659 90.6679 173.659 90.6842 173.659 90.6842C173.659 90.6842 173.642 90.6842 173.61 90.6842H171.66C171.627 90.6842 171.611 90.6842 171.611 90.6842C171.611 90.6842 171.611 90.6679 171.611 90.6354V88.6852C171.611 88.6527 171.611 88.6364 171.611 88.6364C171.611 88.6364 171.627 88.6364 171.66 88.6364ZM176.535 88.6364H178.485C178.518 88.6364 178.534 88.6364 178.534 88.6364C178.534 88.6364 178.534 88.6527 178.534 88.6852V90.6354C178.534 90.6679 178.534 90.6842 178.534 90.6842C178.534 90.6842 178.518 90.6842 178.485 90.6842H176.535C176.503 90.6842 176.486 90.6842 176.486 90.6842C176.486 90.6842 176.486 90.6679 176.486 90.6354V88.6852C176.486 88.6527 176.486 88.6364 176.486 88.6364C176.486 88.6364 176.503 88.6364 176.535 88.6364ZM161.908 93.512H163.859C163.891 93.512 163.907 93.512 163.907 93.512C163.907 93.512 163.907 93.5283 163.907 93.5608V95.511C163.907 95.5435 163.907 95.5598 163.907 95.5598C163.907 95.5598 163.891 95.5598 163.859 95.5598H161.908C161.876 95.5598 161.86 95.5598 161.86 95.5598C161.86 95.5598 161.86 95.5435 161.86 95.511V93.5608C161.86 93.5283 161.86 93.512 161.86 93.512C161.86 93.512 161.876 93.512 161.908 93.512ZM181.411 93.512H183.361C183.393 93.512 183.41 93.512 183.41 93.512C183.41 93.512 183.41 93.5283 183.41 93.5608V95.511C183.41 95.5435 183.41 95.5598 183.41 95.5598C183.41 95.5598 183.393 95.5598 183.361 95.5598H181.411C181.378 95.5598 181.362 95.5598 181.362 95.5598C181.362 95.5598 181.362 95.5435 181.362 95.511V93.5608C181.362 93.5283 181.362 93.512 181.362 93.512C181.362 93.512 181.378 93.512 181.411 93.512ZM161.908 98.3876H163.859C163.891 98.3876 163.907 98.3876 163.907 98.3876C163.907 98.3876 163.907 98.4039 163.907 98.4364V100.387C163.907 100.419 163.907 100.435 163.907 100.435C163.907 100.435 163.891 100.435 163.859 100.435H161.908C161.876 100.435 161.86 100.435 161.86 100.435C161.86 100.435 161.86 100.419 161.86 100.387V98.4364C161.86 98.4039 161.86 98.3876 161.86 98.3876C161.86 98.3876 161.876 98.3876 161.908 98.3876ZM166.784 103.263H168.734C168.767 103.263 168.783 103.263 168.783 103.263C168.783 103.263 168.783 103.279 168.783 103.312V105.262C168.783 105.295 168.783 105.311 168.783 105.311C168.783 105.311 168.767 105.311 168.734 105.311H166.784C166.751 105.311 166.735 105.311 166.735 105.311C166.735 105.311 166.735 105.295 166.735 105.262V103.312C166.735 103.279 166.735 103.263 166.735 103.263C166.735 103.263 166.751 103.263 166.784 103.263ZM171.66 103.263H173.61C173.642 103.263 173.659 103.263 173.659 103.263C173.659 103.263 173.659 103.279 173.659 103.312V105.262C173.659 105.295 173.659 105.311 173.659 105.311C173.659 105.311 173.642 105.311 173.61 105.311H171.66C171.627 105.311 171.611 105.311 171.611 105.311C171.611 105.311 171.611 105.295 171.611 105.262V103.312C171.611 103.279 171.611 103.263 171.611 103.263C171.611 103.263 171.627 103.263 171.66 103.263ZM176.535 103.263H178.485C178.518 103.263 178.534 103.263 178.534 103.263C178.534 103.263 178.534 103.279 178.534 103.312V105.262C178.534 105.295 178.534 105.311 178.534 105.311C178.534 105.311 178.518 105.311 178.485 105.311H176.535C176.503 105.311 176.486 105.311 176.486 105.311C176.486 105.311 176.486 105.295 176.486 105.262V103.312C176.486 103.279 176.486 103.263 176.486 103.263C176.486 103.263 176.503 103.263 176.535 103.263ZM181.411 108.139H183.361C183.393 108.139 183.41 108.139 183.41 108.139C183.41 108.139 183.41 108.155 183.41 108.188V110.138C183.41 110.17 183.41 110.186 183.41 110.186C183.41 110.186 183.393 110.186 183.361 110.186H181.411C181.378 110.186 181.362 110.186 181.362 110.186C181.362 110.186 181.362 110.17 181.362 110.138V108.188C181.362 108.155 181.362 108.139 181.362 108.139C181.362 108.139 181.378 108.139 181.411 108.139ZM161.908 113.014H163.859C163.891 113.014 163.907 113.014 163.907 113.014C163.907 113.014 163.907 113.031 163.907 113.063V115.013C163.907 115.046 163.907 115.062 163.907 115.062C163.907 115.062 163.891 115.062 163.859 115.062H161.908C161.876 115.062 161.86 115.062 161.86 115.062C161.86 115.062 161.86 115.046 161.86 115.013V113.063C161.86 113.031 161.86 113.014 161.86 113.014C161.86 113.014 161.876 113.014 161.908 113.014ZM181.411 113.014H183.361C183.393 113.014 183.41 113.014 183.41 113.014C183.41 113.014 183.41 113.031 183.41 113.063V115.013C183.41 115.046 183.41 115.062 183.41 115.062C183.41 115.062 183.393 115.062 183.361 115.062H181.411C181.378 115.062 181.362 115.062 181.362 115.062C181.362 115.062 181.362 115.046 181.362 115.013V113.063C181.362 113.031 181.362 113.014 181.362 113.014C181.362 113.014 181.378 113.014 181.411 113.014ZM166.784 117.89H168.734C168.767 117.89 168.783 117.89 168.783 117.89C168.783 117.89 168.783 117.906 168.783 117.939V119.889C168.783 119.921 168.783 119.938 168.783 119.938C168.783 119.938 168.767 119.938 168.734 119.938H166.784C166.751 119.938 166.735 119.938 166.735 119.938C166.735 119.938 166.735 119.921 166.735 119.889V117.939C166.735 117.906 166.735 117.89 166.735 117.89C166.735 117.89 166.751 117.89 166.784 117.89ZM171.66 117.89H173.61C173.642 117.89 173.659 117.89 173.659 117.89C173.659 117.89 173.659 117.906 173.659 117.939V119.889C173.659 119.921 173.659 119.938 173.659 119.938C173.659 119.938 173.642 119.938 173.61 119.938H171.66C171.627 119.938 171.611 119.938 171.611 119.938C171.611 119.938 171.611 119.921 171.611 119.889V117.939C171.611 117.906 171.611 117.89 171.611 117.89C171.611 117.89 171.627 117.89 171.66 117.89ZM176.535 117.89H178.485C178.518 117.89 178.534 117.89 178.534 117.89C178.534 117.89 178.534 117.906 178.534 117.939V119.889C178.534 119.921 178.534 119.938 178.534 119.938C178.534 119.938 178.518 119.938 178.485 119.938H176.535C176.503 119.938 176.486 119.938 176.486 119.938C176.486 119.938 176.486 119.921 176.486 119.889V117.939C176.486 117.906 176.486 117.89 176.486 117.89C176.486 117.89 176.503 117.89 176.535 117.89ZM192.118 88.6364H194.068C194.101 88.6364 194.117 88.6364 194.117 88.6364C194.117 88.6364 194.117 88.6527 194.117 88.6852V90.6354C194.117 90.6679 194.117 90.6842 194.117 90.6842C194.117 90.6842 194.101 90.6842 194.068 90.6842H192.118C192.085 90.6842 192.069 90.6842 192.069 90.6842C192.069 90.6842 192.069 90.6679 192.069 90.6354V88.6852C192.069 88.6527 192.069 88.6364 192.069 88.6364C192.069 88.6364 192.085 88.6364 192.118 88.6364ZM196.993 88.6364H198.944C198.976 88.6364 198.992 88.6364 198.992 88.6364C198.992 88.6364 198.992 88.6527 198.992 88.6852V90.6354C198.992 90.6679 198.992 90.6842 198.992 90.6842C198.992 90.6842 198.976 90.6842 198.944 90.6842H196.993C196.961 90.6842 196.945 90.6842 196.945 90.6842C196.945 90.6842 196.945 90.6679 196.945 90.6354V88.6852C196.945 88.6527 196.945 88.6364 196.945 88.6364C196.945 88.6364 196.961 88.6364 196.993 88.6364ZM201.869 88.6364H203.819C203.852 88.6364 203.868 88.6364 203.868 88.6364C203.868 88.6364 203.868 88.6527 203.868 88.6852V90.6354C203.868 90.6679 203.868 90.6842 203.868 90.6842C203.868 90.6842 203.852 90.6842 203.819 90.6842H201.869C201.837 90.6842 201.82 90.6842 201.82 90.6842C201.82 90.6842 201.82 90.6679 201.82 90.6354V88.6852C201.82 88.6527 201.82 88.6364 201.82 88.6364C201.82 88.6364 201.837 88.6364 201.869 88.6364ZM206.745 88.6364H208.695C208.727 88.6364 208.744 88.6364 208.744 88.6364C208.744 88.6364 208.744 88.6527 208.744 88.6852V90.6354C208.744 90.6679 208.744 90.6842 208.744 90.6842C208.744 90.6842 208.727 90.6842 208.695 90.6842H206.745C206.712 90.6842 206.696 90.6842 206.696 90.6842C206.696 90.6842 206.696 90.6679 206.696 90.6354V88.6852C206.696 88.6527 206.696 88.6364 206.696 88.6364C206.696 88.6364 206.712 88.6364 206.745 88.6364ZM211.62 88.6364H213.57C213.603 88.6364 213.619 88.6364 213.619 88.6364C213.619 88.6364 213.619 88.6527 213.619 88.6852V90.6354C213.619 90.6679 213.619 90.6842 213.619 90.6842C213.619 90.6842 213.603 90.6842 213.57 90.6842H211.62C211.588 90.6842 211.571 90.6842 211.571 90.6842C211.571 90.6842 211.571 90.6679 211.571 90.6354V88.6852C211.571 88.6527 211.571 88.6364 211.571 88.6364C211.571 88.6364 211.588 88.6364 211.62 88.6364ZM192.118 93.512H194.068C194.101 93.512 194.117 93.512 194.117 93.512C194.117 93.512 194.117 93.5283 194.117 93.5608V95.511C194.117 95.5435 194.117 95.5598 194.117 95.5598C194.117 95.5598 194.101 95.5598 194.068 95.5598H192.118C192.085 95.5598 192.069 95.5598 192.069 95.5598C192.069 95.5598 192.069 95.5435 192.069 95.511V93.5608C192.069 93.5283 192.069 93.512 192.069 93.512C192.069 93.512 192.085 93.512 192.118 93.512ZM192.118 98.3876H194.068C194.101 98.3876 194.117 98.3876 194.117 98.3876C194.117 98.3876 194.117 98.4039 194.117 98.4364V100.387C194.117 100.419 194.117 100.435 194.117 100.435C194.117 100.435 194.101 100.435 194.068 100.435H192.118C192.085 100.435 192.069 100.435 192.069 100.435C192.069 100.435 192.069 100.419 192.069 100.387V98.4364C192.069 98.4039 192.069 98.3876 192.069 98.3876C192.069 98.3876 192.085 98.3876 192.118 98.3876ZM192.118 103.263H194.068C194.101 103.263 194.117 103.263 194.117 103.263C194.117 103.263 194.117 103.279 194.117 103.312V105.262C194.117 105.295 194.117 105.311 194.117 105.311C194.117 105.311 194.101 105.311 194.068 105.311H192.118C192.085 105.311 192.069 105.311 192.069 105.311C192.069 105.311 192.069 105.295 192.069 105.262V103.312C192.069 103.279 192.069 103.263 192.069 103.263C192.069 103.263 192.085 103.263 192.118 103.263ZM196.993 103.263H198.944C198.976 103.263 198.992 103.263 198.992 103.263C198.992 103.263 198.992 103.279 198.992 103.312V105.262C198.992 105.295 198.992 105.311 198.992 105.311C198.992 105.311 198.976 105.311 198.944 105.311H196.993C196.961 105.311 196.945 105.311 196.945 105.311C196.945 105.311 196.945 105.295 196.945 105.262V103.312C196.945 103.279 196.945 103.263 196.945 103.263C196.945 103.263 196.961 103.263 196.993 103.263ZM201.869 103.263H203.819C203.852 103.263 203.868 103.263 203.868 103.263C203.868 103.263 203.868 103.279 203.868 103.312V105.262C203.868 105.295 203.868 105.311 203.868 105.311C203.868 105.311 203.852 105.311 203.819 105.311H201.869C201.837 105.311 201.82 105.311 201.82 105.311C201.82 105.311 201.82 105.295 201.82 105.262V103.312C201.82 103.279 201.82 103.263 201.82 103.263C201.82 103.263 201.837 103.263 201.869 103.263ZM206.745 103.263H208.695C208.727 103.263 208.744 103.263 208.744 103.263C208.744 103.263 208.744 103.279 208.744 103.312V105.262C208.744 105.295 208.744 105.311 208.744 105.311C208.744 105.311 208.727 105.311 208.695 105.311H206.745C206.712 105.311 206.696 105.311 206.696 105.311C206.696 105.311 206.696 105.295 206.696 105.262V103.312C206.696 103.279 206.696 103.263 206.696 103.263C206.696 103.263 206.712 103.263 206.745 103.263ZM192.118 108.139H194.068C194.101 108.139 194.117 108.139 194.117 108.139C194.117 108.139 194.117 108.155 194.117 108.188V110.138C194.117 110.17 194.117 110.186 194.117 110.186C194.117 110.186 194.101 110.186 194.068 110.186H192.118C192.085 110.186 192.069 110.186 192.069 110.186C192.069 110.186 192.069 110.17 192.069 110.138V108.188C192.069 108.155 192.069 108.139 192.069 108.139C192.069 108.139 192.085 108.139 192.118 108.139ZM192.118 113.014H194.068C194.101 113.014 194.117 113.014 194.117 113.014C194.117 113.014 194.117 113.031 194.117 113.063V115.013C194.117 115.046 194.117 115.062 194.117 115.062C194.117 115.062 194.101 115.062 194.068 115.062H192.118C192.085 115.062 192.069 115.062 192.069 115.062C192.069 115.062 192.069 115.046 192.069 115.013V113.063C192.069 113.031 192.069 113.014 192.069 113.014C192.069 113.014 192.085 113.014 192.118 113.014ZM192.118 117.89H194.068C194.101 117.89 194.117 117.89 194.117 117.89C194.117 117.89 194.117 117.906 194.117 117.939V119.889C194.117 119.921 194.117 119.938 194.117 119.938C194.117 119.938 194.101 119.938 194.068 119.938H192.118C192.085 119.938 192.069 119.938 192.069 119.938C192.069 119.938 192.069 119.921 192.069 119.889V117.939C192.069 117.906 192.069 117.89 192.069 117.89C192.069 117.89 192.085 117.89 192.118 117.89ZM196.993 117.89H198.944C198.976 117.89 198.992 117.89 198.992 117.89C198.992 117.89 198.992 117.906 198.992 117.939V119.889C198.992 119.921 198.992 119.938 198.992 119.938C198.992 119.938 198.976 119.938 198.944 119.938H196.993C196.961 119.938 196.945 119.938 196.945 119.938C196.945 119.938 196.945 119.921 196.945 119.889V117.939C196.945 117.906 196.945 117.89 196.945 117.89C196.945 117.89 196.961 117.89 196.993 117.89ZM201.869 117.89H203.819C203.852 117.89 203.868 117.89 203.868 117.89C203.868 117.89 203.868 117.906 203.868 117.939V119.889C203.868 119.921 203.868 119.938 203.868 119.938C203.868 119.938 203.852 119.938 203.819 119.938H201.869C201.837 119.938 201.82 119.938 201.82 119.938C201.82 119.938 201.82 119.921 201.82 119.889V117.939C201.82 117.906 201.82 117.89 201.82 117.89C201.82 117.89 201.837 117.89 201.869 117.89ZM206.745 117.89H208.695C208.727 117.89 208.744 117.89 208.744 117.89C208.744 117.89 208.744 117.906 208.744 117.939V119.889C208.744 119.921 208.744 119.938 208.744 119.938C208.744 119.938 208.727 119.938 208.695 119.938H206.745C206.712 119.938 206.696 119.938 206.696 119.938C206.696 119.938 206.696 119.921 206.696 119.889V117.939C206.696 117.906 206.696 117.89 206.696 117.89C206.696 117.89 206.712 117.89 206.745 117.89ZM211.62 117.89H213.57C213.603 117.89 213.619 117.89 213.619 117.89C213.619 117.89 213.619 117.906 213.619 117.939V119.889C213.619 119.921 213.619 119.938 213.619 119.938C213.619 119.938 213.603 119.938 213.57 119.938H211.62C211.588 119.938 211.571 119.938 211.571 119.938C211.571 119.938 211.571 119.921 211.571 119.889V117.939C211.571 117.906 211.571 117.89 211.571 117.89C211.571 117.89 211.588 117.89 211.62 117.89ZM106.365 133.636H108.315C108.348 133.636 108.364 133.636 108.364 133.636C108.364 133.636 108.364 133.653 108.364 133.685V135.635C108.364 135.668 108.364 135.684 108.364 135.684C108.364 135.684 108.348 135.684 108.315 135.684H106.365C106.332 135.684 106.316 135.684 106.316 135.684C106.316 135.684 106.316 135.668 106.316 135.635V133.685C106.316 133.653 106.316 133.636 106.316 133.636C106.316 133.636 106.332 133.636 106.365 133.636ZM111.24 133.636H113.191C113.223 133.636 113.239 133.636 113.239 133.636C113.239 133.636 113.239 133.653 113.239 133.685V135.635C113.239 135.668 113.239 135.684 113.239 135.684C113.239 135.684 113.223 135.684 113.191 135.684H111.24C111.208 135.684 111.192 135.684 111.192 135.684C111.192 135.684 111.192 135.668 111.192 135.635V133.685C111.192 133.653 111.192 133.636 111.192 133.636C111.192 133.636 111.208 133.636 111.24 133.636ZM116.116 133.636H118.066C118.099 133.636 118.115 133.636 118.115 133.636C118.115 133.636 118.115 133.653 118.115 133.685V135.635C118.115 135.668 118.115 135.684 118.115 135.684C118.115 135.684 118.099 135.684 118.066 135.684H116.116C116.084 135.684 116.067 135.684 116.067 135.684C116.067 135.684 116.067 135.668 116.067 135.635V133.685C116.067 133.653 116.067 133.636 116.067 133.636C116.067 133.636 116.084 133.636 116.116 133.636ZM101.489 138.512H103.44C103.472 138.512 103.488 138.512 103.488 138.512C103.488 138.512 103.488 138.528 103.488 138.561V140.511C103.488 140.544 103.488 140.56 103.488 140.56C103.488 140.56 103.472 140.56 103.44 140.56H101.489C101.457 140.56 101.441 140.56 101.441 140.56C101.441 140.56 101.441 140.544 101.441 140.511V138.561C101.441 138.528 101.441 138.512 101.441 138.512C101.441 138.512 101.457 138.512 101.489 138.512ZM120.992 138.512H122.942C122.974 138.512 122.991 138.512 122.991 138.512C122.991 138.512 122.991 138.528 122.991 138.561V140.511C122.991 140.544 122.991 140.56 122.991 140.56C122.991 140.56 122.974 140.56 122.942 140.56H120.992C120.959 140.56 120.943 140.56 120.943 140.56C120.943 140.56 120.943 140.544 120.943 140.511V138.561C120.943 138.528 120.943 138.512 120.943 138.512C120.943 138.512 120.959 138.512 120.992 138.512ZM120.992 143.388H122.942C122.974 143.388 122.991 143.388 122.991 143.388C122.991 143.388 122.991 143.404 122.991 143.436V145.387C122.991 145.419 122.991 145.435 122.991 145.435C122.991 145.435 122.974 145.435 122.942 145.435H120.992C120.959 145.435 120.943 145.435 120.943 145.435C120.943 145.435 120.943 145.419 120.943 145.387V143.436C120.943 143.404 120.943 143.388 120.943 143.388C120.943 143.388 120.959 143.388 120.992 143.388ZM111.24 148.263H113.191C113.223 148.263 113.239 148.263 113.239 148.263C113.239 148.263 113.239 148.279 113.239 148.312V150.262C113.239 150.295 113.239 150.311 113.239 150.311C113.239 150.311 113.223 150.311 113.191 150.311H111.24C111.208 150.311 111.192 150.311 111.192 150.311C111.192 150.311 111.192 150.295 111.192 150.262V148.312C111.192 148.279 111.192 148.263 111.192 148.263C111.192 148.263 111.208 148.263 111.24 148.263ZM116.116 148.263H118.066C118.099 148.263 118.115 148.263 118.115 148.263C118.115 148.263 118.115 148.279 118.115 148.312V150.262C118.115 150.295 118.115 150.311 118.115 150.311C118.115 150.311 118.099 150.311 118.066 150.311H116.116C116.084 150.311 116.067 150.311 116.067 150.311C116.067 150.311 116.067 150.295 116.067 150.262V148.312C116.067 148.279 116.067 148.263 116.067 148.263C116.067 148.263 116.084 148.263 116.116 148.263ZM106.365 153.139H108.315C108.348 153.139 108.364 153.139 108.364 153.139C108.364 153.139 108.364 153.155 108.364 153.188V155.138C108.364 155.17 108.364 155.186 108.364 155.186C108.364 155.186 108.348 155.186 108.315 155.186H106.365C106.332 155.186 106.316 155.186 106.316 155.186C106.316 155.186 106.316 155.17 106.316 155.138V153.188C106.316 153.155 106.316 153.139 106.316 153.139C106.316 153.139 106.332 153.139 106.365 153.139ZM101.489 158.014H103.44C103.472 158.014 103.488 158.014 103.488 158.014C103.488 158.014 103.488 158.031 103.488 158.063V160.013C103.488 160.046 103.488 160.062 103.488 160.062C103.488 160.062 103.472 160.062 103.44 160.062H101.489C101.457 160.062 101.441 160.062 101.441 160.062C101.441 160.062 101.441 160.046 101.441 160.013V158.063C101.441 158.031 101.441 158.014 101.441 158.014C101.441 158.014 101.457 158.014 101.489 158.014ZM101.489 162.89H103.44C103.472 162.89 103.488 162.89 103.488 162.89C103.488 162.89 103.488 162.906 103.488 162.939V164.889C103.488 164.921 103.488 164.938 103.488 164.938C103.488 164.938 103.472 164.938 103.44 164.938H101.489C101.457 164.938 101.441 164.938 101.441 164.938C101.441 164.938 101.441 164.921 101.441 164.889V162.939C101.441 162.906 101.441 162.89 101.441 162.89C101.441 162.89 101.457 162.89 101.489 162.89ZM106.365 162.89H108.315C108.348 162.89 108.364 162.89 108.364 162.89C108.364 162.89 108.364 162.906 108.364 162.939V164.889C108.364 164.921 108.364 164.938 108.364 164.938C108.364 164.938 108.348 164.938 108.315 164.938H106.365C106.332 164.938 106.316 164.938 106.316 164.938C106.316 164.938 106.316 164.921 106.316 164.889V162.939C106.316 162.906 106.316 162.89 106.316 162.89C106.316 162.89 106.332 162.89 106.365 162.89ZM111.24 162.89H113.191C113.223 162.89 113.239 162.89 113.239 162.89C113.239 162.89 113.239 162.906 113.239 162.939V164.889C113.239 164.921 113.239 164.938 113.239 164.938C113.239 164.938 113.223 164.938 113.191 164.938H111.24C111.208 164.938 111.192 164.938 111.192 164.938C111.192 164.938 111.192 164.921 111.192 164.889V162.939C111.192 162.906 111.192 162.89 111.192 162.89C111.192 162.89 111.208 162.89 111.24 162.89ZM116.116 162.89H118.066C118.099 162.89 118.115 162.89 118.115 162.89C118.115 162.89 118.115 162.906 118.115 162.939V164.889C118.115 164.921 118.115 164.938 118.115 164.938C118.115 164.938 118.099 164.938 118.066 164.938H116.116C116.084 164.938 116.067 164.938 116.067 164.938C116.067 164.938 116.067 164.921 116.067 164.889V162.939C116.067 162.906 116.067 162.89 116.067 162.89C116.067 162.89 116.084 162.89 116.116 162.89ZM120.992 162.89H122.942C122.974 162.89 122.991 162.89 122.991 162.89C122.991 162.89 122.991 162.906 122.991 162.939V164.889C122.991 164.921 122.991 164.938 122.991 164.938C122.991 164.938 122.974 164.938 122.942 164.938H120.992C120.959 164.938 120.943 164.938 120.943 164.938C120.943 164.938 120.943 164.921 120.943 164.889V162.939C120.943 162.906 120.943 162.89 120.943 162.89C120.943 162.89 120.959 162.89 120.992 162.89ZM141.45 133.636H143.4C143.433 133.636 143.449 133.636 143.449 133.636C143.449 133.636 143.449 133.653 143.449 133.685V135.635C143.449 135.668 143.449 135.684 143.449 135.684C143.449 135.684 143.433 135.684 143.4 135.684H141.45C141.418 135.684 141.401 135.684 141.401 135.684C141.401 135.684 141.401 135.668 141.401 135.635V133.685C141.401 133.653 141.401 133.636 141.401 133.636C141.401 133.636 141.418 133.636 141.45 133.636ZM136.574 138.512H138.525C138.557 138.512 138.573 138.512 138.573 138.512C138.573 138.512 138.573 138.528 138.573 138.561V140.511C138.573 140.544 138.573 140.56 138.573 140.56C138.573 140.56 138.557 140.56 138.525 140.56H136.574C136.542 140.56 136.526 140.56 136.526 140.56C136.526 140.56 136.526 140.544 136.526 140.511V138.561C136.526 138.528 136.526 138.512 136.526 138.512C136.526 138.512 136.542 138.512 136.574 138.512ZM146.326 138.512H148.276C148.308 138.512 148.325 138.512 148.325 138.512C148.325 138.512 148.325 138.528 148.325 138.561V140.511C148.325 140.544 148.325 140.56 148.325 140.56C148.325 140.56 148.308 140.56 148.276 140.56H146.326C146.293 140.56 146.277 140.56 146.277 140.56C146.277 140.56 146.277 140.544 146.277 140.511V138.561C146.277 138.528 146.277 138.512 146.277 138.512C146.277 138.512 146.293 138.512 146.326 138.512ZM131.699 143.388H133.649C133.682 143.388 133.698 143.388 133.698 143.388C133.698 143.388 133.698 143.404 133.698 143.436V145.387C133.698 145.419 133.698 145.435 133.698 145.435C133.698 145.435 133.682 145.435 133.649 145.435H131.699C131.666 145.435 131.65 145.435 131.65 145.435C131.65 145.435 131.65 145.419 131.65 145.387V143.436C131.65 143.404 131.65 143.388 131.65 143.388C131.65 143.388 131.666 143.388 131.699 143.388ZM151.201 143.388H153.151C153.184 143.388 153.2 143.388 153.2 143.388C153.2 143.388 153.2 143.404 153.2 143.436V145.387C153.2 145.419 153.2 145.435 153.2 145.435C153.2 145.435 153.184 145.435 153.151 145.435H151.201C151.169 145.435 151.152 145.435 151.152 145.435C151.152 145.435 151.152 145.419 151.152 145.387V143.436C151.152 143.404 151.152 143.388 151.152 143.388C151.152 143.388 151.169 143.388 151.201 143.388ZM131.699 148.263H133.649C133.682 148.263 133.698 148.263 133.698 148.263C133.698 148.263 133.698 148.279 133.698 148.312V150.262C133.698 150.295 133.698 150.311 133.698 150.311C133.698 150.311 133.682 150.311 133.649 150.311H131.699C131.666 150.311 131.65 150.311 131.65 150.311C131.65 150.311 131.65 150.295 131.65 150.262V148.312C131.65 148.279 131.65 148.263 131.65 148.263C131.65 148.263 131.666 148.263 131.699 148.263ZM151.201 148.263H153.151C153.184 148.263 153.2 148.263 153.2 148.263C153.2 148.263 153.2 148.279 153.2 148.312V150.262C153.2 150.295 153.2 150.311 153.2 150.311C153.2 150.311 153.184 150.311 153.151 150.311H151.201C151.169 150.311 151.152 150.311 151.152 150.311C151.152 150.311 151.152 150.295 151.152 150.262V148.312C151.152 148.279 151.152 148.263 151.152 148.263C151.152 148.263 151.169 148.263 151.201 148.263ZM131.699 153.139H133.649C133.682 153.139 133.698 153.139 133.698 153.139C133.698 153.139 133.698 153.155 133.698 153.188V155.138C133.698 155.17 133.698 155.186 133.698 155.186C133.698 155.186 133.682 155.186 133.649 155.186H131.699C131.666 155.186 131.65 155.186 131.65 155.186C131.65 155.186 131.65 155.17 131.65 155.138V153.188C131.65 153.155 131.65 153.139 131.65 153.139C131.65 153.139 131.666 153.139 131.699 153.139ZM151.201 153.139H153.151C153.184 153.139 153.2 153.139 153.2 153.139C153.2 153.139 153.2 153.155 153.2 153.188V155.138C153.2 155.17 153.2 155.186 153.2 155.186C153.2 155.186 153.184 155.186 153.151 155.186H151.201C151.169 155.186 151.152 155.186 151.152 155.186C151.152 155.186 151.152 155.17 151.152 155.138V153.188C151.152 153.155 151.152 153.139 151.152 153.139C151.152 153.139 151.169 153.139 151.201 153.139ZM136.574 158.014H138.525C138.557 158.014 138.573 158.014 138.573 158.014C138.573 158.014 138.573 158.031 138.573 158.063V160.013C138.573 160.046 138.573 160.062 138.573 160.062C138.573 160.062 138.557 160.062 138.525 160.062H136.574C136.542 160.062 136.526 160.062 136.526 160.062C136.526 160.062 136.526 160.046 136.526 160.013V158.063C136.526 158.031 136.526 158.014 136.526 158.014C136.526 158.014 136.542 158.014 136.574 158.014ZM146.326 158.014H148.276C148.308 158.014 148.325 158.014 148.325 158.014C148.325 158.014 148.325 158.031 148.325 158.063V160.013C148.325 160.046 148.325 160.062 148.325 160.062C148.325 160.062 148.308 160.062 148.276 160.062H146.326C146.293 160.062 146.277 160.062 146.277 160.062C146.277 160.062 146.277 160.046 146.277 160.013V158.063C146.277 158.031 146.277 158.014 146.277 158.014C146.277 158.014 146.293 158.014 146.326 158.014ZM141.45 162.89H143.4C143.433 162.89 143.449 162.89 143.449 162.89C143.449 162.89 143.449 162.906 143.449 162.939V164.889C143.449 164.921 143.449 164.938 143.449 164.938C143.449 164.938 143.433 164.938 143.4 164.938H141.45C141.418 164.938 141.401 164.938 141.401 164.938C141.401 164.938 141.401 164.921 141.401 164.889V162.939C141.401 162.906 141.401 162.89 141.401 162.89C141.401 162.89 141.418 162.89 141.45 162.89ZM166.784 133.636H168.734C168.767 133.636 168.783 133.636 168.783 133.636C168.783 133.636 168.783 133.653 168.783 133.685V135.635C168.783 135.668 168.783 135.684 168.783 135.684C168.783 135.684 168.767 135.684 168.734 135.684H166.784C166.751 135.684 166.735 135.684 166.735 135.684C166.735 135.684 166.735 135.668 166.735 135.635V133.685C166.735 133.653 166.735 133.636 166.735 133.636C166.735 133.636 166.751 133.636 166.784 133.636ZM171.66 133.636H173.61C173.642 133.636 173.659 133.636 173.659 133.636C173.659 133.636 173.659 133.653 173.659 133.685V135.635C173.659 135.668 173.659 135.684 173.659 135.684C173.659 135.684 173.642 135.684 173.61 135.684H171.66C171.627 135.684 171.611 135.684 171.611 135.684C171.611 135.684 171.611 135.668 171.611 135.635V133.685C171.611 133.653 171.611 133.636 171.611 133.636C171.611 133.636 171.627 133.636 171.66 133.636ZM176.535 133.636H178.485C178.518 133.636 178.534 133.636 178.534 133.636C178.534 133.636 178.534 133.653 178.534 133.685V135.635C178.534 135.668 178.534 135.684 178.534 135.684C178.534 135.684 178.518 135.684 178.485 135.684H176.535C176.503 135.684 176.486 135.684 176.486 135.684C176.486 135.684 176.486 135.668 176.486 135.635V133.685C176.486 133.653 176.486 133.636 176.486 133.636C176.486 133.636 176.503 133.636 176.535 133.636ZM161.908 138.512H163.859C163.891 138.512 163.907 138.512 163.907 138.512C163.907 138.512 163.907 138.528 163.907 138.561V140.511C163.907 140.544 163.907 140.56 163.907 140.56C163.907 140.56 163.891 140.56 163.859 140.56H161.908C161.876 140.56 161.86 140.56 161.86 140.56C161.86 140.56 161.86 140.544 161.86 140.511V138.561C161.86 138.528 161.86 138.512 161.86 138.512C161.86 138.512 161.876 138.512 161.908 138.512ZM181.411 138.512H183.361C183.393 138.512 183.41 138.512 183.41 138.512C183.41 138.512 183.41 138.528 183.41 138.561V140.511C183.41 140.544 183.41 140.56 183.41 140.56C183.41 140.56 183.393 140.56 183.361 140.56H181.411C181.378 140.56 181.362 140.56 181.362 140.56C181.362 140.56 181.362 140.544 181.362 140.511V138.561C181.362 138.528 181.362 138.512 181.362 138.512C181.362 138.512 181.378 138.512 181.411 138.512ZM181.411 143.388H183.361C183.393 143.388 183.41 143.388 183.41 143.388C183.41 143.388 183.41 143.404 183.41 143.436V145.387C183.41 145.419 183.41 145.435 183.41 145.435C183.41 145.435 183.393 145.435 183.361 145.435H181.411C181.378 145.435 181.362 145.435 181.362 145.435C181.362 145.435 181.362 145.419 181.362 145.387V143.436C181.362 143.404 181.362 143.388 181.362 143.388C181.362 143.388 181.378 143.388 181.411 143.388ZM171.66 148.263H173.61C173.642 148.263 173.659 148.263 173.659 148.263C173.659 148.263 173.659 148.279 173.659 148.312V150.262C173.659 150.295 173.659 150.311 173.659 150.311C173.659 150.311 173.642 150.311 173.61 150.311H171.66C171.627 150.311 171.611 150.311 171.611 150.311C171.611 150.311 171.611 150.295 171.611 150.262V148.312C171.611 148.279 171.611 148.263 171.611 148.263C171.611 148.263 171.627 148.263 171.66 148.263ZM176.535 148.263H178.485C178.518 148.263 178.534 148.263 178.534 148.263C178.534 148.263 178.534 148.279 178.534 148.312V150.262C178.534 150.295 178.534 150.311 178.534 150.311C178.534 150.311 178.518 150.311 178.485 150.311H176.535C176.503 150.311 176.486 150.311 176.486 150.311C176.486 150.311 176.486 150.295 176.486 150.262V148.312C176.486 148.279 176.486 148.263 176.486 148.263C176.486 148.263 176.503 148.263 176.535 148.263ZM166.784 153.139H168.734C168.767 153.139 168.783 153.139 168.783 153.139C168.783 153.139 168.783 153.155 168.783 153.188V155.138C168.783 155.17 168.783 155.186 168.783 155.186C168.783 155.186 168.767 155.186 168.734 155.186H166.784C166.751 155.186 166.735 155.186 166.735 155.186C166.735 155.186 166.735 155.17 166.735 155.138V153.188C166.735 153.155 166.735 153.139 166.735 153.139C166.735 153.139 166.751 153.139 166.784 153.139ZM161.908 158.014H163.859C163.891 158.014 163.907 158.014 163.907 158.014C163.907 158.014 163.907 158.031 163.907 158.063V160.013C163.907 160.046 163.907 160.062 163.907 160.062C163.907 160.062 163.891 160.062 163.859 160.062H161.908C161.876 160.062 161.86 160.062 161.86 160.062C161.86 160.062 161.86 160.046 161.86 160.013V158.063C161.86 158.031 161.86 158.014 161.86 158.014C161.86 158.014 161.876 158.014 161.908 158.014ZM161.908 162.89H163.859C163.891 162.89 163.907 162.89 163.907 162.89C163.907 162.89 163.907 162.906 163.907 162.939V164.889C163.907 164.921 163.907 164.938 163.907 164.938C163.907 164.938 163.891 164.938 163.859 164.938H161.908C161.876 164.938 161.86 164.938 161.86 164.938C161.86 164.938 161.86 164.921 161.86 164.889V162.939C161.86 162.906 161.86 162.89 161.86 162.89C161.86 162.89 161.876 162.89 161.908 162.89ZM166.784 162.89H168.734C168.767 162.89 168.783 162.89 168.783 162.89C168.783 162.89 168.783 162.906 168.783 162.939V164.889C168.783 164.921 168.783 164.938 168.783 164.938C168.783 164.938 168.767 164.938 168.734 164.938H166.784C166.751 164.938 166.735 164.938 166.735 164.938C166.735 164.938 166.735 164.921 166.735 164.889V162.939C166.735 162.906 166.735 162.89 166.735 162.89C166.735 162.89 166.751 162.89 166.784 162.89ZM171.66 162.89H173.61C173.642 162.89 173.659 162.89 173.659 162.89C173.659 162.89 173.659 162.906 173.659 162.939V164.889C173.659 164.921 173.659 164.938 173.659 164.938C173.659 164.938 173.642 164.938 173.61 164.938H171.66C171.627 164.938 171.611 164.938 171.611 164.938C171.611 164.938 171.611 164.921 171.611 164.889V162.939C171.611 162.906 171.611 162.89 171.611 162.89C171.611 162.89 171.627 162.89 171.66 162.89ZM176.535 162.89H178.485C178.518 162.89 178.534 162.89 178.534 162.89C178.534 162.89 178.534 162.906 178.534 162.939V164.889C178.534 164.921 178.534 164.938 178.534 164.938C178.534 164.938 178.518 164.938 178.485 164.938H176.535C176.503 164.938 176.486 164.938 176.486 164.938C176.486 164.938 176.486 164.921 176.486 164.889V162.939C176.486 162.906 176.486 162.89 176.486 162.89C176.486 162.89 176.503 162.89 176.535 162.89ZM181.411 162.89H183.361C183.393 162.89 183.41 162.89 183.41 162.89C183.41 162.89 183.41 162.906 183.41 162.939V164.889C183.41 164.921 183.41 164.938 183.41 164.938C183.41 164.938 183.393 164.938 183.361 164.938H181.411C181.378 164.938 181.362 164.938 181.362 164.938C181.362 164.938 181.362 164.921 181.362 164.889V162.939C181.362 162.906 181.362 162.89 181.362 162.89C181.362 162.89 181.378 162.89 181.411 162.89ZM201.869 133.636H203.819C203.852 133.636 203.868 133.636 203.868 133.636C203.868 133.636 203.868 133.653 203.868 133.685V135.635C203.868 135.668 203.868 135.684 203.868 135.684C203.868 135.684 203.852 135.684 203.819 135.684H201.869C201.837 135.684 201.82 135.684 201.82 135.684C201.82 135.684 201.82 135.668 201.82 135.635V133.685C201.82 133.653 201.82 133.636 201.82 133.636C201.82 133.636 201.837 133.636 201.869 133.636ZM206.745 133.636H208.695C208.727 133.636 208.744 133.636 208.744 133.636C208.744 133.636 208.744 133.653 208.744 133.685V135.635C208.744 135.668 208.744 135.684 208.744 135.684C208.744 135.684 208.727 135.684 208.695 135.684H206.745C206.712 135.684 206.696 135.684 206.696 135.684C206.696 135.684 206.696 135.668 206.696 135.635V133.685C206.696 133.653 206.696 133.636 206.696 133.636C206.696 133.636 206.712 133.636 206.745 133.636ZM196.993 138.512H198.944C198.976 138.512 198.992 138.512 198.992 138.512C198.992 138.512 198.992 138.528 198.992 138.561V140.511C198.992 140.544 198.992 140.56 198.992 140.56C198.992 140.56 198.976 140.56 198.944 140.56H196.993C196.961 140.56 196.945 140.56 196.945 140.56C196.945 140.56 196.945 140.544 196.945 140.511V138.561C196.945 138.528 196.945 138.512 196.945 138.512C196.945 138.512 196.961 138.512 196.993 138.512ZM192.118 143.388H194.068C194.101 143.388 194.117 143.388 194.117 143.388C194.117 143.388 194.117 143.404 194.117 143.436V145.387C194.117 145.419 194.117 145.435 194.117 145.435C194.117 145.435 194.101 145.435 194.068 145.435H192.118C192.085 145.435 192.069 145.435 192.069 145.435C192.069 145.435 192.069 145.419 192.069 145.387V143.436C192.069 143.404 192.069 143.388 192.069 143.388C192.069 143.388 192.085 143.388 192.118 143.388ZM192.118 148.263H194.068C194.101 148.263 194.117 148.263 194.117 148.263C194.117 148.263 194.117 148.279 194.117 148.312V150.262C194.117 150.295 194.117 150.311 194.117 150.311C194.117 150.311 194.101 150.311 194.068 150.311H192.118C192.085 150.311 192.069 150.311 192.069 150.311C192.069 150.311 192.069 150.295 192.069 150.262V148.312C192.069 148.279 192.069 148.263 192.069 148.263C192.069 148.263 192.085 148.263 192.118 148.263ZM201.869 148.263H203.819C203.852 148.263 203.868 148.263 203.868 148.263C203.868 148.263 203.868 148.279 203.868 148.312V150.262C203.868 150.295 203.868 150.311 203.868 150.311C203.868 150.311 203.852 150.311 203.819 150.311H201.869C201.837 150.311 201.82 150.311 201.82 150.311C201.82 150.311 201.82 150.295 201.82 150.262V148.312C201.82 148.279 201.82 148.263 201.82 148.263C201.82 148.263 201.837 148.263 201.869 148.263ZM206.745 148.263H208.695C208.727 148.263 208.744 148.263 208.744 148.263C208.744 148.263 208.744 148.279 208.744 148.312V150.262C208.744 150.295 208.744 150.311 208.744 150.311C208.744 150.311 208.727 150.311 208.695 150.311H206.745C206.712 150.311 206.696 150.311 206.696 150.311C206.696 150.311 206.696 150.295 206.696 150.262V148.312C206.696 148.279 206.696 148.263 206.696 148.263C206.696 148.263 206.712 148.263 206.745 148.263ZM192.118 153.139H194.068C194.101 153.139 194.117 153.139 194.117 153.139C194.117 153.139 194.117 153.155 194.117 153.188V155.138C194.117 155.17 194.117 155.186 194.117 155.186C194.117 155.186 194.101 155.186 194.068 155.186H192.118C192.085 155.186 192.069 155.186 192.069 155.186C192.069 155.186 192.069 155.17 192.069 155.138V153.188C192.069 153.155 192.069 153.139 192.069 153.139C192.069 153.139 192.085 153.139 192.118 153.139ZM196.993 153.139H198.944C198.976 153.139 198.992 153.139 198.992 153.139C198.992 153.139 198.992 153.155 198.992 153.188V155.138C198.992 155.17 198.992 155.186 198.992 155.186C198.992 155.186 198.976 155.186 198.944 155.186H196.993C196.961 155.186 196.945 155.186 196.945 155.186C196.945 155.186 196.945 155.17 196.945 155.138V153.188C196.945 153.155 196.945 153.139 196.945 153.139C196.945 153.139 196.961 153.139 196.993 153.139ZM211.62 153.139H213.57C213.603 153.139 213.619 153.139 213.619 153.139C213.619 153.139 213.619 153.155 213.619 153.188V155.138C213.619 155.17 213.619 155.186 213.619 155.186C213.619 155.186 213.603 155.186 213.57 155.186H211.62C211.588 155.186 211.571 155.186 211.571 155.186C211.571 155.186 211.571 155.17 211.571 155.138V153.188C211.571 153.155 211.571 153.139 211.571 153.139C211.571 153.139 211.588 153.139 211.62 153.139ZM192.118 158.014H194.068C194.101 158.014 194.117 158.014 194.117 158.014C194.117 158.014 194.117 158.031 194.117 158.063V160.013C194.117 160.046 194.117 160.062 194.117 160.062C194.117 160.062 194.101 160.062 194.068 160.062H192.118C192.085 160.062 192.069 160.062 192.069 160.062C192.069 160.062 192.069 160.046 192.069 160.013V158.063C192.069 158.031 192.069 158.014 192.069 158.014C192.069 158.014 192.085 158.014 192.118 158.014ZM211.62 158.014H213.57C213.603 158.014 213.619 158.014 213.619 158.014C213.619 158.014 213.619 158.031 213.619 158.063V160.013C213.619 160.046 213.619 160.062 213.619 160.062C213.619 160.062 213.603 160.062 213.57 160.062H211.62C211.588 160.062 211.571 160.062 211.571 160.062C211.571 160.062 211.571 160.046 211.571 160.013V158.063C211.571 158.031 211.571 158.014 211.571 158.014C211.571 158.014 211.588 158.014 211.62 158.014ZM196.993 162.89H198.944C198.976 162.89 198.992 162.89 198.992 162.89C198.992 162.89 198.992 162.906 198.992 162.939V164.889C198.992 164.921 198.992 164.938 198.992 164.938C198.992 164.938 198.976 164.938 198.944 164.938H196.993C196.961 164.938 196.945 164.938 196.945 164.938C196.945 164.938 196.945 164.921 196.945 164.889V162.939C196.945 162.906 196.945 162.89 196.945 162.89C196.945 162.89 196.961 162.89 196.993 162.89ZM201.869 162.89H203.819C203.852 162.89 203.868 162.89 203.868 162.89C203.868 162.89 203.868 162.906 203.868 162.939V164.889C203.868 164.921 203.868 164.938 203.868 164.938C203.868 164.938 203.852 164.938 203.819 164.938H201.869C201.837 164.938 201.82 164.938 201.82 164.938C201.82 164.938 201.82 164.921 201.82 164.889V162.939C201.82 162.906 201.82 162.89 201.82 162.89C201.82 162.89 201.837 162.89 201.869 162.89ZM206.745 162.89H208.695C208.727 162.89 208.744 162.89 208.744 162.89C208.744 162.89 208.744 162.906 208.744 162.939V164.889C208.744 164.921 208.744 164.938 208.744 164.938C208.744 164.938 208.727 164.938 208.695 164.938H206.745C206.712 164.938 206.696 164.938 206.696 164.938C206.696 164.938 206.696 164.921 206.696 164.889V162.939C206.696 162.906 206.696 162.89 206.696 162.89C206.696 162.89 206.712 162.89 206.745 162.89Z" fill="#717886"/>
<path d="M38.9519 136.567C33.1658 136.567 28.7833 132.299 28.7833 126.256C28.7833 120.212 33.1658 115.944 38.9519 115.944C44.738 115.944 49.1205 120.212 49.1205 126.256C49.1205 132.299 44.738 136.567 38.9519 136.567ZM38.9519 132.385C42.2173 132.385 44.3943 129.779 44.3943 126.256C44.3943 122.732 42.2173 120.126 38.9519 120.126C35.6865 120.126 33.5096 122.732 33.5096 126.256C33.5096 129.779 35.6865 132.385 38.9519 132.385ZM51.6757 136.138V116.373H59.2663L63.9067 131.497H64.5368V116.373H68.7475V136.138H61.1855L56.5452 121.014H55.915V136.138H51.6757ZM81.4715 136.567C75.714 136.567 71.3029 132.328 71.3029 126.256C71.3029 120.212 75.7427 115.944 81.5001 115.944C86.4269 115.944 90.3225 119.037 91.2964 123.678H86.5701C85.7681 121.472 83.8776 120.126 81.4715 120.126C78.2347 120.126 76.0291 122.675 76.0291 126.256C76.0291 129.807 78.2061 132.385 81.4715 132.385C83.8489 132.385 85.7394 131.096 86.5128 129.005H91.2964C90.3511 133.531 86.4555 136.567 81.4715 136.567ZM93.5798 136.138V116.373H98.1915V124.05H106.269V116.373H110.852V136.138H106.269V128.117H98.1915V136.138H93.5798ZM112.458 136.138L118.902 116.373H125.405L131.706 136.138H127.037L125.863 132.128H118.215L116.983 136.138H112.458ZM119.332 128.404H124.746L122.397 120.441H121.767L119.332 128.404ZM133.358 136.138V116.373H137.97V136.138H133.358ZM141.513 136.138V116.373H149.103L153.744 131.497H154.374V116.373H158.585V136.138H151.022L146.382 121.014H145.752V136.138H141.513ZM174.859 136.567C170.162 136.567 166.925 134.104 166.352 130.266H171.021C171.537 131.956 173.055 132.586 174.859 132.586C176.607 132.586 177.81 131.727 177.81 130.552C177.81 129.206 176.778 128.69 174.258 128.175L172.625 127.831C169.446 127.201 166.868 125.539 166.868 122.102C166.868 118.608 169.847 115.944 174.458 115.944C178.841 115.944 181.619 118.292 182.335 121.959H177.752C177.323 120.555 176.148 119.839 174.458 119.839C172.711 119.839 171.537 120.641 171.537 121.816C171.537 123.047 172.654 123.477 174.802 123.935L176.406 124.279C179.843 124.995 182.564 126.571 182.564 130.208C182.564 133.903 179.614 136.567 174.859 136.567ZM193.218 136.567C188.091 136.567 184.825 133.531 184.825 128.232V116.373H189.408V127.974C189.408 130.438 190.583 132.385 193.189 132.385C195.739 132.385 196.942 130.438 196.942 127.974V116.373H201.525V128.232C201.525 133.531 198.317 136.567 193.218 136.567ZM204.873 136.138V116.373H212.693L215.7 131.497H216.273L219.281 116.373H226.872V136.138H222.718V121.014H222.088L218.909 136.138H212.807L209.657 121.014H209.026V136.138H204.873ZM230.427 136.138V116.373H238.246L241.254 131.497H241.827L244.835 116.373H252.425V136.138H248.272V121.014H247.642L244.462 136.138H238.361L235.21 121.014H234.58V136.138H230.427ZM255.98 136.138V116.373H270.99V120.412H260.42V124.021H269.386V127.917H260.42V132.099H271.276V136.138H255.98ZM273.925 136.138V116.373H283.636C287.531 116.373 289.823 118.235 289.823 121.644C289.823 123.878 288.706 125.568 286.643 126.198V126.771C288.591 127.143 289.593 128.203 289.651 130.266L289.851 136.138H285.24L285.125 131.01C285.068 129.263 284.266 128.518 282.576 128.518H278.451V136.138H273.925ZM278.365 124.737H282.805C284.323 124.737 285.211 123.907 285.211 122.532C285.211 121.214 284.323 120.355 282.805 120.355H278.365V124.737Z" fill="white"/>
</svg>
