<svg width="320" height="253" viewBox="0 0 320 253" fill="none" xmlns="http://www.w3.org/2000/svg">
<rect y="0.450195" width="320" height="252" rx="8" fill="#FAFAFA"/>
<path d="M44.4813 100.156L44.4813 101.128C44.4813 101.141 44.4813 101.148 44.4813 101.148C44.4813 101.148 44.4748 101.148 44.4618 101.148L43.4896 101.148C43.4766 101.148 43.4701 101.148 43.4701 101.148C43.4701 101.148 43.4701 101.141 43.4701 101.128L43.4701 100.156C43.4701 100.143 43.4701 100.137 43.4701 100.137C43.4701 100.137 43.4766 100.137 43.4896 100.137L44.4618 100.137C44.4748 100.137 44.4813 100.137 44.4813 100.137C44.4813 100.137 44.4813 100.143 44.4813 100.156ZM44.4813 102.101L44.4813 103.073C44.4813 103.086 44.4813 103.092 44.4813 103.092C44.4813 103.092 44.4748 103.092 44.4618 103.092L43.4896 103.092C43.4766 103.092 43.4701 103.092 43.4701 103.092C43.4701 103.092 43.4701 103.086 43.4701 103.073L43.4701 102.101C43.4701 102.088 43.4701 102.081 43.4701 102.081C43.4701 102.081 43.4766 102.081 43.4896 102.081L44.4618 102.081C44.4748 102.081 44.4813 102.081 44.4813 102.081C44.4813 102.081 44.4813 102.088 44.4813 102.101ZM44.4813 104.045L44.4813 105.018C44.4813 105.03 44.4813 105.037 44.4813 105.037C44.4813 105.037 44.4748 105.037 44.4618 105.037L43.4896 105.037C43.4766 105.037 43.4701 105.037 43.4701 105.037C43.4701 105.037 43.4701 105.03 43.4701 105.018L43.4701 104.045C43.4701 104.032 43.4701 104.026 43.4701 104.026C43.4701 104.026 43.4766 104.026 43.4896 104.026L44.4618 104.026C44.4748 104.026 44.4813 104.026 44.4813 104.026C44.4813 104.026 44.4813 104.032 44.4813 104.045ZM44.4813 105.99L44.4813 106.962C44.4813 106.975 44.4813 106.982 44.4813 106.982C44.4813 106.982 44.4748 106.982 44.4618 106.982L43.4896 106.982C43.4766 106.982 43.4701 106.982 43.4701 106.982C43.4701 106.982 43.4701 106.975 43.4701 106.962L43.4701 105.99C43.4701 105.977 43.4701 105.97 43.4701 105.97C43.4701 105.97 43.4766 105.97 43.4896 105.97L44.4618 105.97C44.4748 105.97 44.4813 105.97 44.4813 105.97C44.4813 105.97 44.4813 105.977 44.4813 105.99ZM42.5367 102.101L42.5367 103.073C42.5367 103.086 42.5367 103.092 42.5367 103.092C42.5367 103.092 42.5302 103.092 42.5173 103.092L41.545 103.092C41.532 103.092 41.5255 103.092 41.5255 103.092C41.5255 103.092 41.5255 103.086 41.5255 103.073L41.5255 102.101C41.5255 102.088 41.5255 102.081 41.5255 102.081C41.5255 102.081 41.532 102.081 41.545 102.081L42.5173 102.081C42.5302 102.081 42.5367 102.081 42.5367 102.081C42.5367 102.081 42.5367 102.088 42.5367 102.101ZM42.5367 107.934L42.5367 108.907C42.5367 108.92 42.5367 108.926 42.5367 108.926C42.5367 108.926 42.5302 108.926 42.5173 108.926L41.545 108.926C41.532 108.926 41.5255 108.926 41.5255 108.926C41.5255 108.926 41.5255 108.92 41.5255 108.907L41.5255 107.934C41.5255 107.921 41.5255 107.915 41.5255 107.915C41.5255 107.915 41.532 107.915 41.545 107.915L42.5173 107.915C42.5302 107.915 42.5367 107.915 42.5367 107.915C42.5367 107.915 42.5367 107.921 42.5367 107.934ZM40.5921 102.101L40.5921 103.073C40.5921 103.086 40.5921 103.092 40.5921 103.092C40.5921 103.092 40.5856 103.092 40.5727 103.092L39.6004 103.092C39.5874 103.092 39.581 103.092 39.581 103.092C39.581 103.092 39.581 103.086 39.581 103.073L39.581 102.101C39.581 102.088 39.581 102.081 39.581 102.081C39.581 102.081 39.5874 102.081 39.6004 102.081L40.5727 102.081C40.5856 102.081 40.5921 102.081 40.5921 102.081C40.5921 102.081 40.5921 102.088 40.5921 102.101ZM40.5921 107.934L40.5921 108.907C40.5921 108.92 40.5921 108.926 40.5921 108.926C40.5921 108.926 40.5856 108.926 40.5727 108.926L39.6004 108.926C39.5874 108.926 39.5809 108.926 39.5809 108.926C39.5809 108.926 39.5809 108.92 39.5809 108.907L39.5809 107.934C39.5809 107.921 39.5809 107.915 39.5809 107.915C39.5809 107.915 39.5874 107.915 39.6004 107.915L40.5727 107.915C40.5856 107.915 40.5921 107.915 40.5921 107.915C40.5921 107.915 40.5921 107.921 40.5921 107.934ZM38.6476 102.101L38.6476 103.073C38.6476 103.086 38.6476 103.092 38.6476 103.092C38.6476 103.092 38.6411 103.092 38.6281 103.092L37.6558 103.092C37.6429 103.092 37.6364 103.092 37.6364 103.092C37.6364 103.092 37.6364 103.086 37.6364 103.073L37.6364 102.101C37.6364 102.088 37.6364 102.081 37.6364 102.081C37.6364 102.081 37.6429 102.081 37.6558 102.081L38.6281 102.081C38.6411 102.081 38.6476 102.081 38.6476 102.081C38.6476 102.081 38.6476 102.088 38.6476 102.101ZM38.6476 107.934L38.6476 108.907C38.6476 108.92 38.6476 108.926 38.6476 108.926C38.6476 108.926 38.6411 108.926 38.6281 108.926L37.6558 108.926C37.6429 108.926 37.6364 108.926 37.6364 108.926C37.6364 108.926 37.6364 108.92 37.6364 108.907L37.6364 107.934C37.6364 107.921 37.6364 107.915 37.6364 107.915C37.6364 107.915 37.6429 107.915 37.6558 107.915L38.6281 107.915C38.6411 107.915 38.6476 107.915 38.6476 107.915C38.6476 107.915 38.6476 107.921 38.6476 107.934ZM36.703 102.101L36.703 103.073C36.703 103.086 36.703 103.092 36.703 103.092C36.703 103.092 36.6965 103.092 36.6835 103.092L35.7112 103.092C35.6983 103.092 35.6918 103.092 35.6918 103.092C35.6918 103.092 35.6918 103.086 35.6918 103.073L35.6918 102.101C35.6918 102.088 35.6918 102.081 35.6918 102.081C35.6918 102.081 35.6983 102.081 35.7112 102.081L36.6835 102.081C36.6965 102.081 36.703 102.081 36.703 102.081C36.703 102.081 36.703 102.088 36.703 102.101ZM36.703 107.934L36.703 108.907C36.703 108.92 36.703 108.926 36.703 108.926C36.703 108.926 36.6965 108.926 36.6835 108.926L35.7112 108.926C35.6983 108.926 35.6918 108.926 35.6918 108.926C35.6918 108.926 35.6918 108.92 35.6918 108.907L35.6918 107.934C35.6918 107.921 35.6918 107.915 35.6918 107.915C35.6918 107.915 35.6983 107.915 35.7112 107.915L36.6835 107.915C36.6965 107.915 36.703 107.915 36.703 107.915C36.703 107.915 36.703 107.921 36.703 107.934ZM34.7584 102.101L34.7584 103.073C34.7584 103.086 34.7584 103.092 34.7584 103.092C34.7584 103.092 34.7519 103.092 34.7389 103.092L33.7667 103.092C33.7537 103.092 33.7472 103.092 33.7472 103.092C33.7472 103.092 33.7472 103.086 33.7472 103.073L33.7472 102.101C33.7472 102.088 33.7472 102.081 33.7472 102.081C33.7472 102.081 33.7537 102.081 33.7667 102.081L34.7389 102.081C34.7519 102.081 34.7584 102.081 34.7584 102.081C34.7584 102.081 34.7584 102.088 34.7584 102.101ZM34.7584 107.934L34.7584 108.907C34.7584 108.92 34.7584 108.926 34.7584 108.926C34.7584 108.926 34.7519 108.926 34.7389 108.926L33.7667 108.926C33.7537 108.926 33.7472 108.926 33.7472 108.926C33.7472 108.926 33.7472 108.92 33.7472 108.907L33.7472 107.934C33.7472 107.921 33.7472 107.915 33.7472 107.915C33.7472 107.915 33.7537 107.915 33.7667 107.915L34.7389 107.915C34.7519 107.915 34.7584 107.915 34.7584 107.915C34.7584 107.915 34.7584 107.921 34.7584 107.934ZM32.8138 100.156L32.8138 101.128C32.8138 101.141 32.8138 101.148 32.8138 101.148C32.8138 101.148 32.8073 101.148 32.7944 101.148L31.8221 101.148C31.8091 101.148 31.8026 101.148 31.8026 101.148C31.8026 101.148 31.8026 101.141 31.8026 101.128L31.8026 100.156C31.8026 100.143 31.8026 100.137 31.8026 100.137C31.8026 100.137 31.8091 100.137 31.8221 100.137L32.7944 100.137C32.8073 100.137 32.8138 100.137 32.8138 100.137C32.8138 100.137 32.8138 100.143 32.8138 100.156ZM32.8138 102.101L32.8138 103.073C32.8138 103.086 32.8138 103.092 32.8138 103.092C32.8138 103.092 32.8073 103.092 32.7944 103.092L31.8221 103.092C31.8091 103.092 31.8026 103.092 31.8026 103.092C31.8026 103.092 31.8026 103.086 31.8026 103.073L31.8026 102.101C31.8026 102.088 31.8026 102.081 31.8026 102.081C31.8026 102.081 31.8091 102.081 31.8221 102.081L32.7944 102.081C32.8073 102.081 32.8138 102.081 32.8138 102.081C32.8138 102.081 32.8138 102.088 32.8138 102.101ZM32.8138 104.045L32.8138 105.018C32.8138 105.03 32.8138 105.037 32.8138 105.037C32.8138 105.037 32.8073 105.037 32.7944 105.037L31.8221 105.037C31.8091 105.037 31.8026 105.037 31.8026 105.037C31.8026 105.037 31.8026 105.03 31.8026 105.018L31.8026 104.045C31.8026 104.032 31.8026 104.026 31.8026 104.026C31.8026 104.026 31.8091 104.026 31.8221 104.026L32.7944 104.026C32.8073 104.026 32.8138 104.026 32.8138 104.026C32.8138 104.026 32.8138 104.032 32.8138 104.045ZM32.8138 105.99L32.8138 106.962C32.8138 106.975 32.8138 106.982 32.8138 106.982C32.8138 106.982 32.8073 106.982 32.7944 106.982L31.8221 106.982C31.8091 106.982 31.8026 106.982 31.8026 106.982C31.8026 106.982 31.8026 106.975 31.8026 106.962L31.8026 105.99C31.8026 105.977 31.8026 105.97 31.8026 105.97C31.8026 105.97 31.8091 105.97 31.8221 105.97L32.7944 105.97C32.8073 105.97 32.8138 105.97 32.8138 105.97C32.8138 105.97 32.8138 105.977 32.8138 105.99ZM44.4813 115.9L44.4813 116.872C44.4813 116.885 44.4813 116.891 44.4813 116.891C44.4813 116.891 44.4748 116.891 44.4618 116.891L43.4896 116.891C43.4766 116.891 43.4701 116.891 43.4701 116.891C43.4701 116.891 43.4701 116.885 43.4701 116.872L43.4701 115.9C43.4701 115.887 43.4701 115.88 43.4701 115.88C43.4701 115.88 43.4766 115.88 43.4896 115.88L44.4618 115.88C44.4748 115.88 44.4813 115.88 44.4813 115.88C44.4813 115.88 44.4813 115.887 44.4813 115.9ZM42.5367 113.955L42.5367 114.927C42.5367 114.94 42.5367 114.947 42.5367 114.947C42.5367 114.947 42.5302 114.947 42.5173 114.947L41.545 114.947C41.532 114.947 41.5255 114.947 41.5255 114.947C41.5255 114.947 41.5255 114.94 41.5255 114.927L41.5255 113.955C41.5255 113.942 41.5255 113.936 41.5255 113.936C41.5255 113.936 41.532 113.936 41.545 113.936L42.5173 113.936C42.5302 113.936 42.5367 113.936 42.5367 113.936C42.5367 113.936 42.5367 113.942 42.5367 113.955ZM42.5367 117.844L42.5367 118.816C42.5367 118.829 42.5367 118.836 42.5367 118.836C42.5367 118.836 42.5302 118.836 42.5173 118.836L41.545 118.836C41.532 118.836 41.5255 118.836 41.5255 118.836C41.5255 118.836 41.5255 118.829 41.5255 118.816L41.5255 117.844C41.5255 117.831 41.5255 117.825 41.5255 117.825C41.5255 117.825 41.532 117.825 41.545 117.825L42.5173 117.825C42.5302 117.825 42.5367 117.825 42.5367 117.825C42.5367 117.825 42.5367 117.831 42.5367 117.844ZM40.5921 112.01L40.5921 112.983C40.5921 112.996 40.5921 113.002 40.5921 113.002C40.5921 113.002 40.5856 113.002 40.5727 113.002L39.6004 113.002C39.5874 113.002 39.5809 113.002 39.5809 113.002C39.5809 113.002 39.5809 112.996 39.5809 112.983L39.5809 112.01C39.5809 111.997 39.5809 111.991 39.5809 111.991C39.5809 111.991 39.5874 111.991 39.6004 111.991L40.5727 111.991C40.5856 111.991 40.5921 111.991 40.5921 111.991C40.5921 111.991 40.5921 111.997 40.5921 112.01ZM40.5921 119.789L40.5921 120.761C40.5921 120.774 40.5921 120.78 40.5921 120.78C40.5921 120.78 40.5856 120.78 40.5727 120.78L39.6004 120.78C39.5874 120.78 39.5809 120.78 39.5809 120.78C39.5809 120.78 39.5809 120.774 39.5809 120.761L39.5809 119.789C39.5809 119.776 39.5809 119.769 39.5809 119.769C39.5809 119.769 39.5874 119.769 39.6004 119.769L40.5727 119.769C40.5856 119.769 40.5921 119.769 40.5921 119.769C40.5921 119.769 40.5921 119.776 40.5921 119.789ZM38.6476 112.01L38.6476 112.983C38.6476 112.996 38.6476 113.002 38.6476 113.002C38.6476 113.002 38.6411 113.002 38.6281 113.002L37.6558 113.002C37.6429 113.002 37.6364 113.002 37.6364 113.002C37.6364 113.002 37.6364 112.996 37.6364 112.983L37.6364 112.01C37.6364 111.997 37.6364 111.991 37.6364 111.991C37.6364 111.991 37.6429 111.991 37.6558 111.991L38.6281 111.991C38.6411 111.991 38.6476 111.991 38.6476 111.991C38.6476 111.991 38.6476 111.997 38.6476 112.01ZM38.6476 119.789L38.6476 120.761C38.6476 120.774 38.6476 120.78 38.6476 120.78C38.6476 120.78 38.6411 120.78 38.6281 120.78L37.6558 120.78C37.6429 120.78 37.6364 120.78 37.6364 120.78C37.6364 120.78 37.6364 120.774 37.6364 120.761L37.6364 119.789C37.6364 119.776 37.6364 119.769 37.6364 119.769C37.6364 119.769 37.6429 119.769 37.6558 119.769L38.6281 119.769C38.6411 119.769 38.6476 119.769 38.6476 119.769C38.6476 119.769 38.6476 119.776 38.6476 119.789ZM36.703 112.01L36.703 112.983C36.703 112.996 36.703 113.002 36.703 113.002C36.703 113.002 36.6965 113.002 36.6835 113.002L35.7112 113.002C35.6983 113.002 35.6918 113.002 35.6918 113.002C35.6918 113.002 35.6918 112.996 35.6918 112.983L35.6918 112.01C35.6918 111.997 35.6918 111.991 35.6918 111.991C35.6918 111.991 35.6983 111.991 35.7112 111.991L36.6835 111.991C36.6965 111.991 36.703 111.991 36.703 111.991C36.703 111.991 36.703 111.997 36.703 112.01ZM36.703 113.955L36.703 114.927C36.703 114.94 36.703 114.947 36.703 114.947C36.703 114.947 36.6965 114.947 36.6835 114.947L35.7112 114.947C35.6983 114.947 35.6918 114.947 35.6918 114.947C35.6918 114.947 35.6918 114.94 35.6918 114.927L35.6918 113.955C35.6918 113.942 35.6918 113.936 35.6918 113.936C35.6918 113.936 35.6983 113.936 35.7112 113.936L36.6835 113.936C36.6965 113.936 36.703 113.936 36.703 113.936C36.703 113.936 36.703 113.942 36.703 113.955ZM36.703 115.9L36.703 116.872C36.703 116.885 36.703 116.891 36.703 116.891C36.703 116.891 36.6965 116.891 36.6835 116.891L35.7112 116.891C35.6983 116.891 35.6918 116.891 35.6918 116.891C35.6918 116.891 35.6918 116.885 35.6918 116.872L35.6918 115.9C35.6918 115.887 35.6918 115.88 35.6918 115.88C35.6918 115.88 35.6983 115.88 35.7112 115.88L36.6835 115.88C36.6965 115.88 36.703 115.88 36.703 115.88C36.703 115.88 36.703 115.887 36.703 115.9ZM36.703 117.844L36.703 118.816C36.703 118.829 36.703 118.836 36.703 118.836C36.703 118.836 36.6965 118.836 36.6835 118.836L35.7112 118.836C35.6983 118.836 35.6918 118.836 35.6918 118.836C35.6918 118.836 35.6918 118.829 35.6918 118.816L35.6918 117.844C35.6918 117.831 35.6918 117.825 35.6918 117.825C35.6918 117.825 35.6983 117.825 35.7112 117.825L36.6835 117.825C36.6965 117.825 36.703 117.825 36.703 117.825C36.703 117.825 36.703 117.831 36.703 117.844ZM36.703 119.789L36.703 120.761C36.703 120.774 36.703 120.78 36.703 120.78C36.703 120.78 36.6965 120.78 36.6835 120.78L35.7112 120.78C35.6983 120.78 35.6918 120.78 35.6918 120.78C35.6918 120.78 35.6918 120.774 35.6918 120.761L35.6918 119.789C35.6918 119.776 35.6918 119.769 35.6918 119.769C35.6918 119.769 35.6983 119.769 35.7112 119.769L36.6835 119.769C36.6965 119.769 36.703 119.769 36.703 119.769C36.703 119.769 36.703 119.776 36.703 119.789ZM34.7584 112.01L34.7584 112.983C34.7584 112.996 34.7584 113.002 34.7584 113.002C34.7584 113.002 34.7519 113.002 34.7389 113.002L33.7667 113.002C33.7537 113.002 33.7472 113.002 33.7472 113.002C33.7472 113.002 33.7472 112.996 33.7472 112.983L33.7472 112.01C33.7472 111.997 33.7472 111.991 33.7472 111.991C33.7472 111.991 33.7537 111.991 33.7667 111.991L34.7389 111.991C34.7519 111.991 34.7584 111.991 34.7584 111.991C34.7584 111.991 34.7584 111.997 34.7584 112.01ZM34.7584 119.789L34.7584 120.761C34.7584 120.774 34.7584 120.78 34.7584 120.78C34.7584 120.78 34.7519 120.78 34.7389 120.78L33.7667 120.78C33.7537 120.78 33.7472 120.78 33.7472 120.78C33.7472 120.78 33.7472 120.774 33.7472 120.761L33.7472 119.789C33.7472 119.776 33.7472 119.769 33.7472 119.769C33.7472 119.769 33.7537 119.769 33.7667 119.769L34.7389 119.769C34.7519 119.769 34.7584 119.769 34.7584 119.769C34.7584 119.769 34.7584 119.776 34.7584 119.789ZM32.8138 112.01L32.8138 112.983C32.8138 112.996 32.8138 113.002 32.8138 113.002C32.8138 113.002 32.8073 113.002 32.7944 113.002L31.8221 113.002C31.8091 113.002 31.8026 113.002 31.8026 113.002C31.8026 113.002 31.8026 112.996 31.8026 112.983L31.8026 112.01C31.8026 111.997 31.8026 111.991 31.8026 111.991C31.8026 111.991 31.8091 111.991 31.8221 111.991L32.7944 111.991C32.8073 111.991 32.8138 111.991 32.8138 111.991C32.8138 111.991 32.8138 111.997 32.8138 112.01ZM32.8138 119.789L32.8138 120.761C32.8138 120.774 32.8138 120.78 32.8138 120.78C32.8138 120.78 32.8073 120.78 32.7944 120.78L31.8221 120.78C31.8091 120.78 31.8026 120.78 31.8026 120.78C31.8026 120.78 31.8026 120.774 31.8026 120.761L31.8026 119.789C31.8026 119.776 31.8026 119.769 31.8026 119.769C31.8026 119.769 31.8091 119.769 31.8221 119.769L32.7944 119.769C32.8073 119.769 32.8138 119.769 32.8138 119.769C32.8138 119.769 32.8138 119.776 32.8138 119.789ZM44.4813 123.865L44.4813 124.837C44.4813 124.85 44.4813 124.856 44.4813 124.856C44.4813 124.856 44.4748 124.856 44.4618 124.856L43.4896 124.856C43.4766 124.856 43.4701 124.856 43.4701 124.856C43.4701 124.856 43.4701 124.85 43.4701 124.837L43.4701 123.865C43.4701 123.852 43.4701 123.845 43.4701 123.845C43.4701 123.845 43.4766 123.845 43.4896 123.845L44.4618 123.845C44.4748 123.845 44.4813 123.845 44.4813 123.845C44.4813 123.845 44.4813 123.852 44.4813 123.865ZM44.4813 125.809L44.4813 126.782C44.4813 126.795 44.4813 126.801 44.4813 126.801C44.4813 126.801 44.4748 126.801 44.4618 126.801L43.4896 126.801C43.4766 126.801 43.4701 126.801 43.4701 126.801C43.4701 126.801 43.4701 126.795 43.4701 126.782L43.4701 125.809C43.4701 125.796 43.4701 125.79 43.4701 125.79C43.4701 125.79 43.4766 125.79 43.4896 125.79L44.4618 125.79C44.4748 125.79 44.4813 125.79 44.4813 125.79C44.4813 125.79 44.4813 125.796 44.4813 125.809ZM44.4813 127.754L44.4813 128.726C44.4813 128.739 44.4813 128.746 44.4813 128.746C44.4813 128.746 44.4748 128.746 44.4618 128.746L43.4896 128.746C43.4766 128.746 43.4701 128.746 43.4701 128.746C43.4701 128.746 43.4701 128.739 43.4701 128.726L43.4701 127.754C43.4701 127.741 43.4701 127.734 43.4701 127.734C43.4701 127.734 43.4766 127.734 43.4896 127.734L44.4618 127.734C44.4748 127.734 44.4813 127.734 44.4813 127.734C44.4813 127.734 44.4813 127.741 44.4813 127.754ZM44.4813 129.698L44.4813 130.671C44.4813 130.684 44.4813 130.69 44.4813 130.69C44.4813 130.69 44.4748 130.69 44.4618 130.69L43.4896 130.69C43.4766 130.69 43.4701 130.69 43.4701 130.69C43.4701 130.69 43.4701 130.684 43.4701 130.671L43.4701 129.698C43.4701 129.686 43.4701 129.679 43.4701 129.679C43.4701 129.679 43.4766 129.679 43.4896 129.679L44.4618 129.679C44.4748 129.679 44.4813 129.679 44.4813 129.679C44.4813 129.679 44.4813 129.686 44.4813 129.698ZM44.4813 131.643L44.4813 132.615C44.4813 132.628 44.4813 132.635 44.4813 132.635C44.4813 132.635 44.4748 132.635 44.4618 132.635L43.4896 132.635C43.4766 132.635 43.4701 132.635 43.4701 132.635C43.4701 132.635 43.4701 132.628 43.4701 132.615L43.4701 131.643C43.4701 131.63 43.4701 131.624 43.4701 131.624C43.4701 131.624 43.4766 131.624 43.4896 131.624L44.4618 131.624C44.4748 131.624 44.4813 131.624 44.4813 131.624C44.4813 131.624 44.4813 131.63 44.4813 131.643ZM42.5367 127.754L42.5367 128.726C42.5367 128.739 42.5367 128.746 42.5367 128.746C42.5367 128.746 42.5302 128.746 42.5173 128.746L41.545 128.746C41.532 128.746 41.5255 128.746 41.5255 128.746C41.5255 128.746 41.5255 128.739 41.5255 128.726L41.5255 127.754C41.5255 127.741 41.5255 127.734 41.5255 127.734C41.5255 127.734 41.532 127.734 41.545 127.734L42.5173 127.734C42.5302 127.734 42.5367 127.734 42.5367 127.734C42.5367 127.734 42.5367 127.741 42.5367 127.754ZM40.5921 127.754L40.5921 128.726C40.5921 128.739 40.5921 128.746 40.5921 128.746C40.5921 128.746 40.5856 128.746 40.5727 128.746L39.6004 128.746C39.5874 128.746 39.5809 128.746 39.5809 128.746C39.5809 128.746 39.5809 128.739 39.5809 128.726L39.5809 127.754C39.5809 127.741 39.5809 127.734 39.5809 127.734C39.5809 127.734 39.5874 127.734 39.6004 127.734L40.5727 127.734C40.5856 127.734 40.5921 127.734 40.5921 127.734C40.5921 127.734 40.5921 127.741 40.5921 127.754ZM38.6476 127.754L38.6476 128.726C38.6476 128.739 38.6476 128.746 38.6476 128.746C38.6476 128.746 38.6411 128.746 38.6281 128.746L37.6558 128.746C37.6429 128.746 37.6364 128.746 37.6364 128.746C37.6364 128.746 37.6364 128.739 37.6364 128.726L37.6364 127.754C37.6364 127.741 37.6364 127.734 37.6364 127.734C37.6364 127.734 37.6429 127.734 37.6558 127.734L38.6281 127.734C38.6411 127.734 38.6476 127.734 38.6476 127.734C38.6476 127.734 38.6476 127.741 38.6476 127.754ZM36.703 127.754L36.703 128.726C36.703 128.739 36.703 128.746 36.703 128.746C36.703 128.746 36.6965 128.746 36.6835 128.746L35.7112 128.746C35.6983 128.746 35.6918 128.746 35.6918 128.746C35.6918 128.746 35.6918 128.739 35.6918 128.726L35.6918 127.754C35.6918 127.741 35.6918 127.734 35.6918 127.734C35.6918 127.734 35.6983 127.734 35.7112 127.734L36.6835 127.734C36.6965 127.734 36.703 127.734 36.703 127.734C36.703 127.734 36.703 127.741 36.703 127.754ZM34.7584 127.754L34.7584 128.726C34.7584 128.739 34.7584 128.746 34.7584 128.746C34.7584 128.746 34.7519 128.746 34.7389 128.746L33.7667 128.746C33.7537 128.746 33.7472 128.746 33.7472 128.746C33.7472 128.746 33.7472 128.739 33.7472 128.726L33.7472 127.754C33.7472 127.741 33.7472 127.734 33.7472 127.734C33.7472 127.734 33.7537 127.734 33.7667 127.734L34.7389 127.734C34.7519 127.734 34.7584 127.734 34.7584 127.734C34.7584 127.734 34.7584 127.741 34.7584 127.754ZM32.8138 127.754L32.8138 128.726C32.8138 128.739 32.8138 128.746 32.8138 128.746C32.8138 128.746 32.8073 128.746 32.7944 128.746L31.8221 128.746C31.8091 128.746 31.8026 128.746 31.8026 128.746C31.8026 128.746 31.8026 128.739 31.8026 128.726L31.8026 127.754C31.8026 127.741 31.8026 127.734 31.8026 127.734C31.8026 127.734 31.8091 127.734 31.8221 127.734L32.7944 127.734C32.8073 127.734 32.8138 127.734 32.8138 127.734C32.8138 127.734 32.8138 127.741 32.8138 127.754ZM44.4813 135.719L44.4813 136.691C44.4813 136.704 44.4813 136.711 44.4813 136.711C44.4813 136.711 44.4748 136.711 44.4618 136.711L43.4896 136.711C43.4766 136.711 43.4701 136.711 43.4701 136.711C43.4701 136.711 43.4701 136.704 43.4701 136.691L43.4701 135.719C43.4701 135.706 43.4701 135.7 43.4701 135.7C43.4701 135.7 43.4766 135.7 43.4896 135.7L44.4618 135.7C44.4748 135.7 44.4813 135.7 44.4813 135.7C44.4813 135.7 44.4813 135.706 44.4813 135.719ZM44.4813 137.664L44.4813 138.636C44.4813 138.649 44.4813 138.655 44.4813 138.655C44.4813 138.655 44.4748 138.655 44.4618 138.655L43.4896 138.655C43.4766 138.655 43.4701 138.655 43.4701 138.655C43.4701 138.655 43.4701 138.649 43.4701 138.636L43.4701 137.664C43.4701 137.651 43.4701 137.644 43.4701 137.644C43.4701 137.644 43.4766 137.644 43.4896 137.644L44.4618 137.644C44.4748 137.644 44.4813 137.644 44.4813 137.644C44.4813 137.644 44.4813 137.651 44.4813 137.664ZM44.4813 139.608L44.4813 140.581C44.4813 140.593 44.4813 140.6 44.4813 140.6C44.4813 140.6 44.4748 140.6 44.4618 140.6L43.4896 140.6C43.4766 140.6 43.4701 140.6 43.4701 140.6C43.4701 140.6 43.4701 140.593 43.4701 140.581L43.4701 139.608C43.4701 139.595 43.4701 139.589 43.4701 139.589C43.4701 139.589 43.4766 139.589 43.4896 139.589L44.4618 139.589C44.4748 139.589 44.4813 139.589 44.4813 139.589C44.4813 139.589 44.4813 139.595 44.4813 139.608ZM44.4813 141.553L44.4813 142.525C44.4813 142.538 44.4813 142.545 44.4813 142.545C44.4813 142.545 44.4748 142.545 44.4618 142.545L43.4896 142.545C43.4766 142.545 43.4701 142.545 43.4701 142.545C43.4701 142.545 43.4701 142.538 43.4701 142.525L43.4701 141.553C43.4701 141.54 43.4701 141.533 43.4701 141.533C43.4701 141.533 43.4766 141.533 43.4896 141.533L44.4618 141.533C44.4748 141.533 44.4813 141.533 44.4813 141.533C44.4813 141.533 44.4813 141.54 44.4813 141.553ZM44.4813 143.497L44.4813 144.47C44.4813 144.483 44.4813 144.489 44.4813 144.489C44.4813 144.489 44.4748 144.489 44.4618 144.489L43.4896 144.489C43.4766 144.489 43.4701 144.489 43.4701 144.489C43.4701 144.489 43.4701 144.483 43.4701 144.47L43.4701 143.497C43.4701 143.484 43.4701 143.478 43.4701 143.478C43.4701 143.478 43.4766 143.478 43.4896 143.478L44.4618 143.478C44.4748 143.478 44.4813 143.478 44.4813 143.478C44.4813 143.478 44.4813 143.484 44.4813 143.497ZM42.5367 135.719L42.5367 136.691C42.5367 136.704 42.5367 136.711 42.5367 136.711C42.5367 136.711 42.5302 136.711 42.5173 136.711L41.545 136.711C41.532 136.711 41.5255 136.711 41.5255 136.711C41.5255 136.711 41.5255 136.704 41.5255 136.691L41.5255 135.719C41.5255 135.706 41.5255 135.7 41.5255 135.7C41.5255 135.7 41.532 135.7 41.545 135.7L42.5173 135.7C42.5302 135.7 42.5367 135.7 42.5367 135.7C42.5367 135.7 42.5367 135.706 42.5367 135.719ZM40.5921 135.719L40.5921 136.691C40.5921 136.704 40.5921 136.711 40.5921 136.711C40.5921 136.711 40.5856 136.711 40.5727 136.711L39.6004 136.711C39.5874 136.711 39.5809 136.711 39.5809 136.711C39.5809 136.711 39.5809 136.704 39.5809 136.691L39.5809 135.719C39.5809 135.706 39.5809 135.7 39.5809 135.7C39.5809 135.7 39.5874 135.7 39.6004 135.7L40.5727 135.7C40.5856 135.7 40.5921 135.7 40.5921 135.7C40.5921 135.7 40.5921 135.706 40.5921 135.719ZM38.6476 135.719L38.6476 136.691C38.6476 136.704 38.6476 136.711 38.6476 136.711C38.6476 136.711 38.6411 136.711 38.6281 136.711L37.6558 136.711C37.6429 136.711 37.6364 136.711 37.6364 136.711C37.6364 136.711 37.6364 136.704 37.6364 136.691L37.6364 135.719C37.6364 135.706 37.6364 135.7 37.6364 135.7C37.6364 135.7 37.6429 135.7 37.6558 135.7L38.6281 135.7C38.6411 135.7 38.6476 135.7 38.6476 135.7C38.6476 135.7 38.6476 135.706 38.6476 135.719ZM38.6476 137.664L38.6476 138.636C38.6476 138.649 38.6476 138.655 38.6476 138.655C38.6476 138.655 38.6411 138.655 38.6281 138.655L37.6558 138.655C37.6429 138.655 37.6364 138.655 37.6364 138.655C37.6364 138.655 37.6364 138.649 37.6364 138.636L37.6364 137.664C37.6364 137.651 37.6364 137.644 37.6364 137.644C37.6364 137.644 37.6429 137.644 37.6558 137.644L38.6281 137.644C38.6411 137.644 38.6476 137.644 38.6476 137.644C38.6476 137.644 38.6476 137.651 38.6476 137.664ZM38.6476 139.608L38.6476 140.581C38.6476 140.593 38.6476 140.6 38.6476 140.6C38.6476 140.6 38.6411 140.6 38.6281 140.6L37.6558 140.6C37.6429 140.6 37.6364 140.6 37.6364 140.6C37.6364 140.6 37.6364 140.593 37.6364 140.581L37.6364 139.608C37.6364 139.595 37.6364 139.589 37.6364 139.589C37.6364 139.589 37.6429 139.589 37.6558 139.589L38.6281 139.589C38.6411 139.589 38.6476 139.589 38.6476 139.589C38.6476 139.589 38.6476 139.595 38.6476 139.608ZM38.6476 141.553L38.6476 142.525C38.6476 142.538 38.6476 142.545 38.6476 142.545C38.6476 142.545 38.6411 142.545 38.6281 142.545L37.6558 142.545C37.6429 142.545 37.6364 142.545 37.6364 142.545C37.6364 142.545 37.6364 142.538 37.6364 142.525L37.6364 141.553C37.6364 141.54 37.6364 141.533 37.6364 141.533C37.6364 141.533 37.6429 141.533 37.6558 141.533L38.6281 141.533C38.6411 141.533 38.6476 141.533 38.6476 141.533C38.6476 141.533 38.6476 141.54 38.6476 141.553ZM36.703 135.719L36.703 136.691C36.703 136.704 36.703 136.711 36.703 136.711C36.703 136.711 36.6965 136.711 36.6835 136.711L35.7112 136.711C35.6983 136.711 35.6918 136.711 35.6918 136.711C35.6918 136.711 35.6918 136.704 35.6918 136.691L35.6918 135.719C35.6918 135.706 35.6918 135.7 35.6918 135.7C35.6918 135.7 35.6983 135.7 35.7112 135.7L36.6835 135.7C36.6965 135.7 36.703 135.7 36.703 135.7C36.703 135.7 36.703 135.706 36.703 135.719ZM34.7584 135.719L34.7584 136.691C34.7584 136.704 34.7584 136.711 34.7584 136.711C34.7584 136.711 34.7519 136.711 34.7389 136.711L33.7667 136.711C33.7537 136.711 33.7472 136.711 33.7472 136.711C33.7472 136.711 33.7472 136.704 33.7472 136.691L33.7472 135.719C33.7472 135.706 33.7472 135.7 33.7472 135.7C33.7472 135.7 33.7537 135.7 33.7667 135.7L34.7389 135.7C34.7519 135.7 34.7584 135.7 34.7584 135.7C34.7584 135.7 34.7584 135.706 34.7584 135.719ZM32.8138 135.719L32.8138 136.691C32.8138 136.704 32.8138 136.711 32.8138 136.711C32.8138 136.711 32.8073 136.711 32.7944 136.711L31.8221 136.711C31.8091 136.711 31.8026 136.711 31.8026 136.711C31.8026 136.711 31.8026 136.704 31.8026 136.691L31.8026 135.719C31.8026 135.706 31.8026 135.7 31.8026 135.7C31.8026 135.7 31.8091 135.7 31.8221 135.7L32.7944 135.7C32.8073 135.7 32.8138 135.7 32.8138 135.7C32.8138 135.7 32.8138 135.706 32.8138 135.719ZM32.8138 137.664L32.8138 138.636C32.8138 138.649 32.8138 138.655 32.8138 138.655C32.8138 138.655 32.8073 138.655 32.7944 138.655L31.8221 138.655C31.8091 138.655 31.8026 138.655 31.8026 138.655C31.8026 138.655 31.8026 138.649 31.8026 138.636L31.8026 137.664C31.8026 137.651 31.8026 137.644 31.8026 137.644C31.8026 137.644 31.8091 137.644 31.8221 137.644L32.7944 137.644C32.8073 137.644 32.8138 137.644 32.8138 137.644C32.8138 137.644 32.8138 137.651 32.8138 137.664ZM32.8138 139.608L32.8138 140.581C32.8138 140.593 32.8138 140.6 32.8138 140.6C32.8138 140.6 32.8073 140.6 32.7944 140.6L31.8221 140.6C31.8091 140.6 31.8026 140.6 31.8026 140.6C31.8026 140.6 31.8026 140.593 31.8026 140.581L31.8026 139.608C31.8026 139.595 31.8026 139.589 31.8026 139.589C31.8026 139.589 31.8091 139.589 31.8221 139.589L32.7944 139.589C32.8073 139.589 32.8138 139.589 32.8138 139.589C32.8138 139.589 32.8138 139.595 32.8138 139.608ZM32.8138 141.553L32.8138 142.525C32.8138 142.538 32.8138 142.545 32.8138 142.545C32.8138 142.545 32.8073 142.545 32.7944 142.545L31.8221 142.545C31.8091 142.545 31.8026 142.545 31.8026 142.545C31.8026 142.545 31.8026 142.538 31.8026 142.525L31.8026 141.553C31.8026 141.54 31.8026 141.533 31.8026 141.533C31.8026 141.533 31.8091 141.533 31.8221 141.533L32.7944 141.533C32.8073 141.533 32.8138 141.533 32.8138 141.533C32.8138 141.533 32.8138 141.54 32.8138 141.553ZM32.8138 143.497L32.8138 144.47C32.8138 144.483 32.8138 144.489 32.8138 144.489C32.8138 144.489 32.8073 144.489 32.7944 144.489L31.8221 144.489C31.8091 144.489 31.8026 144.489 31.8026 144.489C31.8026 144.489 31.8026 144.483 31.8026 144.47L31.8026 143.497C31.8026 143.484 31.8026 143.478 31.8026 143.478C31.8026 143.478 31.8091 143.478 31.8221 143.478L32.7944 143.478C32.8073 143.478 32.8138 143.478 32.8138 143.478C32.8138 143.478 32.8138 143.484 32.8138 143.497Z" fill="#0A0B0D"/>
<path d="M228.567 100.156L228.567 101.128C228.567 101.141 228.567 101.148 228.567 101.148C228.567 101.148 228.561 101.148 228.548 101.148L227.575 101.148C227.563 101.148 227.556 101.148 227.556 101.148C227.556 101.148 227.556 101.141 227.556 101.128L227.556 100.156C227.556 100.143 227.556 100.137 227.556 100.137C227.556 100.137 227.563 100.137 227.575 100.137L228.548 100.137C228.561 100.137 228.567 100.137 228.567 100.137C228.567 100.137 228.567 100.143 228.567 100.156ZM226.623 100.156L226.623 101.128C226.623 101.141 226.623 101.148 226.623 101.148C226.623 101.148 226.616 101.148 226.603 101.148L225.631 101.148C225.618 101.148 225.611 101.148 225.611 101.148C225.611 101.148 225.611 101.141 225.611 101.128L225.611 100.156C225.611 100.143 225.611 100.137 225.611 100.137C225.611 100.137 225.618 100.137 225.631 100.137L226.603 100.137C226.616 100.137 226.623 100.137 226.623 100.137C226.623 100.137 226.623 100.143 226.623 100.156ZM224.678 100.156L224.678 101.128C224.678 101.141 224.678 101.148 224.678 101.148C224.678 101.148 224.672 101.148 224.659 101.148L223.686 101.148C223.673 101.148 223.667 101.148 223.667 101.148C223.667 101.148 223.667 101.141 223.667 101.128L223.667 100.156C223.667 100.143 223.667 100.137 223.667 100.137C223.667 100.137 223.673 100.137 223.686 100.137L224.659 100.137C224.672 100.137 224.678 100.137 224.678 100.137C224.678 100.137 224.678 100.143 224.678 100.156ZM222.733 100.156L222.733 101.128C222.733 101.141 222.733 101.148 222.733 101.148C222.733 101.148 222.727 101.148 222.714 101.148L221.742 101.148C221.729 101.148 221.722 101.148 221.722 101.148C221.722 101.148 221.722 101.141 221.722 101.128L221.722 100.156C221.722 100.143 221.722 100.137 221.722 100.137C221.722 100.137 221.729 100.137 221.742 100.137L222.714 100.137C222.727 100.137 222.733 100.137 222.733 100.137C222.733 100.137 222.733 100.143 222.733 100.156ZM220.789 100.156L220.789 101.128C220.789 101.141 220.789 101.148 220.789 101.148C220.789 101.148 220.782 101.148 220.769 101.148L219.797 101.148C219.784 101.148 219.778 101.148 219.778 101.148C219.778 101.148 219.778 101.141 219.778 101.128L219.778 100.156C219.778 100.143 219.778 100.137 219.778 100.137C219.778 100.137 219.784 100.137 219.797 100.137L220.769 100.137C220.782 100.137 220.789 100.137 220.789 100.137C220.789 100.137 220.789 100.143 220.789 100.156ZM218.844 100.156L218.844 101.128C218.844 101.141 218.844 101.148 218.844 101.148C218.844 101.148 218.838 101.148 218.825 101.148L217.853 101.148C217.84 101.148 217.833 101.148 217.833 101.148C217.833 101.148 217.833 101.141 217.833 101.128L217.833 100.156C217.833 100.143 217.833 100.137 217.833 100.137C217.833 100.137 217.84 100.137 217.853 100.137L218.825 100.137C218.838 100.137 218.844 100.137 218.844 100.137C218.844 100.137 218.844 100.143 218.844 100.156ZM216.9 100.156L216.9 101.128C216.9 101.141 216.9 101.148 216.9 101.148C216.9 101.148 216.893 101.148 216.88 101.148L215.908 101.148C215.895 101.148 215.889 101.148 215.889 101.148C215.889 101.148 215.889 101.141 215.889 101.128L215.889 100.156C215.889 100.143 215.889 100.137 215.889 100.137C215.889 100.137 215.895 100.137 215.908 100.137L216.88 100.137C216.893 100.137 216.9 100.137 216.9 100.137C216.9 100.137 216.9 100.143 216.9 100.156ZM216.9 102.101L216.9 103.073C216.9 103.086 216.9 103.092 216.9 103.092C216.9 103.092 216.893 103.092 216.88 103.092L215.908 103.092C215.895 103.092 215.889 103.092 215.889 103.092C215.889 103.092 215.889 103.086 215.889 103.073L215.889 102.101C215.889 102.088 215.889 102.081 215.889 102.081C215.889 102.081 215.895 102.081 215.908 102.081L216.88 102.081C216.893 102.081 216.9 102.081 216.9 102.081C216.9 102.081 216.9 102.088 216.9 102.101ZM216.9 104.045L216.9 105.018C216.9 105.03 216.9 105.037 216.9 105.037C216.9 105.037 216.893 105.037 216.88 105.037L215.908 105.037C215.895 105.037 215.889 105.037 215.889 105.037C215.889 105.037 215.889 105.03 215.889 105.018L215.889 104.045C215.889 104.032 215.889 104.026 215.889 104.026C215.889 104.026 215.895 104.026 215.908 104.026L216.88 104.026C216.893 104.026 216.9 104.026 216.9 104.026C216.9 104.026 216.9 104.032 216.9 104.045ZM216.9 105.99L216.9 106.962C216.9 106.975 216.9 106.982 216.9 106.982C216.9 106.982 216.893 106.982 216.88 106.982L215.908 106.982C215.895 106.982 215.889 106.982 215.889 106.982C215.889 106.982 215.889 106.975 215.889 106.962L215.889 105.99C215.889 105.977 215.889 105.97 215.889 105.97C215.889 105.97 215.895 105.97 215.908 105.97L216.88 105.97C216.893 105.97 216.9 105.97 216.9 105.97C216.9 105.97 216.9 105.977 216.9 105.99ZM216.9 107.934L216.9 108.907C216.9 108.92 216.9 108.926 216.9 108.926C216.9 108.926 216.893 108.926 216.88 108.926L215.908 108.926C215.895 108.926 215.889 108.926 215.889 108.926C215.889 108.926 215.889 108.92 215.889 108.907L215.889 107.934C215.889 107.921 215.889 107.915 215.889 107.915C215.889 107.915 215.895 107.915 215.908 107.915L216.88 107.915C216.893 107.915 216.9 107.915 216.9 107.915C216.9 107.915 216.9 107.921 216.9 107.934ZM228.567 113.955L228.567 114.927C228.567 114.94 228.567 114.947 228.567 114.947C228.567 114.947 228.561 114.947 228.548 114.947L227.575 114.947C227.563 114.947 227.556 114.947 227.556 114.947C227.556 114.947 227.556 114.94 227.556 114.927L227.556 113.955C227.556 113.942 227.556 113.936 227.556 113.936C227.556 113.936 227.563 113.936 227.575 113.936L228.548 113.936C228.561 113.936 228.567 113.936 228.567 113.936C228.567 113.936 228.567 113.942 228.567 113.955ZM228.567 115.9L228.567 116.872C228.567 116.885 228.567 116.891 228.567 116.891C228.567 116.891 228.561 116.891 228.548 116.891L227.575 116.891C227.563 116.891 227.556 116.891 227.556 116.891C227.556 116.891 227.556 116.885 227.556 116.872L227.556 115.9C227.556 115.887 227.556 115.88 227.556 115.88C227.556 115.88 227.563 115.88 227.575 115.88L228.548 115.88C228.561 115.88 228.567 115.88 228.567 115.88C228.567 115.88 228.567 115.887 228.567 115.9ZM228.567 117.844L228.567 118.816C228.567 118.829 228.567 118.836 228.567 118.836C228.567 118.836 228.561 118.836 228.548 118.836L227.575 118.836C227.563 118.836 227.556 118.836 227.556 118.836C227.556 118.836 227.556 118.829 227.556 118.816L227.556 117.844C227.556 117.831 227.556 117.825 227.556 117.825C227.556 117.825 227.563 117.825 227.575 117.825L228.548 117.825C228.561 117.825 228.567 117.825 228.567 117.825C228.567 117.825 228.567 117.831 228.567 117.844ZM226.623 112.01L226.623 112.983C226.623 112.996 226.623 113.002 226.623 113.002C226.623 113.002 226.616 113.002 226.603 113.002L225.631 113.002C225.618 113.002 225.611 113.002 225.611 113.002C225.611 113.002 225.611 112.996 225.611 112.983L225.611 112.01C225.611 111.997 225.611 111.991 225.611 111.991C225.611 111.991 225.618 111.991 225.631 111.991L226.603 111.991C226.616 111.991 226.623 111.991 226.623 111.991C226.623 111.991 226.623 111.997 226.623 112.01ZM226.623 119.789L226.623 120.761C226.623 120.774 226.623 120.78 226.623 120.78C226.623 120.78 226.616 120.78 226.603 120.78L225.631 120.78C225.618 120.78 225.611 120.78 225.611 120.78C225.611 120.78 225.611 120.774 225.611 120.761L225.611 119.789C225.611 119.776 225.611 119.769 225.611 119.769C225.611 119.769 225.618 119.769 225.631 119.769L226.603 119.769C226.616 119.769 226.623 119.769 226.623 119.769C226.623 119.769 226.623 119.776 226.623 119.789ZM224.678 112.01L224.678 112.983C224.678 112.996 224.678 113.002 224.678 113.002C224.678 113.002 224.672 113.002 224.659 113.002L223.686 113.002C223.673 113.002 223.667 113.002 223.667 113.002C223.667 113.002 223.667 112.996 223.667 112.983L223.667 112.01C223.667 111.997 223.667 111.991 223.667 111.991C223.667 111.991 223.673 111.991 223.686 111.991L224.659 111.991C224.672 111.991 224.678 111.991 224.678 111.991C224.678 111.991 224.678 111.997 224.678 112.01ZM224.678 119.789L224.678 120.761C224.678 120.774 224.678 120.78 224.678 120.78C224.678 120.78 224.672 120.78 224.659 120.78L223.686 120.78C223.673 120.78 223.667 120.78 223.667 120.78C223.667 120.78 223.667 120.774 223.667 120.761L223.667 119.789C223.667 119.776 223.667 119.769 223.667 119.769C223.667 119.769 223.673 119.769 223.686 119.769L224.659 119.769C224.672 119.769 224.678 119.769 224.678 119.769C224.678 119.769 224.678 119.776 224.678 119.789ZM222.733 112.01L222.733 112.983C222.733 112.996 222.733 113.002 222.733 113.002C222.733 113.002 222.727 113.002 222.714 113.002L221.742 113.002C221.729 113.002 221.722 113.002 221.722 113.002C221.722 113.002 221.722 112.996 221.722 112.983L221.722 112.01C221.722 111.997 221.722 111.991 221.722 111.991C221.722 111.991 221.729 111.991 221.742 111.991L222.714 111.991C222.727 111.991 222.733 111.991 222.733 111.991C222.733 111.991 222.733 111.997 222.733 112.01ZM222.733 119.789L222.733 120.761C222.733 120.774 222.733 120.78 222.733 120.78C222.733 120.78 222.727 120.78 222.714 120.78L221.742 120.78C221.729 120.78 221.722 120.78 221.722 120.78C221.722 120.78 221.722 120.774 221.722 120.761L221.722 119.789C221.722 119.776 221.722 119.769 221.722 119.769C221.722 119.769 221.729 119.769 221.742 119.769L222.714 119.769C222.727 119.769 222.733 119.769 222.733 119.769C222.733 119.769 222.733 119.776 222.733 119.789ZM220.789 112.01L220.789 112.983C220.789 112.996 220.789 113.002 220.789 113.002C220.789 113.002 220.782 113.002 220.769 113.002L219.797 113.002C219.784 113.002 219.778 113.002 219.778 113.002C219.778 113.002 219.778 112.996 219.778 112.983L219.778 112.01C219.778 111.997 219.778 111.991 219.778 111.991C219.778 111.991 219.784 111.991 219.797 111.991L220.769 111.991C220.782 111.991 220.789 111.991 220.789 111.991C220.789 111.991 220.789 111.997 220.789 112.01ZM220.789 119.789L220.789 120.761C220.789 120.774 220.789 120.78 220.789 120.78C220.789 120.78 220.782 120.78 220.769 120.78L219.797 120.78C219.784 120.78 219.778 120.78 219.778 120.78C219.778 120.78 219.778 120.774 219.778 120.761L219.778 119.789C219.778 119.776 219.778 119.769 219.778 119.769C219.778 119.769 219.784 119.769 219.797 119.769L220.769 119.769C220.782 119.769 220.789 119.769 220.789 119.769C220.789 119.769 220.789 119.776 220.789 119.789ZM218.844 112.01L218.844 112.983C218.844 112.996 218.844 113.002 218.844 113.002C218.844 113.002 218.838 113.002 218.825 113.002L217.853 113.002C217.84 113.002 217.833 113.002 217.833 113.002C217.833 113.002 217.833 112.996 217.833 112.983L217.833 112.01C217.833 111.997 217.833 111.991 217.833 111.991C217.833 111.991 217.84 111.991 217.853 111.991L218.825 111.991C218.838 111.991 218.844 111.991 218.844 111.991C218.844 111.991 218.844 111.997 218.844 112.01ZM218.844 119.789L218.844 120.761C218.844 120.774 218.844 120.78 218.844 120.78C218.844 120.78 218.838 120.78 218.825 120.78L217.853 120.78C217.84 120.78 217.833 120.78 217.833 120.78C217.833 120.78 217.833 120.774 217.833 120.761L217.833 119.789C217.833 119.776 217.833 119.769 217.833 119.769C217.833 119.769 217.84 119.769 217.853 119.769L218.825 119.769C218.838 119.769 218.844 119.769 218.844 119.769C218.844 119.769 218.844 119.776 218.844 119.789ZM216.9 113.955L216.9 114.927C216.9 114.94 216.9 114.947 216.9 114.947C216.9 114.947 216.893 114.947 216.88 114.947L215.908 114.947C215.895 114.947 215.889 114.947 215.889 114.947C215.889 114.947 215.889 114.94 215.889 114.927L215.889 113.955C215.889 113.942 215.889 113.936 215.889 113.936C215.889 113.936 215.895 113.936 215.908 113.936L216.88 113.936C216.893 113.936 216.9 113.936 216.9 113.936C216.9 113.936 216.9 113.942 216.9 113.955ZM216.9 115.9L216.9 116.872C216.9 116.885 216.9 116.891 216.9 116.891C216.9 116.891 216.893 116.891 216.88 116.891L215.908 116.891C215.895 116.891 215.889 116.891 215.889 116.891C215.889 116.891 215.889 116.885 215.889 116.872L215.889 115.9C215.889 115.887 215.889 115.88 215.889 115.88C215.889 115.88 215.895 115.88 215.908 115.88L216.88 115.88C216.893 115.88 216.9 115.88 216.9 115.88C216.9 115.88 216.9 115.887 216.9 115.9ZM216.9 117.844L216.9 118.816C216.9 118.829 216.9 118.836 216.9 118.836C216.9 118.836 216.893 118.836 216.88 118.836L215.908 118.836C215.895 118.836 215.889 118.836 215.889 118.836C215.889 118.836 215.889 118.829 215.889 118.816L215.889 117.844C215.889 117.831 215.889 117.825 215.889 117.825C215.889 117.825 215.895 117.825 215.908 117.825L216.88 117.825C216.893 117.825 216.9 117.825 216.9 117.825C216.9 117.825 216.9 117.831 216.9 117.844ZM228.567 125.809L228.567 126.782C228.567 126.795 228.567 126.801 228.567 126.801C228.567 126.801 228.561 126.801 228.548 126.801L227.575 126.801C227.563 126.801 227.556 126.801 227.556 126.801C227.556 126.801 227.556 126.795 227.556 126.782L227.556 125.809C227.556 125.796 227.556 125.79 227.556 125.79C227.556 125.79 227.563 125.79 227.575 125.79L228.548 125.79C228.561 125.79 228.567 125.79 228.567 125.79C228.567 125.79 228.567 125.796 228.567 125.809ZM228.567 127.754L228.567 128.726C228.567 128.739 228.567 128.746 228.567 128.746C228.567 128.746 228.561 128.746 228.548 128.746L227.575 128.746C227.563 128.746 227.556 128.746 227.556 128.746C227.556 128.746 227.556 128.739 227.556 128.726L227.556 127.754C227.556 127.741 227.556 127.734 227.556 127.734C227.556 127.734 227.563 127.734 227.575 127.734L228.548 127.734C228.561 127.734 228.567 127.734 228.567 127.734C228.567 127.734 228.567 127.741 228.567 127.754ZM228.567 129.698L228.567 130.671C228.567 130.684 228.567 130.69 228.567 130.69C228.567 130.69 228.561 130.69 228.548 130.69L227.575 130.69C227.563 130.69 227.556 130.69 227.556 130.69C227.556 130.69 227.556 130.684 227.556 130.671L227.556 129.698C227.556 129.686 227.556 129.679 227.556 129.679C227.556 129.679 227.563 129.679 227.575 129.679L228.548 129.679C228.561 129.679 228.567 129.679 228.567 129.679C228.567 129.679 228.567 129.686 228.567 129.698ZM226.623 123.865L226.623 124.837C226.623 124.85 226.623 124.856 226.623 124.856C226.623 124.856 226.616 124.856 226.603 124.856L225.631 124.856C225.618 124.856 225.611 124.856 225.611 124.856C225.611 124.856 225.611 124.85 225.611 124.837L225.611 123.865C225.611 123.852 225.611 123.845 225.611 123.845C225.611 123.845 225.618 123.845 225.631 123.845L226.603 123.845C226.616 123.845 226.623 123.845 226.623 123.845C226.623 123.845 226.623 123.852 226.623 123.865ZM226.623 131.643L226.623 132.615C226.623 132.628 226.623 132.635 226.623 132.635C226.623 132.635 226.616 132.635 226.603 132.635L225.631 132.635C225.618 132.635 225.611 132.635 225.611 132.635C225.611 132.635 225.611 132.628 225.611 132.615L225.611 131.643C225.611 131.63 225.611 131.624 225.611 131.624C225.611 131.624 225.618 131.624 225.631 131.624L226.603 131.624C226.616 131.624 226.623 131.624 226.623 131.624C226.623 131.624 226.623 131.63 226.623 131.643ZM224.678 123.865L224.678 124.837C224.678 124.85 224.678 124.856 224.678 124.856C224.678 124.856 224.672 124.856 224.659 124.856L223.686 124.856C223.673 124.856 223.667 124.856 223.667 124.856C223.667 124.856 223.667 124.85 223.667 124.837L223.667 123.865C223.667 123.852 223.667 123.845 223.667 123.845C223.667 123.845 223.673 123.845 223.686 123.845L224.659 123.845C224.672 123.845 224.678 123.845 224.678 123.845C224.678 123.845 224.678 123.852 224.678 123.865ZM222.733 123.865L222.733 124.837C222.733 124.85 222.733 124.856 222.733 124.856C222.733 124.856 222.727 124.856 222.714 124.856L221.742 124.856C221.729 124.856 221.722 124.856 221.722 124.856C221.722 124.856 221.722 124.85 221.722 124.837L221.722 123.865C221.722 123.852 221.722 123.845 221.722 123.845C221.722 123.845 221.729 123.845 221.742 123.845L222.714 123.845C222.727 123.845 222.733 123.845 222.733 123.845C222.733 123.845 222.733 123.852 222.733 123.865ZM220.789 123.865L220.789 124.837C220.789 124.85 220.789 124.856 220.789 124.856C220.789 124.856 220.782 124.856 220.769 124.856L219.797 124.856C219.784 124.856 219.778 124.856 219.778 124.856C219.778 124.856 219.778 124.85 219.778 124.837L219.778 123.865C219.778 123.852 219.778 123.845 219.778 123.845C219.778 123.845 219.784 123.845 219.797 123.845L220.769 123.845C220.782 123.845 220.789 123.845 220.789 123.845C220.789 123.845 220.789 123.852 220.789 123.865ZM218.844 123.865L218.844 124.837C218.844 124.85 218.844 124.856 218.844 124.856C218.844 124.856 218.838 124.856 218.825 124.856L217.853 124.856C217.84 124.856 217.833 124.856 217.833 124.856C217.833 124.856 217.833 124.85 217.833 124.837L217.833 123.865C217.833 123.852 217.833 123.845 217.833 123.845C217.833 123.845 217.84 123.845 217.853 123.845L218.825 123.845C218.838 123.845 218.844 123.845 218.844 123.845C218.844 123.845 218.844 123.852 218.844 123.865ZM218.844 131.643L218.844 132.615C218.844 132.628 218.844 132.635 218.844 132.635C218.844 132.635 218.838 132.635 218.825 132.635L217.853 132.635C217.84 132.635 217.833 132.635 217.833 132.635C217.833 132.635 217.833 132.628 217.833 132.615L217.833 131.643C217.833 131.63 217.833 131.624 217.833 131.624C217.833 131.624 217.84 131.624 217.853 131.624L218.825 131.624C218.838 131.624 218.844 131.624 218.844 131.624C218.844 131.624 218.844 131.63 218.844 131.643ZM216.9 125.809L216.9 126.782C216.9 126.795 216.9 126.801 216.9 126.801C216.9 126.801 216.893 126.801 216.88 126.801L215.908 126.801C215.895 126.801 215.889 126.801 215.889 126.801C215.889 126.801 215.889 126.795 215.889 126.782L215.889 125.809C215.889 125.796 215.889 125.79 215.889 125.79C215.889 125.79 215.895 125.79 215.908 125.79L216.88 125.79C216.893 125.79 216.9 125.79 216.9 125.79C216.9 125.79 216.9 125.796 216.9 125.809ZM216.9 127.754L216.9 128.726C216.9 128.739 216.9 128.746 216.9 128.746C216.9 128.746 216.893 128.746 216.88 128.746L215.908 128.746C215.895 128.746 215.889 128.746 215.889 128.746C215.889 128.746 215.889 128.739 215.889 128.726L215.889 127.754C215.889 127.741 215.889 127.734 215.889 127.734C215.889 127.734 215.895 127.734 215.908 127.734L216.88 127.734C216.893 127.734 216.9 127.734 216.9 127.734C216.9 127.734 216.9 127.741 216.9 127.754ZM216.9 129.698L216.9 130.671C216.9 130.684 216.9 130.69 216.9 130.69C216.9 130.69 216.893 130.69 216.88 130.69L215.908 130.69C215.895 130.69 215.889 130.69 215.889 130.69C215.889 130.69 215.889 130.684 215.889 130.671L215.889 129.698C215.889 129.686 215.889 129.679 215.889 129.679C215.889 129.679 215.895 129.679 215.908 129.679L216.88 129.679C216.893 129.679 216.9 129.679 216.9 129.679C216.9 129.679 216.9 129.686 216.9 129.698ZM228.567 139.608L228.567 140.581C228.567 140.593 228.567 140.6 228.567 140.6C228.567 140.6 228.561 140.6 228.548 140.6L227.575 140.6C227.563 140.6 227.556 140.6 227.556 140.6C227.556 140.6 227.556 140.593 227.556 140.581L227.556 139.608C227.556 139.595 227.556 139.589 227.556 139.589C227.556 139.589 227.563 139.589 227.575 139.589L228.548 139.589C228.561 139.589 228.567 139.589 228.567 139.589C228.567 139.589 228.567 139.595 228.567 139.608ZM226.623 137.664L226.623 138.636C226.623 138.649 226.623 138.655 226.623 138.655C226.623 138.655 226.616 138.655 226.603 138.655L225.631 138.655C225.618 138.655 225.611 138.655 225.611 138.655C225.611 138.655 225.611 138.649 225.611 138.636L225.611 137.664C225.611 137.651 225.611 137.644 225.611 137.644C225.611 137.644 225.618 137.644 225.631 137.644L226.603 137.644C226.616 137.644 226.623 137.644 226.623 137.644C226.623 137.644 226.623 137.651 226.623 137.664ZM226.623 141.553L226.623 142.525C226.623 142.538 226.623 142.545 226.623 142.545C226.623 142.545 226.616 142.545 226.603 142.545L225.631 142.545C225.618 142.545 225.611 142.545 225.611 142.545C225.611 142.545 225.611 142.538 225.611 142.525L225.611 141.553C225.611 141.54 225.611 141.533 225.611 141.533C225.611 141.533 225.618 141.533 225.631 141.533L226.603 141.533C226.616 141.533 226.623 141.533 226.623 141.533C226.623 141.533 226.623 141.54 226.623 141.553ZM224.678 135.719L224.678 136.691C224.678 136.704 224.678 136.711 224.678 136.711C224.678 136.711 224.672 136.711 224.659 136.711L223.686 136.711C223.673 136.711 223.667 136.711 223.667 136.711C223.667 136.711 223.667 136.704 223.667 136.691L223.667 135.719C223.667 135.706 223.667 135.7 223.667 135.7C223.667 135.7 223.673 135.7 223.686 135.7L224.659 135.7C224.672 135.7 224.678 135.7 224.678 135.7C224.678 135.7 224.678 135.706 224.678 135.719ZM224.678 143.497L224.678 144.47C224.678 144.483 224.678 144.489 224.678 144.489C224.678 144.489 224.672 144.489 224.659 144.489L223.686 144.489C223.673 144.489 223.667 144.489 223.667 144.489C223.667 144.489 223.667 144.483 223.667 144.47L223.667 143.497C223.667 143.484 223.667 143.478 223.667 143.478C223.667 143.478 223.673 143.478 223.686 143.478L224.659 143.478C224.672 143.478 224.678 143.478 224.678 143.478C224.678 143.478 224.678 143.484 224.678 143.497ZM222.733 135.719L222.733 136.691C222.733 136.704 222.733 136.711 222.733 136.711C222.733 136.711 222.727 136.711 222.714 136.711L221.742 136.711C221.729 136.711 221.722 136.711 221.722 136.711C221.722 136.711 221.722 136.704 221.722 136.691L221.722 135.719C221.722 135.706 221.722 135.7 221.722 135.7C221.722 135.7 221.729 135.7 221.742 135.7L222.714 135.7C222.727 135.7 222.733 135.7 222.733 135.7C222.733 135.7 222.733 135.706 222.733 135.719ZM222.733 143.497L222.733 144.47C222.733 144.483 222.733 144.489 222.733 144.489C222.733 144.489 222.727 144.489 222.714 144.489L221.742 144.489C221.729 144.489 221.722 144.489 221.722 144.489C221.722 144.489 221.722 144.483 221.722 144.47L221.722 143.497C221.722 143.484 221.722 143.478 221.722 143.478C221.722 143.478 221.729 143.478 221.742 143.478L222.714 143.478C222.727 143.478 222.733 143.478 222.733 143.478C222.733 143.478 222.733 143.484 222.733 143.497ZM220.789 135.719L220.789 136.691C220.789 136.704 220.789 136.711 220.789 136.711C220.789 136.711 220.782 136.711 220.769 136.711L219.797 136.711C219.784 136.711 219.778 136.711 219.778 136.711C219.778 136.711 219.778 136.704 219.778 136.691L219.778 135.719C219.778 135.706 219.778 135.7 219.778 135.7C219.778 135.7 219.784 135.7 219.797 135.7L220.769 135.7C220.782 135.7 220.789 135.7 220.789 135.7C220.789 135.7 220.789 135.706 220.789 135.719ZM220.789 137.664L220.789 138.636C220.789 138.649 220.789 138.655 220.789 138.655C220.789 138.655 220.782 138.655 220.769 138.655L219.797 138.655C219.784 138.655 219.778 138.655 219.778 138.655C219.778 138.655 219.778 138.649 219.778 138.636L219.778 137.664C219.778 137.651 219.778 137.644 219.778 137.644C219.778 137.644 219.784 137.644 219.797 137.644L220.769 137.644C220.782 137.644 220.789 137.644 220.789 137.644C220.789 137.644 220.789 137.651 220.789 137.664ZM220.789 139.608L220.789 140.581C220.789 140.593 220.789 140.6 220.789 140.6C220.789 140.6 220.782 140.6 220.769 140.6L219.797 140.6C219.784 140.6 219.778 140.6 219.778 140.6C219.778 140.6 219.778 140.593 219.778 140.581L219.778 139.608C219.778 139.595 219.778 139.589 219.778 139.589C219.778 139.589 219.784 139.589 219.797 139.589L220.769 139.589C220.782 139.589 220.789 139.589 220.789 139.589C220.789 139.589 220.789 139.595 220.789 139.608ZM220.789 141.553L220.789 142.525C220.789 142.538 220.789 142.545 220.789 142.545C220.789 142.545 220.782 142.545 220.769 142.545L219.797 142.545C219.784 142.545 219.778 142.545 219.778 142.545C219.778 142.545 219.778 142.538 219.778 142.525L219.778 141.553C219.778 141.54 219.778 141.533 219.778 141.533C219.778 141.533 219.784 141.533 219.797 141.533L220.769 141.533C220.782 141.533 220.789 141.533 220.789 141.533C220.789 141.533 220.789 141.54 220.789 141.553ZM220.789 143.497L220.789 144.47C220.789 144.483 220.789 144.489 220.789 144.489C220.789 144.489 220.782 144.489 220.769 144.489L219.797 144.489C219.784 144.489 219.778 144.489 219.778 144.489C219.778 144.489 219.778 144.483 219.778 144.47L219.778 143.497C219.778 143.484 219.778 143.478 219.778 143.478C219.778 143.478 219.784 143.478 219.797 143.478L220.769 143.478C220.782 143.478 220.789 143.478 220.789 143.478C220.789 143.478 220.789 143.484 220.789 143.497ZM218.844 135.719L218.844 136.691C218.844 136.704 218.844 136.711 218.844 136.711C218.844 136.711 218.838 136.711 218.825 136.711L217.853 136.711C217.84 136.711 217.833 136.711 217.833 136.711C217.833 136.711 217.833 136.704 217.833 136.691L217.833 135.719C217.833 135.706 217.833 135.7 217.833 135.7C217.833 135.7 217.84 135.7 217.853 135.7L218.825 135.7C218.838 135.7 218.844 135.7 218.844 135.7C218.844 135.7 218.844 135.706 218.844 135.719ZM218.844 143.497L218.844 144.47C218.844 144.483 218.844 144.489 218.844 144.489C218.844 144.489 218.838 144.489 218.825 144.489L217.853 144.489C217.84 144.489 217.833 144.489 217.833 144.489C217.833 144.489 217.833 144.483 217.833 144.47L217.833 143.497C217.833 143.484 217.833 143.478 217.833 143.478C217.833 143.478 217.84 143.478 217.853 143.478L218.825 143.478C218.838 143.478 218.844 143.478 218.844 143.478C218.844 143.478 218.844 143.484 218.844 143.497ZM216.9 135.719L216.9 136.691C216.9 136.704 216.9 136.711 216.9 136.711C216.9 136.711 216.893 136.711 216.88 136.711L215.908 136.711C215.895 136.711 215.889 136.711 215.889 136.711C215.889 136.711 215.889 136.704 215.889 136.691L215.889 135.719C215.889 135.706 215.889 135.7 215.889 135.7C215.889 135.7 215.895 135.7 215.908 135.7L216.88 135.7C216.893 135.7 216.9 135.7 216.9 135.7C216.9 135.7 216.9 135.706 216.9 135.719ZM216.9 143.497L216.9 144.47C216.9 144.483 216.9 144.489 216.9 144.489C216.9 144.489 216.893 144.489 216.88 144.489L215.908 144.489C215.895 144.489 215.889 144.489 215.889 144.489C215.889 144.489 215.889 144.483 215.889 144.47L215.889 143.497C215.889 143.484 215.889 143.478 215.889 143.478C215.889 143.478 215.895 143.478 215.908 143.478L216.88 143.478C216.893 143.478 216.9 143.478 216.9 143.478C216.9 143.478 216.9 143.484 216.9 143.497ZM228.567 147.573L228.567 148.546C228.567 148.559 228.567 148.565 228.567 148.565C228.567 148.565 228.561 148.565 228.548 148.565L227.575 148.565C227.563 148.565 227.556 148.565 227.556 148.565C227.556 148.565 227.556 148.559 227.556 148.546L227.556 147.573C227.556 147.56 227.556 147.554 227.556 147.554C227.556 147.554 227.563 147.554 227.575 147.554L228.548 147.554C228.561 147.554 228.567 147.554 228.567 147.554C228.567 147.554 228.567 147.56 228.567 147.573ZM228.567 149.518L228.567 150.49C228.567 150.503 228.567 150.51 228.567 150.51C228.567 150.51 228.561 150.51 228.548 150.51L227.575 150.51C227.563 150.51 227.556 150.51 227.556 150.51C227.556 150.51 227.556 150.503 227.556 150.49L227.556 149.518C227.556 149.505 227.556 149.499 227.556 149.499C227.556 149.499 227.563 149.499 227.575 149.499L228.548 149.499C228.561 149.499 228.567 149.499 228.567 149.499C228.567 149.499 228.567 149.505 228.567 149.518ZM228.567 151.463L228.567 152.435C228.567 152.448 228.567 152.454 228.567 152.454C228.567 152.454 228.561 152.454 228.548 152.454L227.575 152.454C227.563 152.454 227.556 152.454 227.556 152.454C227.556 152.454 227.556 152.448 227.556 152.435L227.556 151.463C227.556 151.45 227.556 151.443 227.556 151.443C227.556 151.443 227.563 151.443 227.575 151.443L228.548 151.443C228.561 151.443 228.567 151.443 228.567 151.443C228.567 151.443 228.567 151.45 228.567 151.463ZM228.567 153.407L228.567 154.379C228.567 154.392 228.567 154.399 228.567 154.399C228.567 154.399 228.561 154.399 228.548 154.399L227.575 154.399C227.563 154.399 227.556 154.399 227.556 154.399C227.556 154.399 227.556 154.392 227.556 154.379L227.556 153.407C227.556 153.394 227.556 153.388 227.556 153.388C227.556 153.388 227.563 153.388 227.575 153.388L228.548 153.388C228.561 153.388 228.567 153.388 228.567 153.388C228.567 153.388 228.567 153.394 228.567 153.407ZM228.567 155.352L228.567 156.324C228.567 156.337 228.567 156.343 228.567 156.343C228.567 156.343 228.561 156.343 228.548 156.343L227.575 156.343C227.563 156.343 227.556 156.343 227.556 156.343C227.556 156.343 227.556 156.337 227.556 156.324L227.556 155.352C227.556 155.339 227.556 155.332 227.556 155.332C227.556 155.332 227.563 155.332 227.575 155.332L228.548 155.332C228.561 155.332 228.567 155.332 228.567 155.332C228.567 155.332 228.567 155.339 228.567 155.352ZM226.623 151.463L226.623 152.435C226.623 152.448 226.623 152.454 226.623 152.454C226.623 152.454 226.616 152.454 226.603 152.454L225.631 152.454C225.618 152.454 225.611 152.454 225.611 152.454C225.611 152.454 225.611 152.448 225.611 152.435L225.611 151.463C225.611 151.45 225.611 151.443 225.611 151.443C225.611 151.443 225.618 151.443 225.631 151.443L226.603 151.443C226.616 151.443 226.623 151.443 226.623 151.443C226.623 151.443 226.623 151.45 226.623 151.463ZM224.678 151.463L224.678 152.435C224.678 152.448 224.678 152.454 224.678 152.454C224.678 152.454 224.672 152.454 224.659 152.454L223.686 152.454C223.673 152.454 223.667 152.454 223.667 152.454C223.667 152.454 223.667 152.448 223.667 152.435L223.667 151.463C223.667 151.45 223.667 151.443 223.667 151.443C223.667 151.443 223.673 151.443 223.686 151.443L224.659 151.443C224.672 151.443 224.678 151.443 224.678 151.443C224.678 151.443 224.678 151.45 224.678 151.463ZM222.733 151.463L222.733 152.435C222.733 152.448 222.733 152.454 222.733 152.454C222.733 152.454 222.727 152.454 222.714 152.454L221.742 152.454C221.729 152.454 221.722 152.454 221.722 152.454C221.722 152.454 221.722 152.448 221.722 152.435L221.722 151.463C221.722 151.45 221.722 151.443 221.722 151.443C221.722 151.443 221.729 151.443 221.742 151.443L222.714 151.443C222.727 151.443 222.733 151.443 222.733 151.443C222.733 151.443 222.733 151.45 222.733 151.463ZM220.789 151.463L220.789 152.435C220.789 152.448 220.789 152.454 220.789 152.454C220.789 152.454 220.782 152.454 220.769 152.454L219.797 152.454C219.784 152.454 219.778 152.454 219.778 152.454C219.778 152.454 219.778 152.448 219.778 152.435L219.778 151.463C219.778 151.45 219.778 151.443 219.778 151.443C219.778 151.443 219.784 151.443 219.797 151.443L220.769 151.443C220.782 151.443 220.789 151.443 220.789 151.443C220.789 151.443 220.789 151.45 220.789 151.463ZM218.844 151.463L218.844 152.435C218.844 152.448 218.844 152.454 218.844 152.454C218.844 152.454 218.838 152.454 218.825 152.454L217.853 152.454C217.84 152.454 217.833 152.454 217.833 152.454C217.833 152.454 217.833 152.448 217.833 152.435L217.833 151.463C217.833 151.45 217.833 151.443 217.833 151.443C217.833 151.443 217.84 151.443 217.853 151.443L218.825 151.443C218.838 151.443 218.844 151.443 218.844 151.443C218.844 151.443 218.844 151.45 218.844 151.463ZM216.9 151.463L216.9 152.435C216.9 152.448 216.9 152.454 216.9 152.454C216.9 152.454 216.893 152.454 216.88 152.454L215.908 152.454C215.895 152.454 215.889 152.454 215.889 152.454C215.889 152.454 215.889 152.448 215.889 152.435L215.889 151.463C215.889 151.45 215.889 151.443 215.889 151.443C215.889 151.443 215.895 151.443 215.908 151.443L216.88 151.443C216.893 151.443 216.9 151.443 216.9 151.443C216.9 151.443 216.9 151.45 216.9 151.463ZM228.567 161.372L228.567 162.345C228.567 162.358 228.567 162.364 228.567 162.364C228.567 162.364 228.561 162.364 228.548 162.364L227.575 162.364C227.563 162.364 227.556 162.364 227.556 162.364C227.556 162.364 227.556 162.358 227.556 162.345L227.556 161.372C227.556 161.359 227.556 161.353 227.556 161.353C227.556 161.353 227.563 161.353 227.575 161.353L228.548 161.353C228.561 161.353 228.567 161.353 228.567 161.353C228.567 161.353 228.567 161.359 228.567 161.372ZM228.567 163.317L228.567 164.289C228.567 164.302 228.567 164.309 228.567 164.309C228.567 164.309 228.561 164.309 228.548 164.309L227.575 164.309C227.563 164.309 227.556 164.309 227.556 164.309C227.556 164.309 227.556 164.302 227.556 164.289L227.556 163.317C227.556 163.304 227.556 163.297 227.556 163.297C227.556 163.297 227.563 163.297 227.575 163.297L228.548 163.297C228.561 163.297 228.567 163.297 228.567 163.297C228.567 163.297 228.567 163.304 228.567 163.317ZM228.567 165.261L228.567 166.234C228.567 166.247 228.567 166.253 228.567 166.253C228.567 166.253 228.561 166.253 228.548 166.253L227.575 166.253C227.563 166.253 227.556 166.253 227.556 166.253C227.556 166.253 227.556 166.247 227.556 166.234L227.556 165.261C227.556 165.248 227.556 165.242 227.556 165.242C227.556 165.242 227.563 165.242 227.575 165.242L228.548 165.242C228.561 165.242 228.567 165.242 228.567 165.242C228.567 165.242 228.567 165.248 228.567 165.261ZM226.623 163.317L226.623 164.289C226.623 164.302 226.623 164.309 226.623 164.309C226.623 164.309 226.616 164.309 226.603 164.309L225.631 164.309C225.618 164.309 225.611 164.309 225.611 164.309C225.611 164.309 225.611 164.302 225.611 164.289L225.611 163.317C225.611 163.304 225.611 163.297 225.611 163.297C225.611 163.297 225.618 163.297 225.631 163.297L226.603 163.297C226.616 163.297 226.623 163.297 226.623 163.297C226.623 163.297 226.623 163.304 226.623 163.317ZM224.678 163.317L224.678 164.289C224.678 164.302 224.678 164.309 224.678 164.309C224.678 164.309 224.672 164.309 224.659 164.309L223.686 164.309C223.673 164.309 223.667 164.309 223.667 164.309C223.667 164.309 223.667 164.302 223.667 164.289L223.667 163.317C223.667 163.304 223.667 163.297 223.667 163.297C223.667 163.297 223.673 163.297 223.686 163.297L224.659 163.297C224.672 163.297 224.678 163.297 224.678 163.297C224.678 163.297 224.678 163.304 224.678 163.317ZM222.733 163.317L222.733 164.289C222.733 164.302 222.733 164.309 222.733 164.309C222.733 164.309 222.727 164.309 222.714 164.309L221.742 164.309C221.729 164.309 221.722 164.309 221.722 164.309C221.722 164.309 221.722 164.302 221.722 164.289L221.722 163.317C221.722 163.304 221.722 163.297 221.722 163.297C221.722 163.297 221.729 163.297 221.742 163.297L222.714 163.297C222.727 163.297 222.733 163.297 222.733 163.297C222.733 163.297 222.733 163.304 222.733 163.317ZM220.789 163.317L220.789 164.289C220.789 164.302 220.789 164.309 220.789 164.309C220.789 164.309 220.782 164.309 220.769 164.309L219.797 164.309C219.784 164.309 219.778 164.309 219.778 164.309C219.778 164.309 219.778 164.302 219.778 164.289L219.778 163.317C219.778 163.304 219.778 163.297 219.778 163.297C219.778 163.297 219.784 163.297 219.797 163.297L220.769 163.297C220.782 163.297 220.789 163.297 220.789 163.297C220.789 163.297 220.789 163.304 220.789 163.317ZM218.844 163.317L218.844 164.289C218.844 164.302 218.844 164.309 218.844 164.309C218.844 164.309 218.838 164.309 218.825 164.309L217.853 164.309C217.84 164.309 217.833 164.309 217.833 164.309C217.833 164.309 217.833 164.302 217.833 164.289L217.833 163.317C217.833 163.304 217.833 163.297 217.833 163.297C217.833 163.297 217.84 163.297 217.853 163.297L218.825 163.297C218.838 163.297 218.844 163.297 218.844 163.297C218.844 163.297 218.844 163.304 218.844 163.317ZM216.9 161.372L216.9 162.345C216.9 162.358 216.9 162.364 216.9 162.364C216.9 162.364 216.893 162.364 216.88 162.364L215.908 162.364C215.895 162.364 215.889 162.364 215.889 162.364C215.889 162.364 215.889 162.358 215.889 162.345L215.889 161.372C215.889 161.359 215.889 161.353 215.889 161.353C215.889 161.353 215.895 161.353 215.908 161.353L216.88 161.353C216.893 161.353 216.9 161.353 216.9 161.353C216.9 161.353 216.9 161.359 216.9 161.372ZM216.9 163.317L216.9 164.289C216.9 164.302 216.9 164.309 216.9 164.309C216.9 164.309 216.893 164.309 216.88 164.309L215.908 164.309C215.895 164.309 215.889 164.309 215.889 164.309C215.889 164.309 215.889 164.302 215.889 164.289L215.889 163.317C215.889 163.304 215.889 163.297 215.889 163.297C215.889 163.297 215.895 163.297 215.908 163.297L216.88 163.297C216.893 163.297 216.9 163.297 216.9 163.297C216.9 163.297 216.9 163.304 216.9 163.317ZM216.9 165.261L216.9 166.234C216.9 166.247 216.9 166.253 216.9 166.253C216.9 166.253 216.893 166.253 216.88 166.253L215.908 166.253C215.895 166.253 215.889 166.253 215.889 166.253C215.889 166.253 215.889 166.247 215.889 166.234L215.889 165.261C215.889 165.248 215.889 165.242 215.889 165.242C215.889 165.242 215.895 165.242 215.908 165.242L216.88 165.242C216.893 165.242 216.9 165.242 216.9 165.242C216.9 165.242 216.9 165.248 216.9 165.261ZM228.567 173.227L228.567 174.199C228.567 174.212 228.567 174.218 228.567 174.218C228.567 174.218 228.561 174.218 228.548 174.218L227.575 174.218C227.563 174.218 227.556 174.218 227.556 174.218C227.556 174.218 227.556 174.212 227.556 174.199L227.556 173.227C227.556 173.214 227.556 173.207 227.556 173.207C227.556 173.207 227.563 173.207 227.575 173.207L228.548 173.207C228.561 173.207 228.567 173.207 228.567 173.207C228.567 173.207 228.567 173.214 228.567 173.227ZM228.567 175.171L228.567 176.144C228.567 176.156 228.567 176.163 228.567 176.163C228.567 176.163 228.561 176.163 228.548 176.163L227.575 176.163C227.563 176.163 227.556 176.163 227.556 176.163C227.556 176.163 227.556 176.156 227.556 176.144L227.556 175.171C227.556 175.158 227.556 175.152 227.556 175.152C227.556 175.152 227.563 175.152 227.575 175.152L228.548 175.152C228.561 175.152 228.567 175.152 228.567 175.152C228.567 175.152 228.567 175.158 228.567 175.171ZM228.567 177.116L228.567 178.088C228.567 178.101 228.567 178.108 228.567 178.108C228.567 178.108 228.561 178.108 228.548 178.108L227.575 178.108C227.563 178.108 227.556 178.108 227.556 178.108C227.556 178.108 227.556 178.101 227.556 178.088L227.556 177.116C227.556 177.103 227.556 177.096 227.556 177.096C227.556 177.096 227.563 177.096 227.575 177.096L228.548 177.096C228.561 177.096 228.567 177.096 228.567 177.096C228.567 177.096 228.567 177.103 228.567 177.116ZM226.623 171.282L226.623 172.254C226.623 172.267 226.623 172.274 226.623 172.274C226.623 172.274 226.616 172.274 226.603 172.274L225.631 172.274C225.618 172.274 225.611 172.274 225.611 172.274C225.611 172.274 225.611 172.267 225.611 172.254L225.611 171.282C225.611 171.269 225.611 171.263 225.611 171.263C225.611 171.263 225.618 171.263 225.631 171.263L226.603 171.263C226.616 171.263 226.623 171.263 226.623 171.263C226.623 171.263 226.623 171.269 226.623 171.282ZM226.623 179.06L226.623 180.033C226.623 180.046 226.623 180.052 226.623 180.052C226.623 180.052 226.616 180.052 226.603 180.052L225.631 180.052C225.618 180.052 225.611 180.052 225.611 180.052C225.611 180.052 225.611 180.046 225.611 180.033L225.611 179.06C225.611 179.047 225.611 179.041 225.611 179.041C225.611 179.041 225.618 179.041 225.631 179.041L226.603 179.041C226.616 179.041 226.623 179.041 226.623 179.041C226.623 179.041 226.623 179.047 226.623 179.06ZM224.678 171.282L224.678 172.254C224.678 172.267 224.678 172.274 224.678 172.274C224.678 172.274 224.672 172.274 224.659 172.274L223.686 172.274C223.673 172.274 223.667 172.274 223.667 172.274C223.667 172.274 223.667 172.267 223.667 172.254L223.667 171.282C223.667 171.269 223.667 171.263 223.667 171.263C223.667 171.263 223.673 171.263 223.686 171.263L224.659 171.263C224.672 171.263 224.678 171.263 224.678 171.263C224.678 171.263 224.678 171.269 224.678 171.282ZM224.678 179.06L224.678 180.033C224.678 180.046 224.678 180.052 224.678 180.052C224.678 180.052 224.672 180.052 224.659 180.052L223.686 180.052C223.673 180.052 223.667 180.052 223.667 180.052C223.667 180.052 223.667 180.046 223.667 180.033L223.667 179.06C223.667 179.047 223.667 179.041 223.667 179.041C223.667 179.041 223.673 179.041 223.686 179.041L224.659 179.041C224.672 179.041 224.678 179.041 224.678 179.041C224.678 179.041 224.678 179.047 224.678 179.06ZM222.733 171.282L222.733 172.254C222.733 172.267 222.733 172.274 222.733 172.274C222.733 172.274 222.727 172.274 222.714 172.274L221.742 172.274C221.729 172.274 221.722 172.274 221.722 172.274C221.722 172.274 221.722 172.267 221.722 172.254L221.722 171.282C221.722 171.269 221.722 171.263 221.722 171.263C221.722 171.263 221.729 171.263 221.742 171.263L222.714 171.263C222.727 171.263 222.733 171.263 222.733 171.263C222.733 171.263 222.733 171.269 222.733 171.282ZM222.733 179.06L222.733 180.033C222.733 180.046 222.733 180.052 222.733 180.052C222.733 180.052 222.727 180.052 222.714 180.052L221.742 180.052C221.729 180.052 221.722 180.052 221.722 180.052C221.722 180.052 221.722 180.046 221.722 180.033L221.722 179.06C221.722 179.047 221.722 179.041 221.722 179.041C221.722 179.041 221.729 179.041 221.742 179.041L222.714 179.041C222.727 179.041 222.733 179.041 222.733 179.041C222.733 179.041 222.733 179.047 222.733 179.06ZM220.789 171.282L220.789 172.254C220.789 172.267 220.789 172.274 220.789 172.274C220.789 172.274 220.782 172.274 220.769 172.274L219.797 172.274C219.784 172.274 219.778 172.274 219.778 172.274C219.778 172.274 219.778 172.267 219.778 172.254L219.778 171.282C219.778 171.269 219.778 171.263 219.778 171.263C219.778 171.263 219.784 171.263 219.797 171.263L220.769 171.263C220.782 171.263 220.789 171.263 220.789 171.263C220.789 171.263 220.789 171.269 220.789 171.282ZM220.789 179.06L220.789 180.033C220.789 180.046 220.789 180.052 220.789 180.052C220.789 180.052 220.782 180.052 220.769 180.052L219.797 180.052C219.784 180.052 219.778 180.052 219.778 180.052C219.778 180.052 219.778 180.046 219.778 180.033L219.778 179.06C219.778 179.047 219.778 179.041 219.778 179.041C219.778 179.041 219.784 179.041 219.797 179.041L220.769 179.041C220.782 179.041 220.789 179.041 220.789 179.041C220.789 179.041 220.789 179.047 220.789 179.06ZM218.844 171.282L218.844 172.254C218.844 172.267 218.844 172.274 218.844 172.274C218.844 172.274 218.838 172.274 218.825 172.274L217.853 172.274C217.84 172.274 217.833 172.274 217.833 172.274C217.833 172.274 217.833 172.267 217.833 172.254L217.833 171.282C217.833 171.269 217.833 171.263 217.833 171.263C217.833 171.263 217.84 171.263 217.853 171.263L218.825 171.263C218.838 171.263 218.844 171.263 218.844 171.263C218.844 171.263 218.844 171.269 218.844 171.282ZM218.844 179.06L218.844 180.033C218.844 180.046 218.844 180.052 218.844 180.052C218.844 180.052 218.838 180.052 218.825 180.052L217.853 180.052C217.84 180.052 217.833 180.052 217.833 180.052C217.833 180.052 217.833 180.046 217.833 180.033L217.833 179.06C217.833 179.047 217.833 179.041 217.833 179.041C217.833 179.041 217.84 179.041 217.853 179.041L218.825 179.041C218.838 179.041 218.844 179.041 218.844 179.041C218.844 179.041 218.844 179.047 218.844 179.06ZM216.9 173.227L216.9 174.199C216.9 174.212 216.9 174.218 216.9 174.218C216.9 174.218 216.893 174.218 216.88 174.218L215.908 174.218C215.895 174.218 215.889 174.218 215.889 174.218C215.889 174.218 215.889 174.212 215.889 174.199L215.889 173.227C215.889 173.214 215.889 173.207 215.889 173.207C215.889 173.207 215.895 173.207 215.908 173.207L216.88 173.207C216.893 173.207 216.9 173.207 216.9 173.207C216.9 173.207 216.9 173.214 216.9 173.227ZM216.9 175.171L216.9 176.144C216.9 176.156 216.9 176.163 216.9 176.163C216.9 176.163 216.893 176.163 216.88 176.163L215.908 176.163C215.895 176.163 215.889 176.163 215.889 176.163C215.889 176.163 215.889 176.156 215.889 176.144L215.889 175.171C215.889 175.158 215.889 175.152 215.889 175.152C215.889 175.152 215.895 175.152 215.908 175.152L216.88 175.152C216.893 175.152 216.9 175.152 216.9 175.152C216.9 175.152 216.9 175.158 216.9 175.171ZM216.9 177.116L216.9 178.088C216.9 178.101 216.9 178.108 216.9 178.108C216.9 178.108 216.893 178.108 216.88 178.108L215.908 178.108C215.895 178.108 215.889 178.108 215.889 178.108C215.889 178.108 215.889 178.101 215.889 178.088L215.889 177.116C215.889 177.103 215.889 177.096 215.889 177.096C215.889 177.096 215.895 177.096 215.908 177.096L216.88 177.096C216.893 177.096 216.9 177.096 216.9 177.096C216.9 177.096 216.9 177.103 216.9 177.116ZM228.567 183.136L228.567 184.109C228.567 184.122 228.567 184.128 228.567 184.128C228.567 184.128 228.561 184.128 228.548 184.128L227.575 184.128C227.563 184.128 227.556 184.128 227.556 184.128C227.556 184.128 227.556 184.122 227.556 184.109L227.556 183.136C227.556 183.123 227.556 183.117 227.556 183.117C227.556 183.117 227.563 183.117 227.575 183.117L228.548 183.117C228.561 183.117 228.567 183.117 228.567 183.117C228.567 183.117 228.567 183.123 228.567 183.136ZM228.567 190.915L228.567 191.887C228.567 191.9 228.567 191.906 228.567 191.906C228.567 191.906 228.561 191.906 228.548 191.906L227.575 191.906C227.563 191.906 227.556 191.906 227.556 191.906C227.556 191.906 227.556 191.9 227.556 191.887L227.556 190.915C227.556 190.902 227.556 190.895 227.556 190.895C227.556 190.895 227.563 190.895 227.575 190.895L228.548 190.895C228.561 190.895 228.567 190.895 228.567 190.895C228.567 190.895 228.567 190.902 228.567 190.915ZM226.623 183.136L226.623 184.109C226.623 184.122 226.623 184.128 226.623 184.128C226.623 184.128 226.616 184.128 226.603 184.128L225.631 184.128C225.618 184.128 225.611 184.128 225.611 184.128C225.611 184.128 225.611 184.122 225.611 184.109L225.611 183.136C225.611 183.123 225.611 183.117 225.611 183.117C225.611 183.117 225.618 183.117 225.631 183.117L226.603 183.117C226.616 183.117 226.623 183.117 226.623 183.117C226.623 183.117 226.623 183.123 226.623 183.136ZM226.623 190.915L226.623 191.887C226.623 191.9 226.623 191.906 226.623 191.906C226.623 191.906 226.616 191.906 226.603 191.906L225.631 191.906C225.618 191.906 225.611 191.906 225.611 191.906C225.611 191.906 225.611 191.9 225.611 191.887L225.611 190.915C225.611 190.902 225.611 190.895 225.611 190.895C225.611 190.895 225.618 190.895 225.631 190.895L226.603 190.895C226.616 190.895 226.623 190.895 226.623 190.895C226.623 190.895 226.623 190.902 226.623 190.915ZM224.678 183.136L224.678 184.109C224.678 184.122 224.678 184.128 224.678 184.128C224.678 184.128 224.672 184.128 224.659 184.128L223.686 184.128C223.673 184.128 223.667 184.128 223.667 184.128C223.667 184.128 223.667 184.122 223.667 184.109L223.667 183.136C223.667 183.123 223.667 183.117 223.667 183.117C223.667 183.117 223.673 183.117 223.686 183.117L224.659 183.117C224.672 183.117 224.678 183.117 224.678 183.117C224.678 183.117 224.678 183.123 224.678 183.136ZM224.678 185.081L224.678 186.053C224.678 186.066 224.678 186.073 224.678 186.073C224.678 186.073 224.672 186.073 224.659 186.073L223.686 186.073C223.673 186.073 223.667 186.073 223.667 186.073C223.667 186.073 223.667 186.066 223.667 186.053L223.667 185.081C223.667 185.068 223.667 185.062 223.667 185.062C223.667 185.062 223.673 185.062 223.686 185.062L224.659 185.062C224.672 185.062 224.678 185.062 224.678 185.062C224.678 185.062 224.678 185.068 224.678 185.081ZM224.678 190.915L224.678 191.887C224.678 191.9 224.678 191.906 224.678 191.906C224.678 191.906 224.672 191.906 224.659 191.906L223.686 191.906C223.673 191.906 223.667 191.906 223.667 191.906C223.667 191.906 223.667 191.9 223.667 191.887L223.667 190.915C223.667 190.902 223.667 190.895 223.667 190.895C223.667 190.895 223.673 190.895 223.686 190.895L224.659 190.895C224.672 190.895 224.678 190.895 224.678 190.895C224.678 190.895 224.678 190.902 224.678 190.915ZM222.733 183.136L222.733 184.109C222.733 184.122 222.733 184.128 222.733 184.128C222.733 184.128 222.727 184.128 222.714 184.128L221.742 184.128C221.729 184.128 221.722 184.128 221.722 184.128C221.722 184.128 221.722 184.122 221.722 184.109L221.722 183.136C221.722 183.123 221.722 183.117 221.722 183.117C221.722 183.117 221.729 183.117 221.742 183.117L222.714 183.117C222.727 183.117 222.733 183.117 222.733 183.117C222.733 183.117 222.733 183.123 222.733 183.136ZM222.733 187.026L222.733 187.998C222.733 188.011 222.733 188.017 222.733 188.017C222.733 188.017 222.727 188.017 222.714 188.017L221.742 188.017C221.729 188.017 221.722 188.017 221.722 188.017C221.722 188.017 221.722 188.011 221.722 187.998L221.722 187.026C221.722 187.013 221.722 187.006 221.722 187.006C221.722 187.006 221.729 187.006 221.742 187.006L222.714 187.006C222.727 187.006 222.733 187.006 222.733 187.006C222.733 187.006 222.733 187.013 222.733 187.026ZM222.733 190.915L222.733 191.887C222.733 191.9 222.733 191.906 222.733 191.906C222.733 191.906 222.727 191.906 222.714 191.906L221.742 191.906C221.729 191.906 221.722 191.906 221.722 191.906C221.722 191.906 221.722 191.9 221.722 191.887L221.722 190.915C221.722 190.902 221.722 190.895 221.722 190.895C221.722 190.895 221.729 190.895 221.742 190.895L222.714 190.895C222.727 190.895 222.733 190.895 222.733 190.895C222.733 190.895 222.733 190.902 222.733 190.915ZM220.789 183.136L220.789 184.109C220.789 184.122 220.789 184.128 220.789 184.128C220.789 184.128 220.782 184.128 220.769 184.128L219.797 184.128C219.784 184.128 219.778 184.128 219.778 184.128C219.778 184.128 219.778 184.122 219.778 184.109L219.778 183.136C219.778 183.123 219.778 183.117 219.778 183.117C219.778 183.117 219.784 183.117 219.797 183.117L220.769 183.117C220.782 183.117 220.789 183.117 220.789 183.117C220.789 183.117 220.789 183.123 220.789 183.136ZM220.789 188.97L220.789 189.942C220.789 189.955 220.789 189.962 220.789 189.962C220.789 189.962 220.782 189.962 220.769 189.962L219.797 189.962C219.784 189.962 219.778 189.962 219.778 189.962C219.778 189.962 219.778 189.955 219.778 189.942L219.778 188.97C219.778 188.957 219.778 188.951 219.778 188.951C219.778 188.951 219.784 188.951 219.797 188.951L220.769 188.951C220.782 188.951 220.789 188.951 220.789 188.951C220.789 188.951 220.789 188.957 220.789 188.97ZM220.789 190.915L220.789 191.887C220.789 191.9 220.789 191.906 220.789 191.906C220.789 191.906 220.782 191.906 220.769 191.906L219.797 191.906C219.784 191.906 219.778 191.906 219.778 191.906C219.778 191.906 219.778 191.9 219.778 191.887L219.778 190.915C219.778 190.902 219.778 190.895 219.778 190.895C219.778 190.895 219.784 190.895 219.797 190.895L220.769 190.895C220.782 190.895 220.789 190.895 220.789 190.895C220.789 190.895 220.789 190.902 220.789 190.915ZM218.844 183.136L218.844 184.109C218.844 184.122 218.844 184.128 218.844 184.128C218.844 184.128 218.838 184.128 218.825 184.128L217.853 184.128C217.84 184.128 217.833 184.128 217.833 184.128C217.833 184.128 217.833 184.122 217.833 184.109L217.833 183.136C217.833 183.123 217.833 183.117 217.833 183.117C217.833 183.117 217.84 183.117 217.853 183.117L218.825 183.117C218.838 183.117 218.844 183.117 218.844 183.117C218.844 183.117 218.844 183.123 218.844 183.136ZM218.844 190.915L218.844 191.887C218.844 191.9 218.844 191.906 218.844 191.906C218.844 191.906 218.838 191.906 218.825 191.906L217.853 191.906C217.84 191.906 217.833 191.906 217.833 191.906C217.833 191.906 217.833 191.9 217.833 191.887L217.833 190.915C217.833 190.902 217.833 190.895 217.833 190.895C217.833 190.895 217.84 190.895 217.853 190.895L218.825 190.895C218.838 190.895 218.844 190.895 218.844 190.895C218.844 190.895 218.844 190.902 218.844 190.915ZM216.9 183.136L216.9 184.109C216.9 184.122 216.9 184.128 216.9 184.128C216.9 184.128 216.893 184.128 216.88 184.128L215.908 184.128C215.895 184.128 215.889 184.128 215.889 184.128C215.889 184.128 215.889 184.122 215.889 184.109L215.889 183.136C215.889 183.123 215.889 183.117 215.889 183.117C215.889 183.117 215.895 183.117 215.908 183.117L216.88 183.117C216.893 183.117 216.9 183.117 216.9 183.117C216.9 183.117 216.9 183.123 216.9 183.136ZM216.9 190.915L216.9 191.887C216.9 191.9 216.9 191.906 216.9 191.906C216.9 191.906 216.893 191.906 216.88 191.906L215.908 191.906C215.895 191.906 215.889 191.906 215.889 191.906C215.889 191.906 215.889 191.9 215.889 191.887L215.889 190.915C215.889 190.902 215.889 190.895 215.889 190.895C215.889 190.895 215.895 190.895 215.908 190.895L216.88 190.895C216.893 190.895 216.9 190.895 216.9 190.895C216.9 190.895 216.9 190.902 216.9 190.915Z" fill="#0A0B0D"/>
<path d="M250.989 135.695C243.103 135.695 237.863 131.552 236.865 125.264H243.503C244.651 128.707 247.645 130.005 250.989 130.005C254.583 130.005 257.078 128.158 257.078 125.563C257.078 122.718 255.082 121.52 250.59 120.572L247.545 119.923C242.554 118.875 238.012 116.18 238.012 110.191C238.012 104.251 243.053 99.7591 250.34 99.7591C257.627 99.7591 262.02 103.602 263.317 109.741H256.779C255.881 106.896 253.734 105.399 250.34 105.399C246.797 105.399 244.601 107.246 244.601 109.691C244.601 112.187 246.597 113.235 250.49 114.133L253.535 114.832C258.975 116.08 263.816 118.526 263.816 124.964C263.816 131.203 258.725 135.695 250.989 135.695ZM268.826 134.946V100.508H293.382V106.347H275.315V114.333H290.737V120.173H275.315V134.946H268.826Z" fill="#0A0B0D"/>
<path d="M55.324 134.946V100.508H66.4541L73.4916 128.358H74.39L81.5771 100.508H92.3579V134.946H86.4185V107.096H85.4203L78.1832 134.946H69.3989L62.2616 107.096H61.2634V134.946H55.324ZM105.706 135.695C100.914 135.695 97.0214 132.8 97.0214 128.059C97.0214 122.469 101.314 120.672 106.504 120.123L113.841 119.374V117.977C113.841 115.83 112.094 114.333 109 114.333C106.055 114.333 104.358 115.631 103.809 117.577H97.82C98.4189 112.836 102.362 109.242 109 109.242C115.389 109.242 119.631 112.337 119.631 118.376V130.554C119.631 132.101 119.781 134.248 119.881 134.846V134.946H113.891C113.841 134.098 113.841 133.299 113.841 132.451H112.943C111.396 134.946 108.701 135.695 105.706 135.695ZM103.31 127.759C103.31 129.805 105.007 131.003 107.403 131.003C111.496 131.003 113.841 127.909 113.841 124.764V123.517L108.351 124.166C104.957 124.565 103.31 125.563 103.31 127.759ZM125.354 134.946V109.991H131.543V114.433H132.441C133.689 111.388 136.834 109.542 140.427 109.542H140.826V116.23C140.128 116.13 139.678 116.08 138.73 116.08C134.737 116.08 131.593 118.226 131.593 123.417V134.946H125.354ZM165.762 135.695C157.577 135.695 153.085 131.403 153.085 125.912C153.085 121.67 155.68 119.075 159.124 117.927V117.028C156.329 116.03 154.083 113.634 154.083 109.891C154.083 104.85 158.026 100.508 165.762 100.508C173.349 100.508 177.491 104.85 177.491 109.891C177.491 113.634 175.245 116.03 172.4 117.028V117.927C175.794 119.025 178.39 121.72 178.39 125.912C178.39 131.403 173.898 135.695 165.762 135.695ZM165.762 130.005C169.456 130.005 171.752 127.909 171.752 125.014C171.752 122.219 169.456 120.073 165.762 120.073C162.119 120.073 159.823 122.219 159.823 125.014C159.823 127.909 162.119 130.005 165.762 130.005ZM165.762 115.182C168.907 115.182 171.003 113.235 171.003 110.54C171.003 107.895 168.907 105.948 165.762 105.948C162.668 105.948 160.572 107.895 160.572 110.54C160.572 113.235 162.668 115.182 165.762 115.182Z" fill="#0A0B0D"/>
</svg>
