<svg width="671" height="696" viewBox="0 0 671 696" fill="none" xmlns="http://www.w3.org/2000/svg">
<g clip-path="url(#clip0_3388_13387)">
<rect width="671" height="696" rx="8" fill="#FAFAFA"/>
<rect width="224" height="174" fill="#FAFAFA"/>
<path d="M41.0682 82L52.9182 47.5H60.7182L72.3682 82H66.7682L57.2182 52.3H56.2682L46.3682 82H41.0682ZM46.7682 73.3L48.4182 68.8H64.9682L66.6182 73.3H46.7682Z" fill="#0A0B0D"/>
<path d="M77.865 82L89.715 47.5H97.515L109.165 82H103.565L94.015 52.3H93.065L83.165 82H77.865ZM83.565 73.3L85.215 68.8H101.765L103.415 73.3H83.565Z" fill="#0000FF"/>
<path d="M114.662 82L126.512 47.5H134.312L145.962 82H140.362L130.812 52.3H129.862L119.962 82H114.662ZM120.362 73.3L122.012 68.8H138.562L140.212 73.3H120.362Z" fill="#B8A581"/>
<path d="M151.459 82L163.309 47.5H171.109L182.759 82H177.159L167.609 52.3H166.659L156.759 82H151.459ZM157.159 73.3L158.809 68.8H175.359L177.009 73.3H157.159Z" fill="#66C800"/>
<path d="M41.0682 127L52.9182 92.5H60.7182L72.3682 127H66.7682L57.2182 97.3H56.2682L46.3682 127H41.0682ZM46.7682 118.3L48.4182 113.8H64.9682L66.6182 118.3H46.7682Z" fill="#FC401F"/>
<path d="M77.865 127L89.715 92.5H97.515L109.165 127H103.565L94.015 97.3H93.065L83.165 127H77.865ZM83.565 118.3L85.215 113.8H101.765L103.415 118.3H83.565Z" fill="#3C8AFF"/>
<path d="M114.662 127L126.512 92.5H134.312L145.962 127H140.362L130.812 97.3H129.862L119.962 127H114.662ZM120.362 118.3L122.012 113.8H138.562L140.212 118.3H120.362Z" fill="#FFD12F"/>
<path d="M151.459 127L163.309 92.5H171.109L182.759 127H177.159L167.609 97.3H166.659L156.759 127H151.459ZM157.159 118.3L158.809 113.8H175.359L177.009 118.3H157.159Z" fill="#FEA8CD"/>
<rect width="224" height="174" transform="translate(224)" fill="#0000FF"/>
<path d="M258.13 111.5L274.79 63.2H285.71L301.95 111.5H294.18L290.26 99.25H269.68L265.62 111.5H258.13ZM271.78 92.95H288.16L280.74 69.85H279.48L271.78 92.95Z" fill="white"/>
<path d="M313.846 111.5L330.506 63.2H341.426L357.666 111.5H349.896L345.976 99.25H325.396L321.336 111.5H313.846ZM327.496 92.95H343.876L336.456 69.85H335.196L327.496 92.95Z" fill="black"/>
<path d="M369.561 111.5L386.221 63.2H397.141L413.381 111.5H405.611L401.691 99.25H381.111L377.051 111.5H369.561ZM383.211 92.95H399.591L392.171 69.85H390.911L383.211 92.95Z" fill="#3C8AFF"/>
<rect width="224" height="174" transform="translate(448)" fill="#3C8AFF"/>
<path d="M482.13 111.5L498.79 63.2H509.71L525.95 111.5H518.18L514.26 99.25H493.68L489.62 111.5H482.13ZM495.78 92.95H512.16L504.74 69.85H503.48L495.78 92.95Z" fill="white"/>
<path d="M537.846 111.5L554.506 63.2H565.426L581.666 111.5H573.896L569.976 99.25H549.396L545.336 111.5H537.846ZM551.496 92.95H567.876L560.456 69.85H559.196L551.496 92.95Z" fill="#0A0B0D"/>
<path d="M593.561 111.5L610.221 63.2H621.141L637.381 111.5H629.611L625.691 99.25H605.111L601.051 111.5H593.561ZM607.211 92.95H623.591L616.171 69.85H614.911L607.211 92.95Z" fill="#0000FF"/>
<rect width="224" height="174" transform="translate(0 174)" fill="#EEF0F3"/>
<path d="M59.4666 256L71.3666 221.5H79.1666L90.7666 256H85.2166L82.4166 247.25H67.7166L64.8166 256H59.4666ZM69.2166 242.75H80.9166L75.6166 226.25H74.7166L69.2166 242.75Z" fill="#0A0B0D"/>
<path d="M96.2635 256L108.163 221.5H115.963L127.563 256H122.013L119.213 247.25H104.513L101.613 256H96.2635ZM106.013 242.75H117.713L112.413 226.25H111.513L106.013 242.75Z" fill="#0000FF"/>
<path d="M133.06 256L144.96 221.5H152.76L164.36 256H158.81L156.01 247.25H141.31L138.41 256H133.06ZM142.81 242.75H154.51L149.21 226.25H148.31L142.81 242.75Z" fill="#B8A581"/>
<path d="M61.2781 301L73.1781 266.5H80.9781L92.5781 301H87.0281L84.2281 292.25H69.5281L66.6281 301H61.2781ZM71.0281 287.75H82.7281L77.4281 271.25H76.5281L71.0281 287.75Z" fill="#66C800"/>
<path d="M98.075 301L109.975 266.5H117.775L129.375 301H123.825L121.025 292.25H106.325L103.425 301H98.075ZM107.825 287.75H119.525L114.225 271.25H113.325L107.825 287.75Z" fill="#FC401F"/>
<path d="M134.872 301L146.772 266.5H154.572L166.172 301H160.622L157.822 292.25H143.122L140.222 301H134.872ZM144.622 287.75H156.322L151.022 271.25H150.122L144.622 287.75Z" fill="#3C8AFF"/>
<rect width="224" height="174" transform="translate(224 174)" fill="#B8A581"/>
<path d="M258.13 285.5L274.79 237.2H285.71L301.95 285.5H294.18L290.26 273.25H269.68L265.62 285.5H258.13ZM271.78 266.95H288.16L280.74 243.85H279.48L271.78 266.95Z" fill="white"/>
<path d="M313.846 285.5L330.506 237.2H341.426L357.666 285.5H349.896L345.976 273.25H325.396L321.336 285.5H313.846ZM327.496 266.95H343.876L336.456 243.85H335.196L327.496 266.95Z" fill="#0A0B0D"/>
<path d="M369.561 285.5L386.221 237.2H397.141L413.381 285.5H405.611L401.691 273.25H381.111L377.051 285.5H369.561ZM383.211 266.95H399.591L392.171 243.85H390.911L383.211 266.95Z" fill="#FFD12F"/>
<rect width="224" height="174" transform="translate(448 174)" fill="#FFD12F"/>
<path d="M482.13 285.5L498.79 237.2H509.71L525.95 285.5H518.18L514.26 273.25H493.68L489.62 285.5H482.13ZM495.78 266.95H512.16L504.74 243.85H503.48L495.78 266.95Z" fill="white"/>
<path d="M537.846 285.5L554.506 237.2H565.426L581.666 285.5H573.896L569.976 273.25H549.396L545.336 285.5H537.846ZM551.496 266.95H567.876L560.456 243.85H559.196L551.496 266.95Z" fill="#0A0B0D"/>
<path d="M593.561 285.5L610.221 237.2H621.141L637.381 285.5H629.611L625.691 273.25H605.111L601.051 285.5H593.561ZM607.211 266.95H623.591L616.171 243.85H614.911L607.211 266.95Z" fill="#B8A581"/>
<rect width="224" height="174" transform="translate(0 348)" fill="#B1B7C3"/>
<path d="M78.365 430L90.265 395.5H98.065L109.665 430H104.115L101.315 421.25H86.615L83.715 430H78.365ZM88.115 416.75H99.815L94.515 400.25H93.615L88.115 416.75Z" fill="#0A0B0D"/>
<path d="M115.162 430L127.062 395.5H134.862L146.462 430H140.912L138.112 421.25H123.412L120.512 430H115.162ZM124.912 416.75H136.612L131.312 400.25H130.412L124.912 416.75Z" fill="#0000FF"/>
<path d="M61.7781 475L73.6781 440.5H81.4781L93.0781 475H87.5281L84.7281 466.25H70.0281L67.1281 475H61.7781ZM71.5281 461.75H83.2281L77.9281 445.25H77.0281L71.5281 461.75Z" fill="white"/>
<path d="M98.575 475L110.475 440.5H118.275L129.875 475H124.325L121.525 466.25H106.825L103.925 475H98.575ZM108.325 461.75H120.025L114.725 445.25H113.825L108.325 461.75Z" fill="#FFD12F"/>
<path d="M135.372 475L147.272 440.5H155.072L166.672 475H161.122L158.322 466.25H143.622L140.722 475H135.372ZM145.122 461.75H156.822L151.522 445.25H150.622L145.122 461.75Z" fill="#B6F569"/>
<rect width="224" height="174" transform="translate(224 348)" fill="#66C800"/>
<path d="M258.13 459.5L274.79 411.2H285.71L301.95 459.5H294.18L290.26 447.25H269.68L265.62 459.5H258.13ZM271.78 440.95H288.16L280.74 417.85H279.48L271.78 440.95Z" fill="white"/>
<path d="M313.846 459.5L330.506 411.2H341.426L357.666 459.5H349.896L345.976 447.25H325.396L321.336 459.5H313.846ZM327.496 440.95H343.876L336.456 417.85H335.196L327.496 440.95Z" fill="#0A0B0D"/>
<path d="M369.561 459.5L386.221 411.2H397.141L413.381 459.5H405.611L401.691 447.25H381.111L377.051 459.5H369.561ZM383.211 440.95H399.591L392.171 417.85H390.911L383.211 440.95Z" fill="#B6F569"/>
<rect width="224" height="174" transform="translate(448 348)" fill="#B6F569"/>
<path d="M482.13 459.5L498.79 411.2H509.71L525.95 459.5H518.18L514.26 447.25H493.68L489.62 459.5H482.13ZM495.78 440.95H512.16L504.74 417.85H503.48L495.78 440.95Z" fill="white"/>
<path d="M537.846 459.5L554.506 411.2H565.426L581.666 459.5H573.896L569.976 447.25H549.396L545.336 459.5H537.846ZM551.496 440.95H567.876L560.456 417.85H559.196L551.496 440.95Z" fill="#0A0B0D"/>
<path d="M593.561 459.5L610.221 411.2H621.141L637.381 459.5H629.611L625.691 447.25H605.111L601.051 459.5H593.561ZM607.211 440.95H623.591L616.171 417.85H614.911L607.211 440.95Z" fill="#66C800"/>
<rect width="224" height="174" transform="translate(0 522)" fill="#0A0B0D"/>
<path d="M41.0682 604L52.9682 569.5H60.7682L72.3682 604H66.8182L64.0182 595.25H49.3182L46.4182 604H41.0682ZM50.8182 590.75H62.5182L57.2182 574.25H56.3182L50.8182 590.75Z" fill="#B8A581"/>
<path d="M77.865 604L89.765 569.5H97.565L109.165 604H103.615L100.815 595.25H86.115L83.215 604H77.865ZM87.615 590.75H99.315L94.015 574.25H93.115L87.615 590.75Z" fill="#66C800"/>
<path d="M114.662 604L126.562 569.5H134.362L145.962 604H140.412L137.612 595.25H122.912L120.012 604H114.662ZM124.412 590.75H136.112L130.812 574.25H129.912L124.412 590.75Z" fill="#FC401F"/>
<path d="M151.459 604L163.359 569.5H171.159L182.759 604H177.209L174.409 595.25H159.709L156.809 604H151.459ZM161.209 590.75H172.909L167.609 574.25H166.709L161.209 590.75Z" fill="white"/>
<path d="M41.0682 649L52.9682 614.5H60.7682L72.3682 649H66.8182L64.0182 640.25H49.3182L46.4182 649H41.0682ZM50.8182 635.75H62.5182L57.2182 619.25H56.3182L50.8182 635.75Z" fill="#3C8AFF"/>
<path d="M77.865 649L89.765 614.5H97.565L109.165 649H103.615L100.815 640.25H86.115L83.215 649H77.865ZM87.615 635.75H99.315L94.015 619.25H93.115L87.615 635.75Z" fill="#FFD12F"/>
<path d="M114.662 649L126.562 614.5H134.362L145.962 649H140.412L137.612 640.25H122.912L120.012 649H114.662ZM124.412 635.75H136.112L130.812 619.25H129.912L124.412 635.75Z" fill="#B6F569"/>
<path d="M151.459 649L163.359 614.5H171.159L182.759 649H177.209L174.409 640.25H159.709L156.809 649H151.459ZM161.209 635.75H172.909L167.609 619.25H166.709L161.209 635.75Z" fill="#FEA8CD"/>
<rect width="224" height="174" transform="translate(224 522)" fill="#FC401F"/>
<path d="M258.13 633.5L274.79 585.2H285.71L301.95 633.5H294.18L290.26 621.25H269.68L265.62 633.5H258.13ZM271.78 614.95H288.16L280.74 591.85H279.48L271.78 614.95Z" fill="white"/>
<path d="M313.846 633.5L330.506 585.2H341.426L357.666 633.5H349.896L345.976 621.25H325.396L321.336 633.5H313.846ZM327.496 614.95H343.876L336.456 591.85H335.196L327.496 614.95Z" fill="#0A0B0D"/>
<path d="M369.561 633.5L386.221 585.2H397.141L413.381 633.5H405.611L401.691 621.25H381.111L377.051 633.5H369.561ZM383.211 614.95H399.591L392.171 591.85H390.911L383.211 614.95Z" fill="#FEA8CD"/>
<rect width="224" height="174" transform="translate(448 522)" fill="#FEA8CD"/>
<path d="M482.13 633.5L498.79 585.2H509.71L525.95 633.5H518.18L514.26 621.25H493.68L489.62 633.5H482.13ZM495.78 614.95H512.16L504.74 591.85H503.48L495.78 614.95Z" fill="white"/>
<path d="M537.846 633.5L554.506 585.2H565.426L581.666 633.5H573.896L569.976 621.25H549.396L545.336 633.5H537.846ZM551.496 614.95H567.876L560.456 591.85H559.196L551.496 614.95Z" fill="#0A0B0D"/>
<path d="M593.561 633.5L610.221 585.2H621.141L637.381 633.5H629.611L625.691 621.25H605.111L601.051 633.5H593.561ZM607.211 614.95H623.591L616.171 591.85H614.911L607.211 614.95Z" fill="#FC401F"/>
</g>
<defs>
<clipPath id="clip0_3388_13387">
<rect width="671" height="696" rx="8" fill="white"/>
</clipPath>
</defs>
</svg>
