<svg width="671" height="520" viewBox="0 0 671 520" fill="none" xmlns="http://www.w3.org/2000/svg">
<g clip-path="url(#clip0_4826_5544)">
<rect width="671" height="520" rx="8" fill="#FAFAFA"/>
<path d="M282.604 304.697C275.697 304.697 269.041 302.186 265.148 295.53H262.887V302.814H247.189V216.162H262.887V247.683H265.148C269.166 240.776 276.701 238.139 283.483 238.139C300.436 238.139 311.865 251.702 311.865 270.79C311.865 290.255 299.306 304.697 282.604 304.697ZM279.213 290.632C288.883 290.632 295.79 282.72 295.79 271.418C295.79 260.116 288.757 252.204 279.213 252.204C269.794 252.204 262.887 259.739 262.887 271.418C262.887 283.097 269.794 290.632 279.213 290.632ZM340.874 304.697C328.818 304.697 319.023 297.414 319.023 285.483C319.023 271.418 329.823 266.897 342.883 265.516L361.344 263.632V260.116C361.344 254.716 356.949 250.948 349.163 250.948C341.753 250.948 337.483 254.213 336.102 259.111H321.032C322.539 247.181 332.46 238.139 349.163 238.139C365.237 238.139 375.912 245.925 375.912 261.12V291.762C375.912 295.655 376.288 301.056 376.54 302.562V302.814H361.47C361.344 300.679 361.344 298.669 361.344 296.535H359.084C355.191 302.814 348.409 304.697 340.874 304.697ZM345.144 292.893C355.442 292.893 361.344 285.107 361.344 277.195V274.055L347.53 275.688C338.99 276.692 334.846 279.204 334.846 284.73C334.846 289.879 339.116 292.893 345.144 292.893ZM413.586 304.697C397.763 304.697 386.461 296.786 384.702 284.353H400.149C401.907 289.879 407.684 292.265 413.712 292.265C419.866 292.265 424.889 289.627 424.889 284.981C424.889 280.334 420.117 279.079 413.586 277.948L406.931 276.818C394.372 274.683 386.586 269.409 386.586 258.106C386.586 245.799 397.386 238.139 412.331 238.139C426.898 238.139 436.568 244.92 439.205 256.725H424.135C422.377 252.078 417.731 250.195 412.456 250.195C406.051 250.195 401.907 252.957 401.907 256.85C401.907 260.869 405.172 262.125 411.954 263.255L418.61 264.385C430.791 266.395 440.084 271.418 440.084 283.6C440.084 296.911 429.033 304.697 413.586 304.697ZM479.392 304.697C460.052 304.697 447.243 291.511 447.243 271.292C447.243 251.45 460.806 238.139 479.517 238.139C499.108 238.139 510.411 252.706 510.411 271.92V274.683H462.564C463.317 285.107 470.601 291.26 479.392 291.26C486.676 291.26 491.071 288.748 493.206 284.353H509.28C506.015 296.158 494.336 304.697 479.392 304.697ZM495.09 264.26C493.834 255.846 487.178 250.948 479.392 250.948C471.229 250.948 464.322 255.72 462.815 264.26H495.09Z" fill="#0A0B0D"/>
<path d="M164.021 302.814C161.51 302.814 160.254 301.558 160.254 299.046V243.79C160.254 241.278 161.51 240.022 164.021 240.022H219.278C221.789 240.022 223.045 241.278 223.045 243.79V299.046C223.045 301.558 221.789 302.814 219.278 302.814H164.021Z" fill="#0000FF"/>
<line y1="-0.5" x2="948.988" y2="-0.5" transform="matrix(1 -0.000923052 0.00116942 0.999999 -139 303.558)" stroke="#FF0000"/>
<path d="M-139 240.528L809.988 239.652" stroke="#FF0000"/>
<path d="M250.339 207L253.576 202.437L250.521 198.03H252.185L254.382 201.397H254.59L256.813 198.03H258.386L255.344 202.385L258.542 207H256.878L254.538 203.438H254.317L251.925 207H250.339Z" fill="#0A0B0D"/>
<path d="M262.369 203.444L262.369 212.973" stroke="#0A0B0D" stroke-width="1.5"/>
<path d="M247 203.444L247 212.973" stroke="#0A0B0D" stroke-width="1.5"/>
<path d="M262.369 208.208L247.074 208.208" stroke="#0A0B0D" stroke-width="1.5"/>
<path d="M229.451 333.556V326.328H229.23L227.553 327.29V325.99L229.62 324.781H230.816V333.556H229.451ZM232.77 333.556V331.892H234.408V333.556H232.77ZM238.835 333.751C237.067 333.751 235.923 332.737 235.65 331.268H237.08C237.275 331.97 237.873 332.529 238.848 332.529C239.914 332.529 240.616 331.736 240.616 330.683C240.616 329.643 239.979 328.837 238.861 328.837C237.847 328.837 237.301 329.513 237.132 330.072L235.767 330.02L236.027 324.781H241.344V326.016H237.158L237.028 328.681H237.236C237.587 328.109 238.276 327.667 239.264 327.667C240.941 327.667 242.007 328.954 242.007 330.67C242.007 332.477 240.655 333.751 238.835 333.751ZM231.701 351.556L234.08 348.306L231.766 345.056H233.287L234.847 347.344H235.055L236.576 345.056H238.019L235.744 348.254L238.149 351.556H236.615L234.99 349.216H234.769L233.157 351.556H231.701Z" fill="#0A0B0D"/>
<path d="M246.326 307.646L246.326 317.174" stroke="#0A0B0D" stroke-width="1.5"/>
<path d="M246.326 312.41L227.197 312.41" stroke="#0A0B0D" stroke-width="1.5"/>
<path d="M223 307.646L223 317.174" stroke="#0A0B0D" stroke-width="1.5"/>
<path d="M234.656 312.41L223.056 312.41" stroke="#0A0B0D" stroke-width="1.5"/>
</g>
<defs>
<clipPath id="clip0_4826_5544">
<rect width="671" height="520" rx="8" fill="white"/>
</clipPath>
</defs>
</svg>
