<svg width="1021" height="1035" viewBox="0 0 1021 1035" fill="none" xmlns="http://www.w3.org/2000/svg">
<g clip-path="url(#clip0_4116_19576)">
<rect y="0.351562" width="1021" height="1034" rx="8" fill="#FAFAFA"/>
<path d="M46.5 380.08H67.5C67.78 380.08 67.92 380.08 67.92 380.08C67.92 380.08 67.92 380.22 67.92 380.5V401.5C67.92 401.78 67.92 401.92 67.92 401.92C67.92 401.92 67.78 401.92 67.5 401.92H46.5C46.22 401.92 46.08 401.92 46.08 401.92C46.08 401.92 46.08 401.78 46.08 401.5V380.5C46.08 380.22 46.08 380.08 46.08 380.08C46.08 380.08 46.22 380.08 46.5 380.08ZM88.5 380.08H109.5C109.78 380.08 109.92 380.08 109.92 380.08C109.92 380.08 109.92 380.22 109.92 380.5V401.5C109.92 401.78 109.92 401.92 109.92 401.92C109.92 401.92 109.78 401.92 109.5 401.92H88.5C88.22 401.92 88.08 401.92 88.08 401.92C88.08 401.92 88.08 401.78 88.08 401.5V380.5C88.08 380.22 88.08 380.08 88.08 380.08C88.08 380.08 88.22 380.08 88.5 380.08ZM130.5 380.08H151.5C151.78 380.08 151.92 380.08 151.92 380.08C151.92 380.08 151.92 380.22 151.92 380.5V401.5C151.92 401.78 151.92 401.92 151.92 401.92C151.92 401.92 151.78 401.92 151.5 401.92H130.5C130.22 401.92 130.08 401.92 130.08 401.92C130.08 401.92 130.08 401.78 130.08 401.5V380.5C130.08 380.22 130.08 380.08 130.08 380.08C130.08 380.08 130.22 380.08 130.5 380.08ZM172.5 380.08H193.5C193.78 380.08 193.92 380.08 193.92 380.08C193.92 380.08 193.92 380.22 193.92 380.5V401.5C193.92 401.78 193.92 401.92 193.92 401.92C193.92 401.92 193.78 401.92 193.5 401.92H172.5C172.22 401.92 172.08 401.92 172.08 401.92C172.08 401.92 172.08 401.78 172.08 401.5V380.5C172.08 380.22 172.08 380.08 172.08 380.08C172.08 380.08 172.22 380.08 172.5 380.08ZM88.5 422.08H109.5C109.78 422.08 109.92 422.08 109.92 422.08C109.92 422.08 109.92 422.22 109.92 422.5V443.5C109.92 443.78 109.92 443.92 109.92 443.92C109.92 443.92 109.78 443.92 109.5 443.92H88.5C88.22 443.92 88.08 443.92 88.08 443.92C88.08 443.92 88.08 443.78 88.08 443.5V422.5C88.08 422.22 88.08 422.08 88.08 422.08C88.08 422.08 88.22 422.08 88.5 422.08ZM214.5 422.08H235.5C235.78 422.08 235.92 422.08 235.92 422.08C235.92 422.08 235.92 422.22 235.92 422.5V443.5C235.92 443.78 235.92 443.92 235.92 443.92C235.92 443.92 235.78 443.92 235.5 443.92H214.5C214.22 443.92 214.08 443.92 214.08 443.92C214.08 443.92 214.08 443.78 214.08 443.5V422.5C214.08 422.22 214.08 422.08 214.08 422.08C214.08 422.08 214.22 422.08 214.5 422.08ZM88.5 464.08H109.5C109.78 464.08 109.92 464.08 109.92 464.08C109.92 464.08 109.92 464.22 109.92 464.5V485.5C109.92 485.78 109.92 485.92 109.92 485.92C109.92 485.92 109.78 485.92 109.5 485.92H88.5C88.22 485.92 88.08 485.92 88.08 485.92C88.08 485.92 88.08 485.78 88.08 485.5V464.5C88.08 464.22 88.08 464.08 88.08 464.08C88.08 464.08 88.22 464.08 88.5 464.08ZM214.5 464.08H235.5C235.78 464.08 235.92 464.08 235.92 464.08C235.92 464.08 235.92 464.22 235.92 464.5V485.5C235.92 485.78 235.92 485.92 235.92 485.92C235.92 485.92 235.78 485.92 235.5 485.92H214.5C214.22 485.92 214.08 485.92 214.08 485.92C214.08 485.92 214.08 485.78 214.08 485.5V464.5C214.08 464.22 214.08 464.08 214.08 464.08C214.08 464.08 214.22 464.08 214.5 464.08ZM88.5 506.08H109.5C109.78 506.08 109.92 506.08 109.92 506.08C109.92 506.08 109.92 506.22 109.92 506.5V527.5C109.92 527.78 109.92 527.92 109.92 527.92C109.92 527.92 109.78 527.92 109.5 527.92H88.5C88.22 527.92 88.08 527.92 88.08 527.92C88.08 527.92 88.08 527.78 88.08 527.5V506.5C88.08 506.22 88.08 506.08 88.08 506.08C88.08 506.08 88.22 506.08 88.5 506.08ZM214.5 506.08H235.5C235.78 506.08 235.92 506.08 235.92 506.08C235.92 506.08 235.92 506.22 235.92 506.5V527.5C235.92 527.78 235.92 527.92 235.92 527.92C235.92 527.92 235.78 527.92 235.5 527.92H214.5C214.22 527.92 214.08 527.92 214.08 527.92C214.08 527.92 214.08 527.78 214.08 527.5V506.5C214.08 506.22 214.08 506.08 214.08 506.08C214.08 506.08 214.22 506.08 214.5 506.08ZM88.5 548.08H109.5C109.78 548.08 109.92 548.08 109.92 548.08C109.92 548.08 109.92 548.22 109.92 548.5V569.5C109.92 569.78 109.92 569.92 109.92 569.92C109.92 569.92 109.78 569.92 109.5 569.92H88.5C88.22 569.92 88.08 569.92 88.08 569.92C88.08 569.92 88.08 569.78 88.08 569.5V548.5C88.08 548.22 88.08 548.08 88.08 548.08C88.08 548.08 88.22 548.08 88.5 548.08ZM214.5 548.08H235.5C235.78 548.08 235.92 548.08 235.92 548.08C235.92 548.08 235.92 548.22 235.92 548.5V569.5C235.92 569.78 235.92 569.92 235.92 569.92C235.92 569.92 235.78 569.92 235.5 569.92H214.5C214.22 569.92 214.08 569.92 214.08 569.92C214.08 569.92 214.08 569.78 214.08 569.5V548.5C214.08 548.22 214.08 548.08 214.08 548.08C214.08 548.08 214.22 548.08 214.5 548.08ZM88.5 590.08H109.5C109.78 590.08 109.92 590.08 109.92 590.08C109.92 590.08 109.92 590.22 109.92 590.5V611.5C109.92 611.78 109.92 611.92 109.92 611.92C109.92 611.92 109.78 611.92 109.5 611.92H88.5C88.22 611.92 88.08 611.92 88.08 611.92C88.08 611.92 88.08 611.78 88.08 611.5V590.5C88.08 590.22 88.08 590.08 88.08 590.08C88.08 590.08 88.22 590.08 88.5 590.08ZM214.5 590.08H235.5C235.78 590.08 235.92 590.08 235.92 590.08C235.92 590.08 235.92 590.22 235.92 590.5V611.5C235.92 611.78 235.92 611.92 235.92 611.92C235.92 611.92 235.78 611.92 235.5 611.92H214.5C214.22 611.92 214.08 611.92 214.08 611.92C214.08 611.92 214.08 611.78 214.08 611.5V590.5C214.08 590.22 214.08 590.08 214.08 590.08C214.08 590.08 214.22 590.08 214.5 590.08ZM46.5 632.08H67.5C67.78 632.08 67.92 632.08 67.92 632.08C67.92 632.08 67.92 632.22 67.92 632.5V653.5C67.92 653.78 67.92 653.92 67.92 653.92C67.92 653.92 67.78 653.92 67.5 653.92H46.5C46.22 653.92 46.08 653.92 46.08 653.92C46.08 653.92 46.08 653.78 46.08 653.5V632.5C46.08 632.22 46.08 632.08 46.08 632.08C46.08 632.08 46.22 632.08 46.5 632.08ZM88.5 632.08H109.5C109.78 632.08 109.92 632.08 109.92 632.08C109.92 632.08 109.92 632.22 109.92 632.5V653.5C109.92 653.78 109.92 653.92 109.92 653.92C109.92 653.92 109.78 653.92 109.5 653.92H88.5C88.22 653.92 88.08 653.92 88.08 653.92C88.08 653.92 88.08 653.78 88.08 653.5V632.5C88.08 632.22 88.08 632.08 88.08 632.08C88.08 632.08 88.22 632.08 88.5 632.08ZM130.5 632.08H151.5C151.78 632.08 151.92 632.08 151.92 632.08C151.92 632.08 151.92 632.22 151.92 632.5V653.5C151.92 653.78 151.92 653.92 151.92 653.92C151.92 653.92 151.78 653.92 151.5 653.92H130.5C130.22 653.92 130.08 653.92 130.08 653.92C130.08 653.92 130.08 653.78 130.08 653.5V632.5C130.08 632.22 130.08 632.08 130.08 632.08C130.08 632.08 130.22 632.08 130.5 632.08ZM172.5 632.08H193.5C193.78 632.08 193.92 632.08 193.92 632.08C193.92 632.08 193.92 632.22 193.92 632.5V653.5C193.92 653.78 193.92 653.92 193.92 653.92C193.92 653.92 193.78 653.92 193.5 653.92H172.5C172.22 653.92 172.08 653.92 172.08 653.92C172.08 653.92 172.08 653.78 172.08 653.5V632.5C172.08 632.22 172.08 632.08 172.08 632.08C172.08 632.08 172.22 632.08 172.5 632.08ZM331.936 380.08H352.936C353.216 380.08 353.356 380.08 353.356 380.08C353.356 380.08 353.356 380.22 353.356 380.5V401.5C353.356 401.78 353.356 401.92 353.356 401.92C353.356 401.92 353.216 401.92 352.936 401.92H331.936C331.656 401.92 331.516 401.92 331.516 401.92C331.516 401.92 331.516 401.78 331.516 401.5V380.5C331.516 380.22 331.516 380.08 331.516 380.08C331.516 380.08 331.656 380.08 331.936 380.08ZM373.936 380.08H394.936C395.216 380.08 395.356 380.08 395.356 380.08C395.356 380.08 395.356 380.22 395.356 380.5V401.5C395.356 401.78 395.356 401.92 395.356 401.92C395.356 401.92 395.216 401.92 394.936 401.92H373.936C373.656 401.92 373.516 401.92 373.516 401.92C373.516 401.92 373.516 401.78 373.516 401.5V380.5C373.516 380.22 373.516 380.08 373.516 380.08C373.516 380.08 373.656 380.08 373.936 380.08ZM415.936 380.08H436.936C437.216 380.08 437.356 380.08 437.356 380.08C437.356 380.08 437.356 380.22 437.356 380.5V401.5C437.356 401.78 437.356 401.92 437.356 401.92C437.356 401.92 437.216 401.92 436.936 401.92H415.936C415.656 401.92 415.516 401.92 415.516 401.92C415.516 401.92 415.516 401.78 415.516 401.5V380.5C415.516 380.22 415.516 380.08 415.516 380.08C415.516 380.08 415.656 380.08 415.936 380.08ZM289.936 422.08H310.936C311.216 422.08 311.356 422.08 311.356 422.08C311.356 422.08 311.356 422.22 311.356 422.5V443.5C311.356 443.78 311.356 443.92 311.356 443.92C311.356 443.92 311.216 443.92 310.936 443.92H289.936C289.656 443.92 289.516 443.92 289.516 443.92C289.516 443.92 289.516 443.78 289.516 443.5V422.5C289.516 422.22 289.516 422.08 289.516 422.08C289.516 422.08 289.656 422.08 289.936 422.08ZM457.936 422.08H478.936C479.216 422.08 479.356 422.08 479.356 422.08C479.356 422.08 479.356 422.22 479.356 422.5V443.5C479.356 443.78 479.356 443.92 479.356 443.92C479.356 443.92 479.216 443.92 478.936 443.92H457.936C457.656 443.92 457.516 443.92 457.516 443.92C457.516 443.92 457.516 443.78 457.516 443.5V422.5C457.516 422.22 457.516 422.08 457.516 422.08C457.516 422.08 457.656 422.08 457.936 422.08ZM289.936 464.08H310.936C311.216 464.08 311.356 464.08 311.356 464.08C311.356 464.08 311.356 464.22 311.356 464.5V485.5C311.356 485.78 311.356 485.92 311.356 485.92C311.356 485.92 311.216 485.92 310.936 485.92H289.936C289.656 485.92 289.516 485.92 289.516 485.92C289.516 485.92 289.516 485.78 289.516 485.5V464.5C289.516 464.22 289.516 464.08 289.516 464.08C289.516 464.08 289.656 464.08 289.936 464.08ZM457.936 464.08H478.936C479.216 464.08 479.356 464.08 479.356 464.08C479.356 464.08 479.356 464.22 479.356 464.5V485.5C479.356 485.78 479.356 485.92 479.356 485.92C479.356 485.92 479.216 485.92 478.936 485.92H457.936C457.656 485.92 457.516 485.92 457.516 485.92C457.516 485.92 457.516 485.78 457.516 485.5V464.5C457.516 464.22 457.516 464.08 457.516 464.08C457.516 464.08 457.656 464.08 457.936 464.08ZM289.936 506.08H310.936C311.216 506.08 311.356 506.08 311.356 506.08C311.356 506.08 311.356 506.22 311.356 506.5V527.5C311.356 527.78 311.356 527.92 311.356 527.92C311.356 527.92 311.216 527.92 310.936 527.92H289.936C289.656 527.92 289.516 527.92 289.516 527.92C289.516 527.92 289.516 527.78 289.516 527.5V506.5C289.516 506.22 289.516 506.08 289.516 506.08C289.516 506.08 289.656 506.08 289.936 506.08ZM457.936 506.08H478.936C479.216 506.08 479.356 506.08 479.356 506.08C479.356 506.08 479.356 506.22 479.356 506.5V527.5C479.356 527.78 479.356 527.92 479.356 527.92C479.356 527.92 479.216 527.92 478.936 527.92H457.936C457.656 527.92 457.516 527.92 457.516 527.92C457.516 527.92 457.516 527.78 457.516 527.5V506.5C457.516 506.22 457.516 506.08 457.516 506.08C457.516 506.08 457.656 506.08 457.936 506.08ZM289.936 548.08H310.936C311.216 548.08 311.356 548.08 311.356 548.08C311.356 548.08 311.356 548.22 311.356 548.5V569.5C311.356 569.78 311.356 569.92 311.356 569.92C311.356 569.92 311.216 569.92 310.936 569.92H289.936C289.656 569.92 289.516 569.92 289.516 569.92C289.516 569.92 289.516 569.78 289.516 569.5V548.5C289.516 548.22 289.516 548.08 289.516 548.08C289.516 548.08 289.656 548.08 289.936 548.08ZM457.936 548.08H478.936C479.216 548.08 479.356 548.08 479.356 548.08C479.356 548.08 479.356 548.22 479.356 548.5V569.5C479.356 569.78 479.356 569.92 479.356 569.92C479.356 569.92 479.216 569.92 478.936 569.92H457.936C457.656 569.92 457.516 569.92 457.516 569.92C457.516 569.92 457.516 569.78 457.516 569.5V548.5C457.516 548.22 457.516 548.08 457.516 548.08C457.516 548.08 457.656 548.08 457.936 548.08ZM289.936 590.08H310.936C311.216 590.08 311.356 590.08 311.356 590.08C311.356 590.08 311.356 590.22 311.356 590.5V611.5C311.356 611.78 311.356 611.92 311.356 611.92C311.356 611.92 311.216 611.92 310.936 611.92H289.936C289.656 611.92 289.516 611.92 289.516 611.92C289.516 611.92 289.516 611.78 289.516 611.5V590.5C289.516 590.22 289.516 590.08 289.516 590.08C289.516 590.08 289.656 590.08 289.936 590.08ZM457.936 590.08H478.936C479.216 590.08 479.356 590.08 479.356 590.08C479.356 590.08 479.356 590.22 479.356 590.5V611.5C479.356 611.78 479.356 611.92 479.356 611.92C479.356 611.92 479.216 611.92 478.936 611.92H457.936C457.656 611.92 457.516 611.92 457.516 611.92C457.516 611.92 457.516 611.78 457.516 611.5V590.5C457.516 590.22 457.516 590.08 457.516 590.08C457.516 590.08 457.656 590.08 457.936 590.08ZM331.936 632.08H352.936C353.216 632.08 353.356 632.08 353.356 632.08C353.356 632.08 353.356 632.22 353.356 632.5V653.5C353.356 653.78 353.356 653.92 353.356 653.92C353.356 653.92 353.216 653.92 352.936 653.92H331.936C331.656 653.92 331.516 653.92 331.516 653.92C331.516 653.92 331.516 653.78 331.516 653.5V632.5C331.516 632.22 331.516 632.08 331.516 632.08C331.516 632.08 331.656 632.08 331.936 632.08ZM373.936 632.08H394.936C395.216 632.08 395.356 632.08 395.356 632.08C395.356 632.08 395.356 632.22 395.356 632.5V653.5C395.356 653.78 395.356 653.92 395.356 653.92C395.356 653.92 395.216 653.92 394.936 653.92H373.936C373.656 653.92 373.516 653.92 373.516 653.92C373.516 653.92 373.516 653.78 373.516 653.5V632.5C373.516 632.22 373.516 632.08 373.516 632.08C373.516 632.08 373.656 632.08 373.936 632.08ZM415.936 632.08H436.936C437.216 632.08 437.356 632.08 437.356 632.08C437.356 632.08 437.356 632.22 437.356 632.5V653.5C437.356 653.78 437.356 653.92 437.356 653.92C437.356 653.92 437.216 653.92 436.936 653.92H415.936C415.656 653.92 415.516 653.92 415.516 653.92C415.516 653.92 415.516 653.78 415.516 653.5V632.5C415.516 632.22 415.516 632.08 415.516 632.08C415.516 632.08 415.656 632.08 415.936 632.08ZM533.372 380.08H554.372C554.652 380.08 554.792 380.08 554.792 380.08C554.792 380.08 554.792 380.22 554.792 380.5V401.5C554.792 401.78 554.792 401.92 554.792 401.92C554.792 401.92 554.652 401.92 554.372 401.92H533.372C533.092 401.92 532.952 401.92 532.952 401.92C532.952 401.92 532.952 401.78 532.952 401.5V380.5C532.952 380.22 532.952 380.08 532.952 380.08C532.952 380.08 533.092 380.08 533.372 380.08ZM575.372 380.08H596.372C596.652 380.08 596.792 380.08 596.792 380.08C596.792 380.08 596.792 380.22 596.792 380.5V401.5C596.792 401.78 596.792 401.92 596.792 401.92C596.792 401.92 596.652 401.92 596.372 401.92H575.372C575.092 401.92 574.952 401.92 574.952 401.92C574.952 401.92 574.952 401.78 574.952 401.5V380.5C574.952 380.22 574.952 380.08 574.952 380.08C574.952 380.08 575.092 380.08 575.372 380.08ZM617.372 380.08H638.372C638.652 380.08 638.792 380.08 638.792 380.08C638.792 380.08 638.792 380.22 638.792 380.5V401.5C638.792 401.78 638.792 401.92 638.792 401.92C638.792 401.92 638.652 401.92 638.372 401.92H617.372C617.092 401.92 616.952 401.92 616.952 401.92C616.952 401.92 616.952 401.78 616.952 401.5V380.5C616.952 380.22 616.952 380.08 616.952 380.08C616.952 380.08 617.092 380.08 617.372 380.08ZM659.372 380.08H680.372C680.652 380.08 680.792 380.08 680.792 380.08C680.792 380.08 680.792 380.22 680.792 380.5V401.5C680.792 401.78 680.792 401.92 680.792 401.92C680.792 401.92 680.652 401.92 680.372 401.92H659.372C659.092 401.92 658.952 401.92 658.952 401.92C658.952 401.92 658.952 401.78 658.952 401.5V380.5C658.952 380.22 658.952 380.08 658.952 380.08C658.952 380.08 659.092 380.08 659.372 380.08ZM701.372 380.08H722.372C722.652 380.08 722.792 380.08 722.792 380.08C722.792 380.08 722.792 380.22 722.792 380.5V401.5C722.792 401.78 722.792 401.92 722.792 401.92C722.792 401.92 722.652 401.92 722.372 401.92H701.372C701.092 401.92 700.952 401.92 700.952 401.92C700.952 401.92 700.952 401.78 700.952 401.5V380.5C700.952 380.22 700.952 380.08 700.952 380.08C700.952 380.08 701.092 380.08 701.372 380.08ZM617.372 422.08H638.372C638.652 422.08 638.792 422.08 638.792 422.08C638.792 422.08 638.792 422.22 638.792 422.5V443.5C638.792 443.78 638.792 443.92 638.792 443.92C638.792 443.92 638.652 443.92 638.372 443.92H617.372C617.092 443.92 616.952 443.92 616.952 443.92C616.952 443.92 616.952 443.78 616.952 443.5V422.5C616.952 422.22 616.952 422.08 616.952 422.08C616.952 422.08 617.092 422.08 617.372 422.08ZM617.372 464.08H638.372C638.652 464.08 638.792 464.08 638.792 464.08C638.792 464.08 638.792 464.22 638.792 464.5V485.5C638.792 485.78 638.792 485.92 638.792 485.92C638.792 485.92 638.652 485.92 638.372 485.92H617.372C617.092 485.92 616.952 485.92 616.952 485.92C616.952 485.92 616.952 485.78 616.952 485.5V464.5C616.952 464.22 616.952 464.08 616.952 464.08C616.952 464.08 617.092 464.08 617.372 464.08ZM617.372 506.08H638.372C638.652 506.08 638.792 506.08 638.792 506.08C638.792 506.08 638.792 506.22 638.792 506.5V527.5C638.792 527.78 638.792 527.92 638.792 527.92C638.792 527.92 638.652 527.92 638.372 527.92H617.372C617.092 527.92 616.952 527.92 616.952 527.92C616.952 527.92 616.952 527.78 616.952 527.5V506.5C616.952 506.22 616.952 506.08 616.952 506.08C616.952 506.08 617.092 506.08 617.372 506.08ZM617.372 548.08H638.372C638.652 548.08 638.792 548.08 638.792 548.08C638.792 548.08 638.792 548.22 638.792 548.5V569.5C638.792 569.78 638.792 569.92 638.792 569.92C638.792 569.92 638.652 569.92 638.372 569.92H617.372C617.092 569.92 616.952 569.92 616.952 569.92C616.952 569.92 616.952 569.78 616.952 569.5V548.5C616.952 548.22 616.952 548.08 616.952 548.08C616.952 548.08 617.092 548.08 617.372 548.08ZM617.372 590.08H638.372C638.652 590.08 638.792 590.08 638.792 590.08C638.792 590.08 638.792 590.22 638.792 590.5V611.5C638.792 611.78 638.792 611.92 638.792 611.92C638.792 611.92 638.652 611.92 638.372 611.92H617.372C617.092 611.92 616.952 611.92 616.952 611.92C616.952 611.92 616.952 611.78 616.952 611.5V590.5C616.952 590.22 616.952 590.08 616.952 590.08C616.952 590.08 617.092 590.08 617.372 590.08ZM617.372 632.08H638.372C638.652 632.08 638.792 632.08 638.792 632.08C638.792 632.08 638.792 632.22 638.792 632.5V653.5C638.792 653.78 638.792 653.92 638.792 653.92C638.792 653.92 638.652 653.92 638.372 653.92H617.372C617.092 653.92 616.952 653.92 616.952 653.92C616.952 653.92 616.952 653.78 616.952 653.5V632.5C616.952 632.22 616.952 632.08 616.952 632.08C616.952 632.08 617.092 632.08 617.372 632.08ZM818.808 380.08H839.808C840.088 380.08 840.228 380.08 840.228 380.08C840.228 380.08 840.228 380.22 840.228 380.5V401.5C840.228 401.78 840.228 401.92 840.228 401.92C840.228 401.92 840.088 401.92 839.808 401.92H818.808C818.528 401.92 818.388 401.92 818.388 401.92C818.388 401.92 818.388 401.78 818.388 401.5V380.5C818.388 380.22 818.388 380.08 818.388 380.08C818.388 380.08 818.528 380.08 818.808 380.08ZM860.808 380.08H881.808C882.088 380.08 882.228 380.08 882.228 380.08C882.228 380.08 882.228 380.22 882.228 380.5V401.5C882.228 401.78 882.228 401.92 882.228 401.92C882.228 401.92 882.088 401.92 881.808 401.92H860.808C860.528 401.92 860.388 401.92 860.388 401.92C860.388 401.92 860.388 401.78 860.388 401.5V380.5C860.388 380.22 860.388 380.08 860.388 380.08C860.388 380.08 860.528 380.08 860.808 380.08ZM902.808 380.08H923.808C924.088 380.08 924.228 380.08 924.228 380.08C924.228 380.08 924.228 380.22 924.228 380.5V401.5C924.228 401.78 924.228 401.92 924.228 401.92C924.228 401.92 924.088 401.92 923.808 401.92H902.808C902.528 401.92 902.388 401.92 902.388 401.92C902.388 401.92 902.388 401.78 902.388 401.5V380.5C902.388 380.22 902.388 380.08 902.388 380.08C902.388 380.08 902.528 380.08 902.808 380.08ZM776.808 422.08H797.808C798.088 422.08 798.228 422.08 798.228 422.08C798.228 422.08 798.228 422.22 798.228 422.5V443.5C798.228 443.78 798.228 443.92 798.228 443.92C798.228 443.92 798.088 443.92 797.808 443.92H776.808C776.528 443.92 776.388 443.92 776.388 443.92C776.388 443.92 776.388 443.78 776.388 443.5V422.5C776.388 422.22 776.388 422.08 776.388 422.08C776.388 422.08 776.528 422.08 776.808 422.08ZM944.808 422.08H965.808C966.088 422.08 966.228 422.08 966.228 422.08C966.228 422.08 966.228 422.22 966.228 422.5V443.5C966.228 443.78 966.228 443.92 966.228 443.92C966.228 443.92 966.088 443.92 965.808 443.92H944.808C944.528 443.92 944.388 443.92 944.388 443.92C944.388 443.92 944.388 443.78 944.388 443.5V422.5C944.388 422.22 944.388 422.08 944.388 422.08C944.388 422.08 944.528 422.08 944.808 422.08ZM776.808 464.08H797.808C798.088 464.08 798.228 464.08 798.228 464.08C798.228 464.08 798.228 464.22 798.228 464.5V485.5C798.228 485.78 798.228 485.92 798.228 485.92C798.228 485.92 798.088 485.92 797.808 485.92H776.808C776.528 485.92 776.388 485.92 776.388 485.92C776.388 485.92 776.388 485.78 776.388 485.5V464.5C776.388 464.22 776.388 464.08 776.388 464.08C776.388 464.08 776.528 464.08 776.808 464.08ZM944.808 464.08H965.808C966.088 464.08 966.228 464.08 966.228 464.08C966.228 464.08 966.228 464.22 966.228 464.5V485.5C966.228 485.78 966.228 485.92 966.228 485.92C966.228 485.92 966.088 485.92 965.808 485.92H944.808C944.528 485.92 944.388 485.92 944.388 485.92C944.388 485.92 944.388 485.78 944.388 485.5V464.5C944.388 464.22 944.388 464.08 944.388 464.08C944.388 464.08 944.528 464.08 944.808 464.08ZM776.808 506.08H797.808C798.088 506.08 798.228 506.08 798.228 506.08C798.228 506.08 798.228 506.22 798.228 506.5V527.5C798.228 527.78 798.228 527.92 798.228 527.92C798.228 527.92 798.088 527.92 797.808 527.92H776.808C776.528 527.92 776.388 527.92 776.388 527.92C776.388 527.92 776.388 527.78 776.388 527.5V506.5C776.388 506.22 776.388 506.08 776.388 506.08C776.388 506.08 776.528 506.08 776.808 506.08ZM944.808 506.08H965.808C966.088 506.08 966.228 506.08 966.228 506.08C966.228 506.08 966.228 506.22 966.228 506.5V527.5C966.228 527.78 966.228 527.92 966.228 527.92C966.228 527.92 966.088 527.92 965.808 527.92H944.808C944.528 527.92 944.388 527.92 944.388 527.92C944.388 527.92 944.388 527.78 944.388 527.5V506.5C944.388 506.22 944.388 506.08 944.388 506.08C944.388 506.08 944.528 506.08 944.808 506.08ZM776.808 548.08H797.808C798.088 548.08 798.228 548.08 798.228 548.08C798.228 548.08 798.228 548.22 798.228 548.5V569.5C798.228 569.78 798.228 569.92 798.228 569.92C798.228 569.92 798.088 569.92 797.808 569.92H776.808C776.528 569.92 776.388 569.92 776.388 569.92C776.388 569.92 776.388 569.78 776.388 569.5V548.5C776.388 548.22 776.388 548.08 776.388 548.08C776.388 548.08 776.528 548.08 776.808 548.08ZM944.808 548.08H965.808C966.088 548.08 966.228 548.08 966.228 548.08C966.228 548.08 966.228 548.22 966.228 548.5V569.5C966.228 569.78 966.228 569.92 966.228 569.92C966.228 569.92 966.088 569.92 965.808 569.92H944.808C944.528 569.92 944.388 569.92 944.388 569.92C944.388 569.92 944.388 569.78 944.388 569.5V548.5C944.388 548.22 944.388 548.08 944.388 548.08C944.388 548.08 944.528 548.08 944.808 548.08ZM776.808 590.08H797.808C798.088 590.08 798.228 590.08 798.228 590.08C798.228 590.08 798.228 590.22 798.228 590.5V611.5C798.228 611.78 798.228 611.92 798.228 611.92C798.228 611.92 798.088 611.92 797.808 611.92H776.808C776.528 611.92 776.388 611.92 776.388 611.92C776.388 611.92 776.388 611.78 776.388 611.5V590.5C776.388 590.22 776.388 590.08 776.388 590.08C776.388 590.08 776.528 590.08 776.808 590.08ZM944.808 590.08H965.808C966.088 590.08 966.228 590.08 966.228 590.08C966.228 590.08 966.228 590.22 966.228 590.5V611.5C966.228 611.78 966.228 611.92 966.228 611.92C966.228 611.92 966.088 611.92 965.808 611.92H944.808C944.528 611.92 944.388 611.92 944.388 611.92C944.388 611.92 944.388 611.78 944.388 611.5V590.5C944.388 590.22 944.388 590.08 944.388 590.08C944.388 590.08 944.528 590.08 944.808 590.08ZM818.808 632.08H839.808C840.088 632.08 840.228 632.08 840.228 632.08C840.228 632.08 840.228 632.22 840.228 632.5V653.5C840.228 653.78 840.228 653.92 840.228 653.92C840.228 653.92 840.088 653.92 839.808 653.92H818.808C818.528 653.92 818.388 653.92 818.388 653.92C818.388 653.92 818.388 653.78 818.388 653.5V632.5C818.388 632.22 818.388 632.08 818.388 632.08C818.388 632.08 818.528 632.08 818.808 632.08ZM860.808 632.08H881.808C882.088 632.08 882.228 632.08 882.228 632.08C882.228 632.08 882.228 632.22 882.228 632.5V653.5C882.228 653.78 882.228 653.92 882.228 653.92C882.228 653.92 882.088 653.92 881.808 653.92H860.808C860.528 653.92 860.388 653.92 860.388 653.92C860.388 653.92 860.388 653.78 860.388 653.5V632.5C860.388 632.22 860.388 632.08 860.388 632.08C860.388 632.08 860.528 632.08 860.808 632.08ZM902.808 632.08H923.808C924.088 632.08 924.228 632.08 924.228 632.08C924.228 632.08 924.228 632.22 924.228 632.5V653.5C924.228 653.78 924.228 653.92 924.228 653.92C924.228 653.92 924.088 653.92 923.808 653.92H902.808C902.528 653.92 902.388 653.92 902.388 653.92C902.388 653.92 902.388 653.78 902.388 653.5V632.5C902.388 632.22 902.388 632.08 902.388 632.08C902.388 632.08 902.528 632.08 902.808 632.08Z" fill="#0A0B0D"/>
<path d="M49.44 45.02H64.56C64.84 45.02 64.98 45.02 64.98 45.02C64.98 45.02 64.98 45.16 64.98 45.44V60.56C64.98 60.84 64.98 60.98 64.98 60.98C64.98 60.98 64.84 60.98 64.56 60.98H49.44C49.16 60.98 49.02 60.98 49.02 60.98C49.02 60.98 49.02 60.84 49.02 60.56V45.44C49.02 45.16 49.02 45.02 49.02 45.02C49.02 45.02 49.16 45.02 49.44 45.02ZM91.44 45.02H106.56C106.84 45.02 106.98 45.02 106.98 45.02C106.98 45.02 106.98 45.16 106.98 45.44V60.56C106.98 60.84 106.98 60.98 106.98 60.98C106.98 60.98 106.84 60.98 106.56 60.98H91.44C91.16 60.98 91.02 60.98 91.02 60.98C91.02 60.98 91.02 60.84 91.02 60.56V45.44C91.02 45.16 91.02 45.02 91.02 45.02C91.02 45.02 91.16 45.02 91.44 45.02ZM133.44 45.02H148.56C148.84 45.02 148.98 45.02 148.98 45.02C148.98 45.02 148.98 45.16 148.98 45.44V60.56C148.98 60.84 148.98 60.98 148.98 60.98C148.98 60.98 148.84 60.98 148.56 60.98H133.44C133.16 60.98 133.02 60.98 133.02 60.98C133.02 60.98 133.02 60.84 133.02 60.56V45.44C133.02 45.16 133.02 45.02 133.02 45.02C133.02 45.02 133.16 45.02 133.44 45.02ZM175.44 45.02H190.56C190.84 45.02 190.98 45.02 190.98 45.02C190.98 45.02 190.98 45.16 190.98 45.44V60.56C190.98 60.84 190.98 60.98 190.98 60.98C190.98 60.98 190.84 60.98 190.56 60.98H175.44C175.16 60.98 175.02 60.98 175.02 60.98C175.02 60.98 175.02 60.84 175.02 60.56V45.44C175.02 45.16 175.02 45.02 175.02 45.02C175.02 45.02 175.16 45.02 175.44 45.02ZM91.44 87.02H106.56C106.84 87.02 106.98 87.02 106.98 87.02C106.98 87.02 106.98 87.16 106.98 87.44V102.56C106.98 102.84 106.98 102.98 106.98 102.98C106.98 102.98 106.84 102.98 106.56 102.98H91.44C91.16 102.98 91.02 102.98 91.02 102.98C91.02 102.98 91.02 102.84 91.02 102.56V87.44C91.02 87.16 91.02 87.02 91.02 87.02C91.02 87.02 91.16 87.02 91.44 87.02ZM217.44 87.02H232.56C232.84 87.02 232.98 87.02 232.98 87.02C232.98 87.02 232.98 87.16 232.98 87.44V102.56C232.98 102.84 232.98 102.98 232.98 102.98C232.98 102.98 232.84 102.98 232.56 102.98H217.44C217.16 102.98 217.02 102.98 217.02 102.98C217.02 102.98 217.02 102.84 217.02 102.56V87.44C217.02 87.16 217.02 87.02 217.02 87.02C217.02 87.02 217.16 87.02 217.44 87.02ZM91.44 129.02H106.56C106.84 129.02 106.98 129.02 106.98 129.02C106.98 129.02 106.98 129.16 106.98 129.44V144.56C106.98 144.84 106.98 144.98 106.98 144.98C106.98 144.98 106.84 144.98 106.56 144.98H91.44C91.16 144.98 91.02 144.98 91.02 144.98C91.02 144.98 91.02 144.84 91.02 144.56V129.44C91.02 129.16 91.02 129.02 91.02 129.02C91.02 129.02 91.16 129.02 91.44 129.02ZM217.44 129.02H232.56C232.84 129.02 232.98 129.02 232.98 129.02C232.98 129.02 232.98 129.16 232.98 129.44V144.56C232.98 144.84 232.98 144.98 232.98 144.98C232.98 144.98 232.84 144.98 232.56 144.98H217.44C217.16 144.98 217.02 144.98 217.02 144.98C217.02 144.98 217.02 144.84 217.02 144.56V129.44C217.02 129.16 217.02 129.02 217.02 129.02C217.02 129.02 217.16 129.02 217.44 129.02ZM91.44 171.02H106.56C106.84 171.02 106.98 171.02 106.98 171.02C106.98 171.02 106.98 171.16 106.98 171.44V186.56C106.98 186.84 106.98 186.98 106.98 186.98C106.98 186.98 106.84 186.98 106.56 186.98H91.44C91.16 186.98 91.02 186.98 91.02 186.98C91.02 186.98 91.02 186.84 91.02 186.56V171.44C91.02 171.16 91.02 171.02 91.02 171.02C91.02 171.02 91.16 171.02 91.44 171.02ZM217.44 171.02H232.56C232.84 171.02 232.98 171.02 232.98 171.02C232.98 171.02 232.98 171.16 232.98 171.44V186.56C232.98 186.84 232.98 186.98 232.98 186.98C232.98 186.98 232.84 186.98 232.56 186.98H217.44C217.16 186.98 217.02 186.98 217.02 186.98C217.02 186.98 217.02 186.84 217.02 186.56V171.44C217.02 171.16 217.02 171.02 217.02 171.02C217.02 171.02 217.16 171.02 217.44 171.02ZM91.44 213.02H106.56C106.84 213.02 106.98 213.02 106.98 213.02C106.98 213.02 106.98 213.16 106.98 213.44V228.56C106.98 228.84 106.98 228.98 106.98 228.98C106.98 228.98 106.84 228.98 106.56 228.98H91.44C91.16 228.98 91.02 228.98 91.02 228.98C91.02 228.98 91.02 228.84 91.02 228.56V213.44C91.02 213.16 91.02 213.02 91.02 213.02C91.02 213.02 91.16 213.02 91.44 213.02ZM217.44 213.02H232.56C232.84 213.02 232.98 213.02 232.98 213.02C232.98 213.02 232.98 213.16 232.98 213.44V228.56C232.98 228.84 232.98 228.98 232.98 228.98C232.98 228.98 232.84 228.98 232.56 228.98H217.44C217.16 228.98 217.02 228.98 217.02 228.98C217.02 228.98 217.02 228.84 217.02 228.56V213.44C217.02 213.16 217.02 213.02 217.02 213.02C217.02 213.02 217.16 213.02 217.44 213.02ZM91.44 255.02H106.56C106.84 255.02 106.98 255.02 106.98 255.02C106.98 255.02 106.98 255.16 106.98 255.44V270.56C106.98 270.84 106.98 270.98 106.98 270.98C106.98 270.98 106.84 270.98 106.56 270.98H91.44C91.16 270.98 91.02 270.98 91.02 270.98C91.02 270.98 91.02 270.84 91.02 270.56V255.44C91.02 255.16 91.02 255.02 91.02 255.02C91.02 255.02 91.16 255.02 91.44 255.02ZM217.44 255.02H232.56C232.84 255.02 232.98 255.02 232.98 255.02C232.98 255.02 232.98 255.16 232.98 255.44V270.56C232.98 270.84 232.98 270.98 232.98 270.98C232.98 270.98 232.84 270.98 232.56 270.98H217.44C217.16 270.98 217.02 270.98 217.02 270.98C217.02 270.98 217.02 270.84 217.02 270.56V255.44C217.02 255.16 217.02 255.02 217.02 255.02C217.02 255.02 217.16 255.02 217.44 255.02ZM49.44 297.02H64.56C64.84 297.02 64.98 297.02 64.98 297.02C64.98 297.02 64.98 297.16 64.98 297.44V312.56C64.98 312.84 64.98 312.98 64.98 312.98C64.98 312.98 64.84 312.98 64.56 312.98H49.44C49.16 312.98 49.02 312.98 49.02 312.98C49.02 312.98 49.02 312.84 49.02 312.56V297.44C49.02 297.16 49.02 297.02 49.02 297.02C49.02 297.02 49.16 297.02 49.44 297.02ZM91.44 297.02H106.56C106.84 297.02 106.98 297.02 106.98 297.02C106.98 297.02 106.98 297.16 106.98 297.44V312.56C106.98 312.84 106.98 312.98 106.98 312.98C106.98 312.98 106.84 312.98 106.56 312.98H91.44C91.16 312.98 91.02 312.98 91.02 312.98C91.02 312.98 91.02 312.84 91.02 312.56V297.44C91.02 297.16 91.02 297.02 91.02 297.02C91.02 297.02 91.16 297.02 91.44 297.02ZM133.44 297.02H148.56C148.84 297.02 148.98 297.02 148.98 297.02C148.98 297.02 148.98 297.16 148.98 297.44V312.56C148.98 312.84 148.98 312.98 148.98 312.98C148.98 312.98 148.84 312.98 148.56 312.98H133.44C133.16 312.98 133.02 312.98 133.02 312.98C133.02 312.98 133.02 312.84 133.02 312.56V297.44C133.02 297.16 133.02 297.02 133.02 297.02C133.02 297.02 133.16 297.02 133.44 297.02ZM175.44 297.02H190.56C190.84 297.02 190.98 297.02 190.98 297.02C190.98 297.02 190.98 297.16 190.98 297.44V312.56C190.98 312.84 190.98 312.98 190.98 312.98C190.98 312.98 190.84 312.98 190.56 312.98H175.44C175.16 312.98 175.02 312.98 175.02 312.98C175.02 312.98 175.02 312.84 175.02 312.56V297.44C175.02 297.16 175.02 297.02 175.02 297.02C175.02 297.02 175.16 297.02 175.44 297.02ZM334.876 45.02H349.996C350.276 45.02 350.416 45.02 350.416 45.02C350.416 45.02 350.416 45.16 350.416 45.44V60.56C350.416 60.84 350.416 60.98 350.416 60.98C350.416 60.98 350.276 60.98 349.996 60.98H334.876C334.596 60.98 334.456 60.98 334.456 60.98C334.456 60.98 334.456 60.84 334.456 60.56V45.44C334.456 45.16 334.456 45.02 334.456 45.02C334.456 45.02 334.596 45.02 334.876 45.02ZM376.876 45.02H391.996C392.276 45.02 392.416 45.02 392.416 45.02C392.416 45.02 392.416 45.16 392.416 45.44V60.56C392.416 60.84 392.416 60.98 392.416 60.98C392.416 60.98 392.276 60.98 391.996 60.98H376.876C376.596 60.98 376.456 60.98 376.456 60.98C376.456 60.98 376.456 60.84 376.456 60.56V45.44C376.456 45.16 376.456 45.02 376.456 45.02C376.456 45.02 376.596 45.02 376.876 45.02ZM418.876 45.02H433.996C434.276 45.02 434.416 45.02 434.416 45.02C434.416 45.02 434.416 45.16 434.416 45.44V60.56C434.416 60.84 434.416 60.98 434.416 60.98C434.416 60.98 434.276 60.98 433.996 60.98H418.876C418.596 60.98 418.456 60.98 418.456 60.98C418.456 60.98 418.456 60.84 418.456 60.56V45.44C418.456 45.16 418.456 45.02 418.456 45.02C418.456 45.02 418.596 45.02 418.876 45.02ZM292.876 87.02H307.996C308.276 87.02 308.416 87.02 308.416 87.02C308.416 87.02 308.416 87.16 308.416 87.44V102.56C308.416 102.84 308.416 102.98 308.416 102.98C308.416 102.98 308.276 102.98 307.996 102.98H292.876C292.596 102.98 292.456 102.98 292.456 102.98C292.456 102.98 292.456 102.84 292.456 102.56V87.44C292.456 87.16 292.456 87.02 292.456 87.02C292.456 87.02 292.596 87.02 292.876 87.02ZM460.876 87.02H475.996C476.276 87.02 476.416 87.02 476.416 87.02C476.416 87.02 476.416 87.16 476.416 87.44V102.56C476.416 102.84 476.416 102.98 476.416 102.98C476.416 102.98 476.276 102.98 475.996 102.98H460.876C460.596 102.98 460.456 102.98 460.456 102.98C460.456 102.98 460.456 102.84 460.456 102.56V87.44C460.456 87.16 460.456 87.02 460.456 87.02C460.456 87.02 460.596 87.02 460.876 87.02ZM292.876 129.02H307.996C308.276 129.02 308.416 129.02 308.416 129.02C308.416 129.02 308.416 129.16 308.416 129.44V144.56C308.416 144.84 308.416 144.98 308.416 144.98C308.416 144.98 308.276 144.98 307.996 144.98H292.876C292.596 144.98 292.456 144.98 292.456 144.98C292.456 144.98 292.456 144.84 292.456 144.56V129.44C292.456 129.16 292.456 129.02 292.456 129.02C292.456 129.02 292.596 129.02 292.876 129.02ZM460.876 129.02H475.996C476.276 129.02 476.416 129.02 476.416 129.02C476.416 129.02 476.416 129.16 476.416 129.44V144.56C476.416 144.84 476.416 144.98 476.416 144.98C476.416 144.98 476.276 144.98 475.996 144.98H460.876C460.596 144.98 460.456 144.98 460.456 144.98C460.456 144.98 460.456 144.84 460.456 144.56V129.44C460.456 129.16 460.456 129.02 460.456 129.02C460.456 129.02 460.596 129.02 460.876 129.02ZM292.876 171.02H307.996C308.276 171.02 308.416 171.02 308.416 171.02C308.416 171.02 308.416 171.16 308.416 171.44V186.56C308.416 186.84 308.416 186.98 308.416 186.98C308.416 186.98 308.276 186.98 307.996 186.98H292.876C292.596 186.98 292.456 186.98 292.456 186.98C292.456 186.98 292.456 186.84 292.456 186.56V171.44C292.456 171.16 292.456 171.02 292.456 171.02C292.456 171.02 292.596 171.02 292.876 171.02ZM460.876 171.02H475.996C476.276 171.02 476.416 171.02 476.416 171.02C476.416 171.02 476.416 171.16 476.416 171.44V186.56C476.416 186.84 476.416 186.98 476.416 186.98C476.416 186.98 476.276 186.98 475.996 186.98H460.876C460.596 186.98 460.456 186.98 460.456 186.98C460.456 186.98 460.456 186.84 460.456 186.56V171.44C460.456 171.16 460.456 171.02 460.456 171.02C460.456 171.02 460.596 171.02 460.876 171.02ZM292.876 213.02H307.996C308.276 213.02 308.416 213.02 308.416 213.02C308.416 213.02 308.416 213.16 308.416 213.44V228.56C308.416 228.84 308.416 228.98 308.416 228.98C308.416 228.98 308.276 228.98 307.996 228.98H292.876C292.596 228.98 292.456 228.98 292.456 228.98C292.456 228.98 292.456 228.84 292.456 228.56V213.44C292.456 213.16 292.456 213.02 292.456 213.02C292.456 213.02 292.596 213.02 292.876 213.02ZM460.876 213.02H475.996C476.276 213.02 476.416 213.02 476.416 213.02C476.416 213.02 476.416 213.16 476.416 213.44V228.56C476.416 228.84 476.416 228.98 476.416 228.98C476.416 228.98 476.276 228.98 475.996 228.98H460.876C460.596 228.98 460.456 228.98 460.456 228.98C460.456 228.98 460.456 228.84 460.456 228.56V213.44C460.456 213.16 460.456 213.02 460.456 213.02C460.456 213.02 460.596 213.02 460.876 213.02ZM292.876 255.02H307.996C308.276 255.02 308.416 255.02 308.416 255.02C308.416 255.02 308.416 255.16 308.416 255.44V270.56C308.416 270.84 308.416 270.98 308.416 270.98C308.416 270.98 308.276 270.98 307.996 270.98H292.876C292.596 270.98 292.456 270.98 292.456 270.98C292.456 270.98 292.456 270.84 292.456 270.56V255.44C292.456 255.16 292.456 255.02 292.456 255.02C292.456 255.02 292.596 255.02 292.876 255.02ZM460.876 255.02H475.996C476.276 255.02 476.416 255.02 476.416 255.02C476.416 255.02 476.416 255.16 476.416 255.44V270.56C476.416 270.84 476.416 270.98 476.416 270.98C476.416 270.98 476.276 270.98 475.996 270.98H460.876C460.596 270.98 460.456 270.98 460.456 270.98C460.456 270.98 460.456 270.84 460.456 270.56V255.44C460.456 255.16 460.456 255.02 460.456 255.02C460.456 255.02 460.596 255.02 460.876 255.02ZM334.876 297.02H349.996C350.276 297.02 350.416 297.02 350.416 297.02C350.416 297.02 350.416 297.16 350.416 297.44V312.56C350.416 312.84 350.416 312.98 350.416 312.98C350.416 312.98 350.276 312.98 349.996 312.98H334.876C334.596 312.98 334.456 312.98 334.456 312.98C334.456 312.98 334.456 312.84 334.456 312.56V297.44C334.456 297.16 334.456 297.02 334.456 297.02C334.456 297.02 334.596 297.02 334.876 297.02ZM376.876 297.02H391.996C392.276 297.02 392.416 297.02 392.416 297.02C392.416 297.02 392.416 297.16 392.416 297.44V312.56C392.416 312.84 392.416 312.98 392.416 312.98C392.416 312.98 392.276 312.98 391.996 312.98H376.876C376.596 312.98 376.456 312.98 376.456 312.98C376.456 312.98 376.456 312.84 376.456 312.56V297.44C376.456 297.16 376.456 297.02 376.456 297.02C376.456 297.02 376.596 297.02 376.876 297.02ZM418.876 297.02H433.996C434.276 297.02 434.416 297.02 434.416 297.02C434.416 297.02 434.416 297.16 434.416 297.44V312.56C434.416 312.84 434.416 312.98 434.416 312.98C434.416 312.98 434.276 312.98 433.996 312.98H418.876C418.596 312.98 418.456 312.98 418.456 312.98C418.456 312.98 418.456 312.84 418.456 312.56V297.44C418.456 297.16 418.456 297.02 418.456 297.02C418.456 297.02 418.596 297.02 418.876 297.02ZM536.312 45.02H551.432C551.712 45.02 551.852 45.02 551.852 45.02C551.852 45.02 551.852 45.16 551.852 45.44V60.56C551.852 60.84 551.852 60.98 551.852 60.98C551.852 60.98 551.712 60.98 551.432 60.98H536.312C536.032 60.98 535.892 60.98 535.892 60.98C535.892 60.98 535.892 60.84 535.892 60.56V45.44C535.892 45.16 535.892 45.02 535.892 45.02C535.892 45.02 536.032 45.02 536.312 45.02ZM578.312 45.02H593.432C593.712 45.02 593.852 45.02 593.852 45.02C593.852 45.02 593.852 45.16 593.852 45.44V60.56C593.852 60.84 593.852 60.98 593.852 60.98C593.852 60.98 593.712 60.98 593.432 60.98H578.312C578.032 60.98 577.892 60.98 577.892 60.98C577.892 60.98 577.892 60.84 577.892 60.56V45.44C577.892 45.16 577.892 45.02 577.892 45.02C577.892 45.02 578.032 45.02 578.312 45.02ZM620.312 45.02H635.432C635.712 45.02 635.852 45.02 635.852 45.02C635.852 45.02 635.852 45.16 635.852 45.44V60.56C635.852 60.84 635.852 60.98 635.852 60.98C635.852 60.98 635.712 60.98 635.432 60.98H620.312C620.032 60.98 619.892 60.98 619.892 60.98C619.892 60.98 619.892 60.84 619.892 60.56V45.44C619.892 45.16 619.892 45.02 619.892 45.02C619.892 45.02 620.032 45.02 620.312 45.02ZM662.312 45.02H677.432C677.712 45.02 677.852 45.02 677.852 45.02C677.852 45.02 677.852 45.16 677.852 45.44V60.56C677.852 60.84 677.852 60.98 677.852 60.98C677.852 60.98 677.712 60.98 677.432 60.98H662.312C662.032 60.98 661.892 60.98 661.892 60.98C661.892 60.98 661.892 60.84 661.892 60.56V45.44C661.892 45.16 661.892 45.02 661.892 45.02C661.892 45.02 662.032 45.02 662.312 45.02ZM704.312 45.02H719.432C719.712 45.02 719.852 45.02 719.852 45.02C719.852 45.02 719.852 45.16 719.852 45.44V60.56C719.852 60.84 719.852 60.98 719.852 60.98C719.852 60.98 719.712 60.98 719.432 60.98H704.312C704.032 60.98 703.892 60.98 703.892 60.98C703.892 60.98 703.892 60.84 703.892 60.56V45.44C703.892 45.16 703.892 45.02 703.892 45.02C703.892 45.02 704.032 45.02 704.312 45.02ZM620.312 87.02H635.432C635.712 87.02 635.852 87.02 635.852 87.02C635.852 87.02 635.852 87.16 635.852 87.44V102.56C635.852 102.84 635.852 102.98 635.852 102.98C635.852 102.98 635.712 102.98 635.432 102.98H620.312C620.032 102.98 619.892 102.98 619.892 102.98C619.892 102.98 619.892 102.84 619.892 102.56V87.44C619.892 87.16 619.892 87.02 619.892 87.02C619.892 87.02 620.032 87.02 620.312 87.02ZM620.312 129.02H635.432C635.712 129.02 635.852 129.02 635.852 129.02C635.852 129.02 635.852 129.16 635.852 129.44V144.56C635.852 144.84 635.852 144.98 635.852 144.98C635.852 144.98 635.712 144.98 635.432 144.98H620.312C620.032 144.98 619.892 144.98 619.892 144.98C619.892 144.98 619.892 144.84 619.892 144.56V129.44C619.892 129.16 619.892 129.02 619.892 129.02C619.892 129.02 620.032 129.02 620.312 129.02ZM620.312 171.02H635.432C635.712 171.02 635.852 171.02 635.852 171.02C635.852 171.02 635.852 171.16 635.852 171.44V186.56C635.852 186.84 635.852 186.98 635.852 186.98C635.852 186.98 635.712 186.98 635.432 186.98H620.312C620.032 186.98 619.892 186.98 619.892 186.98C619.892 186.98 619.892 186.84 619.892 186.56V171.44C619.892 171.16 619.892 171.02 619.892 171.02C619.892 171.02 620.032 171.02 620.312 171.02ZM620.312 213.02H635.432C635.712 213.02 635.852 213.02 635.852 213.02C635.852 213.02 635.852 213.16 635.852 213.44V228.56C635.852 228.84 635.852 228.98 635.852 228.98C635.852 228.98 635.712 228.98 635.432 228.98H620.312C620.032 228.98 619.892 228.98 619.892 228.98C619.892 228.98 619.892 228.84 619.892 228.56V213.44C619.892 213.16 619.892 213.02 619.892 213.02C619.892 213.02 620.032 213.02 620.312 213.02ZM620.312 255.02H635.432C635.712 255.02 635.852 255.02 635.852 255.02C635.852 255.02 635.852 255.16 635.852 255.44V270.56C635.852 270.84 635.852 270.98 635.852 270.98C635.852 270.98 635.712 270.98 635.432 270.98H620.312C620.032 270.98 619.892 270.98 619.892 270.98C619.892 270.98 619.892 270.84 619.892 270.56V255.44C619.892 255.16 619.892 255.02 619.892 255.02C619.892 255.02 620.032 255.02 620.312 255.02ZM620.312 297.02H635.432C635.712 297.02 635.852 297.02 635.852 297.02C635.852 297.02 635.852 297.16 635.852 297.44V312.56C635.852 312.84 635.852 312.98 635.852 312.98C635.852 312.98 635.712 312.98 635.432 312.98H620.312C620.032 312.98 619.892 312.98 619.892 312.98C619.892 312.98 619.892 312.84 619.892 312.56V297.44C619.892 297.16 619.892 297.02 619.892 297.02C619.892 297.02 620.032 297.02 620.312 297.02ZM821.748 45.02H836.868C837.148 45.02 837.288 45.02 837.288 45.02C837.288 45.02 837.288 45.16 837.288 45.44V60.56C837.288 60.84 837.288 60.98 837.288 60.98C837.288 60.98 837.148 60.98 836.868 60.98H821.748C821.468 60.98 821.328 60.98 821.328 60.98C821.328 60.98 821.328 60.84 821.328 60.56V45.44C821.328 45.16 821.328 45.02 821.328 45.02C821.328 45.02 821.468 45.02 821.748 45.02ZM863.748 45.02H878.868C879.148 45.02 879.288 45.02 879.288 45.02C879.288 45.02 879.288 45.16 879.288 45.44V60.56C879.288 60.84 879.288 60.98 879.288 60.98C879.288 60.98 879.148 60.98 878.868 60.98H863.748C863.468 60.98 863.328 60.98 863.328 60.98C863.328 60.98 863.328 60.84 863.328 60.56V45.44C863.328 45.16 863.328 45.02 863.328 45.02C863.328 45.02 863.468 45.02 863.748 45.02ZM905.748 45.02H920.868C921.148 45.02 921.288 45.02 921.288 45.02C921.288 45.02 921.288 45.16 921.288 45.44V60.56C921.288 60.84 921.288 60.98 921.288 60.98C921.288 60.98 921.148 60.98 920.868 60.98H905.748C905.468 60.98 905.328 60.98 905.328 60.98C905.328 60.98 905.328 60.84 905.328 60.56V45.44C905.328 45.16 905.328 45.02 905.328 45.02C905.328 45.02 905.468 45.02 905.748 45.02ZM779.748 87.02H794.868C795.148 87.02 795.288 87.02 795.288 87.02C795.288 87.02 795.288 87.16 795.288 87.44V102.56C795.288 102.84 795.288 102.98 795.288 102.98C795.288 102.98 795.148 102.98 794.868 102.98H779.748C779.468 102.98 779.328 102.98 779.328 102.98C779.328 102.98 779.328 102.84 779.328 102.56V87.44C779.328 87.16 779.328 87.02 779.328 87.02C779.328 87.02 779.468 87.02 779.748 87.02ZM947.748 87.02H962.868C963.148 87.02 963.288 87.02 963.288 87.02C963.288 87.02 963.288 87.16 963.288 87.44V102.56C963.288 102.84 963.288 102.98 963.288 102.98C963.288 102.98 963.148 102.98 962.868 102.98H947.748C947.468 102.98 947.328 102.98 947.328 102.98C947.328 102.98 947.328 102.84 947.328 102.56V87.44C947.328 87.16 947.328 87.02 947.328 87.02C947.328 87.02 947.468 87.02 947.748 87.02ZM779.748 129.02H794.868C795.148 129.02 795.288 129.02 795.288 129.02C795.288 129.02 795.288 129.16 795.288 129.44V144.56C795.288 144.84 795.288 144.98 795.288 144.98C795.288 144.98 795.148 144.98 794.868 144.98H779.748C779.468 144.98 779.328 144.98 779.328 144.98C779.328 144.98 779.328 144.84 779.328 144.56V129.44C779.328 129.16 779.328 129.02 779.328 129.02C779.328 129.02 779.468 129.02 779.748 129.02ZM947.748 129.02H962.868C963.148 129.02 963.288 129.02 963.288 129.02C963.288 129.02 963.288 129.16 963.288 129.44V144.56C963.288 144.84 963.288 144.98 963.288 144.98C963.288 144.98 963.148 144.98 962.868 144.98H947.748C947.468 144.98 947.328 144.98 947.328 144.98C947.328 144.98 947.328 144.84 947.328 144.56V129.44C947.328 129.16 947.328 129.02 947.328 129.02C947.328 129.02 947.468 129.02 947.748 129.02ZM779.748 171.02H794.868C795.148 171.02 795.288 171.02 795.288 171.02C795.288 171.02 795.288 171.16 795.288 171.44V186.56C795.288 186.84 795.288 186.98 795.288 186.98C795.288 186.98 795.148 186.98 794.868 186.98H779.748C779.468 186.98 779.328 186.98 779.328 186.98C779.328 186.98 779.328 186.84 779.328 186.56V171.44C779.328 171.16 779.328 171.02 779.328 171.02C779.328 171.02 779.468 171.02 779.748 171.02ZM947.748 171.02H962.868C963.148 171.02 963.288 171.02 963.288 171.02C963.288 171.02 963.288 171.16 963.288 171.44V186.56C963.288 186.84 963.288 186.98 963.288 186.98C963.288 186.98 963.148 186.98 962.868 186.98H947.748C947.468 186.98 947.328 186.98 947.328 186.98C947.328 186.98 947.328 186.84 947.328 186.56V171.44C947.328 171.16 947.328 171.02 947.328 171.02C947.328 171.02 947.468 171.02 947.748 171.02ZM779.748 213.02H794.868C795.148 213.02 795.288 213.02 795.288 213.02C795.288 213.02 795.288 213.16 795.288 213.44V228.56C795.288 228.84 795.288 228.98 795.288 228.98C795.288 228.98 795.148 228.98 794.868 228.98H779.748C779.468 228.98 779.328 228.98 779.328 228.98C779.328 228.98 779.328 228.84 779.328 228.56V213.44C779.328 213.16 779.328 213.02 779.328 213.02C779.328 213.02 779.468 213.02 779.748 213.02ZM947.748 213.02H962.868C963.148 213.02 963.288 213.02 963.288 213.02C963.288 213.02 963.288 213.16 963.288 213.44V228.56C963.288 228.84 963.288 228.98 963.288 228.98C963.288 228.98 963.148 228.98 962.868 228.98H947.748C947.468 228.98 947.328 228.98 947.328 228.98C947.328 228.98 947.328 228.84 947.328 228.56V213.44C947.328 213.16 947.328 213.02 947.328 213.02C947.328 213.02 947.468 213.02 947.748 213.02ZM779.748 255.02H794.868C795.148 255.02 795.288 255.02 795.288 255.02C795.288 255.02 795.288 255.16 795.288 255.44V270.56C795.288 270.84 795.288 270.98 795.288 270.98C795.288 270.98 795.148 270.98 794.868 270.98H779.748C779.468 270.98 779.328 270.98 779.328 270.98C779.328 270.98 779.328 270.84 779.328 270.56V255.44C779.328 255.16 779.328 255.02 779.328 255.02C779.328 255.02 779.468 255.02 779.748 255.02ZM947.748 255.02H962.868C963.148 255.02 963.288 255.02 963.288 255.02C963.288 255.02 963.288 255.16 963.288 255.44V270.56C963.288 270.84 963.288 270.98 963.288 270.98C963.288 270.98 963.148 270.98 962.868 270.98H947.748C947.468 270.98 947.328 270.98 947.328 270.98C947.328 270.98 947.328 270.84 947.328 270.56V255.44C947.328 255.16 947.328 255.02 947.328 255.02C947.328 255.02 947.468 255.02 947.748 255.02ZM821.748 297.02H836.868C837.148 297.02 837.288 297.02 837.288 297.02C837.288 297.02 837.288 297.16 837.288 297.44V312.56C837.288 312.84 837.288 312.98 837.288 312.98C837.288 312.98 837.148 312.98 836.868 312.98H821.748C821.468 312.98 821.328 312.98 821.328 312.98C821.328 312.98 821.328 312.84 821.328 312.56V297.44C821.328 297.16 821.328 297.02 821.328 297.02C821.328 297.02 821.468 297.02 821.748 297.02ZM863.748 297.02H878.868C879.148 297.02 879.288 297.02 879.288 297.02C879.288 297.02 879.288 297.16 879.288 297.44V312.56C879.288 312.84 879.288 312.98 879.288 312.98C879.288 312.98 879.148 312.98 878.868 312.98H863.748C863.468 312.98 863.328 312.98 863.328 312.98C863.328 312.98 863.328 312.84 863.328 312.56V297.44C863.328 297.16 863.328 297.02 863.328 297.02C863.328 297.02 863.468 297.02 863.748 297.02ZM905.748 297.02H920.868C921.148 297.02 921.288 297.02 921.288 297.02C921.288 297.02 921.288 297.16 921.288 297.44V312.56C921.288 312.84 921.288 312.98 921.288 312.98C921.288 312.98 921.148 312.98 920.868 312.98H905.748C905.468 312.98 905.328 312.98 905.328 312.98C905.328 312.98 905.328 312.84 905.328 312.56V297.44C905.328 297.16 905.328 297.02 905.328 297.02C905.328 297.02 905.468 297.02 905.748 297.02Z" fill="#0A0B0D"/>
<path d="M41.88 713.04H72.54C72.82 713.04 72.96 713.04 72.96 713.04C72.96 713.04 72.96 713.18 72.96 713.46V744.12C72.96 744.4 72.96 744.54 72.96 744.54C72.96 744.54 72.82 744.54 72.54 744.54H41.88C41.6 744.54 41.46 744.54 41.46 744.54C41.46 744.54 41.46 744.4 41.46 744.12V713.46C41.46 713.18 41.46 713.04 41.46 713.04C41.46 713.04 41.6 713.04 41.88 713.04ZM83.88 713.04H114.54C114.82 713.04 114.96 713.04 114.96 713.04C114.96 713.04 114.96 713.18 114.96 713.46V744.12C114.96 744.4 114.96 744.54 114.96 744.54C114.96 744.54 114.82 744.54 114.54 744.54H83.88C83.6 744.54 83.46 744.54 83.46 744.54C83.46 744.54 83.46 744.4 83.46 744.12V713.46C83.46 713.18 83.46 713.04 83.46 713.04C83.46 713.04 83.6 713.04 83.88 713.04ZM125.88 713.04H156.54C156.82 713.04 156.96 713.04 156.96 713.04C156.96 713.04 156.96 713.18 156.96 713.46V744.12C156.96 744.4 156.96 744.54 156.96 744.54C156.96 744.54 156.82 744.54 156.54 744.54H125.88C125.6 744.54 125.46 744.54 125.46 744.54C125.46 744.54 125.46 744.4 125.46 744.12V713.46C125.46 713.18 125.46 713.04 125.46 713.04C125.46 713.04 125.6 713.04 125.88 713.04ZM167.88 713.04H198.54C198.82 713.04 198.96 713.04 198.96 713.04C198.96 713.04 198.96 713.18 198.96 713.46V744.12C198.96 744.4 198.96 744.54 198.96 744.54C198.96 744.54 198.82 744.54 198.54 744.54H167.88C167.6 744.54 167.46 744.54 167.46 744.54C167.46 744.54 167.46 744.4 167.46 744.12V713.46C167.46 713.18 167.46 713.04 167.46 713.04C167.46 713.04 167.6 713.04 167.88 713.04ZM83.88 755.04H114.54C114.82 755.04 114.96 755.04 114.96 755.04C114.96 755.04 114.96 755.18 114.96 755.46V786.12C114.96 786.4 114.96 786.54 114.96 786.54C114.96 786.54 114.82 786.54 114.54 786.54H83.88C83.6 786.54 83.46 786.54 83.46 786.54C83.46 786.54 83.46 786.4 83.46 786.12V755.46C83.46 755.18 83.46 755.04 83.46 755.04C83.46 755.04 83.6 755.04 83.88 755.04ZM209.88 755.04H240.54C240.82 755.04 240.96 755.04 240.96 755.04C240.96 755.04 240.96 755.18 240.96 755.46V786.12C240.96 786.4 240.96 786.54 240.96 786.54C240.96 786.54 240.82 786.54 240.54 786.54H209.88C209.6 786.54 209.46 786.54 209.46 786.54C209.46 786.54 209.46 786.4 209.46 786.12V755.46C209.46 755.18 209.46 755.04 209.46 755.04C209.46 755.04 209.6 755.04 209.88 755.04ZM83.88 797.04H114.54C114.82 797.04 114.96 797.04 114.96 797.04C114.96 797.04 114.96 797.18 114.96 797.46V828.12C114.96 828.4 114.96 828.54 114.96 828.54C114.96 828.54 114.82 828.54 114.54 828.54H83.88C83.6 828.54 83.46 828.54 83.46 828.54C83.46 828.54 83.46 828.4 83.46 828.12V797.46C83.46 797.18 83.46 797.04 83.46 797.04C83.46 797.04 83.6 797.04 83.88 797.04ZM209.88 797.04H240.54C240.82 797.04 240.96 797.04 240.96 797.04C240.96 797.04 240.96 797.18 240.96 797.46V828.12C240.96 828.4 240.96 828.54 240.96 828.54C240.96 828.54 240.82 828.54 240.54 828.54H209.88C209.6 828.54 209.46 828.54 209.46 828.54C209.46 828.54 209.46 828.4 209.46 828.12V797.46C209.46 797.18 209.46 797.04 209.46 797.04C209.46 797.04 209.6 797.04 209.88 797.04ZM83.88 839.04H114.54C114.82 839.04 114.96 839.04 114.96 839.04C114.96 839.04 114.96 839.18 114.96 839.46V870.12C114.96 870.4 114.96 870.54 114.96 870.54C114.96 870.54 114.82 870.54 114.54 870.54H83.88C83.6 870.54 83.46 870.54 83.46 870.54C83.46 870.54 83.46 870.4 83.46 870.12V839.46C83.46 839.18 83.46 839.04 83.46 839.04C83.46 839.04 83.6 839.04 83.88 839.04ZM209.88 839.04H240.54C240.82 839.04 240.96 839.04 240.96 839.04C240.96 839.04 240.96 839.18 240.96 839.46V870.12C240.96 870.4 240.96 870.54 240.96 870.54C240.96 870.54 240.82 870.54 240.54 870.54H209.88C209.6 870.54 209.46 870.54 209.46 870.54C209.46 870.54 209.46 870.4 209.46 870.12V839.46C209.46 839.18 209.46 839.04 209.46 839.04C209.46 839.04 209.6 839.04 209.88 839.04ZM83.88 881.04H114.54C114.82 881.04 114.96 881.04 114.96 881.04C114.96 881.04 114.96 881.18 114.96 881.46V912.12C114.96 912.4 114.96 912.54 114.96 912.54C114.96 912.54 114.82 912.54 114.54 912.54H83.88C83.6 912.54 83.46 912.54 83.46 912.54C83.46 912.54 83.46 912.4 83.46 912.12V881.46C83.46 881.18 83.46 881.04 83.46 881.04C83.46 881.04 83.6 881.04 83.88 881.04ZM209.88 881.04H240.54C240.82 881.04 240.96 881.04 240.96 881.04C240.96 881.04 240.96 881.18 240.96 881.46V912.12C240.96 912.4 240.96 912.54 240.96 912.54C240.96 912.54 240.82 912.54 240.54 912.54H209.88C209.6 912.54 209.46 912.54 209.46 912.54C209.46 912.54 209.46 912.4 209.46 912.12V881.46C209.46 881.18 209.46 881.04 209.46 881.04C209.46 881.04 209.6 881.04 209.88 881.04ZM83.88 923.04H114.54C114.82 923.04 114.96 923.04 114.96 923.04C114.96 923.04 114.96 923.18 114.96 923.46V954.12C114.96 954.4 114.96 954.54 114.96 954.54C114.96 954.54 114.82 954.54 114.54 954.54H83.88C83.6 954.54 83.46 954.54 83.46 954.54C83.46 954.54 83.46 954.4 83.46 954.12V923.46C83.46 923.18 83.46 923.04 83.46 923.04C83.46 923.04 83.6 923.04 83.88 923.04ZM209.88 923.04H240.54C240.82 923.04 240.96 923.04 240.96 923.04C240.96 923.04 240.96 923.18 240.96 923.46V954.12C240.96 954.4 240.96 954.54 240.96 954.54C240.96 954.54 240.82 954.54 240.54 954.54H209.88C209.6 954.54 209.46 954.54 209.46 954.54C209.46 954.54 209.46 954.4 209.46 954.12V923.46C209.46 923.18 209.46 923.04 209.46 923.04C209.46 923.04 209.6 923.04 209.88 923.04ZM41.88 965.04H72.54C72.82 965.04 72.96 965.04 72.96 965.04C72.96 965.04 72.96 965.18 72.96 965.46V996.12C72.96 996.4 72.96 996.54 72.96 996.54C72.96 996.54 72.82 996.54 72.54 996.54H41.88C41.6 996.54 41.46 996.54 41.46 996.54C41.46 996.54 41.46 996.4 41.46 996.12V965.46C41.46 965.18 41.46 965.04 41.46 965.04C41.46 965.04 41.6 965.04 41.88 965.04ZM83.88 965.04H114.54C114.82 965.04 114.96 965.04 114.96 965.04C114.96 965.04 114.96 965.18 114.96 965.46V996.12C114.96 996.4 114.96 996.54 114.96 996.54C114.96 996.54 114.82 996.54 114.54 996.54H83.88C83.6 996.54 83.46 996.54 83.46 996.54C83.46 996.54 83.46 996.4 83.46 996.12V965.46C83.46 965.18 83.46 965.04 83.46 965.04C83.46 965.04 83.6 965.04 83.88 965.04ZM125.88 965.04H156.54C156.82 965.04 156.96 965.04 156.96 965.04C156.96 965.04 156.96 965.18 156.96 965.46V996.12C156.96 996.4 156.96 996.54 156.96 996.54C156.96 996.54 156.82 996.54 156.54 996.54H125.88C125.6 996.54 125.46 996.54 125.46 996.54C125.46 996.54 125.46 996.4 125.46 996.12V965.46C125.46 965.18 125.46 965.04 125.46 965.04C125.46 965.04 125.6 965.04 125.88 965.04ZM167.88 965.04H198.54C198.82 965.04 198.96 965.04 198.96 965.04C198.96 965.04 198.96 965.18 198.96 965.46V996.12C198.96 996.4 198.96 996.54 198.96 996.54C198.96 996.54 198.82 996.54 198.54 996.54H167.88C167.6 996.54 167.46 996.54 167.46 996.54C167.46 996.54 167.46 996.4 167.46 996.12V965.46C167.46 965.18 167.46 965.04 167.46 965.04C167.46 965.04 167.6 965.04 167.88 965.04ZM327.316 713.04H357.976C358.256 713.04 358.396 713.04 358.396 713.04C358.396 713.04 358.396 713.18 358.396 713.46V744.12C358.396 744.4 358.396 744.54 358.396 744.54C358.396 744.54 358.256 744.54 357.976 744.54H327.316C327.036 744.54 326.896 744.54 326.896 744.54C326.896 744.54 326.896 744.4 326.896 744.12V713.46C326.896 713.18 326.896 713.04 326.896 713.04C326.896 713.04 327.036 713.04 327.316 713.04ZM369.316 713.04H399.976C400.256 713.04 400.396 713.04 400.396 713.04C400.396 713.04 400.396 713.18 400.396 713.46V744.12C400.396 744.4 400.396 744.54 400.396 744.54C400.396 744.54 400.256 744.54 399.976 744.54H369.316C369.036 744.54 368.896 744.54 368.896 744.54C368.896 744.54 368.896 744.4 368.896 744.12V713.46C368.896 713.18 368.896 713.04 368.896 713.04C368.896 713.04 369.036 713.04 369.316 713.04ZM411.316 713.04H441.976C442.256 713.04 442.396 713.04 442.396 713.04C442.396 713.04 442.396 713.18 442.396 713.46V744.12C442.396 744.4 442.396 744.54 442.396 744.54C442.396 744.54 442.256 744.54 441.976 744.54H411.316C411.036 744.54 410.896 744.54 410.896 744.54C410.896 744.54 410.896 744.4 410.896 744.12V713.46C410.896 713.18 410.896 713.04 410.896 713.04C410.896 713.04 411.036 713.04 411.316 713.04ZM285.316 755.04H315.976C316.256 755.04 316.396 755.04 316.396 755.04C316.396 755.04 316.396 755.18 316.396 755.46V786.12C316.396 786.4 316.396 786.54 316.396 786.54C316.396 786.54 316.256 786.54 315.976 786.54H285.316C285.036 786.54 284.896 786.54 284.896 786.54C284.896 786.54 284.896 786.4 284.896 786.12V755.46C284.896 755.18 284.896 755.04 284.896 755.04C284.896 755.04 285.036 755.04 285.316 755.04ZM453.316 755.04H483.976C484.256 755.04 484.396 755.04 484.396 755.04C484.396 755.04 484.396 755.18 484.396 755.46V786.12C484.396 786.4 484.396 786.54 484.396 786.54C484.396 786.54 484.256 786.54 483.976 786.54H453.316C453.036 786.54 452.896 786.54 452.896 786.54C452.896 786.54 452.896 786.4 452.896 786.12V755.46C452.896 755.18 452.896 755.04 452.896 755.04C452.896 755.04 453.036 755.04 453.316 755.04ZM285.316 797.04H315.976C316.256 797.04 316.396 797.04 316.396 797.04C316.396 797.04 316.396 797.18 316.396 797.46V828.12C316.396 828.4 316.396 828.54 316.396 828.54C316.396 828.54 316.256 828.54 315.976 828.54H285.316C285.036 828.54 284.896 828.54 284.896 828.54C284.896 828.54 284.896 828.4 284.896 828.12V797.46C284.896 797.18 284.896 797.04 284.896 797.04C284.896 797.04 285.036 797.04 285.316 797.04ZM453.316 797.04H483.976C484.256 797.04 484.396 797.04 484.396 797.04C484.396 797.04 484.396 797.18 484.396 797.46V828.12C484.396 828.4 484.396 828.54 484.396 828.54C484.396 828.54 484.256 828.54 483.976 828.54H453.316C453.036 828.54 452.896 828.54 452.896 828.54C452.896 828.54 452.896 828.4 452.896 828.12V797.46C452.896 797.18 452.896 797.04 452.896 797.04C452.896 797.04 453.036 797.04 453.316 797.04ZM285.316 839.04H315.976C316.256 839.04 316.396 839.04 316.396 839.04C316.396 839.04 316.396 839.18 316.396 839.46V870.12C316.396 870.4 316.396 870.54 316.396 870.54C316.396 870.54 316.256 870.54 315.976 870.54H285.316C285.036 870.54 284.896 870.54 284.896 870.54C284.896 870.54 284.896 870.4 284.896 870.12V839.46C284.896 839.18 284.896 839.04 284.896 839.04C284.896 839.04 285.036 839.04 285.316 839.04ZM453.316 839.04H483.976C484.256 839.04 484.396 839.04 484.396 839.04C484.396 839.04 484.396 839.18 484.396 839.46V870.12C484.396 870.4 484.396 870.54 484.396 870.54C484.396 870.54 484.256 870.54 483.976 870.54H453.316C453.036 870.54 452.896 870.54 452.896 870.54C452.896 870.54 452.896 870.4 452.896 870.12V839.46C452.896 839.18 452.896 839.04 452.896 839.04C452.896 839.04 453.036 839.04 453.316 839.04ZM285.316 881.04H315.976C316.256 881.04 316.396 881.04 316.396 881.04C316.396 881.04 316.396 881.18 316.396 881.46V912.12C316.396 912.4 316.396 912.54 316.396 912.54C316.396 912.54 316.256 912.54 315.976 912.54H285.316C285.036 912.54 284.896 912.54 284.896 912.54C284.896 912.54 284.896 912.4 284.896 912.12V881.46C284.896 881.18 284.896 881.04 284.896 881.04C284.896 881.04 285.036 881.04 285.316 881.04ZM453.316 881.04H483.976C484.256 881.04 484.396 881.04 484.396 881.04C484.396 881.04 484.396 881.18 484.396 881.46V912.12C484.396 912.4 484.396 912.54 484.396 912.54C484.396 912.54 484.256 912.54 483.976 912.54H453.316C453.036 912.54 452.896 912.54 452.896 912.54C452.896 912.54 452.896 912.4 452.896 912.12V881.46C452.896 881.18 452.896 881.04 452.896 881.04C452.896 881.04 453.036 881.04 453.316 881.04ZM285.316 923.04H315.976C316.256 923.04 316.396 923.04 316.396 923.04C316.396 923.04 316.396 923.18 316.396 923.46V954.12C316.396 954.4 316.396 954.54 316.396 954.54C316.396 954.54 316.256 954.54 315.976 954.54H285.316C285.036 954.54 284.896 954.54 284.896 954.54C284.896 954.54 284.896 954.4 284.896 954.12V923.46C284.896 923.18 284.896 923.04 284.896 923.04C284.896 923.04 285.036 923.04 285.316 923.04ZM453.316 923.04H483.976C484.256 923.04 484.396 923.04 484.396 923.04C484.396 923.04 484.396 923.18 484.396 923.46V954.12C484.396 954.4 484.396 954.54 484.396 954.54C484.396 954.54 484.256 954.54 483.976 954.54H453.316C453.036 954.54 452.896 954.54 452.896 954.54C452.896 954.54 452.896 954.4 452.896 954.12V923.46C452.896 923.18 452.896 923.04 452.896 923.04C452.896 923.04 453.036 923.04 453.316 923.04ZM327.316 965.04H357.976C358.256 965.04 358.396 965.04 358.396 965.04C358.396 965.04 358.396 965.18 358.396 965.46V996.12C358.396 996.4 358.396 996.54 358.396 996.54C358.396 996.54 358.256 996.54 357.976 996.54H327.316C327.036 996.54 326.896 996.54 326.896 996.54C326.896 996.54 326.896 996.4 326.896 996.12V965.46C326.896 965.18 326.896 965.04 326.896 965.04C326.896 965.04 327.036 965.04 327.316 965.04ZM369.316 965.04H399.976C400.256 965.04 400.396 965.04 400.396 965.04C400.396 965.04 400.396 965.18 400.396 965.46V996.12C400.396 996.4 400.396 996.54 400.396 996.54C400.396 996.54 400.256 996.54 399.976 996.54H369.316C369.036 996.54 368.896 996.54 368.896 996.54C368.896 996.54 368.896 996.4 368.896 996.12V965.46C368.896 965.18 368.896 965.04 368.896 965.04C368.896 965.04 369.036 965.04 369.316 965.04ZM411.316 965.04H441.976C442.256 965.04 442.396 965.04 442.396 965.04C442.396 965.04 442.396 965.18 442.396 965.46V996.12C442.396 996.4 442.396 996.54 442.396 996.54C442.396 996.54 442.256 996.54 441.976 996.54H411.316C411.036 996.54 410.896 996.54 410.896 996.54C410.896 996.54 410.896 996.4 410.896 996.12V965.46C410.896 965.18 410.896 965.04 410.896 965.04C410.896 965.04 411.036 965.04 411.316 965.04ZM528.752 713.04H559.412C559.692 713.04 559.832 713.04 559.832 713.04C559.832 713.04 559.832 713.18 559.832 713.46V744.12C559.832 744.4 559.832 744.54 559.832 744.54C559.832 744.54 559.692 744.54 559.412 744.54H528.752C528.472 744.54 528.332 744.54 528.332 744.54C528.332 744.54 528.332 744.4 528.332 744.12V713.46C528.332 713.18 528.332 713.04 528.332 713.04C528.332 713.04 528.472 713.04 528.752 713.04ZM570.752 713.04H601.412C601.692 713.04 601.832 713.04 601.832 713.04C601.832 713.04 601.832 713.18 601.832 713.46V744.12C601.832 744.4 601.832 744.54 601.832 744.54C601.832 744.54 601.692 744.54 601.412 744.54H570.752C570.472 744.54 570.332 744.54 570.332 744.54C570.332 744.54 570.332 744.4 570.332 744.12V713.46C570.332 713.18 570.332 713.04 570.332 713.04C570.332 713.04 570.472 713.04 570.752 713.04ZM612.752 713.04H643.412C643.692 713.04 643.832 713.04 643.832 713.04C643.832 713.04 643.832 713.18 643.832 713.46V744.12C643.832 744.4 643.832 744.54 643.832 744.54C643.832 744.54 643.692 744.54 643.412 744.54H612.752C612.472 744.54 612.332 744.54 612.332 744.54C612.332 744.54 612.332 744.4 612.332 744.12V713.46C612.332 713.18 612.332 713.04 612.332 713.04C612.332 713.04 612.472 713.04 612.752 713.04ZM654.752 713.04H685.412C685.692 713.04 685.832 713.04 685.832 713.04C685.832 713.04 685.832 713.18 685.832 713.46V744.12C685.832 744.4 685.832 744.54 685.832 744.54C685.832 744.54 685.692 744.54 685.412 744.54H654.752C654.472 744.54 654.332 744.54 654.332 744.54C654.332 744.54 654.332 744.4 654.332 744.12V713.46C654.332 713.18 654.332 713.04 654.332 713.04C654.332 713.04 654.472 713.04 654.752 713.04ZM696.752 713.04H727.412C727.692 713.04 727.832 713.04 727.832 713.04C727.832 713.04 727.832 713.18 727.832 713.46V744.12C727.832 744.4 727.832 744.54 727.832 744.54C727.832 744.54 727.692 744.54 727.412 744.54H696.752C696.472 744.54 696.332 744.54 696.332 744.54C696.332 744.54 696.332 744.4 696.332 744.12V713.46C696.332 713.18 696.332 713.04 696.332 713.04C696.332 713.04 696.472 713.04 696.752 713.04ZM612.752 755.04H643.412C643.692 755.04 643.832 755.04 643.832 755.04C643.832 755.04 643.832 755.18 643.832 755.46V786.12C643.832 786.4 643.832 786.54 643.832 786.54C643.832 786.54 643.692 786.54 643.412 786.54H612.752C612.472 786.54 612.332 786.54 612.332 786.54C612.332 786.54 612.332 786.4 612.332 786.12V755.46C612.332 755.18 612.332 755.04 612.332 755.04C612.332 755.04 612.472 755.04 612.752 755.04ZM612.752 797.04H643.412C643.692 797.04 643.832 797.04 643.832 797.04C643.832 797.04 643.832 797.18 643.832 797.46V828.12C643.832 828.4 643.832 828.54 643.832 828.54C643.832 828.54 643.692 828.54 643.412 828.54H612.752C612.472 828.54 612.332 828.54 612.332 828.54C612.332 828.54 612.332 828.4 612.332 828.12V797.46C612.332 797.18 612.332 797.04 612.332 797.04C612.332 797.04 612.472 797.04 612.752 797.04ZM612.752 839.04H643.412C643.692 839.04 643.832 839.04 643.832 839.04C643.832 839.04 643.832 839.18 643.832 839.46V870.12C643.832 870.4 643.832 870.54 643.832 870.54C643.832 870.54 643.692 870.54 643.412 870.54H612.752C612.472 870.54 612.332 870.54 612.332 870.54C612.332 870.54 612.332 870.4 612.332 870.12V839.46C612.332 839.18 612.332 839.04 612.332 839.04C612.332 839.04 612.472 839.04 612.752 839.04ZM612.752 881.04H643.412C643.692 881.04 643.832 881.04 643.832 881.04C643.832 881.04 643.832 881.18 643.832 881.46V912.12C643.832 912.4 643.832 912.54 643.832 912.54C643.832 912.54 643.692 912.54 643.412 912.54H612.752C612.472 912.54 612.332 912.54 612.332 912.54C612.332 912.54 612.332 912.4 612.332 912.12V881.46C612.332 881.18 612.332 881.04 612.332 881.04C612.332 881.04 612.472 881.04 612.752 881.04ZM612.752 923.04H643.412C643.692 923.04 643.832 923.04 643.832 923.04C643.832 923.04 643.832 923.18 643.832 923.46V954.12C643.832 954.4 643.832 954.54 643.832 954.54C643.832 954.54 643.692 954.54 643.412 954.54H612.752C612.472 954.54 612.332 954.54 612.332 954.54C612.332 954.54 612.332 954.4 612.332 954.12V923.46C612.332 923.18 612.332 923.04 612.332 923.04C612.332 923.04 612.472 923.04 612.752 923.04ZM612.752 965.04H643.412C643.692 965.04 643.832 965.04 643.832 965.04C643.832 965.04 643.832 965.18 643.832 965.46V996.12C643.832 996.4 643.832 996.54 643.832 996.54C643.832 996.54 643.692 996.54 643.412 996.54H612.752C612.472 996.54 612.332 996.54 612.332 996.54C612.332 996.54 612.332 996.4 612.332 996.12V965.46C612.332 965.18 612.332 965.04 612.332 965.04C612.332 965.04 612.472 965.04 612.752 965.04ZM814.188 713.04H844.848C845.128 713.04 845.268 713.04 845.268 713.04C845.268 713.04 845.268 713.18 845.268 713.46V744.12C845.268 744.4 845.268 744.54 845.268 744.54C845.268 744.54 845.128 744.54 844.848 744.54H814.188C813.908 744.54 813.768 744.54 813.768 744.54C813.768 744.54 813.768 744.4 813.768 744.12V713.46C813.768 713.18 813.768 713.04 813.768 713.04C813.768 713.04 813.908 713.04 814.188 713.04ZM856.188 713.04H886.848C887.128 713.04 887.268 713.04 887.268 713.04C887.268 713.04 887.268 713.18 887.268 713.46V744.12C887.268 744.4 887.268 744.54 887.268 744.54C887.268 744.54 887.128 744.54 886.848 744.54H856.188C855.908 744.54 855.768 744.54 855.768 744.54C855.768 744.54 855.768 744.4 855.768 744.12V713.46C855.768 713.18 855.768 713.04 855.768 713.04C855.768 713.04 855.908 713.04 856.188 713.04ZM898.188 713.04H928.848C929.128 713.04 929.268 713.04 929.268 713.04C929.268 713.04 929.268 713.18 929.268 713.46V744.12C929.268 744.4 929.268 744.54 929.268 744.54C929.268 744.54 929.128 744.54 928.848 744.54H898.188C897.908 744.54 897.768 744.54 897.768 744.54C897.768 744.54 897.768 744.4 897.768 744.12V713.46C897.768 713.18 897.768 713.04 897.768 713.04C897.768 713.04 897.908 713.04 898.188 713.04ZM772.188 755.04H802.848C803.128 755.04 803.268 755.04 803.268 755.04C803.268 755.04 803.268 755.18 803.268 755.46V786.12C803.268 786.4 803.268 786.54 803.268 786.54C803.268 786.54 803.128 786.54 802.848 786.54H772.188C771.908 786.54 771.768 786.54 771.768 786.54C771.768 786.54 771.768 786.4 771.768 786.12V755.46C771.768 755.18 771.768 755.04 771.768 755.04C771.768 755.04 771.908 755.04 772.188 755.04ZM940.188 755.04H970.848C971.128 755.04 971.268 755.04 971.268 755.04C971.268 755.04 971.268 755.18 971.268 755.46V786.12C971.268 786.4 971.268 786.54 971.268 786.54C971.268 786.54 971.128 786.54 970.848 786.54H940.188C939.908 786.54 939.768 786.54 939.768 786.54C939.768 786.54 939.768 786.4 939.768 786.12V755.46C939.768 755.18 939.768 755.04 939.768 755.04C939.768 755.04 939.908 755.04 940.188 755.04ZM772.188 797.04H802.848C803.128 797.04 803.268 797.04 803.268 797.04C803.268 797.04 803.268 797.18 803.268 797.46V828.12C803.268 828.4 803.268 828.54 803.268 828.54C803.268 828.54 803.128 828.54 802.848 828.54H772.188C771.908 828.54 771.768 828.54 771.768 828.54C771.768 828.54 771.768 828.4 771.768 828.12V797.46C771.768 797.18 771.768 797.04 771.768 797.04C771.768 797.04 771.908 797.04 772.188 797.04ZM940.188 797.04H970.848C971.128 797.04 971.268 797.04 971.268 797.04C971.268 797.04 971.268 797.18 971.268 797.46V828.12C971.268 828.4 971.268 828.54 971.268 828.54C971.268 828.54 971.128 828.54 970.848 828.54H940.188C939.908 828.54 939.768 828.54 939.768 828.54C939.768 828.54 939.768 828.4 939.768 828.12V797.46C939.768 797.18 939.768 797.04 939.768 797.04C939.768 797.04 939.908 797.04 940.188 797.04ZM772.188 839.04H802.848C803.128 839.04 803.268 839.04 803.268 839.04C803.268 839.04 803.268 839.18 803.268 839.46V870.12C803.268 870.4 803.268 870.54 803.268 870.54C803.268 870.54 803.128 870.54 802.848 870.54H772.188C771.908 870.54 771.768 870.54 771.768 870.54C771.768 870.54 771.768 870.4 771.768 870.12V839.46C771.768 839.18 771.768 839.04 771.768 839.04C771.768 839.04 771.908 839.04 772.188 839.04ZM940.188 839.04H970.848C971.128 839.04 971.268 839.04 971.268 839.04C971.268 839.04 971.268 839.18 971.268 839.46V870.12C971.268 870.4 971.268 870.54 971.268 870.54C971.268 870.54 971.128 870.54 970.848 870.54H940.188C939.908 870.54 939.768 870.54 939.768 870.54C939.768 870.54 939.768 870.4 939.768 870.12V839.46C939.768 839.18 939.768 839.04 939.768 839.04C939.768 839.04 939.908 839.04 940.188 839.04ZM772.188 881.04H802.848C803.128 881.04 803.268 881.04 803.268 881.04C803.268 881.04 803.268 881.18 803.268 881.46V912.12C803.268 912.4 803.268 912.54 803.268 912.54C803.268 912.54 803.128 912.54 802.848 912.54H772.188C771.908 912.54 771.768 912.54 771.768 912.54C771.768 912.54 771.768 912.4 771.768 912.12V881.46C771.768 881.18 771.768 881.04 771.768 881.04C771.768 881.04 771.908 881.04 772.188 881.04ZM940.188 881.04H970.848C971.128 881.04 971.268 881.04 971.268 881.04C971.268 881.04 971.268 881.18 971.268 881.46V912.12C971.268 912.4 971.268 912.54 971.268 912.54C971.268 912.54 971.128 912.54 970.848 912.54H940.188C939.908 912.54 939.768 912.54 939.768 912.54C939.768 912.54 939.768 912.4 939.768 912.12V881.46C939.768 881.18 939.768 881.04 939.768 881.04C939.768 881.04 939.908 881.04 940.188 881.04ZM772.188 923.04H802.848C803.128 923.04 803.268 923.04 803.268 923.04C803.268 923.04 803.268 923.18 803.268 923.46V954.12C803.268 954.4 803.268 954.54 803.268 954.54C803.268 954.54 803.128 954.54 802.848 954.54H772.188C771.908 954.54 771.768 954.54 771.768 954.54C771.768 954.54 771.768 954.4 771.768 954.12V923.46C771.768 923.18 771.768 923.04 771.768 923.04C771.768 923.04 771.908 923.04 772.188 923.04ZM940.188 923.04H970.848C971.128 923.04 971.268 923.04 971.268 923.04C971.268 923.04 971.268 923.18 971.268 923.46V954.12C971.268 954.4 971.268 954.54 971.268 954.54C971.268 954.54 971.128 954.54 970.848 954.54H940.188C939.908 954.54 939.768 954.54 939.768 954.54C939.768 954.54 939.768 954.4 939.768 954.12V923.46C939.768 923.18 939.768 923.04 939.768 923.04C939.768 923.04 939.908 923.04 940.188 923.04ZM814.188 965.04H844.848C845.128 965.04 845.268 965.04 845.268 965.04C845.268 965.04 845.268 965.18 845.268 965.46V996.12C845.268 996.4 845.268 996.54 845.268 996.54C845.268 996.54 845.128 996.54 844.848 996.54H814.188C813.908 996.54 813.768 996.54 813.768 996.54C813.768 996.54 813.768 996.4 813.768 996.12V965.46C813.768 965.18 813.768 965.04 813.768 965.04C813.768 965.04 813.908 965.04 814.188 965.04ZM856.188 965.04H886.848C887.128 965.04 887.268 965.04 887.268 965.04C887.268 965.04 887.268 965.18 887.268 965.46V996.12C887.268 996.4 887.268 996.54 887.268 996.54C887.268 996.54 887.128 996.54 886.848 996.54H856.188C855.908 996.54 855.768 996.54 855.768 996.54C855.768 996.54 855.768 996.4 855.768 996.12V965.46C855.768 965.18 855.768 965.04 855.768 965.04C855.768 965.04 855.908 965.04 856.188 965.04ZM898.188 965.04H928.848C929.128 965.04 929.268 965.04 929.268 965.04C929.268 965.04 929.268 965.18 929.268 965.46V996.12C929.268 996.4 929.268 996.54 929.268 996.54C929.268 996.54 929.128 996.54 928.848 996.54H898.188C897.908 996.54 897.768 996.54 897.768 996.54C897.768 996.54 897.768 996.4 897.768 996.12V965.46C897.768 965.18 897.768 965.04 897.768 965.04C897.768 965.04 897.908 965.04 898.188 965.04Z" fill="#0A0B0D"/>
</g>
<defs>
<clipPath id="clip0_4116_19576">
<rect y="0.351562" width="1021" height="1034" rx="8" fill="white"/>
</clipPath>
</defs>
</svg>
