<svg width="192" height="192" viewBox="0 0 192 192" fill="none" xmlns="http://www.w3.org/2000/svg">
<rect width="192" height="192" fill="white"/>
<path d="M96.0008 37.4096C99.6453 41.0269 102.536 45.3212 104.509 50.0474C106.481 54.7735 107.496 59.839 107.496 64.9546C107.496 70.0702 106.481 75.1356 104.509 79.8618C102.536 84.588 99.6453 88.8823 96.0008 92.4995L68.2487 64.9546L96.0008 37.4096Z" fill="#0125F6"/>
<path d="M40.4963 37.4105C44.1408 33.7932 48.4674 30.9239 53.2291 28.9662C57.9908 27.0086 63.0944 26.001 68.2484 26.001C73.4025 26.001 78.5061 27.0086 83.2678 28.9662C88.0295 30.9239 92.3561 33.7932 96.0006 37.4105L68.2484 64.9554L40.4963 37.4105Z" fill="#FE23FF"/>
<path d="M95.9999 37.4096C92.3554 41.0268 89.4645 45.3211 87.4921 50.0473C85.5198 54.7735 84.5046 59.839 84.5046 64.9545C84.5046 70.0701 85.5198 75.1356 87.4921 79.8617C89.4645 84.5879 92.3554 88.8822 95.9999 92.4995L123.752 64.9545L95.9999 37.4096Z" fill="#0125F6"/>
<path d="M95.9995 92.4986C99.644 96.1158 103.971 98.9852 108.732 100.943C113.494 102.901 118.598 103.908 123.752 103.908C128.906 103.908 134.009 102.901 138.771 100.943C143.533 98.9852 147.859 96.1159 151.504 92.4986L123.752 64.9537L95.9995 92.4986Z" fill="#FE23FF"/>
<path d="M151.505 92.4995C151.505 92.4995 123.753 64.9545 123.752 64.9537C123.751 64.9528 127.107 61.6245 127.33 61.4034L154.757 88.6634C156.852 85.9596 158.692 83.0264 160.012 79.8617C161.985 75.1355 163 70.0701 163 64.9545C163 59.8389 161.985 54.7735 160.012 50.0473C158.04 45.3211 155.149 41.0268 151.505 37.4096L123.753 64.9545L151.505 92.4995Z" fill="#F8F828"/>
<path d="M151.504 37.4095C147.859 33.7922 143.533 30.9229 138.771 28.9652C134.009 27.0076 128.906 26 123.752 26C118.598 26 113.494 27.0076 108.732 28.9652C105.562 30.2685 102.54 31.9946 99.8286 34.0577L127.33 61.4034L123.753 64.9545C123.752 64.9537 95.9999 37.4096 95.9999 37.4096L123.752 64.9545L151.504 37.4095Z" fill="#23FF19"/>
<path d="M83.2668 100.943C86.4448 99.6363 89.429 97.9236 92.1459 95.8536L64.6447 68.5304L40.4958 92.4991C44.1401 96.1161 48.4666 98.9853 53.2281 100.943C57.9898 102.9 63.0934 103.908 68.2474 103.908C73.4015 103.908 78.505 102.901 83.2668 100.943Z" fill="#F87328"/>
<path d="M31.9875 79.8618C33.9599 84.588 36.8508 88.8823 40.4953 92.4995L40.4958 92.4991L40.4953 92.4986L64.5598 68.611L64.6429 68.5285L37.1394 41.2031C35.0428 43.9082 33.309 46.8808 31.9875 50.0474C30.0152 54.7735 29 59.839 29 64.9546C29 70.0701 30.0152 75.1356 31.9875 79.8618Z" fill="#23FF19"/>
<path d="M41.7959 166C36.6775 166 32.199 164.58 29.4265 162.521L29 152.725H31.2748C32.9809 159.043 36.4643 163.799 41.938 163.799C45.9901 163.799 49.1179 161.741 49.1179 157.552C49.1179 153.577 46.4877 151.944 40.4452 149.672C33.1231 146.975 29.4976 144.206 29.4976 137.959C29.4976 131.357 34.4027 127.381 41.867 127.381C46.3455 127.381 50.0421 128.517 53.0278 130.363V138.953H50.9662C49.6866 133.699 46.772 129.582 41.6537 129.582C37.7438 129.582 35.6112 131.854 35.6112 135.119C35.6112 138.669 37.8149 140.373 43.7863 142.573C51.0373 145.2 55.3737 148.111 55.3737 154.571C55.3737 161.741 49.971 166 41.7959 166Z" fill="black"/>
<path d="M70.4716 119.076V128.091H80.2107V131.002H70.4716V154.5C70.4716 159.327 72.2488 161.315 75.9454 161.315C78.078 161.315 79.5709 160.676 81.4192 159.327L82.2011 160.392C80.1396 163.444 76.7984 166 72.1066 166C66.7039 166 62.5808 163.089 62.5808 155.352V131.002H57.9601V129.724C62.3675 127.523 66.0641 123.619 68.7655 119.076H70.4716Z" fill="black"/>
<path d="M106.854 159.114L99.6033 148.891L91.8547 159.114C91.2149 159.966 90.9305 160.747 90.9305 161.244C90.9305 162.521 92.5656 163.018 95.2669 163.231V165.29H82.5421V163.231C84.8169 162.663 86.3809 161.883 87.3761 160.534L97.9683 146.62L88.2292 132.777C87.2339 131.357 86.452 130.647 83.9639 130.15V128.091H100.812V130.15C98.1815 130.292 96.9019 130.718 96.9019 131.854C96.9019 132.493 97.1863 133.203 97.9683 134.267L103.655 142.431L109.769 134.267C110.551 133.274 110.906 132.493 110.906 131.925C110.906 130.789 109.485 130.363 106.996 130.15V128.091H119.153V130.15C116.878 130.576 115.243 131.428 114.247 132.848L105.219 144.561L116.451 160.534C117.517 162.096 118.442 162.805 120.93 163.231V165.29H103.797V163.231C106.57 163.018 108.063 162.805 108.063 161.67C108.063 161.102 107.636 160.321 106.854 159.114Z" fill="black"/>
<path d="M150.346 159.895V139.166C150.346 134.409 148.427 132.28 144.375 132.28C141.034 132.28 137.906 133.983 135.418 135.971V159.895C135.418 162.521 136.555 163.018 140.039 163.231V165.29H122.764V163.231C126.319 163.018 127.456 162.521 127.456 159.895V134.551L122.977 132.067V131.073L134.494 127.381H135.702L135.418 134.196C138.617 130.576 142.74 127.381 148.427 127.381C155.038 127.381 158.308 131.144 158.308 138.811V159.895C158.308 162.521 159.446 163.018 163 163.231V165.29H145.654V163.231C149.209 163.018 150.346 162.521 150.346 159.895Z" fill="black"/>
</svg>
