<svg width="1022" height="576" viewBox="0 0 1022 576" fill="none" xmlns="http://www.w3.org/2000/svg">
<rect width="1022" height="576" rx="8" fill="#FAFAFA"/>
<rect x="566.938" y="296.052" width="5.08546" height="61.0254" transform="rotate(90 566.938 296.052)" fill="black"/>
<rect x="538.969" y="329.107" width="5.08545" height="61.0255" transform="rotate(-180 538.969 329.107)" fill="black"/>
<rect x="589.824" y="268.082" width="288.176" height="61.0255" fill="#CCCCCC"/>
<path d="M262.461 330.997C255.773 330.997 249.329 328.565 245.56 322.121H243.371V329.173H228.172V245.274H243.371V275.794H245.56C249.451 269.106 256.746 266.553 263.312 266.553C279.727 266.553 290.792 279.685 290.792 298.167C290.792 317.014 278.633 330.997 262.461 330.997ZM259.178 317.379C268.54 317.379 275.228 309.718 275.228 298.775C275.228 287.832 268.419 280.171 259.178 280.171C250.058 280.171 243.371 287.467 243.371 298.775C243.371 310.083 250.058 317.379 259.178 317.379ZM318.88 330.997C307.207 330.997 297.723 323.945 297.723 312.393C297.723 298.775 308.18 294.398 320.825 293.06L338.699 291.236V287.832C338.699 282.603 334.443 278.955 326.905 278.955C319.731 278.955 315.597 282.117 314.259 286.859H299.668C301.127 275.308 310.733 266.553 326.905 266.553C342.468 266.553 352.804 274.092 352.804 288.804V318.473C352.804 322.242 353.169 327.471 353.412 328.93V329.173H338.821C338.699 327.106 338.699 325.16 338.699 323.093H336.51C332.741 329.173 326.175 330.997 318.88 330.997ZM323.014 319.567C332.984 319.567 338.699 312.029 338.699 304.368V301.328L325.324 302.909C317.056 303.882 313.043 306.314 313.043 311.664C313.043 316.649 317.177 319.567 323.014 319.567ZM389.281 330.997C373.961 330.997 363.018 323.337 361.315 311.299H376.271C377.973 316.649 383.567 318.959 389.403 318.959C395.361 318.959 400.225 316.406 400.225 311.907C400.225 307.408 395.604 306.192 389.281 305.098L382.837 304.003C370.678 301.936 363.139 296.829 363.139 285.886C363.139 273.97 373.596 266.553 388.066 266.553C402.17 266.553 411.533 273.119 414.086 284.549H399.495C397.793 280.05 393.294 278.226 388.187 278.226C381.986 278.226 377.973 280.901 377.973 284.67C377.973 288.561 381.135 289.777 387.701 290.871L394.145 291.966C405.94 293.911 414.937 298.775 414.937 310.569C414.937 323.458 404.237 330.997 389.281 330.997ZM452.996 330.997C434.271 330.997 421.868 318.23 421.868 298.653C421.868 279.442 435 266.553 453.117 266.553C472.086 266.553 483.029 280.658 483.029 299.261V301.936H436.702C437.432 312.029 444.484 317.987 452.996 317.987C460.048 317.987 464.304 315.555 466.371 311.299H481.935C478.773 322.729 467.465 330.997 452.996 330.997ZM468.195 291.844C466.979 283.698 460.534 278.955 452.996 278.955C445.092 278.955 438.405 283.576 436.946 291.844H468.195Z" fill="#0A0B0D"/>
<path d="M147.648 329.173C145.216 329.173 144 327.957 144 325.525V272.025C144 269.593 145.216 268.377 147.648 268.377H201.148C203.58 268.377 204.796 269.593 204.796 272.025V325.525C204.796 327.957 203.58 329.173 201.148 329.173H147.648Z" fill="#0000FF"/>
</svg>
