<svg width="670" height="401" viewBox="0 0 670 401" fill="none" xmlns="http://www.w3.org/2000/svg">
<rect y="0.450195" width="670" height="400" rx="8" fill="#FAFAFA"/>
<path d="M158.005 174.05H162.645C162.698 174.05 162.725 174.05 162.725 174.05C162.725 174.05 162.725 174.077 162.725 174.13V178.77C162.725 178.824 162.725 178.85 162.725 178.85C162.725 178.85 162.698 178.85 162.645 178.85H158.005C157.952 178.85 157.925 178.85 157.925 178.85C157.925 178.85 157.925 178.824 157.925 178.77V174.13C157.925 174.077 157.925 174.05 157.925 174.05C157.925 174.05 157.952 174.05 158.005 174.05ZM150.005 182.05H154.645C154.698 182.05 154.725 182.05 154.725 182.05C154.725 182.05 154.725 182.077 154.725 182.13V186.77C154.725 186.824 154.725 186.85 154.725 186.85C154.725 186.85 154.698 186.85 154.645 186.85H150.005C149.952 186.85 149.925 186.85 149.925 186.85C149.925 186.85 149.925 186.824 149.925 186.77V182.13C149.925 182.077 149.925 182.05 149.925 182.05C149.925 182.05 149.952 182.05 150.005 182.05ZM166.005 182.05H170.645C170.698 182.05 170.725 182.05 170.725 182.05C170.725 182.05 170.725 182.077 170.725 182.13V186.77C170.725 186.824 170.725 186.85 170.725 186.85C170.725 186.85 170.698 186.85 170.645 186.85H166.005C165.952 186.85 165.925 186.85 165.925 186.85C165.925 186.85 165.925 186.824 165.925 186.77V182.13C165.925 182.077 165.925 182.05 165.925 182.05C165.925 182.05 165.952 182.05 166.005 182.05ZM142.005 190.05H146.645C146.698 190.05 146.725 190.05 146.725 190.05C146.725 190.05 146.725 190.077 146.725 190.13V194.77C146.725 194.824 146.725 194.85 146.725 194.85C146.725 194.85 146.698 194.85 146.645 194.85H142.005C141.952 194.85 141.925 194.85 141.925 194.85C141.925 194.85 141.925 194.824 141.925 194.77V190.13C141.925 190.077 141.925 190.05 141.925 190.05C141.925 190.05 141.952 190.05 142.005 190.05ZM174.005 190.05H178.645C178.698 190.05 178.725 190.05 178.725 190.05C178.725 190.05 178.725 190.077 178.725 190.13V194.77C178.725 194.824 178.725 194.85 178.725 194.85C178.725 194.85 178.698 194.85 178.645 194.85H174.005C173.952 194.85 173.925 194.85 173.925 194.85C173.925 194.85 173.925 194.824 173.925 194.77V190.13C173.925 190.077 173.925 190.05 173.925 190.05C173.925 190.05 173.952 190.05 174.005 190.05ZM142.005 198.05H146.645C146.698 198.05 146.725 198.05 146.725 198.05C146.725 198.05 146.725 198.077 146.725 198.13V202.77C146.725 202.824 146.725 202.85 146.725 202.85C146.725 202.85 146.698 202.85 146.645 202.85H142.005C141.952 202.85 141.925 202.85 141.925 202.85C141.925 202.85 141.925 202.824 141.925 202.77V198.13C141.925 198.077 141.925 198.05 141.925 198.05C141.925 198.05 141.952 198.05 142.005 198.05ZM174.005 198.05H178.645C178.698 198.05 178.725 198.05 178.725 198.05C178.725 198.05 178.725 198.077 178.725 198.13V202.77C178.725 202.824 178.725 202.85 178.725 202.85C178.725 202.85 178.698 202.85 178.645 202.85H174.005C173.952 202.85 173.925 202.85 173.925 202.85C173.925 202.85 173.925 202.824 173.925 202.77V198.13C173.925 198.077 173.925 198.05 173.925 198.05C173.925 198.05 173.952 198.05 174.005 198.05ZM142.005 206.05H146.645C146.698 206.05 146.725 206.05 146.725 206.05C146.725 206.05 146.725 206.077 146.725 206.13V210.77C146.725 210.824 146.725 210.85 146.725 210.85C146.725 210.85 146.698 210.85 146.645 210.85H142.005C141.952 210.85 141.925 210.85 141.925 210.85C141.925 210.85 141.925 210.824 141.925 210.77V206.13C141.925 206.077 141.925 206.05 141.925 206.05C141.925 206.05 141.952 206.05 142.005 206.05ZM150.005 206.05H154.645C154.698 206.05 154.725 206.05 154.725 206.05C154.725 206.05 154.725 206.077 154.725 206.13V210.77C154.725 210.824 154.725 210.85 154.725 210.85C154.725 210.85 154.698 210.85 154.645 210.85H150.005C149.952 210.85 149.925 210.85 149.925 210.85C149.925 210.85 149.925 210.824 149.925 210.77V206.13C149.925 206.077 149.925 206.05 149.925 206.05C149.925 206.05 149.952 206.05 150.005 206.05ZM158.005 206.05H162.645C162.698 206.05 162.725 206.05 162.725 206.05C162.725 206.05 162.725 206.077 162.725 206.13V210.77C162.725 210.824 162.725 210.85 162.725 210.85C162.725 210.85 162.698 210.85 162.645 210.85H158.005C157.952 210.85 157.925 210.85 157.925 210.85C157.925 210.85 157.925 210.824 157.925 210.77V206.13C157.925 206.077 157.925 206.05 157.925 206.05C157.925 206.05 157.952 206.05 158.005 206.05ZM166.005 206.05H170.645C170.698 206.05 170.725 206.05 170.725 206.05C170.725 206.05 170.725 206.077 170.725 206.13V210.77C170.725 210.824 170.725 210.85 170.725 210.85C170.725 210.85 170.698 210.85 170.645 210.85H166.005C165.952 210.85 165.925 210.85 165.925 210.85C165.925 210.85 165.925 210.824 165.925 210.77V206.13C165.925 206.077 165.925 206.05 165.925 206.05C165.925 206.05 165.952 206.05 166.005 206.05ZM174.005 206.05H178.645C178.698 206.05 178.725 206.05 178.725 206.05C178.725 206.05 178.725 206.077 178.725 206.13V210.77C178.725 210.824 178.725 210.85 178.725 210.85C178.725 210.85 178.698 210.85 178.645 210.85H174.005C173.952 210.85 173.925 210.85 173.925 210.85C173.925 210.85 173.925 210.824 173.925 210.77V206.13C173.925 206.077 173.925 206.05 173.925 206.05C173.925 206.05 173.952 206.05 174.005 206.05ZM142.005 214.05H146.645C146.698 214.05 146.725 214.05 146.725 214.05C146.725 214.05 146.725 214.077 146.725 214.13V218.77C146.725 218.824 146.725 218.85 146.725 218.85C146.725 218.85 146.698 218.85 146.645 218.85H142.005C141.952 218.85 141.925 218.85 141.925 218.85C141.925 218.85 141.925 218.824 141.925 218.77V214.13C141.925 214.077 141.925 214.05 141.925 214.05C141.925 214.05 141.952 214.05 142.005 214.05ZM174.005 214.05H178.645C178.698 214.05 178.725 214.05 178.725 214.05C178.725 214.05 178.725 214.077 178.725 214.13V218.77C178.725 218.824 178.725 218.85 178.725 218.85C178.725 218.85 178.698 218.85 178.645 218.85H174.005C173.952 218.85 173.925 218.85 173.925 218.85C173.925 218.85 173.925 218.824 173.925 218.77V214.13C173.925 214.077 173.925 214.05 173.925 214.05C173.925 214.05 173.952 214.05 174.005 214.05ZM142.005 222.05H146.645C146.698 222.05 146.725 222.05 146.725 222.05C146.725 222.05 146.725 222.077 146.725 222.13V226.77C146.725 226.824 146.725 226.85 146.725 226.85C146.725 226.85 146.698 226.85 146.645 226.85H142.005C141.952 226.85 141.925 226.85 141.925 226.85C141.925 226.85 141.925 226.824 141.925 226.77V222.13C141.925 222.077 141.925 222.05 141.925 222.05C141.925 222.05 141.952 222.05 142.005 222.05ZM174.005 222.05H178.645C178.698 222.05 178.725 222.05 178.725 222.05C178.725 222.05 178.725 222.077 178.725 222.13V226.77C178.725 226.824 178.725 226.85 178.725 226.85C178.725 226.85 178.698 226.85 178.645 226.85H174.005C173.952 226.85 173.925 226.85 173.925 226.85C173.925 226.85 173.925 226.824 173.925 226.77V222.13C173.925 222.077 173.925 222.05 173.925 222.05C173.925 222.05 173.952 222.05 174.005 222.05ZM190.774 174.05H195.414C195.467 174.05 195.494 174.05 195.494 174.05C195.494 174.05 195.494 174.077 195.494 174.13V178.77C195.494 178.824 195.494 178.85 195.494 178.85C195.494 178.85 195.467 178.85 195.414 178.85H190.774C190.72 178.85 190.694 178.85 190.694 178.85C190.694 178.85 190.694 178.824 190.694 178.77V174.13C190.694 174.077 190.694 174.05 190.694 174.05C190.694 174.05 190.72 174.05 190.774 174.05ZM190.774 182.05H195.414C195.467 182.05 195.494 182.05 195.494 182.05C195.494 182.05 195.494 182.077 195.494 182.13V186.77C195.494 186.824 195.494 186.85 195.494 186.85C195.494 186.85 195.467 186.85 195.414 186.85H190.774C190.72 186.85 190.694 186.85 190.694 186.85C190.694 186.85 190.694 186.824 190.694 186.77V182.13C190.694 182.077 190.694 182.05 190.694 182.05C190.694 182.05 190.72 182.05 190.774 182.05ZM190.774 190.05H195.414C195.467 190.05 195.494 190.05 195.494 190.05C195.494 190.05 195.494 190.077 195.494 190.13V194.77C195.494 194.824 195.494 194.85 195.494 194.85C195.494 194.85 195.467 194.85 195.414 194.85H190.774C190.72 194.85 190.694 194.85 190.694 194.85C190.694 194.85 190.694 194.824 190.694 194.77V190.13C190.694 190.077 190.694 190.05 190.694 190.05C190.694 190.05 190.72 190.05 190.774 190.05ZM190.774 198.05H195.414C195.467 198.05 195.494 198.05 195.494 198.05C195.494 198.05 195.494 198.077 195.494 198.13V202.77C195.494 202.824 195.494 202.85 195.494 202.85C195.494 202.85 195.467 202.85 195.414 202.85H190.774C190.72 202.85 190.694 202.85 190.694 202.85C190.694 202.85 190.694 202.824 190.694 202.77V198.13C190.694 198.077 190.694 198.05 190.694 198.05C190.694 198.05 190.72 198.05 190.774 198.05ZM190.774 206.05H195.414C195.467 206.05 195.494 206.05 195.494 206.05C195.494 206.05 195.494 206.077 195.494 206.13V210.77C195.494 210.824 195.494 210.85 195.494 210.85C195.494 210.85 195.467 210.85 195.414 210.85H190.774C190.72 210.85 190.694 210.85 190.694 210.85C190.694 210.85 190.694 210.824 190.694 210.77V206.13C190.694 206.077 190.694 206.05 190.694 206.05C190.694 206.05 190.72 206.05 190.774 206.05ZM190.774 214.05H195.414C195.467 214.05 195.494 214.05 195.494 214.05C195.494 214.05 195.494 214.077 195.494 214.13V218.77C195.494 218.824 195.494 218.85 195.494 218.85C195.494 218.85 195.467 218.85 195.414 218.85H190.774C190.72 218.85 190.694 218.85 190.694 218.85C190.694 218.85 190.694 218.824 190.694 218.77V214.13C190.694 214.077 190.694 214.05 190.694 214.05C190.694 214.05 190.72 214.05 190.774 214.05ZM190.774 222.05H195.414C195.467 222.05 195.494 222.05 195.494 222.05C195.494 222.05 195.494 222.077 195.494 222.13V226.77C195.494 226.824 195.494 226.85 195.494 226.85C195.494 226.85 195.467 226.85 195.414 226.85H190.774C190.72 226.85 190.694 226.85 190.694 226.85C190.694 226.85 190.694 226.824 190.694 226.77V222.13C190.694 222.077 190.694 222.05 190.694 222.05C190.694 222.05 190.72 222.05 190.774 222.05ZM198.774 222.05H203.414C203.467 222.05 203.494 222.05 203.494 222.05C203.494 222.05 203.494 222.077 203.494 222.13V226.77C203.494 226.824 203.494 226.85 203.494 226.85C203.494 226.85 203.467 226.85 203.414 226.85H198.774C198.72 226.85 198.694 226.85 198.694 226.85C198.694 226.85 198.694 226.824 198.694 226.77V222.13C198.694 222.077 198.694 222.05 198.694 222.05C198.694 222.05 198.72 222.05 198.774 222.05ZM206.774 222.05H211.414C211.467 222.05 211.494 222.05 211.494 222.05C211.494 222.05 211.494 222.077 211.494 222.13V226.77C211.494 226.824 211.494 226.85 211.494 226.85C211.494 226.85 211.467 226.85 211.414 226.85H206.774C206.72 226.85 206.694 226.85 206.694 226.85C206.694 226.85 206.694 226.824 206.694 226.77V222.13C206.694 222.077 206.694 222.05 206.694 222.05C206.694 222.05 206.72 222.05 206.774 222.05ZM214.774 222.05H219.414C219.467 222.05 219.494 222.05 219.494 222.05C219.494 222.05 219.494 222.077 219.494 222.13V226.77C219.494 226.824 219.494 226.85 219.494 226.85C219.494 226.85 219.467 226.85 219.414 226.85H214.774C214.72 226.85 214.694 226.85 214.694 226.85C214.694 226.85 214.694 226.824 214.694 226.77V222.13C214.694 222.077 214.694 222.05 214.694 222.05C214.694 222.05 214.72 222.05 214.774 222.05ZM222.774 222.05H227.414C227.467 222.05 227.494 222.05 227.494 222.05C227.494 222.05 227.494 222.077 227.494 222.13V226.77C227.494 226.824 227.494 226.85 227.494 226.85C227.494 226.85 227.467 226.85 227.414 226.85H222.774C222.72 226.85 222.694 226.85 222.694 226.85C222.694 226.85 222.694 226.824 222.694 226.77V222.13C222.694 222.077 222.694 222.05 222.694 222.05C222.694 222.05 222.72 222.05 222.774 222.05ZM239.542 174.05H244.182C244.236 174.05 244.262 174.05 244.262 174.05C244.262 174.05 244.262 174.077 244.262 174.13V178.77C244.262 178.824 244.262 178.85 244.262 178.85C244.262 178.85 244.236 178.85 244.182 178.85H239.542C239.489 178.85 239.462 178.85 239.462 178.85C239.462 178.85 239.462 178.824 239.462 178.77V174.13C239.462 174.077 239.462 174.05 239.462 174.05C239.462 174.05 239.489 174.05 239.542 174.05ZM239.542 182.05H244.182C244.236 182.05 244.262 182.05 244.262 182.05C244.262 182.05 244.262 182.077 244.262 182.13V186.77C244.262 186.824 244.262 186.85 244.262 186.85C244.262 186.85 244.236 186.85 244.182 186.85H239.542C239.489 186.85 239.462 186.85 239.462 186.85C239.462 186.85 239.462 186.824 239.462 186.77V182.13C239.462 182.077 239.462 182.05 239.462 182.05C239.462 182.05 239.489 182.05 239.542 182.05ZM239.542 190.05H244.182C244.236 190.05 244.262 190.05 244.262 190.05C244.262 190.05 244.262 190.077 244.262 190.13V194.77C244.262 194.824 244.262 194.85 244.262 194.85C244.262 194.85 244.236 194.85 244.182 194.85H239.542C239.489 194.85 239.462 194.85 239.462 194.85C239.462 194.85 239.462 194.824 239.462 194.77V190.13C239.462 190.077 239.462 190.05 239.462 190.05C239.462 190.05 239.489 190.05 239.542 190.05ZM239.542 198.05H244.182C244.236 198.05 244.262 198.05 244.262 198.05C244.262 198.05 244.262 198.077 244.262 198.13V202.77C244.262 202.824 244.262 202.85 244.262 202.85C244.262 202.85 244.236 202.85 244.182 202.85H239.542C239.489 202.85 239.462 202.85 239.462 202.85C239.462 202.85 239.462 202.824 239.462 202.77V198.13C239.462 198.077 239.462 198.05 239.462 198.05C239.462 198.05 239.489 198.05 239.542 198.05ZM239.542 206.05H244.182C244.236 206.05 244.262 206.05 244.262 206.05C244.262 206.05 244.262 206.077 244.262 206.13V210.77C244.262 210.824 244.262 210.85 244.262 210.85C244.262 210.85 244.236 210.85 244.182 210.85H239.542C239.489 210.85 239.462 210.85 239.462 210.85C239.462 210.85 239.462 210.824 239.462 210.77V206.13C239.462 206.077 239.462 206.05 239.462 206.05C239.462 206.05 239.489 206.05 239.542 206.05ZM239.542 214.05H244.182C244.236 214.05 244.262 214.05 244.262 214.05C244.262 214.05 244.262 214.077 244.262 214.13V218.77C244.262 218.824 244.262 218.85 244.262 218.85C244.262 218.85 244.236 218.85 244.182 218.85H239.542C239.489 218.85 239.462 218.85 239.462 218.85C239.462 218.85 239.462 218.824 239.462 218.77V214.13C239.462 214.077 239.462 214.05 239.462 214.05C239.462 214.05 239.489 214.05 239.542 214.05ZM239.542 222.05H244.182C244.236 222.05 244.262 222.05 244.262 222.05C244.262 222.05 244.262 222.077 244.262 222.13V226.77C244.262 226.824 244.262 226.85 244.262 226.85C244.262 226.85 244.236 226.85 244.182 226.85H239.542C239.489 226.85 239.462 226.85 239.462 226.85C239.462 226.85 239.462 226.824 239.462 226.77V222.13C239.462 222.077 239.462 222.05 239.462 222.05C239.462 222.05 239.489 222.05 239.542 222.05ZM247.542 222.05H252.182C252.236 222.05 252.262 222.05 252.262 222.05C252.262 222.05 252.262 222.077 252.262 222.13V226.77C252.262 226.824 252.262 226.85 252.262 226.85C252.262 226.85 252.236 226.85 252.182 226.85H247.542C247.489 226.85 247.462 226.85 247.462 226.85C247.462 226.85 247.462 226.824 247.462 226.77V222.13C247.462 222.077 247.462 222.05 247.462 222.05C247.462 222.05 247.489 222.05 247.542 222.05ZM255.542 222.05H260.182C260.236 222.05 260.262 222.05 260.262 222.05C260.262 222.05 260.262 222.077 260.262 222.13V226.77C260.262 226.824 260.262 226.85 260.262 226.85C260.262 226.85 260.236 226.85 260.182 226.85H255.542C255.489 226.85 255.462 226.85 255.462 226.85C255.462 226.85 255.462 226.824 255.462 226.77V222.13C255.462 222.077 255.462 222.05 255.462 222.05C255.462 222.05 255.489 222.05 255.542 222.05ZM263.542 222.05H268.182C268.236 222.05 268.262 222.05 268.262 222.05C268.262 222.05 268.262 222.077 268.262 222.13V226.77C268.262 226.824 268.262 226.85 268.262 226.85C268.262 226.85 268.236 226.85 268.182 226.85H263.542C263.489 226.85 263.462 226.85 263.462 226.85C263.462 226.85 263.462 226.824 263.462 226.77V222.13C263.462 222.077 263.462 222.05 263.462 222.05C263.462 222.05 263.489 222.05 263.542 222.05ZM271.542 222.05H276.182C276.236 222.05 276.262 222.05 276.262 222.05C276.262 222.05 276.262 222.077 276.262 222.13V226.77C276.262 226.824 276.262 226.85 276.262 226.85C276.262 226.85 276.236 226.85 276.182 226.85H271.542C271.489 226.85 271.462 226.85 271.462 226.85C271.462 226.85 271.462 226.824 271.462 226.77V222.13C271.462 222.077 271.462 222.05 271.462 222.05C271.462 222.05 271.489 222.05 271.542 222.05ZM345.08 174.05H349.72C349.773 174.05 349.8 174.05 349.8 174.05C349.8 174.05 349.8 174.077 349.8 174.13V178.77C349.8 178.824 349.8 178.85 349.8 178.85C349.8 178.85 349.773 178.85 349.72 178.85H345.08C345.027 178.85 345 178.85 345 178.85C345 178.85 345 178.824 345 178.77V174.13C345 174.077 345 174.05 345 174.05C345 174.05 345.027 174.05 345.08 174.05ZM353.08 174.05H357.72C357.773 174.05 357.8 174.05 357.8 174.05C357.8 174.05 357.8 174.077 357.8 174.13V178.77C357.8 178.824 357.8 178.85 357.8 178.85C357.8 178.85 357.773 178.85 357.72 178.85H353.08C353.027 178.85 353 178.85 353 178.85C353 178.85 353 178.824 353 178.77V174.13C353 174.077 353 174.05 353 174.05C353 174.05 353.027 174.05 353.08 174.05ZM361.08 174.05H365.72C365.773 174.05 365.8 174.05 365.8 174.05C365.8 174.05 365.8 174.077 365.8 174.13V178.77C365.8 178.824 365.8 178.85 365.8 178.85C365.8 178.85 365.773 178.85 365.72 178.85H361.08C361.027 178.85 361 178.85 361 178.85C361 178.85 361 178.824 361 178.77V174.13C361 174.077 361 174.05 361 174.05C361 174.05 361.027 174.05 361.08 174.05ZM337.08 182.05H341.72C341.773 182.05 341.8 182.05 341.8 182.05C341.8 182.05 341.8 182.077 341.8 182.13V186.77C341.8 186.824 341.8 186.85 341.8 186.85C341.8 186.85 341.773 186.85 341.72 186.85H337.08C337.027 186.85 337 186.85 337 186.85C337 186.85 337 186.824 337 186.77V182.13C337 182.077 337 182.05 337 182.05C337 182.05 337.027 182.05 337.08 182.05ZM369.08 182.05H373.72C373.773 182.05 373.8 182.05 373.8 182.05C373.8 182.05 373.8 182.077 373.8 182.13V186.77C373.8 186.824 373.8 186.85 373.8 186.85C373.8 186.85 373.773 186.85 373.72 186.85H369.08C369.027 186.85 369 186.85 369 186.85C369 186.85 369 186.824 369 186.77V182.13C369 182.077 369 182.05 369 182.05C369 182.05 369.027 182.05 369.08 182.05ZM337.08 190.05H341.72C341.773 190.05 341.8 190.05 341.8 190.05C341.8 190.05 341.8 190.077 341.8 190.13V194.77C341.8 194.824 341.8 194.85 341.8 194.85C341.8 194.85 341.773 194.85 341.72 194.85H337.08C337.027 194.85 337 194.85 337 194.85C337 194.85 337 194.824 337 194.77V190.13C337 190.077 337 190.05 337 190.05C337 190.05 337.027 190.05 337.08 190.05ZM337.08 198.05H341.72C341.773 198.05 341.8 198.05 341.8 198.05C341.8 198.05 341.8 198.077 341.8 198.13V202.77C341.8 202.824 341.8 202.85 341.8 202.85C341.8 202.85 341.773 202.85 341.72 202.85H337.08C337.027 202.85 337 202.85 337 202.85C337 202.85 337 202.824 337 202.77V198.13C337 198.077 337 198.05 337 198.05C337 198.05 337.027 198.05 337.08 198.05ZM337.08 206.05H341.72C341.773 206.05 341.8 206.05 341.8 206.05C341.8 206.05 341.8 206.077 341.8 206.13V210.77C341.8 210.824 341.8 210.85 341.8 210.85C341.8 210.85 341.773 210.85 341.72 210.85H337.08C337.027 210.85 337 210.85 337 210.85C337 210.85 337 210.824 337 210.77V206.13C337 206.077 337 206.05 337 206.05C337 206.05 337.027 206.05 337.08 206.05ZM337.08 214.05H341.72C341.773 214.05 341.8 214.05 341.8 214.05C341.8 214.05 341.8 214.077 341.8 214.13V218.77C341.8 218.824 341.8 218.85 341.8 218.85C341.8 218.85 341.773 218.85 341.72 218.85H337.08C337.027 218.85 337 218.85 337 218.85C337 218.85 337 218.824 337 218.77V214.13C337 214.077 337 214.05 337 214.05C337 214.05 337.027 214.05 337.08 214.05ZM369.08 214.05H373.72C373.773 214.05 373.8 214.05 373.8 214.05C373.8 214.05 373.8 214.077 373.8 214.13V218.77C373.8 218.824 373.8 218.85 373.8 218.85C373.8 218.85 373.773 218.85 373.72 218.85H369.08C369.027 218.85 369 218.85 369 218.85C369 218.85 369 218.824 369 218.77V214.13C369 214.077 369 214.05 369 214.05C369 214.05 369.027 214.05 369.08 214.05ZM345.08 222.05H349.72C349.773 222.05 349.8 222.05 349.8 222.05C349.8 222.05 349.8 222.077 349.8 222.13V226.77C349.8 226.824 349.8 226.85 349.8 226.85C349.8 226.85 349.773 226.85 349.72 226.85H345.08C345.027 226.85 345 226.85 345 226.85C345 226.85 345 226.824 345 226.77V222.13C345 222.077 345 222.05 345 222.05C345 222.05 345.027 222.05 345.08 222.05ZM353.08 222.05H357.72C357.773 222.05 357.8 222.05 357.8 222.05C357.8 222.05 357.8 222.077 357.8 222.13V226.77C357.8 226.824 357.8 226.85 357.8 226.85C357.8 226.85 357.773 226.85 357.72 226.85H353.08C353.027 226.85 353 226.85 353 226.85C353 226.85 353 226.824 353 226.77V222.13C353 222.077 353 222.05 353 222.05C353 222.05 353.027 222.05 353.08 222.05ZM361.08 222.05H365.72C365.773 222.05 365.8 222.05 365.8 222.05C365.8 222.05 365.8 222.077 365.8 222.13V226.77C365.8 226.824 365.8 226.85 365.8 226.85C365.8 226.85 365.773 226.85 365.72 226.85H361.08C361.027 226.85 361 226.85 361 226.85C361 226.85 361 226.824 361 226.77V222.13C361 222.077 361 222.05 361 222.05C361 222.05 361.027 222.05 361.08 222.05ZM401.849 174.05H406.489C406.542 174.05 406.569 174.05 406.569 174.05C406.569 174.05 406.569 174.077 406.569 174.13V178.77C406.569 178.824 406.569 178.85 406.569 178.85C406.569 178.85 406.542 178.85 406.489 178.85H401.849C401.795 178.85 401.769 178.85 401.769 178.85C401.769 178.85 401.769 178.824 401.769 178.77V174.13C401.769 174.077 401.769 174.05 401.769 174.05C401.769 174.05 401.795 174.05 401.849 174.05ZM393.849 182.05H398.489C398.542 182.05 398.569 182.05 398.569 182.05C398.569 182.05 398.569 182.077 398.569 182.13V186.77C398.569 186.824 398.569 186.85 398.569 186.85C398.569 186.85 398.542 186.85 398.489 186.85H393.849C393.795 186.85 393.769 186.85 393.769 186.85C393.769 186.85 393.769 186.824 393.769 186.77V182.13C393.769 182.077 393.769 182.05 393.769 182.05C393.769 182.05 393.795 182.05 393.849 182.05ZM409.849 182.05H414.489C414.542 182.05 414.569 182.05 414.569 182.05C414.569 182.05 414.569 182.077 414.569 182.13V186.77C414.569 186.824 414.569 186.85 414.569 186.85C414.569 186.85 414.542 186.85 414.489 186.85H409.849C409.795 186.85 409.769 186.85 409.769 186.85C409.769 186.85 409.769 186.824 409.769 186.77V182.13C409.769 182.077 409.769 182.05 409.769 182.05C409.769 182.05 409.795 182.05 409.849 182.05ZM385.849 190.05H390.489C390.542 190.05 390.569 190.05 390.569 190.05C390.569 190.05 390.569 190.077 390.569 190.13V194.77C390.569 194.824 390.569 194.85 390.569 194.85C390.569 194.85 390.542 194.85 390.489 194.85H385.849C385.795 194.85 385.769 194.85 385.769 194.85C385.769 194.85 385.769 194.824 385.769 194.77V190.13C385.769 190.077 385.769 190.05 385.769 190.05C385.769 190.05 385.795 190.05 385.849 190.05ZM417.849 190.05H422.489C422.542 190.05 422.569 190.05 422.569 190.05C422.569 190.05 422.569 190.077 422.569 190.13V194.77C422.569 194.824 422.569 194.85 422.569 194.85C422.569 194.85 422.542 194.85 422.489 194.85H417.849C417.795 194.85 417.769 194.85 417.769 194.85C417.769 194.85 417.769 194.824 417.769 194.77V190.13C417.769 190.077 417.769 190.05 417.769 190.05C417.769 190.05 417.795 190.05 417.849 190.05ZM385.849 198.05H390.489C390.542 198.05 390.569 198.05 390.569 198.05C390.569 198.05 390.569 198.077 390.569 198.13V202.77C390.569 202.824 390.569 202.85 390.569 202.85C390.569 202.85 390.542 202.85 390.489 202.85H385.849C385.795 202.85 385.769 202.85 385.769 202.85C385.769 202.85 385.769 202.824 385.769 202.77V198.13C385.769 198.077 385.769 198.05 385.769 198.05C385.769 198.05 385.795 198.05 385.849 198.05ZM417.849 198.05H422.489C422.542 198.05 422.569 198.05 422.569 198.05C422.569 198.05 422.569 198.077 422.569 198.13V202.77C422.569 202.824 422.569 202.85 422.569 202.85C422.569 202.85 422.542 202.85 422.489 202.85H417.849C417.795 202.85 417.769 202.85 417.769 202.85C417.769 202.85 417.769 202.824 417.769 202.77V198.13C417.769 198.077 417.769 198.05 417.769 198.05C417.769 198.05 417.795 198.05 417.849 198.05ZM385.849 206.05H390.489C390.542 206.05 390.569 206.05 390.569 206.05C390.569 206.05 390.569 206.077 390.569 206.13V210.77C390.569 210.824 390.569 210.85 390.569 210.85C390.569 210.85 390.542 210.85 390.489 210.85H385.849C385.795 210.85 385.769 210.85 385.769 210.85C385.769 210.85 385.769 210.824 385.769 210.77V206.13C385.769 206.077 385.769 206.05 385.769 206.05C385.769 206.05 385.795 206.05 385.849 206.05ZM393.849 206.05H398.489C398.542 206.05 398.569 206.05 398.569 206.05C398.569 206.05 398.569 206.077 398.569 206.13V210.77C398.569 210.824 398.569 210.85 398.569 210.85C398.569 210.85 398.542 210.85 398.489 210.85H393.849C393.795 210.85 393.769 210.85 393.769 210.85C393.769 210.85 393.769 210.824 393.769 210.77V206.13C393.769 206.077 393.769 206.05 393.769 206.05C393.769 206.05 393.795 206.05 393.849 206.05ZM401.849 206.05H406.489C406.542 206.05 406.569 206.05 406.569 206.05C406.569 206.05 406.569 206.077 406.569 206.13V210.77C406.569 210.824 406.569 210.85 406.569 210.85C406.569 210.85 406.542 210.85 406.489 210.85H401.849C401.795 210.85 401.769 210.85 401.769 210.85C401.769 210.85 401.769 210.824 401.769 210.77V206.13C401.769 206.077 401.769 206.05 401.769 206.05C401.769 206.05 401.795 206.05 401.849 206.05ZM409.849 206.05H414.489C414.542 206.05 414.569 206.05 414.569 206.05C414.569 206.05 414.569 206.077 414.569 206.13V210.77C414.569 210.824 414.569 210.85 414.569 210.85C414.569 210.85 414.542 210.85 414.489 210.85H409.849C409.795 210.85 409.769 210.85 409.769 210.85C409.769 210.85 409.769 210.824 409.769 210.77V206.13C409.769 206.077 409.769 206.05 409.769 206.05C409.769 206.05 409.795 206.05 409.849 206.05ZM417.849 206.05H422.489C422.542 206.05 422.569 206.05 422.569 206.05C422.569 206.05 422.569 206.077 422.569 206.13V210.77C422.569 210.824 422.569 210.85 422.569 210.85C422.569 210.85 422.542 210.85 422.489 210.85H417.849C417.795 210.85 417.769 210.85 417.769 210.85C417.769 210.85 417.769 210.824 417.769 210.77V206.13C417.769 206.077 417.769 206.05 417.769 206.05C417.769 206.05 417.795 206.05 417.849 206.05ZM385.849 214.05H390.489C390.542 214.05 390.569 214.05 390.569 214.05C390.569 214.05 390.569 214.077 390.569 214.13V218.77C390.569 218.824 390.569 218.85 390.569 218.85C390.569 218.85 390.542 218.85 390.489 218.85H385.849C385.795 218.85 385.769 218.85 385.769 218.85C385.769 218.85 385.769 218.824 385.769 218.77V214.13C385.769 214.077 385.769 214.05 385.769 214.05C385.769 214.05 385.795 214.05 385.849 214.05ZM417.849 214.05H422.489C422.542 214.05 422.569 214.05 422.569 214.05C422.569 214.05 422.569 214.077 422.569 214.13V218.77C422.569 218.824 422.569 218.85 422.569 218.85C422.569 218.85 422.542 218.85 422.489 218.85H417.849C417.795 218.85 417.769 218.85 417.769 218.85C417.769 218.85 417.769 218.824 417.769 218.77V214.13C417.769 214.077 417.769 214.05 417.769 214.05C417.769 214.05 417.795 214.05 417.849 214.05ZM385.849 222.05H390.489C390.542 222.05 390.569 222.05 390.569 222.05C390.569 222.05 390.569 222.077 390.569 222.13V226.77C390.569 226.824 390.569 226.85 390.569 226.85C390.569 226.85 390.542 226.85 390.489 226.85H385.849C385.795 226.85 385.769 226.85 385.769 226.85C385.769 226.85 385.769 226.824 385.769 226.77V222.13C385.769 222.077 385.769 222.05 385.769 222.05C385.769 222.05 385.795 222.05 385.849 222.05ZM417.849 222.05H422.489C422.542 222.05 422.569 222.05 422.569 222.05C422.569 222.05 422.569 222.077 422.569 222.13V226.77C422.569 226.824 422.569 226.85 422.569 226.85C422.569 226.85 422.542 226.85 422.489 226.85H417.849C417.795 226.85 417.769 226.85 417.769 226.85C417.769 226.85 417.769 226.824 417.769 226.77V222.13C417.769 222.077 417.769 222.05 417.769 222.05C417.769 222.05 417.795 222.05 417.849 222.05ZM434.618 174.05H439.258C439.311 174.05 439.338 174.05 439.338 174.05C439.338 174.05 439.338 174.077 439.338 174.13V178.77C439.338 178.824 439.338 178.85 439.338 178.85C439.338 178.85 439.311 178.85 439.258 178.85H434.618C434.564 178.85 434.538 178.85 434.538 178.85C434.538 178.85 434.538 178.824 434.538 178.77V174.13C434.538 174.077 434.538 174.05 434.538 174.05C434.538 174.05 434.564 174.05 434.618 174.05ZM442.618 174.05H447.258C447.311 174.05 447.338 174.05 447.338 174.05C447.338 174.05 447.338 174.077 447.338 174.13V178.77C447.338 178.824 447.338 178.85 447.338 178.85C447.338 178.85 447.311 178.85 447.258 178.85H442.618C442.564 178.85 442.538 178.85 442.538 178.85C442.538 178.85 442.538 178.824 442.538 178.77V174.13C442.538 174.077 442.538 174.05 442.538 174.05C442.538 174.05 442.564 174.05 442.618 174.05ZM450.618 174.05H455.258C455.311 174.05 455.338 174.05 455.338 174.05C455.338 174.05 455.338 174.077 455.338 174.13V178.77C455.338 178.824 455.338 178.85 455.338 178.85C455.338 178.85 455.311 178.85 455.258 178.85H450.618C450.564 178.85 450.538 178.85 450.538 178.85C450.538 178.85 450.538 178.824 450.538 178.77V174.13C450.538 174.077 450.538 174.05 450.538 174.05C450.538 174.05 450.564 174.05 450.618 174.05ZM458.618 174.05H463.258C463.311 174.05 463.338 174.05 463.338 174.05C463.338 174.05 463.338 174.077 463.338 174.13V178.77C463.338 178.824 463.338 178.85 463.338 178.85C463.338 178.85 463.311 178.85 463.258 178.85H458.618C458.564 178.85 458.538 178.85 458.538 178.85C458.538 178.85 458.538 178.824 458.538 178.77V174.13C458.538 174.077 458.538 174.05 458.538 174.05C458.538 174.05 458.564 174.05 458.618 174.05ZM434.618 182.05H439.258C439.311 182.05 439.338 182.05 439.338 182.05C439.338 182.05 439.338 182.077 439.338 182.13V186.77C439.338 186.824 439.338 186.85 439.338 186.85C439.338 186.85 439.311 186.85 439.258 186.85H434.618C434.564 186.85 434.538 186.85 434.538 186.85C434.538 186.85 434.538 186.824 434.538 186.77V182.13C434.538 182.077 434.538 182.05 434.538 182.05C434.538 182.05 434.564 182.05 434.618 182.05ZM466.618 182.05H471.258C471.311 182.05 471.338 182.05 471.338 182.05C471.338 182.05 471.338 182.077 471.338 182.13V186.77C471.338 186.824 471.338 186.85 471.338 186.85C471.338 186.85 471.311 186.85 471.258 186.85H466.618C466.564 186.85 466.538 186.85 466.538 186.85C466.538 186.85 466.538 186.824 466.538 186.77V182.13C466.538 182.077 466.538 182.05 466.538 182.05C466.538 182.05 466.564 182.05 466.618 182.05ZM434.618 190.05H439.258C439.311 190.05 439.338 190.05 439.338 190.05C439.338 190.05 439.338 190.077 439.338 190.13V194.77C439.338 194.824 439.338 194.85 439.338 194.85C439.338 194.85 439.311 194.85 439.258 194.85H434.618C434.564 194.85 434.538 194.85 434.538 194.85C434.538 194.85 434.538 194.824 434.538 194.77V190.13C434.538 190.077 434.538 190.05 434.538 190.05C434.538 190.05 434.564 190.05 434.618 190.05ZM466.618 190.05H471.258C471.311 190.05 471.338 190.05 471.338 190.05C471.338 190.05 471.338 190.077 471.338 190.13V194.77C471.338 194.824 471.338 194.85 471.338 194.85C471.338 194.85 471.311 194.85 471.258 194.85H466.618C466.564 194.85 466.538 194.85 466.538 194.85C466.538 194.85 466.538 194.824 466.538 194.77V190.13C466.538 190.077 466.538 190.05 466.538 190.05C466.538 190.05 466.564 190.05 466.618 190.05ZM434.618 198.05H439.258C439.311 198.05 439.338 198.05 439.338 198.05C439.338 198.05 439.338 198.077 439.338 198.13V202.77C439.338 202.824 439.338 202.85 439.338 202.85C439.338 202.85 439.311 202.85 439.258 202.85H434.618C434.564 202.85 434.538 202.85 434.538 202.85C434.538 202.85 434.538 202.824 434.538 202.77V198.13C434.538 198.077 434.538 198.05 434.538 198.05C434.538 198.05 434.564 198.05 434.618 198.05ZM442.618 198.05H447.258C447.311 198.05 447.338 198.05 447.338 198.05C447.338 198.05 447.338 198.077 447.338 198.13V202.77C447.338 202.824 447.338 202.85 447.338 202.85C447.338 202.85 447.311 202.85 447.258 202.85H442.618C442.564 202.85 442.538 202.85 442.538 202.85C442.538 202.85 442.538 202.824 442.538 202.77V198.13C442.538 198.077 442.538 198.05 442.538 198.05C442.538 198.05 442.564 198.05 442.618 198.05ZM450.618 198.05H455.258C455.311 198.05 455.338 198.05 455.338 198.05C455.338 198.05 455.338 198.077 455.338 198.13V202.77C455.338 202.824 455.338 202.85 455.338 202.85C455.338 202.85 455.311 202.85 455.258 202.85H450.618C450.564 202.85 450.538 202.85 450.538 202.85C450.538 202.85 450.538 202.824 450.538 202.77V198.13C450.538 198.077 450.538 198.05 450.538 198.05C450.538 198.05 450.564 198.05 450.618 198.05ZM458.618 198.05H463.258C463.311 198.05 463.338 198.05 463.338 198.05C463.338 198.05 463.338 198.077 463.338 198.13V202.77C463.338 202.824 463.338 202.85 463.338 202.85C463.338 202.85 463.311 202.85 463.258 202.85H458.618C458.564 202.85 458.538 202.85 458.538 202.85C458.538 202.85 458.538 202.824 458.538 202.77V198.13C458.538 198.077 458.538 198.05 458.538 198.05C458.538 198.05 458.564 198.05 458.618 198.05ZM434.618 206.05H439.258C439.311 206.05 439.338 206.05 439.338 206.05C439.338 206.05 439.338 206.077 439.338 206.13V210.77C439.338 210.824 439.338 210.85 439.338 210.85C439.338 210.85 439.311 210.85 439.258 210.85H434.618C434.564 210.85 434.538 210.85 434.538 210.85C434.538 210.85 434.538 210.824 434.538 210.77V206.13C434.538 206.077 434.538 206.05 434.538 206.05C434.538 206.05 434.564 206.05 434.618 206.05ZM434.618 214.05H439.258C439.311 214.05 439.338 214.05 439.338 214.05C439.338 214.05 439.338 214.077 439.338 214.13V218.77C439.338 218.824 439.338 218.85 439.338 218.85C439.338 218.85 439.311 218.85 439.258 218.85H434.618C434.564 218.85 434.538 218.85 434.538 218.85C434.538 218.85 434.538 218.824 434.538 218.77V214.13C434.538 214.077 434.538 214.05 434.538 214.05C434.538 214.05 434.564 214.05 434.618 214.05ZM434.618 222.05H439.258C439.311 222.05 439.338 222.05 439.338 222.05C439.338 222.05 439.338 222.077 439.338 222.13V226.77C439.338 226.824 439.338 226.85 439.338 226.85C439.338 226.85 439.311 226.85 439.258 226.85H434.618C434.564 226.85 434.538 226.85 434.538 226.85C434.538 226.85 434.538 226.824 434.538 226.77V222.13C434.538 222.077 434.538 222.05 434.538 222.05C434.538 222.05 434.564 222.05 434.618 222.05ZM491.386 174.05H496.026C496.08 174.05 496.106 174.05 496.106 174.05C496.106 174.05 496.106 174.077 496.106 174.13V178.77C496.106 178.824 496.106 178.85 496.106 178.85C496.106 178.85 496.08 178.85 496.026 178.85H491.386C491.333 178.85 491.306 178.85 491.306 178.85C491.306 178.85 491.306 178.824 491.306 178.77V174.13C491.306 174.077 491.306 174.05 491.306 174.05C491.306 174.05 491.333 174.05 491.386 174.05ZM499.386 174.05H504.026C504.08 174.05 504.106 174.05 504.106 174.05C504.106 174.05 504.106 174.077 504.106 174.13V178.77C504.106 178.824 504.106 178.85 504.106 178.85C504.106 178.85 504.08 178.85 504.026 178.85H499.386C499.333 178.85 499.306 178.85 499.306 178.85C499.306 178.85 499.306 178.824 499.306 178.77V174.13C499.306 174.077 499.306 174.05 499.306 174.05C499.306 174.05 499.333 174.05 499.386 174.05ZM507.386 174.05H512.026C512.08 174.05 512.106 174.05 512.106 174.05C512.106 174.05 512.106 174.077 512.106 174.13V178.77C512.106 178.824 512.106 178.85 512.106 178.85C512.106 178.85 512.08 178.85 512.026 178.85H507.386C507.333 178.85 507.306 178.85 507.306 178.85C507.306 178.85 507.306 178.824 507.306 178.77V174.13C507.306 174.077 507.306 174.05 507.306 174.05C507.306 174.05 507.333 174.05 507.386 174.05ZM483.386 182.05H488.026C488.08 182.05 488.106 182.05 488.106 182.05C488.106 182.05 488.106 182.077 488.106 182.13V186.77C488.106 186.824 488.106 186.85 488.106 186.85C488.106 186.85 488.08 186.85 488.026 186.85H483.386C483.333 186.85 483.306 186.85 483.306 186.85C483.306 186.85 483.306 186.824 483.306 186.77V182.13C483.306 182.077 483.306 182.05 483.306 182.05C483.306 182.05 483.333 182.05 483.386 182.05ZM515.386 182.05H520.026C520.08 182.05 520.106 182.05 520.106 182.05C520.106 182.05 520.106 182.077 520.106 182.13V186.77C520.106 186.824 520.106 186.85 520.106 186.85C520.106 186.85 520.08 186.85 520.026 186.85H515.386C515.333 186.85 515.306 186.85 515.306 186.85C515.306 186.85 515.306 186.824 515.306 186.77V182.13C515.306 182.077 515.306 182.05 515.306 182.05C515.306 182.05 515.333 182.05 515.386 182.05ZM483.386 190.05H488.026C488.08 190.05 488.106 190.05 488.106 190.05C488.106 190.05 488.106 190.077 488.106 190.13V194.77C488.106 194.824 488.106 194.85 488.106 194.85C488.106 194.85 488.08 194.85 488.026 194.85H483.386C483.333 194.85 483.306 194.85 483.306 194.85C483.306 194.85 483.306 194.824 483.306 194.77V190.13C483.306 190.077 483.306 190.05 483.306 190.05C483.306 190.05 483.333 190.05 483.386 190.05ZM491.386 198.05H496.026C496.08 198.05 496.106 198.05 496.106 198.05C496.106 198.05 496.106 198.077 496.106 198.13V202.77C496.106 202.824 496.106 202.85 496.106 202.85C496.106 202.85 496.08 202.85 496.026 202.85H491.386C491.333 202.85 491.306 202.85 491.306 202.85C491.306 202.85 491.306 202.824 491.306 202.77V198.13C491.306 198.077 491.306 198.05 491.306 198.05C491.306 198.05 491.333 198.05 491.386 198.05ZM499.386 198.05H504.026C504.08 198.05 504.106 198.05 504.106 198.05C504.106 198.05 504.106 198.077 504.106 198.13V202.77C504.106 202.824 504.106 202.85 504.106 202.85C504.106 202.85 504.08 202.85 504.026 202.85H499.386C499.333 202.85 499.306 202.85 499.306 202.85C499.306 202.85 499.306 202.824 499.306 202.77V198.13C499.306 198.077 499.306 198.05 499.306 198.05C499.306 198.05 499.333 198.05 499.386 198.05ZM507.386 198.05H512.026C512.08 198.05 512.106 198.05 512.106 198.05C512.106 198.05 512.106 198.077 512.106 198.13V202.77C512.106 202.824 512.106 202.85 512.106 202.85C512.106 202.85 512.08 202.85 512.026 202.85H507.386C507.333 202.85 507.306 202.85 507.306 202.85C507.306 202.85 507.306 202.824 507.306 202.77V198.13C507.306 198.077 507.306 198.05 507.306 198.05C507.306 198.05 507.333 198.05 507.386 198.05ZM515.386 206.05H520.026C520.08 206.05 520.106 206.05 520.106 206.05C520.106 206.05 520.106 206.077 520.106 206.13V210.77C520.106 210.824 520.106 210.85 520.106 210.85C520.106 210.85 520.08 210.85 520.026 210.85H515.386C515.333 210.85 515.306 210.85 515.306 210.85C515.306 210.85 515.306 210.824 515.306 210.77V206.13C515.306 206.077 515.306 206.05 515.306 206.05C515.306 206.05 515.333 206.05 515.386 206.05ZM483.386 214.05H488.026C488.08 214.05 488.106 214.05 488.106 214.05C488.106 214.05 488.106 214.077 488.106 214.13V218.77C488.106 218.824 488.106 218.85 488.106 218.85C488.106 218.85 488.08 218.85 488.026 218.85H483.386C483.333 218.85 483.306 218.85 483.306 218.85C483.306 218.85 483.306 218.824 483.306 218.77V214.13C483.306 214.077 483.306 214.05 483.306 214.05C483.306 214.05 483.333 214.05 483.386 214.05ZM515.386 214.05H520.026C520.08 214.05 520.106 214.05 520.106 214.05C520.106 214.05 520.106 214.077 520.106 214.13V218.77C520.106 218.824 520.106 218.85 520.106 218.85C520.106 218.85 520.08 218.85 520.026 218.85H515.386C515.333 218.85 515.306 218.85 515.306 218.85C515.306 218.85 515.306 218.824 515.306 218.77V214.13C515.306 214.077 515.306 214.05 515.306 214.05C515.306 214.05 515.333 214.05 515.386 214.05ZM491.386 222.05H496.026C496.08 222.05 496.106 222.05 496.106 222.05C496.106 222.05 496.106 222.077 496.106 222.13V226.77C496.106 226.824 496.106 226.85 496.106 226.85C496.106 226.85 496.08 226.85 496.026 226.85H491.386C491.333 226.85 491.306 226.85 491.306 226.85C491.306 226.85 491.306 226.824 491.306 226.77V222.13C491.306 222.077 491.306 222.05 491.306 222.05C491.306 222.05 491.333 222.05 491.386 222.05ZM499.386 222.05H504.026C504.08 222.05 504.106 222.05 504.106 222.05C504.106 222.05 504.106 222.077 504.106 222.13V226.77C504.106 226.824 504.106 226.85 504.106 226.85C504.106 226.85 504.08 226.85 504.026 226.85H499.386C499.333 226.85 499.306 226.85 499.306 226.85C499.306 226.85 499.306 226.824 499.306 226.77V222.13C499.306 222.077 499.306 222.05 499.306 222.05C499.306 222.05 499.333 222.05 499.386 222.05ZM507.386 222.05H512.026C512.08 222.05 512.106 222.05 512.106 222.05C512.106 222.05 512.106 222.077 512.106 222.13V226.77C512.106 226.824 512.106 226.85 512.106 226.85C512.106 226.85 512.08 226.85 512.026 226.85H507.386C507.333 226.85 507.306 226.85 507.306 226.85C507.306 226.85 507.306 226.824 507.306 226.77V222.13C507.306 222.077 507.306 222.05 507.306 222.05C507.306 222.05 507.333 222.05 507.386 222.05Z" fill="#0A0B0D"/>
</svg>
