<svg width="671" height="520" viewBox="0 0 671 520" fill="none" xmlns="http://www.w3.org/2000/svg">
<g clip-path="url(#clip0_3484_8810)">
<rect width="671" height="520" rx="8" fill="#FAFAFA"/>
<rect x="385.133" y="248.188" width="3.95076" height="47.4091" transform="rotate(90 385.133 248.188)" fill="black"/>
<rect x="363.406" y="273.868" width="3.95076" height="47.4091" transform="rotate(-180 363.406 273.868)" fill="black"/>
<rect x="402.914" y="226.459" width="223.876" height="47.4091" fill="#CCCCCC"/>
<rect x="103.973" y="172.795" width="17.7784" height="131.033" fill="#FEA8CD"/>
<rect x="319.945" y="172.795" width="17.7784" height="131.033" fill="#FEA8CD"/>
<rect x="385.133" y="172.795" width="17.7784" height="131.033" fill="#FEA8CD"/>
<path d="M106.899 329.026V328.484H107.894V325.753H107.793L107.034 326.189V325.6L107.97 325.053H108.512V328.484H109.447V329.026H106.899ZM111.299 329.026V328.272H112.064V329.026H111.299ZM115.246 329.114C114.452 329.114 113.934 328.655 113.81 327.99H114.452C114.54 328.308 114.811 328.561 115.252 328.561C115.735 328.561 116.053 328.202 116.053 327.725C116.053 327.254 115.764 326.889 115.264 326.889C114.805 326.889 114.552 327.195 114.481 327.448L113.857 327.425L113.981 325.053H116.388V325.612H114.487L114.428 326.819H114.528C114.681 326.56 114.993 326.36 115.447 326.36C116.2 326.36 116.683 326.942 116.683 327.719C116.683 328.537 116.076 329.114 115.246 329.114ZM117.069 329.026L118.375 326.966L117.157 324.965H117.887L118.717 326.442H118.811L119.653 324.965H120.347L119.123 326.942L120.418 329.026H119.688L118.787 327.46H118.687L117.763 329.026H117.069Z" fill="#0A0B0D"/>
<path d="M122.406 310.413L122.406 320.503" stroke="#0A0B0D" stroke-width="0.788301"/>
<path d="M122.406 315.457L107.827 315.457" stroke="#0A0B0D" stroke-width="0.788301"/>
<path d="M104.629 310.413L104.629 320.503" stroke="#0A0B0D" stroke-width="0.788301"/>
<path d="M113.516 315.457L104.674 315.457" stroke="#0A0B0D" stroke-width="0.788301"/>
<path d="M322.215 329.026V328.484H323.21V325.753H323.11L322.351 326.189V325.6L323.286 325.053H323.828V328.484H324.764V329.026H322.215ZM326.616 329.026V328.272H327.381V329.026H326.616ZM330.563 329.114C329.768 329.114 329.25 328.655 329.127 327.99H329.768C329.857 328.308 330.127 328.561 330.569 328.561C331.051 328.561 331.369 328.202 331.369 327.725C331.369 327.254 331.081 326.889 330.58 326.889C330.121 326.889 329.868 327.195 329.798 327.448L329.174 327.425L329.297 325.053H331.705V325.612H329.804L329.745 326.819H329.845C329.998 326.56 330.31 326.36 330.763 326.36C331.516 326.36 331.999 326.942 331.999 327.719C331.999 328.537 331.393 329.114 330.563 329.114ZM332.385 329.026L333.692 326.966L332.473 324.965H333.203L334.033 326.442H334.127L334.969 324.965H335.664L334.439 326.942L335.734 329.026H335.004L334.104 327.46H334.004L333.08 329.026H332.385Z" fill="#0A0B0D"/>
<path d="M337.727 310.413L337.727 320.503" stroke="#0A0B0D" stroke-width="0.788301"/>
<path d="M337.727 315.458L323.147 315.458" stroke="#0A0B0D" stroke-width="0.788301"/>
<path d="M319.945 310.413L319.945 320.503" stroke="#0A0B0D" stroke-width="0.788301"/>
<path d="M328.828 315.458L319.987 315.458" stroke="#0A0B0D" stroke-width="0.788301"/>
<path d="M387.403 329.026V328.484H388.397V325.753H388.297L387.538 326.189V325.6L388.474 325.053H389.015V328.484H389.951V329.026H387.403ZM391.803 329.026V328.272H392.568V329.026H391.803ZM395.75 329.114C394.956 329.114 394.438 328.655 394.314 327.99H394.956C395.044 328.308 395.315 328.561 395.756 328.561C396.239 328.561 396.557 328.202 396.557 327.725C396.557 327.254 396.268 326.889 395.768 326.889C395.309 326.889 395.056 327.195 394.985 327.448L394.361 327.425L394.485 325.053H396.892V325.612H394.991L394.932 326.819H395.032C395.185 326.56 395.497 326.36 395.95 326.36C396.704 326.36 397.187 326.942 397.187 327.719C397.187 328.537 396.58 329.114 395.75 329.114ZM397.573 329.026L398.879 326.966L397.661 324.965H398.391L399.221 326.442H399.315L400.157 324.965H400.851L399.627 326.942L400.922 329.026H400.192L399.291 327.46H399.191L398.267 329.026H397.573Z" fill="#0A0B0D"/>
<path d="M402.914 310.413L402.914 320.503" stroke="#0A0B0D" stroke-width="0.788301"/>
<path d="M402.914 315.458L388.334 315.458" stroke="#0A0B0D" stroke-width="0.788301"/>
<path d="M385.133 310.413L385.133 320.503" stroke="#0A0B0D" stroke-width="0.788301"/>
<path d="M394.023 315.458L385.182 315.458" stroke="#0A0B0D" stroke-width="0.788301"/>
<path d="M126.033 188.013L127.339 185.953L126.121 183.952H126.851L127.681 185.429H127.775L128.617 183.952H129.311L128.087 185.929L129.382 188.013H128.652L127.751 186.447H127.651L126.727 188.013H126.033Z" fill="#0A0B0D"/>
<path d="M133.602 193.208L133.602 203.298" stroke="#0A0B0D" stroke-width="0.788301"/>
<path d="M121.75 193.208L121.75 203.298" stroke="#0A0B0D" stroke-width="0.788301"/>
<path d="M133.602 198.251L121.807 198.251" stroke="#0A0B0D" stroke-width="0.788301"/>
<path d="M148.591 275.336C143.396 275.336 138.389 273.446 135.461 268.44H133.761V273.919H121.953V208.74H133.761V232.45H135.461C138.484 227.254 144.152 225.271 149.253 225.271C162.005 225.271 170.601 235.473 170.601 249.831C170.601 264.472 161.155 275.336 148.591 275.336ZM146.041 264.756C153.314 264.756 158.51 258.805 158.51 250.303C158.51 241.802 153.22 235.851 146.041 235.851C138.956 235.851 133.761 241.518 133.761 250.303C133.761 259.088 138.956 264.756 146.041 264.756ZM192.422 275.336C183.353 275.336 175.985 269.857 175.985 260.883C175.985 250.303 184.109 246.903 193.933 245.863L207.819 244.447V241.802C207.819 237.74 204.513 234.906 198.656 234.906C193.083 234.906 189.871 237.362 188.832 241.046H177.497C178.63 232.072 186.093 225.271 198.656 225.271C210.747 225.271 218.776 231.127 218.776 242.557V265.606C218.776 268.534 219.06 272.596 219.249 273.73V273.919H207.913C207.819 272.313 207.819 270.801 207.819 269.196H206.119C203.19 273.919 198.089 275.336 192.422 275.336ZM195.633 266.456C203.379 266.456 207.819 260.6 207.819 254.648V252.287L197.428 253.515C191.005 254.271 187.887 256.16 187.887 260.316C187.887 264.189 191.099 266.456 195.633 266.456ZM247.115 275.336C235.213 275.336 226.711 269.384 225.389 260.033H237.008C238.33 264.189 242.675 265.984 247.209 265.984C251.838 265.984 255.617 264 255.617 260.505C255.617 257.01 252.027 256.065 247.115 255.215L242.108 254.365C232.662 252.759 226.806 248.792 226.806 240.29C226.806 231.033 234.929 225.271 246.17 225.271C257.128 225.271 264.401 230.372 266.385 239.251H255.05C253.727 235.756 250.232 234.339 246.265 234.339C241.447 234.339 238.33 236.417 238.33 239.346C238.33 242.368 240.786 243.313 245.887 244.163L250.893 245.013C260.056 246.525 267.046 250.303 267.046 259.466C267.046 269.479 258.734 275.336 247.115 275.336ZM296.613 275.336C282.066 275.336 272.431 265.417 272.431 250.209C272.431 235.284 282.633 225.271 296.707 225.271C311.443 225.271 319.945 236.228 319.945 250.681V252.759H283.955C284.522 260.6 290.001 265.228 296.613 265.228C302.092 265.228 305.398 263.339 307.004 260.033H319.095C316.639 268.912 307.854 275.336 296.613 275.336ZM308.421 244.919C307.476 238.59 302.47 234.906 296.613 234.906C290.473 234.906 285.278 238.495 284.144 244.919H308.421Z" fill="#0A0B0D"/>
<path d="M59.3964 273.919C57.5071 273.919 56.5625 272.974 56.5625 271.085V229.522C56.5625 227.633 57.5071 226.688 59.3964 226.688H100.96C102.849 226.688 103.793 227.633 103.793 229.522V271.085C103.793 272.974 102.849 273.919 100.96 273.919H59.3964Z" fill="#0000FF"/>
<line x1="-19.1602" y1="250.163" x2="690.001" y2="250.163" stroke="#FC401F" stroke-width="0.658459"/>
</g>
<defs>
<clipPath id="clip0_3484_8810">
<rect width="671" height="520" rx="8" fill="white"/>
</clipPath>
</defs>
</svg>
