<svg width="202" height="40" viewBox="0 0 202 40" fill="none" xmlns="http://www.w3.org/2000/svg">
<path d="M1.79971 33.0556C1.03659 33.0556 0.655029 32.6744 0.655029 31.9122V15.1433C0.655029 14.3811 1.03659 14 1.79971 14H18.5884C19.3515 14 19.7331 14.3811 19.7331 15.1433V31.9122C19.7331 32.6744 19.3515 33.0556 18.5884 33.0556H1.79971Z" fill="#0000FF"/>
<path d="M38.376 33.57C36.286 33.57 34.272 32.81 33.094 30.796H32.41V33H27.66V6.78H32.41V16.318H33.094C34.31 14.228 36.59 13.43 38.642 13.43C43.772 13.43 47.23 17.534 47.23 23.31C47.23 29.2 43.43 33.57 38.376 33.57ZM37.35 29.314C40.276 29.314 42.366 26.92 42.366 23.5C42.366 20.08 40.238 17.686 37.35 17.686C34.5 17.686 32.41 19.966 32.41 23.5C32.41 27.034 34.5 29.314 37.35 29.314ZM55.8976 33.57C52.2496 33.57 49.2856 31.366 49.2856 27.756C49.2856 23.5 52.5536 22.132 56.5056 21.714L62.6996 21.068V24.222L57.9116 24.792C55.3276 25.096 54.0736 25.856 54.0736 27.528C54.0736 29.086 55.3656 29.998 57.1896 29.998C60.3056 29.998 62.0916 27.642 62.0916 25.248V20.08C62.0916 18.446 60.7616 17.306 58.4056 17.306C56.1636 17.306 54.8716 18.294 54.4536 19.776H49.8936C50.3496 16.166 53.3516 13.43 58.4056 13.43C63.2696 13.43 66.4996 15.786 66.4996 20.384V29.656C66.4996 30.834 66.6136 32.468 66.6896 32.924V33H62.1296C62.0916 32.354 62.0916 31.746 62.0916 31.1H61.4076C60.2296 33 58.1776 33.57 55.8976 33.57ZM78.0388 33.57C73.2508 33.57 69.8308 31.176 69.2988 27.414H73.9728C74.5048 29.086 76.2528 29.808 78.0768 29.808C79.9388 29.808 81.4588 29.01 81.4588 27.604C81.4588 26.198 80.0148 25.818 78.0388 25.476L76.0248 25.134C72.2248 24.488 69.8688 22.892 69.8688 19.472C69.8688 15.748 73.1368 13.43 77.6588 13.43C82.0668 13.43 84.9928 15.482 85.7908 19.054H81.2308C80.6988 17.648 79.2928 17.078 77.6968 17.078C75.7588 17.078 74.5048 17.914 74.5048 19.092C74.5048 20.308 75.4928 20.688 77.5448 21.03L79.5588 21.372C83.2448 21.98 86.0568 23.5 86.0568 27.186C86.0568 31.214 82.7128 33.57 78.0388 33.57ZM97.6441 33.57C91.7921 33.57 87.9161 29.58 87.9161 23.462C87.9161 17.458 92.0201 13.43 97.6821 13.43C103.61 13.43 107.03 17.838 107.03 23.652C107.03 23.918 107.03 24.222 107.03 24.488H90.4621V21.334H102.394C102.014 18.788 100 17.306 97.6441 17.306C94.9461 17.306 92.7421 19.016 92.5521 22.018L92.5141 23.88C92.5141 27.414 94.8321 29.504 97.6441 29.504C99.8481 29.504 101.178 28.744 101.824 27.414H106.688C105.7 30.986 102.166 33.57 97.6441 33.57Z" fill="black"/>
<path d="M121.286 33.57C116.08 33.57 111.596 29.846 111.596 23.5C111.596 17.192 116.08 13.43 121.286 13.43C125.694 13.43 129.152 15.9 130.178 20.194H127.252C126.416 17.496 124.212 16.014 121.324 16.014C117.752 16.014 114.598 18.75 114.598 23.5C114.598 28.288 117.752 31.024 121.324 31.024C124.212 31.024 126.492 29.504 127.366 26.692H130.254C129.266 30.986 125.808 33.57 121.286 33.57ZM133.648 33V6.78H136.536V16.622H137.106C138.322 14.57 140.488 13.43 142.996 13.43C146.948 13.43 149.57 16.166 149.57 20.536V33H146.682V21.372C146.682 18.294 145.2 16.09 141.932 16.09C138.778 16.09 136.536 18.598 136.536 21.372V33H133.648ZM159.76 33.57C156.074 33.57 153.072 31.442 153.072 27.832C153.072 23.614 156.72 22.436 160.9 21.98L167.474 21.258V23.348L161.926 23.994C158.468 24.412 156.112 25.248 156.112 27.642C156.112 29.96 157.974 31.29 160.406 31.29C164.244 31.29 166.562 28.516 166.562 25.742V20.346C166.562 17.61 164.89 15.824 161.774 15.824C159.038 15.824 157.138 17.192 156.644 19.624H153.832C154.326 16.052 157.29 13.43 161.774 13.43C166.638 13.43 169.298 16.09 169.298 20.384V29.694C169.298 30.834 169.412 32.468 169.488 32.924V33H166.562C166.524 32.354 166.524 31.404 166.524 30.454H165.954C164.89 32.468 162.496 33.57 159.76 33.57ZM174.192 33V14H177.08V33H174.192ZM174.154 10.238V6.78H177.118V10.238H174.154ZM182.255 33V14H185.143V16.622H185.713C186.929 14.57 189.095 13.43 191.603 13.43C195.555 13.43 198.177 16.166 198.177 20.536V33H195.289V21.372C195.289 18.294 193.807 16.09 190.539 16.09C187.385 16.09 185.143 18.598 185.143 21.372V33H182.255Z" fill="black"/>
</svg>
