<svg width="320" height="253" viewBox="0 0 320 253" fill="none" xmlns="http://www.w3.org/2000/svg">
<rect y="0.183594" width="320" height="252" rx="8" fill="#0A0B0D"/>
<rect width="237.852" height="216.5" transform="translate(40.9258 18.4336)" fill="white"/>
<path d="M54.0731 156.415C54.022 155.937 53.807 155.566 53.428 155.299C53.0527 155.033 52.5643 154.9 51.963 154.9C51.5403 154.9 51.1777 154.964 50.8752 155.092C50.5728 155.219 50.3413 155.392 50.181 155.611C50.0207 155.83 49.9387 156.079 49.935 156.36C49.935 156.593 49.9879 156.795 50.0935 156.967C50.2029 157.138 50.3505 157.284 50.5363 157.404C50.7222 157.521 50.9281 157.619 51.154 157.699C51.38 157.779 51.6077 157.847 51.8373 157.901L52.8869 158.164C53.3096 158.262 53.7159 158.395 54.1059 158.563C54.4994 158.731 54.8511 158.942 55.1609 159.197C55.4743 159.452 55.7221 159.76 55.9043 160.121C56.0865 160.482 56.1776 160.904 56.1776 161.389C56.1776 162.045 56.01 162.623 55.6747 163.122C55.3394 163.618 54.8548 164.006 54.2207 164.286C53.5902 164.563 52.8267 164.702 51.9302 164.702C51.0593 164.702 50.3031 164.567 49.6617 164.297C49.0239 164.027 48.5247 163.634 48.1639 163.116C47.8068 162.599 47.6136 161.968 47.5845 161.225H49.5797C49.6088 161.615 49.7291 161.939 49.9405 162.198C50.1518 162.457 50.427 162.65 50.7659 162.778C51.1085 162.905 51.4911 162.969 51.9138 162.969C52.3548 162.969 52.7411 162.903 53.0727 162.772C53.408 162.637 53.6704 162.451 53.8599 162.214C54.0494 161.974 54.146 161.693 54.1496 161.373C54.146 161.081 54.0603 160.841 53.8927 160.651C53.725 160.458 53.49 160.298 53.1875 160.17C52.8887 160.039 52.5388 159.922 52.138 159.82L50.8643 159.492C49.9423 159.255 49.2134 158.896 48.6777 158.415C48.1457 157.931 47.8796 157.287 47.8796 156.486C47.8796 155.826 48.0582 155.248 48.4154 154.753C48.7761 154.257 49.2663 153.873 49.8858 153.599C50.5053 153.322 51.2069 153.184 51.9904 153.184C52.7848 153.184 53.4809 153.322 54.0785 153.599C54.6798 153.873 55.1518 154.254 55.4943 154.742C55.8369 155.227 56.0136 155.784 56.0246 156.415H54.0731ZM61.937 156.136V157.666H57.1101V156.136H61.937ZM58.3018 154.124H60.2806V162.007C60.2806 162.273 60.3207 162.477 60.4009 162.619C60.4847 162.757 60.594 162.852 60.7289 162.903C60.8637 162.954 61.0131 162.98 61.1771 162.98C61.301 162.98 61.414 162.971 61.516 162.952C61.6217 162.934 61.7019 162.918 61.7566 162.903L62.09 164.45C61.9843 164.487 61.8331 164.527 61.6363 164.57C61.4432 164.614 61.2063 164.64 60.9257 164.647C60.4301 164.662 59.9836 164.587 59.5864 164.423C59.1892 164.255 58.874 163.997 58.6407 163.647C58.4111 163.297 58.2982 162.86 58.3018 162.335V154.124ZM65.8541 164.702C65.3221 164.702 64.8428 164.607 64.4165 164.417C63.9937 164.224 63.6585 163.94 63.4106 163.565C63.1665 163.189 63.0444 162.726 63.0444 162.176C63.0444 161.702 63.1319 161.311 63.3068 161.001C63.4817 160.691 63.7204 160.443 64.0229 160.258C64.3253 160.072 64.6661 159.931 65.0451 159.837C65.4277 159.738 65.8231 159.667 66.2313 159.623C66.7233 159.572 67.1223 159.527 67.4284 159.487C67.7346 159.443 67.9569 159.377 68.0953 159.29C68.2375 159.199 68.3085 159.059 68.3085 158.869V158.836C68.3085 158.424 68.1864 158.106 67.9423 157.88C67.6981 157.654 67.3464 157.541 66.8873 157.541C66.4026 157.541 66.0181 157.646 65.7339 157.858C65.4532 158.069 65.2637 158.319 65.1654 158.607L63.3177 158.344C63.4635 157.834 63.704 157.408 64.0393 157.065C64.3745 156.719 64.7845 156.46 65.2692 156.289C65.7539 156.114 66.2896 156.027 66.8763 156.027C67.2808 156.027 67.6835 156.074 68.0844 156.169C68.4853 156.263 68.8515 156.42 69.1831 156.639C69.5148 156.854 69.7808 157.147 69.9812 157.519C70.1853 157.891 70.2874 158.355 70.2874 158.913V164.532H68.3851V163.379H68.3195C68.1992 163.612 68.0297 163.831 67.8111 164.035C67.5961 164.235 67.3246 164.397 66.9966 164.521C66.6723 164.642 66.2914 164.702 65.8541 164.702ZM66.368 163.248C66.7652 163.248 67.1096 163.169 67.4011 163.013C67.6926 162.852 67.9168 162.641 68.0735 162.378C68.2338 162.116 68.314 161.83 68.314 161.52V160.531C68.252 160.582 68.1464 160.629 67.9969 160.673C67.8512 160.717 67.6872 160.755 67.505 160.788C67.3228 160.821 67.1424 160.85 66.9638 160.875C66.7852 160.901 66.6303 160.923 66.4992 160.941C66.204 160.981 65.9398 161.046 65.7065 161.138C65.4733 161.229 65.2893 161.356 65.1544 161.52C65.0196 161.681 64.9522 161.888 64.9522 162.143C64.9522 162.508 65.0852 162.783 65.3512 162.969C65.6172 163.155 65.9562 163.248 66.368 163.248ZM75.7747 167.856C75.0641 167.856 74.4537 167.759 73.9435 167.566C73.4333 167.377 73.0233 167.121 72.7136 166.801C72.4038 166.48 72.1888 166.125 72.0685 165.735L73.8506 165.303C73.9307 165.467 74.0474 165.629 74.2004 165.789C74.3535 165.953 74.5594 166.088 74.8181 166.194C75.0805 166.303 75.4103 166.358 75.8075 166.358C76.3688 166.358 76.8334 166.221 77.2015 165.948C77.5695 165.678 77.7536 165.234 77.7536 164.614V163.024H77.6552C77.5531 163.228 77.4037 163.437 77.2069 163.652C77.0138 163.867 76.7569 164.048 76.4362 164.193C76.1191 164.339 75.7201 164.412 75.239 164.412C74.594 164.412 74.0091 164.261 73.4843 163.958C72.9632 163.652 72.5477 163.197 72.238 162.592C71.9319 161.983 71.7788 161.221 71.7788 160.307C71.7788 159.385 71.9319 158.607 72.238 157.973C72.5477 157.335 72.965 156.852 73.4898 156.524C74.0146 156.192 74.5995 156.027 75.2445 156.027C75.7365 156.027 76.141 156.11 76.458 156.278C76.7787 156.442 77.0338 156.641 77.2233 156.874C77.4128 157.103 77.5568 157.32 77.6552 157.524H77.7645V156.136H79.716V164.669C79.716 165.387 79.5447 165.981 79.2022 166.451C78.8596 166.921 78.3913 167.273 77.7973 167.506C77.2033 167.739 76.5291 167.856 75.7747 167.856ZM75.7911 162.86C76.2102 162.86 76.5674 162.757 76.8625 162.553C77.1577 162.349 77.3819 162.056 77.5349 161.673C77.688 161.291 77.7645 160.831 77.7645 160.296C77.7645 159.767 77.688 159.305 77.5349 158.907C77.3855 158.51 77.1632 158.202 76.868 157.983C76.5765 157.761 76.2175 157.65 75.7911 157.65C75.3502 157.65 74.9821 157.765 74.6869 157.994C74.3917 158.224 74.1694 158.539 74.02 158.94C73.8706 159.337 73.7959 159.789 73.7959 160.296C73.7959 160.81 73.8706 161.26 74.02 161.646C74.1731 162.029 74.3972 162.327 74.6924 162.542C74.9912 162.754 75.3575 162.86 75.7911 162.86ZM85.3072 164.696C84.4654 164.696 83.7384 164.521 83.1262 164.171C82.5176 163.818 82.0493 163.319 81.7213 162.674C81.3933 162.025 81.2293 161.262 81.2293 160.383C81.2293 159.52 81.3933 158.762 81.7213 158.109C82.0529 157.453 82.5157 156.943 83.1098 156.579C83.7038 156.211 84.4016 156.027 85.2034 156.027C85.7209 156.027 86.2092 156.11 86.6684 156.278C87.1312 156.442 87.5393 156.697 87.8928 157.043C88.25 157.389 88.5306 157.83 88.7347 158.366C88.9387 158.898 89.0408 159.532 89.0408 160.268V160.875H82.1586V159.541H87.1439C87.1403 159.162 87.0583 158.825 86.898 158.53C86.7376 158.231 86.5135 157.996 86.2256 157.825C85.9413 157.654 85.6097 157.568 85.2307 157.568C84.8262 157.568 84.4709 157.666 84.1648 157.863C83.8586 158.056 83.6199 158.311 83.4487 158.629C83.281 158.942 83.1954 159.286 83.1917 159.662V160.826C83.1917 161.314 83.281 161.733 83.4596 162.083C83.6382 162.429 83.8878 162.696 84.2085 162.881C84.5292 163.064 84.9046 163.155 85.3346 163.155C85.6225 163.155 85.883 163.115 86.1163 163.034C86.3495 162.951 86.5518 162.829 86.723 162.668C86.8943 162.508 87.0237 162.309 87.1111 162.072L88.9588 162.28C88.8422 162.768 88.6199 163.195 88.2919 163.559C87.9676 163.92 87.5521 164.201 87.0456 164.401C86.539 164.598 85.9596 164.696 85.3072 164.696ZM98.7569 153.337V164.532H96.7289V155.31H96.6633L94.0449 156.983V155.125L96.8273 153.337H98.7569ZM109.013 164.532H105.219V153.337H109.089C110.201 153.337 111.156 153.561 111.954 154.009C112.755 154.454 113.371 155.094 113.801 155.928C114.231 156.763 114.446 157.761 114.446 158.924C114.446 160.09 114.23 161.092 113.796 161.93C113.366 162.768 112.745 163.412 111.932 163.86C111.123 164.308 110.15 164.532 109.013 164.532ZM107.247 162.778H108.914C109.694 162.778 110.345 162.635 110.866 162.351C111.387 162.063 111.779 161.635 112.041 161.067C112.304 160.494 112.435 159.78 112.435 158.924C112.435 158.067 112.304 157.357 112.041 156.792C111.779 156.223 111.391 155.799 110.877 155.518C110.367 155.234 109.733 155.092 108.975 155.092H107.247V162.778ZM119.849 164.696C119.007 164.696 118.28 164.521 117.668 164.171C117.059 163.818 116.591 163.319 116.263 162.674C115.935 162.025 115.771 161.262 115.771 160.383C115.771 159.52 115.935 158.762 116.263 158.109C116.595 157.453 117.058 156.943 117.652 156.579C118.246 156.211 118.943 156.027 119.745 156.027C120.263 156.027 120.751 156.11 121.21 156.278C121.673 156.442 122.081 156.697 122.435 157.043C122.792 157.389 123.072 157.83 123.276 158.366C123.481 158.898 123.583 159.532 123.583 160.268V160.875H116.7V159.541H121.686C121.682 159.162 121.6 158.825 121.44 158.53C121.279 158.231 121.055 157.996 120.767 157.825C120.483 157.654 120.152 157.568 119.773 157.568C119.368 157.568 119.013 157.666 118.707 157.863C118.4 158.056 118.162 158.311 117.991 158.629C117.823 158.942 117.737 159.286 117.734 159.662V160.826C117.734 161.314 117.823 161.733 118.001 162.083C118.18 162.429 118.43 162.696 118.75 162.881C119.071 163.064 119.446 163.155 119.876 163.155C120.164 163.155 120.425 163.115 120.658 163.034C120.891 162.951 121.094 162.829 121.265 162.668C121.436 162.508 121.566 162.309 121.653 162.072L123.501 162.28C123.384 162.768 123.162 163.195 122.834 163.559C122.509 163.92 122.094 164.201 121.587 164.401C121.081 164.598 120.501 164.696 119.849 164.696ZM128.765 164.696C127.927 164.696 127.207 164.512 126.606 164.144C126.008 163.776 125.547 163.268 125.223 162.619C124.902 161.967 124.742 161.216 124.742 160.367C124.742 159.514 124.906 158.762 125.234 158.109C125.562 157.453 126.025 156.943 126.622 156.579C127.224 156.211 127.934 156.027 128.754 156.027C129.436 156.027 130.039 156.152 130.564 156.404C131.092 156.652 131.513 157.003 131.826 157.459C132.14 157.911 132.318 158.439 132.362 159.044H130.471C130.394 158.639 130.212 158.302 129.924 158.033C129.64 157.759 129.259 157.623 128.782 157.623C128.377 157.623 128.022 157.732 127.716 157.951C127.41 158.166 127.171 158.475 127 158.88C126.832 159.284 126.748 159.769 126.748 160.334C126.748 160.906 126.832 161.398 127 161.81C127.167 162.218 127.402 162.533 127.705 162.756C128.011 162.974 128.37 163.084 128.782 163.084C129.073 163.084 129.334 163.029 129.563 162.92C129.797 162.807 129.992 162.645 130.148 162.433C130.305 162.222 130.412 161.965 130.471 161.662H132.362C132.315 162.256 132.14 162.783 131.837 163.242C131.535 163.698 131.123 164.055 130.602 164.314C130.081 164.569 129.469 164.696 128.765 164.696ZM137.55 164.696C136.708 164.696 135.981 164.521 135.369 164.171C134.761 163.818 134.292 163.319 133.964 162.674C133.636 162.025 133.472 161.262 133.472 160.383C133.472 159.52 133.636 158.762 133.964 158.109C134.296 157.453 134.759 156.943 135.353 156.579C135.947 156.211 136.645 156.027 137.446 156.027C137.964 156.027 138.452 156.11 138.911 156.278C139.374 156.442 139.782 156.697 140.136 157.043C140.493 157.389 140.774 157.83 140.978 158.366C141.182 158.898 141.284 159.532 141.284 160.268V160.875H134.402V159.541H139.387C139.383 159.162 139.301 158.825 139.141 158.53C138.981 158.231 138.756 157.996 138.469 157.825C138.184 157.654 137.853 157.568 137.474 157.568C137.069 157.568 136.714 157.666 136.408 157.863C136.102 158.056 135.863 158.311 135.692 158.629C135.524 158.942 135.438 159.286 135.435 159.662V160.826C135.435 161.314 135.524 161.733 135.703 162.083C135.881 162.429 136.131 162.696 136.451 162.881C136.772 163.064 137.148 163.155 137.578 163.155C137.865 163.155 138.126 163.115 138.359 163.034C138.592 162.951 138.795 162.829 138.966 162.668C139.137 162.508 139.267 162.309 139.354 162.072L141.202 162.28C141.085 162.768 140.863 163.195 140.535 163.559C140.211 163.92 139.795 164.201 139.289 164.401C138.782 164.598 138.203 164.696 137.55 164.696ZM144.783 159.612V164.532H142.804V156.136H144.695V157.563H144.794C144.987 157.092 145.295 156.719 145.717 156.442C146.144 156.165 146.67 156.027 147.297 156.027C147.877 156.027 148.381 156.15 148.811 156.398C149.245 156.646 149.58 157.005 149.817 157.475C150.058 157.945 150.176 158.516 150.173 159.186V164.532H148.194V159.492C148.194 158.931 148.048 158.492 147.756 158.175C147.469 157.858 147.07 157.699 146.559 157.699C146.213 157.699 145.905 157.776 145.635 157.929C145.369 158.078 145.16 158.295 145.007 158.579C144.857 158.864 144.783 159.208 144.783 159.612ZM156.223 156.136V157.666H151.396V156.136H156.223ZM152.588 154.124H154.567V162.007C154.567 162.273 154.607 162.477 154.687 162.619C154.771 162.757 154.88 162.852 155.015 162.903C155.15 162.954 155.299 162.98 155.463 162.98C155.587 162.98 155.7 162.971 155.802 162.952C155.908 162.934 155.988 162.918 156.043 162.903L156.376 164.45C156.27 164.487 156.119 164.527 155.922 164.57C155.729 164.614 155.492 164.64 155.212 164.647C154.716 164.662 154.27 164.587 153.872 164.423C153.475 164.255 153.16 163.997 152.927 163.647C152.697 163.297 152.584 162.86 152.588 162.335V154.124ZM157.724 164.532V156.136H159.643V157.535H159.73C159.883 157.051 160.146 156.677 160.517 156.415C160.893 156.149 161.321 156.016 161.802 156.016C161.911 156.016 162.033 156.021 162.168 156.032C162.307 156.039 162.421 156.052 162.513 156.07V157.891C162.429 157.861 162.296 157.836 162.114 157.814C161.935 157.789 161.762 157.776 161.594 157.776C161.233 157.776 160.909 157.854 160.621 158.011C160.337 158.164 160.113 158.377 159.949 158.65C159.785 158.924 159.703 159.239 159.703 159.596V164.532H157.724ZM165.939 164.702C165.407 164.702 164.928 164.607 164.501 164.417C164.079 164.224 163.743 163.94 163.496 163.565C163.251 163.189 163.129 162.726 163.129 162.176C163.129 161.702 163.217 161.311 163.392 161.001C163.567 160.691 163.805 160.443 164.108 160.258C164.41 160.072 164.751 159.931 165.13 159.837C165.513 159.738 165.908 159.667 166.316 159.623C166.808 159.572 167.207 159.527 167.513 159.487C167.82 159.443 168.042 159.377 168.18 159.29C168.322 159.199 168.394 159.059 168.394 158.869V158.836C168.394 158.424 168.271 158.106 168.027 157.88C167.783 157.654 167.431 157.541 166.972 157.541C166.488 157.541 166.103 157.646 165.819 157.858C165.538 158.069 165.349 158.319 165.25 158.607L163.403 158.344C163.549 157.834 163.789 157.408 164.124 157.065C164.46 156.719 164.87 156.46 165.354 156.289C165.839 156.114 166.375 156.027 166.961 156.027C167.366 156.027 167.769 156.074 168.169 156.169C168.57 156.263 168.937 156.42 169.268 156.639C169.6 156.854 169.866 157.147 170.066 157.519C170.27 157.891 170.372 158.355 170.372 158.913V164.532H168.47V163.379H168.404C168.284 163.612 168.115 163.831 167.896 164.035C167.681 164.235 167.41 164.397 167.082 164.521C166.757 164.642 166.376 164.702 165.939 164.702ZM166.453 163.248C166.85 163.248 167.195 163.169 167.486 163.013C167.778 162.852 168.002 162.641 168.158 162.378C168.319 162.116 168.399 161.83 168.399 161.52V160.531C168.337 160.582 168.231 160.629 168.082 160.673C167.936 160.717 167.772 160.755 167.59 160.788C167.408 160.821 167.227 160.85 167.049 160.875C166.87 160.901 166.715 160.923 166.584 160.941C166.289 160.981 166.025 161.046 165.792 161.138C165.558 161.229 165.374 161.356 165.239 161.52C165.105 161.681 165.037 161.888 165.037 162.143C165.037 162.508 165.17 162.783 165.436 162.969C165.702 163.155 166.041 163.248 166.453 163.248ZM174.187 153.337V164.532H172.208V153.337H174.187ZM176.068 164.532V156.136H178.047V164.532H176.068ZM177.063 154.944C176.749 154.944 176.48 154.84 176.254 154.633C176.028 154.421 175.915 154.168 175.915 153.873C175.915 153.574 176.028 153.321 176.254 153.113C176.48 152.902 176.749 152.796 177.063 152.796C177.38 152.796 177.65 152.902 177.872 153.113C178.098 153.321 178.211 153.574 178.211 153.873C178.211 154.168 178.098 154.421 177.872 154.633C177.65 154.84 177.38 154.944 177.063 154.944ZM179.818 164.532V163.275L184.148 157.847V157.776H179.961V156.136H186.569V157.486L182.448 162.821V162.892H186.712V164.532H179.818ZM190.834 164.702C190.302 164.702 189.822 164.607 189.396 164.417C188.973 164.224 188.638 163.94 188.39 163.565C188.146 163.189 188.024 162.726 188.024 162.176C188.024 161.702 188.111 161.311 188.286 161.001C188.461 160.691 188.7 160.443 189.002 160.258C189.305 160.072 189.646 159.931 190.025 159.837C190.407 159.738 190.803 159.667 191.211 159.623C191.703 159.572 192.102 159.527 192.408 159.487C192.714 159.443 192.936 159.377 193.075 159.29C193.217 159.199 193.288 159.059 193.288 158.869V158.836C193.288 158.424 193.166 158.106 192.922 157.88C192.678 157.654 192.326 157.541 191.867 157.541C191.382 157.541 190.998 157.646 190.713 157.858C190.433 158.069 190.243 158.319 190.145 158.607L188.297 158.344C188.443 157.834 188.684 157.408 189.019 157.065C189.354 156.719 189.764 156.46 190.249 156.289C190.733 156.114 191.269 156.027 191.856 156.027C192.26 156.027 192.663 156.074 193.064 156.169C193.465 156.263 193.831 156.42 194.163 156.639C194.494 156.854 194.76 157.147 194.961 157.519C195.165 157.891 195.267 158.355 195.267 158.913V164.532H193.365V163.379H193.299C193.179 163.612 193.009 163.831 192.791 164.035C192.576 164.235 192.304 164.397 191.976 164.521C191.652 164.642 191.271 164.702 190.834 164.702ZM191.348 163.248C191.745 163.248 192.089 163.169 192.381 163.013C192.672 162.852 192.896 162.641 193.053 162.378C193.213 162.116 193.294 161.83 193.294 161.52V160.531C193.232 160.582 193.126 160.629 192.977 160.673C192.831 160.717 192.667 160.755 192.485 160.788C192.302 160.821 192.122 160.85 191.943 160.875C191.765 160.901 191.61 160.923 191.479 160.941C191.184 160.981 190.919 161.046 190.686 161.138C190.453 161.229 190.269 161.356 190.134 161.52C189.999 161.681 189.932 161.888 189.932 162.143C189.932 162.508 190.065 162.783 190.331 162.969C190.597 163.155 190.936 163.248 191.348 163.248ZM201.295 156.136V157.666H196.469V156.136H201.295ZM197.66 154.124H199.639V162.007C199.639 162.273 199.679 162.477 199.759 162.619C199.843 162.757 199.953 162.852 200.087 162.903C200.222 162.954 200.372 162.98 200.536 162.98C200.66 162.98 200.773 162.971 200.875 162.952C200.98 162.934 201.06 162.918 201.115 162.903L201.449 164.45C201.343 164.487 201.192 164.527 200.995 164.57C200.802 164.614 200.565 164.64 200.284 164.647C199.789 164.662 199.342 164.587 198.945 164.423C198.548 164.255 198.232 163.997 197.999 163.647C197.77 163.297 197.657 162.86 197.66 162.335V154.124ZM202.796 164.532V156.136H204.775V164.532H202.796ZM203.791 154.944C203.478 154.944 203.208 154.84 202.982 154.633C202.756 154.421 202.643 154.168 202.643 153.873C202.643 153.574 202.756 153.321 202.982 153.113C203.208 152.902 203.478 152.796 203.791 152.796C204.108 152.796 204.378 152.902 204.6 153.113C204.826 153.321 204.939 153.574 204.939 153.873C204.939 154.168 204.826 154.421 204.6 154.633C204.378 154.84 204.108 154.944 203.791 154.944ZM210.319 164.696C209.499 164.696 208.788 164.516 208.187 164.155C207.586 163.794 207.119 163.29 206.787 162.641C206.459 161.992 206.295 161.234 206.295 160.367C206.295 159.5 206.459 158.74 206.787 158.087C207.119 157.435 207.586 156.928 208.187 156.568C208.788 156.207 209.499 156.027 210.319 156.027C211.139 156.027 211.849 156.207 212.451 156.568C213.052 156.928 213.517 157.435 213.845 158.087C214.176 158.74 214.342 159.5 214.342 160.367C214.342 161.234 214.176 161.992 213.845 162.641C213.517 163.29 213.052 163.794 212.451 164.155C211.849 164.516 211.139 164.696 210.319 164.696ZM210.33 163.111C210.774 163.111 211.146 162.989 211.445 162.745C211.744 162.497 211.966 162.165 212.112 161.75C212.261 161.334 212.336 160.872 212.336 160.361C212.336 159.848 212.261 159.383 212.112 158.967C211.966 158.548 211.744 158.215 211.445 157.967C211.146 157.719 210.774 157.595 210.33 157.595C209.874 157.595 209.495 157.719 209.193 157.967C208.894 158.215 208.67 158.548 208.52 158.967C208.375 159.383 208.302 159.848 208.302 160.361C208.302 160.872 208.375 161.334 208.52 161.75C208.67 162.165 208.894 162.497 209.193 162.745C209.495 162.989 209.874 163.111 210.33 163.111ZM217.846 159.612V164.532H215.868V156.136H217.759V157.563H217.857C218.051 157.092 218.358 156.719 218.781 156.442C219.208 156.165 219.734 156.027 220.361 156.027C220.94 156.027 221.445 156.15 221.875 156.398C222.309 156.646 222.644 157.005 222.881 157.475C223.122 157.945 223.24 158.516 223.236 159.186V164.532H221.257V159.492C221.257 158.931 221.112 158.492 220.82 158.175C220.532 157.858 220.133 157.699 219.623 157.699C219.277 157.699 218.969 157.776 218.699 157.929C218.433 158.078 218.224 158.295 218.071 158.579C217.921 158.864 217.846 159.208 217.846 159.612ZM228.758 164.532V156.136H230.737V164.532H228.758ZM229.753 154.944C229.44 154.944 229.17 154.84 228.944 154.633C228.718 154.421 228.605 154.168 228.605 153.873C228.605 153.574 228.718 153.321 228.944 153.113C229.17 152.902 229.44 152.796 229.753 152.796C230.07 152.796 230.34 152.902 230.562 153.113C230.788 153.321 230.901 153.574 230.901 153.873C230.901 154.168 230.788 154.421 230.562 154.633C230.34 154.84 230.07 154.944 229.753 154.944ZM239.254 158.355L237.45 158.552C237.399 158.37 237.31 158.199 237.183 158.038C237.059 157.878 236.891 157.748 236.68 157.65C236.468 157.552 236.21 157.502 235.903 157.502C235.492 157.502 235.145 157.592 234.865 157.77C234.588 157.949 234.451 158.18 234.455 158.465C234.451 158.709 234.54 158.907 234.723 159.06C234.909 159.213 235.215 159.339 235.641 159.438L237.073 159.744C237.868 159.915 238.458 160.186 238.844 160.558C239.234 160.93 239.431 161.416 239.435 162.018C239.431 162.546 239.276 163.013 238.97 163.417C238.668 163.818 238.247 164.131 237.707 164.357C237.168 164.583 236.548 164.696 235.849 164.696C234.821 164.696 233.994 164.481 233.367 164.051C232.74 163.618 232.367 163.014 232.246 162.242L234.176 162.056C234.263 162.435 234.449 162.721 234.734 162.914C235.018 163.107 235.388 163.204 235.843 163.204C236.313 163.204 236.691 163.107 236.975 162.914C237.263 162.721 237.407 162.482 237.407 162.198C237.407 161.958 237.314 161.759 237.128 161.602C236.946 161.446 236.661 161.325 236.275 161.241L234.843 160.941C234.038 160.773 233.442 160.491 233.055 160.094C232.669 159.693 232.478 159.186 232.481 158.574C232.478 158.056 232.618 157.608 232.902 157.229C233.19 156.846 233.589 156.551 234.099 156.344C234.613 156.132 235.206 156.027 235.876 156.027C236.86 156.027 237.634 156.236 238.199 156.655C238.768 157.074 239.119 157.641 239.254 158.355ZM57.5716 177.114H55.5271C55.4688 176.779 55.3613 176.482 55.2046 176.223C55.0479 175.961 54.8529 175.739 54.6197 175.556C54.3865 175.374 54.1204 175.238 53.8216 175.146C53.5264 175.052 53.2076 175.004 52.865 175.004C52.2564 175.004 51.7171 175.157 51.2469 175.463C50.7768 175.766 50.4088 176.211 50.1427 176.797C49.8767 177.38 49.7437 178.093 49.7437 178.935C49.7437 179.791 49.8767 180.513 50.1427 181.099C50.4124 181.682 50.7805 182.123 51.2469 182.422C51.7171 182.717 52.2546 182.865 52.8595 182.865C53.1948 182.865 53.5082 182.821 53.7997 182.734C54.0949 182.643 54.3591 182.51 54.5924 182.335C54.8292 182.16 55.0279 181.945 55.1882 181.69C55.3522 181.435 55.4652 181.143 55.5271 180.815L57.5716 180.826C57.495 181.358 57.3292 181.857 57.0741 182.324C56.8227 182.79 56.4929 183.202 56.0847 183.559C55.6765 183.913 55.1991 184.19 54.6525 184.39C54.1059 184.587 53.4991 184.685 52.8322 184.685C51.8482 184.685 50.97 184.458 50.1974 184.002C49.4248 183.546 48.8162 182.889 48.3716 182.029C47.927 181.169 47.7047 180.137 47.7047 178.935C47.7047 177.728 47.9288 176.697 48.3771 175.841C48.8253 174.981 49.4357 174.323 50.2083 173.867C50.9809 173.412 51.8555 173.184 52.8322 173.184C53.4554 173.184 54.0348 173.271 54.5705 173.446C55.1062 173.621 55.5836 173.878 56.0027 174.217C56.4218 174.552 56.7662 174.964 57.0358 175.453C57.3092 175.937 57.4877 176.491 57.5716 177.114ZM62.8498 184.696C62.0299 184.696 61.3193 184.516 60.718 184.155C60.1166 183.794 59.6502 183.29 59.3186 182.641C58.9906 181.992 58.8266 181.234 58.8266 180.367C58.8266 179.5 58.9906 178.74 59.3186 178.087C59.6502 177.435 60.1166 176.928 60.718 176.568C61.3193 176.207 62.0299 176.027 62.8498 176.027C63.6698 176.027 64.3804 176.207 64.9817 176.568C65.583 176.928 66.0477 177.435 66.3757 178.087C66.7073 178.74 66.8731 179.5 66.8731 180.367C66.8731 181.234 66.7073 181.992 66.3757 182.641C66.0477 183.29 65.583 183.794 64.9817 184.155C64.3804 184.516 63.6698 184.696 62.8498 184.696ZM62.8608 183.111C63.3054 183.111 63.6771 182.989 63.9759 182.745C64.2747 182.497 64.497 182.165 64.6428 181.75C64.7922 181.334 64.8669 180.872 64.8669 180.361C64.8669 179.848 64.7922 179.383 64.6428 178.967C64.497 178.548 64.2747 178.215 63.9759 177.967C63.6771 177.719 63.3054 177.595 62.8608 177.595C62.4052 177.595 62.0262 177.719 61.7238 177.967C61.4249 178.215 61.2008 178.548 61.0514 178.967C60.9056 179.383 60.8327 179.848 60.8327 180.361C60.8327 180.872 60.9056 181.334 61.0514 181.75C61.2008 182.165 61.4249 182.497 61.7238 182.745C62.0262 182.989 62.4052 183.111 62.8608 183.111ZM68.3987 184.532V176.136H70.2901V177.563H70.3885C70.5634 177.082 70.8531 176.706 71.2576 176.437C71.6622 176.163 72.145 176.027 72.7062 176.027C73.2747 176.027 73.754 176.165 74.1439 176.442C74.5375 176.715 74.8144 177.089 74.9748 177.563H75.0622C75.2481 177.096 75.5615 176.724 76.0025 176.447C76.4471 176.167 76.9737 176.027 77.5823 176.027C78.3548 176.027 78.9853 176.271 79.4736 176.759C79.962 177.247 80.2061 177.96 80.2061 178.896V184.532H78.2218V179.202C78.2218 178.681 78.0833 178.301 77.8064 178.06C77.5294 177.816 77.1905 177.694 76.7896 177.694C76.3122 177.694 75.9387 177.843 75.669 178.142C75.403 178.437 75.27 178.822 75.27 179.295V184.532H73.3294V179.121C73.3294 178.687 73.1982 178.341 72.9358 178.082C72.6771 177.823 72.3382 177.694 71.9191 177.694C71.6348 177.694 71.3761 177.767 71.1428 177.912C70.9096 178.055 70.7238 178.257 70.5853 178.519C70.4468 178.778 70.3776 179.08 70.3776 179.427V184.532H68.3987ZM82.0597 184.532V176.136H84.0385V184.532H82.0597ZM83.0546 174.944C82.7412 174.944 82.4715 174.84 82.2456 174.633C82.0196 174.421 81.9067 174.168 81.9067 173.873C81.9067 173.574 82.0196 173.321 82.2456 173.113C82.4715 172.902 82.7412 172.796 83.0546 172.796C83.3717 172.796 83.6413 172.902 83.8636 173.113C84.0896 173.321 84.2025 173.574 84.2025 173.873C84.2025 174.168 84.0896 174.421 83.8636 174.633C83.6413 174.84 83.3717 174.944 83.0546 174.944ZM87.8983 179.612V184.532H85.9195V176.136H87.8108V177.563H87.9092C88.1024 177.092 88.4103 176.719 88.8331 176.442C89.2594 176.165 89.786 176.027 90.4128 176.027C90.9923 176.027 91.497 176.15 91.927 176.398C92.3607 176.646 92.696 177.005 92.9329 177.475C93.1734 177.945 93.2918 178.516 93.2882 179.186V184.532H91.3093V179.492C91.3093 178.931 91.1636 178.492 90.872 178.175C90.5841 177.858 90.1851 177.699 89.6749 177.699C89.3287 177.699 89.0207 177.776 88.7511 177.929C88.485 178.078 88.2755 178.295 88.1224 178.579C87.973 178.864 87.8983 179.208 87.8983 179.612ZM98.7974 187.856C98.0868 187.856 97.4764 187.759 96.9662 187.566C96.456 187.377 96.046 187.121 95.7362 186.801C95.4265 186.48 95.2115 186.125 95.0912 185.735L96.8732 185.303C96.9534 185.467 97.07 185.629 97.2231 185.789C97.3762 185.953 97.5821 186.088 97.8408 186.194C98.1032 186.303 98.433 186.358 98.8302 186.358C99.3914 186.358 99.8561 186.221 100.224 185.948C100.592 185.678 100.776 185.234 100.776 184.614V183.024H100.678C100.576 183.228 100.426 183.437 100.23 183.652C100.036 183.867 99.7795 184.048 99.4588 184.193C99.1418 184.339 98.7427 184.412 98.2617 184.412C97.6167 184.412 97.0318 184.261 96.507 183.958C95.9859 183.652 95.5704 183.197 95.2607 182.592C94.9545 181.983 94.8015 181.221 94.8015 180.307C94.8015 179.385 94.9545 178.607 95.2607 177.973C95.5704 177.335 95.9877 176.852 96.5125 176.524C97.0372 176.192 97.6221 176.027 98.2672 176.027C98.7591 176.027 99.1637 176.11 99.4807 176.278C99.8014 176.442 100.057 176.641 100.246 176.874C100.436 177.103 100.579 177.32 100.678 177.524H100.787V176.136H102.739V184.669C102.739 185.387 102.567 185.981 102.225 186.451C101.882 186.921 101.414 187.273 100.82 187.506C100.226 187.739 99.5518 187.856 98.7974 187.856ZM98.8138 182.86C99.2329 182.86 99.59 182.757 99.8852 182.553C100.18 182.349 100.405 182.056 100.558 181.673C100.711 181.291 100.787 180.831 100.787 180.296C100.787 179.767 100.711 179.305 100.558 178.907C100.408 178.51 100.186 178.202 99.8907 177.983C99.5991 177.761 99.2402 177.65 98.8138 177.65C98.3729 177.65 98.0048 177.765 97.7096 177.994C97.4144 178.224 97.1921 178.539 97.0427 178.94C96.8933 179.337 96.8186 179.789 96.8186 180.296C96.8186 180.81 96.8933 181.26 97.0427 181.646C97.1958 182.029 97.4199 182.327 97.7151 182.542C98.0139 182.754 98.3801 182.86 98.8138 182.86ZM112.47 176.136V177.666H107.643V176.136H112.47ZM108.835 174.124H110.814V182.007C110.814 182.273 110.854 182.477 110.934 182.619C111.018 182.757 111.127 182.852 111.262 182.903C111.397 182.954 111.546 182.98 111.71 182.98C111.834 182.98 111.947 182.971 112.049 182.952C112.155 182.934 112.235 182.918 112.289 182.903L112.623 184.45C112.517 184.487 112.366 184.527 112.169 184.57C111.976 184.614 111.739 184.64 111.459 184.647C110.963 184.662 110.517 184.587 110.119 184.423C109.722 184.255 109.407 183.997 109.174 183.647C108.944 183.297 108.831 182.86 108.835 182.335V174.124ZM117.543 184.696C116.723 184.696 116.013 184.516 115.411 184.155C114.81 183.794 114.343 183.29 114.012 182.641C113.684 181.992 113.52 181.234 113.52 180.367C113.52 179.5 113.684 178.74 114.012 178.087C114.343 177.435 114.81 176.928 115.411 176.568C116.013 176.207 116.723 176.027 117.543 176.027C118.363 176.027 119.074 176.207 119.675 176.568C120.276 176.928 120.741 177.435 121.069 178.087C121.401 178.74 121.566 179.5 121.566 180.367C121.566 181.234 121.401 181.992 121.069 182.641C120.741 183.29 120.276 183.794 119.675 184.155C119.074 184.516 118.363 184.696 117.543 184.696ZM117.554 183.111C117.999 183.111 118.37 182.989 118.669 182.745C118.968 182.497 119.19 182.165 119.336 181.75C119.486 181.334 119.56 180.872 119.56 180.361C119.56 179.848 119.486 179.383 119.336 178.967C119.19 178.548 118.968 178.215 118.669 177.967C118.37 177.719 117.999 177.595 117.554 177.595C117.099 177.595 116.72 177.719 116.417 177.967C116.118 178.215 115.894 178.548 115.745 178.967C115.599 179.383 115.526 179.848 115.526 180.361C115.526 180.872 115.599 181.334 115.745 181.75C115.894 182.165 116.118 182.497 116.417 182.745C116.72 182.989 117.099 183.111 117.554 183.111ZM126.844 184.532V173.337H131.129C131.938 173.337 132.611 173.465 133.147 173.72C133.686 173.971 134.089 174.316 134.355 174.753C134.624 175.19 134.759 175.686 134.759 176.24C134.759 176.695 134.672 177.085 134.497 177.41C134.322 177.73 134.087 177.991 133.792 178.191C133.496 178.392 133.167 178.536 132.802 178.623V178.732C133.199 178.754 133.58 178.876 133.945 179.099C134.313 179.317 134.613 179.627 134.847 180.028C135.08 180.429 135.196 180.913 135.196 181.482C135.196 182.061 135.056 182.583 134.776 183.045C134.495 183.505 134.072 183.867 133.507 184.133C132.942 184.399 132.232 184.532 131.375 184.532H126.844ZM128.872 182.838H131.053C131.789 182.838 132.319 182.697 132.644 182.417C132.972 182.132 133.136 181.768 133.136 181.323C133.136 180.992 133.054 180.693 132.89 180.427C132.726 180.157 132.492 179.946 132.19 179.793C131.887 179.636 131.527 179.558 131.108 179.558H128.872V182.838ZM128.872 178.098H130.878C131.228 178.098 131.543 178.035 131.824 177.907C132.104 177.776 132.325 177.592 132.485 177.355C132.649 177.114 132.731 176.83 132.731 176.502C132.731 176.068 132.578 175.711 132.272 175.431C131.969 175.15 131.519 175.01 130.922 175.01H128.872V178.098ZM139.135 184.702C138.603 184.702 138.124 184.607 137.698 184.417C137.275 184.224 136.94 183.94 136.692 183.565C136.448 183.189 136.326 182.726 136.326 182.176C136.326 181.702 136.413 181.311 136.588 181.001C136.763 180.691 137.002 180.443 137.304 180.258C137.607 180.072 137.947 179.931 138.326 179.837C138.709 179.738 139.104 179.667 139.513 179.623C140.005 179.572 140.404 179.527 140.71 179.487C141.016 179.443 141.238 179.377 141.377 179.29C141.519 179.199 141.59 179.059 141.59 178.869V178.836C141.59 178.424 141.468 178.106 141.224 177.88C140.979 177.654 140.628 177.541 140.169 177.541C139.684 177.541 139.299 177.646 139.015 177.858C138.735 178.069 138.545 178.319 138.447 178.607L136.599 178.344C136.745 177.834 136.985 177.408 137.321 177.065C137.656 176.719 138.066 176.46 138.551 176.289C139.035 176.114 139.571 176.027 140.158 176.027C140.562 176.027 140.965 176.074 141.366 176.169C141.767 176.263 142.133 176.42 142.465 176.639C142.796 176.854 143.062 177.147 143.263 177.519C143.467 177.891 143.569 178.355 143.569 178.913V184.532H141.666V183.379H141.601C141.481 183.612 141.311 183.831 141.092 184.035C140.877 184.235 140.606 184.397 140.278 184.521C139.954 184.642 139.573 184.702 139.135 184.702ZM139.649 183.248C140.047 183.248 140.391 183.169 140.682 183.013C140.974 182.852 141.198 182.641 141.355 182.378C141.515 182.116 141.595 181.83 141.595 181.52V180.531C141.533 180.582 141.428 180.629 141.278 180.673C141.133 180.717 140.969 180.755 140.786 180.788C140.604 180.821 140.424 180.85 140.245 180.875C140.067 180.901 139.912 180.923 139.781 180.941C139.485 180.981 139.221 181.046 138.988 181.138C138.755 181.229 138.571 181.356 138.436 181.52C138.301 181.681 138.234 181.888 138.234 182.143C138.234 182.508 138.367 182.783 138.633 182.969C138.899 183.155 139.238 183.248 139.649 183.248ZM152.041 178.355L150.237 178.552C150.186 178.37 150.097 178.199 149.969 178.038C149.845 177.878 149.677 177.748 149.466 177.65C149.255 177.552 148.996 177.502 148.69 177.502C148.278 177.502 147.932 177.592 147.651 177.77C147.374 177.949 147.238 178.18 147.241 178.465C147.238 178.709 147.327 178.907 147.509 179.06C147.695 179.213 148.001 179.339 148.427 179.438L149.86 179.744C150.654 179.915 151.244 180.186 151.631 180.558C152.021 180.93 152.217 181.416 152.221 182.018C152.217 182.546 152.063 183.013 151.756 183.417C151.454 183.818 151.033 184.131 150.494 184.357C149.954 184.583 149.335 184.696 148.635 184.696C147.608 184.696 146.78 184.481 146.153 184.051C145.527 183.618 145.153 183.014 145.033 182.242L146.962 182.056C147.05 182.435 147.236 182.721 147.52 182.914C147.804 183.107 148.174 183.204 148.63 183.204C149.1 183.204 149.477 183.107 149.761 182.914C150.049 182.721 150.193 182.482 150.193 182.198C150.193 181.958 150.1 181.759 149.914 181.602C149.732 181.446 149.448 181.325 149.062 181.241L147.629 180.941C146.824 180.773 146.228 180.491 145.842 180.094C145.456 179.693 145.264 179.186 145.268 178.574C145.264 178.056 145.405 177.608 145.689 177.229C145.977 176.846 146.376 176.551 146.886 176.344C147.4 176.132 147.992 176.027 148.663 176.027C149.646 176.027 150.421 176.236 150.986 176.655C151.554 177.074 151.906 177.641 152.041 178.355ZM157.416 184.696C156.574 184.696 155.847 184.521 155.235 184.171C154.626 183.818 154.158 183.319 153.83 182.674C153.502 182.025 153.338 181.262 153.338 180.383C153.338 179.52 153.502 178.762 153.83 178.109C154.162 177.453 154.625 176.943 155.219 176.579C155.813 176.211 156.51 176.027 157.312 176.027C157.83 176.027 158.318 176.11 158.777 176.278C159.24 176.442 159.648 176.697 160.002 177.043C160.359 177.389 160.639 177.83 160.843 178.366C161.048 178.898 161.15 179.532 161.15 180.268V180.875H154.267V179.541H159.253C159.249 179.162 159.167 178.825 159.007 178.53C158.846 178.231 158.622 177.996 158.334 177.825C158.05 177.654 157.719 177.568 157.34 177.568C156.935 177.568 156.58 177.666 156.274 177.863C155.967 178.056 155.729 178.311 155.557 178.629C155.39 178.942 155.304 179.286 155.301 179.662V180.826C155.301 181.314 155.39 181.733 155.568 182.083C155.747 182.429 155.997 182.696 156.317 182.881C156.638 183.064 157.013 183.155 157.443 183.155C157.731 183.155 157.992 183.115 158.225 183.034C158.458 182.951 158.661 182.829 158.832 182.668C159.003 182.508 159.133 182.309 159.22 182.072L161.068 182.28C160.951 182.768 160.729 183.195 160.401 183.559C160.076 183.92 159.661 184.201 159.154 184.401C158.648 184.598 158.068 184.696 157.416 184.696Z" fill="#0A0B0D"/>
<path d="M67.2091 223.058V218.363H69.0064C69.3456 218.363 69.6276 218.416 69.8522 218.523C70.0784 218.629 70.2473 218.773 70.3588 218.957C70.4719 219.14 70.5285 219.348 70.5285 219.58C70.5285 219.771 70.4918 219.935 70.4184 220.071C70.3451 220.205 70.2465 220.314 70.1227 220.398C69.9989 220.483 69.8606 220.543 69.7078 220.58V220.625C69.8744 220.635 70.0341 220.686 70.1869 220.779C70.3413 220.871 70.4674 221.001 70.5652 221.169C70.663 221.337 70.7119 221.54 70.7119 221.778C70.7119 222.021 70.653 222.24 70.5354 222.434C70.4177 222.627 70.2404 222.779 70.0035 222.89C69.7667 223.002 69.4686 223.058 69.1095 223.058H67.2091ZM68.0596 222.347H68.9743C69.283 222.347 69.5053 222.288 69.6413 222.17C69.7789 222.051 69.8477 221.898 69.8477 221.712C69.8477 221.573 69.8133 221.448 69.7445 221.336C69.6757 221.223 69.5779 221.134 69.4511 221.07C69.3242 221.004 69.1729 220.972 68.9972 220.972H68.0596V222.347ZM68.0596 220.36H68.9009C69.0476 220.36 69.1798 220.333 69.2975 220.279C69.4152 220.224 69.5076 220.147 69.5749 220.048C69.6436 219.947 69.678 219.828 69.678 219.69C69.678 219.508 69.6138 219.359 69.4855 219.241C69.3586 219.123 69.1699 219.064 68.9192 219.064H68.0596V220.36ZM72.4283 223.129C72.2051 223.129 72.0042 223.089 71.8254 223.009C71.6481 222.928 71.5075 222.809 71.4036 222.652C71.3012 222.494 71.25 222.3 71.25 222.07C71.25 221.871 71.2867 221.707 71.36 221.577C71.4334 221.447 71.5335 221.343 71.6603 221.265C71.7872 221.187 71.9301 221.128 72.089 221.088C72.2495 221.047 72.4153 221.017 72.5864 220.999C72.7928 220.978 72.9601 220.959 73.0885 220.942C73.2168 220.923 73.3101 220.896 73.3681 220.859C73.4277 220.821 73.4575 220.762 73.4575 220.683V220.669C73.4575 220.496 73.4063 220.363 73.304 220.268C73.2016 220.173 73.0541 220.126 72.8615 220.126C72.6583 220.126 72.497 220.17 72.3778 220.259C72.2602 220.347 72.1807 220.452 72.1394 220.573L71.3646 220.463C71.4257 220.249 71.5266 220.07 71.6672 219.926C71.8078 219.781 71.9797 219.673 72.183 219.601C72.3862 219.527 72.6109 219.491 72.8569 219.491C73.0266 219.491 73.1954 219.511 73.3636 219.55C73.5317 219.59 73.6852 219.656 73.8243 219.747C73.9634 219.838 74.0749 219.961 74.159 220.117C74.2446 220.272 74.2874 220.467 74.2874 220.701V223.058H73.4896V222.574H73.4621C73.4117 222.672 73.3406 222.763 73.2489 222.849C73.1588 222.933 73.0449 223.001 72.9074 223.053C72.7714 223.103 72.6117 223.129 72.4283 223.129ZM72.6438 222.519C72.8103 222.519 72.9547 222.486 73.077 222.42C73.1993 222.353 73.2933 222.264 73.359 222.154C73.4262 222.044 73.4598 221.924 73.4598 221.795V221.38C73.4339 221.401 73.3895 221.421 73.3269 221.439C73.2657 221.458 73.197 221.474 73.1206 221.487C73.0442 221.501 72.9685 221.513 72.8936 221.524C72.8187 221.535 72.7538 221.544 72.6988 221.552C72.575 221.568 72.4642 221.596 72.3664 221.634C72.2686 221.672 72.1914 221.726 72.1348 221.795C72.0783 221.862 72.05 221.949 72.05 222.056C72.05 222.209 72.1058 222.324 72.2174 222.402C72.3289 222.48 72.4711 222.519 72.6438 222.519ZM77.9047 220.467L77.1482 220.55C77.1268 220.473 77.0894 220.402 77.0359 220.334C76.9839 220.267 76.9136 220.213 76.825 220.172C76.7364 220.13 76.6279 220.11 76.4995 220.11C76.3268 220.11 76.1816 220.147 76.0639 220.222C75.9478 220.297 75.8905 220.394 75.892 220.513C75.8905 220.615 75.9279 220.699 76.0043 220.763C76.0823 220.827 76.2107 220.88 76.3895 220.921L76.9901 221.05C77.3232 221.121 77.5708 221.235 77.7328 221.391C77.8963 221.547 77.9788 221.751 77.9804 222.003C77.9788 222.225 77.9139 222.42 77.7855 222.59C77.6587 222.758 77.4822 222.89 77.256 222.984C77.0298 223.079 76.77 223.126 76.4766 223.126C76.0456 223.126 75.6987 223.036 75.4358 222.856C75.173 222.674 75.0163 222.421 74.9659 222.097L75.7751 222.019C75.8118 222.178 75.8897 222.298 76.0089 222.379C76.1281 222.46 76.2833 222.501 76.4743 222.501C76.6714 222.501 76.8296 222.46 76.9488 222.379C77.0695 222.298 77.1299 222.198 77.1299 222.079C77.1299 221.978 77.0909 221.895 77.013 221.829C76.9366 221.763 76.8174 221.713 76.6554 221.678L76.0548 221.552C75.717 221.481 75.4672 221.363 75.3052 221.196C75.1432 221.028 75.063 220.816 75.0645 220.559C75.063 220.342 75.1218 220.154 75.241 219.995C75.3617 219.835 75.5291 219.711 75.743 219.624C75.9585 219.535 76.2068 219.491 76.488 219.491C76.9007 219.491 77.2254 219.579 77.4623 219.754C77.7007 219.93 77.8482 220.168 77.9047 220.467ZM80.2234 223.126C79.8704 223.126 79.5655 223.053 79.3088 222.906C79.0536 222.758 78.8572 222.549 78.7196 222.278C78.5821 222.006 78.5133 221.686 78.5133 221.318C78.5133 220.956 78.5821 220.638 78.7196 220.364C78.8587 220.089 79.0528 219.875 79.3019 219.722C79.551 219.568 79.8437 219.491 80.1799 219.491C80.3969 219.491 80.6017 219.526 80.7942 219.596C80.9883 219.665 81.1595 219.772 81.3077 219.917C81.4575 220.062 81.5752 220.247 81.6607 220.472C81.7463 220.695 81.7891 220.961 81.7891 221.27V221.524H78.903V220.965H80.9937C80.9921 220.806 80.9577 220.664 80.8905 220.541C80.8233 220.415 80.7293 220.317 80.6085 220.245C80.4893 220.173 80.3503 220.137 80.1913 220.137C80.0217 220.137 79.8727 220.178 79.7443 220.261C79.616 220.342 79.5159 220.449 79.444 220.582C79.3737 220.713 79.3378 220.858 79.3363 221.015V221.503C79.3363 221.708 79.3737 221.884 79.4486 222.031C79.5235 222.176 79.6282 222.287 79.7627 222.365C79.8971 222.442 80.0546 222.48 80.2349 222.48C80.3556 222.48 80.4649 222.463 80.5627 222.43C80.6605 222.394 80.7453 222.343 80.8171 222.276C80.889 222.209 80.9432 222.125 80.9799 222.026L81.7547 222.113C81.7058 222.318 81.6126 222.497 81.4751 222.65C81.339 222.801 81.1648 222.919 80.9524 223.003C80.74 223.085 80.497 223.126 80.2234 223.126Z" fill="#0A0B0D"/>
<rect x="87.1055" y="218.051" width="22.9587" height="6.99312" rx="3.49656" fill="#F7F7F7"/>
<path d="M91.5313 223.591C91.2922 223.591 91.0886 223.526 90.9203 223.396C90.7521 223.265 90.6236 223.075 90.5347 222.826C90.4458 222.577 90.4014 222.275 90.4014 221.922C90.4014 221.571 90.4458 221.271 90.5347 221.022C90.6246 220.772 90.7537 220.582 90.9219 220.451C91.0912 220.318 91.2943 220.252 91.5313 220.252C91.7683 220.252 91.9709 220.318 92.1392 220.451C92.3085 220.582 92.4375 220.772 92.5264 221.022C92.6163 221.271 92.6613 221.571 92.6613 221.922C92.6613 222.275 92.6169 222.577 92.528 222.826C92.4391 223.075 92.3106 223.265 92.1423 223.396C91.9741 223.526 91.7705 223.591 91.5313 223.591ZM91.5313 223.242C91.7683 223.242 91.9524 223.128 92.0836 222.899C92.2148 222.671 92.2804 222.345 92.2804 221.922C92.2804 221.64 92.2503 221.401 92.19 221.203C92.1307 221.005 92.045 220.854 91.9329 220.751C91.8218 220.647 91.6879 220.595 91.5313 220.595C91.2965 220.595 91.1129 220.711 90.9806 220.943C90.8484 221.173 90.7823 221.5 90.7823 221.922C90.7823 222.203 90.8119 222.442 90.8711 222.639C90.9304 222.836 91.0156 222.986 91.1267 223.088C91.2388 223.191 91.3737 223.242 91.5313 223.242ZM93.5996 221.109L94.1836 222.106L94.7677 221.109H95.1993L94.4122 222.328L95.1993 223.547H94.7677L94.1836 222.601L93.5996 223.547H93.168L93.9424 222.328L93.168 221.109H93.5996ZM96.6237 223.598C96.3951 223.598 96.1984 223.544 96.0333 223.436C95.8683 223.328 95.7413 223.179 95.6524 222.99C95.5636 222.8 95.5191 222.584 95.5191 222.341C95.5191 222.093 95.5646 221.875 95.6556 221.685C95.7476 221.495 95.8757 221.346 96.0397 221.239C96.2047 221.131 96.3973 221.077 96.6173 221.077C96.7887 221.077 96.9432 221.109 97.0807 221.173C97.2183 221.236 97.331 221.325 97.4188 221.439C97.5066 221.554 97.5611 221.687 97.5822 221.839H97.2077C97.1791 221.728 97.1157 221.63 97.0173 221.544C96.9199 221.457 96.7887 221.414 96.6237 221.414C96.4777 221.414 96.3497 221.452 96.2396 221.528C96.1306 221.603 96.0455 221.71 95.9841 221.847C95.9238 221.984 95.8937 222.144 95.8937 222.328C95.8937 222.516 95.9233 222.68 95.9825 222.82C96.0428 222.96 96.1275 223.068 96.2364 223.145C96.3465 223.223 96.4756 223.261 96.6237 223.261C96.721 223.261 96.8094 223.244 96.8887 223.21C96.9681 223.177 97.0352 223.128 97.0903 223.064C97.1453 223.001 97.1844 222.925 97.2077 222.836H97.5822C97.5611 222.98 97.5087 223.109 97.4251 223.225C97.3426 223.339 97.2331 223.43 97.0966 223.498C96.9612 223.564 96.8035 223.598 96.6237 223.598ZM98.1805 223.547V220.297H99.3168C99.5433 220.297 99.73 220.336 99.8771 220.414C100.024 220.491 100.134 220.596 100.206 220.727C100.278 220.857 100.313 221.001 100.313 221.16C100.313 221.3 100.289 221.415 100.239 221.506C100.19 221.597 100.126 221.669 100.045 221.722C99.9659 221.775 99.8797 221.814 99.7866 221.839V221.871C99.8861 221.877 99.986 221.912 100.087 221.976C100.187 222.039 100.271 222.13 100.339 222.249C100.407 222.367 100.44 222.512 100.44 222.684C100.44 222.846 100.403 222.993 100.329 223.123C100.255 223.253 100.138 223.356 99.9786 223.433C99.8189 223.509 99.611 223.547 99.3549 223.547H98.1805ZM98.5741 223.198H99.3549C99.612 223.198 99.7945 223.148 99.9025 223.049C100.011 222.948 100.066 222.826 100.066 222.684C100.066 222.574 100.038 222.472 99.9818 222.379C99.9257 222.285 99.8459 222.21 99.7422 222.153C99.6385 222.096 99.5158 222.068 99.374 222.068H98.5741V223.198ZM98.5741 221.725H99.3041C99.4226 221.725 99.5295 221.702 99.6247 221.655C99.721 221.609 99.7972 221.543 99.8533 221.458C99.9104 221.374 99.939 221.274 99.939 221.16C99.939 221.017 99.8892 220.896 99.7898 220.797C99.6903 220.696 99.5327 220.646 99.3168 220.646H98.5741V221.725ZM102.128 223.591C101.942 223.591 101.774 223.554 101.625 223.48C101.476 223.406 101.356 223.305 101.266 223.176C101.177 223.046 101.127 222.899 101.119 222.734H101.5C101.515 222.881 101.581 223.003 101.7 223.099C101.819 223.195 101.962 223.242 102.128 223.242C102.262 223.242 102.38 223.211 102.484 223.149C102.588 223.086 102.67 223 102.73 222.891C102.79 222.781 102.82 222.657 102.82 222.518C102.82 222.377 102.789 222.25 102.727 222.139C102.665 222.027 102.581 221.939 102.473 221.874C102.365 221.81 102.241 221.777 102.103 221.776C102.003 221.775 101.901 221.79 101.797 221.822C101.692 221.852 101.606 221.892 101.538 221.941L101.17 221.896L101.366 220.297H103.055V220.646H101.697L101.582 221.604H101.601C101.668 221.551 101.752 221.508 101.852 221.473C101.953 221.438 102.057 221.42 102.166 221.42C102.365 221.42 102.542 221.468 102.698 221.563C102.855 221.657 102.977 221.786 103.066 221.95C103.156 222.114 103.201 222.302 103.201 222.512C103.201 222.72 103.155 222.905 103.061 223.068C102.969 223.229 102.842 223.357 102.681 223.452C102.519 223.545 102.335 223.591 102.128 223.591ZM104.114 223.547H103.701L104.895 220.297H105.301L106.495 223.547H106.082L105.111 220.811H105.085L104.114 223.547ZM104.266 222.277H105.93V222.626H104.266V222.277Z" fill="#8C8C8C"/>
<rect x="113.424" y="218.051" width="48.9587" height="6.99312" rx="3.49656" fill="#F5F5F5"/>
<path d="M118.04 220.297H118.434V222.62C118.434 222.827 118.396 223.004 118.319 223.149C118.243 223.293 118.136 223.404 117.997 223.479C117.859 223.554 117.695 223.591 117.507 223.591C117.329 223.591 117.171 223.559 117.032 223.495C116.894 223.429 116.785 223.336 116.705 223.215C116.626 223.095 116.586 222.951 116.586 222.785H116.974C116.974 222.877 116.996 222.958 117.042 223.026C117.088 223.094 117.152 223.147 117.232 223.185C117.313 223.223 117.404 223.242 117.507 223.242C117.62 223.242 117.716 223.218 117.796 223.171C117.875 223.123 117.935 223.053 117.977 222.961C118.019 222.868 118.04 222.754 118.04 222.62V220.297ZM119.889 223.604C119.735 223.604 119.594 223.575 119.468 223.517C119.343 223.457 119.243 223.372 119.169 223.261C119.094 223.149 119.057 223.014 119.057 222.855C119.057 222.715 119.085 222.602 119.14 222.515C119.195 222.427 119.268 222.359 119.361 222.309C119.453 222.259 119.554 222.222 119.665 222.198C119.777 222.173 119.89 222.152 120.003 222.138C120.151 222.119 120.271 222.104 120.364 222.095C120.457 222.084 120.524 222.067 120.567 222.042C120.61 222.018 120.632 221.976 120.632 221.915V221.903C120.632 221.746 120.589 221.624 120.503 221.538C120.419 221.451 120.29 221.408 120.118 221.408C119.939 221.408 119.799 221.447 119.697 221.525C119.595 221.603 119.524 221.687 119.483 221.776L119.127 221.649C119.191 221.501 119.275 221.385 119.381 221.303C119.488 221.219 119.604 221.161 119.73 221.128C119.857 221.094 119.982 221.077 120.105 221.077C120.183 221.077 120.273 221.087 120.375 221.106C120.477 221.124 120.576 221.162 120.671 221.219C120.768 221.276 120.848 221.362 120.911 221.477C120.975 221.593 121.006 221.747 121.006 221.941V223.547H120.632V223.217H120.613C120.587 223.27 120.545 223.326 120.486 223.387C120.426 223.447 120.348 223.498 120.249 223.541C120.151 223.583 120.031 223.604 119.889 223.604ZM119.946 223.268C120.094 223.268 120.219 223.238 120.321 223.18C120.423 223.122 120.501 223.047 120.552 222.955C120.605 222.863 120.632 222.766 120.632 222.664V222.322C120.616 222.341 120.581 222.358 120.527 222.374C120.474 222.389 120.413 222.402 120.343 222.414C120.274 222.424 120.207 222.434 120.141 222.442C120.077 222.45 120.024 222.456 119.984 222.461C119.887 222.474 119.796 222.495 119.711 222.523C119.628 222.551 119.56 222.593 119.508 222.649C119.457 222.704 119.432 222.779 119.432 222.874C119.432 223.004 119.48 223.103 119.576 223.169C119.674 223.235 119.797 223.268 119.946 223.268ZM122.064 222.08V223.547H121.69V221.109H122.052V221.49H122.083C122.141 221.366 122.227 221.267 122.344 221.192C122.46 221.116 122.61 221.077 122.794 221.077C122.959 221.077 123.104 221.111 123.228 221.179C123.351 221.246 123.448 221.347 123.517 221.484C123.585 221.619 123.62 221.791 123.62 221.998V223.547H123.245V222.023C123.245 221.832 123.195 221.683 123.096 221.576C122.997 221.468 122.86 221.414 122.687 221.414C122.567 221.414 122.46 221.44 122.366 221.492C122.273 221.544 122.199 221.619 122.145 221.719C122.091 221.818 122.064 221.939 122.064 222.08ZM125.84 222.55V221.109H126.215V223.547H125.84V223.134H125.815C125.758 223.258 125.669 223.363 125.548 223.45C125.428 223.536 125.275 223.579 125.091 223.579C124.939 223.579 124.803 223.545 124.685 223.479C124.566 223.411 124.473 223.309 124.406 223.174C124.338 223.037 124.304 222.866 124.304 222.658V221.109H124.679V222.633C124.679 222.81 124.728 222.952 124.828 223.058C124.928 223.164 125.056 223.217 125.212 223.217C125.305 223.217 125.4 223.193 125.496 223.145C125.593 223.098 125.675 223.025 125.74 222.926C125.807 222.828 125.84 222.703 125.84 222.55ZM127.618 223.604C127.464 223.604 127.324 223.575 127.198 223.517C127.072 223.457 126.972 223.372 126.898 223.261C126.824 223.149 126.787 223.014 126.787 222.855C126.787 222.715 126.814 222.602 126.869 222.515C126.924 222.427 126.998 222.359 127.09 222.309C127.182 222.259 127.283 222.222 127.394 222.198C127.507 222.173 127.619 222.152 127.732 222.138C127.881 222.119 128.001 222.104 128.093 222.095C128.186 222.084 128.254 222.067 128.296 222.042C128.339 222.018 128.361 221.976 128.361 221.915V221.903C128.361 221.746 128.318 221.624 128.232 221.538C128.148 221.451 128.019 221.408 127.847 221.408C127.668 221.408 127.528 221.447 127.426 221.525C127.325 221.603 127.253 221.687 127.212 221.776L126.856 221.649C126.92 221.501 127.005 221.385 127.11 221.303C127.217 221.219 127.334 221.161 127.459 221.128C127.586 221.094 127.711 221.077 127.834 221.077C127.912 221.077 128.002 221.087 128.104 221.106C128.206 221.124 128.305 221.162 128.401 221.219C128.497 221.276 128.577 221.362 128.64 221.477C128.704 221.593 128.735 221.747 128.735 221.941V223.547H128.361V223.217H128.342C128.316 223.27 128.274 223.326 128.215 223.387C128.156 223.447 128.077 223.498 127.978 223.541C127.88 223.583 127.76 223.604 127.618 223.604ZM127.675 223.268C127.823 223.268 127.948 223.238 128.05 223.18C128.152 223.122 128.23 223.047 128.282 222.955C128.334 222.863 128.361 222.766 128.361 222.664V222.322C128.345 222.341 128.31 222.358 128.256 222.374C128.203 222.389 128.142 222.402 128.072 222.414C128.003 222.424 127.936 222.434 127.871 222.442C127.806 222.45 127.754 222.456 127.713 222.461C127.616 222.474 127.525 222.495 127.44 222.523C127.357 222.551 127.289 222.593 127.237 222.649C127.187 222.704 127.161 222.779 127.161 222.874C127.161 223.004 127.209 223.103 127.306 223.169C127.403 223.235 127.526 223.268 127.675 223.268ZM129.419 223.547V221.109H129.781V221.477H129.806C129.851 221.357 129.931 221.259 130.048 221.184C130.164 221.109 130.295 221.071 130.441 221.071C130.469 221.071 130.503 221.072 130.544 221.073C130.586 221.074 130.617 221.075 130.638 221.077V221.458C130.625 221.455 130.596 221.45 130.551 221.444C130.506 221.437 130.459 221.433 130.409 221.433C130.291 221.433 130.185 221.458 130.092 221.508C130 221.556 129.927 221.624 129.873 221.711C129.82 221.796 129.794 221.894 129.794 222.004V223.547H129.419ZM131.397 224.461C131.334 224.461 131.277 224.456 131.227 224.445C131.178 224.436 131.143 224.426 131.124 224.417L131.22 224.086C131.311 224.11 131.391 224.118 131.461 224.112C131.531 224.106 131.592 224.074 131.646 224.018C131.701 223.963 131.752 223.874 131.797 223.75L131.867 223.56L130.966 221.109H131.372L132.045 223.052H132.07L132.743 221.109H133.149L132.115 223.902C132.068 224.028 132.01 224.132 131.942 224.215C131.873 224.299 131.793 224.36 131.702 224.401C131.612 224.441 131.51 224.461 131.397 224.461ZM134.989 223.547V223.261L136.062 222.087C136.188 221.949 136.292 221.83 136.373 221.728C136.455 221.626 136.515 221.529 136.554 221.439C136.594 221.348 136.615 221.253 136.615 221.154C136.615 221.039 136.587 220.94 136.532 220.857C136.478 220.773 136.404 220.709 136.31 220.663C136.216 220.618 136.11 220.595 135.992 220.595C135.868 220.595 135.759 220.621 135.666 220.673C135.573 220.724 135.502 220.795 135.451 220.887C135.402 220.979 135.377 221.087 135.377 221.211H135.002C135.002 221.02 135.046 220.853 135.134 220.709C135.222 220.565 135.341 220.453 135.493 220.373C135.645 220.292 135.816 220.252 136.005 220.252C136.196 220.252 136.364 220.292 136.511 220.373C136.658 220.453 136.774 220.562 136.857 220.698C136.941 220.835 136.983 220.986 136.983 221.154C136.983 221.273 136.961 221.39 136.918 221.504C136.875 221.618 136.801 221.744 136.696 221.884C136.591 222.022 136.445 222.192 136.259 222.392L135.529 223.172V223.198H137.04V223.547H134.989ZM138.918 223.591C138.784 223.589 138.651 223.564 138.518 223.515C138.384 223.466 138.263 223.384 138.153 223.269C138.043 223.153 137.954 222.996 137.888 222.798C137.821 222.599 137.788 222.349 137.788 222.049C137.788 221.761 137.815 221.506 137.869 221.284C137.923 221.061 138.001 220.873 138.104 220.72C138.206 220.567 138.33 220.451 138.475 220.371C138.621 220.292 138.785 220.252 138.969 220.252C139.15 220.252 139.312 220.289 139.454 220.362C139.597 220.434 139.713 220.534 139.803 220.663C139.893 220.792 139.951 220.941 139.978 221.109H139.591C139.555 220.963 139.485 220.842 139.381 220.746C139.277 220.65 139.14 220.601 138.969 220.601C138.717 220.601 138.518 220.711 138.373 220.93C138.229 221.149 138.157 221.456 138.156 221.852H138.181C138.241 221.762 138.311 221.685 138.392 221.622C138.475 221.557 138.566 221.508 138.665 221.473C138.765 221.438 138.87 221.42 138.981 221.42C139.167 221.42 139.338 221.467 139.492 221.56C139.647 221.652 139.77 221.779 139.864 221.942C139.957 222.104 140.003 222.29 140.003 222.499C140.003 222.7 139.958 222.885 139.868 223.052C139.778 223.218 139.652 223.35 139.489 223.448C139.327 223.546 139.137 223.593 138.918 223.591ZM138.918 223.242C139.051 223.242 139.171 223.209 139.276 223.142C139.383 223.076 139.467 222.986 139.529 222.874C139.591 222.762 139.622 222.637 139.622 222.499C139.622 222.365 139.592 222.243 139.532 222.133C139.473 222.022 139.391 221.933 139.286 221.868C139.182 221.802 139.064 221.769 138.93 221.769C138.83 221.769 138.736 221.79 138.65 221.83C138.563 221.869 138.487 221.923 138.421 221.992C138.356 222.06 138.306 222.139 138.269 222.228C138.232 222.316 138.213 222.408 138.213 222.506C138.213 222.635 138.243 222.755 138.304 222.868C138.365 222.98 138.449 223.07 138.554 223.139C138.661 223.208 138.782 223.242 138.918 223.242ZM141.748 221.109V221.427H140.485V221.109H141.748ZM140.853 220.525H141.227V222.849C141.227 222.954 141.243 223.034 141.273 223.087C141.305 223.138 141.345 223.173 141.394 223.191C141.444 223.208 141.496 223.217 141.551 223.217C141.592 223.217 141.626 223.215 141.653 223.21C141.679 223.205 141.7 223.201 141.716 223.198L141.792 223.534C141.767 223.544 141.731 223.553 141.686 223.563C141.64 223.573 141.583 223.579 141.513 223.579C141.407 223.579 141.303 223.556 141.202 223.51C141.101 223.465 141.018 223.396 140.951 223.302C140.886 223.209 140.853 223.092 140.853 222.95V220.525ZM142.738 222.08V223.547H142.364V220.297H142.738V221.49H142.77C142.827 221.364 142.913 221.264 143.027 221.19C143.142 221.115 143.296 221.077 143.487 221.077C143.653 221.077 143.799 221.111 143.924 221.177C144.048 221.243 144.145 221.344 144.214 221.481C144.284 221.616 144.319 221.788 144.319 221.998V223.547H143.944V222.023C143.944 221.83 143.894 221.68 143.793 221.574C143.694 221.467 143.556 221.414 143.379 221.414C143.257 221.414 143.146 221.44 143.049 221.492C142.953 221.544 142.877 221.619 142.821 221.719C142.766 221.818 142.738 221.939 142.738 222.08ZM145.544 223.103L145.518 223.274C145.5 223.395 145.473 223.524 145.436 223.661C145.4 223.799 145.362 223.928 145.323 224.05C145.284 224.172 145.252 224.268 145.226 224.34H144.94C144.954 224.273 144.972 224.183 144.994 224.072C145.017 223.961 145.039 223.837 145.061 223.699C145.084 223.563 145.103 223.423 145.118 223.28L145.137 223.103H145.544ZM147.58 223.547V223.261L148.653 222.087C148.779 221.949 148.883 221.83 148.964 221.728C149.046 221.626 149.106 221.529 149.145 221.439C149.185 221.348 149.206 221.253 149.206 221.154C149.206 221.039 149.178 220.94 149.123 220.857C149.069 220.773 148.995 220.709 148.901 220.663C148.807 220.618 148.701 220.595 148.583 220.595C148.459 220.595 148.35 220.621 148.257 220.673C148.164 220.724 148.093 220.795 148.042 220.887C147.993 220.979 147.968 221.087 147.968 221.211H147.593C147.593 221.02 147.637 220.853 147.725 220.709C147.813 220.565 147.932 220.453 148.084 220.373C148.236 220.292 148.407 220.252 148.596 220.252C148.787 220.252 148.955 220.292 149.102 220.373C149.249 220.453 149.365 220.562 149.448 220.698C149.532 220.835 149.574 220.986 149.574 221.154C149.574 221.273 149.552 221.39 149.509 221.504C149.466 221.618 149.392 221.744 149.287 221.884C149.182 222.022 149.036 222.192 148.85 222.392L148.12 223.172V223.198H149.631V223.547H147.58ZM151.49 223.591C151.251 223.591 151.047 223.526 150.879 223.396C150.71 223.265 150.582 223.075 150.493 222.826C150.404 222.577 150.36 222.275 150.36 221.922C150.36 221.571 150.404 221.271 150.493 221.022C150.583 220.772 150.712 220.582 150.88 220.451C151.05 220.318 151.253 220.252 151.49 220.252C151.727 220.252 151.929 220.318 152.098 220.451C152.267 220.582 152.396 220.772 152.485 221.022C152.575 221.271 152.62 221.571 152.62 221.922C152.62 222.275 152.575 222.577 152.486 222.826C152.397 223.075 152.269 223.265 152.101 223.396C151.932 223.526 151.729 223.591 151.49 223.591ZM151.49 223.242C151.727 223.242 151.911 223.128 152.042 222.899C152.173 222.671 152.239 222.345 152.239 221.922C152.239 221.64 152.209 221.401 152.148 221.203C152.089 221.005 152.003 220.854 151.891 220.751C151.78 220.647 151.646 220.595 151.49 220.595C151.255 220.595 151.071 220.711 150.939 220.943C150.807 221.173 150.741 221.5 150.741 221.922C150.741 222.203 150.77 222.442 150.829 222.639C150.889 222.836 150.974 222.986 151.085 223.088C151.197 223.191 151.332 223.242 151.49 223.242ZM153.368 223.547V223.261L154.44 222.087C154.566 221.949 154.67 221.83 154.751 221.728C154.833 221.626 154.893 221.529 154.932 221.439C154.973 221.348 154.993 221.253 154.993 221.154C154.993 221.039 154.965 220.94 154.91 220.857C154.856 220.773 154.782 220.709 154.688 220.663C154.594 220.618 154.488 220.595 154.371 220.595C154.246 220.595 154.137 220.621 154.044 220.673C153.952 220.724 153.88 220.795 153.829 220.887C153.78 220.979 153.755 221.087 153.755 221.211H153.38C153.38 221.02 153.424 220.853 153.512 220.709C153.6 220.565 153.719 220.453 153.871 220.373C154.023 220.292 154.194 220.252 154.383 220.252C154.574 220.252 154.742 220.292 154.889 220.373C155.037 220.453 155.152 220.562 155.235 220.698C155.319 220.835 155.361 220.986 155.361 221.154C155.361 221.273 155.339 221.39 155.296 221.504C155.253 221.618 155.179 221.744 155.074 221.884C154.969 222.022 154.823 222.192 154.637 222.392L153.907 223.172V223.198H155.418V223.547H153.368ZM157.264 223.591C157.078 223.591 156.91 223.554 156.761 223.48C156.612 223.406 156.492 223.305 156.402 223.176C156.312 223.046 156.263 222.899 156.255 222.734H156.636C156.65 222.881 156.717 223.003 156.836 223.099C156.955 223.195 157.098 223.242 157.264 223.242C157.397 223.242 157.516 223.211 157.62 223.149C157.724 223.086 157.806 223 157.866 222.891C157.926 222.781 157.956 222.657 157.956 222.518C157.956 222.377 157.925 222.25 157.862 222.139C157.801 222.027 157.716 221.939 157.608 221.874C157.501 221.81 157.377 221.777 157.239 221.776C157.139 221.775 157.037 221.79 156.932 221.822C156.828 221.852 156.741 221.892 156.674 221.941L156.305 221.896L156.502 220.297H158.191V220.646H156.832L156.718 221.604H156.737C156.804 221.551 156.887 221.508 156.988 221.473C157.088 221.438 157.193 221.42 157.302 221.42C157.501 221.42 157.678 221.468 157.834 221.563C157.99 221.657 158.113 221.786 158.202 221.95C158.292 222.114 158.337 222.302 158.337 222.512C158.337 222.72 158.29 222.905 158.197 223.068C158.105 223.229 157.978 223.357 157.816 223.452C157.654 223.545 157.47 223.591 157.264 223.591Z" fill="#8C8C8C"/>
<g clip-path="url(#clip0_3388_13615)">
<rect x="47.1055" y="25.0547" width="226.431" height="116.195" rx="1.98624" fill="#0A0B0D"/>
<path d="M64.1328 109.021C59.9802 109.021 56.8022 105.864 56.8022 101.415C56.8022 96.987 60.0014 93.7666 64.2175 93.7666C67.7557 93.7666 70.3193 95.8429 71.0608 98.9785H68.1159C67.5226 97.3683 66.2303 96.309 64.2387 96.309C61.5057 96.309 59.726 98.47 59.726 101.394C59.726 104.275 61.4845 106.479 64.2387 106.479C66.5904 106.479 68.1794 105.038 68.4548 103.152H64.2387V100.822H71.3362V102.326C71.3362 105.928 68.6243 109.021 64.1328 109.021ZM77.7882 109.021C74.5254 109.021 72.3644 106.796 72.3644 103.385C72.3644 100.038 74.6526 97.7921 77.8094 97.7921C81.1145 97.7921 83.0213 100.25 83.0213 103.491V103.957H74.9492C75.0763 105.716 76.3051 106.754 77.7882 106.754C79.017 106.754 79.7585 106.33 80.1187 105.589H82.8306C82.2797 107.58 80.3094 109.021 77.7882 109.021ZM74.9916 102.199H80.4365C80.2246 100.779 79.1017 99.9531 77.7882 99.9531C76.4111 99.9531 75.2458 100.758 74.9916 102.199ZM87.1179 108.788C86.0162 108.788 85.3382 108.068 85.3382 106.902V100.123H83.389V98.1099H85.3806V95.2497H87.9018V98.1099H90.4018V100.123H87.9441V106.034C87.9441 106.479 88.1136 106.69 88.6221 106.69H90.4018V108.788H87.1179ZM94.5721 108.788C93.4704 108.788 92.7924 108.068 92.7924 106.902V100.123H90.8432V98.1099H92.8348V95.2497H95.356V98.1099H97.856V100.123H95.3983V106.034C95.3983 106.479 95.5678 106.69 96.0763 106.69H97.856V108.788H94.5721ZM99.3991 108.703V98.1099H102.047V108.703H99.3991ZM99.3779 96.7327V94.0844H102.069V96.7327H99.3779ZM104.371 108.703V98.1099H107.019V99.3599H107.4C108.057 98.2793 109.095 97.7921 110.282 97.7921C112.421 97.7921 113.82 99.2539 113.82 101.606V108.703H111.171V102.432C111.171 101.245 110.621 100.207 109.18 100.207C107.803 100.207 107.019 101.245 107.019 102.432V108.703H104.371ZM116.935 112.729V110.568H122.613C123.418 110.568 123.715 110.25 123.715 109.508V106.902H123.334C122.656 108.258 121.342 108.682 120.177 108.682C117.274 108.682 115.325 106.479 115.325 103.343C115.325 100.186 117.529 97.7921 120.473 97.7921C121.554 97.7921 122.592 98.1522 123.291 99.4022H123.673V98.1099H126.151V110.123C126.151 111.796 125.24 112.729 123.588 112.729H116.935ZM120.876 106.373C122.507 106.373 123.694 105.165 123.694 103.237C123.694 101.33 122.507 100.101 120.876 100.101C119.223 100.101 118.037 101.394 118.037 103.237C118.037 105.101 119.223 106.373 120.876 106.373ZM134.926 108.788C133.824 108.788 133.146 108.068 133.146 106.902V100.123H131.197V98.1099H133.189V95.2497H135.71V98.1099H138.21V100.123H135.752V106.034C135.752 106.479 135.922 106.69 136.43 106.69H138.21V108.788H134.926ZM144.334 109.021C141.177 109.021 138.804 106.669 138.804 103.406C138.804 100.144 141.177 97.7921 144.334 97.7921C147.47 97.7921 149.864 100.144 149.864 103.406C149.864 106.669 147.47 109.021 144.334 109.021ZM144.334 106.627C145.965 106.627 147.152 105.334 147.152 103.406C147.152 101.479 145.965 100.186 144.334 100.186C142.682 100.186 141.516 101.479 141.516 103.406C141.516 105.334 142.682 106.627 144.334 106.627ZM160.658 109.021C157.31 109.021 155.086 107.262 154.662 104.593H157.48C157.967 106.055 159.238 106.606 160.658 106.606C162.183 106.606 163.243 105.822 163.243 104.72C163.243 103.512 162.395 103.004 160.488 102.601L159.196 102.326C157.077 101.881 155.149 100.737 155.149 98.1946C155.149 95.6734 157.289 93.7666 160.382 93.7666C163.476 93.7666 165.34 95.398 165.891 98.0039H163.115C162.734 96.7963 161.823 96.1607 160.382 96.1607C158.878 96.1607 157.946 96.9446 157.946 97.9827C157.946 99.0421 158.793 99.487 160.446 99.8683L161.738 100.165C164.048 100.695 166.103 101.733 166.103 104.466C166.103 107.114 163.942 109.021 160.658 109.021ZM170.412 108.788C169.31 108.788 168.632 108.068 168.632 106.902V100.123H166.683V98.1099H168.674V95.2497H171.196V98.1099H173.696V100.123H171.238V106.034C171.238 106.479 171.407 106.69 171.916 106.69H173.696V108.788H170.412ZM178.247 109.021C176.213 109.021 174.561 107.792 174.561 105.779C174.561 103.406 176.383 102.644 178.586 102.411L181.701 102.093V101.5C181.701 100.589 180.959 99.9531 179.645 99.9531C178.395 99.9531 177.675 100.504 177.442 101.33H174.9C175.154 99.3175 176.828 97.7921 179.645 97.7921C182.357 97.7921 184.158 99.1056 184.158 101.669V106.839C184.158 107.495 184.222 108.407 184.264 108.661V108.703H181.722C181.701 108.343 181.701 108.004 181.701 107.644H181.319C180.662 108.703 179.518 109.021 178.247 109.021ZM177.23 105.652C177.23 106.521 177.951 107.029 178.967 107.029C180.705 107.029 181.701 105.716 181.701 104.381V103.851L179.37 104.127C177.929 104.296 177.23 104.72 177.23 105.652ZM187.266 112.729V110.568H192.943C193.749 110.568 194.045 110.25 194.045 109.508V106.902H193.664C192.986 108.258 191.672 108.682 190.507 108.682C187.604 108.682 185.655 106.479 185.655 103.343C185.655 100.186 187.859 97.7921 190.804 97.7921C191.884 97.7921 192.922 98.1522 193.621 99.4022H194.003V98.1099H196.482V110.123C196.482 111.796 195.571 112.729 193.918 112.729H187.266ZM191.206 106.373C192.838 106.373 194.024 105.165 194.024 103.237C194.024 101.33 192.838 100.101 191.206 100.101C189.554 100.101 188.367 101.394 188.367 103.237C188.367 105.101 189.554 106.373 191.206 106.373ZM203.52 109.021C200.257 109.021 198.096 106.796 198.096 103.385C198.096 100.038 200.384 97.7921 203.541 97.7921C206.846 97.7921 208.753 100.25 208.753 103.491V103.957H200.681C200.808 105.716 202.036 106.754 203.52 106.754C204.748 106.754 205.49 106.33 205.85 105.589H208.562C208.011 107.58 206.041 109.021 203.52 109.021ZM200.723 102.199H206.168C205.956 100.779 204.833 99.9531 203.52 99.9531C202.142 99.9531 200.977 100.758 200.723 102.199ZM215.212 108.703V106.33H218.751V97.4954H218.369L215.594 99.0844V96.4997L219.174 94.4022H221.484V106.33H224.768V108.703H215.212ZM57.6497 128.703V114.084H63.3065C67.8828 114.084 70.5311 117.114 70.5311 121.267C70.5311 125.419 67.8828 128.703 63.3065 128.703H57.6497ZM62.8404 126.245C65.9125 126.245 67.6286 124.275 67.6286 121.288C67.6286 118.279 65.9125 116.542 62.8404 116.542H60.4251V126.245H62.8404ZM76.9813 129.021C73.7185 129.021 71.5575 126.796 71.5575 123.385C71.5575 120.038 73.8457 117.792 77.0025 117.792C80.3076 117.792 82.2143 120.25 82.2143 123.491V123.957H74.1423C74.2694 125.716 75.4982 126.754 76.9813 126.754C78.2101 126.754 78.9516 126.33 79.3118 125.589H82.0237C81.4728 127.58 79.5025 129.021 76.9813 129.021ZM74.1846 122.199H79.6296C79.4177 120.779 78.2948 119.953 76.9813 119.953C75.6041 119.953 74.4389 120.758 74.1846 122.199ZM88.5326 129.021C85.4181 129.021 83.0664 126.712 83.0664 123.406C83.0664 120.101 85.4181 117.792 88.5326 117.792C91.1809 117.792 93.2148 119.423 93.7021 121.902H91.075C90.7148 120.864 89.8673 120.186 88.5538 120.186C86.9224 120.186 85.7783 121.436 85.7783 123.385C85.7783 125.377 86.9224 126.627 88.5538 126.627C89.8673 126.627 90.7572 125.928 91.1385 124.826H93.7656C93.3419 127.305 91.2868 129.021 88.5326 129.021ZM99.876 129.021C96.6132 129.021 94.4522 126.796 94.4522 123.385C94.4522 120.038 96.7404 117.792 99.8972 117.792C103.202 117.792 105.109 120.25 105.109 123.491V123.957H97.037C97.1641 125.716 98.3929 126.754 99.876 126.754C101.105 126.754 101.846 126.33 102.206 125.589H104.918C104.368 127.58 102.397 129.021 99.876 129.021ZM97.0794 122.199H102.524C102.312 120.779 101.19 119.953 99.876 119.953C98.4989 119.953 97.3336 120.758 97.0794 122.199ZM106.703 128.703V118.11H109.351V119.36H109.732C110.389 118.279 111.427 117.792 112.614 117.792C114.754 117.792 116.152 119.254 116.152 121.606V128.703H113.504V122.432C113.504 121.245 112.953 120.207 111.512 120.207C110.135 120.207 109.351 121.245 109.351 122.432V128.703H106.703ZM120.943 128.788C119.841 128.788 119.163 128.068 119.163 126.902V120.123H117.214V118.11H119.205V115.25H121.727V118.11H124.227V120.123H121.769V126.034C121.769 126.479 121.938 126.69 122.447 126.69H124.227V128.788H120.943ZM125.77 128.703V118.11H128.397V119.995H128.778C129.308 118.703 130.643 117.919 132.168 117.919H132.338V120.758C132.041 120.716 131.85 120.695 131.448 120.695C129.753 120.695 128.418 121.606 128.418 123.809V128.703H125.77ZM136.315 129.021C134.281 129.021 132.629 127.792 132.629 125.779C132.629 123.406 134.451 122.644 136.654 122.411L139.769 122.093V121.5C139.769 120.589 139.027 119.953 137.713 119.953C136.463 119.953 135.743 120.504 135.51 121.33H132.968C133.222 119.317 134.896 117.792 137.713 117.792C140.425 117.792 142.226 119.106 142.226 121.669V126.839C142.226 127.495 142.29 128.407 142.332 128.661V128.703H139.79C139.769 128.343 139.769 128.004 139.769 127.644H139.387C138.73 128.703 137.586 129.021 136.315 129.021ZM135.298 125.652C135.298 126.521 136.019 127.029 137.036 127.029C138.773 127.029 139.769 125.716 139.769 124.381V123.851L137.438 124.127C135.997 124.296 135.298 124.72 135.298 125.652ZM144.444 128.703V114.084H147.092V128.703H144.444ZM149.415 128.703V118.11H152.063V128.703H149.415ZM149.394 116.733V114.084H152.085V116.733H149.394ZM153.73 128.703V125.991L159.408 120.61V120.271H153.942V118.11H162.416V120.801L156.738 126.182V126.521H162.649V128.703H153.73ZM167.187 129.021C165.153 129.021 163.501 127.792 163.501 125.779C163.501 123.406 165.323 122.644 167.526 122.411L170.641 122.093V121.5C170.641 120.589 169.899 119.953 168.585 119.953C167.335 119.953 166.615 120.504 166.382 121.33H163.84C164.094 119.317 165.768 117.792 168.585 117.792C171.297 117.792 173.098 119.106 173.098 121.669V126.839C173.098 127.495 173.162 128.407 173.204 128.661V128.703H170.662C170.641 128.343 170.641 128.004 170.641 127.644H170.259C169.602 128.703 168.458 129.021 167.187 129.021ZM166.17 125.652C166.17 126.521 166.891 127.029 167.907 127.029C169.645 127.029 170.641 125.716 170.641 124.381V123.851L168.31 124.127C166.869 124.296 166.17 124.72 166.17 125.652ZM177.86 128.788C176.758 128.788 176.08 128.068 176.08 126.902V120.123H174.131V118.11H176.123V115.25H178.644V118.11H181.144V120.123H178.686V126.034C178.686 126.479 178.856 126.69 179.364 126.69H181.144V128.788H177.86ZM182.687 128.703V118.11H185.335V128.703H182.687ZM182.666 116.733V114.084H185.357V116.733H182.666ZM192.447 129.021C189.29 129.021 186.917 126.669 186.917 123.406C186.917 120.144 189.29 117.792 192.447 117.792C195.582 117.792 197.976 120.144 197.976 123.406C197.976 126.669 195.582 129.021 192.447 129.021ZM192.447 126.627C194.078 126.627 195.264 125.334 195.264 123.406C195.264 121.479 194.078 120.186 192.447 120.186C190.794 120.186 189.629 121.479 189.629 123.406C189.629 125.334 190.794 126.627 192.447 126.627ZM199.561 128.703V118.11H202.209V119.36H202.591C203.247 118.279 204.286 117.792 205.472 117.792C207.612 117.792 209.01 119.254 209.01 121.606V128.703H206.362V122.432C206.362 121.245 205.811 120.207 204.37 120.207C202.993 120.207 202.209 121.245 202.209 122.432V128.703H199.561Z" fill="white"/>
<path d="M267.799 109.813C267.799 109.657 267.799 109.58 267.828 109.52C267.856 109.463 267.902 109.417 267.96 109.389C268.019 109.359 268.097 109.359 268.252 109.359H273.084C273.239 109.359 273.316 109.359 273.376 109.389C273.433 109.417 273.48 109.463 273.508 109.52C273.537 109.58 273.537 109.657 273.537 109.813V114.644C273.537 114.799 273.537 114.877 273.508 114.937C273.48 114.994 273.433 115.04 273.376 115.068C273.316 115.097 273.239 115.097 273.084 115.097H268.252C268.097 115.097 268.019 115.097 267.96 115.068C267.902 115.04 267.856 114.994 267.828 114.937C267.799 114.877 267.799 114.799 267.799 114.644V109.813Z" fill="#0000FF"/>
<path d="M92.5684 70.5285C92.5684 70.3732 92.5684 70.2956 92.5976 70.2359C92.6256 70.1787 92.6719 70.1325 92.729 70.1045C92.7888 70.0752 92.8664 70.0752 93.0217 70.0752H97.8531C98.0083 70.0752 98.086 70.0752 98.1457 70.1045C98.2029 70.1325 98.2491 70.1787 98.2771 70.2359C98.3064 70.2956 98.3064 70.3732 98.3064 70.5285V75.3599C98.3064 75.5152 98.3064 75.5928 98.2771 75.6525C98.2491 75.7097 98.2029 75.7559 98.1457 75.784C98.086 75.8132 98.0083 75.8132 97.8531 75.8132H93.0217C92.8664 75.8132 92.7888 75.8132 92.729 75.784C92.6719 75.7559 92.6256 75.7097 92.5976 75.6525C92.5684 75.5928 92.5684 75.5152 92.5684 75.3599V70.5285Z" fill="#EEF0F3"/>
<path d="M246.172 34.3351C246.172 34.1799 246.172 34.1022 246.201 34.0425C246.229 33.9853 246.275 33.9391 246.333 33.9111C246.392 33.8818 246.47 33.8818 246.625 33.8818H251.457C251.612 33.8818 251.689 33.8818 251.749 33.9111C251.806 33.9391 251.853 33.9853 251.881 34.0425C251.91 34.1022 251.91 34.1799 251.91 34.3351V39.1666C251.91 39.3218 251.91 39.3995 251.881 39.4592C251.853 39.5164 251.806 39.5626 251.749 39.5906C251.689 39.6199 251.612 39.6199 251.457 39.6199H246.625C246.47 39.6199 246.392 39.6199 246.333 39.5906C246.275 39.5626 246.229 39.5164 246.201 39.4592C246.172 39.3995 246.172 39.3218 246.172 39.1666V34.3351Z" fill="#FEA8CD"/>
<path d="M130.086 49.7834C130.086 49.6281 130.086 49.5505 130.115 49.4908C130.143 49.4336 130.189 49.3873 130.247 49.3593C130.306 49.3301 130.384 49.3301 130.539 49.3301H135.371C135.526 49.3301 135.604 49.3301 135.663 49.3593C135.72 49.3873 135.767 49.4336 135.795 49.4908C135.824 49.5505 135.824 49.6281 135.824 49.7834V54.6148C135.824 54.7701 135.824 54.8477 135.795 54.9074C135.767 54.9646 135.72 55.0108 135.663 55.0388C135.604 55.0681 135.526 55.0681 135.371 55.0681H130.539C130.384 55.0681 130.306 55.0681 130.247 55.0388C130.189 55.0108 130.143 54.9646 130.115 54.9074C130.086 54.8477 130.086 54.7701 130.086 54.6148V49.7834Z" fill="#0000FF"/>
<path d="M64.3203 52.4318C64.3203 52.2766 64.3203 52.1989 64.3496 52.1392C64.3776 52.082 64.4238 52.0358 64.481 52.0078C64.5407 51.9785 64.6183 51.9785 64.7736 51.9785H69.605C69.7603 51.9785 69.8379 51.9785 69.8977 52.0078C69.9548 52.0358 70.0011 52.082 70.0291 52.1392C70.0583 52.1989 70.0583 52.2766 70.0583 52.4318V57.2632C70.0583 57.4185 70.0583 57.4961 70.0291 57.5559C70.0011 57.613 69.9548 57.6593 69.8977 57.6873C69.8379 57.7165 69.7603 57.7165 69.605 57.7165H64.7736C64.6183 57.7165 64.5407 57.7165 64.481 57.6873C64.4238 57.6593 64.3776 57.613 64.3496 57.5559C64.3203 57.4961 64.3203 57.4185 64.3203 57.2632V52.4318Z" fill="#3C8AFF"/>
<path d="M210.418 41.8381C210.418 41.6828 210.418 41.6052 210.447 41.5454C210.475 41.4883 210.521 41.442 210.579 41.414C210.638 41.3848 210.716 41.3848 210.871 41.3848H215.703C215.858 41.3848 215.936 41.3848 215.995 41.414C216.052 41.442 216.099 41.4883 216.127 41.5454C216.156 41.6052 216.156 41.6828 216.156 41.8381V46.6695C216.156 46.8248 216.156 46.9024 216.127 46.9621C216.099 47.0193 216.052 47.0655 215.995 47.0935C215.936 47.1228 215.858 47.1228 215.703 47.1228H210.871C210.716 47.1228 210.638 47.1228 210.579 47.0935C210.521 47.0655 210.475 47.0193 210.447 46.9621C210.418 46.9024 210.418 46.8248 210.418 46.6695V41.8381Z" fill="#0000FF"/>
<path d="M70.0586 36.0998C70.0586 35.9445 70.0586 35.8669 70.0878 35.8072C70.1159 35.75 70.1621 35.7038 70.2193 35.6757C70.279 35.6465 70.3566 35.6465 70.5119 35.6465H75.3433C75.4986 35.6465 75.5762 35.6465 75.6359 35.6757C75.6931 35.7038 75.7393 35.75 75.7674 35.8072C75.7966 35.8669 75.7966 35.9445 75.7966 36.0998V40.9312C75.7966 41.0865 75.7966 41.1641 75.7674 41.2238C75.7393 41.281 75.6931 41.3272 75.6359 41.3553C75.5762 41.3845 75.4986 41.3845 75.3433 41.3845H70.5119C70.3566 41.3845 70.279 41.3845 70.2193 41.3553C70.1621 41.3272 70.1159 41.281 70.0878 41.2238C70.0586 41.1641 70.0586 41.0865 70.0586 40.9312V36.0998Z" fill="#32353D"/>
<path d="M155.926 76.4218C155.926 76.2546 155.926 76.1709 155.955 76.1066C155.983 76.0451 156.029 75.9953 156.086 75.9651C156.146 75.9336 156.224 75.9336 156.379 75.9336H161.21C161.366 75.9336 161.443 75.9336 161.503 75.9651C161.56 75.9953 161.607 76.0451 161.635 76.1066C161.664 76.1709 161.664 76.2546 161.664 76.4218V81.6248C161.664 81.792 161.664 81.8756 161.635 81.94C161.607 82.0015 161.56 82.0513 161.503 82.0815C161.443 82.113 161.366 82.113 161.21 82.113H156.379C156.224 82.113 156.146 82.113 156.086 82.0815C156.029 82.0513 155.983 82.0015 155.955 81.94C155.926 81.8756 155.926 81.792 155.926 81.6248V76.4218Z" fill="#B6F569"/>
<path d="M246.172 79.3905C246.172 79.2233 246.172 79.1397 246.203 79.0754C246.234 79.0138 246.283 78.964 246.345 78.9339C246.409 78.9023 246.493 78.9023 246.66 78.9023H251.863C252.03 78.9023 252.114 78.9023 252.178 78.9339C252.24 78.964 252.29 79.0138 252.32 79.0754C252.351 79.1397 252.351 79.2233 252.351 79.3905V84.5936C252.351 84.7608 252.351 84.8444 252.32 84.9087C252.29 84.9703 252.24 85.0201 252.178 85.0502C252.114 85.0818 252.03 85.0818 251.863 85.0818H246.66C246.493 85.0818 246.409 85.0818 246.345 85.0502C246.283 85.0201 246.234 84.9703 246.203 84.9087C246.172 84.8444 246.172 84.7608 246.172 84.5936V79.3905Z" fill="#5B616E"/>
<path d="M47.1055 41.8381C47.1055 41.6828 47.1055 41.6052 47.137 41.5454C47.1671 41.4883 47.2169 41.442 47.2785 41.414C47.3428 41.3848 47.4264 41.3848 47.5936 41.3848H52.7967C52.9639 41.3848 53.0475 41.3848 53.1118 41.414C53.1734 41.442 53.2232 41.4883 53.2534 41.5454C53.2849 41.6052 53.2849 41.6828 53.2849 41.8381V46.6695C53.2849 46.8248 53.2849 46.9024 53.2534 46.9621C53.2232 47.0193 53.1734 47.0655 53.1118 47.0935C53.0475 47.1228 52.9639 47.1228 52.7967 47.1228H47.5936C47.4264 47.1228 47.3428 47.1228 47.2785 47.0935C47.2169 47.0655 47.1671 47.0193 47.137 46.9621C47.1055 46.9024 47.1055 46.8248 47.1055 46.6695V41.8381Z" fill="white"/>
<path d="M111.105 37.0175C111.105 36.8503 111.105 36.7667 111.139 36.7023C111.172 36.6408 111.225 36.591 111.291 36.5608C111.36 36.5293 111.449 36.5293 111.629 36.5293H117.203C117.382 36.5293 117.472 36.5293 117.541 36.5608C117.607 36.591 117.66 36.6408 117.693 36.7023C117.726 36.7667 117.726 36.8503 117.726 37.0175V42.2205C117.726 42.3877 117.726 42.4714 117.693 42.5357C117.66 42.5972 117.607 42.647 117.541 42.6772C117.472 42.7087 117.382 42.7087 117.203 42.7087H111.629C111.449 42.7087 111.36 42.7087 111.291 42.6772C111.225 42.647 111.172 42.5972 111.139 42.5357C111.105 42.4714 111.105 42.3877 111.105 42.2205V37.0175Z" fill="#FC401F"/>
<path d="M173.783 49.7834C173.783 49.6281 173.783 49.5505 173.817 49.4908C173.849 49.4336 173.903 49.3873 173.969 49.3593C174.038 49.3301 174.127 49.3301 174.306 49.3301H179.881C180.06 49.3301 180.15 49.3301 180.219 49.3593C180.285 49.3873 180.338 49.4336 180.37 49.4908C180.404 49.5505 180.404 49.6281 180.404 49.7834V54.6148C180.404 54.7701 180.404 54.8477 180.37 54.9074C180.338 54.9646 180.285 55.0108 180.219 55.0388C180.15 55.0681 180.06 55.0681 179.881 55.0681H174.306C174.127 55.0681 174.038 55.0681 173.969 55.0388C173.903 55.0108 173.849 54.9646 173.817 54.9074C173.783 54.8477 173.783 54.7701 173.783 54.6148V49.7834Z" fill="#FFD12F"/>
<path d="M150.391 25.5419C150.391 25.3747 150.391 25.2911 150.42 25.2268C150.448 25.1652 150.494 25.1154 150.551 25.0852C150.611 25.0537 150.689 25.0537 150.844 25.0537H155.675C155.831 25.0537 155.908 25.0537 155.968 25.0852C156.025 25.1154 156.071 25.1652 156.099 25.2268C156.129 25.2911 156.129 25.3747 156.129 25.5419V30.7449C156.129 30.9122 156.129 30.9958 156.099 31.0601C156.071 31.1217 156.025 31.1714 155.968 31.2016C155.908 31.2331 155.831 31.2331 155.675 31.2331H150.844C150.689 31.2331 150.611 31.2331 150.551 31.2016C150.494 31.1714 150.448 31.1217 150.42 31.0601C150.391 30.9958 150.391 30.9122 150.391 30.7449V25.5419Z" fill="#3C8AFF"/>
<path d="M234.254 57.2873C234.254 57.132 234.254 57.0544 234.283 56.9947C234.311 56.9375 234.357 56.8913 234.415 56.8632C234.474 56.834 234.552 56.834 234.707 56.834H239.539C239.694 56.834 239.772 56.834 239.831 56.8632C239.888 56.8913 239.935 56.9375 239.963 56.9947C239.992 57.0544 239.992 57.132 239.992 57.2873V62.1187C239.992 62.274 239.992 62.3516 239.963 62.4113C239.935 62.4685 239.888 62.5147 239.831 62.5428C239.772 62.572 239.694 62.572 239.539 62.572H234.707C234.552 62.572 234.474 62.572 234.415 62.5428C234.357 62.5147 234.311 62.4685 234.283 62.4113C234.254 62.3516 234.254 62.274 234.254 62.1187V57.2873Z" fill="#66C800"/>
</g>
<circle cx="55.8225" cy="221.03" r="6.207" fill="white" stroke="#EBEBEB" stroke-width="0.49656"/>
<path d="M52.8438 218.522C52.8438 218.36 52.8438 218.28 52.8741 218.218C52.9032 218.158 52.9512 218.11 53.0106 218.081C53.0726 218.051 53.1532 218.051 53.3145 218.051H58.3317C58.493 218.051 58.5736 218.051 58.6356 218.081C58.695 218.11 58.743 218.158 58.7721 218.218C58.8025 218.28 58.8025 218.36 58.8025 218.522V223.539C58.8025 223.7 58.8025 223.781 58.7721 223.843C58.743 223.902 58.695 223.95 58.6356 223.979C58.5736 224.009 58.493 224.009 58.3317 224.009H53.3145C53.1532 224.009 53.0726 224.009 53.0106 223.979C52.9512 223.95 52.9032 223.902 52.8741 223.843C52.8438 223.781 52.8438 223.7 52.8438 223.539V218.522Z" fill="#0000FF"/>
<defs>
<clipPath id="clip0_3388_13615">
<rect x="47.1055" y="25.0547" width="226.431" height="116.195" rx="1.98624" fill="white"/>
</clipPath>
</defs>
</svg>
