<svg width="671" height="521" viewBox="0 0 671 521" fill="none" xmlns="http://www.w3.org/2000/svg">
<g clip-path="url(#clip0_3466_10126)">
<rect y="0.450195" width="671" height="520" rx="8" fill="#FAFAFA"/>
<g clip-path="url(#clip1_3466_10126)">
<rect y="-0.293945" width="671" height="364.73" fill="#0A0B0D"/>
<rect y="468.941" width="671" height="52.1487" fill="#EEF0F3"/>
<rect y="364.437" width="671" height="104.297" fill="#B1B7C3"/>
<path d="M21.0522 33.2959V22.2559H25.8042C27.8682 22.2559 29.2442 23.2159 29.2442 25.0559C29.2442 26.3519 28.5882 27.0879 27.5162 27.4559V27.7119C28.8922 27.9999 29.5962 28.8479 29.5962 30.3039C29.5962 32.2399 28.1082 33.2959 26.0762 33.2959H21.0522ZM25.9802 31.8079C27.1322 31.8079 27.8842 31.1839 27.8842 30.0799C27.8842 29.0239 27.1162 28.3999 25.9802 28.3999H22.7322V31.8079H25.9802ZM22.7322 27.0239H25.6282C26.7642 27.0239 27.5162 26.4159 27.5162 25.3759C27.5162 24.3199 26.7482 23.7279 25.6282 23.7279H22.7322V27.0239ZM33.8197 33.5359C32.2677 33.5359 31.0197 32.6239 31.0197 31.1039C31.0197 29.3119 32.4757 28.7679 34.1717 28.5919L36.5397 28.3359V27.9039C36.5397 26.9919 35.9157 26.3999 34.7797 26.3999C33.7397 26.3999 33.0677 26.8799 32.8757 27.6959H31.3077C31.4997 26.1759 32.7637 25.0559 34.7797 25.0559C36.8277 25.0559 38.0757 26.0959 38.0757 27.9839V31.8879C38.0757 32.3839 38.1237 33.0719 38.1557 33.2639V33.2959H36.5557C36.5397 33.0239 36.5397 32.6879 36.5397 32.3679H36.2677C35.8037 33.1839 34.8757 33.5359 33.8197 33.5359ZM32.6837 31.0079C32.6837 31.8239 33.3397 32.2879 34.2357 32.2879C35.6917 32.2879 36.5397 31.1999 36.5397 30.1279V29.4559L34.6997 29.6799C33.4357 29.8239 32.6837 30.1599 32.6837 31.0079ZM43.3034 33.5359C41.3194 33.5359 39.9274 32.5759 39.6874 31.0079H41.3034C41.5434 31.8719 42.3754 32.2239 43.3034 32.2239C44.2314 32.2239 45.0154 31.8079 45.0154 31.0879C45.0154 30.3679 44.3594 30.1279 43.4314 29.9839L42.5194 29.8239C40.9834 29.5839 39.9594 28.9599 39.9594 27.5199C39.9594 26.0319 41.2714 25.0559 43.1274 25.0559C44.8874 25.0559 46.1354 25.8719 46.4714 27.3919H44.9034C44.6474 26.6719 44.0074 26.3359 43.1434 26.3359C42.1994 26.3359 41.5754 26.7839 41.5754 27.3919C41.5754 28.0319 42.0554 28.2399 43.0314 28.3999L43.9434 28.5599C45.4314 28.7999 46.5994 29.4079 46.5994 30.9599C46.5994 32.5439 45.2074 33.5359 43.3034 33.5359ZM51.8798 33.5359C49.3998 33.5359 47.7998 31.8079 47.7998 29.2799C47.7998 26.7999 49.4638 25.0559 51.8478 25.0559C54.2958 25.0559 55.7518 26.8799 55.7518 29.2959V29.5679H49.3838C49.4478 31.1199 50.4878 32.1279 51.8798 32.1279C52.9518 32.1279 53.6398 31.7439 53.9758 30.9919H55.6398C55.1918 32.4799 53.7678 33.5359 51.8798 33.5359ZM49.4318 28.4639H54.1358C53.9918 27.2159 53.0958 26.3999 51.8478 26.3999C50.6318 26.3999 49.6398 27.1519 49.4318 28.4639ZM65.0897 33.5359C62.5457 33.5359 60.9457 32.2079 60.6257 30.3039H62.3537C62.7377 31.5839 63.8577 32.0639 65.0897 32.0639C66.4497 32.0639 67.3777 31.3599 67.3777 30.3839C67.3777 29.3439 66.6737 28.8959 65.2337 28.5759L63.9217 28.2719C62.4337 27.9359 61.0097 27.1039 61.0097 25.2319C61.0097 23.4079 62.5777 22.0159 64.8657 22.0159C67.1857 22.0159 68.5137 23.2319 68.9137 25.1039H67.2017C66.8657 23.9999 66.0817 23.4719 64.8817 23.4719C63.5057 23.4719 62.7217 24.1919 62.7217 25.0879C62.7217 26.0319 63.3777 26.4479 64.7537 26.7679L66.0497 27.0879C67.6177 27.4559 69.1217 28.2239 69.1217 30.2239C69.1217 32.1439 67.5217 33.5359 65.0897 33.5359ZM73.2572 33.5359C71.7052 33.5359 70.4572 32.6239 70.4572 31.1039C70.4572 29.3119 71.9132 28.7679 73.6092 28.5919L75.9772 28.3359V27.9039C75.9772 26.9919 75.3532 26.3999 74.2172 26.3999C73.1772 26.3999 72.5052 26.8799 72.3132 27.6959H70.7452C70.9372 26.1759 72.2012 25.0559 74.2172 25.0559C76.2652 25.0559 77.5132 26.0959 77.5132 27.9839V31.8879C77.5132 32.3839 77.5612 33.0719 77.5932 33.2639V33.2959H75.9932C75.9772 33.0239 75.9772 32.6879 75.9772 32.3679H75.7052C75.2412 33.1839 74.3132 33.5359 73.2572 33.5359ZM72.1212 31.0079C72.1212 31.8239 72.7772 32.2879 73.6732 32.2879C75.1292 32.2879 75.9772 31.1999 75.9772 30.1279V29.4559L74.1372 29.6799C72.8732 29.8239 72.1212 30.1599 72.1212 31.0079ZM79.8449 33.2959V25.2959H81.4769V26.3199H81.7489C82.2449 25.4719 83.0929 25.0559 84.0529 25.0559C85.7009 25.0559 86.7729 26.1759 86.7729 27.9839V33.2959H85.1409V28.4799C85.1409 27.3919 84.6289 26.5439 83.4129 26.5439C82.2289 26.5439 81.4769 27.4559 81.4769 28.4799V33.2959H79.8449ZM92.0065 33.5359C90.0225 33.5359 88.6305 32.5759 88.3905 31.0079H90.0065C90.2465 31.8719 91.0785 32.2239 92.0065 32.2239C92.9345 32.2239 93.7185 31.8079 93.7185 31.0879C93.7185 30.3679 93.0625 30.1279 92.1345 29.9839L91.2225 29.8239C89.6865 29.5839 88.6625 28.9599 88.6625 27.5199C88.6625 26.0319 89.9745 25.0559 91.8305 25.0559C93.5905 25.0559 94.8385 25.8719 95.1745 27.3919H93.6065C93.3505 26.6719 92.7105 26.3359 91.8465 26.3359C90.9025 26.3359 90.2785 26.7839 90.2785 27.3919C90.2785 28.0319 90.7585 28.2399 91.7345 28.3999L92.6465 28.5599C94.1345 28.7999 95.3025 29.4079 95.3025 30.9599C95.3025 32.5439 93.9105 33.5359 92.0065 33.5359Z" fill="white"/>
<path d="M232.322 33.5359C229.17 33.5359 226.786 31.1519 226.786 27.7919C226.786 24.4479 229.17 22.0159 232.37 22.0159C234.978 22.0159 236.898 23.5039 237.474 25.8559H235.666C235.186 24.4799 234.05 23.5679 232.386 23.5679C230.114 23.5679 228.578 25.3599 228.578 27.7759C228.578 30.1599 230.114 31.9839 232.386 31.9839C234.45 31.9839 235.794 30.7039 235.922 28.9279H232.498V27.4879H237.666V28.4639C237.666 31.5519 235.33 33.5359 232.322 33.5359ZM243.099 33.5359C240.619 33.5359 239.019 31.8079 239.019 29.2799C239.019 26.7999 240.683 25.0559 243.067 25.0559C245.515 25.0559 246.971 26.8799 246.971 29.2959V29.5679H240.603C240.667 31.1199 241.707 32.1279 243.099 32.1279C244.171 32.1279 244.859 31.7439 245.195 30.9919H246.859C246.411 32.4799 244.987 33.5359 243.099 33.5359ZM240.651 28.4639H245.355C245.211 27.2159 244.315 26.3999 243.067 26.3999C241.851 26.3999 240.859 27.1519 240.651 28.4639ZM248.798 33.2959V25.2959H250.43V26.3199H250.702C251.198 25.4719 252.046 25.0559 253.006 25.0559C254.654 25.0559 255.726 26.1759 255.726 27.9839V33.2959H254.094V28.4799C254.094 27.3919 253.582 26.5439 252.366 26.5439C251.182 26.5439 250.43 27.4559 250.43 28.4799V33.2959H248.798ZM261.552 33.5359C259.072 33.5359 257.472 31.8079 257.472 29.2799C257.472 26.7999 259.136 25.0559 261.52 25.0559C263.968 25.0559 265.424 26.8799 265.424 29.2959V29.5679H259.056C259.12 31.1199 260.16 32.1279 261.552 32.1279C262.624 32.1279 263.312 31.7439 263.648 30.9919H265.312C264.864 32.4799 263.44 33.5359 261.552 33.5359ZM259.104 28.4639H263.808C263.664 27.2159 262.768 26.3999 261.52 26.3999C260.304 26.3999 259.312 27.1519 259.104 28.4639ZM267.251 33.2959V25.2959H268.867V26.7679H269.139C269.555 25.7439 270.611 25.1519 271.859 25.1519H271.971V26.8959C271.715 26.8639 271.603 26.8639 271.347 26.8639C269.955 26.8639 268.883 27.6959 268.883 29.4399V33.2959H267.251ZM275.46 33.5359C273.908 33.5359 272.66 32.6239 272.66 31.1039C272.66 29.3119 274.116 28.7679 275.812 28.5919L278.18 28.3359V27.9039C278.18 26.9919 277.556 26.3999 276.42 26.3999C275.38 26.3999 274.708 26.8799 274.516 27.6959H272.948C273.14 26.1759 274.404 25.0559 276.42 25.0559C278.468 25.0559 279.716 26.0959 279.716 27.9839V31.8879C279.716 32.3839 279.764 33.0719 279.796 33.2639V33.2959H278.196C278.18 33.0239 278.18 32.6879 278.18 32.3679H277.908C277.444 33.1839 276.516 33.5359 275.46 33.5359ZM274.324 31.0079C274.324 31.8239 274.98 32.2879 275.876 32.2879C277.332 32.2879 278.18 31.1999 278.18 30.1279V29.4559L276.34 29.6799C275.076 29.8239 274.324 30.1599 274.324 31.0079ZM282.048 33.2959V22.2559H283.68V33.2959H282.048ZM294.213 33.5359C293.221 33.5359 292.245 33.1359 291.749 32.1759H291.477V33.2959H289.845V22.2559H291.477V26.4799H291.749C292.245 25.5039 293.253 25.0559 294.293 25.0559C296.517 25.0559 298.021 26.8159 298.021 29.2319C298.021 31.6959 296.405 33.5359 294.213 33.5359ZM293.893 32.0799C295.349 32.0799 296.341 30.8799 296.341 29.2959C296.341 27.7119 295.333 26.5119 293.893 26.5119C292.501 26.5119 291.461 27.6479 291.461 29.2959C291.461 30.9439 292.501 32.0799 293.893 32.0799ZM299.845 33.2959V25.2959H301.461V26.7679H301.733C302.149 25.7439 303.205 25.1519 304.453 25.1519H304.565V26.8959C304.309 26.8639 304.197 26.8639 303.941 26.8639C302.549 26.8639 301.477 27.6959 301.477 29.4399V33.2959H299.845ZM308.054 33.5359C306.502 33.5359 305.254 32.6239 305.254 31.1039C305.254 29.3119 306.71 28.7679 308.406 28.5919L310.774 28.3359V27.9039C310.774 26.9919 310.15 26.3999 309.014 26.3999C307.974 26.3999 307.302 26.8799 307.11 27.6959H305.542C305.734 26.1759 306.998 25.0559 309.014 25.0559C311.062 25.0559 312.31 26.0959 312.31 27.9839V31.8879C312.31 32.3839 312.358 33.0719 312.39 33.2639V33.2959H310.79C310.774 33.0239 310.774 32.6879 310.774 32.3679H310.502C310.038 33.1839 309.11 33.5359 308.054 33.5359ZM306.918 31.0079C306.918 31.8239 307.574 32.2879 308.47 32.2879C309.926 32.2879 310.774 31.1999 310.774 30.1279V29.4559L308.934 29.6799C307.67 29.8239 306.918 30.1599 306.918 31.0079ZM314.642 33.2959V25.2959H316.274V26.3199H316.546C317.042 25.4719 317.89 25.0559 318.85 25.0559C320.498 25.0559 321.57 26.1759 321.57 27.9839V33.2959H319.938V28.4799C319.938 27.3919 319.426 26.5439 318.21 26.5439C317.026 26.5439 316.274 27.4559 316.274 28.4799V33.2959H314.642ZM327.027 33.5359C324.819 33.5359 323.315 31.7759 323.315 29.3599C323.315 26.8959 324.931 25.0559 327.107 25.0559C328.147 25.0559 329.091 25.4879 329.587 26.4479H329.843V22.2559H331.475V33.2959H329.843V32.1599H329.587C329.075 33.0879 328.067 33.5359 327.027 33.5359ZM327.427 32.0799C328.819 32.0799 329.859 30.9439 329.859 29.2959C329.859 27.6479 328.819 26.5119 327.427 26.5119C325.971 26.5119 324.995 27.7119 324.995 29.2959C324.995 30.8799 325.987 32.0799 327.427 32.0799ZM337.642 33.2959V25.2959H339.274V26.3199H339.546C340.026 25.4879 340.842 25.0559 341.85 25.0559C342.89 25.0559 343.706 25.5199 344.138 26.3519H344.426C344.954 25.5199 345.754 25.0559 346.89 25.0559C348.65 25.0559 349.754 26.2079 349.754 28.0319V33.2959H348.122V28.4479C348.122 27.3759 347.642 26.5439 346.426 26.5439C345.29 26.5439 344.506 27.3919 344.506 28.3679V33.2959H342.874V28.4799C342.874 27.4079 342.378 26.5439 341.162 26.5439C340.026 26.5439 339.274 27.4399 339.274 28.4319V33.2959H337.642ZM355.583 33.5359C353.103 33.5359 351.503 31.8079 351.503 29.2799C351.503 26.7999 353.167 25.0559 355.551 25.0559C357.999 25.0559 359.455 26.8799 359.455 29.2959V29.5679H353.087C353.151 31.1199 354.191 32.1279 355.583 32.1279C356.655 32.1279 357.343 31.7439 357.679 30.9919H359.343C358.895 32.4799 357.471 33.5359 355.583 33.5359ZM353.135 28.4639H357.839C357.695 27.2159 356.799 26.3999 355.551 26.3999C354.335 26.3999 353.343 27.1519 353.135 28.4639ZM364.178 33.5359C362.194 33.5359 360.802 32.5759 360.562 31.0079H362.178C362.418 31.8719 363.25 32.2239 364.178 32.2239C365.106 32.2239 365.89 31.8079 365.89 31.0879C365.89 30.3679 365.234 30.1279 364.306 29.9839L363.394 29.8239C361.858 29.5839 360.834 28.9599 360.834 27.5199C360.834 26.0319 362.146 25.0559 364.002 25.0559C365.762 25.0559 367.01 25.8719 367.346 27.3919H365.778C365.522 26.6719 364.882 26.3359 364.018 26.3359C363.074 26.3359 362.45 26.7839 362.45 27.3919C362.45 28.0319 362.93 28.2399 363.906 28.3999L364.818 28.5599C366.306 28.7999 367.474 29.4079 367.474 30.9599C367.474 32.5439 366.082 33.5359 364.178 33.5359ZM372.163 33.5359C370.179 33.5359 368.787 32.5759 368.547 31.0079H370.163C370.403 31.8719 371.235 32.2239 372.163 32.2239C373.091 32.2239 373.875 31.8079 373.875 31.0879C373.875 30.3679 373.219 30.1279 372.291 29.9839L371.379 29.8239C369.843 29.5839 368.819 28.9599 368.819 27.5199C368.819 26.0319 370.131 25.0559 371.987 25.0559C373.747 25.0559 374.995 25.8719 375.331 27.3919H373.763C373.507 26.6719 372.867 26.3359 372.003 26.3359C371.059 26.3359 370.435 26.7839 370.435 27.3919C370.435 28.0319 370.915 28.2399 371.891 28.3999L372.803 28.5599C374.291 28.7999 375.459 29.4079 375.459 30.9599C375.459 32.5439 374.067 33.5359 372.163 33.5359ZM379.507 33.5359C377.955 33.5359 376.707 32.6239 376.707 31.1039C376.707 29.3119 378.163 28.7679 379.859 28.5919L382.227 28.3359V27.9039C382.227 26.9919 381.603 26.3999 380.467 26.3999C379.427 26.3999 378.755 26.8799 378.563 27.6959H376.995C377.187 26.1759 378.451 25.0559 380.467 25.0559C382.515 25.0559 383.763 26.0959 383.763 27.9839V31.8879C383.763 32.3839 383.811 33.0719 383.843 33.2639V33.2959H382.243C382.227 33.0239 382.227 32.6879 382.227 32.3679H381.955C381.491 33.1839 380.563 33.5359 379.507 33.5359ZM378.371 31.0079C378.371 31.8239 379.027 32.2879 379.923 32.2879C381.379 32.2879 382.227 31.1999 382.227 30.1279V29.4559L380.387 29.6799C379.123 29.8239 378.371 30.1599 378.371 31.0079ZM386.783 36.3359V34.9919H391.215C391.871 34.9919 392.111 34.7359 392.111 34.1279V31.7919H391.839C391.343 32.8479 390.303 33.2799 389.263 33.2799C387.007 33.2799 385.503 31.5839 385.503 29.2319C385.503 26.8479 387.151 25.0559 389.423 25.0559C390.415 25.0559 391.327 25.4719 391.823 26.4479H392.095V25.2959H393.631V34.4959C393.631 35.6799 392.991 36.3359 391.759 36.3359H386.783ZM389.647 31.8719C391.055 31.8719 392.111 30.7679 392.111 29.1679C392.111 27.5679 391.055 26.4799 389.647 26.4799C388.175 26.4799 387.183 27.6319 387.183 29.1679C387.183 30.7199 388.175 31.8719 389.647 31.8719ZM396.064 33.2959V25.2959H397.696V33.2959H396.064ZM396.048 23.9999V22.2559H397.712V23.9999H396.048ZM400.126 33.2959V25.2959H401.758V26.3199H402.03C402.526 25.4719 403.374 25.0559 404.334 25.0559C405.982 25.0559 407.054 26.1759 407.054 27.9839V33.2959H405.422V28.4799C405.422 27.3919 404.91 26.5439 403.694 26.5439C402.51 26.5439 401.758 27.4559 401.758 28.4799V33.2959H400.126ZM410.08 36.3359V34.9919H414.512C415.168 34.9919 415.408 34.7359 415.408 34.1279V31.7919H415.136C414.64 32.8479 413.6 33.2799 412.56 33.2799C410.304 33.2799 408.8 31.5839 408.8 29.2319C408.8 26.8479 410.448 25.0559 412.72 25.0559C413.712 25.0559 414.624 25.4719 415.12 26.4479H415.392V25.2959H416.928V34.4959C416.928 35.6799 416.288 36.3359 415.056 36.3359H410.08ZM412.944 31.8719C414.352 31.8719 415.408 30.7679 415.408 29.1679C415.408 27.5679 414.352 26.4799 412.944 26.4799C411.472 26.4799 410.48 27.6319 410.48 29.1679C410.48 30.7199 411.472 31.8719 412.944 31.8719Z" fill="white"/>
<path d="M21.0522 388.198V377.158H25.8042C27.8682 377.158 29.2442 378.118 29.2442 379.958C29.2442 381.254 28.5882 381.99 27.5162 382.358V382.614C28.8922 382.902 29.5962 383.75 29.5962 385.206C29.5962 387.142 28.1082 388.198 26.0762 388.198H21.0522ZM25.9802 386.71C27.1322 386.71 27.8842 386.086 27.8842 384.982C27.8842 383.926 27.1162 383.302 25.9802 383.302H22.7322V386.71H25.9802ZM22.7322 381.926H25.6282C26.7642 381.926 27.5162 381.318 27.5162 380.278C27.5162 379.222 26.7482 378.63 25.6282 378.63H22.7322V381.926ZM33.8197 388.438C32.2677 388.438 31.0197 387.526 31.0197 386.006C31.0197 384.214 32.4757 383.67 34.1717 383.494L36.5397 383.238V382.806C36.5397 381.894 35.9157 381.302 34.7797 381.302C33.7397 381.302 33.0677 381.782 32.8757 382.598H31.3077C31.4997 381.078 32.7637 379.958 34.7797 379.958C36.8277 379.958 38.0757 380.998 38.0757 382.886V386.79C38.0757 387.286 38.1237 387.974 38.1557 388.166V388.198H36.5557C36.5397 387.926 36.5397 387.59 36.5397 387.27H36.2677C35.8037 388.086 34.8757 388.438 33.8197 388.438ZM32.6837 385.91C32.6837 386.726 33.3397 387.19 34.2357 387.19C35.6917 387.19 36.5397 386.102 36.5397 385.03V384.358L34.6997 384.582C33.4357 384.726 32.6837 385.062 32.6837 385.91ZM43.3034 388.438C41.3194 388.438 39.9274 387.478 39.6874 385.91H41.3034C41.5434 386.774 42.3754 387.126 43.3034 387.126C44.2314 387.126 45.0154 386.71 45.0154 385.99C45.0154 385.27 44.3594 385.03 43.4314 384.886L42.5194 384.726C40.9834 384.486 39.9594 383.862 39.9594 382.422C39.9594 380.934 41.2714 379.958 43.1274 379.958C44.8874 379.958 46.1354 380.774 46.4714 382.294H44.9034C44.6474 381.574 44.0074 381.238 43.1434 381.238C42.1994 381.238 41.5754 381.686 41.5754 382.294C41.5754 382.934 42.0554 383.142 43.0314 383.302L43.9434 383.462C45.4314 383.702 46.5994 384.31 46.5994 385.862C46.5994 387.446 45.2074 388.438 43.3034 388.438ZM51.8798 388.438C49.3998 388.438 47.7998 386.71 47.7998 384.182C47.7998 381.702 49.4638 379.958 51.8478 379.958C54.2958 379.958 55.7518 381.782 55.7518 384.198V384.47H49.3838C49.4478 386.022 50.4878 387.03 51.8798 387.03C52.9518 387.03 53.6398 386.646 53.9758 385.894H55.6398C55.1918 387.382 53.7678 388.438 51.8798 388.438ZM49.4318 383.366H54.1358C53.9918 382.118 53.0958 381.302 51.8478 381.302C50.6318 381.302 49.6398 382.054 49.4318 383.366ZM65.0897 388.438C62.5457 388.438 60.9457 387.11 60.6257 385.206H62.3537C62.7377 386.486 63.8577 386.966 65.0897 386.966C66.4497 386.966 67.3777 386.262 67.3777 385.286C67.3777 384.246 66.6737 383.798 65.2337 383.478L63.9217 383.174C62.4337 382.838 61.0097 382.006 61.0097 380.134C61.0097 378.31 62.5777 376.918 64.8657 376.918C67.1857 376.918 68.5137 378.134 68.9137 380.006H67.2017C66.8657 378.902 66.0817 378.374 64.8817 378.374C63.5057 378.374 62.7217 379.094 62.7217 379.99C62.7217 380.934 63.3777 381.35 64.7537 381.67L66.0497 381.99C67.6177 382.358 69.1217 383.126 69.1217 385.126C69.1217 387.046 67.5217 388.438 65.0897 388.438ZM73.2572 388.438C71.7052 388.438 70.4572 387.526 70.4572 386.006C70.4572 384.214 71.9132 383.67 73.6092 383.494L75.9772 383.238V382.806C75.9772 381.894 75.3532 381.302 74.2172 381.302C73.1772 381.302 72.5052 381.782 72.3132 382.598H70.7452C70.9372 381.078 72.2012 379.958 74.2172 379.958C76.2652 379.958 77.5132 380.998 77.5132 382.886V386.79C77.5132 387.286 77.5612 387.974 77.5932 388.166V388.198H75.9932C75.9772 387.926 75.9772 387.59 75.9772 387.27H75.7052C75.2412 388.086 74.3132 388.438 73.2572 388.438ZM72.1212 385.91C72.1212 386.726 72.7772 387.19 73.6732 387.19C75.1292 387.19 75.9772 386.102 75.9772 385.03V384.358L74.1372 384.582C72.8732 384.726 72.1212 385.062 72.1212 385.91ZM79.8449 388.198V380.198H81.4769V381.222H81.7489C82.2449 380.374 83.0929 379.958 84.0529 379.958C85.7009 379.958 86.7729 381.078 86.7729 382.886V388.198H85.1409V383.382C85.1409 382.294 84.6289 381.446 83.4129 381.446C82.2289 381.446 81.4769 382.358 81.4769 383.382V388.198H79.8449ZM92.0065 388.438C90.0225 388.438 88.6305 387.478 88.3905 385.91H90.0065C90.2465 386.774 91.0785 387.126 92.0065 387.126C92.9345 387.126 93.7185 386.71 93.7185 385.99C93.7185 385.27 93.0625 385.03 92.1345 384.886L91.2225 384.726C89.6865 384.486 88.6625 383.862 88.6625 382.422C88.6625 380.934 89.9745 379.958 91.8305 379.958C93.5905 379.958 94.8385 380.774 95.1745 382.294H93.6065C93.3505 381.574 92.7105 381.238 91.8465 381.238C90.9025 381.238 90.2785 381.686 90.2785 382.294C90.2785 382.934 90.7585 383.142 91.7345 383.302L92.6465 383.462C94.1345 383.702 95.3025 384.31 95.3025 385.862C95.3025 387.446 93.9105 388.438 92.0065 388.438ZM101.005 388.198V377.158H103.949L106.701 386.518H106.973L109.773 377.158H112.621V388.198H111.069V378.838H110.765L107.949 388.198H105.645L102.861 378.838H102.557V388.198H101.005ZM118.678 388.438C116.278 388.438 114.518 386.646 114.518 384.198C114.518 381.75 116.278 379.958 118.678 379.958C121.062 379.958 122.838 381.75 122.838 384.198C122.838 386.646 121.062 388.438 118.678 388.438ZM118.678 386.966C120.118 386.966 121.158 385.814 121.158 384.198C121.158 382.582 120.118 381.43 118.678 381.43C117.206 381.43 116.198 382.582 116.198 384.198C116.198 385.814 117.206 386.966 118.678 386.966ZM124.657 388.198V380.198H126.289V381.222H126.561C127.057 380.374 127.905 379.958 128.865 379.958C130.513 379.958 131.585 381.078 131.585 382.886V388.198H129.953V383.382C129.953 382.294 129.441 381.446 128.225 381.446C127.041 381.446 126.289 382.358 126.289 383.382V388.198H124.657ZM137.475 388.438C135.075 388.438 133.315 386.646 133.315 384.198C133.315 381.75 135.075 379.958 137.475 379.958C139.859 379.958 141.635 381.75 141.635 384.198C141.635 386.646 139.859 388.438 137.475 388.438ZM137.475 386.966C138.915 386.966 139.955 385.814 139.955 384.198C139.955 382.582 138.915 381.43 137.475 381.43C136.003 381.43 134.995 382.582 134.995 384.198C134.995 385.814 136.003 386.966 137.475 386.966Z" fill="#0A0B0D"/>
<path d="M21.0522 498.91V487.87H25.0682C28.5562 487.87 30.5722 490.126 30.5722 493.294C30.5722 496.462 28.5562 498.91 25.0682 498.91H21.0522ZM24.7642 497.406C27.3562 497.406 28.7962 495.774 28.7962 493.31C28.7962 490.83 27.3562 489.374 24.7642 489.374H22.7482V497.406H24.7642ZM36.0688 499.15C33.6688 499.15 31.9088 497.358 31.9088 494.91C31.9088 492.462 33.6688 490.67 36.0688 490.67C38.4528 490.67 40.2288 492.462 40.2288 494.91C40.2288 497.358 38.4528 499.15 36.0688 499.15ZM36.0688 497.678C37.5088 497.678 38.5488 496.526 38.5488 494.91C38.5488 493.294 37.5088 492.142 36.0688 492.142C34.5968 492.142 33.5888 493.294 33.5888 494.91C33.5888 496.526 34.5968 497.678 36.0688 497.678ZM43.7947 498.974C42.9627 498.974 42.4827 498.478 42.4827 497.614V492.158H40.9787V490.91H42.5147V488.75H44.0667V490.91H46.0347V492.158H44.0827V497.118C44.0827 497.518 44.2427 497.678 44.6587 497.678H46.0347V498.974H43.7947ZM51.1313 499.15C48.7313 499.15 46.9713 497.358 46.9713 494.91C46.9713 492.462 48.7313 490.67 51.1313 490.67C53.5153 490.67 55.2913 492.462 55.2913 494.91C55.2913 497.358 53.5153 499.15 51.1313 499.15ZM51.1313 497.678C52.5713 497.678 53.6113 496.526 53.6113 494.91C53.6113 493.294 52.5713 492.142 51.1313 492.142C49.6593 492.142 48.6513 493.294 48.6513 494.91C48.6513 496.526 49.6593 497.678 51.1313 497.678Z" fill="#0A0B0D"/>
<path d="M227.474 498.91V487.87H235.33V489.39H229.17V492.462H234.498V493.966H229.17V497.39H235.442V498.91H227.474ZM236.32 498.91L239.248 494.91L236.4 490.91H238.272L240.192 493.726H240.448L242.32 490.91H244.096L241.296 494.846L244.256 498.91H242.368L240.368 496.03H240.096L238.112 498.91H236.32ZM250.043 490.67C252.251 490.67 253.755 492.43 253.755 494.846C253.755 497.31 252.139 499.15 249.963 499.15C248.923 499.15 247.979 498.718 247.483 497.758H247.227V501.95H245.595V490.91H247.227V492.046H247.483C247.995 491.118 249.003 490.67 250.043 490.67ZM249.643 492.126C248.251 492.126 247.211 493.262 247.211 494.91C247.211 496.558 248.251 497.694 249.643 497.694C251.099 497.694 252.075 496.494 252.075 494.91C252.075 493.326 251.083 492.126 249.643 492.126ZM255.595 498.91V490.91H257.211V492.382H257.483C257.899 491.358 258.955 490.766 260.203 490.766H260.315V492.51C260.059 492.478 259.947 492.478 259.691 492.478C258.299 492.478 257.227 493.31 257.227 495.054V498.91H255.595ZM265.099 499.15C262.619 499.15 261.019 497.422 261.019 494.894C261.019 492.414 262.683 490.67 265.067 490.67C267.515 490.67 268.971 492.494 268.971 494.91V495.182H262.603C262.667 496.734 263.707 497.742 265.099 497.742C266.171 497.742 266.859 497.358 267.195 496.606H268.859C268.411 498.094 266.987 499.15 265.099 499.15ZM262.651 494.078H267.355C267.211 492.83 266.315 492.014 265.067 492.014C263.851 492.014 262.859 492.766 262.651 494.078ZM273.694 499.15C271.71 499.15 270.318 498.19 270.078 496.622H271.694C271.934 497.486 272.766 497.838 273.694 497.838C274.622 497.838 275.406 497.422 275.406 496.702C275.406 495.982 274.75 495.742 273.822 495.598L272.91 495.438C271.374 495.198 270.35 494.574 270.35 493.134C270.35 491.646 271.662 490.67 273.518 490.67C275.278 490.67 276.526 491.486 276.862 493.006H275.294C275.038 492.286 274.398 491.95 273.534 491.95C272.59 491.95 271.966 492.398 271.966 493.006C271.966 493.646 272.446 493.854 273.422 494.014L274.334 494.174C275.822 494.414 276.99 495.022 276.99 496.574C276.99 498.158 275.598 499.15 273.694 499.15ZM281.678 499.15C279.694 499.15 278.302 498.19 278.062 496.622H279.678C279.918 497.486 280.75 497.838 281.678 497.838C282.606 497.838 283.39 497.422 283.39 496.702C283.39 495.982 282.734 495.742 281.806 495.598L280.894 495.438C279.358 495.198 278.334 494.574 278.334 493.134C278.334 491.646 279.646 490.67 281.502 490.67C283.262 490.67 284.51 491.486 284.846 493.006H283.278C283.022 492.286 282.382 491.95 281.518 491.95C280.574 491.95 279.95 492.398 279.95 493.006C279.95 493.646 280.43 493.854 281.406 494.014L282.318 494.174C283.806 494.414 284.974 495.022 284.974 496.574C284.974 498.158 283.582 499.15 281.678 499.15ZM286.767 498.91V490.91H288.399V498.91H286.767ZM286.751 489.614V487.87H288.415V489.614H286.751ZM292.493 498.91L289.837 490.91H291.565L293.581 497.566H293.837L295.837 490.91H297.517L294.829 498.91H292.493ZM302.286 499.15C299.806 499.15 298.206 497.422 298.206 494.894C298.206 492.414 299.87 490.67 302.254 490.67C304.702 490.67 306.158 492.494 306.158 494.91V495.182H299.79C299.854 496.734 300.894 497.742 302.286 497.742C303.358 497.742 304.046 497.358 304.382 496.606H306.046C305.598 498.094 304.174 499.15 302.286 499.15ZM299.838 494.078H304.542C304.398 492.83 303.502 492.014 302.254 492.014C301.038 492.014 300.046 492.766 299.838 494.078Z" fill="#0A0B0D"/>
<path d="M227.474 388.198V377.158H235.154V378.678H229.17V381.75H234.338V383.27H229.17V388.198H227.474ZM239.673 388.438C237.545 388.438 236.233 387.174 236.233 384.982V380.198H237.865V384.95C237.865 386.102 238.457 386.966 239.673 386.966C240.857 386.966 241.449 386.102 241.449 384.95V380.198H243.081V384.982C243.081 387.174 241.785 388.438 239.673 388.438ZM245.407 388.198V380.198H247.039V381.222H247.311C247.807 380.374 248.655 379.958 249.615 379.958C251.263 379.958 252.335 381.078 252.335 382.886V388.198H250.703V383.382C250.703 382.294 250.191 381.446 248.975 381.446C247.791 381.446 247.039 382.358 247.039 383.382V388.198H245.407ZM258.177 388.438C255.905 388.438 254.065 386.774 254.065 384.198C254.065 381.622 255.905 379.958 258.177 379.958C260.113 379.958 261.617 381.094 262.001 382.934H260.385C260.065 381.99 259.297 381.43 258.193 381.43C256.833 381.43 255.745 382.47 255.745 384.182C255.745 385.926 256.833 386.966 258.193 386.966C259.297 386.966 260.097 386.39 260.417 385.398H262.049C261.681 387.238 260.177 388.438 258.177 388.438ZM265.623 388.262C264.791 388.262 264.311 387.766 264.311 386.902V381.446H262.807V380.198H264.343V378.038H265.895V380.198H267.863V381.446H265.911V386.406C265.911 386.806 266.071 386.966 266.487 386.966H267.863V388.262H265.623ZM269.579 388.198V380.198H271.211V388.198H269.579ZM269.563 378.902V377.158H271.227V378.902H269.563ZM277.194 388.438C274.794 388.438 273.034 386.646 273.034 384.198C273.034 381.75 274.794 379.958 277.194 379.958C279.578 379.958 281.354 381.75 281.354 384.198C281.354 386.646 279.578 388.438 277.194 388.438ZM277.194 386.966C278.634 386.966 279.674 385.814 279.674 384.198C279.674 382.582 278.634 381.43 277.194 381.43C275.722 381.43 274.714 382.582 274.714 384.198C274.714 385.814 275.722 386.966 277.194 386.966ZM283.173 388.198V380.198H284.805V381.222H285.077C285.573 380.374 286.421 379.958 287.381 379.958C289.029 379.958 290.101 381.078 290.101 382.886V388.198H288.469V383.382C288.469 382.294 287.957 381.446 286.741 381.446C285.557 381.446 284.805 382.358 284.805 383.382V388.198H283.173ZM294.695 388.438C293.143 388.438 291.895 387.526 291.895 386.006C291.895 384.214 293.351 383.67 295.047 383.494L297.415 383.238V382.806C297.415 381.894 296.791 381.302 295.655 381.302C294.615 381.302 293.943 381.782 293.751 382.598H292.183C292.375 381.078 293.639 379.958 295.655 379.958C297.703 379.958 298.951 380.998 298.951 382.886V386.79C298.951 387.286 298.999 387.974 299.031 388.166V388.198H297.431C297.415 387.926 297.415 387.59 297.415 387.27H297.143C296.679 388.086 295.751 388.438 294.695 388.438ZM293.559 385.91C293.559 386.726 294.215 387.19 295.111 387.19C296.567 387.19 297.415 386.102 297.415 385.03V384.358L295.575 384.582C294.311 384.726 293.559 385.062 293.559 385.91ZM301.282 388.198V377.158H302.914V388.198H301.282Z" fill="#0A0B0D"/>
<path d="M227.474 409.198V398.158H230.418L233.17 407.518H233.442L236.242 398.158H239.09V409.198H237.538V399.838H237.234L234.418 409.198H232.114L229.33 399.838H229.026V409.198H227.474ZM245.083 409.438C242.603 409.438 241.003 407.71 241.003 405.182C241.003 402.702 242.667 400.958 245.051 400.958C247.499 400.958 248.955 402.782 248.955 405.198V405.47H242.587C242.651 407.022 243.691 408.03 245.083 408.03C246.155 408.03 246.843 407.646 247.179 406.894H248.843C248.395 408.382 246.971 409.438 245.083 409.438ZM242.635 404.366H247.339C247.195 403.118 246.299 402.302 245.051 402.302C243.835 402.302 242.843 403.054 242.635 404.366ZM252.56 409.262C251.728 409.262 251.248 408.766 251.248 407.902V402.446H249.744V401.198H251.28V399.038H252.832V401.198H254.8V402.446H252.848V407.406C252.848 407.806 253.008 407.966 253.424 407.966H254.8V409.262H252.56ZM258.773 409.438C257.221 409.438 255.973 408.526 255.973 407.006C255.973 405.214 257.429 404.67 259.125 404.494L261.493 404.238V403.806C261.493 402.894 260.869 402.302 259.733 402.302C258.693 402.302 258.021 402.782 257.829 403.598H256.261C256.453 402.078 257.717 400.958 259.733 400.958C261.781 400.958 263.029 401.998 263.029 403.886V407.79C263.029 408.286 263.077 408.974 263.109 409.166V409.198H261.509C261.493 408.926 261.493 408.59 261.493 408.27H261.221C260.757 409.086 259.829 409.438 258.773 409.438ZM257.637 406.91C257.637 407.726 258.293 408.19 259.189 408.19C260.645 408.19 261.493 407.102 261.493 406.03V405.358L259.653 405.582C258.389 405.726 257.637 406.062 257.637 406.91ZM268.481 409.438C266.273 409.438 264.769 407.678 264.769 405.262C264.769 402.798 266.385 400.958 268.561 400.958C269.601 400.958 270.545 401.39 271.041 402.35H271.297V398.158H272.929V409.198H271.297V408.062H271.041C270.529 408.99 269.521 409.438 268.481 409.438ZM268.881 407.982C270.273 407.982 271.313 406.846 271.313 405.198C271.313 403.55 270.273 402.414 268.881 402.414C267.425 402.414 266.449 403.614 266.449 405.198C266.449 406.782 267.441 407.982 268.881 407.982ZM277.617 409.438C276.065 409.438 274.817 408.526 274.817 407.006C274.817 405.214 276.273 404.67 277.969 404.494L280.337 404.238V403.806C280.337 402.894 279.713 402.302 278.577 402.302C277.537 402.302 276.865 402.782 276.673 403.598H275.105C275.297 402.078 276.561 400.958 278.577 400.958C280.625 400.958 281.873 401.998 281.873 403.886V407.79C281.873 408.286 281.921 408.974 281.953 409.166V409.198H280.353C280.337 408.926 280.337 408.59 280.337 408.27H280.065C279.601 409.086 278.673 409.438 277.617 409.438ZM276.481 406.91C276.481 407.726 277.137 408.19 278.033 408.19C279.489 408.19 280.337 407.102 280.337 406.03V405.358L278.497 405.582C277.233 405.726 276.481 406.062 276.481 406.91ZM285.998 409.262C285.166 409.262 284.686 408.766 284.686 407.902V402.446H283.182V401.198H284.718V399.038H286.27V401.198H288.238V402.446H286.286V407.406C286.286 407.806 286.446 407.966 286.862 407.966H288.238V409.262H285.998ZM292.21 409.438C290.658 409.438 289.41 408.526 289.41 407.006C289.41 405.214 290.866 404.67 292.562 404.494L294.93 404.238V403.806C294.93 402.894 294.306 402.302 293.17 402.302C292.13 402.302 291.458 402.782 291.266 403.598H289.698C289.89 402.078 291.154 400.958 293.17 400.958C295.218 400.958 296.466 401.998 296.466 403.886V407.79C296.466 408.286 296.514 408.974 296.546 409.166V409.198H294.946C294.93 408.926 294.93 408.59 294.93 408.27H294.658C294.194 409.086 293.266 409.438 292.21 409.438ZM291.074 406.91C291.074 407.726 291.73 408.19 292.626 408.19C294.082 408.19 294.93 407.102 294.93 406.03V405.358L293.09 405.582C291.826 405.726 291.074 406.062 291.074 406.91ZM232.338 430.438C229.186 430.438 226.786 428.038 226.786 424.694C226.786 421.366 229.186 418.918 232.338 418.918C234.994 418.918 237.09 420.502 237.618 422.95H235.826C235.378 421.478 234.066 420.47 232.354 420.47C230.098 420.47 228.578 422.262 228.578 424.678C228.578 427.062 230.098 428.886 232.354 428.886C234.034 428.886 235.314 427.958 235.81 426.566H237.618C237.026 428.886 235.026 430.438 232.338 430.438ZM242.991 430.438C240.591 430.438 238.831 428.646 238.831 426.198C238.831 423.75 240.591 421.958 242.991 421.958C245.375 421.958 247.151 423.75 247.151 426.198C247.151 428.646 245.375 430.438 242.991 430.438ZM242.991 428.966C244.431 428.966 245.471 427.814 245.471 426.198C245.471 424.582 244.431 423.43 242.991 423.43C241.519 423.43 240.511 424.582 240.511 426.198C240.511 427.814 241.519 428.966 242.991 428.966ZM252.09 430.438C249.882 430.438 248.378 428.678 248.378 426.262C248.378 423.798 249.994 421.958 252.17 421.958C253.21 421.958 254.154 422.39 254.65 423.35H254.906V419.158H256.538V430.198H254.906V429.062H254.65C254.138 429.99 253.13 430.438 252.09 430.438ZM252.49 428.982C253.882 428.982 254.922 427.846 254.922 426.198C254.922 424.55 253.882 423.414 252.49 423.414C251.034 423.414 250.058 424.614 250.058 426.198C250.058 427.782 251.05 428.982 252.49 428.982ZM262.458 430.438C259.978 430.438 258.378 428.71 258.378 426.182C258.378 423.702 260.042 421.958 262.426 421.958C264.874 421.958 266.33 423.782 266.33 426.198V426.47H259.962C260.026 428.022 261.066 429.03 262.458 429.03C263.53 429.03 264.218 428.646 264.554 427.894H266.218C265.77 429.382 264.346 430.438 262.458 430.438ZM260.01 425.366H264.714C264.57 424.118 263.674 423.302 262.426 423.302C261.21 423.302 260.218 424.054 260.01 425.366ZM272.525 430.438C271.533 430.438 270.557 430.038 270.061 429.078H269.789V430.198H268.157V419.158H269.789V423.382H270.061C270.557 422.406 271.565 421.958 272.605 421.958C274.829 421.958 276.333 423.718 276.333 426.134C276.333 428.598 274.717 430.438 272.525 430.438ZM272.205 428.982C273.661 428.982 274.653 427.782 274.653 426.198C274.653 424.614 273.645 423.414 272.205 423.414C270.813 423.414 269.773 424.55 269.773 426.198C269.773 427.846 270.813 428.982 272.205 428.982ZM278.157 430.198V419.158H279.789V430.198H278.157ZM285.772 430.438C283.372 430.438 281.612 428.646 281.612 426.198C281.612 423.75 283.372 421.958 285.772 421.958C288.156 421.958 289.932 423.75 289.932 426.198C289.932 428.646 288.156 430.438 285.772 430.438ZM285.772 428.966C287.212 428.966 288.252 427.814 288.252 426.198C288.252 424.582 287.212 423.43 285.772 423.43C284.3 423.43 283.292 424.582 283.292 426.198C283.292 427.814 284.3 428.966 285.772 428.966ZM295.255 430.438C292.983 430.438 291.143 428.774 291.143 426.198C291.143 423.622 292.983 421.958 295.255 421.958C297.191 421.958 298.695 423.094 299.079 424.934H297.463C297.143 423.99 296.375 423.43 295.271 423.43C293.911 423.43 292.823 424.47 292.823 426.182C292.823 427.926 293.911 428.966 295.271 428.966C296.375 428.966 297.175 428.39 297.495 427.398H299.127C298.759 429.238 297.255 430.438 295.255 430.438ZM300.845 430.198V419.158H302.477V425.638H302.749L305.869 422.198H307.805L304.125 426.054L307.997 430.198H306.013L302.749 426.71H302.477V430.198H300.845ZM232.338 451.438C229.186 451.438 226.786 449.038 226.786 445.694C226.786 442.366 229.186 439.918 232.338 439.918C234.994 439.918 237.09 441.502 237.618 443.95H235.826C235.378 442.478 234.066 441.47 232.354 441.47C230.098 441.47 228.578 443.262 228.578 445.678C228.578 448.062 230.098 449.886 232.354 449.886C234.034 449.886 235.314 448.958 235.81 447.566H237.618C237.026 449.886 235.026 451.438 232.338 451.438ZM241.695 451.438C240.143 451.438 238.895 450.526 238.895 449.006C238.895 447.214 240.351 446.67 242.047 446.494L244.415 446.238V445.806C244.415 444.894 243.791 444.302 242.655 444.302C241.615 444.302 240.943 444.782 240.751 445.598H239.183C239.375 444.078 240.639 442.958 242.655 442.958C244.703 442.958 245.951 443.998 245.951 445.886V449.79C245.951 450.286 245.999 450.974 246.031 451.166V451.198H244.431C244.415 450.926 244.415 450.59 244.415 450.27H244.143C243.679 451.086 242.751 451.438 241.695 451.438ZM240.559 448.91C240.559 449.726 241.215 450.19 242.111 450.19C243.567 450.19 244.415 449.102 244.415 448.03V447.358L242.575 447.582C241.311 447.726 240.559 448.062 240.559 448.91ZM252.73 442.958C254.938 442.958 256.442 444.718 256.442 447.134C256.442 449.598 254.826 451.438 252.65 451.438C251.61 451.438 250.666 451.006 250.17 450.046H249.914V454.238H248.282V443.198H249.914V444.334H250.17C250.682 443.406 251.69 442.958 252.73 442.958ZM252.33 444.414C250.938 444.414 249.898 445.55 249.898 447.198C249.898 448.846 250.938 449.982 252.33 449.982C253.786 449.982 254.762 448.782 254.762 447.198C254.762 445.614 253.77 444.414 252.33 444.414ZM260.06 451.262C259.228 451.262 258.748 450.766 258.748 449.902V444.446H257.244V443.198H258.78V441.038H260.332V443.198H262.3V444.446H260.348V449.406C260.348 449.806 260.508 449.966 260.924 449.966H262.3V451.262H260.06ZM264.017 451.198V443.198H265.649V451.198H264.017ZM264.001 441.902V440.158H265.665V441.902H264.001ZM271.631 451.438C269.231 451.438 267.471 449.646 267.471 447.198C267.471 444.75 269.231 442.958 271.631 442.958C274.015 442.958 275.791 444.75 275.791 447.198C275.791 449.646 274.015 451.438 271.631 451.438ZM271.631 449.966C273.071 449.966 274.111 448.814 274.111 447.198C274.111 445.582 273.071 444.43 271.631 444.43C270.159 444.43 269.151 445.582 269.151 447.198C269.151 448.814 270.159 449.966 271.631 449.966ZM277.611 451.198V443.198H279.243V444.222H279.515C280.011 443.374 280.859 442.958 281.819 442.958C283.467 442.958 284.539 444.078 284.539 445.886V451.198H282.907V446.382C282.907 445.294 282.395 444.446 281.179 444.446C279.995 444.446 279.243 445.358 279.243 446.382V451.198H277.611Z" fill="#717886"/>
</g>
</g>
<defs>
<clipPath id="clip0_3466_10126">
<rect y="0.450195" width="671" height="520" rx="8" fill="white"/>
</clipPath>
<clipPath id="clip1_3466_10126">
<rect width="671" height="521.487" fill="white" transform="translate(0 -0.293945)"/>
</clipPath>
</defs>
</svg>
