<svg width="177" height="41" viewBox="0 0 177 41" fill="none" xmlns="http://www.w3.org/2000/svg">
<path d="M1.79971 33.0556C1.03659 33.0556 0.655029 32.6744 0.655029 31.9122V15.1433C0.655029 14.3811 1.03659 14 1.79971 14H18.5884C19.3515 14 19.7331 14.3811 19.7331 15.1433V31.9122C19.7331 32.6744 19.3515 33.0556 18.5884 33.0556H1.79971Z" fill="#0000FF"/>
<path d="M38.376 33.57C36.286 33.57 34.272 32.81 33.094 30.796H32.41V33H27.66V6.78H32.41V16.318H33.094C34.31 14.228 36.59 13.43 38.642 13.43C43.772 13.43 47.23 17.534 47.23 23.31C47.23 29.2 43.43 33.57 38.376 33.57ZM37.35 29.314C40.276 29.314 42.366 26.92 42.366 23.5C42.366 20.08 40.238 17.686 37.35 17.686C34.5 17.686 32.41 19.966 32.41 23.5C32.41 27.034 34.5 29.314 37.35 29.314ZM55.8976 33.57C52.2496 33.57 49.2856 31.366 49.2856 27.756C49.2856 23.5 52.5536 22.132 56.5056 21.714L62.6996 21.068V24.222L57.9116 24.792C55.3276 25.096 54.0736 25.856 54.0736 27.528C54.0736 29.086 55.3656 29.998 57.1896 29.998C60.3056 29.998 62.0916 27.642 62.0916 25.248V20.08C62.0916 18.446 60.7616 17.306 58.4056 17.306C56.1636 17.306 54.8716 18.294 54.4536 19.776H49.8936C50.3496 16.166 53.3516 13.43 58.4056 13.43C63.2696 13.43 66.4996 15.786 66.4996 20.384V29.656C66.4996 30.834 66.6136 32.468 66.6896 32.924V33H62.1296C62.0916 32.354 62.0916 31.746 62.0916 31.1H61.4076C60.2296 33 58.1776 33.57 55.8976 33.57ZM78.0388 33.57C73.2508 33.57 69.8308 31.176 69.2988 27.414H73.9728C74.5048 29.086 76.2528 29.808 78.0768 29.808C79.9388 29.808 81.4588 29.01 81.4588 27.604C81.4588 26.198 80.0148 25.818 78.0388 25.476L76.0248 25.134C72.2248 24.488 69.8688 22.892 69.8688 19.472C69.8688 15.748 73.1368 13.43 77.6588 13.43C82.0668 13.43 84.9928 15.482 85.7908 19.054H81.2308C80.6988 17.648 79.2928 17.078 77.6968 17.078C75.7588 17.078 74.5048 17.914 74.5048 19.092C74.5048 20.308 75.4928 20.688 77.5448 21.03L79.5588 21.372C83.2448 21.98 86.0568 23.5 86.0568 27.186C86.0568 31.214 82.7128 33.57 78.0388 33.57ZM97.6441 33.57C91.7921 33.57 87.9161 29.58 87.9161 23.462C87.9161 17.458 92.0201 13.43 97.6821 13.43C103.61 13.43 107.03 17.838 107.03 23.652C107.03 23.918 107.03 24.222 107.03 24.488H90.4621V21.334H102.394C102.014 18.788 100 17.306 97.6441 17.306C94.9461 17.306 92.7421 19.016 92.5521 22.018L92.5141 23.88C92.5141 27.414 94.8321 29.504 97.6441 29.504C99.8481 29.504 101.178 28.744 101.824 27.414H106.688C105.7 30.986 102.166 33.57 97.6441 33.57Z" fill="black"/>
<path d="M118.436 33.57C114.75 33.57 111.748 31.442 111.748 27.832C111.748 23.614 115.396 22.436 119.576 21.98L126.15 21.258V23.348L120.602 23.994C117.144 24.412 114.788 25.248 114.788 27.642C114.788 29.96 116.65 31.29 119.082 31.29C122.92 31.29 125.238 28.516 125.238 25.742V20.346C125.238 17.61 123.566 15.824 120.45 15.824C117.714 15.824 115.814 17.192 115.32 19.624H112.508C113.002 16.052 115.966 13.43 120.45 13.43C125.314 13.43 127.974 16.09 127.974 20.384V29.694C127.974 30.834 128.088 32.468 128.164 32.924V33H125.238C125.2 32.354 125.2 31.404 125.2 30.454H124.63C123.566 32.468 121.172 33.57 118.436 33.57ZM142.977 13.43C148.373 13.43 152.097 17.724 152.097 23.424C152.097 29.238 148.183 33.57 142.863 33.57C139.975 33.57 137.467 32.278 136.327 29.808H135.757V40.22H132.869V14H135.757V17.306H136.327C137.505 14.798 140.013 13.43 142.977 13.43ZM142.407 15.976C138.569 15.976 135.719 19.206 135.719 23.5C135.719 27.87 138.569 31.062 142.407 31.062C146.473 31.062 149.095 27.68 149.095 23.5C149.095 19.358 146.435 15.976 142.407 15.976ZM165.772 13.43C171.168 13.43 174.892 17.724 174.892 23.424C174.892 29.238 170.978 33.57 165.658 33.57C162.77 33.57 160.262 32.278 159.122 29.808H158.552V40.22H155.664V14H158.552V17.306H159.122C160.3 14.798 162.808 13.43 165.772 13.43ZM165.202 15.976C161.364 15.976 158.514 19.206 158.514 23.5C158.514 27.87 161.364 31.062 165.202 31.062C169.268 31.062 171.89 27.68 171.89 23.5C171.89 19.358 169.23 15.976 165.202 15.976Z" fill="black"/>
</svg>
