<svg width="671" height="329" viewBox="0 0 671 329" fill="none" xmlns="http://www.w3.org/2000/svg">
<path d="M0 8.00002C0 3.58174 3.58172 0 8 0H663C667.418 0 671 3.58172 671 8V320.391C671 324.809 667.418 328.391 663 328.391H7.99998C3.58171 328.391 0 324.809 0 320.391V8.00002Z" fill="#FAFAFA"/>
<path d="M93.2702 72.2413C88.908 72.2413 84.7045 70.6551 82.2459 66.4516H80.8182V71.0516H70.9043V16.3267H80.8182V36.2339H82.2459C84.7838 31.8717 89.5425 30.2062 93.8253 30.2062C104.532 30.2062 111.75 38.7718 111.75 50.8272C111.75 63.1205 103.819 72.2413 93.2702 72.2413ZM91.1287 63.3584C97.2357 63.3584 101.598 58.3618 101.598 51.2237C101.598 44.0857 97.1564 39.0891 91.1287 39.0891C85.1804 39.0891 80.8182 43.8478 80.8182 51.2237C80.8182 58.5997 85.1804 63.3584 91.1287 63.3584ZM130.071 72.2413C122.457 72.2413 116.271 67.6412 116.271 60.1066C116.271 51.2237 123.091 48.3685 131.34 47.4961L142.998 46.3064V44.0857C142.998 40.6753 140.223 38.296 135.305 38.296C130.626 38.296 127.929 40.3581 127.057 43.4512H117.539C118.491 35.9166 124.757 30.2062 135.305 30.2062C145.457 30.2062 152.199 35.1235 152.199 44.7202V64.0722C152.199 66.5309 152.437 69.9413 152.595 70.893V71.0516H143.078C142.999 69.7033 142.998 68.4344 142.998 67.0861H141.571C139.112 71.0516 134.829 72.2413 130.071 72.2413ZM132.767 64.786C139.271 64.786 142.998 59.8687 142.998 54.8721V52.8893L134.274 53.9203C128.881 54.5548 126.264 56.1411 126.264 59.6308C126.264 62.8825 128.96 64.786 132.767 64.786ZM175.992 72.2413C165.999 72.2413 158.861 67.2447 157.75 59.3928H167.506C168.616 62.8825 172.264 64.3895 176.071 64.3895C179.958 64.3895 183.13 62.7239 183.13 59.7894C183.13 56.8549 180.116 56.0618 175.992 55.3479L171.789 54.6341C163.857 53.2859 158.94 49.9548 158.94 42.8167C158.94 35.0442 165.761 30.2062 175.199 30.2062C184.399 30.2062 190.506 34.489 192.172 41.9443H182.654C181.544 39.0098 178.609 37.8201 175.278 37.8201C171.233 37.8201 168.616 39.5649 168.616 42.0236C168.616 44.5616 170.678 45.3547 174.961 46.0685L179.165 46.7823C186.858 48.0513 192.727 51.2238 192.727 58.917C192.727 67.324 185.747 72.2413 175.992 72.2413ZM217.551 72.2413C205.337 72.2413 197.248 63.9136 197.248 51.1444C197.248 38.6132 205.813 30.2062 217.631 30.2062C230.003 30.2062 237.141 39.4063 237.141 51.541V53.2859H206.924C207.399 59.8687 212 63.755 217.551 63.755C222.151 63.755 224.927 62.1687 226.276 59.3928H236.428C234.365 66.8481 226.989 72.2413 217.551 72.2413ZM227.465 46.703C226.672 41.3891 222.469 38.296 217.551 38.296C212.396 38.296 208.034 41.3098 207.082 46.703H227.465Z" fill="#0A0B0D"/>
<path d="M18.3793 71.0515C16.7931 71.0515 16 70.2584 16 68.6722V33.7751C16 32.1889 16.7931 31.3958 18.3793 31.3958H53.2764C54.8627 31.3958 55.6558 32.1889 55.6558 33.7751V68.6722C55.6558 70.2584 54.8627 71.0515 53.2764 71.0515H18.3793Z" fill="#0000FF"/>
<path d="M268.362 59.1956L266.362 59.1956L266.362 29.1956L268.362 29.1956L268.362 59.1956Z" fill="#0A0B0D"/>
<path d="M253.362 45.1958L253.362 43.1958L281.362 43.1958L281.362 45.1958L253.362 45.1958Z" fill="#0A0B0D"/>
<rect x="297.362" y="16.1956" width="221" height="56" fill="#CCCCCC"/>
<path d="M59.9921 115.535C59.9921 114.451 59.9921 113.909 60.196 113.492C60.3912 113.092 60.7135 112.769 61.112 112.574C61.5282 112.369 62.0693 112.369 63.1515 112.369H96.8255C97.9077 112.369 98.4487 112.369 98.865 112.574C99.2635 112.769 99.5858 113.092 99.781 113.492C99.9849 113.909 99.9849 114.451 99.9849 115.535V149.275C99.9849 150.36 99.9849 150.902 99.781 151.319C99.5858 151.718 99.2635 152.041 98.865 152.237C98.4487 152.441 97.9077 152.441 96.8255 152.441H63.1515C62.0693 152.441 61.5282 152.441 61.112 152.237C60.7135 152.041 60.3912 151.718 60.196 151.319C59.9921 150.902 59.9921 150.36 59.9921 149.275V115.535Z" fill="#0000FF"/>
<path d="M103.984 115.535C103.984 114.451 103.984 113.909 104.188 113.492C104.383 113.092 104.706 112.769 105.104 112.574C105.52 112.369 106.061 112.369 107.144 112.369H140.818C141.9 112.369 142.441 112.369 142.857 112.574C143.256 112.769 143.578 113.092 143.773 113.492C143.977 113.909 143.977 114.451 143.977 115.535V149.275C143.977 150.36 143.977 150.902 143.773 151.319C143.578 151.718 143.256 152.041 142.857 152.237C142.441 152.441 141.9 152.441 140.818 152.441H107.144C106.061 152.441 105.52 152.441 105.104 152.237C104.706 152.041 104.383 151.718 104.188 151.319C103.984 150.902 103.984 150.36 103.984 149.275V115.535Z" fill="#0000FF"/>
<path d="M147.976 115.535C147.976 114.451 147.976 113.909 148.18 113.492C148.375 113.092 148.698 112.769 149.096 112.574C149.512 112.369 150.053 112.369 151.136 112.369H184.81C185.892 112.369 186.433 112.369 186.849 112.574C187.248 112.769 187.57 113.092 187.765 113.492C187.969 113.909 187.969 114.451 187.969 115.535V149.275C187.969 150.36 187.969 150.902 187.765 151.319C187.57 151.718 187.248 152.041 186.849 152.237C186.433 152.441 185.892 152.441 184.81 152.441H151.136C150.053 152.441 149.512 152.441 149.096 152.237C148.698 152.041 148.375 151.718 148.18 151.319C147.976 150.902 147.976 150.36 147.976 149.275V115.535Z" fill="#0000FF"/>
<path d="M16.2039 97.4629C16 97.88 16 98.4222 16 99.5065V149.275C16 150.36 16 150.902 16.2039 151.319C16.3991 151.718 16.7214 152.041 17.1199 152.237C17.5361 152.441 18.0772 152.441 19.1594 152.441H52.8334C53.9156 152.441 54.4567 152.441 54.8729 152.237C55.2714 152.041 55.5937 151.718 55.7889 151.319C55.9928 150.902 55.9928 150.36 55.9928 149.275V115.535C55.9928 114.451 55.9928 113.909 55.7889 113.492C55.5937 113.092 55.2714 112.769 54.8729 112.574C54.4567 112.369 53.9156 112.369 52.8334 112.369H35.1566C34.0744 112.369 33.5333 112.369 33.117 112.165C32.7185 111.97 32.3963 111.647 32.201 111.247C31.9971 110.83 31.9971 110.288 31.9971 109.204V99.5065C31.9971 98.4222 31.9971 97.88 31.7932 97.4629C31.598 97.0636 31.2757 96.7407 30.8772 96.5451C30.461 96.3408 29.9199 96.3408 28.8377 96.3408H19.1594C18.0772 96.3408 17.5361 96.3408 17.1199 96.5451C16.7214 96.7407 16.3991 97.0636 16.2039 97.4629Z" fill="#0000FF"/>
<path d="M218.969 139.391L216.969 139.391L216.969 109.391L218.969 109.391L218.969 139.391Z" fill="#0A0B0D"/>
<path d="M203.969 125.391L203.969 123.391L231.969 123.391L231.969 125.391L203.969 125.391Z" fill="#0A0B0D"/>
<rect x="247.969" y="96.3909" width="221" height="56" fill="#CCCCCC"/>
<path d="M16 180.815C16 179.3 16 178.542 16.2855 177.959C16.5589 177.401 17.0101 176.95 17.5682 176.676C18.151 176.391 18.9087 176.391 20.424 176.391H67.576C69.0913 176.391 69.849 176.391 70.4318 176.676C70.9899 176.95 71.4411 177.401 71.7145 177.959C72 178.542 72 179.3 72 180.815V227.967C72 229.482 72 230.24 71.7145 230.823C71.4411 231.381 70.9899 231.832 70.4318 232.105C69.849 232.391 69.0913 232.391 67.576 232.391H20.424C18.9087 232.391 18.151 232.391 17.5682 232.105C17.0101 231.832 16.5589 231.381 16.2855 230.823C16 230.24 16 229.482 16 227.967V180.815Z" fill="#0000FF"/>
<path d="M103 219.391L101 219.391L101 189.391L103 189.391L103 219.391Z" fill="#0A0B0D"/>
<path d="M88 205.391L88 203.391L116 203.391L116 205.391L88 205.391Z" fill="#0A0B0D"/>
<rect x="132" y="176.391" width="56" height="56" fill="#CCCCCC"/>
<path d="M16 260.815C16 259.3 16 258.542 16.2855 257.959C16.5589 257.401 17.0101 256.95 17.5682 256.676C18.151 256.391 18.9087 256.391 20.424 256.391H67.576C69.0913 256.391 69.849 256.391 70.4318 256.676C70.9899 256.95 71.4411 257.401 71.7145 257.959C72 258.542 72 259.3 72 260.815V307.967C72 309.482 72 310.24 71.7145 310.823C71.4411 311.381 70.9899 311.832 70.4318 312.105C69.849 312.391 69.0913 312.391 67.576 312.391H20.424C18.9087 312.391 18.151 312.391 17.5682 312.105C17.0101 311.832 16.5589 311.381 16.2855 310.823C16 310.24 16 309.482 16 307.967V260.815Z" fill="#0000FF"/>
<rect x="88" y="256.391" width="56" height="56" fill="#CCCCCC"/>
</svg>
